<svg width="705" height="400" viewBox="0 0 705 400" fill="none" xmlns="http://www.w3.org/2000/svg"><g clip-path="url(#clip0)"><path fill="#fff" d="M0 0h705v400H0z"/><path d="M97.02 202l-1.38-7.4-2.53 7.56h-.4l-2.5-7.55-1.33 7.39h-1.5l2.23-11.44h.69l2.65 8.34 2.64-8.34h.68L98.5 202H97zM103.2 193.47c1.2 0 2.12.39 2.78 1.16.66.77.99 1.83.99 3.16 0 1.37-.34 2.44-1.03 3.21a3.5 3.5 0 01-2.75 1.16c-1.19 0-2.12-.4-2.78-1.18-.67-.78-1-1.84-1-3.2 0-1.28.35-2.32 1.04-3.12.7-.8 1.61-1.2 2.74-1.2zm0 7.47c.7 0 1.23-.28 1.62-.86.4-.58.59-1.34.59-2.3 0-2.06-.74-3.1-2.22-3.1-.7 0-1.24.29-1.64.85-.4.56-.6 1.32-.6 2.26 0 2.1.75 3.16 2.24 3.16zM113.93 194.88h-3.9V202h-1.5v-8.37h5.4v1.25zM118.71 203.38c-.2.52-.6.96-1.21 1.31-.61.37-1.3.54-2.07.54v-1.32c.6 0 1.14-.15 1.59-.44.44-.29.67-.64.67-1.06 0-.5-.08-.94-.25-1.35l-2.9-7.47h1.53l2.45 6.46 2.22-6.46h1.5l-3.53 9.78zM131.5 193.47c1.2 0 2.13.39 2.79 1.16.66.77 1 1.83 1 3.16 0 1.37-.35 2.44-1.04 3.21a3.5 3.5 0 01-2.74 1.16c-1.2 0-2.13-.4-2.8-1.18-.66-.78-1-1.84-1-3.2 0-1.28.36-2.32 1.06-3.12.7-.8 1.6-1.2 2.74-1.2zm0 7.47c.7 0 1.25-.28 1.63-.86.4-.58.59-1.34.59-2.3 0-2.06-.74-3.1-2.21-3.1-.7 0-1.25.29-1.65.85-.4.56-.6 1.32-.6 2.26 0 2.1.75 3.16 2.25 3.16zM137.59 195.97c.35-.6.79-1.07 1.3-1.38.53-.32 1.1-.48 1.7-.48 1.1 0 1.95.35 2.57 1.04.63.7.94 1.63.94 2.8 0 1.26-.34 2.27-1.02 3.05a3.53 3.53 0 01-2.8 1.16 3.41 3.41 0 01-2.85-1.33 5.79 5.79 0 01-1.02-3.61c0-1.01.09-1.9.26-2.69.18-.78.44-1.41.78-1.9a4 4 0 011.3-1.2 7.6 7.6 0 012.08-.76l2.68-.6.32 1.37c-1.95.42-3.14.69-3.6.81a4.2 4.2 0 00-1.26.57c-.39.26-.7.64-.91 1.13a6.87 6.87 0 00-.47 2.02zm2.77 4.96c.7 0 1.22-.26 1.6-.77.37-.5.56-1.2.56-2.05 0-.9-.19-1.6-.56-2.07-.36-.47-.9-.71-1.59-.71-.7 0-1.28.27-1.72.81-.44.54-.66 1.2-.66 1.97 0 .83.22 1.51.64 2.04.43.52 1 .78 1.73.78zM148.94 196.72c.65-.07 1.18-.11 1.6-.11 1.06 0 1.87.23 2.43.7.56.46.84 1.14.84 2.05 0 .7-.27 1.32-.81 1.85s-1.38.79-2.52.79h-2.99v-7.15h-2.44v-1.22h3.9v3.09zm0 4.06c.38.03.9.05 1.58.05.55 0 1-.13 1.32-.39.32-.25.48-.63.48-1.11 0-.5-.16-.9-.5-1.16-.32-.26-.79-.4-1.39-.4-.32 0-.81.04-1.49.12v2.9zM161.69 202h-1.42v-3.4h-.7c-.77 0-1.37.16-1.77.48-.4.32-.68.87-.82 1.65-.15.9-.67 1.35-1.55 1.35-.2 0-.36-.01-.5-.03v-1.3c.07.02.17.03.3.03.24 0 .39-.15.44-.46.21-1.06.82-1.78 1.82-2.16a2.54 2.54 0 01-1.48-.73 1.92 1.92 0 01-.53-1.34 2.4 2.4 0 011.68-2.32c.5-.16 1.1-.23 1.82-.23.88 0 1.78.04 2.7.12V202zm-1.42-4.46v-2.79a14.9 14.9 0 00-1.48-.08c-.62 0-1.08.14-1.38.4-.3.26-.46.58-.46.96 0 .5.2.87.59 1.12.4.24.9.36 1.5.37l1.23.02zM170.13 194.32l-.72 1.04c-.19-.16-.46-.3-.83-.44-.37-.13-.74-.2-1.11-.2-.81 0-1.46.28-1.93.86a3.54 3.54 0 00-.71 2.33c0 .94.23 1.68.7 2.22.48.52 1.16.78 2.05.78.66 0 1.34-.26 2.02-.78l.57 1.25a5.2 5.2 0 01-2.96.78 3.77 3.77 0 01-2.82-1.15 4.3 4.3 0 01-1.1-3.1c0-1.37.38-2.45 1.16-3.25.79-.8 1.84-1.2 3.17-1.2.45 0 .93.1 1.43.29.5.19.86.38 1.07.57zM178.6 202h-1.5v-3.77h-3.85V202h-1.5v-8.37h1.5V197h3.85v-3.36h1.5V202zM187.75 202h-1.48v-5.73l-5.22 5.96h-.34v-8.6h1.5v5.73l5.2-5.95h.34V202zM195.58 194.88h-2.4V202h-1.49v-7.12h-2.4v-1.25h6.29v1.25zM198.6 196.73c.7-.08 1.29-.12 1.74-.12 1.06 0 1.88.23 2.43.7.57.46.85 1.14.85 2.05 0 .7-.27 1.32-.81 1.85-.55.53-1.39.79-2.52.79h-3.17v-8.37h1.47v3.1zm0 4.05c.36.03.94.05 1.75.05.55 0 .99-.13 1.3-.39.32-.25.47-.63.47-1.11 0-1.04-.61-1.56-1.85-1.56-.42 0-.98.05-1.68.14v2.87zM205.9 204.84l-.4-.57c.9-.73 1.35-1.36 1.35-1.87 0-.23-.08-.46-.23-.69-.45-.21-.68-.52-.68-.92 0-.28.11-.5.33-.68.2-.18.48-.27.8-.27a1 1 0 01.77.37c.22.25.34.54.34.88 0 .69-.15 1.31-.44 1.86-.28.56-.9 1.19-1.83 1.89zM222.54 202h-1.48v-7.12h-3.65V202h-1.5v-8.37h6.63V202zM227.9 193.47c1.2 0 2.12.39 2.78 1.16.66.77 1 1.83 1 3.16 0 1.37-.35 2.44-1.04 3.21a3.5 3.5 0 01-2.74 1.16c-1.2 0-2.12-.4-2.8-1.18-.66-.78-1-1.84-1-3.2 0-1.28.36-2.32 1.06-3.12.7-.8 1.6-1.2 2.74-1.2zm0 7.47c.7 0 1.24-.28 1.62-.86.4-.58.59-1.34.59-2.3 0-2.06-.74-3.1-2.21-3.1-.7 0-1.25.29-1.65.85-.4.56-.6 1.32-.6 2.26 0 2.1.75 3.16 2.25 3.16zM239.63 202h-1.49v-3.28c-.68.17-1.4.26-2.16.26a2.9 2.9 0 01-2.16-.8c-.52-.52-.78-1.28-.78-2.29v-2.26h1.48v2.23c0 .62.16 1.1.47 1.41.32.33.78.49 1.38.49.6 0 1.2-.06 1.79-.19v-3.94h1.47V202zM248.78 197.97h-6.03c0 .61.1 1.13.31 1.56.21.43.51.77.9 1.02.4.24.87.36 1.43.36.84 0 1.55-.25 2.13-.75l.6 1.2c-.39.3-.81.52-1.28.63-.47.11-1.05.17-1.74.17a3.7 3.7 0 01-2.8-1.17 4.32 4.32 0 01-1.1-3.07c0-1.33.39-2.4 1.15-3.22a3.66 3.66 0 012.77-1.23c1.15 0 2.07.32 2.76.97a3.41 3.41 0 011.03 2.62c0 .21-.04.52-.13.9zm-3.6-3.25c-.65 0-1.2.21-1.65.64a2.3 2.3 0 00-.73 1.52h4.62c0-.63-.2-1.15-.6-1.55-.41-.4-.96-.61-1.64-.61zM258.46 202l-.88-5.04-2.52 5.18h-.4l-2.52-5.1-.86 4.96h-1.43l1.6-8.52h.4l3.1 6.25 3.05-6.25h.38l1.57 8.52h-1.49zM264.65 203.38c-.2.52-.6.96-1.21 1.31-.62.37-1.3.54-2.07.54v-1.32c.6 0 1.13-.15 1.58-.44.45-.29.68-.64.68-1.06 0-.5-.09-.94-.25-1.35l-2.9-7.47h1.53l2.44 6.46 2.23-6.46h1.5l-3.53 9.78zM280.52 194.32l-.72 1.04c-.19-.16-.46-.3-.83-.44-.37-.13-.74-.2-1.11-.2-.81 0-1.46.28-1.93.86a3.54 3.54 0 00-.71 2.33c0 .94.24 1.68.71 2.22.47.52 1.15.78 2.04.78.66 0 1.34-.26 2.02-.78l.57 1.25a5.2 5.2 0 01-2.96.78 3.77 3.77 0 01-2.82-1.15 4.3 4.3 0 01-1.1-3.1c0-1.37.38-2.45 1.16-3.25.79-.8 1.85-1.2 3.17-1.2.45 0 .93.1 1.43.29.5.19.86.38 1.08.57zM283.64 201.54v3.74h-1.5v-11.65h1.5v.69a2.76 2.76 0 012.03-.85c1.18 0 2.1.37 2.77 1.12.66.75.99 1.83.99 3.25 0 1.28-.34 2.32-1 3.12-.68.8-1.64 1.2-2.9 1.2-.33 0-.71-.07-1.12-.2-.4-.12-.66-.26-.77-.42zm0-6.1v4.88c.12.15.32.29.61.41.3.12.58.18.86.18 1.84 0 2.76-1.04 2.76-3.14 0-1.08-.22-1.86-.67-2.33-.44-.48-1.14-.72-2.1-.72-.2 0-.45.08-.76.23-.32.16-.55.32-.7.49zM298.1 197.97h-6.02c0 .61.1 1.13.31 1.56.2.43.5.77.9 1.02.4.24.87.36 1.43.36.84 0 1.55-.25 2.12-.75l.61 1.2c-.39.3-.82.52-1.29.63-.47.11-1.04.17-1.73.17a3.7 3.7 0 01-2.8-1.17 4.32 4.32 0 01-1.1-3.07c0-1.33.38-2.4 1.15-3.22a3.66 3.66 0 012.76-1.23c1.16 0 2.08.32 2.77.97a3.41 3.41 0 011.03 2.62c0 .21-.04.52-.13.9zm-3.6-3.25c-.64 0-1.2.21-1.64.64a2.3 2.3 0 00-.74 1.52h4.63c0-.63-.2-1.15-.6-1.55-.42-.4-.96-.61-1.64-.61zM307.63 204.73h-1.31V202h-5.92v2.73h-1.31v-3.92h.64a7.93 7.93 0 001.49-2.76c.35-1.1.52-2.2.52-3.33v-1.09h4.95v7.18h.94v3.92zm-2.37-3.92v-6h-2.28c0 1.1-.16 2.2-.48 3.28-.31 1.08-.76 1.99-1.34 2.72h4.1zM315.4 194.32l-.73 1.04c-.18-.16-.46-.3-.83-.44-.36-.13-.73-.2-1.1-.2-.82 0-1.46.28-1.94.86a3.54 3.54 0 00-.7 2.33c0 .94.23 1.68.7 2.22.48.52 1.16.78 2.04.78.67 0 1.35-.26 2.03-.78l.57 1.25a5.2 5.2 0 01-2.96.78 3.77 3.77 0 01-2.82-1.15 4.3 4.3 0 01-1.11-3.1c0-1.37.39-2.45 1.17-3.25.78-.8 1.84-1.2 3.16-1.2.46 0 .93.1 1.43.29.5.19.86.38 1.08.57zM322.73 194.88h-2.4V202h-1.48v-7.12h-2.4v-1.25h6.28v1.25zM329.27 197.5c1.06.35 1.6 1.06 1.6 2.12 0 .69-.27 1.25-.8 1.7-.53.46-1.33.68-2.39.68h-3.4v-8.35c1.17-.06 2.26-.1 3.26-.1.94 0 1.67.2 2.2.58.51.38.78.94.78 1.68 0 .36-.12.7-.34 1.01a2 2 0 01-.91.69zm-3.59-.46c.08 0 .68.02 1.8.02 1.05 0 1.58-.42 1.58-1.24a1 1 0 00-.37-.83c-.25-.2-.6-.3-1.04-.3-.86 0-1.52.02-1.97.06v2.29zm0 3.77c.59.04 1.2.06 1.83.06 1.24 0 1.87-.46 1.87-1.36 0-.44-.17-.78-.49-1.01-.32-.24-.8-.36-1.41-.36-.8 0-1.4.01-1.8.04v2.63zM333.23 204.84l-.4-.57c.9-.73 1.35-1.36 1.35-1.87 0-.23-.08-.46-.24-.69-.44-.21-.67-.52-.67-.92 0-.28.11-.5.32-.68.22-.18.49-.27.8-.27a1 1 0 01.77.37c.23.25.35.54.35.88 0 .69-.15 1.31-.44 1.86-.29.56-.9 1.19-1.84 1.89zM93.05 225.5c1.06.35 1.6 1.06 1.6 2.12 0 .69-.27 1.25-.8 1.7-.53.46-1.33.68-2.39.68h-3.4v-8.35a62.4 62.4 0 013.26-.1c.94 0 1.67.2 2.2.58.52.38.78.94.78 1.68 0 .36-.12.7-.34 1.01a2 2 0 01-.91.69zm-3.59-.46c.08 0 .68.02 1.8.02 1.06 0 1.58-.42 1.58-1.24a1 1 0 00-.37-.83c-.25-.2-.6-.3-1.04-.3-.86 0-1.52.02-1.97.06v2.29zm0 3.77c.59.04 1.2.06 1.83.06 1.24 0 1.87-.46 1.87-1.36 0-.44-.17-.78-.49-1.01-.32-.24-.8-.36-1.41-.36-.8 0-1.4.01-1.8.04v2.63zM105.17 230h-1.46v-8.37h1.46V230zm-7.39-5.3c.43-.06.9-.1 1.42-.1 1.08 0 1.9.24 2.46.7.56.47.84 1.15.84 2.06 0 .45-.13.9-.38 1.33-.26.43-.63.75-1.12.97a4.4 4.4 0 01-1.83.34h-2.85v-8.37h1.46v3.07zm0 4.1c.36.03.83.05 1.42.05.56 0 1-.13 1.32-.4.34-.26.5-.64.5-1.12 0-.53-.17-.92-.52-1.18-.34-.26-.8-.4-1.38-.4-.3 0-.76.04-1.34.1v2.95zM115.1 232.73h-1.31V230h-5.92v2.73h-1.31v-3.92h.63a7.91 7.91 0 001.5-2.76c.35-1.1.52-2.2.52-3.33v-1.09h4.95v7.18h.94v3.92zm-2.37-3.92v-6h-2.29c0 1.1-.15 2.2-.47 3.28a7.9 7.9 0 01-1.34 2.72h4.1zM123.58 225.97h-6.03c0 .61.1 1.13.3 1.56.22.43.52.77.9 1.02.4.24.88.36 1.44.36.84 0 1.54-.25 2.12-.75l.61 1.2c-.39.3-.82.52-1.29.63-.47.11-1.04.17-1.73.17a3.7 3.7 0 01-2.8-1.17 4.32 4.32 0 01-1.1-3.07c0-1.33.38-2.4 1.15-3.22a3.66 3.66 0 012.76-1.23c1.16 0 2.08.32 2.77.97a3.41 3.41 0 011.03 2.62c0 .21-.04.52-.13.9zm-3.6-3.25c-.65 0-1.2.21-1.65.64a2.3 2.3 0 00-.74 1.52h4.63c0-.63-.2-1.15-.61-1.55-.4-.4-.95-.61-1.63-.61zM132.23 230h-1.48v-7.19h-2.24a17.46 17.46 0 01-.36 3.27c-.22 1-.5 1.82-.87 2.47a2.82 2.82 0 01-1.19 1.25c-.42.2-.94.3-1.53.3v-1.37c.93 0 1.59-.72 1.97-2.16.4-1.45.59-2.83.59-4.16v-.78h5.11V230zM141.34 225.97h-6.03c0 .61.1 1.13.31 1.56.21.43.51.77.9 1.02.4.24.88.36 1.43.36.84 0 1.55-.25 2.13-.75l.6 1.2c-.38.3-.81.52-1.28.63-.47.11-1.05.17-1.74.17a3.7 3.7 0 01-2.8-1.17 4.32 4.32 0 01-1.1-3.07c0-1.33.39-2.4 1.15-3.22a3.66 3.66 0 012.77-1.23c1.16 0 2.08.32 2.76.97a3.4 3.4 0 011.04 2.62c0 .21-.05.52-.14.9zm-3.6-3.25c-.65 0-1.2.21-1.65.64a2.3 2.3 0 00-.73 1.52h4.62c0-.63-.2-1.15-.6-1.55-.41-.4-.96-.61-1.64-.61zM149.9 230h-1.5v-3.77h-3.85V230h-1.5v-8.37h1.5V225h3.85v-3.36h1.5V230zM158.84 230h-1.49v-3.77h-3.85V230H152v-8.37h1.5V225h3.85v-3.36h1.5V230zM169.81 230h-1.46v-8.37h1.46V230zm-7.39-5.3c.43-.06.9-.1 1.42-.1 1.08 0 1.9.24 2.46.7.56.47.84 1.15.84 2.06 0 .45-.13.9-.38 1.33-.26.43-.63.75-1.12.97a4.4 4.4 0 01-1.83.34h-2.85v-8.37h1.46v3.07zm0 4.1c.36.03.83.05 1.42.05.56 0 1-.13 1.32-.4.34-.26.5-.64.5-1.12 0-.53-.17-.92-.52-1.18-.34-.26-.8-.4-1.37-.4-.32 0-.77.04-1.35.1v2.95zM178.86 230h-1.84l-2.15-3.2-2.07 3.2h-1.77l3.11-4.29-2.85-4.08h1.74l1.88 2.95 1.98-2.95h1.68l-2.94 4.02 3.23 4.35zM191.73 230h-1.49v-3.77h-3.85V230h-1.5v-8.37h1.5V225h3.85v-3.36h1.5V230zM198.5 229.04c-.61.74-1.52 1.12-2.73 1.12-.66 0-1.23-.24-1.7-.72a2.41 2.41 0 01-.73-1.78c0-.84.37-1.56 1.1-2.14a4.45 4.45 0 013.93-.7c0-1.35-.61-2.02-1.83-2.02-.91 0-1.63.25-2.14.75l-.63-1.23a4.5 4.5 0 012.61-.85c1.18 0 2.05.27 2.61.8.56.54.85 1.43.85 2.67v3c0 .73.22 1.22.65 1.47v.73c-.64 0-1.11-.1-1.4-.29-.3-.2-.49-.46-.6-.81zm-.13-3.15a7.08 7.08 0 00-1-.16c-.75 0-1.36.2-1.83.58-.47.4-.71.85-.71 1.37 0 .88.51 1.31 1.54 1.31.73 0 1.4-.36 2-1.07v-2.03zM211.9 225.5c1.06.35 1.6 1.06 1.6 2.12 0 .69-.27 1.25-.8 1.7-.54.46-1.33.68-2.4.68h-3.4v-8.35c1.18-.06 2.26-.1 3.26-.1.95 0 1.68.2 2.2.58.52.38.78.94.78 1.68 0 .36-.11.7-.33 1.01a2 2 0 01-.92.69zm-3.6-.46c.09 0 .69.02 1.8.02 1.06 0 1.59-.42 1.59-1.24a1 1 0 00-.38-.83c-.24-.2-.59-.3-1.04-.3-.86 0-1.51.02-1.97.06v2.29zm0 3.77c.6.04 1.2.06 1.83.06 1.25 0 1.87-.46 1.87-1.36 0-.44-.16-.78-.48-1.01-.33-.24-.8-.36-1.42-.36-.8 0-1.4.01-1.8.04v2.63zM222.2 225.97h-6.03c0 .61.1 1.13.31 1.56.21.43.51.77.9 1.02.4.24.88.36 1.43.36.84 0 1.55-.25 2.13-.75l.6 1.2c-.38.3-.81.52-1.28.63-.47.11-1.05.17-1.74.17a3.7 3.7 0 01-2.8-1.17 4.32 4.32 0 01-1.1-3.07c0-1.33.39-2.4 1.15-3.22a3.66 3.66 0 012.77-1.23c1.16 0 2.08.32 2.77.97a3.41 3.41 0 011.03 2.62c0 .21-.05.52-.14.9zm-3.6-3.25c-.65 0-1.2.21-1.65.64a2.3 2.3 0 00-.73 1.52h4.62c0-.63-.2-1.15-.6-1.55-.41-.4-.96-.61-1.64-.61zm1.7-4.23c.23 0 .43.09.6.25.19.17.28.38.28.63s-.09.46-.26.63a.83.83 0 01-.61.26.84.84 0 01-.65-.27.9.9 0 01-.24-.62c0-.24.09-.44.26-.61a.84.84 0 01.63-.27zm-3.12 0c.24 0 .45.09.63.26.17.17.25.38.25.63 0 .23-.08.44-.25.61a.81.81 0 01-.63.27.83.83 0 01-.63-.27.9.9 0 01-.25-.62c0-.28.1-.5.29-.64.19-.16.39-.24.59-.24zM225.4 229.54v3.74h-1.49v-11.65h1.5v.69a2.76 2.76 0 012.03-.85c1.18 0 2.1.37 2.76 1.12.67.75 1 1.83 1 3.25 0 1.28-.34 2.32-1.01 3.12-.67.8-1.63 1.2-2.88 1.2-.35 0-.72-.07-1.13-.2-.4-.12-.66-.26-.77-.42zm0-6.1v4.88a2.24 2.24 0 001.47.6c1.85 0 2.77-1.05 2.77-3.15 0-1.08-.22-1.86-.67-2.33-.45-.48-1.15-.72-2.1-.72-.2 0-.46.08-.77.23-.31.16-.54.32-.7.49zM239.16 222.32l-.72 1.04c-.19-.16-.46-.3-.83-.44-.37-.13-.74-.2-1.11-.2-.81 0-1.46.28-1.93.86a3.54 3.54 0 00-.71 2.33c0 .94.24 1.68.71 2.22.47.52 1.15.78 2.04.78.67 0 1.34-.26 2.02-.78l.57 1.25a5.2 5.2 0 01-2.96.78 3.77 3.77 0 01-2.82-1.15 4.3 4.3 0 01-1.1-3.1c0-1.37.38-2.45 1.16-3.25.8-.8 1.85-1.2 3.17-1.2.45 0 .93.1 1.43.29.5.19.86.38 1.08.57zM246.5 222.88h-2.4V230h-1.48v-7.12h-2.4v-1.25h6.28v1.25zM254.63 230.05c-.14.02-.32.03-.54.03-.98 0-1.54-.5-1.68-1.47-.12-.83-.4-1.44-.85-1.83-.44-.39-1.08-.59-1.9-.59h-.13V230h-1.5v-8.37h1.5v3.35h.2a2.9 2.9 0 001.8-.48c.41-.32.68-.82.8-1.5.16-.96.71-1.44 1.65-1.44.17 0 .35 0 .51.03v1.28l-.39-.02c-.23 0-.38.16-.44.48a2.77 2.77 0 01-2.08 2.26c1.2.4 1.94 1.32 2.22 2.75.06.3.21.44.43.44.2 0 .34 0 .4-.03v1.3zM259.54 231.38c-.2.52-.6.96-1.21 1.31-.62.37-1.3.54-2.07.54v-1.32c.6 0 1.14-.15 1.58-.44.45-.29.68-.64.68-1.06 0-.5-.08-.94-.25-1.35l-2.9-7.47h1.53l2.44 6.46 2.23-6.46h1.5l-3.53 9.78zM271.92 230v-8.77l-2.33 1.45v-1.46c.6-.3 1.22-.7 1.88-1.23a8.93 8.93 0 001.55-1.48h.46V230h-1.56zM276.92 223.93c0-1.65.33-2.99 1-4.02a3.16 3.16 0 012.81-1.56c1.2 0 2.1.43 2.7 1.3.6.86.9 2.37.9 4.53 0 1.85-.3 3.31-.94 4.38a3.03 3.03 0 01-2.76 1.6 3.21 3.21 0 01-2.77-1.3c-.63-.85-.94-2.5-.94-4.93zm1.56.14c0 3.17.68 4.76 2.04 4.76a1.8 1.8 0 001.7-1.06c.37-.7.55-1.93.55-3.7 0-1.2-.07-2.1-.2-2.66-.15-.57-.38-1-.69-1.3-.31-.28-.7-.43-1.19-.43-1.47 0-2.2 1.46-2.2 4.39zM297.02 222.32l-.72 1.04c-.19-.16-.46-.3-.83-.44-.37-.13-.74-.2-1.11-.2-.81 0-1.46.28-1.93.86a3.54 3.54 0 00-.71 2.33c0 .94.24 1.68.71 2.22.47.52 1.15.78 2.04.78.66 0 1.34-.26 2.02-.78l.57 1.25a5.2 5.2 0 01-2.96.78 3.77 3.77 0 01-2.82-1.15 4.3 4.3 0 01-1.1-3.1c0-1.37.38-2.45 1.16-3.25.79-.8 1.85-1.2 3.17-1.2.45 0 .93.1 1.43.29.5.19.86.38 1.08.57zM304.36 222.88h-2.4V230h-1.48v-7.12h-2.41v-1.25h6.29v1.25zM307.4 229.54v3.74h-1.5v-11.65h1.5v.69a2.76 2.76 0 012.02-.85c1.18 0 2.1.37 2.77 1.12.66.75.99 1.83.99 3.25 0 1.28-.34 2.32-1 3.12-.68.8-1.64 1.2-2.9 1.2-.33 0-.71-.07-1.12-.2-.4-.12-.66-.26-.77-.42zm0-6.1v4.88c.1.15.3.29.6.41s.58.18.86.18c1.84 0 2.76-1.04 2.76-3.14 0-1.08-.22-1.86-.67-2.33-.44-.48-1.14-.72-2.1-.72-.2 0-.45.08-.76.23-.32.16-.55.32-.7.49zM319.46 229.04c-.6.74-1.5 1.12-2.72 1.12-.66 0-1.23-.24-1.7-.72a2.41 2.41 0 01-.73-1.78c0-.84.37-1.56 1.1-2.14a4.45 4.45 0 013.93-.7c0-1.35-.61-2.02-1.83-2.02-.91 0-1.63.25-2.14.75l-.63-1.23a4.5 4.5 0 012.61-.85c1.18 0 2.05.27 2.61.8.56.54.85 1.43.85 2.67v3c0 .73.21 1.22.65 1.47v.73c-.64 0-1.11-.1-1.4-.29-.3-.2-.49-.46-.6-.81zm-.12-3.15a7.08 7.08 0 00-1-.16c-.75 0-1.36.2-1.83.58-.48.4-.71.85-.71 1.37 0 .88.51 1.31 1.54 1.31.73 0 1.4-.36 2-1.07v-2.03zM329.88 230h-1.5v-3.77h-3.85V230h-1.5v-8.37h1.5V225h3.85v-3.36h1.5V230zM339.03 230h-1.48v-5.73l-5.22 5.96h-.34v-8.6h1.5v5.73l5.2-5.95h.34V230zM348.52 232.7h-1.34V230h-6.03v-8.37h1.5v7.14h3.41v-7.14h1.49v7.14h.97v3.93zM350.66 232.84l-.4-.57c.9-.73 1.34-1.36 1.34-1.87 0-.23-.08-.46-.23-.69-.45-.21-.68-.52-.68-.92 0-.28.11-.5.33-.68.2-.18.48-.27.8-.27a1 1 0 01.77.37c.23.25.34.54.34.88 0 .69-.15 1.31-.44 1.86-.28.56-.9 1.19-1.83 1.89zM94.98 258h-1.84L91 254.8l-2.08 3.2h-1.76l3.1-4.29-2.85-4.08h1.75l1.87 2.95 1.99-2.95h1.68l-2.95 4.02 3.23 4.35zM101.19 253.5c1.06.35 1.6 1.06 1.6 2.12 0 .69-.27 1.25-.8 1.7-.53.46-1.33.68-2.39.68h-3.4v-8.35a62.4 62.4 0 013.26-.1c.94 0 1.68.2 2.2.58.52.38.78.94.78 1.68 0 .36-.11.7-.34 1.01a2 2 0 01-.91.69zm-3.59-.46c.08 0 .68.02 1.8.02 1.06 0 1.58-.42 1.58-1.24a1 1 0 00-.37-.83c-.25-.2-.6-.3-1.04-.3-.86 0-1.52.02-1.97.06v2.29zm0 3.77c.59.04 1.2.06 1.83.06 1.24 0 1.87-.46 1.87-1.36 0-.44-.16-.78-.49-1.01-.32-.24-.8-.36-1.41-.36-.8 0-1.4.01-1.8.04v2.63zM109.1 257.04c-.6.74-1.5 1.12-2.72 1.12-.66 0-1.23-.24-1.7-.72a2.41 2.41 0 01-.73-1.78c0-.84.37-1.56 1.1-2.14a4.45 4.45 0 013.93-.7c0-1.35-.61-2.02-1.83-2.02-.91 0-1.63.25-2.14.75l-.63-1.23a4.5 4.5 0 012.6-.85c1.19 0 2.06.27 2.62.8.56.54.84 1.43.84 2.67v3c0 .73.22 1.22.66 1.47v.73c-.64 0-1.11-.1-1.4-.29-.3-.2-.49-.46-.6-.81zm-.12-3.15a7.09 7.09 0 00-1-.16c-.75 0-1.36.2-1.83.58-.48.4-.71.85-.71 1.37 0 .88.51 1.31 1.54 1.31.73 0 1.4-.36 2-1.07v-2.03zM118.4 250.88H116V258h-1.5v-7.12h-2.4v-1.25h6.3v1.25zM126.97 258h-1.49v-5.73l-5.21 5.96h-.34v-8.6h1.5v5.73l5.2-5.95h.34V258zM136.03 258h-1.48v-7.19h-2.25a17.46 17.46 0 01-.36 3.27c-.2 1-.5 1.82-.86 2.47a2.82 2.82 0 01-1.19 1.25c-.43.2-.94.3-1.54.3v-1.37c.93 0 1.6-.72 1.98-2.16.39-1.45.58-2.83.58-4.16v-.78h5.12V258zM141.35 249.47c1.2 0 2.13.39 2.78 1.16.66.77 1 1.83 1 3.16 0 1.37-.35 2.44-1.04 3.21a3.5 3.5 0 01-2.74 1.16c-1.2 0-2.12-.4-2.79-1.18-.66-.78-1-1.84-1-3.2 0-1.28.35-2.32 1.05-3.12.7-.8 1.61-1.2 2.74-1.2zm0 7.47c.7 0 1.24-.28 1.63-.86.39-.58.58-1.34.58-2.3 0-2.06-.73-3.1-2.2-3.1-.7 0-1.26.29-1.66.85-.4.56-.6 1.32-.6 2.26 0 2.1.76 3.16 2.25 3.16zM158.36 258h-1.5v-3.77h-3.84V258h-1.5v-8.37h1.5V253h3.85v-3.36h1.49V258zM165.12 257.04c-.6.74-1.51 1.12-2.72 1.12-.66 0-1.23-.24-1.71-.72a2.4 2.4 0 01-.72-1.78c0-.84.37-1.56 1.1-2.14a4.45 4.45 0 013.92-.7c0-1.35-.6-2.02-1.83-2.02-.9 0-1.62.25-2.14.75l-.62-1.23a4.5 4.5 0 012.61-.85c1.18 0 2.05.27 2.6.8.57.54.85 1.43.85 2.67v3c0 .73.22 1.22.66 1.47v.73c-.65 0-1.12-.1-1.4-.29-.3-.2-.5-.46-.6-.81zm-.13-3.15a7.08 7.08 0 00-.99-.16c-.75 0-1.36.2-1.84.58-.47.4-.7.85-.7 1.37 0 .88.5 1.31 1.53 1.31.74 0 1.4-.36 2-1.07v-2.03zM173 258v-.31l3.6-5.5a5.7 5.7 0 001.12-2.92c0-1.06-.6-1.59-1.79-1.59-.42 0-.82.11-1.19.34-.37.21-.64.5-.8.83l-1.01-.83c.18-.5.52-.91 1.04-1.22a3.7 3.7 0 011.88-.45c1.1 0 1.96.26 2.58.77.62.5.93 1.22.93 2.15 0 .85-.41 1.94-1.24 3.25l-2.56 4.07h4.48V258H173zM190.52 246.48v.65c-1.04 1.49-1.55 3.66-1.55 6.52 0 3.4.51 5.69 1.55 6.87v.82a7.14 7.14 0 01-2.46-3.16 11.59 11.59 0 01-.87-4.55c0-1.41.34-2.84 1-4.29.66-1.44 1.44-2.4 2.33-2.86zM199.24 258h-1.48v-7.12h-3.65V258h-1.5v-8.37h6.63V258zM202.84 257.54v3.74h-1.49v-11.65h1.5v.69a2.76 2.76 0 012.03-.85c1.18 0 2.1.37 2.76 1.12.66.75 1 1.83 1 3.25 0 1.28-.34 2.32-1.01 3.12-.67.8-1.63 1.2-2.89 1.2-.34 0-.72-.07-1.12-.2-.4-.12-.66-.26-.78-.42zm0-6.1v4.88c.12.15.32.29.61.41.3.12.58.18.86.18 1.85 0 2.77-1.04 2.77-3.14 0-1.08-.23-1.86-.67-2.33-.45-.48-1.15-.72-2.1-.72-.2 0-.46.08-.77.23-.31.16-.54.32-.7.49zM217.31 258h-1.48v-5.73l-5.22 5.96h-.34v-8.6h1.5v5.73l5.2-5.95h.34V258zM225.81 258h-1.48v-3.28c-.68.17-1.4.26-2.17.26a2.9 2.9 0 01-2.15-.8c-.52-.52-.78-1.28-.78-2.29v-2.26h1.48v2.23c0 .62.16 1.1.47 1.41.32.33.78.49 1.38.49.6 0 1.19-.06 1.78-.19v-3.94h1.47V258zM234.97 253.97h-6.03c0 .61.1 1.13.31 1.56.2.43.5.77.9 1.02.4.24.87.36 1.43.36.84 0 1.54-.25 2.12-.75l.61 1.2c-.39.3-.82.52-1.29.63-.47.11-1.04.17-1.73.17a3.7 3.7 0 01-2.8-1.17 4.32 4.32 0 01-1.1-3.07c0-1.33.38-2.4 1.15-3.22a3.66 3.66 0 012.77-1.23c1.15 0 2.07.32 2.76.97a3.4 3.4 0 011.03 2.62c0 .21-.04.52-.13.9zm-3.6-3.25c-.65 0-1.2.21-1.65.64a2.3 2.3 0 00-.74 1.52h4.63c0-.63-.2-1.15-.61-1.55-.4-.4-.95-.61-1.63-.61zm1.7-4.23c.22 0 .43.09.6.25.18.17.28.38.28.63s-.1.46-.26.63a.83.83 0 01-.62.26.84.84 0 01-.64-.27.9.9 0 01-.24-.62c0-.24.08-.44.25-.61a.84.84 0 01.63-.27zm-3.13 0c.25 0 .46.09.63.26.17.17.26.38.26.63 0 .23-.09.44-.25.61a.82.82 0 01-.64.27.83.83 0 01-.63-.27.9.9 0 01-.24-.62c0-.28.1-.5.28-.64.2-.16.4-.24.6-.24zM244.65 258l-.88-5.04-2.53 5.18h-.4l-2.51-5.1-.86 4.96h-1.43l1.6-8.52h.4l3.1 6.25 3.05-6.25h.38l1.57 8.52h-1.5zM255.68 249.47c1.2 0 2.13.39 2.78 1.16.66.77 1 1.83 1 3.16 0 1.37-.35 2.44-1.04 3.21a3.5 3.5 0 01-2.74 1.16c-1.2 0-2.12-.4-2.79-1.18-.67-.78-1-1.84-1-3.2 0-1.28.35-2.32 1.05-3.12.7-.8 1.6-1.2 2.74-1.2zm0 7.47c.7 0 1.24-.28 1.63-.86.38-.58.58-1.34.58-2.3 0-2.06-.74-3.1-2.21-3.1-.7 0-1.25.29-1.65.85-.4.56-.6 1.32-.6 2.26 0 2.1.75 3.16 2.25 3.16zM268.84 260.73h-1.32V258h-5.92v2.73h-1.31v-3.92h.64a7.91 7.91 0 001.5-2.76c.34-1.1.51-2.2.51-3.33v-1.09h4.95v7.18h.95v3.92zm-2.38-3.92v-6h-2.28c0 1.1-.16 2.2-.48 3.28-.3 1.08-.75 1.99-1.33 2.72h4.1zM277.1 258h-1.48v-3.77h-3.85V258h-1.5v-8.37h1.5V253h3.85v-3.36h1.49V258zM283.87 257.04c-.6.74-1.51 1.12-2.72 1.12-.66 0-1.23-.24-1.71-.72a2.4 2.4 0 01-.72-1.78c0-.84.37-1.56 1.1-2.14a4.45 4.45 0 013.92-.7c0-1.35-.6-2.02-1.83-2.02-.9 0-1.62.25-2.14.75l-.62-1.23a4.5 4.5 0 012.61-.85c1.18 0 2.05.27 2.6.8.57.54.85 1.43.85 2.67v3c0 .73.22 1.22.66 1.47v.73c-.65 0-1.12-.1-1.4-.29-.3-.2-.5-.46-.6-.81zm-.13-3.15a7.08 7.08 0 00-.99-.16c-.75 0-1.36.2-1.84.58-.47.4-.7.85-.7 1.37 0 .88.5 1.31 1.53 1.31.74 0 1.4-.36 2-1.07v-2.03zM94.38 278.32l-.72 1.04c-.19-.16-.46-.3-.83-.44-.37-.13-.74-.2-1.11-.2-.81 0-1.46.28-1.93.86a3.54 3.54 0 00-.71 2.33c0 .94.24 1.68.7 2.21.48.53 1.16.8 2.05.8.66 0 1.34-.27 2.02-.8l.57 1.25a5.2 5.2 0 01-2.96.79 3.77 3.77 0 01-2.82-1.15 4.3 4.3 0 01-1.1-3.1c0-1.37.38-2.45 1.16-3.25.79-.8 1.84-1.2 3.17-1.2.45 0 .93.1 1.43.29.5.19.86.38 1.08.57zM101 281.5c1.07.35 1.6 1.06 1.6 2.12 0 .69-.26 1.25-.8 1.7-.53.46-1.32.68-2.39.68h-3.4v-8.35a62.4 62.4 0 013.26-.1c.95 0 1.68.2 2.2.58.52.38.78.94.78 1.68 0 .36-.11.7-.34 1.01a2 2 0 01-.91.69zm-3.59-.46l1.8.01c1.06 0 1.59-.4 1.59-1.23a1 1 0 00-.38-.83c-.24-.2-.59-.3-1.04-.3-.86 0-1.51.02-1.97.06v2.29zm0 3.77c.6.04 1.2.06 1.83.06 1.25 0 1.87-.46 1.87-1.36 0-.44-.16-.78-.48-1.01-.33-.24-.8-.36-1.42-.36-.8 0-1.4.01-1.8.04v2.63zM111.31 281.97h-6.03c0 .61.1 1.13.31 1.56.21.43.51.77.9 1.02.4.24.88.36 1.43.36.84 0 1.55-.25 2.13-.75l.6 1.2c-.38.3-.81.52-1.28.63-.47.11-1.05.17-1.74.17a3.7 3.7 0 01-2.8-1.17 4.32 4.32 0 01-1.1-3.07c0-1.33.39-2.4 1.15-3.22a3.66 3.66 0 012.77-1.23c1.16 0 2.08.32 2.76.97a3.4 3.4 0 011.03 2.62c0 .21-.04.52-.13.9zm-3.6-3.25c-.65 0-1.2.21-1.65.64a2.3 2.3 0 00-.73 1.52h4.62c0-.63-.2-1.15-.6-1.55-.41-.4-.96-.61-1.64-.61zm1.7-4.23c.23 0 .43.09.6.25.19.17.28.38.28.63s-.09.46-.26.63a.82.82 0 01-.62.26.84.84 0 01-.64-.27.9.9 0 01-.24-.62c0-.24.09-.44.26-.61a.84.84 0 01.62-.27zm-3.12 0c.24 0 .45.09.62.26.18.17.26.38.26.63 0 .23-.08.44-.25.61a.82.82 0 01-.63.27.83.83 0 01-.63-.27.9.9 0 01-.25-.62c0-.28.1-.5.28-.64.2-.16.4-.24.6-.24zM114.52 285.54v3.74h-1.5v-11.65h1.5v.69a2.76 2.76 0 012.03-.85c1.18 0 2.1.37 2.76 1.12.66.75 1 1.83 1 3.25 0 1.29-.34 2.32-1.01 3.12-.67.8-1.63 1.2-2.89 1.2-.34 0-.72-.07-1.12-.2-.4-.12-.66-.26-.77-.42zm0-6.1v4.88c.11.15.31.29.6.41.3.12.58.18.86.18 1.85 0 2.77-1.04 2.77-3.14 0-1.08-.22-1.86-.67-2.33-.45-.48-1.15-.72-2.1-.72-.2 0-.46.08-.77.23-.31.16-.54.32-.7.49zM128.27 278.32l-.72 1.04c-.19-.16-.46-.3-.83-.44-.37-.13-.74-.2-1.11-.2-.81 0-1.46.28-1.93.86a3.54 3.54 0 00-.71 2.33c0 .94.24 1.68.71 2.21s1.15.8 2.04.8c.67 0 1.34-.27 2.02-.8l.57 1.25a5.2 5.2 0 01-2.96.79 3.77 3.77 0 01-2.82-1.15 4.3 4.3 0 01-1.1-3.1c0-1.37.38-2.45 1.16-3.25.79-.8 1.84-1.2 3.17-1.2.45 0 .93.1 1.43.29.5.19.86.38 1.08.57zM135.6 278.88h-2.39V286h-1.48v-7.12h-2.41v-1.25h6.29v1.25zM141.79 285.04c-.6.74-1.51 1.12-2.72 1.12-.66 0-1.23-.24-1.71-.72a2.41 2.41 0 01-.72-1.78c0-.85.37-1.56 1.1-2.14a4.45 4.45 0 013.92-.7c0-1.35-.6-2.02-1.82-2.02-.92 0-1.63.25-2.15.75l-.62-1.23a4.5 4.5 0 012.61-.85c1.18 0 2.05.27 2.6.8.57.54.85 1.43.85 2.68v2.99c0 .73.22 1.22.66 1.47v.73c-.65 0-1.12-.1-1.4-.29-.3-.2-.5-.46-.6-.81zm-.13-3.15a7.08 7.08 0 00-.99-.16c-.75 0-1.36.2-1.83.58-.48.4-.72.85-.72 1.37 0 .88.52 1.31 1.54 1.31.74 0 1.4-.36 2-1.07v-2.03zM152.2 286h-1.49v-3.77h-3.85V286h-1.5v-8.37h1.5V281h3.85v-3.36h1.5V286zM158.96 285.04c-.6.74-1.5 1.12-2.72 1.12-.66 0-1.23-.24-1.7-.72a2.41 2.41 0 01-.73-1.78c0-.85.37-1.56 1.1-2.14a4.45 4.45 0 013.93-.7c0-1.35-.61-2.02-1.83-2.02-.91 0-1.63.25-2.14.75l-.63-1.23a4.5 4.5 0 012.61-.85c1.18 0 2.05.27 2.61.8.56.54.84 1.43.84 2.68v2.99c0 .73.22 1.22.66 1.47v.73c-.65 0-1.11-.1-1.4-.29-.3-.2-.49-.46-.6-.81zm-.12-3.15a7.08 7.08 0 00-1-.16c-.75 0-1.36.2-1.83.58-.48.4-.71.85-.71 1.37 0 .88.51 1.31 1.54 1.31.73 0 1.4-.36 2-1.07v-2.03zM173.69 278.32l-.72 1.04c-.18-.16-.46-.3-.83-.44-.36-.13-.73-.2-1.1-.2-.82 0-1.46.28-1.94.86a3.54 3.54 0 00-.7 2.33c0 .94.23 1.68.7 2.21.48.53 1.16.8 2.04.8.67 0 1.34-.27 2.02-.8l.57 1.25a5.2 5.2 0 01-2.96.79 3.77 3.77 0 01-2.82-1.15 4.3 4.3 0 01-1.1-3.1c0-1.37.38-2.45 1.17-3.25.78-.8 1.84-1.2 3.16-1.2.45 0 .93.1 1.43.29.5.19.86.38 1.08.57zM182.36 286h-1.49v-5.73l-5.21 5.96h-.34v-8.6h1.5v5.73l5.2-5.95h.34V286zM191.42 286h-1.48v-7.19h-2.25a17.54 17.54 0 01-.35 3.27c-.22 1-.5 1.82-.87 2.47a2.83 2.83 0 01-1.19 1.25c-.43.2-.94.3-1.54.3v-1.37c.93 0 1.6-.72 1.98-2.16.39-1.45.59-2.83.59-4.16v-.78h5.11V286zM198.13 285.04c-.6.74-1.5 1.12-2.72 1.12-.66 0-1.23-.24-1.7-.72a2.41 2.41 0 01-.73-1.78c0-.85.37-1.56 1.1-2.14a4.45 4.45 0 013.93-.7c0-1.35-.61-2.02-1.83-2.02-.91 0-1.63.25-2.14.75l-.63-1.23a4.5 4.5 0 012.6-.85c1.2 0 2.06.27 2.62.8.56.54.85 1.43.85 2.68v2.99c0 .73.22 1.22.65 1.47v.73c-.64 0-1.11-.1-1.4-.29-.29-.2-.49-.46-.6-.81zm-.12-3.15a7.08 7.08 0 00-1-.16c-.74 0-1.36.2-1.83.58-.47.4-.71.85-.71 1.37 0 .88.51 1.31 1.54 1.31.73 0 1.4-.36 2-1.07v-2.03zM209.68 286l-.88-5.04-2.53 5.18h-.4l-2.51-5.1-.86 4.96h-1.43l1.6-8.52h.4l3.1 6.25 3.05-6.25h.38l1.57 8.52h-1.49zM219.67 286h-1.48v-5.73l-5.22 5.96h-.34v-8.6h1.5v5.73l5.2-5.95h.34V286zM231.6 281.5c1.08.35 1.61 1.06 1.61 2.12 0 .69-.27 1.25-.8 1.7-.53.46-1.32.68-2.39.68h-3.4v-8.35a62.4 62.4 0 013.26-.1c.95 0 1.68.2 2.2.58.52.38.78.94.78 1.68 0 .36-.11.7-.34 1.01a2 2 0 01-.91.69zm-3.58-.46l1.8.01c1.06 0 1.59-.4 1.59-1.23a1 1 0 00-.38-.83c-.24-.2-.59-.3-1.04-.3-.86 0-1.51.02-1.97.06v2.29zm0 3.77c.6.04 1.2.06 1.83.06 1.25 0 1.87-.46 1.87-1.36 0-.44-.16-.78-.49-1.01-.32-.24-.79-.36-1.41-.36-.8 0-1.4.01-1.8.04v2.63zM238.13 277.47c1.2 0 2.13.39 2.78 1.16.67.77 1 1.83 1 3.16 0 1.37-.35 2.44-1.03 3.21a3.5 3.5 0 01-2.75 1.16c-1.19 0-2.12-.4-2.79-1.18-.66-.78-1-1.84-1-3.2 0-1.28.35-2.32 1.05-3.12.7-.8 1.61-1.2 2.74-1.2zm0 7.47c.7 0 1.24-.28 1.63-.86.39-.58.58-1.34.58-2.3 0-2.06-.73-3.1-2.2-3.1-.7 0-1.25.29-1.66.85-.4.56-.59 1.32-.59 2.26 0 2.1.75 3.15 2.24 3.15zM250.42 286h-1.48v-7.19h-2.25a17.54 17.54 0 01-.35 3.27c-.22 1-.5 1.82-.87 2.47a2.83 2.83 0 01-1.19 1.25c-.43.2-.94.3-1.54.3v-1.37c.93 0 1.6-.72 1.98-2.16.39-1.45.59-2.83.59-4.16v-.78h5.11V286zM255.74 277.47c1.2 0 2.13.39 2.78 1.16.67.77 1 1.83 1 3.16 0 1.37-.35 2.44-1.04 3.21a3.5 3.5 0 01-2.74 1.16c-1.2 0-2.12-.4-2.79-1.18-.66-.78-1-1.84-1-3.2 0-1.28.35-2.32 1.05-3.12.7-.8 1.61-1.2 2.74-1.2zm0 7.47c.7 0 1.24-.28 1.63-.86.39-.58.58-1.34.58-2.3 0-2.06-.73-3.1-2.2-3.1-.7 0-1.25.29-1.66.85-.4.56-.59 1.32-.59 2.26 0 2.1.75 3.15 2.24 3.15zM267.92 286h-1.49v-3.77h-3.85V286h-1.5v-8.37h1.5V281h3.85v-3.36h1.5V286zM275.75 278.88h-2.4V286h-1.48v-7.12h-2.4v-1.25h6.28v1.25zM284.33 281.97h-6.03c0 .61.1 1.13.3 1.56.22.43.52.77.9 1.02.4.24.88.36 1.44.36.84 0 1.54-.25 2.12-.75l.61 1.2c-.39.3-.82.52-1.29.63-.47.11-1.04.17-1.73.17a3.7 3.7 0 01-2.8-1.17 4.32 4.32 0 01-1.1-3.07c0-1.33.38-2.4 1.15-3.22a3.66 3.66 0 012.76-1.23c1.16 0 2.08.32 2.77.97a3.41 3.41 0 011.03 2.62c0 .21-.04.52-.13.9zm-3.6-3.25c-.65 0-1.2.21-1.65.64a2.3 2.3 0 00-.74 1.52h4.63c0-.63-.2-1.15-.61-1.55-.4-.4-.95-.61-1.63-.61zm1.7-4.23c.22 0 .42.09.6.25.18.17.28.38.28.63s-.1.46-.26.63a.83.83 0 01-.62.26.84.84 0 01-.64-.27.9.9 0 01-.24-.62c0-.24.08-.44.25-.61a.84.84 0 01.63-.27zm-3.13 0c.25 0 .46.09.63.26.17.17.26.38.26.63 0 .23-.09.44-.25.61a.82.82 0 01-.63.27.83.83 0 01-.64-.27.9.9 0 01-.24-.62c0-.28.1-.5.28-.64.2-.16.4-.24.6-.24zM287.53 285.54v3.74h-1.5v-11.65h1.5v.69a2.76 2.76 0 012.03-.85c1.19 0 2.1.37 2.77 1.12.66.75.99 1.83.99 3.25 0 1.29-.34 2.32-1 3.12-.67.8-1.63 1.2-2.89 1.2-.34 0-.72-.07-1.13-.2-.4-.12-.65-.26-.77-.42zm0-6.1v4.88c.12.15.32.29.61.41.3.12.58.18.86.18 1.84 0 2.77-1.04 2.77-3.14 0-1.08-.23-1.86-.68-2.33-.44-.48-1.14-.72-2.09-.72-.2 0-.46.08-.77.23-.32.16-.55.32-.7.49zM298.21 277.47c1.2 0 2.13.39 2.78 1.16.66.77 1 1.83 1 3.16 0 1.37-.35 2.44-1.04 3.21a3.5 3.5 0 01-2.74 1.16c-1.2 0-2.12-.4-2.79-1.18-.67-.78-1-1.84-1-3.2 0-1.28.35-2.32 1.05-3.12.7-.8 1.61-1.2 2.74-1.2zm0 7.47c.7 0 1.24-.28 1.63-.86.39-.58.58-1.34.58-2.3 0-2.06-.74-3.1-2.2-3.1-.7 0-1.26.29-1.66.85-.4.56-.6 1.32-.6 2.26 0 2.1.76 3.15 2.25 3.15zM308.55 281.5c1.06.35 1.6 1.06 1.6 2.12 0 .69-.27 1.25-.8 1.7-.53.46-1.33.68-2.39.68h-3.4v-8.35c1.17-.06 2.26-.1 3.26-.1.94 0 1.68.2 2.2.58.52.38.78.94.78 1.68 0 .36-.12.7-.34 1.01a2 2 0 01-.91.69zm-3.59-.46l1.8.01c1.06 0 1.58-.4 1.58-1.23a1 1 0 00-.37-.83c-.25-.2-.6-.3-1.04-.3-.86 0-1.52.02-1.97.06v2.29zm0 3.77c.59.04 1.2.06 1.83.06 1.24 0 1.87-.46 1.87-1.36 0-.44-.17-.78-.49-1.01-.32-.24-.8-.36-1.41-.36-.8 0-1.4.01-1.8.04v2.63zM312.27 289.34v-.82c1.04-1.18 1.55-3.48 1.55-6.87 0-2.86-.51-5.03-1.55-6.52v-.65c.9.46 1.67 1.42 2.33 2.86.66 1.45 1 2.88 1 4.3 0 1.65-.3 3.17-.88 4.54a7.08 7.08 0 01-2.45 3.16zM329.56 286h-1.48v-5.73l-5.22 5.96h-.34v-8.6h1.5v5.73l5.2-5.95h.34V286zM95.1 309.97h-6.04c0 .61.1 1.13.31 1.56.21.43.51.77.9 1.02.4.24.88.36 1.43.36.84 0 1.55-.25 2.13-.75l.6 1.2c-.38.3-.81.52-1.28.63-.47.11-1.05.17-1.74.17a3.7 3.7 0 01-2.8-1.17 4.32 4.32 0 01-1.1-3.07c0-1.33.39-2.4 1.15-3.22a3.66 3.66 0 012.77-1.23c1.16 0 2.08.32 2.77.97a3.41 3.41 0 011.03 2.62c0 .21-.05.52-.14.9zm-3.6-3.25c-.66 0-1.2.21-1.66.64a2.3 2.3 0 00-.73 1.52h4.62c0-.63-.2-1.15-.6-1.55-.41-.4-.96-.61-1.64-.61zM107.72 316.73h-1.31V314h-9.6v-8.37h1.4v7.17h2.87v-7.17h1.39v7.17h2.87v-7.17h1.4v7.17h.98v3.93zM116.2 309.97h-6.03c0 .61.1 1.13.31 1.56.21.43.51.77.9 1.02.4.24.88.36 1.43.36.84 0 1.55-.25 2.13-.75l.6 1.2c-.38.3-.81.52-1.28.63-.47.11-1.05.17-1.74.17a3.7 3.7 0 01-2.8-1.17 4.32 4.32 0 01-1.1-3.07c0-1.33.39-2.4 1.15-3.22a3.66 3.66 0 012.77-1.23c1.15 0 2.08.32 2.77.97a3.41 3.41 0 011.03 2.62c0 .21-.05.52-.14.9zm-3.6-3.25c-.65 0-1.2.21-1.65.64a2.3 2.3 0 00-.73 1.52h4.62c0-.63-.2-1.15-.6-1.55-.41-.4-.96-.61-1.64-.61zm1.7-4.23c.23 0 .43.09.6.25.19.17.28.38.28.63s-.09.46-.26.63a.83.83 0 01-.61.26.84.84 0 01-.65-.27.9.9 0 01-.24-.62c0-.24.09-.44.26-.61a.84.84 0 01.63-.27zm-3.12 0c.24 0 .45.09.63.26.17.17.25.38.25.63 0 .23-.08.44-.25.61a.81.81 0 01-.63.27.83.83 0 01-.63-.27.9.9 0 01-.24-.62c0-.28.09-.5.28-.64.19-.16.39-.24.59-.24zM129.58 314h-1.5v-3.77h-3.85V314h-1.49v-8.37h1.5V309h3.85v-3.36h1.49V314zM134.93 315.38c-.2.52-.6.96-1.21 1.31-.62.37-1.3.54-2.07.54v-1.32c.6 0 1.14-.15 1.58-.44.45-.29.68-.64.68-1.06 0-.5-.08-.94-.25-1.36l-2.9-7.46h1.53l2.44 6.46 2.23-6.46h1.5l-3.53 9.79zM149.74 314.05c-.14.02-.32.03-.52.03-.92 0-1.45-.49-1.59-1.45-.12-.88-.37-1.5-.75-1.87-.37-.38-.92-.56-1.65-.56v3.8h-1.4v-3.8c-.77 0-1.35.18-1.74.53-.38.36-.63.99-.76 1.9-.14.96-.67 1.45-1.59 1.45-.2 0-.36-.01-.5-.03v-1.3c.1.02.2.03.33.03.27 0 .43-.15.48-.46.27-1.48.97-2.39 2.08-2.73-.55-.14-.99-.38-1.32-.73a3.1 3.1 0 01-.68-1.55c-.05-.3-.2-.46-.44-.46-.2 0-.32 0-.35.02v-1.28c.16-.02.33-.03.53-.03.88 0 1.39.47 1.55 1.42.14.75.39 1.28.75 1.57.37.3.92.44 1.66.44v-3.36h1.4V309c.72 0 1.27-.15 1.63-.47.36-.3.6-.82.73-1.53.16-.96.68-1.44 1.53-1.44.2 0 .37.01.51.04v1.28a2.14 2.14 0 00-.36-.02c-.23 0-.37.16-.43.48-.23 1.19-.87 1.94-1.93 2.26.56.2 1 .5 1.32.93.33.41.57 1.02.72 1.82.05.3.2.44.46.44.14 0 .25 0 .33-.03v1.3zM158.28 314h-1.5v-3.77h-3.84V314h-1.5v-8.37h1.5V309h3.85v-3.36h1.5V314zM163.65 305.47c1.2 0 2.12.39 2.78 1.16.66.77 1 1.83 1 3.16 0 1.37-.35 2.44-1.04 3.21a3.5 3.5 0 01-2.74 1.16c-1.2 0-2.12-.4-2.8-1.18-.66-.78-1-1.84-1-3.2 0-1.28.36-2.32 1.06-3.12.7-.8 1.6-1.2 2.74-1.2zm0 7.47c.7 0 1.24-.28 1.62-.86.4-.58.59-1.34.59-2.3 0-2.06-.74-3.1-2.21-3.1-.7 0-1.25.29-1.65.85-.4.56-.6 1.32-.6 2.26 0 2.1.75 3.15 2.25 3.15zM181.63 316.73h-1.31V314h-5.92v2.73h-1.31v-3.92h.64a7.93 7.93 0 001.49-2.76c.35-1.1.52-2.2.52-3.33v-1.09h4.95v7.18h.94v3.92zm-2.37-3.92v-6h-2.28c0 1.1-.16 2.2-.48 3.28-.31 1.08-.76 1.99-1.34 2.72h4.1zM186.32 305.47c1.2 0 2.13.39 2.78 1.16.66.77 1 1.83 1 3.16 0 1.37-.35 2.44-1.04 3.21a3.5 3.5 0 01-2.74 1.16c-1.2 0-2.12-.4-2.79-1.18-.66-.78-1-1.84-1-3.2 0-1.28.35-2.32 1.05-3.12.7-.8 1.61-1.2 2.74-1.2zm0 7.47c.7 0 1.24-.28 1.63-.86.39-.58.58-1.34.58-2.3 0-2.06-.74-3.1-2.21-3.1-.7 0-1.25.29-1.65.85-.4.56-.6 1.32-.6 2.26 0 2.1.76 3.15 2.25 3.15zM198.29 314h-1.48v-7.12h-3.65V314h-1.5v-8.37h6.63V314zM207.34 314h-1.48v-7.19h-2.24a17.54 17.54 0 01-.36 3.27c-.22 1-.5 1.82-.87 2.47a2.83 2.83 0 01-1.19 1.25c-.42.2-.94.3-1.54.3v-1.37c.94 0 1.6-.72 1.98-2.16.4-1.45.59-2.83.59-4.16v-.78h5.11V314zM214.06 313.04c-.6.74-1.52 1.12-2.72 1.12-.67 0-1.24-.24-1.72-.72a2.41 2.41 0 01-.71-1.78c0-.85.36-1.56 1.1-2.14a4.45 4.45 0 013.92-.7c0-1.35-.61-2.02-1.83-2.02-.91 0-1.62.25-2.14.75l-.62-1.23a4.5 4.5 0 012.6-.85c1.18 0 2.05.27 2.62.8.56.54.84 1.43.84 2.68v2.99c0 .73.22 1.22.66 1.47v.73c-.65 0-1.12-.1-1.41-.29-.29-.2-.49-.46-.6-.81zm-.13-3.15a7.1 7.1 0 00-1-.16c-.74 0-1.35.2-1.83.58-.47.4-.7.85-.7 1.37 0 .88.5 1.31 1.53 1.31.73 0 1.4-.36 2-1.07v-2.03zM223.34 306.88h-2.4V314h-1.48v-7.12h-2.4v-1.25h6.28v1.25zM231.92 314h-1.48v-5.73l-5.22 5.96h-.34v-8.6h1.5v5.73l5.2-5.95h.34V314zM239.75 306.88h-2.4V314h-1.48v-7.12h-2.4v-1.25h6.28v1.25zM242.77 308.73c.7-.08 1.29-.12 1.74-.12 1.07 0 1.88.23 2.44.7.56.46.84 1.14.84 2.05 0 .7-.27 1.32-.81 1.85s-1.38.79-2.52.79h-3.17v-8.37h1.48v3.1zm0 4.05c.36.03.95.05 1.75.05.56 0 .99-.13 1.3-.38.32-.26.48-.64.48-1.12 0-1.04-.62-1.56-1.86-1.56-.42 0-.98.05-1.67.14v2.87zM262.02 316.73h-1.3V314h-5.93v2.73h-1.31v-3.92h.64a7.91 7.91 0 001.49-2.76c.35-1.1.52-2.2.52-3.33v-1.09h4.95v7.18h.94v3.92zm-2.37-3.92v-6h-2.28c0 1.1-.16 2.2-.48 3.28a7.9 7.9 0 01-1.33 2.72h4.09zM270.5 314h-1.48v-5.73l-5.22 5.96h-.34v-8.6h1.5v5.73l5.2-5.95h.34V314zM276.73 309.63c1.05.38 1.57 1.06 1.57 2.05 0 .78-.3 1.38-.89 1.82-.58.44-1.37.66-2.38.66-1.1 0-2.13-.32-3.07-.94l.75-1.19a3.4 3.4 0 002.4.92c.5 0 .9-.12 1.2-.35.3-.23.44-.54.44-.92 0-1-.63-1.5-1.88-1.5-.35 0-.66.01-.93.05v-1.2c.1.02.43.03.98.03.51 0 .9-.1 1.19-.3.29-.2.43-.48.43-.84 0-.39-.13-.7-.4-.9a1.6 1.6 0 00-1.07-.33c-.7 0-1.44.21-2.2.64l-.54-1.2c.96-.44 1.9-.66 2.82-.66.82 0 1.51.22 2.07.65.56.44.83 1.01.83 1.74 0 .86-.44 1.45-1.32 1.77zM284.52 313.04c-.6.74-1.5 1.12-2.71 1.12-.67 0-1.24-.24-1.72-.72a2.41 2.41 0 01-.71-1.78c0-.85.36-1.56 1.1-2.14a4.45 4.45 0 013.92-.7c0-1.35-.61-2.02-1.83-2.02-.91 0-1.63.25-2.14.75l-.63-1.23a4.5 4.5 0 012.6-.85c1.2 0 2.06.27 2.62.8.57.54.85 1.43.85 2.68v2.99c0 .73.22 1.22.65 1.47v.73c-.64 0-1.11-.1-1.4-.29-.29-.2-.49-.46-.6-.81zm-.12-3.15a7.08 7.08 0 00-1-.16c-.74 0-1.36.2-1.83.58-.47.4-.71.85-.71 1.37 0 .88.51 1.31 1.54 1.31.73 0 1.4-.36 2-1.07v-2.03zM295.14 314h-1.48v-5.73l-5.22 5.96h-.34v-8.6h1.5v5.73l5.2-5.95h.34V314zm-.57-12.41c-.35 1.6-1.28 2.4-2.8 2.4-1.52 0-2.45-.8-2.8-2.4l1.33-.3c.19 1.06.68 1.6 1.47 1.6.88 0 1.39-.54 1.54-1.6l1.26.3zM304.1 314h-1.5v-3.77h-3.85V314h-1.5v-8.37h1.5V309h3.85v-3.36h1.5V314zM313.25 309.97h-6.03c0 .61.1 1.13.31 1.56.21.43.5.77.9 1.02.4.24.87.36 1.43.36.84 0 1.55-.25 2.12-.75l.61 1.2c-.39.3-.82.52-1.28.63-.47.11-1.05.17-1.74.17a3.7 3.7 0 01-2.8-1.17 4.31 4.31 0 01-1.1-3.07c0-1.33.38-2.4 1.15-3.22a3.66 3.66 0 012.77-1.23c1.15 0 2.07.32 2.76.97a3.41 3.41 0 011.03 2.62c0 .21-.04.52-.13.9zm-3.6-3.25c-.65 0-1.2.21-1.65.64-.44.42-.69.93-.73 1.52h4.62c0-.63-.2-1.15-.6-1.55-.42-.4-.96-.61-1.64-.61zM316.45 313.54v3.74h-1.49v-11.65h1.5v.69a2.76 2.76 0 012.02-.85c1.19 0 2.1.37 2.77 1.12.66.75 1 1.83 1 3.25 0 1.29-.34 2.32-1.02 3.12-.66.8-1.62 1.2-2.88 1.2-.34 0-.72-.07-1.12-.2-.4-.12-.66-.26-.78-.42zm0-6.1v4.88c.12.15.32.29.61.41.3.12.58.18.86.18 1.85 0 2.77-1.04 2.77-3.14 0-1.08-.23-1.86-.67-2.33-.45-.48-1.15-.72-2.1-.72-.2 0-.46.08-.77.23-.31.16-.55.32-.7.49zM327.12 315.38c-.2.52-.6.96-1.21 1.31-.62.37-1.3.54-2.07.54v-1.32c.6 0 1.13-.15 1.58-.44.45-.29.67-.64.67-1.06 0-.5-.08-.94-.24-1.36l-2.9-7.46h1.53l2.44 6.46 2.23-6.46h1.5l-3.53 9.79zM340.78 309.63c1.04.38 1.56 1.06 1.56 2.05 0 .78-.3 1.38-.88 1.82-.58.44-1.38.66-2.38.66-1.11 0-2.13-.32-3.07-.94l.75-1.19a3.4 3.4 0 002.39.92c.5 0 .9-.12 1.2-.35.3-.23.45-.54.45-.92 0-1-.63-1.5-1.88-1.5-.35 0-.66.01-.93.05v-1.2c.1.02.42.03.98.03.5 0 .9-.1 1.19-.3.28-.2.43-.48.43-.84 0-.39-.13-.7-.4-.9a1.6 1.6 0 00-1.07-.33c-.7 0-1.44.21-2.2.64l-.55-1.2c.96-.44 1.9-.66 2.82-.66.83 0 1.52.22 2.08.65.55.44.83 1.01.83 1.74 0 .86-.44 1.45-1.32 1.77zM348.57 313.04c-.6.74-1.51 1.12-2.72 1.12-.66 0-1.23-.24-1.7-.72a2.4 2.4 0 01-.73-1.78c0-.85.37-1.56 1.1-2.14a4.45 4.45 0 013.93-.7c0-1.35-.61-2.02-1.83-2.02-.91 0-1.63.25-2.14.75l-.63-1.23a4.5 4.5 0 012.6-.85c1.19 0 2.06.27 2.62.8.56.54.84 1.43.84 2.68v2.99c0 .73.22 1.22.66 1.47v.73c-.65 0-1.11-.1-1.4-.29-.3-.2-.49-.46-.6-.81zm-.13-3.15a7.08 7.08 0 00-.99-.16c-.75 0-1.36.2-1.83.58-.48.4-.71.85-.71 1.37 0 .88.5 1.31 1.53 1.31.74 0 1.4-.36 2-1.07v-2.03zM92.7 341.04c-.6.74-1.52 1.12-2.72 1.12-.66 0-1.24-.24-1.71-.72a2.41 2.41 0 01-.72-1.78c0-.85.36-1.56 1.1-2.14a4.45 4.45 0 013.92-.7c0-1.35-.6-2.02-1.83-2.02-.9 0-1.62.25-2.14.75l-.62-1.23a4.5 4.5 0 012.6-.85c1.18 0 2.05.27 2.62.8.56.54.84 1.43.84 2.68v2.99c0 .73.22 1.22.66 1.47v.73c-.65 0-1.12-.1-1.41-.29-.29-.2-.49-.46-.6-.81zm-.13-3.15a7.08 7.08 0 00-1-.16c-.74 0-1.35.2-1.83.58-.47.4-.7.85-.7 1.37 0 .88.5 1.31 1.53 1.31.73 0 1.4-.36 2-1.07v-2.03zM104.24 342l-.88-5.04-2.52 5.18h-.4l-2.52-5.1-.86 4.96h-1.43l1.6-8.52h.4l3.1 6.25 3.05-6.25h.38l1.57 8.52h-1.49zM110.44 333.47c1.2 0 2.13.39 2.79 1.16.66.77.99 1.83.99 3.16 0 1.37-.34 2.44-1.03 3.21a3.5 3.5 0 01-2.75 1.16c-1.19 0-2.12-.4-2.78-1.18-.67-.78-1-1.84-1-3.2 0-1.28.34-2.32 1.04-3.12.7-.8 1.61-1.2 2.74-1.2zm0 7.47c.7 0 1.25-.28 1.63-.86.4-.58.59-1.34.59-2.3 0-2.06-.74-3.1-2.22-3.1-.7 0-1.24.29-1.64.85-.4.56-.6 1.32-.6 2.26 0 2.1.75 3.15 2.24 3.15zM117.28 341.54v3.74h-1.5v-11.65h1.5v.69a2.76 2.76 0 012.03-.85c1.19 0 2.1.37 2.77 1.12.66.75.99 1.83.99 3.25 0 1.29-.34 2.32-1 3.12-.67.8-1.63 1.2-2.89 1.2-.34 0-.72-.07-1.13-.2-.4-.12-.65-.26-.77-.42zm0-6.1v4.88c.12.15.32.29.61.41.3.12.58.18.86.18 1.84 0 2.77-1.04 2.77-3.14 0-1.08-.23-1.86-.68-2.33-.44-.48-1.14-.72-2.09-.72-.2 0-.46.08-.77.23-.32.16-.55.32-.7.49zM130.42 334.88h-2.4V342h-1.48v-7.12h-2.4v-1.25h6.28v1.25zM139 342h-1.48v-5.73l-5.22 5.96h-.34v-8.6h1.5v5.73l5.2-5.95h.34V342zM145.23 337.63c1.05.38 1.57 1.06 1.57 2.05 0 .78-.3 1.38-.89 1.82-.58.44-1.37.66-2.38.66-1.1 0-2.13-.32-3.07-.94l.75-1.19a3.4 3.4 0 002.4.92c.5 0 .9-.12 1.2-.35.3-.23.44-.54.44-.92 0-1-.63-1.5-1.88-1.5-.35 0-.66.01-.93.05v-1.2c.1.02.43.03.98.03.51 0 .9-.1 1.19-.3.29-.2.43-.48.43-.84 0-.39-.13-.7-.4-.9a1.6 1.6 0 00-1.07-.33c-.7 0-1.44.21-2.2.64l-.54-1.2c.96-.44 1.9-.66 2.82-.66.82 0 1.51.22 2.07.65.56.44.84 1.01.84 1.74 0 .86-.44 1.45-1.33 1.77zM153.02 341.04c-.6.74-1.5 1.12-2.72 1.12-.66 0-1.23-.24-1.7-.72a2.41 2.41 0 01-.72-1.78c0-.85.36-1.56 1.1-2.14a4.45 4.45 0 013.92-.7c0-1.35-.61-2.02-1.83-2.02-.91 0-1.63.25-2.14.75l-.63-1.23a4.5 4.5 0 012.6-.85c1.2 0 2.06.27 2.62.8.57.54.85 1.43.85 2.68v2.99c0 .73.22 1.22.65 1.47v.73c-.64 0-1.11-.1-1.4-.29-.29-.2-.49-.46-.6-.81zm-.12-3.15a7.08 7.08 0 00-1-.16c-.74 0-1.36.2-1.83.58-.47.4-.71.85-.71 1.37 0 .88.51 1.31 1.54 1.31.73 0 1.4-.36 2-1.07v-2.03zM163.98 344.7h-1.35V342h-6.03v-8.37h1.5v7.14h3.42v-7.14H163v7.14h.98v3.93zM172.45 342h-1.48v-5.73l-5.22 5.96h-.34v-8.6h1.5v5.73l5.2-5.95h.34V342zM177.58 337c.14-1.1.53-1.96 1.15-2.59.62-.63 1.4-.94 2.3-.94a3.1 3.1 0 012.56 1.15c.62.76.93 1.81.93 3.17 0 1.3-.31 2.36-.95 3.16-.63.8-1.47 1.2-2.53 1.2a3.14 3.14 0 01-2.47-1.02 4.74 4.74 0 01-1.02-2.92h-1.56V342h-1.42v-8.37h1.42v3.38h1.59zm3.47 4c.67 0 1.17-.3 1.5-.87.34-.57.5-1.35.5-2.32 0-2.12-.67-3.17-2.01-3.17-.66 0-1.16.28-1.52.85a4.27 4.27 0 00-.52 2.27c0 1.05.18 1.85.53 2.4.36.56.87.83 1.53.83zM198.93 342l-.88-5.04-2.53 5.18h-.4l-2.51-5.1-.86 4.96h-1.43l1.6-8.52h.4l3.1 6.25 3.05-6.25h.38l1.57 8.52h-1.49zM210.73 342h-1.46v-8.37h1.46V342zm-7.39-5.3c.43-.06.9-.1 1.43-.1 1.07 0 1.89.24 2.45.7.56.47.84 1.15.84 2.06 0 .45-.13.9-.38 1.33-.26.43-.63.75-1.12.97-.49.23-1.1.34-1.83.34h-2.85v-8.37h1.46v3.07zm0 4.1c.36.03.83.05 1.43.05.55 0 .99-.13 1.32-.4.33-.26.5-.64.5-1.12 0-.53-.18-.92-.53-1.18-.34-.26-.8-.4-1.37-.4-.31 0-.76.04-1.35.1v2.95zM222.87 342h-10.02v-8.37h1.4v7.17h2.9v-7.17h1.41v7.17h2.9v-7.17h1.4V342zM231.57 342.05c-.15.02-.33.03-.55.03-.98 0-1.54-.5-1.68-1.47-.12-.83-.4-1.44-.84-1.83-.44-.39-1.08-.58-1.9-.58h-.13v3.8h-1.5v-8.37h1.5v3.35h.2a2.9 2.9 0 001.8-.48c.4-.32.68-.82.8-1.5.16-.96.71-1.44 1.64-1.44.18 0 .35 0 .52.03v1.28l-.4-.02c-.22 0-.37.16-.44.48a2.77 2.77 0 01-2.07 2.26c1.2.4 1.94 1.32 2.21 2.75.07.3.22.44.44.44.2 0 .34 0 .4-.03v1.3zM240.28 342h-1.48v-5.73l-5.22 5.96h-.34v-8.6h1.5v5.73l5.2-5.95h.34V342zM244.1 339.8c.33 0 .6.12.84.35.23.23.34.5.34.83 0 .32-.11.6-.34.83-.23.23-.5.35-.83.35-.32 0-.6-.12-.83-.35a1.15 1.15 0 01-.34-.83c0-.33.11-.6.34-.83.23-.23.5-.34.83-.34zM262.06 342l-1.37-7.4-2.53 7.56h-.4l-2.5-7.55-1.34 7.39h-1.49l2.23-11.44h.68l2.66 8.34 2.64-8.34h.67l2.25 11.44h-1.5zM268.24 333.47c1.2 0 2.13.39 2.78 1.16.67.77 1 1.83 1 3.16 0 1.37-.35 2.44-1.04 3.21a3.5 3.5 0 01-2.74 1.16c-1.2 0-2.12-.4-2.79-1.18-.66-.78-1-1.84-1-3.2 0-1.28.35-2.32 1.05-3.12.7-.8 1.61-1.2 2.74-1.2zm0 7.47c.7 0 1.24-.28 1.63-.86.39-.58.58-1.34.58-2.3 0-2.06-.73-3.1-2.2-3.1-.7 0-1.25.29-1.66.85-.4.56-.59 1.32-.59 2.26 0 2.1.75 3.15 2.24 3.15zM278.98 334.88h-3.9V342h-1.5v-8.37h5.4v1.25zM283.76 343.38c-.2.52-.6.96-1.21 1.31-.62.37-1.3.54-2.07.54v-1.32c.6 0 1.13-.15 1.58-.44.45-.29.67-.64.67-1.06 0-.5-.08-.94-.24-1.36l-2.9-7.46h1.53l2.44 6.46 2.23-6.46h1.5l-3.53 9.79zM299.63 334.32l-.72 1.04c-.19-.16-.46-.3-.83-.44-.37-.13-.74-.2-1.11-.2-.81 0-1.46.28-1.93.86a3.54 3.54 0 00-.71 2.33c0 .94.24 1.68.7 2.21.48.53 1.16.8 2.05.8.67 0 1.34-.27 2.02-.8l.57 1.25a5.2 5.2 0 01-2.96.79 3.77 3.77 0 01-2.82-1.15 4.3 4.3 0 01-1.1-3.1c0-1.37.38-2.45 1.16-3.25.79-.8 1.84-1.2 3.17-1.2.45 0 .93.1 1.43.29.5.19.86.38 1.07.57zM309.07 344.73h-1.31V342h-5.92v2.73h-1.32v-3.92h.64a7.91 7.91 0 001.5-2.76c.34-1.1.52-2.2.52-3.33v-1.09h4.94v7.18h.95v3.92zm-2.38-3.92v-6h-2.28c0 1.1-.16 2.2-.47 3.28a7.9 7.9 0 01-1.34 2.72h4.1zM317.55 337.97h-6.03c0 .61.1 1.13.3 1.56.22.43.52.77.9 1.02.4.24.88.36 1.44.36.83 0 1.54-.25 2.12-.75l.61 1.2c-.39.3-.82.52-1.29.63-.47.11-1.05.17-1.73.17a3.7 3.7 0 01-2.8-1.17 4.32 4.32 0 01-1.1-3.07c0-1.33.38-2.4 1.15-3.22a3.66 3.66 0 012.76-1.23c1.16 0 2.08.32 2.77.97a3.4 3.4 0 011.03 2.62c0 .21-.05.52-.13.9zm-3.6-3.25c-.66 0-1.2.21-1.65.64a2.3 2.3 0 00-.74 1.52h4.63c0-.63-.2-1.15-.61-1.55-.4-.4-.95-.61-1.63-.61zM326.2 342h-1.48v-7.19h-2.24a17.46 17.46 0 01-.36 3.27c-.22 1-.5 1.82-.87 2.47a2.82 2.82 0 01-1.19 1.25c-.43.2-.94.3-1.54.3v-1.37c.94 0 1.6-.72 1.98-2.16.4-1.45.59-2.83.59-4.16v-.78h5.11V342zM332.91 341.04c-.6.74-1.5 1.12-2.72 1.12-.66 0-1.23-.24-1.7-.72a2.41 2.41 0 01-.72-1.78c0-.85.36-1.56 1.1-2.14a4.45 4.45 0 013.92-.7c0-1.35-.61-2.02-1.83-2.02-.91 0-1.62.25-2.14.75l-.63-1.23a4.5 4.5 0 012.61-.85c1.18 0 2.05.27 2.61.8.57.54.85 1.43.85 2.68v2.99c0 .73.22 1.22.65 1.47v.73c-.64 0-1.11-.1-1.4-.29-.29-.2-.49-.46-.6-.81zm-.12-3.15a7.08 7.08 0 00-1-.16c-.74 0-1.36.2-1.83.58-.47.4-.71.85-.71 1.37 0 .88.51 1.31 1.54 1.31.73 0 1.4-.36 2-1.07v-2.03zM342.2 334.88h-2.4V342h-1.48v-7.12h-2.4v-1.25h6.28v1.25zM345.22 336.73c.71-.08 1.3-.12 1.74-.12 1.07 0 1.88.23 2.44.7.56.46.84 1.14.84 2.05 0 .7-.27 1.32-.81 1.85s-1.38.79-2.52.79h-3.17v-8.37h1.48v3.1zm0 4.05c.36.03.95.05 1.76.05.55 0 .98-.13 1.3-.38.31-.26.47-.64.47-1.12 0-1.04-.62-1.56-1.85-1.56-.43 0-.99.05-1.68.14v2.87zM93.77 362.88h-2.4V370h-1.49v-7.12h-2.4v-1.25h6.29v1.25zM99.95 369.04c-.6.74-1.52 1.12-2.72 1.12-.66 0-1.24-.24-1.71-.72a2.41 2.41 0 01-.72-1.78c0-.85.36-1.56 1.1-2.14a4.45 4.45 0 013.92-.7c0-1.35-.6-2.02-1.83-2.02-.9 0-1.62.25-2.14.75l-.62-1.23a4.5 4.5 0 012.6-.85c1.18 0 2.05.27 2.61.8.57.54.85 1.43.85 2.68v2.99c0 .73.22 1.22.65 1.47v.73c-.64 0-1.1-.1-1.4-.29-.29-.2-.48-.46-.6-.81zm-.13-3.15a7.08 7.08 0 00-1-.16c-.74 0-1.35.2-1.83.58-.47.4-.7.85-.7 1.37 0 .88.5 1.31 1.53 1.31.73 0 1.4-.36 2-1.07v-2.03zM110.12 370.05c-.15.02-.33.03-.55.03-.98 0-1.54-.5-1.68-1.47-.12-.83-.4-1.44-.84-1.83-.45-.39-1.08-.58-1.9-.58h-.13v3.8h-1.5v-8.37h1.5v3.35h.2a2.9 2.9 0 001.79-.48c.41-.32.68-.82.8-1.5.17-.96.72-1.44 1.65-1.44.18 0 .35 0 .52.03v1.28l-.4-.02c-.23 0-.38.16-.44.48a2.77 2.77 0 01-2.08 2.26c1.2.4 1.94 1.32 2.22 2.75.07.3.22.44.44.44.2 0 .34 0 .4-.03v1.3zM112.48 372.84l-.4-.57c.9-.73 1.35-1.36 1.35-1.87 0-.23-.08-.46-.24-.69-.44-.21-.67-.52-.67-.92 0-.28.11-.5.32-.68.22-.18.49-.27.8-.27a1 1 0 01.77.37c.23.25.35.54.35.88 0 .69-.15 1.31-.44 1.86-.29.56-.9 1.19-1.84 1.89zM128.88 370h-1.49v-3.28c-.68.17-1.4.26-2.16.26a2.9 2.9 0 01-2.16-.8c-.52-.52-.78-1.28-.78-2.29v-2.26h1.48v2.23c0 .62.16 1.1.47 1.41.32.33.78.49 1.38.49.6 0 1.2-.06 1.79-.19v-3.94h1.47V370zM136.7 362.88h-2.4V370h-1.48v-7.12h-2.4v-1.25h6.28v1.25zM141.5 361.47c1.19 0 2.12.39 2.77 1.16.66.77 1 1.83 1 3.16 0 1.37-.35 2.44-1.04 3.21a3.5 3.5 0 01-2.74 1.16c-1.2 0-2.12-.4-2.79-1.18-.66-.78-1-1.84-1-3.2 0-1.28.35-2.32 1.05-3.12.7-.8 1.61-1.2 2.74-1.2zm0 7.47c.69 0 1.23-.28 1.62-.86.39-.58.58-1.34.58-2.3 0-2.06-.73-3.1-2.2-3.1-.7 0-1.25.29-1.66.85-.4.56-.59 1.32-.59 2.26 0 2.1.75 3.15 2.24 3.15zM147.57 363.97c.35-.6.8-1.07 1.31-1.38.53-.32 1.1-.48 1.7-.48 1.09 0 1.94.35 2.57 1.04.62.7.94 1.63.94 2.8 0 1.26-.34 2.27-1.03 3.05a3.53 3.53 0 01-2.79 1.16 3.42 3.42 0 01-2.86-1.33 5.8 5.8 0 01-1.02-3.61c0-1.01.09-1.9.27-2.69.17-.78.43-1.41.77-1.9.34-.5.77-.9 1.3-1.2.54-.3 1.23-.56 2.08-.76l2.68-.6.32 1.37c-1.94.42-3.14.69-3.6.81-.44.12-.87.31-1.26.57-.38.26-.69.64-.91 1.13a6.87 6.87 0 00-.47 2.02zm2.77 4.96c.7 0 1.23-.26 1.6-.77.37-.5.56-1.2.56-2.05 0-.9-.19-1.6-.56-2.07-.36-.48-.89-.71-1.58-.71-.7 0-1.28.27-1.73.81-.44.54-.65 1.2-.65 1.97 0 .83.21 1.51.64 2.04.42.52 1 .78 1.72.78zM164.5 370h-1.46v-8.37h1.46V370zm-7.4-5.3c.44-.06.91-.1 1.43-.1 1.07 0 1.9.24 2.45.7.57.47.85 1.15.85 2.06 0 .45-.13.9-.39 1.33-.25.43-.62.75-1.11.97-.5.23-1.1.34-1.83.34h-2.85v-8.37h1.46v3.07zm0 4.1c.36.03.84.05 1.43.05.55 0 1-.13 1.32-.4.34-.26.5-.64.5-1.12 0-.53-.17-.92-.52-1.18-.35-.26-.8-.4-1.38-.4-.3 0-.76.04-1.34.1v2.95zM179.41 370l-.88-5.04-2.52 5.18h-.4l-2.52-5.1-.86 4.96h-1.42l1.6-8.52h.4l3.09 6.25 3.05-6.25h.39l1.57 8.52h-1.5zM189.2 370h-1.49v-3.77h-3.85V370h-1.5v-8.37h1.5V365h3.85v-3.36h1.5V370zM198.36 365.97h-6.03c0 .61.1 1.13.31 1.56.2.43.5.77.9 1.02.4.24.87.36 1.43.36.84 0 1.55-.25 2.12-.75l.61 1.2c-.39.3-.82.52-1.29.63-.47.11-1.04.17-1.73.17a3.7 3.7 0 01-2.8-1.17 4.32 4.32 0 01-1.1-3.07c0-1.33.38-2.4 1.15-3.22a3.66 3.66 0 012.76-1.23c1.16 0 2.08.32 2.77.97a3.41 3.41 0 011.03 2.62c0 .21-.04.52-.13.9zm-3.6-3.25c-.65 0-1.2.21-1.65.64a2.3 2.3 0 00-.74 1.52H197c0-.63-.2-1.15-.6-1.55-.42-.4-.96-.61-1.64-.61zM211.52 370h-1.48v-7.12h-3.65V370h-1.5v-8.37h6.63V370zM216.88 361.47c1.2 0 2.13.39 2.78 1.16.67.77 1 1.83 1 3.16 0 1.37-.35 2.44-1.03 3.21a3.5 3.5 0 01-2.75 1.16c-1.19 0-2.12-.4-2.79-1.18-.66-.78-1-1.84-1-3.2 0-1.28.35-2.32 1.05-3.12.7-.8 1.61-1.2 2.74-1.2zm0 7.47c.7 0 1.24-.28 1.63-.86.39-.58.58-1.34.58-2.3 0-2.06-.73-3.1-2.2-3.1-.7 0-1.25.29-1.66.85-.4.56-.59 1.32-.59 2.26 0 2.1.75 3.15 2.24 3.15zM227.22 365.5c1.07.35 1.6 1.06 1.6 2.12 0 .69-.26 1.25-.8 1.7-.53.46-1.33.68-2.39.68h-3.4v-8.35c1.17-.06 2.26-.1 3.26-.1.94 0 1.68.2 2.2.58.52.38.78.94.78 1.68 0 .36-.11.7-.34 1.01a2 2 0 01-.91.69zm-3.59-.46l1.8.01c1.06 0 1.59-.4 1.59-1.23a1 1 0 00-.38-.83c-.24-.2-.6-.3-1.04-.3-.86 0-1.51.02-1.97.06v2.29zm0 3.77c.6.04 1.2.06 1.83.06 1.25 0 1.87-.46 1.87-1.36 0-.44-.16-.78-.49-1.01-.32-.24-.8-.36-1.41-.36-.8 0-1.4.01-1.8.04v2.63zM237.53 365.97h-6.03c0 .61.1 1.13.31 1.56.21.43.51.77.9 1.02.4.24.87.36 1.43.36.84 0 1.55-.25 2.13-.75l.6 1.2c-.39.3-.81.52-1.28.63-.47.11-1.05.17-1.74.17a3.7 3.7 0 01-2.8-1.17 4.32 4.32 0 01-1.1-3.07c0-1.33.39-2.4 1.15-3.22a3.66 3.66 0 012.77-1.23c1.15 0 2.07.32 2.76.97a3.41 3.41 0 011.03 2.62c0 .21-.04.52-.13.9zm-3.6-3.25c-.65 0-1.2.21-1.65.64a2.3 2.3 0 00-.73 1.52h4.62c0-.63-.2-1.15-.6-1.55-.41-.4-.96-.61-1.64-.61zM240.73 369.54v3.74h-1.49v-11.65h1.5v.69a2.76 2.76 0 012.03-.85c1.18 0 2.1.37 2.76 1.12.66.75 1 1.83 1 3.25 0 1.29-.34 2.32-1.01 3.12-.67.8-1.63 1.2-2.89 1.2-.34 0-.72-.07-1.12-.2-.4-.12-.66-.26-.78-.42zm0-6.1v4.88c.12.15.32.29.61.41.3.12.58.18.86.18 1.85 0 2.77-1.04 2.77-3.14 0-1.08-.22-1.86-.67-2.33-.45-.48-1.15-.72-2.1-.72-.2 0-.46.08-.77.23-.31.16-.55.32-.7.49zM255.2 370h-1.48v-5.73l-5.22 5.96h-.34v-8.6h1.5v5.73l5.2-5.95h.34V370zM264.27 370h-1.49v-7.19h-2.24a17.54 17.54 0 01-.36 3.27 8.9 8.9 0 01-.87 2.47 2.82 2.82 0 01-1.19 1.25c-.42.2-.94.3-1.53.3v-1.37c.93 0 1.59-.72 1.97-2.16.4-1.45.59-2.83.59-4.16v-.78h5.12V370zM273.38 370h-1.49v-5.73l-5.22 5.96h-.33v-8.6h1.49v5.73l5.2-5.95h.35V370zM277.2 367.8c.33 0 .6.12.83.35.23.23.35.5.35.83 0 .32-.12.6-.35.83-.23.23-.5.35-.83.35-.32 0-.6-.12-.82-.35a1.15 1.15 0 01-.35-.83c0-.33.12-.6.35-.83.22-.23.5-.34.82-.34zM97.02 82l-1.38-7.4-2.53 7.56h-.4l-2.5-7.55L88.89 82h-1.5l2.23-11.44h.69l2.65 8.34 2.64-8.34h.68L98.5 82H97zM103.2 73.47c1.2 0 2.12.39 2.78 1.16.66.77.99 1.83.99 3.16 0 1.37-.34 2.44-1.03 3.21a3.5 3.5 0 01-2.75 1.16c-1.19 0-2.12-.4-2.78-1.18-.67-.78-1-1.84-1-3.2 0-1.28.35-2.32 1.04-3.12.7-.8 1.61-1.2 2.74-1.2zm0 7.48c.7 0 1.23-.3 1.62-.87.4-.58.59-1.34.59-2.3 0-2.06-.74-3.1-2.22-3.1-.7 0-1.24.29-1.64.85-.4.56-.6 1.32-.6 2.26 0 2.1.75 3.16 2.24 3.16zM113.93 74.88h-3.9V82h-1.5v-8.37h5.4v1.25zM118.71 83.38c-.2.52-.6.96-1.21 1.32-.61.35-1.3.53-2.07.53v-1.32c.6 0 1.14-.15 1.59-.44.44-.29.67-.64.67-1.06 0-.5-.08-.94-.25-1.36l-2.9-7.46h1.53l2.45 6.46 2.22-6.46h1.5l-3.53 9.78zM133.25 77.5c1.07.35 1.6 1.05 1.6 2.12 0 .68-.26 1.25-.8 1.7-.53.46-1.32.68-2.39.68h-3.4v-8.35c1.18-.06 2.26-.1 3.26-.1.95 0 1.68.2 2.2.58.52.38.78.94.78 1.67 0 .37-.11.71-.34 1.02a2 2 0 01-.91.69zm-3.59-.46l1.8.01c1.06 0 1.59-.4 1.59-1.23a1 1 0 00-.38-.83c-.24-.2-.59-.3-1.04-.3-.86 0-1.51.02-1.97.06v2.29zm0 3.77c.6.04 1.2.06 1.83.06 1.25 0 1.87-.46 1.87-1.36 0-.44-.16-.78-.49-1.01-.32-.24-.79-.36-1.4-.36-.8 0-1.4.01-1.8.04v2.63zM143.56 77.97h-6.03c0 .61.1 1.13.31 1.56.21.43.51.77.9 1.02.4.24.88.36 1.43.36.84 0 1.55-.25 2.13-.75l.6 1.2c-.38.3-.81.52-1.28.63-.47.11-1.05.17-1.74.17a3.7 3.7 0 01-2.8-1.17 4.32 4.32 0 01-1.1-3.07c0-1.33.39-2.4 1.15-3.22a3.66 3.66 0 012.77-1.23c1.16 0 2.08.32 2.76.98a3.4 3.4 0 011.03 2.6c0 .22-.04.53-.13.92zm-3.6-3.25c-.65 0-1.2.21-1.65.64a2.3 2.3 0 00-.73 1.52h4.62c0-.63-.2-1.15-.6-1.55-.41-.4-.96-.61-1.64-.61zM146.77 81.54v3.74h-1.5V73.63h1.5v.69a2.75 2.75 0 012.03-.85c1.18 0 2.1.37 2.76 1.12.66.75 1 1.83 1 3.25 0 1.28-.34 2.32-1.01 3.12-.67.8-1.63 1.2-2.89 1.2-.34 0-.72-.07-1.12-.2-.4-.12-.66-.26-.77-.42zm0-6.1v4.88c.11.15.31.29.6.41.3.12.58.18.86.18 1.85 0 2.77-1.04 2.77-3.14 0-1.08-.22-1.86-.67-2.33-.45-.48-1.15-.72-2.1-.72-.2 0-.46.08-.77.23-.31.16-.54.32-.7.49zM160.52 74.32l-.72 1.04c-.19-.16-.46-.3-.83-.44-.37-.13-.74-.2-1.11-.2-.81 0-1.46.29-1.93.86a3.54 3.54 0 00-.71 2.33c0 .94.24 1.68.71 2.22.47.52 1.15.78 2.04.78.66 0 1.34-.26 2.02-.78l.57 1.25a5.2 5.2 0 01-2.96.78 3.77 3.77 0 01-2.82-1.15 4.3 4.3 0 01-1.1-3.1c0-1.37.38-2.45 1.16-3.25.79-.8 1.84-1.2 3.17-1.2.45 0 .93.1 1.43.29.5.19.86.38 1.08.57zM167.86 74.88h-2.4V82h-1.48v-7.12h-2.41v-1.25h6.29v1.25zM174.04 81.04c-.6.74-1.51 1.12-2.72 1.12-.66 0-1.23-.24-1.71-.72a2.41 2.41 0 01-.72-1.78c0-.84.37-1.56 1.1-2.14a4.46 4.46 0 013.92-.7c0-1.35-.6-2.02-1.82-2.02-.92 0-1.63.25-2.15.75l-.62-1.23a4.5 4.5 0 012.61-.85c1.18 0 2.05.27 2.6.8.57.54.85 1.43.85 2.68v2.99c0 .73.22 1.22.66 1.47v.73c-.65 0-1.12-.1-1.4-.29-.3-.2-.5-.46-.6-.81zm-.13-3.15c-.53-.1-.86-.16-.99-.16-.75 0-1.36.2-1.83.58-.48.4-.72.85-.72 1.37 0 .87.52 1.31 1.54 1.31.74 0 1.4-.35 2-1.07V77.9zM183.33 74.88h-2.4V82h-1.49v-7.12h-2.4v-1.25h6.29v1.25zM186.34 76.73c.72-.08 1.3-.12 1.75-.12 1.06 0 1.88.23 2.43.7.57.46.85 1.14.85 2.05 0 .7-.27 1.32-.81 1.85-.55.53-1.39.79-2.52.79h-3.17v-8.37h1.47v3.1zm0 4.05c.37.03.95.05 1.76.05a2 2 0 001.3-.38c.32-.27.47-.64.47-1.12 0-1.04-.61-1.56-1.85-1.56-.42 0-.98.05-1.68.14v2.87zM193.66 84.84l-.4-.57c.9-.73 1.34-1.36 1.34-1.87 0-.23-.08-.46-.23-.69-.45-.21-.68-.52-.68-.92 0-.28.11-.5.33-.68.2-.18.48-.27.8-.27a1 1 0 01.77.37c.22.25.34.54.34.88 0 .69-.15 1.31-.44 1.86-.28.56-.9 1.19-1.83 1.89zM211.63 82l-.88-5.04-2.52 5.18h-.4l-2.52-5.1-.86 4.96h-1.43l1.6-8.52h.4l3.1 6.25 3.05-6.25h.39l1.56 8.52h-1.49zM217.84 73.47c1.2 0 2.12.39 2.78 1.16.66.77.99 1.83.99 3.16 0 1.37-.34 2.44-1.03 3.21a3.5 3.5 0 01-2.74 1.16c-1.2 0-2.13-.4-2.8-1.18-.66-.78-1-1.84-1-3.2 0-1.28.36-2.32 1.05-3.12.7-.8 1.62-1.2 2.75-1.2zm0 7.48c.7 0 1.24-.3 1.62-.87.4-.58.59-1.34.59-2.3 0-2.06-.74-3.1-2.21-3.1-.7 0-1.25.29-1.65.85-.4.56-.6 1.32-.6 2.26 0 2.1.75 3.16 2.25 3.16zM228.57 74.88h-3.9V82h-1.49v-8.37h5.39v1.25zM233.35 83.38c-.2.52-.6.96-1.2 1.32-.62.35-1.31.53-2.08.53v-1.32c.61 0 1.14-.15 1.59-.44.44-.29.67-.64.67-1.06 0-.5-.08-.94-.24-1.36l-2.9-7.46h1.52l2.45 6.46 2.22-6.46h1.5l-3.53 9.78zM249.73 82h-1.49v-3.77h-3.85V82h-1.5v-8.37h1.5V77h3.85v-3.36h1.5V82zM258.9 77.97h-6.04c0 .61.1 1.13.31 1.56.21.43.51.77.9 1.02.4.24.87.36 1.43.36.84 0 1.55-.25 2.13-.75l.6 1.2c-.39.3-.82.52-1.29.63-.46.11-1.04.17-1.73.17a3.7 3.7 0 01-2.8-1.17 4.32 4.32 0 01-1.1-3.07c0-1.33.38-2.4 1.15-3.22a3.66 3.66 0 012.77-1.23c1.15 0 2.08.32 2.76.98a3.4 3.4 0 011.03 2.6c0 .22-.04.53-.13.92zm-3.61-3.25c-.65 0-1.2.21-1.65.64a2.3 2.3 0 00-.73 1.52h4.62c0-.63-.2-1.15-.6-1.55-.41-.4-.96-.61-1.64-.61zM270.42 77.5c1.07.35 1.6 1.05 1.6 2.12 0 .68-.26 1.25-.8 1.7-.53.46-1.32.68-2.38.68h-3.41v-8.35c1.18-.06 2.26-.1 3.26-.1.95 0 1.68.2 2.2.58.52.38.78.94.78 1.67 0 .37-.11.71-.33 1.02a2 2 0 01-.92.69zm-3.58-.46l1.8.01c1.05 0 1.58-.4 1.58-1.23a1 1 0 00-.38-.83c-.24-.2-.59-.3-1.03-.3-.87 0-1.52.02-1.97.06v2.29zm0 3.77c.58.04 1.2.06 1.82.06 1.25 0 1.87-.46 1.87-1.36 0-.44-.16-.78-.48-1.01-.33-.24-.8-.36-1.42-.36-.8 0-1.4.01-1.8.04v2.63zM280.73 77.97h-6.03c0 .61.1 1.13.32 1.56.2.43.5.77.9 1.02.39.24.87.36 1.42.36.84 0 1.55-.25 2.13-.75l.6 1.2c-.38.3-.81.52-1.28.63-.47.11-1.05.17-1.74.17a3.7 3.7 0 01-2.8-1.17 4.32 4.32 0 01-1.1-3.07c0-1.33.39-2.4 1.16-3.22a3.66 3.66 0 012.76-1.23c1.16 0 2.08.32 2.77.98a3.41 3.41 0 011.03 2.6c0 .22-.05.53-.14.92zm-3.6-3.25c-.65 0-1.2.21-1.65.64a2.3 2.3 0 00-.73 1.52h4.63c0-.63-.2-1.15-.61-1.55-.41-.4-.95-.61-1.64-.61zM283.94 81.54v3.74h-1.5V73.63h1.5v.69a2.75 2.75 0 012.03-.85c1.18 0 2.1.37 2.76 1.12.67.75 1 1.83 1 3.25 0 1.28-.34 2.32-1.01 3.12-.67.8-1.63 1.2-2.88 1.2-.35 0-.72-.07-1.13-.2-.4-.12-.66-.26-.77-.42zm0-6.1v4.88c.11.15.31.29.6.41.3.12.58.18.87.18 1.84 0 2.76-1.04 2.76-3.14 0-1.08-.22-1.86-.67-2.33-.45-.48-1.15-.72-2.1-.72-.2 0-.45.08-.77.23-.31.16-.54.32-.7.49zM297.69 74.32l-.72 1.04c-.18-.16-.46-.3-.83-.44-.36-.13-.73-.2-1.1-.2-.82 0-1.46.29-1.94.86a3.54 3.54 0 00-.7 2.33c0 .94.23 1.68.7 2.22.48.52 1.15.78 2.04.78.67 0 1.34-.26 2.02-.78l.57 1.25a5.2 5.2 0 01-2.96.78 3.77 3.77 0 01-2.82-1.15 4.3 4.3 0 01-1.1-3.1c0-1.37.38-2.45 1.17-3.25.78-.8 1.84-1.2 3.16-1.2.45 0 .93.1 1.43.29.5.19.86.38 1.08.57zM305.03 74.88h-2.4V82h-1.48v-7.12h-2.4v-1.25h6.28v1.25zM311.21 81.04c-.6.74-1.5 1.12-2.72 1.12-.66 0-1.23-.24-1.7-.72a2.41 2.41 0 01-.73-1.78c0-.84.37-1.56 1.1-2.14a4.46 4.46 0 013.93-.7c0-1.35-.61-2.02-1.83-2.02-.91 0-1.63.25-2.14.75l-.63-1.23a4.5 4.5 0 012.61-.85c1.18 0 2.05.27 2.61.8.56.54.85 1.43.85 2.68v2.99c0 .73.21 1.22.65 1.47v.73c-.64 0-1.11-.1-1.4-.29-.3-.2-.49-.46-.6-.81zm-.12-3.15c-.53-.1-.87-.16-1-.16-.75 0-1.36.2-1.83.58-.48.4-.71.85-.71 1.37 0 .87.51 1.31 1.54 1.31.73 0 1.4-.35 2-1.07V77.9zM320.5 74.88h-2.4V82h-1.48v-7.12h-2.4v-1.25h6.28v1.25zM323.52 76.73c.7-.08 1.29-.12 1.74-.12 1.07 0 1.88.23 2.44.7.56.46.84 1.14.84 2.05 0 .7-.27 1.32-.81 1.85-.55.53-1.38.79-2.52.79h-3.17v-8.37h1.48v3.1zm0 4.05c.36.03.95.05 1.75.05a2 2 0 001.3-.38c.32-.27.48-.64.48-1.12 0-1.04-.62-1.56-1.86-1.56-.42 0-.98.05-1.67.14v2.87zM331.84 79.8c.33 0 .6.12.83.35.23.23.35.5.35.83 0 .32-.12.6-.35.83-.23.23-.5.35-.83.35-.32 0-.6-.12-.82-.35a1.15 1.15 0 01-.35-.83c0-.33.12-.6.35-.83.23-.23.5-.35.82-.35zM97.02 110l-1.38-7.4-2.53 7.56h-.4l-2.5-7.55-1.33 7.39h-1.5l2.23-11.44h.69l2.65 8.34 2.64-8.34h.68L98.5 110H97zM103.2 101.47c1.2 0 2.12.39 2.78 1.16.66.77.99 1.83.99 3.16 0 1.37-.34 2.44-1.03 3.21a3.5 3.5 0 01-2.75 1.16c-1.19 0-2.12-.4-2.78-1.18-.67-.78-1-1.84-1-3.2 0-1.28.35-2.32 1.04-3.12.7-.8 1.61-1.2 2.74-1.2zm0 7.47c.7 0 1.23-.28 1.62-.86.4-.58.59-1.34.59-2.3 0-2.06-.74-3.1-2.22-3.1-.7 0-1.24.29-1.64.85-.4.56-.6 1.32-.6 2.26 0 2.1.75 3.15 2.24 3.15zM113.93 102.88h-3.9V110h-1.5v-8.37h5.4v1.25zM118.71 111.38c-.2.52-.6.96-1.21 1.31-.61.37-1.3.54-2.07.54v-1.32c.6 0 1.14-.15 1.59-.44.44-.29.67-.64.67-1.06 0-.5-.08-.94-.25-1.35l-2.9-7.47h1.53l2.45 6.46 2.22-6.46h1.5l-3.53 9.78zM132.38 105.63c1.04.38 1.56 1.06 1.56 2.05 0 .78-.3 1.38-.88 1.82-.59.44-1.38.66-2.39.66a5.42 5.42 0 01-3.07-.94l.75-1.19a3.4 3.4 0 002.4.91c.5 0 .9-.1 1.2-.34.3-.23.44-.54.44-.92 0-1-.62-1.5-1.87-1.5-.36 0-.67.01-.93.05v-1.2c.09.02.41.03.97.03.51 0 .9-.1 1.19-.3.29-.2.43-.48.43-.84 0-.39-.13-.7-.4-.9a1.6 1.6 0 00-1.07-.33c-.7 0-1.43.21-2.2.64l-.54-1.2c.96-.44 1.9-.66 2.82-.66.82 0 1.51.22 2.07.66.56.43.83 1 .83 1.73 0 .86-.44 1.45-1.31 1.77zM140.16 109.04c-.6.74-1.5 1.12-2.72 1.12-.66 0-1.23-.24-1.7-.72a2.41 2.41 0 01-.72-1.78c0-.84.36-1.56 1.1-2.14a4.45 4.45 0 013.92-.7c0-1.35-.61-2.02-1.83-2.02-.91 0-1.62.25-2.14.76l-.63-1.24a4.5 4.5 0 012.61-.85c1.18 0 2.05.27 2.61.8.57.54.85 1.43.85 2.67v3c0 .73.22 1.22.65 1.47v.73c-.64 0-1.11-.1-1.4-.29-.29-.2-.49-.46-.6-.81zm-.12-3.15a7.08 7.08 0 00-1-.16c-.74 0-1.35.2-1.83.58-.47.4-.71.85-.71 1.37 0 .88.51 1.31 1.54 1.31.73 0 1.4-.35 2-1.07v-2.03zM150.06 102.32l-.72 1.04c-.18-.16-.46-.3-.82-.44-.37-.13-.74-.2-1.11-.2-.82 0-1.46.28-1.93.86a3.54 3.54 0 00-.71 2.33c0 .94.23 1.68.7 2.22.48.52 1.16.78 2.05.78.66 0 1.34-.26 2.02-.78l.57 1.25a5.2 5.2 0 01-2.96.78 3.77 3.77 0 01-2.82-1.15 4.3 4.3 0 01-1.11-3.1c0-1.37.39-2.45 1.17-3.25.79-.8 1.84-1.2 3.17-1.2.45 0 .92.1 1.42.29.5.19.86.38 1.08.57zM157.4 102.88H155V110h-1.48v-7.12h-2.4v-1.25h6.29v1.25zM163.59 109.04c-.6.74-1.51 1.12-2.72 1.12-.66 0-1.24-.24-1.71-.72a2.41 2.41 0 01-.72-1.78c0-.84.37-1.56 1.1-2.14a4.45 4.45 0 013.92-.7c0-1.35-.6-2.02-1.83-2.02-.9 0-1.62.25-2.14.76l-.62-1.24a4.5 4.5 0 012.61-.85c1.17 0 2.04.27 2.6.8.57.54.85 1.43.85 2.67v3c0 .73.22 1.22.66 1.47v.73c-.65 0-1.12-.1-1.41-.29-.29-.2-.49-.46-.6-.81zm-.13-3.15a7.08 7.08 0 00-1-.16c-.74 0-1.35.2-1.83.58-.47.4-.7.85-.7 1.37 0 .88.5 1.31 1.53 1.31.73 0 1.4-.35 2-1.07v-2.03zM172.16 105.5c1.06.35 1.6 1.06 1.6 2.12 0 .69-.27 1.25-.8 1.7-.53.46-1.33.68-2.39.68h-3.4v-8.35a62.4 62.4 0 013.26-.1c.94 0 1.67.2 2.2.58.52.38.78.94.78 1.68 0 .36-.12.7-.34 1.01a2 2 0 01-.91.69zm-3.59-.46c.08 0 .68.02 1.8.02 1.05 0 1.58-.42 1.58-1.24a1 1 0 00-.37-.83c-.25-.2-.6-.3-1.04-.3-.86 0-1.52.02-1.97.06v2.29zm0 3.77c.59.04 1.2.06 1.83.06 1.24 0 1.87-.46 1.87-1.36 0-.44-.17-.78-.49-1.01-.32-.24-.8-.36-1.41-.36-.8 0-1.4.01-1.8.04v2.63zM182.47 110h-1.49v-5.73l-5.21 5.96h-.34v-8.6h1.5v5.73l5.2-5.95h.34V110zM190.3 102.88h-2.4V110h-1.49v-7.12h-2.4v-1.25h6.29v1.25zM193.31 104.73c.72-.08 1.3-.12 1.75-.12 1.06 0 1.88.23 2.43.7.56.46.85 1.14.85 2.05 0 .7-.28 1.33-.82 1.85-.54.53-1.38.79-2.51.79h-3.17v-8.37h1.47v3.1zm0 4.05c.37.03.95.05 1.76.05.55 0 .99-.13 1.3-.39.31-.25.47-.63.47-1.11 0-1.04-.61-1.56-1.85-1.56a14 14 0 00-1.68.14v2.87zM209.75 105.5c1.07.35 1.6 1.06 1.6 2.12 0 .69-.26 1.25-.8 1.7-.53.46-1.32.68-2.39.68h-3.4v-8.35c1.18-.06 2.26-.1 3.26-.1.95 0 1.68.2 2.2.58.52.38.78.94.78 1.68 0 .36-.11.7-.34 1.01a2 2 0 01-.91.69zm-3.59-.46c.09 0 .69.02 1.8.02 1.06 0 1.59-.42 1.59-1.24a1 1 0 00-.38-.83c-.24-.2-.59-.3-1.04-.3-.86 0-1.51.02-1.97.06v2.29zm0 3.77c.6.04 1.2.06 1.83.06 1.25 0 1.87-.46 1.87-1.36 0-.44-.16-.78-.49-1.01-.32-.24-.79-.36-1.4-.36-.8 0-1.4.01-1.8.04v2.63zM220.06 105.97h-6.03c0 .61.1 1.13.31 1.56.21.43.51.77.9 1.02.4.24.88.36 1.43.36.84 0 1.55-.25 2.13-.75l.6 1.2c-.38.3-.81.52-1.28.63-.47.11-1.05.17-1.74.17a3.7 3.7 0 01-2.8-1.17 4.32 4.32 0 01-1.1-3.07c0-1.33.39-2.4 1.15-3.22a3.66 3.66 0 012.77-1.23c1.16 0 2.08.32 2.76.97a3.4 3.4 0 011.03 2.62c0 .21-.04.52-.13.9zm-3.6-3.25c-.65 0-1.2.21-1.65.64a2.3 2.3 0 00-.73 1.52h4.62c0-.63-.2-1.15-.6-1.55-.41-.4-.96-.61-1.64-.61zM223.27 109.54v3.74h-1.5v-11.65h1.5v.69a2.76 2.76 0 012.03-.85c1.18 0 2.1.37 2.76 1.12.66.75 1 1.83 1 3.25 0 1.28-.34 2.32-1.01 3.12-.67.8-1.63 1.2-2.89 1.2-.34 0-.72-.07-1.12-.2-.4-.12-.66-.26-.77-.42zm0-6.1v4.88c.11.15.31.29.6.41.3.12.58.18.86.18 1.85 0 2.77-1.04 2.77-3.14 0-1.08-.22-1.86-.67-2.33-.45-.48-1.15-.72-2.1-.72-.2 0-.46.08-.77.23-.31.16-.54.32-.7.49zM237.02 102.32l-.72 1.04c-.19-.16-.46-.3-.83-.44-.37-.13-.74-.2-1.11-.2-.81 0-1.46.28-1.93.86a3.54 3.54 0 00-.71 2.33c0 .94.24 1.68.71 2.22.47.52 1.15.78 2.04.78.66 0 1.34-.26 2.02-.78l.57 1.25a5.2 5.2 0 01-2.96.78 3.77 3.77 0 01-2.82-1.15 4.3 4.3 0 01-1.1-3.1c0-1.37.38-2.45 1.16-3.25.79-.8 1.84-1.2 3.17-1.2.45 0 .93.1 1.43.29.5.19.86.38 1.08.57zM244.36 102.88h-2.4V110h-1.48v-7.12h-2.41v-1.25h6.29v1.25zM250.54 109.04c-.6.74-1.51 1.12-2.72 1.12-.66 0-1.23-.24-1.71-.72a2.41 2.41 0 01-.72-1.78c0-.84.37-1.56 1.1-2.14a4.45 4.45 0 013.92-.7c0-1.35-.6-2.02-1.82-2.02-.92 0-1.63.25-2.15.76l-.62-1.24a4.5 4.5 0 012.61-.85c1.18 0 2.05.27 2.6.8.57.54.85 1.43.85 2.67v3c0 .73.22 1.22.66 1.47v.73c-.65 0-1.12-.1-1.4-.29-.3-.2-.5-.46-.6-.81zm-.13-3.15a7.08 7.08 0 00-.99-.16c-.75 0-1.36.2-1.83.58-.48.4-.72.85-.72 1.37 0 .88.52 1.31 1.54 1.31.74 0 1.4-.35 2-1.07v-2.03zM259.83 102.88h-2.4V110h-1.49v-7.12h-2.4v-1.25h6.29v1.25zM262.84 104.73c.72-.08 1.3-.12 1.75-.12 1.06 0 1.88.23 2.43.7.57.46.85 1.14.85 2.05 0 .7-.27 1.33-.81 1.85-.55.53-1.39.79-2.52.79h-3.17v-8.37h1.47v3.1zm0 4.05c.37.03.95.05 1.76.05.55 0 .99-.13 1.3-.39.32-.25.48-.63.48-1.11 0-1.04-.62-1.56-1.86-1.56-.42 0-.98.05-1.68.14v2.87zM282.1 112.73h-1.31V110h-5.92v2.73h-1.31v-3.92h.63a7.91 7.91 0 001.5-2.76c.35-1.1.52-2.2.52-3.33v-1.09h4.95v7.18h.94v3.92zm-2.37-3.92v-6h-2.29c0 1.1-.15 2.2-.47 3.28a7.9 7.9 0 01-1.34 2.72h4.1zM285.03 109.54v3.74h-1.5v-11.65h1.5v.69a2.76 2.76 0 012.03-.85c1.19 0 2.1.37 2.77 1.12.66.75.99 1.83.99 3.25 0 1.28-.34 2.32-1 3.12-.67.8-1.63 1.2-2.89 1.2-.34 0-.72-.07-1.13-.2-.4-.12-.65-.26-.77-.42zm0-6.1v4.88c.12.15.32.29.61.41.3.12.58.18.86.18 1.84 0 2.77-1.04 2.77-3.14 0-1.08-.23-1.86-.68-2.33-.44-.48-1.14-.72-2.09-.72-.2 0-.46.08-.77.23-.32.16-.55.32-.7.49zM295.7 111.38c-.2.52-.6.96-1.22 1.31-.61.37-1.3.54-2.07.54v-1.32c.61 0 1.14-.15 1.59-.44.45-.29.67-.64.67-1.06 0-.5-.08-.94-.24-1.35l-2.9-7.47h1.53l2.44 6.46 2.23-6.46h1.5l-3.54 9.78zM305.8 102.88h-3.9V110h-1.49v-8.37h5.4v1.25zM314.4 110h-1.5v-5.73l-5.21 5.96h-.34v-8.6h1.5v5.73l5.2-5.95h.34V110zM323.44 110h-1.85l-2.14-3.2-2.07 3.2h-1.77l3.1-4.29-2.84-4.08h1.74l1.87 2.95 1.99-2.95h1.68l-2.95 4.02 3.24 4.35zM325.34 112.84l-.4-.57c.9-.73 1.35-1.36 1.35-1.87 0-.23-.08-.46-.24-.69-.44-.21-.67-.52-.67-.92 0-.28.11-.5.32-.68.22-.18.49-.27.8-.27a1 1 0 01.77.37c.23.25.35.54.35.88 0 .69-.15 1.31-.44 1.86a6.2 6.2 0 01-1.84 1.89zM96.02 138l-.88-5.04-2.52 5.18h-.4l-2.52-5.1-.86 4.96h-1.43l1.6-8.52h.4l3.1 6.25 3.05-6.25h.39l1.57 8.52h-1.5zM102.23 129.47c1.2 0 2.12.39 2.78 1.16.66.77.99 1.83.99 3.16 0 1.37-.34 2.44-1.03 3.21a3.5 3.5 0 01-2.74 1.16c-1.2 0-2.13-.4-2.8-1.18-.66-.78-1-1.84-1-3.2 0-1.28.36-2.32 1.05-3.12.7-.8 1.62-1.2 2.75-1.2zm0 7.47c.7 0 1.24-.28 1.62-.86.4-.58.59-1.34.59-2.3 0-2.06-.74-3.1-2.21-3.1-.7 0-1.25.29-1.65.85-.4.56-.6 1.32-.6 2.26 0 2.1.75 3.16 2.25 3.16zM112.96 130.88h-3.9V138h-1.49v-8.37h5.4v1.25zM117.74 139.38c-.2.52-.6.96-1.2 1.31-.62.37-1.31.54-2.08.54v-1.32c.61 0 1.14-.15 1.59-.44.45-.29.67-.64.67-1.06 0-.5-.08-.94-.24-1.35l-2.9-7.47h1.52l2.45 6.46 2.22-6.46h1.5l-3.53 9.78zM130.52 139.38c-.19.52-.6.96-1.2 1.31-.62.37-1.31.54-2.08.54v-1.32c.61 0 1.14-.15 1.59-.44.45-.29.67-.64.67-1.06 0-.5-.08-.94-.24-1.35l-2.9-7.47h1.52l2.45 6.46 2.22-6.46h1.5l-3.53 9.78zM140.63 130.88h-3.9V138h-1.49v-8.37h5.4v1.25zM149.02 138h-1.5v-3.77h-3.85V138h-1.49v-8.37h1.5V133h3.84v-3.36h1.5V138zM158.17 133.97h-6.03c0 .61.1 1.13.31 1.56.21.43.51.77.9 1.02.4.24.87.36 1.43.36.84 0 1.55-.25 2.13-.75l.6 1.2c-.38.3-.81.52-1.28.63-.47.11-1.05.17-1.74.17a3.7 3.7 0 01-2.8-1.17 4.31 4.31 0 01-1.1-3.07c0-1.33.39-2.4 1.15-3.22a3.66 3.66 0 012.77-1.23c1.15 0 2.08.32 2.76.97a3.4 3.4 0 011.03 2.62c0 .21-.04.52-.13.9zm-3.6-3.25c-.65 0-1.2.21-1.65.64-.44.42-.69.93-.73 1.52h4.62c0-.63-.2-1.15-.6-1.55-.41-.4-.96-.61-1.64-.61zM165.6 130.88h-2.4V138h-1.49v-7.12h-2.4v-1.25h6.28v1.25zM171.77 137.04c-.6.74-1.5 1.12-2.72 1.12-.66 0-1.23-.24-1.7-.72a2.41 2.41 0 01-.72-1.78c0-.84.36-1.56 1.1-2.14a4.45 4.45 0 013.92-.7c0-1.35-.61-2.02-1.83-2.02-.91 0-1.63.25-2.14.75l-.63-1.23a4.5 4.5 0 012.6-.85c1.2 0 2.06.27 2.62.8.57.54.85 1.43.85 2.67v3c0 .73.22 1.22.65 1.47v.73c-.64 0-1.11-.1-1.4-.29-.29-.2-.49-.46-.6-.81zm-.12-3.15a7.08 7.08 0 00-1-.16c-.74 0-1.36.2-1.83.58-.47.4-.71.85-.71 1.37 0 .88.51 1.31 1.54 1.31.73 0 1.4-.36 2-1.07v-2.03zM181.06 130.88h-2.4V138h-1.48v-7.12h-2.4v-1.25h6.28v1.25zM184.08 132.73c.71-.08 1.3-.12 1.74-.12 1.07 0 1.88.23 2.44.7.56.46.84 1.14.84 2.05 0 .7-.27 1.32-.81 1.85s-1.38.79-2.52.79h-3.17v-8.37h1.48v3.1zm0 4.05c.36.03.95.05 1.76.05a2 2 0 001.3-.39c.31-.25.47-.63.47-1.11 0-1.04-.62-1.56-1.85-1.56a14 14 0 00-1.68.14v2.87zM201.23 130.88h-2.4V138h-1.48v-7.12h-2.4v-1.25h6.28v1.25zM209.81 133.97h-6.03c0 .61.1 1.13.31 1.56.21.43.51.77.9 1.02.4.24.88.36 1.43.36.84 0 1.55-.25 2.13-.75l.6 1.2c-.38.3-.81.52-1.28.63-.47.11-1.05.17-1.74.17a3.7 3.7 0 01-2.8-1.17 4.32 4.32 0 01-1.1-3.07c0-1.33.39-2.4 1.15-3.22a3.66 3.66 0 012.77-1.23c1.16 0 2.08.32 2.76.97a3.4 3.4 0 011.03 2.62c0 .21-.04.52-.13.9zm-3.6-3.25c-.65 0-1.2.21-1.65.64a2.3 2.3 0 00-.73 1.52h4.62c0-.63-.2-1.15-.6-1.55-.41-.4-.96-.61-1.64-.61zM218.45 138h-1.84l-2.14-3.2-2.08 3.2h-1.76l3.1-4.29-2.85-4.08h1.75l1.87 2.95 1.98-2.95h1.68l-2.94 4.02 3.23 4.35zM220.36 140.84l-.4-.57c.9-.73 1.34-1.36 1.34-1.87 0-.23-.07-.46-.23-.69-.45-.21-.67-.52-.67-.92 0-.28.1-.5.32-.68.21-.18.48-.27.8-.27a1 1 0 01.77.37c.23.25.34.54.34.88 0 .69-.14 1.31-.44 1.86-.28.56-.9 1.19-1.83 1.89zM236.96 138.05c-.15.02-.33.03-.55.03-.97 0-1.53-.5-1.68-1.47-.11-.83-.4-1.44-.84-1.83-.44-.39-1.08-.59-1.9-.59h-.13V138h-1.5v-8.37h1.5v3.35h.2a2.9 2.9 0 001.8-.48c.4-.32.68-.82.8-1.5.16-.96.71-1.44 1.65-1.44.17 0 .34 0 .51.03v1.28l-.39-.02c-.24 0-.38.16-.45.48a2.77 2.77 0 01-2.07 2.26c1.2.4 1.94 1.32 2.22 2.75.06.3.2.44.43.44.2 0 .34 0 .4-.03v1.3zM244.34 130.88h-2.4V138h-1.48v-7.12h-2.4v-1.25h6.28v1.25zM249.13 129.47c1.2 0 2.13.39 2.78 1.16.67.77 1 1.83 1 3.16 0 1.37-.35 2.44-1.03 3.21a3.5 3.5 0 01-2.75 1.16c-1.19 0-2.12-.4-2.79-1.18-.66-.78-1-1.84-1-3.2 0-1.28.35-2.32 1.05-3.12.7-.8 1.61-1.2 2.74-1.2zm0 7.47c.7 0 1.24-.28 1.63-.86.39-.58.58-1.34.58-2.3 0-2.06-.73-3.1-2.2-3.1-.7 0-1.25.29-1.66.85-.4.56-.59 1.32-.59 2.26 0 2.1.75 3.16 2.24 3.16zM265.93 138h-1.49v-7.12h-3.64V138h-1.5v-8.37h6.63V138zM274.98 138h-1.48v-7.19h-2.24a17.46 17.46 0 01-.36 3.27c-.21 1-.5 1.82-.87 2.47a2.82 2.82 0 01-1.19 1.25c-.42.2-.94.3-1.53.3v-1.37c.93 0 1.59-.72 1.97-2.16.4-1.45.59-2.83.59-4.16v-.78h5.11V138zM280.3 129.47c1.2 0 2.13.39 2.79 1.16.66.77.99 1.83.99 3.16 0 1.37-.35 2.44-1.03 3.21a3.5 3.5 0 01-2.75 1.16c-1.19 0-2.12-.4-2.78-1.18-.67-.78-1-1.84-1-3.2 0-1.28.35-2.32 1.04-3.12.7-.8 1.61-1.2 2.75-1.2zm0 7.47c.7 0 1.24-.28 1.63-.86.39-.58.59-1.34.59-2.3 0-2.06-.74-3.1-2.21-3.1-.7 0-1.25.29-1.65.85-.4.56-.6 1.32-.6 2.26 0 2.1.75 3.16 2.25 3.16zM292.58 138h-1.85l-2.14-3.2-2.07 3.2h-1.77l3.1-4.29-2.84-4.08h1.74l1.88 2.95 1.98-2.95h1.68l-2.95 4.02 3.24 4.35zM297.04 129.47c1.2 0 2.12.39 2.78 1.16.66.77 1 1.83 1 3.16 0 1.37-.35 2.44-1.04 3.21a3.5 3.5 0 01-2.74 1.16c-1.2 0-2.12-.4-2.79-1.18-.67-.78-1-1.84-1-3.2 0-1.28.35-2.32 1.05-3.12.7-.8 1.6-1.2 2.74-1.2zm0 7.47c.7 0 1.24-.28 1.62-.86.4-.58.59-1.34.59-2.3 0-2.06-.74-3.1-2.21-3.1-.7 0-1.25.29-1.65.85-.4.56-.6 1.32-.6 2.26 0 2.1.75 3.16 2.25 3.16zM93.05 161.5c1.06.35 1.6 1.06 1.6 2.12 0 .69-.27 1.25-.8 1.7-.53.46-1.33.68-2.39.68h-3.4v-8.35a62.4 62.4 0 013.26-.1c.94 0 1.67.2 2.2.58.52.38.78.94.78 1.68 0 .36-.12.7-.34 1.01a2 2 0 01-.91.69zm-3.59-.46c.08 0 .68.02 1.8.02 1.06 0 1.58-.42 1.58-1.24a1 1 0 00-.37-.83c-.25-.2-.6-.3-1.04-.3-.86 0-1.52.02-1.97.06v2.29zm0 3.77c.59.04 1.2.06 1.83.06 1.24 0 1.87-.46 1.87-1.36 0-.44-.17-.78-.49-1.01-.32-.24-.8-.36-1.41-.36-.8 0-1.4.01-1.8.04v2.63zM103.36 161.97h-6.03c0 .61.1 1.13.31 1.56.2.43.5.77.9 1.02.4.24.87.36 1.43.36.84 0 1.55-.25 2.12-.75l.61 1.2c-.39.3-.82.52-1.29.63-.47.11-1.04.17-1.73.17a3.7 3.7 0 01-2.8-1.17 4.32 4.32 0 01-1.1-3.07c0-1.33.38-2.4 1.15-3.22a3.66 3.66 0 012.77-1.23c1.15 0 2.07.32 2.76.97a3.41 3.41 0 011.03 2.62c0 .21-.04.52-.13.9zm-3.6-3.25c-.65 0-1.2.21-1.65.64a2.3 2.3 0 00-.73 1.52H102c0-.63-.2-1.15-.6-1.55-.42-.4-.96-.61-1.64-.61zM106.56 165.54v3.74h-1.49v-11.65h1.5v.69a2.76 2.76 0 012.02-.85c1.19 0 2.1.37 2.77 1.12.66.75 1 1.83 1 3.25 0 1.28-.34 2.32-1.02 3.12-.66.8-1.62 1.2-2.88 1.2-.34 0-.72-.07-1.12-.2-.4-.12-.66-.26-.78-.42zm0-6.1v4.88c.12.15.32.29.61.41.3.12.58.18.86.18 1.84 0 2.77-1.04 2.77-3.14 0-1.08-.23-1.86-.67-2.33-.45-.48-1.15-.72-2.1-.72-.2 0-.46.08-.77.23-.32.16-.55.32-.7.49zM120.31 158.32l-.72 1.04c-.18-.16-.45-.3-.82-.44-.37-.13-.74-.2-1.11-.2-.82 0-1.46.28-1.93.86a3.54 3.54 0 00-.71 2.33c0 .94.23 1.68.7 2.22.48.52 1.16.78 2.05.78.66 0 1.34-.26 2.02-.78l.57 1.25a5.2 5.2 0 01-2.96.78 3.77 3.77 0 01-2.82-1.15 4.3 4.3 0 01-1.11-3.1c0-1.37.39-2.45 1.17-3.25.79-.8 1.84-1.2 3.17-1.2.45 0 .92.1 1.42.29.5.19.86.38 1.08.57zM127.66 158.88h-2.4V166h-1.49v-7.12h-2.4v-1.25h6.29v1.25zM133.84 165.04c-.6.74-1.51 1.12-2.72 1.12-.66 0-1.24-.24-1.71-.72a2.41 2.41 0 01-.72-1.78c0-.84.37-1.56 1.1-2.14a4.45 4.45 0 013.92-.7c0-1.35-.6-2.02-1.83-2.02-.9 0-1.62.25-2.14.75l-.62-1.23a4.5 4.5 0 012.61-.85c1.17 0 2.04.27 2.6.8.57.54.85 1.43.85 2.67v3c0 .73.22 1.22.66 1.47v.73c-.65 0-1.12-.1-1.41-.29-.29-.2-.49-.46-.6-.81zm-.13-3.15a7.08 7.08 0 00-1-.16c-.74 0-1.35.2-1.83.58-.47.4-.7.85-.7 1.37 0 .88.5 1.31 1.53 1.31.73 0 1.4-.36 2-1.07v-2.03zM144.45 161.97h-6.03c0 .61.1 1.13.31 1.56.21.43.51.77.9 1.02.4.24.88.36 1.43.36.84 0 1.55-.25 2.13-.75l.6 1.2c-.38.3-.81.52-1.28.63-.47.11-1.05.17-1.74.17a3.7 3.7 0 01-2.8-1.17 4.32 4.32 0 01-1.1-3.07c0-1.33.39-2.4 1.15-3.22a3.66 3.66 0 012.77-1.23c1.16 0 2.08.32 2.77.97a3.41 3.41 0 011.03 2.62c0 .21-.05.52-.14.9zm-3.6-3.25c-.65 0-1.2.21-1.65.64a2.3 2.3 0 00-.73 1.52h4.62c0-.63-.2-1.15-.6-1.55-.41-.4-.96-.61-1.64-.61zM151.88 158.88h-2.4V166h-1.49v-7.12h-2.4v-1.25h6.28v1.25zM155.13 163.8c.32 0 .6.12.82.35.23.23.35.5.35.83 0 .32-.12.6-.35.83-.23.23-.5.35-.82.35-.33 0-.6-.12-.83-.35a1.15 1.15 0 01-.35-.83c0-.33.12-.6.35-.83.23-.23.5-.34.82-.34zM103.54 38H100V21.12H92.6V38h-3.56V17.98h14.5V38zM115.64 36.55c-.3.5-.86.92-1.67 1.24-.8.32-1.59.48-2.36.48-1.6 0-2.85-.4-3.73-1.19a4.25 4.25 0 01-1.33-3.33c0-1.62.61-2.92 1.83-3.93 1.22-1 3.05-1.51 5.47-1.51.4 0 .87.07 1.44.23 0-1.74-1.09-2.61-3.26-2.61-1.27 0-2.36.21-3.25.64l-.72-2.62a9.24 9.24 0 014.2-.88c2.25 0 3.9.52 4.91 1.57 1.03 1.04 1.55 2.96 1.55 5.74v3.14c0 1.95.4 3.17 1.17 3.67-.26.48-.56.77-.88.9-.33.12-.74.18-1.23.18s-.92-.17-1.32-.52a2.9 2.9 0 01-.82-1.2zm-.33-5.44c-.59-.11-1.03-.16-1.32-.16-2.7 0-4.03.87-4.03 2.62 0 1.33.75 2 2.27 2 2.05 0 3.08-1.03 3.08-3.08v-1.38zM125.84 37.63v6.11h-3.42V23.36h3.42v.98a4.35 4.35 0 013.16-1.27c4.67 0 7 2.58 7 7.74 0 2.37-.64 4.2-1.93 5.5-1.28 1.31-3.05 1.96-5.29 1.96a6.88 6.88 0 01-2.94-.64zm0-10.7v7.7c.62.52 1.35.77 2.19.77 1.54 0 2.66-.38 3.36-1.13.7-.76 1.06-1.95 1.06-3.58 0-1.65-.34-2.85-1-3.59-.66-.74-1.8-1.12-3.42-1.12-.82 0-1.55.32-2.19.96zM146.98 36.55c-.31.5-.87.92-1.67 1.24-.8.32-1.59.48-2.37.48-1.6 0-2.84-.4-3.73-1.19a4.25 4.25 0 01-1.32-3.33c0-1.62.6-2.92 1.83-3.93 1.22-1 3.04-1.51 5.47-1.51.39 0 .87.07 1.43.23 0-1.74-1.08-2.61-3.25-2.61-1.28 0-2.36.21-3.25.64l-.73-2.62a9.24 9.24 0 014.2-.88c2.26 0 3.9.52 4.92 1.57 1.03 1.04 1.55 2.96 1.55 5.74v3.14c0 1.95.39 3.17 1.17 3.67-.26.48-.56.77-.89.9-.33.12-.74.18-1.23.18-.48 0-.92-.17-1.31-.52a2.9 2.9 0 01-.82-1.2zm-.33-5.44c-.6-.11-1.03-.16-1.33-.16-2.69 0-4.03.87-4.03 2.62 0 1.33.76 2 2.27 2 2.06 0 3.09-1.03 3.09-3.08v-1.38zM173.75 24.53l-1.47 2.55a4.52 4.52 0 00-3.2-1.15A3.9 3.9 0 00166 27.2c-.76.85-1.13 2.05-1.13 3.6 0 3.09 1.45 4.63 4.36 4.63 1.3 0 2.41-.42 3.36-1.27l1.26 2.7a8.84 8.84 0 01-2.67 1.18c-.74.16-1.6.23-2.57.23-2.22 0-4-.65-5.32-1.95-1.32-1.3-1.98-3.14-1.98-5.51 0-2.33.7-4.2 2.12-5.6 1.42-1.43 3.37-2.14 5.85-2.14 1.72 0 3.2.49 4.46 1.46zM189.76 38h-3.34V26.05h-3.6c-.08 2.04-.31 3.94-.7 5.7a11.29 11.29 0 01-1.6 4.08 5.1 5.1 0 01-2.17 1.88c-.76.3-1.73.45-2.9.45v-3.02c.9 0 1.66-.3 2.26-.93.6-.63 1.11-1.85 1.53-3.67.42-1.84.63-3.92.63-6.27v-.91h9.89V38zM192.57 30.63a7.8 7.8 0 011.92-5.44 6.58 6.58 0 015.11-2.12c2.23 0 3.95.68 5.18 2.05 1.23 1.37 1.85 3.2 1.85 5.51 0 2.4-.64 4.27-1.93 5.62a6.69 6.69 0 01-5.1 2.02c-2.2 0-3.93-.68-5.17-2.06-1.24-1.39-1.86-3.25-1.86-5.58zm3.56 0c0 3.24 1.16 4.85 3.47 4.85 1.05 0 1.89-.4 2.52-1.23.63-.83.95-2.03.95-3.62 0-3.17-1.15-4.76-3.47-4.76-1.06 0-1.9.42-2.53 1.25-.63.83-.94 2-.94 3.51zM218.9 30.2c1.9.68 2.85 1.9 2.85 3.68a3.6 3.6 0 01-1.45 3.01c-.97.74-2.4 1.11-4.32 1.11h-6.55V23.38c2.75-.12 4.87-.19 6.39-.19 1.68 0 2.99.37 3.9 1.11.93.73 1.39 1.7 1.39 2.93 0 .62-.2 1.2-.59 1.75a3.5 3.5 0 01-1.63 1.21zm-6.16-1.13c.36.02 1.3.03 2.86.03 1.5 0 2.24-.57 2.24-1.7 0-.5-.19-.9-.56-1.19-.37-.3-.87-.45-1.52-.45-1.2 0-2.2.04-3.02.11v3.2zm0 6.26c1.19.05 2.18.07 3 .07 1.77 0 2.66-.64 2.66-1.94a1.6 1.6 0 00-.77-1.45 3.52 3.52 0 00-1.9-.48l-2.99.03v3.77zM232.25 30.63a7.8 7.8 0 011.91-5.44 6.58 6.58 0 015.12-2.12c2.22 0 3.95.68 5.18 2.05 1.23 1.37 1.84 3.2 1.84 5.51 0 2.4-.64 4.27-1.92 5.62a6.69 6.69 0 01-5.1 2.02c-2.2 0-3.93-.68-5.17-2.06-1.24-1.39-1.86-3.25-1.86-5.58zm3.56 0c0 3.24 1.15 4.85 3.47 4.85 1.05 0 1.88-.4 2.51-1.23.64-.83.96-2.03.96-3.62 0-3.17-1.16-4.76-3.47-4.76-1.06 0-1.9.42-2.53 1.25-.63.83-.94 2-.94 3.51zM269.1 24.53l-1.47 2.55a4.52 4.52 0 00-3.21-1.15 3.9 3.9 0 00-3.06 1.27c-.76.85-1.14 2.05-1.14 3.6 0 3.09 1.46 4.63 4.36 4.63 1.3 0 2.42-.42 3.37-1.27l1.25 2.7a8.85 8.85 0 01-2.66 1.18c-.74.16-1.6.23-2.57.23-2.23 0-4-.65-5.32-1.95-1.32-1.3-1.98-3.14-1.98-5.51 0-2.33.7-4.2 2.12-5.6 1.42-1.43 3.37-2.14 5.85-2.14 1.72 0 3.2.49 4.46 1.46zM285.16 31.72h-10.47a3.69 3.69 0 001.2 2.74c.76.65 1.75.97 3 .97 1.54 0 2.72-.41 3.55-1.24l1.31 2.63c-1.23.97-3.02 1.45-5.37 1.45-2.23 0-3.99-.64-5.3-1.92-1.3-1.29-1.95-3.13-1.95-5.51 0-2.33.72-4.2 2.15-5.62a7 7 0 015.13-2.15c2.1 0 3.79.63 5.08 1.9a6.47 6.47 0 011.94 4.85c0 .47-.09 1.1-.27 1.9zm-10.34-2.57H282c-.23-2.15-1.41-3.22-3.56-3.22-1.92 0-3.12 1.07-3.6 3.22zM290.26 26.75a7.23 7.23 0 012.32-2.07c.9-.49 1.8-.73 2.68-.73 2 0 3.6.62 4.76 1.85 1.18 1.24 1.77 2.91 1.77 5a7.8 7.8 0 01-1.86 5.37c-1.24 1.4-2.97 2.1-5.2 2.1a6.49 6.49 0 01-5.3-2.35c-1.28-1.57-1.92-3.7-1.92-6.41 0-1.75.16-3.29.47-4.6.3-1.34.78-2.46 1.43-3.37a7.48 7.48 0 012.49-2.22 12.7 12.7 0 013.83-1.3l4.74-.94.73 3.02c-3.67.7-5.82 1.11-6.46 1.25-.63.13-1.28.4-1.97.8-.68.37-1.23.93-1.65 1.66-.42.73-.7 1.7-.86 2.94zm4.62 8.79c1.12 0 1.99-.4 2.6-1.22a5.3 5.3 0 00.93-3.27 5.1 5.1 0 00-.95-3.29 3.12 3.12 0 00-2.58-1.16c-1.14 0-2.06.42-2.77 1.26a4.63 4.63 0 00-1.07 3.11c0 1.33.36 2.43 1.1 3.28a3.46 3.46 0 002.74 1.29zM317.67 31.72H307.2a3.7 3.7 0 001.2 2.74c.76.65 1.76.97 3 .97 1.54 0 2.72-.41 3.55-1.24l1.31 2.63c-1.23.97-3.02 1.45-5.37 1.45-2.22 0-3.99-.64-5.29-1.92-1.3-1.29-1.96-3.13-1.96-5.51 0-2.33.72-4.2 2.15-5.62a7 7 0 015.13-2.15c2.1 0 3.79.63 5.08 1.9a6.47 6.47 0 011.94 4.85c0 .47-.09 1.1-.27 1.9zm-10.33-2.57h7.16c-.23-2.15-1.41-3.22-3.56-3.22-1.92 0-3.12 1.07-3.6 3.22z" fill="#333"/><path d="M476.16 285l.86-4.85h-4.38l-.86 4.85h-1.4l1.77-10h1.4l-.7 4h4.37l.7-4h1.4l-1.77 10h-1.39zM481.04 281.53l-.01.4c0 .72.18 1.26.53 1.6.36.35.8.52 1.3.52.57 0 1.15-.2 1.75-.6l-.16 1.31c-.64.25-1.28.38-1.92.38-1.89 0-2.83-1.05-2.83-3.13 0-1.25.4-2.31 1.2-3.18.81-.86 1.82-1.3 3.02-1.3.7 0 1.26.16 1.69.47.44.31.66.76.66 1.35 0 .82-.34 1.45-1.01 1.9-.68.44-1.5.65-2.48.65a3.6 3.6 0 01-1.74-.37zm.22-.94c.4.17.83.25 1.3.25.76 0 1.36-.11 1.78-.35.42-.24.64-.56.64-.97 0-.26-.1-.47-.31-.64-.2-.17-.5-.25-.87-.25-.56 0-1.06.17-1.5.5-.44.34-.78.83-1.04 1.46zM486.86 282.31c0-.8.16-1.57.49-2.3.32-.75.8-1.34 1.42-1.8a3.59 3.59 0 012.15-.67c.88 0 1.56.23 2.03.71.48.48.71 1.17.71 2.06 0 1.3-.37 2.42-1.11 3.38a3.56 3.56 0 01-2.98 1.45c-.87 0-1.53-.25-2-.74-.47-.48-.7-1.18-.7-2.09zm1.36-.08c0 1.23.52 1.85 1.55 1.85.77 0 1.39-.38 1.84-1.14.46-.77.69-1.63.69-2.57 0-1.18-.52-1.77-1.56-1.77-.76 0-1.37.38-1.84 1.12a4.69 4.69 0 00-.68 2.5zM498.83 285l.78-4.28c.06-.34.09-.65.09-.93 0-.77-.4-1.16-1.2-1.16-.25 0-.5.06-.78.17-.27.11-.5.26-.73.43-.21.17-.32.28-.33.32l-.95 5.45h-1.31l.97-5.54a5.07 5.07 0 00-.1-1.67l1.25-.25c.12.64.19 1 .19 1.09a2.86 2.86 0 012.4-1.1c1.33 0 2 .68 2 2.04 0 .22-.03.45-.08.7l-.81 4.73h-1.39zM502.21 282.31c0-.8.17-1.57.49-2.3.32-.75.8-1.34 1.43-1.8a3.58 3.58 0 012.14-.67c.88 0 1.56.23 2.04.71.47.48.7 1.17.7 2.06 0 1.3-.37 2.42-1.1 3.38a3.55 3.55 0 01-2.98 1.45c-.87 0-1.54-.25-2.01-.74-.47-.48-.7-1.18-.7-2.09zm1.37-.08c0 1.23.51 1.85 1.55 1.85.77 0 1.38-.38 1.84-1.14.45-.77.68-1.63.68-2.57 0-1.18-.52-1.77-1.56-1.77-.76 0-1.37.38-1.83 1.12a4.68 4.68 0 00-.69 2.5zM510.53 277.94a7.8 7.8 0 012.53-.4c.65 0 1.19.15 1.62.47.43.32.64.75.64 1.28 0 .92-.56 1.55-1.67 1.88.85.26 1.28.78 1.28 1.55 0 .7-.3 1.29-.88 1.74-.58.45-1.38.68-2.41.68-.94 0-1.75-.2-2.44-.6l.69-1.24c.58.52 1.25.78 2 .78.51 0 .92-.13 1.22-.39.3-.25.46-.59.46-1 0-.69-.48-1.03-1.43-1.03-.32 0-.6.01-.84.04l.2-1.04.83.01c.51 0 .92-.11 1.2-.34.29-.23.43-.52.43-.87 0-.27-.1-.48-.3-.63a1.3 1.3 0 00-.82-.23c-.63 0-1.3.19-1.99.56l-.32-1.22zM523.3 277.68L522 285h-1.33l.59-3.3h-3.3l-.58 3.3h-1.33l1.29-7.32h1.33l-.52 2.94h3.29l.52-2.94h1.34zM530.81 278.14l-.89 4.24c-.06.27-.09.54-.09.79 0 .59.14 1.2.42 1.83h-1.33c-.17-.28-.29-.6-.35-.96-.3.36-.64.64-1.02.82-.38.19-.78.28-1.23.28-.67 0-1.22-.21-1.65-.63-.42-.41-.63-1.03-.63-1.85 0-1.37.4-2.56 1.2-3.6a3.73 3.73 0 013.05-1.54c1.13 0 1.96.2 2.52.62zm-1.44.76c-.14-.21-.55-.31-1.23-.31-.72 0-1.35.38-1.9 1.15a4.8 4.8 0 00-.83 2.88c0 .95.41 1.43 1.24 1.43a2 2 0 001.05-.3c.33-.2.55-.4.66-.6.12-.2.24-.58.35-1.13l.66-3.12zM538.75 277.68l-1.3 7.32h-1.33l.59-3.3h-3.3l-.58 3.3h-1.33l1.28-7.32h1.34l-.52 2.94h3.29l.52-2.94h1.34zM546.65 277.68l-1.3 7.32h-1.33l.6-3.3h-3.3l-.6 3.3h-1.32l1.29-7.32h1.33l-.52 2.94h3.29l.52-2.94h1.35zM549.4 280.6c.6-.2 1.17-.3 1.71-.3.76 0 1.36.2 1.79.6.43.39.65.93.65 1.6 0 .83-.3 1.48-.92 1.95-.61.46-1.44.69-2.48.69a7 7 0 01-1.51-.18 4.82 4.82 0 01-1.3-.47l1.32-6.81h1.32l-.58 2.91zm-.61 3.11c.07.1.26.2.56.27a4 4 0 00.95.11c.56 0 1.02-.13 1.4-.39.36-.26.55-.64.55-1.12 0-.81-.49-1.22-1.46-1.22-.49 0-1.02.09-1.6.26l-.4 2.1zm8.19-6.03l-1.29 7.32h-1.32l1.29-7.32h1.32zM560.23 277.68l-.87 4.8c-.02.07-.02.21-.02.42 0 .77.39 1.15 1.17 1.15.48 0 .95-.18 1.4-.55.46-.36.74-.82.84-1.38l.81-4.44h1.38l-1.35 7.32h-1.36l.18-1.04c-.5.79-1.38 1.18-2.64 1.18-.57 0-1.01-.17-1.34-.5a2 2 0 01-.48-1.44c0-.22.02-.43.05-.64l.87-4.88h1.36zm4.4-3.06c-.34 1.34-1.2 2-2.58 2a2.2 2.2 0 01-1.48-.47 1.63 1.63 0 01-.55-1.29c0-.12.02-.3.05-.52l1.15.1c-.03.16-.05.3-.05.4 0 .28.1.49.29.64.19.16.45.24.77.24.75 0 1.2-.47 1.34-1.4l1.06.3zM468.57 296.22l-.5 2.77h3.33l-.21 1.16h-3.31l-.64 3.62h4.53l-.2 1.23h-5.98l1.76-10h6.06l-.23 1.22h-4.61zM480.55 297.68l-1.3 7.32h-1.33l.59-3.3h-3.3l-.58 3.3h-1.33l1.28-7.32h1.34l-.52 2.94h3.29l.51-2.94h1.35zM481.27 302.31c0-.8.16-1.57.49-2.3.32-.75.8-1.34 1.42-1.8a3.58 3.58 0 012.15-.67c.88 0 1.56.23 2.03.71.47.48.71 1.17.71 2.06 0 1.3-.37 2.42-1.11 3.38a3.55 3.55 0 01-2.98 1.45c-.87 0-1.54-.25-2-.74-.48-.48-.71-1.18-.71-2.09zm1.36-.08c0 1.23.52 1.85 1.55 1.85.77 0 1.38-.38 1.84-1.14.46-.77.68-1.63.68-2.57 0-1.18-.51-1.77-1.55-1.77-.77 0-1.38.38-1.84 1.12a4.69 4.69 0 00-.68 2.5zM497.25 305l.62-3.53c.16-.9.24-1.44.24-1.64 0-.8-.4-1.2-1.2-1.2-.24 0-.48.06-.72.18-.24.11-.52.37-.87.77l-.96 5.42h-1.33l.93-5.2.01-.22c0-.63-.43-.95-1.3-.95-.31 0-.65.14-1.02.42-.36.28-.55.46-.56.54l-.96 5.41h-1.33l.95-5.33a4.91 4.91 0 00-.1-1.88l1.26-.24c.08.33.13.65.15.96.2-.31.5-.55.92-.72.41-.17.85-.25 1.3-.25 1.04 0 1.72.32 2.03.98.2-.29.52-.52.94-.7.42-.2.85-.28 1.27-.28 1.33 0 2 .63 2 1.9 0 .24-.03.45-.07.66l-.88 4.9h-1.32zM507.7 296.22l-.5 2.77h3.33l-.21 1.16H507l-.65 3.62h4.54l-.2 1.23h-5.98l1.76-10h6.06l-.24 1.22h-4.6zM519.68 297.68l-1.3 7.32h-1.33l.59-3.3h-3.3l-.59 3.3h-1.32l1.28-7.32h1.34l-.52 2.94h3.28l.52-2.94h1.35zM520.4 302.31c0-.8.16-1.57.48-2.3.33-.75.8-1.34 1.43-1.8a3.59 3.59 0 012.15-.67c.88 0 1.55.23 2.03.71.47.48.71 1.17.71 2.06 0 1.3-.37 2.42-1.11 3.38a3.56 3.56 0 01-2.98 1.45c-.87 0-1.54-.25-2-.74-.48-.48-.71-1.18-.71-2.09zm1.36-.08c0 1.23.52 1.85 1.55 1.85.77 0 1.38-.38 1.84-1.14.46-.77.68-1.63.68-2.57 0-1.18-.52-1.77-1.56-1.77-.76 0-1.37.38-1.83 1.12a4.69 4.69 0 00-.68 2.5zM536.37 305l.63-3.53c.16-.9.24-1.44.24-1.64 0-.8-.4-1.2-1.2-1.2-.24 0-.48.06-.72.18-.24.11-.53.37-.87.77l-.96 5.42h-1.33l.93-5.2.01-.22c0-.63-.43-.95-1.3-.95-.31 0-.65.14-1.02.42-.36.28-.55.46-.56.54l-.96 5.41h-1.33l.95-5.33a4.91 4.91 0 00-.1-1.88l1.26-.24c.08.33.13.65.15.96.2-.31.5-.55.91-.72.42-.17.86-.25 1.3-.25 1.05 0 1.73.32 2.04.98.2-.29.52-.52.94-.7.42-.2.85-.28 1.27-.28 1.33 0 2 .63 2 1.9 0 .24-.03.45-.07.66l-.88 4.9h-1.33zM539.74 302.31c0-.8.17-1.57.49-2.3.32-.75.8-1.34 1.43-1.8a3.59 3.59 0 012.14-.67c.88 0 1.56.23 2.04.71.47.48.7 1.17.7 2.06 0 1.3-.37 2.42-1.1 3.38a3.56 3.56 0 01-2.98 1.45c-.87 0-1.54-.25-2.01-.74-.47-.48-.7-1.18-.7-2.09zm1.36-.08c0 1.23.52 1.85 1.56 1.85.77 0 1.38-.38 1.84-1.14.45-.77.68-1.63.68-2.57 0-1.18-.52-1.77-1.56-1.77-.76 0-1.37.38-1.83 1.12a4.68 4.68 0 00-.69 2.5zM553.89 299.36c0 .45-.16.84-.48 1.19a2.4 2.4 0 01-1.3.7c.5.11.88.3 1.13.58.26.28.4.62.4 1 0 .65-.3 1.2-.9 1.65-.6.45-1.5.68-2.67.68a6.97 6.97 0 01-2.55-.5c-.17-.1-.26-.2-.26-.3 0-.06.12-.68.34-1.86.28-1.44.44-2.26.5-2.46.15-.46.33-.85.57-1.18a3.22 3.22 0 011.8-1.23c.34-.09.7-.14 1.08-.14.72 0 1.29.18 1.7.53.43.35.64.8.64 1.34zm-4.77 1.47h1.28c1.5 0 2.24-.45 2.24-1.36 0-.29-.1-.52-.3-.71-.2-.19-.5-.28-.9-.28-1.29 0-2.06.78-2.32 2.35zm-.52 2.93c.08.11.28.2.6.29.33.08.68.12 1.06.12.62 0 1.12-.11 1.5-.35.39-.23.58-.57.58-1a.95.95 0 00-.39-.79c-.26-.2-.66-.3-1.2-.3h-1.78l-.37 2.03zM557.4 297.68l-.87 4.8c-.02.07-.02.21-.02.42 0 .77.39 1.15 1.17 1.15.48 0 .95-.18 1.4-.55.46-.36.74-.82.84-1.38l.81-4.44h1.37l-1.34 7.32h-1.36l.18-1.04c-.5.79-1.38 1.18-2.64 1.18-.57 0-1.01-.17-1.34-.5a2 2 0 01-.48-1.44c0-.22.02-.43.05-.64l.87-4.88h1.36zM569.74 297.68l-1.3 7.32h-1.3l.53-2.94c-.64.2-1.25.3-1.84.3-.72 0-1.29-.18-1.72-.53-.42-.34-.63-.87-.63-1.57 0-.23.03-.49.08-.78l.34-1.8h1.33c-.22 1.2-.33 1.85-.34 1.95-.02.1-.02.22-.02.39 0 .83.43 1.24 1.3 1.24.6 0 1.17-.1 1.68-.28l.57-3.3h1.32z" fill="#A2A8B4"/><path fill-rule="evenodd" clip-rule="evenodd" d="M467.4 77.95c-13.83 2.77-25.65 7.58-33.53 14.83-7.85 7.23-12.47 18.15-14.55 30.91-2.07 12.76-1.6 27.25.67 41.5a171.81 171.81 0 0011.26 39.83c5 11.67 10.91 20.91 16.89 25.86 24.42 20.25 70.28 42.47 130.37 21.96 14.8-5.06 24.52-16.04 30.36-30.1 5.85-14.1 7.77-31.24 6.95-48.46a172.66 172.66 0 00-9.48-48.62c-5.1-14.25-11.66-25.27-18.36-30.3-6.79-5.09-17.81-9.66-31.1-13.18a226.12 226.12 0 00-44.35-6.83c-15.6-.87-31.33-.16-45.14 2.6zm121.18 16.62C560.81 73.75 465.5 62.32 433.2 92.05c-32.3 29.72-10.3 119.2 14.3 139.6 24.62 20.4 70.83 42.79 131.35 22.13 60.51-20.66 37.51-138.4 9.74-159.21z" fill="#C9CDD6"/><mask id="a" maskUnits="userSpaceOnUse" x="427" y="62" width="190" height="195"><path d="M450.92 84.53c31.54-39.21 94.95-19.26 136.56 0 41.6 19.25 37.06 103.67 0 142.34s-113.74 39.35-140.58 6.44c-26.84-32.9-27.51-109.57 4.02-148.78z" fill="#fff"/></mask><g mask="url(#a)"><path d="M522 295c66.83 0 121-54.17 121-121S588.83 53 522 53s-121 54.17-121 121 54.17 121 121 121z" fill="#E0E2E2"/><path d="M524.74 263.84c27 0 56.98-19.83 56.98-19.83 0-6.96 3.63-3.55 1.04-6.07-5.77-5.7-28.35-10.95-28.35-10.95l-8.36-14.73c-4.59 6.3-10.14 11.77-17.98 14.43a6.37 6.37 0 01-8 .67l-1.25-.89-.82-.07c-9.62-1.04-11.54-6.3-17.76-12.66l-13.17 13.54s-20.58 3.56-26.57 12c-13.5 15.72 37.67 24.56 64.24 24.56z" fill="#47519F"/><path d="M563.96 175.26c.15-3.26-4.07-3.26-5.7-3.92-2.36-.97-2.88-4-2.88-4 .3-5.77-4-8.73-4-16.72 0-4.3 3.55-9.63 1.4-13.33l-4.73-7.32c-3.4 4.07-5.77 14.2-20.28 17.61-10.73 2.52-21.09 1.78-27.53-7.1l9.1-1.41-9.4-3.85c-5.7 1.56-9.76 2.89-10.28 10.58-.3 4.15 1.33 10.3.81 14.66-.44 4.07-2 5.77-3.62 6.51-3.33 1.55-5.92 4.44-6.66 8.07l-.15.59 1.4 1.4c2.82 4.3 2.52 9.4-1.33 9.92 0 0-1.55 1.26-5.92-.44-3.4-1.33-7.55-8.8-5.25-14.66-7.7-3.84-12.21-13.98-8.51-21.75 3.55-7.63.74-16.8 12.36-25.16l4.73-9.33a15.56 15.56 0 018.22-5.1l9.1-2.15c7.03-8.14 17.17-12.66 27.98-13.25 15.54-.89 20.94 10 20.94 10a6.26 6.26 0 004 4.06c5.25 1.85 3.7 2.96 5.17 10.07l5.78 2.96c11.4 4.58 10.21 15.39 10.95 24.05.67 8.06 6.44 13.47 6.59 14.06 3.1 12.43-5.48 10.43-5.85 16.65-.81 14.28-6.59 16.06-13.17 15.99l-2.52-1.04c0 .15 8.36 4.66 9.25-16.65z" fill="#EB5C2C"/><path d="M502.76 218.92l-3.55 15.91a7.8 7.8 0 002.8 7.03l6.23 5.33 8.28 7.1c4.52 3.85 11.92 3.34 15.62-1.18l9.7-11.76a11.35 11.35 0 002.66-8.07l-2.52-14.36-23.31-4.8-15.91 4.8z" fill="#fff"/><path d="M555.08 192.2c-.22-.07-.37-.14-.37-.14l.37.15c1.63.59 8.14 1.7 8.88-16.88.15-3.25-4.07-3.25-5.7-3.92-2.37-.96-2.88-4-2.88-4 .3-5.77-4-8.73-4-16.72 0-4.3 3.55-9.62 1.4-13.32l-4.73-7.4c-3.4 4.07-5.77 14.2-20.28 17.61-10.73 2.52-21.09 1.78-27.53-7.1l9.1-1.41-9.4-3.85c-5.7 1.56-9.76 2.89-10.28 10.58-.3 4.15 1.33 10.3.81 14.66-.44 4.07-2 5.77-3.62 6.51-3.33 1.55-5.92 4.44-6.66 8.07l-.15.59 1.4 1.4c2.82 4.3 2.52 9.4-1.33 9.92 0 0-.15.15-.44.22a44.48 44.48 0 005.25 3.63s1.19 1.55 3.11.52l3.18-.08c.82 2.45 2 5.18 3.56 9.92 2.59 7.84 8.8 14.58 14.06 19.02 3.7 3.1 5.92 5.18 10.73 5.7 0 0 5.92 4.07 9.7.37 5.1-1.48 7.25-3.7 9.84-6.3 4.36-4.36 6.95-9.76 9.54-14.64.15-.3 1.4-2.15 2.22-4.3a47.46 47.46 0 002.6-10.5h.51c.6 3.18 5.25 3.7 8.29 2.07a17.9 17.9 0 01-4.96.51l-2.22-.88z" fill="#fff"/><path d="M522.96 216.63s-1.03 1.18.45 3.62zM490.4 190.58c-8.29 1.7-10.06-3.93-10.06-3.93z" fill="#fff"/><path d="M513.57 189.1c.14.74.59 1.4 1.33 1.77 1.18.67 2.81.52 3.7.3a7.09 7.09 0 006.73-.07l.9.14a4.6 4.6 0 004.58-2.37c.67-1.4.44-2.88-.67-4-.59-.58-1.55-.51-2.07.08-.59.6-.52 1.56.08 2.07.14.15.22.3.07.52-.22.52-.96.9-1.4.82l-1.41-.23c-.37-.07-.74 0-1.04.23a4.29 4.29 0 01-4.59 0 1.5 1.5 0 00-1.25-.15c-.67.22-1.63.3-1.93.15-.6-2.67.44-3.26.52-3.26h-.08l-.96-2.81c-.37.07-3.77 1.33-2.51 6.8zM535.18 201.97a1.5 1.5 0 00-.74-1.48l-4.3-2.29a5.9 5.9 0 00-7.32-.22.63.63 0 01-.52 0c-2.6-1.56-5.33-1.11-7.4 1.18l-3.92 1.93h-.08c-.22.14-.44.3-.59.51 0 0 0 .08-.07.08 0 0 0 .07-.08.07 0 .08-.07.15-.07.22v.52c0 .15.07.22.07.37v.08c.08.07.08.22.15.3 0 0 0 .07.07.07.08.07.15.14.3.22h.07c.08 0 .08.07.15.07.82.37 1.4 1.11 2.15 2.07 1.63 2.15 3.92 5.04 10.06 5.04 5.7 0 7.63-2.96 9.03-5.18.67-1.04 1.26-1.93 2-2.22.74-.08 1.11-.67 1.04-1.34zm-18.73-.3c.15-.07.37-.21.45-.36 1.18-1.4 2.37-1.63 3.85-.82 1.18.67 2.66.6 3.77-.14a2.84 2.84 0 013.77.22c.08.07.15.15.23.15l1.03.59a43.98 43.98 0 01-13.54.59l.44-.22zm6.74 6.3c-4.07 0-5.7-1.4-7.1-3.11 1.62.15 3.25.3 4.95.3 2.89 0 5.77-.3 8.59-.82-1.26 1.93-2.45 3.63-6.44 3.63zM524.15 217.52c.44-.6.37-1.49-.15-2-.6-.52-1.56-.52-2.07.07-.15.22-1.7 2.07.3 5.4.29.45.73.74 1.25.74.3 0 .52-.07.74-.22.67-.44.96-1.33.52-2-.82-1.25-.6-1.85-.6-2zM548.72 166c.67-.44.81-1.4.37-2.06-6-8.66-20.5-3.93-21.17-3.78-.74.3-1.18 1.11-.96 1.85.22.74 1.11 1.18 1.85.96.15-.07 13.03-4.29 17.76 2.6.3.44.74.66 1.26.66.37.07.67-.07.89-.22zM531.03 168.52l-.15-.44a1.37 1.37 0 00-1.7-.74c-.67.3-.96 1.03-.74 1.7l.66 1.7c.15.3.37.6.74.74.37.15.67.15 1.04 0 1.4-.59 2.66-.96 3.77-1.25-.07.3-.07.59 0 .96a2.54 2.54 0 002.82 2.14 2.52 2.52 0 002.07-2.88c0-.15-.07-.3-.07-.45 2.95.45 4.21 2 4.36 2.07.22.3.67.52 1.04.52.3 0 .59-.07.81-.3.6-.44.67-1.25.22-1.84-.37-.3-4.8-5.7-14.87-1.93zM513.79 171.34c.3.14.66.14 1.03 0 .37-.15.6-.37.74-.74l.67-1.7c.3-.67-.08-1.41-.74-1.7-.67-.3-1.4.06-1.7.73l-.15.44c-10.07-3.77-14.5 1.63-14.65 1.86-.45.59-.38 1.33.22 1.77.22.22.52.3.81.3.37 0 .74-.15 1.04-.45.07-.07 1.4-1.62 4.36-2.07-.07.15-.07.3-.07.45a2.52 2.52 0 002.07 2.88c1.33.22 2.6-.74 2.81-2.14.08-.3 0-.67 0-.97.9.37 2.15.74 3.56 1.34zM513.93 162.75c.82.3 1.63-.15 1.85-.96.3-.74-.14-1.63-.96-1.85-.59-.22-14.36-4.74-21.16 3.85a1.5 1.5 0 00.22 2.07c.3.22.6.3.89.3.44 0 .88-.23 1.18-.6 5.63-6.8 17.84-2.8 17.98-2.8zM495.36 169.12a1.3 1.3 0 00-.81-1.63 1.3 1.3 0 00-1.63.81c-.08.3-.9 2.96.07 5.1.22.53.67.75 1.19.75.14 0 .37 0 .51-.15.67-.3.97-1.04.67-1.7-.52-.96-.15-2.67 0-3.18zM549.76 168.3a1.3 1.3 0 00-1.63-.81 1.3 1.3 0 00-.81 1.63c.14.59.51 2.22.07 3.25-.3.67 0 1.4.66 1.7.15.08.38.15.52.15.52 0 .96-.3 1.19-.74.96-2.22.14-4.88 0-5.18z" fill="#000"/><path d="M559.38 173.04c-1.04-3.04.51 7.1 0 8.8z" fill="#EB5C2C"/><path d="M558.86 180.8c-.15 0-.3 0-.45-.07-.81-.22-1.26-.88-.96-1.62.15-.52-.07-3.11-.22-4.52-.3-3.4-.37-4.22 1.03-4.51.9-.15 1.56.3 2 1.33.15.44.08.89-.22 1.26.07.52.07 1.18.15 1.7.3 2.81.44 4.59.15 5.48-.23.59-.82.96-1.48.96z" fill="#000"/><path d="M476.34 159.35c.44.74 1.18 4.73-1.78 11.32zM535.03 104.95s4.44 3.55 9.62 2.81z" fill="#EB5C2C"/><path d="M543.16 109.4c-4.95 0-8.95-3.12-9.1-3.26a1.44 1.44 0 01-.22-2.08c.52-.66 1.4-.73 2.07-.22.08 0 4.07 3.19 8.51 2.52.82-.15 1.56.44 1.7 1.26.15.81-.44 1.55-1.25 1.7-.6.07-1.11.07-1.7.07zM495.28 124.2c.67.44 1.56.3 2.08-.38.44-.66.3-1.62-.38-2.07-.14-.07-2.96-2.07-7.03-1.03-4.14 1.03-7.91 4.73-11.17 11.1-.96 1.92-1.7 4.88-2.37 9.47-.07.81.44 1.55 1.26 1.63h.22a1.5 1.5 0 001.48-1.26c.37-2.66.96-6.44 2-8.51 2.81-5.4 6-8.73 9.18-9.55a5.8 5.8 0 014.73.6zM524.14 138.25c1.63 0 3.34-.22 5.19-.59a1.5 1.5 0 001.1-1.77 1.5 1.5 0 00-1.77-1.11c-6.3 1.48-11.84 0-16.65-4.52-3.63-3.4-5.48-7.4-5.48-7.4a1.4 1.4 0 00-1.92-.74 1.4 1.4 0 00-.74 1.93c.07.14 6.44 14.2 20.27 14.2zM519.78 127.23a28 28 0 009.1 1.4c5.62 0 11.84-1.4 16.58-4.51.66-.44.88-1.33.44-2.07a1.52 1.52 0 00-2.07-.45c-6.8 4.45-17.24 4.89-23.02 2.82-6.58-2.45-12.06-8.14-12.13-8.22a1.5 1.5 0 00-2.08-.07c-.59.59-.59 1.48-.07 2.07.22.3 6 6.36 13.25 9.03zM563.37 160.97c-.15.82.44 1.56 1.25 1.7h.23a1.5 1.5 0 001.48-1.25c.44-2.74-.82-4.81-2.08-6.8-1.77-2.9-3.7-6.08-2-12.81.23-.82-.3-1.63-1.03-1.78-.82-.22-1.63.3-1.78 1.04-2.07 7.92.45 12.06 2.3 15.1 1.1 1.84 1.92 3.18 1.63 4.8zM475.52 158.01c-.74.45-.96 1.34-.52 2 .3.6.82 4.15-1.77 10-.37.73 0 1.62.74 1.92.22.07.37.15.59.15.6 0 1.1-.3 1.33-.9 3.18-7.17 2.3-11.54 1.7-12.65a1.62 1.62 0 00-2.07-.52z" fill="#000"/><path fill-rule="evenodd" clip-rule="evenodd" d="M585.8 241.97a70.55 70.55 0 00-3.76-6.85l-.17.16c-6.76-4.63-21.75-8.44-25.97-9.51l-.45-.11s-6.51-11.25-8.5-14.21a165.48 165.48 0 012.47-4.6c.17-.29.33-.58.48-.88 0-.07.08-.15.15-.22l.13-.22c.5-.81 1.4-2.32 2.02-4.07a53.7 53.7 0 002.22-8c.03 0 .07.02.1.04.04.02.08.04.12.04l2.07.89c.15.07.37.14.52.14h.52c6.88 0 13.32-2.3 14.13-17.39.08-1.77 1.04-2.66 2.44-3.85 2.45-2.14 5.48-4.8 3.33-13.32-.06-.37-.28-.64-.7-1.15l-.26-.33c-1.55-1.92-5.1-6.36-5.62-12.43-.08-1.11-.15-2.3-.22-3.55v-.07c-.45-7.76-1-17.34-11.62-21.7l-5.11-2.58c-.3-1.48-.44-2.6-.52-3.63-.44-3.7-.81-5.25-5.47-6.88a4.87 4.87 0 01-3.08-3.22c-.01-.04-.03-.07-.03-.11-.23-.44-6.07-11.7-22.35-10.8-11.47.66-21.61 5.4-28.64 13.39l-8.66 2.3a16.99 16.99 0 00-9.03 5.55c-.07.07-.15.14-.15.3l-4.59 9.02c-8.14 6-9.4 12.5-10.5 18.28l-.1.5c-.48 2.4-.94 4.68-1.9 6.75-3.7 7.85.07 18.35 8.14 23.1-.67 2.8-.37 5.99 1.03 9.1 1.34 3.03 3.48 5.4 5.48 6.21 3.1 1.19 5.03 1.11 6.14.74 1.26 1.78 3.7 3.63 7.7 3.63.74 0 1.48-.08 2.37-.22.3.88.66 1.92 1.1 2.95l.36.93c.59 1.57 1.28 3.38 2.01 5.66a35.91 35.91 0 006.07 10.96s-.07 0-.07.07l-.74.74-12.14 12.43c-2.81.52-16.94 3.4-24.35 9.62-5.2 5.1-6.22 9.93-6.7 10.93 16.63 15.74 41.74 20.97 66.43 20.97 24.73 0 47.22-9.7 63.86-25.5zM459 245.5c3.26 2.96 2.95 2.36 6.65 4.8 1.26.74 11.48 2.3 13.03 2.96-1.68-5.76 2.77-16.2 5.87-21.54.52-.88 1.12-1.85 1.7-2.73-3.84.74-23.75 4.01-27.25 16.51zm40.87 11.68a4.3 4.3 0 01.9-1.85l1.1-1.4a11.87 11.87 0 00-13.91-3.63c-.14.1-.3.2-.44.32-.41.3-4.52 2.38-6.02 5.38 4.3 1.92 13 2 18.15 1.1.04 0 .08.03.11.04.04.02.08.04.11.04zm44.48-5.18a5.81 5.81 0 01.74 4.81c1.43-.4 2.86-.85 4.3-1.31l2.14-.69c-.3-.22-.52-.44-.74-.66l-2.59-2.81a6.94 6.94 0 00-4.96-2.3h-.07c-.2-.05-.37-.03-.53-.01l-.21.01 1.92 2.96zm13.62 0a2.8 2.8 0 00.74-2c-.67-9.25-2.3-19.6-13.77-34.85l-.37.54c-.53.76-1.03 1.5-1.63 2.27.3.22.52.6.6.96l2.51 14.36v.15c.23 3.25-.88 6.5-3.03 9.1l-9.7 11.77a12.23 12.23 0 01-8.36 4.21c-.44.08-.81.08-1.18.08-3.04 0-6-1.04-8.22-2.96l-14.5-12.44a9.47 9.47 0 01-3.26-8.36v-.15l3.55-15.9c.15-.53.6-1.63 1.11-2.38-.18-.22-.38-.44-.59-.66l-.59-.67-.15.14c-.17.15-.4.35-.66.68v.3l-.15-.16c-2.52 2.6-8.8 9.63-13.32 17.32-.8 1.38-7.98 14.15-5 16.65.51.43 3.44-1.73 4.55-2.29a14.7 14.7 0 0118.36 5.55c.37.52.3 1.18-.08 1.7l-1.77 2.22c-.23.22-.3.45-.37.74a85.91 85.91 0 0037.81.08 3.22 3.22 0 001.7-1.85 2.9 2.9 0 00-.3-2.6l-2.5-3.84a1.24 1.24 0 01-.08-.19l-.08-.18a2.27 2.27 0 01.3-2.07c.67-.82 1.93-1.26 3.7-1.26h.08c2.59 0 5.18 1.18 7.03 3.18l2.59 2.81a3.5 3.5 0 002.51 1.11c.89-.37 1.7-.74 2.52-1.1zm-67.43-83.15c.47.87.91 1.68 1.04 2.56.3 1.62.24 4.53.2 6.41-.01 1.05-.03 1.78.03 1.8-.6 7.4.14 9.48 2.07 14.5.67 1.71 1.48 3.86 2.37 6.67 2.59 7.84 8.8 14.28 13.62 18.35l.51.45c3.4 2.88 5.26 4.44 9.4 4.88.22 0 .45.08.67.22l.13.08c.8.47 5.08 3 7.71.44.15-.15.37-.3.6-.37 4.58-1.33 6.5-3.25 8.95-5.7l.22-.22c3.62-3.62 5.99-8.12 8.28-12.48l.01-.03c.15-.3.31-.59.48-.88l.48-.9a20.39 20.39 0 002.15-4.07 48.54 48.54 0 002.96-19.75 43.44 43.44 0 00-1.11-7.48c-.08 0-.08-.07-.08-.15-.59-3.03.9-6.66 2.22-9.62-.2-.63-.46-1.27-.72-1.94l-.31-.8-.04-.1c-1.1-2.63-2.33-5.58-2.33-10.03 0-1.75.53-3.63 1.02-5.4l.09-.3c.81-2.67 1.48-5.18.52-6.88l-3.63-5.55-.89 1.55c-2.8 4.81-7.1 12.06-19.02 14.88-13.24 3.18-23.09.59-29.08-7.63-.3-.44-.3-1.03-.15-1.48.15-.44.6-.81 1.11-.88l3.78-.6-4-1.63c-5.4 1.56-8.29 2.82-8.73 9.1-.08 1.78.14 4.08.44 6.45l.08.72c.28 2.6.56 5.26.3 7.56-.3 2.74-1.12 4.74-2.38 6.15.16.47.4.91.63 1.34a20.46 20.46 0 01.4.76zm-8.13 7.22l.22.22c2.07 3.19 2.74 6.81 1.55 9.4-.37.82-.88 1.4-1.55 1.93.96 1.03 2.81 2.14 6.37 1.7-.6-2.52-.75-5.26-.38-9.92.15-1.63.3-5.77 0-7.4a8.44 8.44 0 00-.88-1.92c-.15-.26-.28-.52-.41-.78l-.4-.78a9.91 9.91 0 00-5.41 6.66l.89.9zm6.23-22.6l-.09-.78-.03-.24c-.28-2.43-.56-4.8-.56-6.94.66-8.84 5.8-10.27 11.31-11.82l.09-.02c.3-.08.66-.08.96.07l9.4 3.85c.59.3.96.89.88 1.55-.07.67-.59 1.19-1.25 1.26l-6.52.96c5.4 5.7 13.4 7.18 24.43 4.6 10.62-2.5 14.35-8.76 17.08-13.34l.08-.14c.82-1.4 1.56-2.66 2.37-3.62.3-.37.82-.52 1.26-.52.52 0 .96.3 1.19.66l4.8 7.48c1.69 2.85.77 6.06-.1 9.14l-.04.1c-.52 1.78-.96 3.41-.96 4.9 0 3.75 1.01 6.22 2.01 8.63l.13.32c1.04 2.37 2 4.66 1.85 7.62.08.44.6 2.15 1.93 2.74.22.07.74.22 1.18.3h.04c1.93.45 5.51 1.28 5.36 5.03-.3 7.62-1.63 12.95-3.92 15.9 3.92-.88 6.88-4.06 7.48-14.2.14-2.96 1.85-4.52 3.4-5.85 2.15-1.85 4.07-3.55 2.52-10.14a3.14 3.14 0 01-.23-.25c-.07-.1-.14-.19-.22-.26l-.02-.03c-1.57-1.94-5.68-7.03-6.27-13.96a947.12 947.12 0 01-.22-3.63v-.04c-.45-7.61-.9-15.5-9.84-19.13-.08-.07-.15-.07-.15-.07l-5.77-2.96c-.45-.22-.74-.6-.82-1.03-.37-1.86-.59-3.33-.74-4.52-.37-3.18-.44-3.33-3.48-4.44a7.81 7.81 0 01-4.88-4.88c-.6-1.04-5.7-9.85-19.54-9.1-10.88.59-20.42 5.1-26.94 12.72-.22.22-.51.37-.81.45l-9.1 2.14c-2.82.74-5.4 2.3-7.33 4.52l-4.66 9.17a1 1 0 01-.45.52c-7.47 5.4-8.58 11.1-9.62 16.65l-.06.32c-.5 2.5-1.02 5.12-2.16 7.6-3.18 6.74.6 16.2 7.85 19.84.74.37 1.03 1.1.74 1.84-.9 2.3-.67 5.26.59 8.07 1.1 2.67 2.81 4.3 3.85 4.66 2.74 1.11 4.29.97 6.14 0 .3-.14.52-.44.67-.81.66-1.55.14-4.14-1.26-6.36l-1.33-1.34c-.3-.37-.45-.81-.37-1.33l.14-.59c.82-4 3.56-7.33 7.48-9.1 1.03-.45 2.37-1.48 2.81-5.33.27-2 0-4.43-.28-6.84zm65.4 19.12a41.82 41.82 0 011.26 8c.23 3.33.08 6.66-.37 9.99.15 0 .23 0 .37.07l.45.15c.37.15 1.33.37 2.3-.22 1.47-.9 4.06-4 4.5-15.32 0-1.04-.66-1.4-3.1-2a5.75 5.75 0 01-1.7-.44c-1.85-.75-2.82-2.45-3.33-3.63-.37 1.26-.6 2.44-.37 3.4zm-10.95 60.84l-2.3-13.18c-.06.1-.13.18-.2.26-.14.18-.28.35-.38.56l-.23.22c-2.51 2.52-4.8 4.81-9.91 6.36a7 7 0 01-4.66 1.7 12.5 12.5 0 01-6.37-2c-4.8-.58-7.25-2.65-10.65-5.54l-.52-.45a59.16 59.16 0 01-3.33-3.03l-.23.66a8 8 0 01-.07.23l-3.55 15.84a6.14 6.14 0 002.3 5.62l14.5 12.43a9.85 9.85 0 007.18 2.22 9.3 9.3 0 006.36-3.18l9.7-11.77a10.2 10.2 0 002.36-6.95zm13.84-4.3c3.11 7.03 4.22 13.47 4.74 20.43v.6a86.39 86.39 0 0018.06-12.74c-5.4-3.4-16.36-6.66-22.8-8.29z" fill="#000"/></g><path opacity=".55" d="M438.93 100.95c31.54-38.64 111.06-49.25 138.14-28.6 27.08 20.67 53.8 123.3 16.73 161.4-37.06 38.11-128.02 36.02-154.87 3.59-26.84-32.44-31.54-97.75 0-136.4z" fill="url(#paint0_linear)"/><path d="M429.8 19.46c2.58.21 4.58 1.05 6.01 2.52 1.44 1.46 2.16 3.4 2.16 5.8 0 2.34-.73 4.3-2.2 5.89-1.46 1.56-3.45 2.44-5.97 2.62v2.16h-3.45V36.3c-2.58-.2-4.6-1.05-6.04-2.51-1.44-1.48-2.16-3.42-2.16-5.83 0-2.34.73-4.3 2.2-5.85 1.47-1.57 3.47-2.45 6-2.64v-2.15h3.45v2.15zm-.06 14.2c1.6-.19 2.81-.78 3.65-1.78a6.12 6.12 0 001.27-4.07c0-1.6-.42-2.89-1.28-3.9a5.46 5.46 0 00-3.64-1.81v11.57zm-3.33 0V22.1c-1.6.18-2.83.77-3.68 1.78a6.06 6.06 0 00-1.27 4.04c0 1.59.43 2.9 1.3 3.91a5.57 5.57 0 003.65 1.84zM440.08 30.63a7.8 7.8 0 011.91-5.44 6.58 6.58 0 015.12-2.12c2.22 0 3.95.68 5.18 2.05 1.23 1.37 1.84 3.2 1.84 5.51 0 2.4-.64 4.27-1.93 5.62a6.69 6.69 0 01-5.1 2.02c-2.2 0-3.92-.68-5.16-2.06-1.24-1.39-1.86-3.25-1.86-5.58zm3.55 0c0 3.24 1.16 4.85 3.48 4.85 1.04 0 1.88-.4 2.51-1.23.64-.83.96-2.03.96-3.62 0-3.17-1.16-4.76-3.47-4.76-1.06 0-1.9.42-2.53 1.25-.63.83-.95 2-.95 3.51zM463.63 26.24V38h-3.44V26.24h-4.2v-2.88h11.84v2.88h-4.2zM469.7 30.63a7.8 7.8 0 011.9-5.44 6.58 6.58 0 015.12-2.12c2.22 0 3.95.68 5.18 2.05 1.23 1.37 1.85 3.2 1.85 5.51 0 2.4-.65 4.27-1.93 5.62a6.69 6.69 0 01-5.1 2.02c-2.2 0-3.93-.68-5.17-2.06-1.24-1.39-1.86-3.25-1.86-5.58zm3.55 0c0 3.24 1.15 4.85 3.47 4.85 1.05 0 1.88-.4 2.51-1.23.64-.83.96-2.03.96-3.62 0-3.17-1.16-4.76-3.47-4.76-1.06 0-1.9.42-2.53 1.25-.63.83-.94 2-.94 3.51zM496.72 26.24H490V38h-3.44V23.36h10.17v2.88zM502.9 37.63v6.11h-3.42V23.36h3.42v.98a4.35 4.35 0 013.16-1.27c4.67 0 7 2.58 7 7.74 0 2.37-.64 4.2-1.93 5.5-1.28 1.31-3.05 1.96-5.29 1.96a6.89 6.89 0 01-2.94-.64zm0-10.7v7.7c.62.52 1.35.77 2.19.77 1.54 0 2.66-.38 3.36-1.13.7-.76 1.05-1.95 1.05-3.58 0-1.65-.33-2.85-1-3.59-.65-.74-1.79-1.12-3.41-1.12-.82 0-1.55.32-2.19.96zM524.04 36.55c-.31.5-.87.92-1.67 1.24-.8.32-1.6.48-2.37.48-1.6 0-2.84-.4-3.73-1.19a4.25 4.25 0 01-1.32-3.33c0-1.62.6-2.92 1.83-3.93 1.22-1 3.04-1.51 5.47-1.51.39 0 .87.07 1.43.23 0-1.74-1.08-2.61-3.25-2.61-1.28 0-2.36.21-3.26.64l-.72-2.62a9.24 9.24 0 014.2-.88c2.26 0 3.9.52 4.92 1.57 1.03 1.04 1.54 2.96 1.54 5.74v3.14c0 1.95.4 3.17 1.18 3.67-.26.48-.56.77-.89.9-.33.12-.74.18-1.23.18-.48 0-.92-.17-1.31-.52a2.9 2.9 0 01-.82-1.2zm-.33-5.44c-.6-.11-1.04-.16-1.33-.16-2.69 0-4.03.87-4.03 2.62 0 1.33.76 2 2.27 2 2.06 0 3.09-1.03 3.09-3.08v-1.38zM541.8 23.66a5 5 0 012.32-.59c1.95 0 3.45.67 4.49 2.02 1.03 1.35 1.55 3.2 1.55 5.57 0 2.44-.54 4.32-1.64 5.64a5.15 5.15 0 01-4.15 1.97c-.92 0-1.78-.16-2.57-.49v5.96h-3.28v-6.01c-.87.36-1.75.54-2.66.54-1.78 0-3.2-.65-4.22-1.97-1.03-1.32-1.55-3.16-1.55-5.52 0-2.4.55-4.3 1.66-5.66a5.36 5.36 0 014.39-2.05c.8 0 1.6.19 2.38.56V17.9l3.28-.82v6.58zm-.03 11.62c.65.2 1.24.31 1.8.31 2.2 0 3.3-1.69 3.3-5.07 0-1.57-.27-2.76-.8-3.58a2.62 2.62 0 00-2.35-1.23c-.59 0-1.24.12-1.95.37v9.2zm-3.23-.03v-9.14a5.48 5.48 0 00-1.98-.4c-2.1 0-3.16 1.6-3.16 4.81 0 3.38 1.1 5.07 3.3 5.07.58 0 1.2-.11 1.84-.34zM566.27 38h-3.42v-8.85l-8.79 9.2h-.93v-15h3.42v8.85l8.79-9.18h.93V38zM581.97 38h-3.37v-5.55h-.9c-2.56 0-4 1.1-4.3 3.3-.23 1.61-1.19 2.41-2.9 2.41-.48 0-.94-.02-1.39-.08v-2.8c.11.04.3.05.6.05.4 0 .66-.26.77-.8.16-.79.52-1.46 1.07-2.03a4.25 4.25 0 012.03-1.16c-2.37-.44-3.55-1.7-3.55-3.81 0-1.24.46-2.27 1.38-3.1.92-.82 2.43-1.24 4.53-1.24 1.23 0 3.24.08 6.02.22V38zm-3.37-8.1v-4.03c-.73-.07-1.62-.1-2.66-.1-.84 0-1.46.18-1.85.55-.4.37-.59.84-.59 1.43 0 .62.26 1.13.78 1.53.53.39 1.25.59 2.16.6l2.16.03z" fill="#333"/><path d="M407 0h220v400H407V0z" fill="#6653D9" fill-opacity=".15"/><path fill-rule="evenodd" clip-rule="evenodd" d="M406-1h222v402H406V-1zm1 1v400h220V0H407z" fill="#6653D9"/><path d="M77 0h290v400H77V0z" fill="#6653D9" fill-opacity=".15"/><path fill-rule="evenodd" clip-rule="evenodd" d="M76-1h292v402H76V-1zm1 1v400h290V0H77z" fill="#6653D9"/></g><defs><linearGradient id="paint0_linear" x1="514.5" y1="62" x2="514.5" y2="262" gradientUnits="userSpaceOnUse"><stop stop-color="#F90"/><stop offset="1" stop-color="#FF6B00"/></linearGradient><clipPath id="clip0"><path fill="#fff" d="M0 0h705v400H0z"/></clipPath></defs></svg>