<svg width="705" height="66" viewBox="0 0 705 66" fill="none" xmlns="http://www.w3.org/2000/svg"><g clip-path="url(#clip0)"><path fill="#fff" d="M0 0h705v66H0z"/><path d="M0 0h705v66H0V0z" fill="#D19FC2"/><path d="M232.37 27.97a7.1 7.1 0 01-2.16 5.21 7.06 7.06 0 01-5.2 2.17 7.06 7.06 0 01-5.19-2.17 7.1 7.1 0 01-2.15-5.21 7.1 7.1 0 012.15-5.21 7.06 7.06 0 015.2-2.17c2.02 0 3.75.72 5.19 2.17a7.1 7.1 0 012.16 5.21zm-.83 0c0-1.82-.63-3.38-1.9-4.69a6.22 6.22 0 00-4.63-1.95c-1.81 0-3.36.65-4.63 1.95a6.5 6.5 0 00-1.89 4.69 6.5 6.5 0 001.9 4.69A6.22 6.22 0 00225 34.6c1.82 0 3.36-.65 4.63-1.95a6.48 6.48 0 001.9-4.69zm-3.11 1.65c-.12.3-.27.59-.47.89a3.33 3.33 0 01-1.58 1.35c-.33.14-.73.21-1.22.21-.59 0-1.14-.09-1.64-.27a3.63 3.63 0 01-2.14-2.08 4.53 4.53 0 01.03-3.3 4.06 4.06 0 012.26-2.22 4.63 4.63 0 011.73-.32c.32 0 .66.05 1.02.16s.63.24.8.37l.38-.55h.49l.04 3.03h-.45a9.32 9.32 0 00-.35-.9 2.87 2.87 0 00-.49-.77 2.16 2.16 0 00-1.76-.73c-.67 0-1.21.3-1.64.93a4.48 4.48 0 00-.63 2.55c0 1.02.26 1.83.77 2.42.51.6 1.15.89 1.92.89.56 0 1.04-.15 1.43-.44.4-.3.73-.78 1.02-1.42l.48.2zM245.86 26.38c0 .62-.15 1.13-.45 1.56-.3.41-.7.77-1.22 1.07-.39.22-.84.42-1.35.59l-1.69.53c-.53.15-1.04.35-1.53.58a4 4 0 00-1.2.84h6.62L244.7 33h-7.79l.28-1.14a5.95 5.95 0 011.42-1.27 10.92 10.92 0 012.03-1c.52-.2.97-.39 1.35-.58.39-.19.71-.39.98-.59.4-.3.69-.63.85-.98.18-.35.26-.77.26-1.24 0-.55-.15-.99-.45-1.3-.3-.33-.68-.49-1.16-.49-.46 0-.85.08-1.17.24-.32.16-.55.34-.67.52a6.22 6.22 0 00.02.73c0 .5-.1.88-.29 1.13-.2.24-.5.36-.93.36-.3 0-.52-.07-.64-.2a.82.82 0 01-.17-.53c0-.33.1-.66.3-1 .2-.34.49-.65.86-.94a4.88 4.88 0 012.93-.95c.94 0 1.7.23 2.28.7.58.47.87 1.1.87 1.91zM256.44 27.18a6.3 6.3 0 01-3.38 5.6c-.66.32-1.42.49-2.27.49-1.1 0-1.98-.32-2.6-.96a3.3 3.3 0 01-.94-2.41 6.42 6.42 0 011.64-4.33c.5-.55 1.1-1 1.8-1.32a5.2 5.2 0 012.2-.48c1.15 0 2.02.33 2.63 1 .61.65.92 1.45.92 2.4zm-1.77-.38c0-.79-.17-1.39-.5-1.8-.34-.4-.8-.6-1.39-.6-.6 0-1.16.18-1.64.56-.49.38-.9.9-1.23 1.57a8.64 8.64 0 00-.9 3.73c0 .75.17 1.33.5 1.75.31.42.78.63 1.41.63.58 0 1.1-.17 1.59-.5.48-.35.9-.9 1.27-1.63a8.5 8.5 0 00.89-3.71zM265.82 26.38c0 .62-.15 1.13-.45 1.56-.3.41-.7.77-1.22 1.07-.39.22-.84.42-1.35.59-.51.17-1.08.34-1.7.53-.52.15-1.03.35-1.52.58-.49.23-.89.5-1.2.84H265l-.34 1.45h-7.79l.27-1.14a4.65 4.65 0 011.43-1.27 10.77 10.77 0 012.03-1c.52-.2.96-.39 1.35-.58.38-.19.71-.39.98-.59.4-.3.69-.63.85-.98.18-.35.26-.77.26-1.24 0-.55-.15-.99-.45-1.3-.3-.33-.68-.49-1.16-.49-.46 0-.85.08-1.17.24-.32.16-.55.34-.68.52a7.67 7.67 0 00.03.73c0 .5-.1.88-.3 1.13-.19.24-.5.36-.92.36-.3 0-.52-.07-.64-.2a.81.81 0 01-.18-.53c0-.33.1-.66.3-1 .2-.34.5-.65.87-.94a4.87 4.87 0 012.93-.95c.94 0 1.7.23 2.28.7.58.47.87 1.1.87 1.91zM276.4 27.18a6.3 6.3 0 01-3.38 5.6c-.66.32-1.42.49-2.27.49-1.11 0-1.98-.32-2.6-.96a3.3 3.3 0 01-.94-2.41 6.42 6.42 0 011.64-4.33c.5-.55 1.1-1 1.8-1.32a5.2 5.2 0 012.2-.48c1.14 0 2.02.33 2.63 1 .61.65.92 1.45.92 2.4zm-1.77-.38c0-.79-.17-1.39-.5-1.8-.34-.4-.8-.6-1.39-.6-.6 0-1.16.18-1.64.56-.5.38-.9.9-1.23 1.57a8.64 8.64 0 00-.9 3.73c0 .75.17 1.33.49 1.75.32.42.8.63 1.42.63.58 0 1.1-.17 1.59-.5.48-.35.9-.9 1.27-1.63a8.45 8.45 0 00.89-3.71zM294.94 27.82l-.25 1h-12.88l.24-1h12.88zM308.98 25.56c0 .25-.08.46-.24.65-.15.18-.37.26-.67.26-.17 0-.35-.05-.54-.17a4.26 4.26 0 01-.59-.5c-.1.08-.2.25-.31.5a9.38 9.38 0 01-.83 1.56c-.2.3-.44.55-.74.74v.07c.35.17.61.37.78.61.17.24.3.59.37 1.04a11.32 11.32 0 00.15.84c.06.34.17.6.33.8.17.19.46.28.86.28a4 4 0 001-.18l-.14.56c-.56.22-.97.36-1.23.42-.25.07-.53.1-.84.1-.35 0-.66-.1-.93-.3-.26-.22-.43-.58-.51-1.1l-.08-.56c-.03-.21-.06-.4-.1-.55-.1-.57-.24-.95-.4-1.14-.15-.19-.43-.28-.82-.28h-.54l-.85 3.79h-1.56l1.24-5.41.13-.61c.04-.24.06-.43.06-.59 0-.31-.05-.52-.16-.62-.1-.1-.3-.16-.62-.16-.12 0-.28.03-.46.07l-.44.11.12-.54c.43-.19.81-.34 1.14-.44.33-.1.6-.15.8-.15.44 0 .76.1.97.32.2.2.31.5.31.88 0 .1 0 .23-.03.41l-.1.6-.4 1.71h.5c.18 0 .36-.03.53-.1.18-.06.35-.16.52-.3.2-.18.35-.37.48-.58.13-.2.26-.45.39-.73.12-.27.25-.52.37-.75.13-.24.31-.49.54-.75.22-.24.46-.42.73-.54a2 2 0 01.86-.2c.28 0 .51.1.68.27.18.16.27.38.27.66zM314.61 31.9h-.06l-.44.38a4.03 4.03 0 01-1.3.8c-.25.1-.52.15-.82.15-.8 0-1.44-.29-1.9-.86a3.75 3.75 0 01-.68-2.38 6 6 0 011.44-3.77 5 5 0 011.52-1.2 3.87 3.87 0 013.78.07l1.52-.4.1.13-1.26 5.39c-.05.17-.1.38-.14.63-.05.25-.07.43-.07.55 0 .31.06.53.2.64.13.11.36.17.67.17.1 0 .25-.02.45-.05.2-.04.34-.07.45-.11l-.13.53-1.11.44a2.6 2.6 0 01-.89.13c-.4 0-.71-.11-.95-.35a1.34 1.34 0 01-.38-.9zm1.19-5.28c0-.19-.02-.36-.06-.53a1.1 1.1 0 00-.24-.47 1.15 1.15 0 00-.46-.33 2.04 2.04 0 00-1.91.28c-.38.26-.72.62-1.03 1.07a6.25 6.25 0 00-.92 4.27c.04.26.11.5.22.72.1.21.26.38.46.5.2.11.45.17.76.17.3 0 .63-.09.97-.26.34-.18.73-.49 1.15-.93l1.06-4.5zM327.92 25.56c0 .25-.07.46-.23.65-.15.18-.38.26-.67.26-.17 0-.35-.05-.54-.17a4.2 4.2 0 01-.6-.5c-.1.08-.2.25-.3.5a9.38 9.38 0 01-.83 1.56c-.2.3-.45.55-.74.74v.07c.35.17.6.37.77.61.17.24.3.59.38 1.04a11.32 11.32 0 00.14.84c.06.34.17.6.34.8.17.19.46.28.85.28a4.06 4.06 0 001-.18l-.13.56c-.57.22-.98.36-1.23.42-.25.07-.53.1-.84.1-.36 0-.67-.1-.93-.3-.26-.22-.43-.58-.52-1.1l-.08-.56c-.03-.21-.06-.4-.1-.55-.1-.57-.23-.95-.39-1.14-.16-.19-.43-.28-.82-.28h-.54l-.86 3.79h-1.55l1.24-5.41.12-.61c.04-.24.07-.43.07-.59 0-.31-.06-.52-.16-.62-.1-.1-.3-.16-.63-.16-.12 0-.27.03-.46.07l-.44.11.12-.54c.44-.19.82-.34 1.14-.44.33-.1.6-.15.8-.15.44 0 .77.1.97.32.21.2.32.5.32.88l-.03.41-.11.6-.4 1.71h.5c.19 0 .37-.03.54-.1.17-.06.35-.16.51-.3.2-.18.36-.37.48-.58.14-.2.27-.45.4-.73.12-.27.24-.52.37-.75.13-.24.3-.49.54-.75.21-.24.46-.42.72-.54a2 2 0 01.87-.2c.28 0 .5.1.68.27.17.16.26.38.26.66zM336.36 27.85c0 .66-.11 1.32-.34 1.98a5.2 5.2 0 01-2.5 2.96c-.6.3-1.3.46-2.1.46-.91 0-1.66-.3-2.23-.9-.57-.59-.86-1.4-.86-2.4a5.77 5.77 0 011.35-3.76 4.69 4.69 0 013.53-1.62c.98 0 1.75.3 2.3.91.57.6.85 1.4.85 2.37zm-1.7-.31c0-.8-.14-1.39-.42-1.78-.28-.4-.68-.6-1.2-.6-.47 0-.9.14-1.31.43-.4.28-.75.75-1.05 1.39-.23.48-.4 1.02-.5 1.62a9.4 9.4 0 00-.16 1.63c0 .8.14 1.4.41 1.82.28.4.7.6 1.25.6.5 0 .93-.15 1.31-.46.38-.31.7-.7.93-1.19.24-.46.42-1 .55-1.6a9 9 0 00.2-1.86zM342.79 31.83h-.05l-.73.57a5.05 5.05 0 01-1.42.72c-.21.06-.5.09-.84.09-.54 0-.95-.15-1.24-.46a1.7 1.7 0 01-.44-1.22c0-.13 0-.3.03-.48.02-.18.08-.45.16-.82l.65-2.64.13-.66c.04-.19.06-.37.06-.54 0-.31-.05-.52-.16-.62-.1-.1-.3-.16-.62-.16-.12 0-.28.03-.47.07l-.44.11.13-.54c.43-.19.8-.34 1.13-.44.34-.1.6-.15.8-.15.45 0 .77.1.97.32.21.2.32.5.32.88a3.43 3.43 0 01-.13.93l-.74 3.1c-.06.23-.1.45-.14.65-.04.2-.05.36-.05.46 0 .38.08.67.24.89.16.22.41.32.76.32.36 0 .72-.09 1.1-.27.37-.2.74-.47 1.12-.85l1.45-6.3 1.45-.1.1.13-1.24 5.38a14.06 14.06 0 00-.21 1.18c0 .32.06.53.2.65.13.11.36.17.68.17.1 0 .25-.02.45-.05.19-.04.34-.07.44-.11l-.12.53c-.46.2-.85.34-1.16.43-.3.1-.58.14-.84.14-.45 0-.79-.13-1-.4a1.4 1.4 0 01-.33-.91zm1.29-10c.2-.24.38-.5.53-.78a6 6 0 00.38-.9l.52.28c-.1.39-.25.76-.44 1.12a3.64 3.64 0 01-1.7 1.6c-.36.14-.78.22-1.27.22a2.3 2.3 0 01-1.48-.42c-.34-.28-.5-.64-.5-1.07 0-.35.09-.61.28-.8.2-.2.44-.3.7-.3.2 0 .36.06.5.18.12.11.18.28.18.5 0 .18-.03.36-.1.53l-.2.42c.12.08.25.13.39.15a2.77 2.77 0 001.43-.16c.3-.14.55-.33.78-.58zM358.3 26.47c0 .47-.12.86-.33 1.17-.21.31-.47.55-.77.72a5.1 5.1 0 01-1.03.45 34 34 0 01-1 .29l-.86.28c-.23.09-.47.21-.72.38a1.57 1.57 0 00-.7 1.35c0 .33.14.62.44.87s.7.37 1.22.37c.56 0 1.08-.16 1.57-.48.5-.32.96-.74 1.37-1.26l.46.38a4.8 4.8 0 01-4.13 2.23c-.8 0-1.44-.18-1.92-.55a1.73 1.73 0 01-.71-1.42c0-.45.12-.83.36-1.14.23-.31.54-.57.9-.76.35-.19.72-.33 1.12-.43a15.45 15.45 0 001.8-.57c.27-.1.5-.24.68-.39.2-.17.33-.35.42-.55.1-.2.14-.47.14-.82a1 1 0 00-.4-.8 1.68 1.68 0 00-1.1-.34c-.54 0-1.03.16-1.48.49-.45.32-.87.74-1.26 1.24l-.5-.37a5.07 5.07 0 011.69-1.66c.66-.39 1.39-.58 2.2-.58.76 0 1.37.18 1.84.53.46.34.7.8.7 1.37zM367.2 27.85c0 .66-.11 1.32-.33 1.98a5.22 5.22 0 01-2.51 2.96c-.6.3-1.3.46-2.09.46-.92 0-1.66-.3-2.24-.9-.57-.59-.86-1.4-.86-2.4a5.8 5.8 0 011.35-3.76 4.69 4.69 0 013.53-1.62c.99 0 1.76.3 2.31.91.56.6.84 1.4.84 2.37zm-1.7-.31c0-.8-.14-1.39-.42-1.78-.27-.4-.68-.6-1.2-.6-.46 0-.9.14-1.3.43-.41.28-.76.75-1.06 1.39-.22.48-.39 1.02-.5 1.62a9.3 9.3 0 00-.15 1.63c0 .8.13 1.4.4 1.82.28.4.7.6 1.25.6.5 0 .93-.15 1.31-.46.39-.31.7-.7.94-1.19.23-.46.42-1 .54-1.6a9 9 0 00.2-1.86zM373.98 30.68c.26-.58.47-1.26.63-2.06.17-.8.27-1.6.3-2.38a2.52 2.52 0 00-.82-.83c-.28-.16-.6-.25-.95-.25-.86 0-1.59.51-2.2 1.53a6.6 6.6 0 00-.89 3.4c0 .84.12 1.48.37 1.92.24.43.65.65 1.23.65.5 0 .95-.19 1.34-.55.4-.37.73-.85 1-1.43zm2.53-5.22c0 .97-.1 1.94-.3 2.91-.2.97-.5 1.8-.9 2.5-.45.8-1 1.4-1.63 1.8a4 4 0 01-2.16.58c-.97 0-1.75-.31-2.32-.94a3.56 3.56 0 01-.86-2.48c0-1.43.45-2.66 1.36-3.7a4.25 4.25 0 014.31-1.43c.36.1.66.25.91.46a6.34 6.34 0 00-.79-3.1c-.46-.75-1.06-1.12-1.77-1.12a2.77 2.77 0 00-1.23.27c-.12.06-.24.14-.37.24-.12.1-.21.18-.28.22l-.33-.4c.4-.4.81-.7 1.24-.9a3.36 3.36 0 012.86.02c.43.22.82.56 1.17 1.02.34.46.6 1.02.8 1.67.19.65.29 1.45.29 2.38zM380.25 32.18c0 .47-.11.91-.33 1.32-.21.41-.5.78-.83 1.11a7.89 7.89 0 01-1.91 1.35l-.27-.56a9.17 9.17 0 001.43-1c.23-.22.41-.44.56-.65.16-.21.28-.47.37-.77h-.4c-.33 0-.59-.08-.76-.25a.92.92 0 01-.25-.67c0-.29.11-.55.33-.8.23-.24.52-.37.9-.37.4 0 .7.12.88.36.18.24.28.55.28.93zM399.99 32.06l-.13.53c-.5.2-.91.35-1.22.43-.3.08-.56.12-.78.12-.44 0-.77-.11-1-.34a1.2 1.2 0 01-.33-.86 5.52 5.52 0 01.14-.93l.82-3.11a8.76 8.76 0 00.2-1.12c0-.38-.08-.67-.24-.89-.16-.22-.42-.33-.77-.33-.37 0-.74.1-1.1.27-.35.17-.75.5-1.2.98L392.93 33h-1.54l1.3-5.58a6.36 6.36 0 00.12-.7c0-.36-.1-.64-.27-.85-.18-.2-.44-.3-.8-.3-.31 0-.66.07-1.04.24a4.1 4.1 0 00-1.33 1.06l-1.4 6.13h-1.55l1.24-5.41a13.17 13.17 0 00.19-1.2c0-.32-.05-.53-.16-.63-.1-.11-.3-.16-.61-.16-.13 0-.28.02-.48.06l-.44.11.13-.53c.43-.2.81-.34 1.14-.44.34-.1.62-.14.86-.14.44 0 .75.12.94.37.19.24.29.57.3.99h.05c.65-.52 1.19-.9 1.6-1.12.43-.22.93-.33 1.51-.33.5 0 .9.14 1.2.43.31.29.48.65.52 1.08h.04c.59-.5 1.12-.87 1.57-1.13.47-.25 1.01-.38 1.63-.38.53 0 .93.16 1.22.47.28.3.43.7.43 1.2a5.2 5.2 0 01-.2 1.3l-.69 2.69a7.72 7.72 0 00-.2 1.15c0 .32.06.53.2.65.12.11.35.17.66.17a3.55 3.55 0 00.92-.14zM406.26 31.9h-.06l-.44.38a4 4 0 01-1.3.8c-.25.1-.53.15-.82.15-.8 0-1.44-.29-1.9-.86a3.74 3.74 0 01-.68-2.38 5.96 5.96 0 011.44-3.77c.42-.5.93-.89 1.52-1.2a3.87 3.87 0 013.78.07l1.52-.4.1.13-1.26 5.39-.15.63c-.04.25-.06.43-.06.55 0 .31.06.53.2.64.13.11.36.17.67.17.1 0 .26-.02.45-.05.2-.04.34-.07.45-.11l-.13.53-1.11.44a2.6 2.6 0 01-.89.13c-.4 0-.71-.11-.95-.35a1.33 1.33 0 01-.38-.9zm1.19-5.28c0-.19-.02-.36-.06-.53a1.11 1.11 0 00-.24-.47 1.15 1.15 0 00-.46-.33 2.03 2.03 0 00-1.91.28c-.38.26-.72.62-1.03 1.07a6.25 6.25 0 00-.92 4.27c.04.26.11.5.23.72.1.21.25.38.45.5.2.11.45.17.76.17.3 0 .63-.09.97-.26a4.8 4.8 0 001.15-.93l1.06-4.5zM419.57 25.56c0 .25-.07.46-.23.65-.15.18-.38.26-.67.26-.17 0-.35-.05-.54-.17a4.32 4.32 0 01-.6-.5c-.1.08-.2.25-.3.5a10.24 10.24 0 01-.83 1.56c-.2.3-.45.55-.74.74v.07c.35.17.6.37.77.61.17.24.3.59.38 1.04 0 .07.03.2.06.37l.09.47c.05.34.16.6.33.8.17.19.45.28.85.28a3.95 3.95 0 001-.18l-.13.56c-.57.22-.98.36-1.23.42-.25.07-.53.1-.84.1-.36 0-.67-.1-.93-.3-.26-.22-.43-.58-.52-1.1l-.08-.56a6.9 6.9 0 00-.1-.55c-.1-.57-.23-.95-.39-1.14-.16-.19-.43-.28-.82-.28h-.54L412.7 33h-1.55l1.24-5.41.12-.61c.05-.24.07-.43.07-.59 0-.31-.06-.52-.16-.62-.1-.1-.3-.16-.62-.16-.13 0-.28.03-.47.07l-.44.11.13-.54c.43-.19.8-.34 1.13-.44.34-.1.6-.15.8-.15.44 0 .77.1.97.32.21.2.32.5.32.88a5.88 5.88 0 01-.14 1l-.4 1.72h.5c.19 0 .37-.03.54-.1.18-.06.35-.16.51-.3.2-.18.36-.37.48-.58.14-.2.27-.45.4-.73.12-.27.24-.52.37-.75.13-.24.3-.49.54-.75.21-.24.46-.42.72-.54a2 2 0 01.87-.2c.28 0 .5.1.68.27.18.16.26.38.26.66zM425.3 31.83h-.05l-.73.57a4.98 4.98 0 01-1.41.72c-.22.06-.5.09-.85.09-.53 0-.95-.15-1.24-.46a1.7 1.7 0 01-.44-1.22l.03-.48c.02-.18.08-.45.16-.82l.65-2.64.13-.66c.04-.19.06-.37.06-.54 0-.31-.05-.52-.16-.62-.1-.1-.3-.16-.62-.16-.12 0-.28.03-.47.07l-.44.11.13-.54c.43-.19.8-.34 1.13-.44.34-.1.6-.15.8-.15.45 0 .77.1.97.32.22.2.32.5.32.88a3.43 3.43 0 01-.13.93l-.74 3.1c-.06.23-.1.45-.14.65-.04.2-.05.36-.05.46 0 .38.08.67.24.89.16.22.41.32.76.32.36 0 .72-.09 1.1-.27.37-.2.75-.47 1.12-.85l1.45-6.3 1.45-.1.1.13-1.24 5.38a14.06 14.06 0 00-.21 1.18c0 .32.06.53.2.65.13.11.36.17.68.17.1 0 .25-.02.45-.05.19-.04.34-.07.44-.11l-.12.53c-.46.2-.84.34-1.15.43-.3.1-.6.14-.85.14-.45 0-.79-.13-1-.4a1.4 1.4 0 01-.33-.91zM436.9 26.3c0 .6-.18 1.1-.55 1.53-.37.42-.9.76-1.6 1-.52.2-1.04.35-1.57.47-.52.12-1.1.21-1.74.3 0 .87.16 1.55.48 2.01.33.47.8.7 1.43.7.55 0 1.04-.14 1.46-.42.43-.28.85-.7 1.26-1.25l.47.35c-.44.68-1 1.23-1.66 1.63-.67.41-1.36.61-2.07.61-.98 0-1.73-.27-2.25-.82a3.31 3.31 0 01-.77-2.35 5.9 5.9 0 011.29-3.76c.4-.52.9-.94 1.5-1.25.6-.32 1.25-.48 1.98-.48.8 0 1.38.16 1.76.5.4.32.59.73.59 1.24zm-1.52-.2c0-.22-.03-.39-.1-.51a.67.67 0 00-.23-.29.77.77 0 00-.31-.12 2.3 2.3 0 00-.34-.03c-.67 0-1.28.37-1.85 1.1a5.73 5.73 0 00-1.06 2.76c.39-.06.82-.14 1.31-.24.49-.1.9-.24 1.21-.4.46-.25.8-.55 1.03-.93.22-.37.34-.82.34-1.34zM455.83 32.06l-.13.53c-.5.2-.91.35-1.22.43-.3.08-.56.12-.78.12-.44 0-.78-.11-1-.34a1.2 1.2 0 01-.33-.86l.03-.4.11-.53.81-3.11a8.24 8.24 0 00.2-1.12c0-.38-.08-.67-.24-.89-.16-.22-.41-.33-.76-.33-.37 0-.74.1-1.1.27-.35.17-.75.5-1.2.98L448.77 33h-1.54l1.3-5.58a8.42 8.42 0 00.12-.7c0-.36-.1-.64-.28-.85-.17-.2-.44-.3-.79-.3-.31 0-.66.07-1.04.24-.39.15-.83.5-1.33 1.06L443.8 33h-1.55l1.24-5.41a11.99 11.99 0 00.19-1.2c0-.32-.06-.53-.16-.63-.1-.11-.31-.16-.62-.16-.12 0-.28.02-.47.06l-.44.11.12-.53c.44-.2.82-.34 1.15-.44.33-.1.62-.14.86-.14.44 0 .75.12.94.37.18.24.28.57.3.99h.05c.65-.52 1.19-.9 1.6-1.12.43-.22.93-.33 1.51-.33.5 0 .9.14 1.2.43.3.29.48.65.52 1.08h.03c.6-.5 1.12-.87 1.58-1.13.47-.25 1-.38 1.62-.38.53 0 .94.16 1.22.47.3.3.44.7.44 1.2a5.08 5.08 0 01-.2 1.3l-.7 2.69a7.72 7.72 0 00-.2 1.15c0 .32.07.53.2.65.13.11.36.17.67.17a3.55 3.55 0 00.92-.14zM462.27 31.79h-.05c-.5.43-.99.76-1.45 1.01-.46.24-.98.37-1.57.37-.53 0-.95-.16-1.26-.46a1.66 1.66 0 01-.47-1.22l.03-.48.16-.82.65-2.6.14-.66c.04-.19.05-.37.05-.54 0-.31-.05-.52-.16-.62-.1-.1-.3-.16-.62-.16-.12 0-.28.03-.47.07l-.44.11.13-.54c.43-.19.81-.34 1.14-.44.33-.1.6-.15.8-.15.44 0 .77.1.98.3.21.2.32.5.32.9a3.43 3.43 0 01-.13.93l-.76 3.05a15.45 15.45 0 00-.2 1.12c0 .37.09.67.27.89.18.21.45.32.8.32.4 0 .8-.1 1.17-.3.4-.2.76-.47 1.1-.83l1.37-6.24 1.44-.1.1.12-1.43 6.54c-.2.96-.48 1.78-.8 2.46a5.6 5.6 0 01-1.15 1.64c-.46.44-.96.76-1.49.96-.53.2-1.14.29-1.82.29-.47 0-.84-.03-1.12-.1-.28-.07-.5-.16-.66-.28a.86.86 0 01-.32-.37 1.13 1.13 0 01-.08-.42 1 1 0 01.21-.64.74.74 0 01.63-.27c.2 0 .38.06.52.17.14.12.26.25.35.39.1.15.19.32.27.5l.2.46h.2c.32 0 .65-.08 1-.23.35-.16.68-.4.97-.73.32-.36.6-.82.85-1.38.25-.56.45-1.24.6-2.02zM475.1 27.76a5.8 5.8 0 01-1.43 3.86c-.49.54-1 .94-1.57 1.2a4.04 4.04 0 01-2.9.22c-.3-.12-.58-.26-.82-.43l-.48 2.19a7.41 7.41 0 00-.1.68c0 .15.04.27.15.36.11.09.24.15.37.2l.47.1.46.04-.11.53h-4.58l.12-.53c.17 0 .34-.02.5-.04.15-.02.3-.04.44-.08.17-.05.3-.15.4-.29.1-.13.18-.3.23-.5l1.73-7.68.13-.64c.04-.22.06-.4.06-.56 0-.31-.05-.52-.15-.63-.1-.1-.3-.15-.63-.15-.12 0-.27.02-.46.07l-.44.11.12-.54c.42-.18.8-.33 1.14-.43.34-.1.63-.16.86-.16.4 0 .69.1.88.3.2.2.33.47.38.82h.06c.38-.35.78-.64 1.21-.87.43-.23.86-.34 1.29-.34.84 0 1.5.29 1.96.87.47.57.7 1.35.7 2.32zm-2.6 3.45c.29-.45.5-.97.65-1.55a7.21 7.21 0 00.15-2.74c-.05-.3-.13-.55-.25-.75a1.28 1.28 0 00-.5-.5 1.65 1.65 0 00-.83-.18c-.25 0-.54.08-.85.23-.3.16-.67.45-1.12.88l-1.06 4.74c.04.31.2.61.5.9.31.26.68.4 1.1.4.44 0 .85-.13 1.23-.38.38-.26.71-.6.98-1.05zM481.72 30.13c0-.5-.14-.87-.4-1.13a1.5 1.5 0 00-1.12-.4c-.24 0-.5.02-.76.08l-.56.12-.34 1.3a6.59 6.59 0 00-.2 1.33c0 .43.12.74.35.94.24.19.52.29.85.29a1.96 1.96 0 001.73-.91c.15-.24.26-.5.33-.8.08-.29.12-.56.12-.82zm1.7-.07a2.8 2.8 0 01-1.13 2.3c-.75.6-1.76.9-3.03.9-.8 0-1.4-.17-1.81-.49a1.59 1.59 0 01-.63-1.32 4.25 4.25 0 01.19-1.22l.72-2.7.16-.68c.05-.23.07-.42.07-.55 0-.3-.05-.5-.16-.6-.12-.1-.33-.14-.64-.14-.13 0-.29.02-.5.05l-.45.1.12-.53c.44-.2.83-.34 1.18-.43.34-.1.61-.15.8-.15.46 0 .79.11.97.33.2.21.3.5.3.87a3.71 3.71 0 01-.15.94l-.41 1.43.68-.1c.3-.03.55-.05.76-.05.94 0 1.67.17 2.19.52.52.34.78.85.78 1.52zm4.35 1.97l-.12.54c-.5.2-.89.34-1.16.43-.27.1-.55.14-.83.14-.45 0-.78-.11-1-.34a1.22 1.22 0 01-.32-.86 3.16 3.16 0 01.14-.95l1.35-6.2 1.46-.1.1.15-1.21 5.36a16.92 16.92 0 00-.2 1.18c0 .32.06.53.2.65.14.11.37.17.69.17a2.84 2.84 0 00.9-.17z" fill="#fff"/><path fill-rule="evenodd" clip-rule="evenodd" d="M705 15.89H0v22h705v-22zM-1.2 14.67V39.1h707.43V14.67H-1.21z" fill="#6653D9" fill-opacity=".3"/><path fill-rule="evenodd" clip-rule="evenodd" d="M679.47 0H25.52v66h653.95V0zM24.31-1.22v68.44h656.38V-1.22H24.3z" fill="#6653D9" fill-opacity=".3"/><path fill-rule="evenodd" clip-rule="evenodd" d="M24.31 0H0v66H705V0H24.31zm656.38 39.11V14.67H24.31V39.1h656.38z" fill="#6653D9" fill-opacity=".3"/><path fill-rule="evenodd" clip-rule="evenodd" d="M679.47 15.89H25.52v22h653.95v-22zM24.31 14.67V39.1h656.38V14.67H24.3zM334.74 8.56l-3.51 6.1-3.51-6.1h2.9V6.1h-2.9l3.5-6.11 3.52 6.11h-2.9v2.45h2.9zM334.74 59.89L331.23 66l-3.51-6.11h2.9V45.22h-2.9l3.5-6.1 3.52 6.1h-2.9V59.9h2.9z" fill="#6653D9"/><path d="M342.84 2.25l-2.41.92v1.54l1.98-.75v6.75h-1.98v1.51h5.4v-1.5h-1.77V2.24h-1.22zM346.85 7.24c0 2.91 1.37 5.17 4.45 5.17s4.45-2.26 4.45-5.17c0-2.92-1.37-5.18-4.45-5.18s-4.45 2.26-4.45 5.18zm7.22 0c0 2.31-.87 3.65-2.77 3.65s-2.77-1.34-2.77-3.65c0-2.32.86-3.66 2.77-3.66 1.9 0 2.77 1.34 2.77 3.66zM358.81 6.28v-1.1h-1.38v10.27h1.56V11.3c.48.56 1.3 1.1 2.52 1.1 2.1 0 3.47-1.68 3.47-3.7 0-2.03-1.37-3.72-3.47-3.72-1.31 0-2.14.62-2.7 1.3zm4.58 2.42c0 1.38-.9 2.33-2.17 2.33-1.08 0-1.9-.7-2.23-1.48V7.84a2.46 2.46 0 012.23-1.47c1.27 0 2.17.95 2.17 2.33zM370.58 5.18l-1.68 2.38-1.67-2.38h-1.79L368 8.63l-2.7 3.6h1.78l1.82-2.5 1.83 2.5h1.77l-2.7-3.6 2.56-3.45h-1.78zM340.22 48.3v1.6a5.4 5.4 0 013.15-1.1c1.22 0 1.97.45 1.97 1.31 0 1.13-1 1.64-2.16 2.32-1.5.9-3.3 1.82-3.3 4.25v.76h7.2v-1.5h-5.33c.01-.99 1.23-1.6 2.5-2.37 1.35-.8 2.75-1.8 2.75-3.49 0-1.86-1.47-2.8-3.49-2.8a5.7 5.7 0 00-3.3 1.01zM348.49 52.46c0 2.92 1.37 5.17 4.45 5.17 3.07 0 4.45-2.25 4.45-5.17s-1.38-5.18-4.45-5.18c-3.08 0-4.45 2.26-4.45 5.18zm7.22 0c0 2.31-.88 3.65-2.77 3.65-1.91 0-2.77-1.34-2.77-3.65 0-2.32.86-3.65 2.77-3.65 1.9 0 2.77 1.33 2.77 3.65zM360.45 51.5v-1.1h-1.39v10.27h1.56v-4.14c.49.56 1.3 1.1 2.53 1.1 2.1 0 3.47-1.68 3.47-3.7 0-2.03-1.37-3.72-3.47-3.72-1.31 0-2.15.62-2.7 1.3zm4.58 2.42c0 1.38-.9 2.34-2.17 2.34-1.08 0-1.9-.7-2.24-1.49v-1.71a2.46 2.46 0 012.24-1.47c1.26 0 2.17.96 2.17 2.33zM372.21 50.4l-1.67 2.38-1.68-2.38h-1.78l2.55 3.45-2.7 3.6h1.78l1.83-2.5 1.82 2.5h1.78l-2.7-3.6L374 50.4h-1.79z" fill="#6653D9"/><path fill-rule="evenodd" clip-rule="evenodd" d="M18.23 48.42l6.08 3.52-6.08 3.53v-2.91H6.08v2.91L0 51.94l6.08-3.52v2.91h12.15v-2.91zM698.92 48.42l6.08 3.52-6.08 3.53v-2.91h-12.15v2.91l-6.08-3.53 6.08-3.52v2.91h12.15v-2.91z" fill="#6653D9"/><path d="M7.3 42.9h1.61a5.46 5.46 0 01-1.1-3.16c0-1.23.45-1.98 1.3-1.98 1.13 0 1.64 1 2.31 2.17.89 1.5 1.8 3.31 4.23 3.31h.76v-7.23h-1.5l.01 5.36c-1-.02-1.6-1.24-2.36-2.53-.8-1.35-1.8-2.75-3.47-2.75-1.86 0-2.79 1.48-2.79 3.5 0 1.16.3 2.29 1 3.32zM11.45 34.59c2.9 0 5.15-1.38 5.15-4.47 0-3.1-2.25-4.48-5.15-4.48-2.9 0-5.15 1.38-5.15 4.48 0 3.1 2.25 4.47 5.15 4.47zm0-7.26c2.3 0 3.63.88 3.63 2.79 0 1.92-1.33 2.78-3.63 2.78s-3.63-.86-3.63-2.78c0-1.91 1.33-2.79 3.63-2.79zM10.5 22.56H9.4v1.4h10.22v-1.57H15.5c.56-.49 1.1-1.3 1.1-2.54 0-2.11-1.68-3.5-3.7-3.5-2 0-3.68 1.39-3.68 3.5 0 1.32.61 2.16 1.28 2.71zm2.4-4.6c1.38 0 2.33.9 2.33 2.18 0 1.09-.7 1.9-1.48 2.25h-1.7a2.48 2.48 0 01-1.46-2.25c0-1.27.95-2.18 2.32-2.18zM9.4 10.73l2.37 1.69-2.36 1.69v1.78l3.43-2.56 3.57 2.71v-1.79l-2.48-1.83 2.48-1.83v-1.8l-3.57 2.72L9.4 8.94v1.8zM688 42.9h1.6a5.47 5.47 0 01-1.1-3.16c0-1.23.45-1.98 1.3-1.98 1.13 0 1.64 1 2.31 2.17.9 1.5 1.81 3.31 4.23 3.31h.76v-7.23h-1.5l.01 5.36c-.99-.02-1.6-1.24-2.36-2.53-.8-1.35-1.8-2.75-3.47-2.75-1.85 0-2.79 1.48-2.79 3.5 0 1.16.3 2.29 1 3.32zM692.14 34.59c2.9 0 5.15-1.38 5.15-4.47 0-3.1-2.25-4.48-5.15-4.48-2.9 0-5.15 1.38-5.15 4.48 0 3.1 2.25 4.47 5.15 4.47zm0-7.26c2.3 0 3.63.88 3.63 2.79 0 1.92-1.32 2.78-3.63 2.78-2.3 0-3.63-.86-3.63-2.78 0-1.91 1.33-2.79 3.63-2.79zM691.2 22.56h-1.1v1.4h10.2v-1.57h-4.1c.55-.49 1.09-1.3 1.09-2.54 0-2.11-1.68-3.5-3.69-3.5s-3.7 1.39-3.7 3.5c0 1.32.62 2.16 1.3 2.71zm2.4-4.6c1.37 0 2.32.9 2.32 2.18 0 1.09-.7 1.9-1.47 2.25h-1.71a2.48 2.48 0 01-1.46-2.25c0-1.27.95-2.18 2.32-2.18zM690.1 10.73l2.36 1.69-2.36 1.69v1.78l3.43-2.56 3.57 2.71v-1.79l-2.48-1.83 2.48-1.83v-1.8l-3.57 2.72-3.43-2.57v1.8z" fill="#6653D9"/></g><defs><clipPath id="clip0"><path fill="#fff" d="M0 0h705v66H0z"/></clipPath></defs></svg>