<svg width="705" height="95" viewBox="0 0 705 95" fill="none" xmlns="http://www.w3.org/2000/svg"><g clip-path="url(#clip0)"><path fill="#3F3329" d="M0 0h705v95H0z"/><path d="M0 23h705v72H0V23z" fill="#2F2317"/><path opacity=".3" fill-rule="evenodd" clip-rule="evenodd" d="M705 23H0v72h705V23zm-11 10H11v52h683V33z" fill="#A7A6F2"/><path d="M228 34h249v50H228V34z" fill="#2F2317"/><path d="M248.64 64v-.43l.07-.05c.5-.02.84-.04 1.04-.07.2-.04.33-.1.39-.17s.1-.2.13-.36a97.65 97.65 0 00.07-2.95v-3.95l-.03-1.89a7.67 7.67 0 00-.07-1.18c-.03-.12-.07-.21-.14-.26-.05-.06-.17-.1-.35-.14a8.06 8.06 0 00-1.04-.08l-.07-.06V52l.07-.06a188.88 188.88 0 012.46.06l2.42-.06.06.06v.42l-.06.06c-.5.02-.85.05-1.05.08-.2.03-.32.09-.38.16-.07.07-.1.19-.13.35a100.4 100.4 0 00-.07 2.96v7.2l.14.13h4.34l.13-.14v-7.19c0-.58 0-1.2-.02-1.87a7.85 7.85 0 00-.07-1.2.5.5 0 00-.13-.26c-.06-.06-.17-.1-.35-.13a8.82 8.82 0 00-1.05-.09l-.07-.06V52l.07-.06a136.52 136.52 0 012.46.06l2.41-.06.07.06v.42l-.07.06c-.56.03-.92.05-1.09.09-.16.03-.27.08-.33.14a.64.64 0 00-.12.29 12 12 0 00-.06 1.3c-.02.74-.02 1.31-.02 1.73v7.2l.14.13h4.33l.14-.14v-7.19a107.85 107.85 0 00-.07-2.95.68.68 0 00-.13-.37c-.07-.07-.2-.12-.4-.15s-.55-.06-1.02-.08l-.07-.06V52l.06-.06a120.53 120.53 0 012.42.06l2.46-.06.07.06v.42l-.07.06a9 9 0 00-1.05.08c-.19.03-.31.09-.38.16-.06.07-.1.2-.13.36a97.65 97.65 0 00-.07 2.95v3.96l.02 1.87c.02.67.04 1.07.07 1.2.04.12.08.2.14.26.05.05.17.1.35.13.17.03.52.06 1.05.08l.07.05V64l-.07.07-1.05-.02h-1.12l-1.19-.02-2-.01-3.39-.02-4.18.03-2.79.01-1.63.03-.07-.07zM267.48 64v-.36l.06-.06c.43-.04.69-.08.78-.1.09-.05.16-.12.22-.23.06-.11.1-.37.1-.79.02-.41.03-.98.03-1.69v-1.45c0-.45 0-.94-.02-1.49a3 3 0 00-.11-.99.45.45 0 00-.24-.21 3.35 3.35 0 00-.76-.11l-.06-.07v-.36l.06-.06a22.77 22.77 0 003.67 0l.07.06v.36l-.07.07c-.42.03-.69.07-.78.11-.1.04-.17.11-.22.22-.05.1-.09.37-.1.78-.02.42-.02.98-.02 1.69v.56h.07a38.09 38.09 0 003.18-3.1c.07-.08.1-.15.1-.21 0-.07-.05-.12-.15-.15v-.33l.07-.07a8.22 8.22 0 001.96 0l.05.07v.36l-.06.06c-.37.03-.68.13-.95.29-.27.15-1.24 1-2.92 2.53l3.48 3.67c.25.27.42.43.5.5.1.05.22.08.4.09l.04.04V64l-.05.05c-.88-.03-1.42-.07-1.6-.12-.19-.05-.4-.17-.63-.37-.23-.2-.61-.58-1.15-1.17a36.05 36.05 0 00-2.27-2.29h-.07v.67c0 .47 0 .97.02 1.51 0 .54.04.87.1.98.06.1.14.18.24.21.1.03.35.07.76.11l.07.06V64l-.07.07a22.86 22.86 0 00-3.67 0l-.06-.07zM277.75 58.2l-.33-.08-.07-.08v-1.06c.61-.4 1.13-.69 1.55-.87.43-.17.9-.26 1.4-.26a3 3 0 012.08.7c.5.45.76 1.08.76 1.87l-.04 1.72v2.54c0 .31.03.51.08.61.05.1.12.16.2.2.1.03.28.06.56.08l.06.08v.34l-.06.07c-.45-.04-.8-.06-1.04-.06s-.61.02-1.11.06l-.13-.12.04-1.38-1.1.86-.76.6c-.31.13-.65.2-1.02.2-.68 0-1.2-.19-1.6-.54a1.94 1.94 0 01-.58-1.48c0-.65.17-1.17.5-1.57.34-.41.84-.73 1.52-.96.68-.24 1.7-.45 3.04-.63 0-.36-.03-.66-.08-.91a1.52 1.52 0 00-.35-.7c-.18-.24-.41-.4-.7-.52a2.84 2.84 0 00-1.98.03c-.15.06-.25.11-.28.14a25.63 25.63 0 00-.5 1.09l-.06.04zm3.95 1.33a8.62 8.62 0 00-2.77.79c-.53.3-.8.8-.8 1.5 0 .44.13.78.36 1.01.24.23.56.35.97.35.75 0 1.5-.44 2.24-1.32v-2.33zM289.02 52.4v-.35l.06-.06c1.08-.17 2.05-.4 2.91-.65l.12.1c-.03.48-.05 1.08-.06 1.81l-.04 2.44c1.75.05 3.08.47 3.98 1.24a3.73 3.73 0 011.38 3c0 1.33-.5 2.39-1.47 3.18a6.16 6.16 0 01-3.89 1.22v1.34c0 1.35.05 2.12.14 2.32.09.2.46.35 1.12.44l.06.07v.35l-.06.06a33.48 33.48 0 00-3.93 0l-.07-.06v-.35l.07-.07c.35-.05.6-.11.76-.17.16-.06.27-.13.32-.22a.6.6 0 00.1-.3c.02-.12.03-.42.05-.92l.02-1.15v-1.34a6.16 6.16 0 01-3.89-1.22 3.88 3.88 0 01-1.46-3.18c0-1.24.45-2.24 1.37-3 .91-.77 2.24-1.19 3.98-1.24a54.2 54.2 0 00-.07-2.56.61.61 0 00-.26-.47c-.15-.1-.54-.16-1.18-.19l-.06-.06zm1.57 3.73c-1.2 0-2.1.33-2.72.97-.62.63-.93 1.56-.93 2.78 0 1.23.3 2.2.92 2.92.61.72 1.52 1.1 2.73 1.12v-7.79zm1.42 0v7.8c1.2-.03 2.11-.4 2.73-1.1.61-.73.92-1.7.92-2.95 0-1.22-.31-2.15-.93-2.8-.62-.63-1.53-.95-2.72-.95zM302.3 60.19v-1h8.74v1h-8.74zM318.32 59.55l2.16.03c.46 0 1.17 0 2.14-.03v-.23l-.02-1.47a3 3 0 00-.11-1 .41.41 0 00-.23-.22c-.1-.04-.35-.08-.77-.11l-.07-.07v-.36l.07-.06a22.48 22.48 0 003.6 0l.06.06v.36l-.07.07c-.42.03-.68.07-.78.11-.09.04-.16.11-.22.23-.06.1-.1.38-.1.83l-.02 1.63v1.45l.02 1.5c0 .55.04.88.1.99.06.1.14.18.24.21.1.03.35.07.76.11l.07.06V64l-.07.07a22.5 22.5 0 00-3.59 0l-.07-.07v-.36l.07-.06c.43-.04.69-.08.78-.1.1-.05.17-.12.23-.23.05-.11.09-.37.1-.79l.02-1.69v-.68a79.53 79.53 0 00-4.3 0v.68l.01 1.5c.02.55.05.88.1.99.07.1.15.18.25.21s.35.07.76.11l.07.06V64l-.07.07a22.47 22.47 0 00-3.59 0l-.07-.07v-.36l.07-.06c.42-.04.68-.08.77-.1.1-.05.17-.12.23-.23.06-.11.1-.37.1-.79.02-.41.02-.98.02-1.69v-1.45l-.01-1.49a3 3 0 00-.11-.99.45.45 0 00-.24-.21 3.35 3.35 0 00-.76-.11l-.07-.07v-.36l.07-.06a22.3 22.3 0 003.6 0l.06.06v.36l-.07.07c-.42.03-.69.07-.78.1a.42.42 0 00-.22.23c-.06.1-.1.37-.1.78-.02.41-.02.98-.02 1.69v.23zM333.08 62.74l-.27.62a5.19 5.19 0 01-2.82.91 4.8 4.8 0 01-1.94-.4c-.6-.27-1.1-.72-1.49-1.36a4.43 4.43 0 01-.56-2.3 5.5 5.5 0 01.68-2.7 5.41 5.41 0 012.05-1.46 3.75 3.75 0 013.19.23c.52.32.89.73 1.1 1.23a4.1 4.1 0 01.29 2.12l-.1.09c-.38.08-.9.14-1.56.17l-1.29.04h-2.73c.01 1.18.3 2.05.88 2.6.58.57 1.3.85 2.13.85.4 0 .78-.07 1.14-.2.37-.15.76-.34 1.17-.58l.13.14zm-5.45-3.5a50.84 50.84 0 002.7.1c.79 0 1.27-.01 1.44-.04v-.32c0-.88-.17-1.53-.53-1.96a1.8 1.8 0 00-1.47-.65c-.67 0-1.2.24-1.58.73-.37.48-.56 1.2-.56 2.15zM338.6 56.09l.07-.06a73.03 73.03 0 007.44 0l.06.06a43.3 43.3 0 00-.06 1.9l-.05.05h-.34l-.05-.05a6.6 6.6 0 00-.18-1.08c-.04-.12-.1-.19-.2-.22a1.42 1.42 0 00-.47-.06h-1.73l-.03 2.2v1.94c0 .42 0 .91.02 1.48 0 .56.04.89.1 1 .06.1.13.18.23.22.1.03.35.07.77.11l.07.06V64l-.07.07a22.5 22.5 0 00-3.59 0l-.07-.07v-.36l.07-.06c.43-.04.68-.08.78-.1.1-.05.17-.12.23-.23.05-.12.09-.4.1-.83l.01-1.65v-1.92l-.04-2.22h-1.73c-.24 0-.4.02-.49.06-.08.04-.14.12-.19.24-.04.12-.1.48-.17 1.06l-.05.05h-.33l-.06-.05-.05-1.9zM355.67 59.7c0 .71-.12 1.36-.35 1.93a4.1 4.1 0 01-3.96 2.61c-1.4 0-2.46-.4-3.2-1.2a4.32 4.32 0 01-1.08-3.01c0-.83.17-1.56.52-2.2.35-.65.86-1.14 1.53-1.49a5.1 5.1 0 012.35-.5c.87 0 1.62.16 2.23.49.62.32 1.1.78 1.44 1.38.35.6.52 1.25.52 1.98zm-1.64.5c0-1.14-.24-2.06-.7-2.74a2.32 2.32 0 00-2.06-1.04c-.75 0-1.37.27-1.84.8-.48.53-.72 1.34-.72 2.41 0 1.1.24 2.06.72 2.87a2.3 2.3 0 002.07 1.2c.79 0 1.4-.32 1.86-.96.44-.63.67-1.48.67-2.54zM356.13 66.4c.43-.72.74-1.28.92-1.68a7.08 7.08 0 00.63-2.44l.92-.23.82-.28.22.24a16.79 16.79 0 01-2.57 4.26l-.73.34-.2-.22zM370.89 60.11v-.83a10 10 0 00-.14-2.33c-.08-.2-.45-.35-1.11-.43l-.07-.07v-.36l.07-.06c.79.04 1.44.07 1.96.07.53 0 1.18-.03 1.97-.07l.06.06v.36l-.06.07c-.35.04-.6.1-.77.16a.68.68 0 00-.32.22.62.62 0 00-.1.3 36.16 36.16 0 00-.07 2.08v1.54c0 1.34.05 2.11.14 2.32.09.2.46.35 1.12.44l.06.06V64l-.06.07c-.79-.05-1.44-.07-1.97-.07-.52 0-1.18.02-1.96.07l-.07-.07v-.36l.07-.06c.33-.06.57-.11.72-.18a.83.83 0 00.32-.2.6.6 0 00.12-.28 53.7 53.7 0 00.09-2.26c-.6.3-1.24.46-1.93.46-.45 0-.91-.06-1.38-.19-.47-.12-.83-.29-1.08-.5a1.65 1.65 0 01-.51-.7 3.71 3.71 0 01-.13-1.1 21.04 21.04 0 01.04-1.56c0-.2-.05-.33-.14-.4-.1-.06-.34-.1-.73-.15l-.06-.07v-.36l.06-.06a23.08 23.08 0 003.32 0l.07.06v.36l-.07.07c-.43.05-.7.18-.82.4a3.6 3.6 0 00-.17 1.4c0 .88.17 1.48.52 1.8.35.32.79.48 1.31.48.5 0 1.07-.16 1.7-.49zM381.83 62.74l-.27.62a5.18 5.18 0 01-2.82.91 4.8 4.8 0 01-1.94-.4c-.6-.27-1.1-.72-1.49-1.36a5.46 5.46 0 01.11-5 5.4 5.4 0 012.05-1.46 3.76 3.76 0 013.2.23c.52.32.89.73 1.1 1.23a4.1 4.1 0 01.29 2.12l-.1.09c-.38.08-.9.14-1.56.17l-1.29.04h-2.73c.01 1.18.3 2.05.88 2.6.58.57 1.3.85 2.13.85.4 0 .78-.07 1.14-.2a7.1 7.1 0 001.17-.58l.13.14zm-5.45-3.5a50.72 50.72 0 002.7.1c.79 0 1.26-.01 1.44-.04v-.32c0-.88-.18-1.53-.53-1.96a1.8 1.8 0 00-1.47-.65c-.67 0-1.2.24-1.58.73-.37.48-.56 1.2-.56 2.15zM391.85 56.03a16.96 16.96 0 002.55 0l.07.06v.36l-.07.07c-.42.03-.68.07-.78.11-.09.04-.16.11-.22.23-.06.1-.1.38-.1.83l-.02 1.63v1.45c0 .42 0 .91.02 1.48 0 .56.04.89.1 1 .06.1.14.18.23.22.1.03.35.07.77.11l.07.06V64l-.07.07a22.86 22.86 0 00-3.66 0l-.07-.07v-.36l.07-.06c.42-.04.68-.08.77-.1.1-.05.17-.12.23-.23.06-.12.09-.4.1-.83l.01-1.65v-3.26h-.1l-3.13 6.5h-.28l-3.03-6.5h-.1l.08 4.45v.61c0 .35.03.58.08.69.04.1.12.17.23.21.12.04.4.08.81.11l.07.06V64l-.07.07a16.98 16.98 0 00-2.94 0l-.07-.07v-.36l.07-.06c.48-.03.78-.07.9-.12a.39.39 0 00.22-.25c.04-.14.06-.55.06-1.25l.04-3.82a7.5 7.5 0 00-.06-1.19c-.03-.14-.1-.24-.2-.29a3.4 3.4 0 00-.96-.14l-.07-.07v-.36l.07-.06a20.64 20.64 0 002.68 0l2.7 5.93h.13l2.87-5.93zM400.5 64v-.36l.07-.06c.42-.04.68-.08.77-.1.1-.05.17-.12.22-.23.06-.11.1-.37.11-.79l.02-1.69v-1.45c0-.45 0-.94-.02-1.49a3 3 0 00-.1-.99.45.45 0 00-.25-.21 3.35 3.35 0 00-.75-.11l-.07-.07v-.36l.07-.06a22.77 22.77 0 003.66 0l.07.06v.36l-.07.07a3.8 3.8 0 00-.78.11c-.09.04-.16.11-.22.22-.05.1-.09.37-.1.78l-.02 1.69v.56h.07a38.45 38.45 0 003.18-3.1c.07-.08.1-.15.1-.21 0-.07-.05-.12-.15-.15v-.33l.07-.07a8.23 8.23 0 001.96 0l.06.07v.36l-.06.06c-.37.03-.69.13-.96.29-.26.15-1.24 1-2.92 2.53l3.49 3.67c.24.27.41.43.5.5.09.05.22.08.39.09l.04.04V64l-.04.05c-.89-.03-1.42-.07-1.61-.12-.19-.05-.4-.17-.63-.37-.23-.2-.61-.58-1.15-1.17a36.05 36.05 0 00-2.27-2.29h-.07v.67c0 .47 0 .97.02 1.51 0 .54.04.87.1.98.06.1.14.18.24.21.1.03.35.07.76.11l.07.06V64l-.07.07a22.86 22.86 0 00-3.66 0l-.07-.07zM410.77 58.2l-.33-.08-.07-.08v-1.06c.61-.4 1.13-.69 1.56-.87.42-.17.89-.26 1.38-.26a3 3 0 012.09.7c.51.45.77 1.08.77 1.87l-.05 1.72v2.54c0 .31.03.51.08.61.05.1.12.16.2.2.1.03.28.06.56.08l.07.08v.34l-.07.07c-.44-.04-.8-.06-1.04-.06s-.6.02-1.1.06l-.13-.12.03-1.38-1.09.86-.77.6c-.3.13-.65.2-1.02.2-.67 0-1.2-.19-1.6-.54a1.94 1.94 0 01-.58-1.48c0-.65.17-1.17.5-1.57.34-.41.85-.73 1.52-.96.68-.24 1.7-.45 3.04-.63 0-.36-.03-.66-.08-.91a1.52 1.52 0 00-.35-.7c-.18-.24-.41-.4-.7-.52a2.85 2.85 0 00-1.98.03c-.15.06-.24.11-.28.14a25.63 25.63 0 00-.5 1.09l-.06.04zm3.95 1.33a8.62 8.62 0 00-2.77.79c-.52.3-.79.8-.79 1.5 0 .44.12.78.35 1.01.24.23.56.35.97.35.76 0 1.5-.44 2.24-1.32v-2.33zM422.86 64v-.36l.06-.06c.35-.05.6-.1.76-.17a.71.71 0 00.33-.21c.06-.09.1-.2.1-.31a22.24 22.24 0 00.07-2.07v-.68h-.24c-.6.6-1.2 1.24-1.84 1.95-.67.75-1.13 1.23-1.36 1.42-.24.2-.5.33-.78.4-.28.08-.89.13-1.82.16l-.07-.07v-.36l.07-.06c.24-.03.44-.09.6-.16.15-.07.34-.2.57-.4.22-.2.72-.7 1.5-1.5l2.05-2.07c-.67-.6-1.32-1.16-1.95-1.67a8.4 8.4 0 00-1.37-.97 3.4 3.4 0 00-.96-.3l-.06-.06v-.36l.06-.06a11.4 11.4 0 002.31 0l.06.06v.34c-.1.03-.15.07-.15.14 0 .03 0 .07.03.12.03.06.23.29.61.7l1.18 1.23c.4.4.85.82 1.34 1.27h.22v-.61a35 35 0 00-.06-2.01.7.7 0 00-.1-.35c-.05-.09-.16-.17-.32-.23a3.27 3.27 0 00-.78-.17l-.06-.07v-.36l.06-.06c.8.04 1.44.07 1.94.07s1.14-.03 1.92-.07l.07.06v.36l-.07.07c-.36.05-.61.1-.76.17a.75.75 0 00-.3.18.59.59 0 00-.12.24l-.05.93-.02 1.24v.61h.22a42.9 42.9 0 003.12-3.2l.05-.11c0-.07-.06-.12-.16-.15v-.34l.06-.06c.59.04.98.07 1.17.07.32 0 .7-.03 1.13-.07l.07.06v.36l-.07.07c-.37.06-.7.16-.98.3-.28.15-.73.47-1.35.97a43.7 43.7 0 00-1.93 1.65 127.4 127.4 0 003.59 3.62c.2.17.37.3.53.37.15.07.35.12.59.15l.07.06V64l-.07.07a9.73 9.73 0 01-1.86-.16 2.16 2.16 0 01-.75-.4c-.23-.2-.69-.67-1.36-1.42-.63-.71-1.24-1.36-1.83-1.95h-.24v.68a57.6 57.6 0 00.06 2.01c0 .15.04.26.1.35.05.09.16.16.32.23.17.06.42.12.77.17l.07.06V64l-.07.07c-.79-.05-1.43-.07-1.92-.07-.5 0-1.15.02-1.94.07l-.06-.07zM439.55 62.74l-.27.62a5.18 5.18 0 01-2.82.91 4.8 4.8 0 01-1.94-.4c-.6-.27-1.1-.72-1.49-1.36a4.43 4.43 0 01-.57-2.3 5.5 5.5 0 01.69-2.7 5.4 5.4 0 012.05-1.46 3.76 3.76 0 013.19.23c.52.32.89.73 1.1 1.23a4.1 4.1 0 01.28 2.12l-.09.09c-.38.08-.9.14-1.56.17l-1.29.04h-2.73c.01 1.18.3 2.05.88 2.6.58.57 1.3.85 2.13.85.4 0 .78-.07 1.14-.2.37-.15.76-.34 1.17-.58l.13.14zm-5.45-3.5a50.72 50.72 0 002.7.1c.79 0 1.26-.01 1.43-.04l.01-.32c0-.88-.18-1.53-.53-1.96a1.8 1.8 0 00-1.47-.65c-.67 0-1.2.24-1.58.73-.38.48-.56 1.2-.56 2.15zM440.71 56.09l.07-.06a73.03 73.03 0 007.44 0l.06.06a43.3 43.3 0 00-.05 1.9l-.06.05h-.34l-.05-.05a6.54 6.54 0 00-.17-1.08c-.05-.12-.12-.19-.2-.22a1.43 1.43 0 00-.48-.06h-1.73l-.03 2.2v1.94c0 .42 0 .91.02 1.48 0 .56.04.89.1 1 .06.1.13.18.23.22.1.03.35.07.77.11l.07.06V64l-.07.07a22.5 22.5 0 00-3.59 0l-.07-.07v-.36l.07-.06c.43-.04.69-.08.78-.1.1-.05.17-.12.23-.23.05-.12.09-.4.1-.83l.02-1.65v-1.92l-.05-2.22h-1.72c-.25 0-.41.02-.5.06-.08.04-.14.12-.19.24-.04.12-.1.48-.17 1.06l-.05.05h-.33l-.06-.05c0-.22-.01-.86-.05-1.9zM456 63.09l-.34.57c-.74.4-1.55.6-2.46.6a3.72 3.72 0 01-2.89-1.11 4.12 4.12 0 01-1.02-2.9c0-.53.06-1 .17-1.42.12-.42.27-.77.44-1.04.18-.28.38-.5.6-.65a11.19 11.19 0 012.25-1.22c.26-.1.63-.14 1.08-.14.88 0 1.6.17 2.17.5-.11.65-.2 1.37-.25 2.16l-.08.07h-.35l-.07-.08a6.3 6.3 0 00-.1-.97c-.04-.16-.26-.34-.68-.53a3.1 3.1 0 00-1.3-.28c-.47 0-.89.1-1.25.3-.36.2-.64.52-.83.97-.18.44-.27.97-.27 1.6 0 .52.08 1.03.22 1.53.15.5.34.91.58 1.24.25.33.57.59.96.79.4.2.84.3 1.33.3.3 0 .6-.04.9-.12.29-.08.63-.21 1-.4l.19.23zM461.14 64v-.36l.07-.06c.61-.07.94-.24 1-.52.07-.28.1-1.02.1-2.24v-1.4c0-.98-.02-1.88-.05-2.73l-.11-.1c-.2-.03-.42-.04-.66-.04-.44 0-.8.05-1.07.16-.27.1-.49.28-.65.53a1.6 1.6 0 00-.22.85c0 .3.07.57.22.83.14.25.38.46.71.62.34.16.8.24 1.4.25v.23a34.17 34.17 0 00-3.2 4.05 11.4 11.4 0 00-2.26 0l-.07-.07v-.36l.07-.06c.36-.03.6-.08.74-.15.14-.08.4-.34.78-.78l2.2-2.59v-.14c-1.45-.26-2.17-.92-2.17-1.98 0-.57.24-1.03.72-1.38a3.32 3.32 0 012-.53c.2 0 .58 0 1.11.03l1.23.04c.52 0 1.18-.03 1.96-.07l.06.06v.36l-.06.07c-.67.08-1.05.23-1.13.45-.09.2-.13.98-.13 2.3v1.55c0 1.34.04 2.11.13 2.32.1.2.47.35 1.13.44l.06.06V64l-.06.07c-.8-.05-1.45-.07-1.96-.07-.4 0-1 .02-1.82.07l-.06-.07zM238.23 55.25v-.5l.9-.9 1.04-1.11c.22-.26.4-.5.53-.73.12-.23.21-.43.26-.6.05-.19.08-.38.08-.56 0-.38-.1-.66-.29-.86-.19-.2-.45-.3-.78-.3-.18 0-.36.05-.52.12-.16.08-.3.19-.42.34-.06.2-.13.45-.2.77h-.38l.13-1.12.06-.54c.21-.2.45-.36.73-.46.28-.1.59-.15.93-.15.48 0 .87.08 1.16.24.3.15.52.37.67.66a1.85 1.85 0 01.13 1.43 4.17 4.17 0 01-.73 1.19l-.54.56-.51.5c-.27.27-.56.54-.87.82l.01.07h.86a100.83 100.83 0 002.14-.07l.04.07a3.07 3.07 0 00-.02 1.08l-.02.05-1.43-.04-.7-.01-2.26.05z" fill="#FAEAD1"/><path d="M570 34h125v50H570V34z" fill="#2F2317"/><path d="M591.48 64.97l-.07-.06v-.42l.07-.06c.97.04 1.72.06 2.25.06a139.83 139.83 0 003.33-.08c.77 0 1.38.08 1.83.23a2.24 2.24 0 011.5 2.14c0 .64-.23 1.22-.69 1.76-.45.55-1.2.93-2.22 1.17a9.2 9.2 0 011.52.24c.4.11.75.28 1.04.5.29.23.51.52.68.88.17.36.26.78.26 1.25a3.3 3.3 0 01-.8 2.26 4.9 4.9 0 01-2.43 1.55c-.46.12-1.02.18-1.7.18l-1.23-.04-1.23-.03c-.38 0-.86.02-1.42.07l-.07-.07v-.28l.07-.09c.33-.15.52-.25.57-.3.05-.06.09-.57.12-1.52.03-.95.05-1.67.05-2.18v-5.07a25.35 25.35 0 00-.08-1.6c-.01-.11-.05-.2-.1-.24a.5.5 0 00-.19-.11 1.68 1.68 0 00-.42-.09l-.64-.05zm3.06 4.49c.29.02.6.03.97.03 1.18 0 2-.2 2.46-.63.46-.42.7-1 .7-1.73 0-.43-.1-.8-.27-1.09-.18-.3-.46-.53-.84-.7a4.03 4.03 0 00-1.54-.23c-.53 0-1 .04-1.4.13-.05.51-.08 1.4-.08 2.68v1.54zm.02 6.23c.44.1.89.15 1.35.15a3.9 3.9 0 001.91-.4c.46-.25.8-.61 1.02-1.08.22-.46.33-.97.33-1.52 0-.82-.23-1.47-.7-1.96-.46-.5-1.46-.75-3-.75-.26 0-.57.02-.93.04v2.91l.02 2.6zM602.54 76.5v-.36l.07-.06c.34-.05.6-.1.76-.17.16-.06.27-.13.32-.21.06-.09.1-.2.1-.31a36.89 36.89 0 00.07-2.07v-1.55c0-1.34-.04-2.11-.13-2.32-.09-.2-.46-.35-1.12-.44l-.07-.06v-.36l.07-.06c.79.04 1.45.07 1.97.07.51 0 1.17-.03 1.98-.07l.06.06v.36l-.06.06c-.37.06-.63.11-.77.18a.75.75 0 00-.3.18.47.47 0 00-.11.24 39.38 39.38 0 00-.08 2.16v.15c.49-.03.95-.04 1.37-.04.74 0 1.3.07 1.69.21.4.14.7.38.93.74.23.35.34.76.34 1.23a2.42 2.42 0 01-1.47 2.26c-.4.16-.94.25-1.61.25-.18 0-.51-.01-1.01-.04a19.3 19.3 0 00-2.93.04l-.07-.07zm2.75-4.18v1.56c.01.85.03 1.39.04 1.63.01.24.06.4.14.49.09.08.27.12.55.12.68 0 1.2-.2 1.55-.6.35-.4.52-.93.52-1.57 0-.36-.06-.66-.18-.9-.12-.25-.31-.43-.57-.56a2.55 2.55 0 00-1.1-.19l-.95.02zm4.51-3.37v-.36l.07-.06c.8.04 1.45.07 1.98.07.52 0 1.18-.03 1.97-.07l.07.06v.36l-.07.06c-.34.05-.6.1-.76.17-.17.06-.28.13-.33.22a.75.75 0 00-.1.3 23.24 23.24 0 00-.07 2.07v1.55c0 1.35.05 2.12.13 2.33.1.2.47.34 1.13.43l.07.06v.36l-.07.07c-.8-.05-1.45-.07-1.97-.07-.53 0-1.2.02-1.98.07l-.07-.07v-.36l.07-.06c.67-.09 1.04-.24 1.13-.45.1-.21.14-.98.14-2.3v-1.56c0-1.33-.05-2.1-.14-2.31-.1-.21-.47-.36-1.13-.45l-.07-.06zM615.1 68.95v-.36l.05-.06a10.86 10.86 0 002.3 0c.13.19.27.4.4.65l1.37 2.32h.12a26.16 26.16 0 001.52-2.07.47.47 0 00.05-.18c0-.15-.1-.23-.3-.24l-.07-.06v-.36l.07-.06a9.5 9.5 0 002.17 0l.06.06v.36l-.06.06c-.29.06-.5.12-.65.2a2.6 2.6 0 00-.5.3c-.18.15-.5.5-.97 1.06l-1.18 1.38 1.59 2.67c.23.4.44.7.61.9.18.2.34.33.5.4.16.08.4.13.73.16l.06.06v.36l-.06.07a11.83 11.83 0 00-2.26-.04c-.13 0-.22-.03-.27-.08a6.17 6.17 0 01-.35-.66l-.77-1.47-.61-1.16h-.12l-1.58 2.24c-.14.18-.2.33-.2.46 0 .14.08.2.26.21l.07.06v.37l-.07.07a8.37 8.37 0 00-2.23 0l-.06-.07v-.36l.06-.06c.35-.02.59-.05.7-.1.13-.06.28-.17.45-.33.18-.18.53-.59 1.06-1.24l1.4-1.73a64.7 64.7 0 00-1.22-2.1 9.94 9.94 0 00-.75-1.15 1.06 1.06 0 00-.4-.28c-.14-.06-.43-.1-.87-.14l-.06-.06zM632.35 72.2a5.1 5.1 0 01-.35 1.93 4.1 4.1 0 01-3.98 2.61c-1.4 0-2.47-.4-3.2-1.2a4.3 4.3 0 01-1.1-3.01c0-.83.18-1.56.53-2.2.36-.65.87-1.14 1.53-1.49a5.14 5.14 0 012.36-.5c.88 0 1.63.16 2.25.49.62.32 1.1.78 1.44 1.38.35.6.52 1.25.52 1.98zm-1.65.5c0-1.14-.23-2.06-.7-2.75a2.33 2.33 0 00-2.06-1.03c-.76 0-1.38.27-1.86.8-.48.53-.72 1.34-.72 2.41 0 1.1.24 2.06.72 2.87a2.3 2.3 0 002.09 1.2c.79 0 1.4-.32 1.86-.96.45-.63.67-1.48.67-2.54zM636.99 68.95v-.36l.05-.06a23.07 23.07 0 003.63 0l.07.06c-.03.42-.04 1.65-.04 3.66 0 .83 0 2.04-.02 3.64l.06.07c.5 0 1.01-.03 1.5-.08l.11.1a29.9 29.9 0 00-.78 3.13h-.36c0-.27-.02-.67-.05-1.23a3.4 3.4 0 00-.12-.99c-.05-.1-.16-.2-.32-.27a3.2 3.2 0 00-1.02-.1h-.28l-2.25-.02c-.43 0-.95 0-1.54.03-.6.02-.96.05-1.07.08-.11.04-.2.1-.27.19a.98.98 0 00-.14.44 16.75 16.75 0 00-.03 1.87h-.37a20.83 20.83 0 00-.82-3.24l.12-.12c.4.06.73.1 1 .12l2.82-3.94c.97-1.36 1.49-2.1 1.55-2.24.07-.14.1-.24.1-.3 0-.17-.13-.26-.4-.27l-1.08-.1-.05-.07zm2.17.58a194.2 194.2 0 00-4.28 6.43h4.46l-.02-3.19c0-1.56-.02-2.64-.04-3.24h-.12zM644.4 70.7l-.33-.08-.07-.08v-1.06c.62-.4 1.14-.69 1.56-.87.43-.17.9-.26 1.4-.26.88 0 1.58.23 2.09.7.51.45.77 1.08.77 1.87l-.04 1.72v2.54c0 .31.02.51.07.61.05.1.12.16.2.2.1.03.29.06.56.08l.07.08v.34l-.07.07c-.44-.04-.79-.06-1.04-.06-.24 0-.6.02-1.1.06l-.14-.12.04-1.38-1.1.86-.77.6c-.3.13-.65.2-1.02.2a2.3 2.3 0 01-1.6-.54 1.93 1.93 0 01-.59-1.48c0-.65.17-1.17.5-1.58.34-.4.85-.72 1.53-.95.68-.24 1.7-.45 3.05-.63 0-.36-.03-.66-.08-.91a1.52 1.52 0 00-.35-.7c-.18-.24-.42-.4-.7-.52a2.87 2.87 0 00-2 .03c-.15.06-.24.11-.27.14a21.25 21.25 0 00-.5 1.09l-.07.04zm3.97 1.33a8.66 8.66 0 00-2.78.79c-.53.3-.8.8-.8 1.5 0 .44.12.78.36 1.01.24.23.56.35.97.35.76 0 1.5-.44 2.25-1.32v-2.33zM658.66 72.05l2.17.03c.46 0 1.18 0 2.15-.03v-.23c0-.42 0-.91-.02-1.47a3 3 0 00-.11-1 .42.42 0 00-.23-.22c-.1-.04-.35-.08-.77-.12l-.07-.06v-.36l.07-.06a22.6 22.6 0 003.6 0l.07.06v.36l-.06.06c-.43.04-.7.08-.79.12-.1.04-.16.11-.22.23-.06.1-.1.38-.1.83-.02.43-.02.98-.02 1.63v1.45l.02 1.5c0 .55.04.88.1.99.06.1.14.18.24.21.1.03.35.07.77.11l.06.06v.36l-.06.07a22.64 22.64 0 00-3.6 0l-.08-.07v-.36l.07-.06c.43-.04.69-.08.78-.1.1-.05.17-.12.23-.23.06-.11.09-.37.1-.79l.02-1.69v-.68a80.2 80.2 0 00-4.32 0v.68c0 .45 0 .95.02 1.5.01.55.05.88.1.99.07.1.14.18.24.21.1.03.36.07.77.11l.07.06v.36l-.07.07a22.6 22.6 0 00-3.6 0l-.07-.07v-.36l.06-.06c.43-.04.7-.08.78-.1.1-.05.17-.12.22-.23.07-.11.1-.37.12-.79l.01-1.69v-1.45l-.01-1.49a2.95 2.95 0 00-.12-.99.45.45 0 00-.23-.21 3.4 3.4 0 00-.77-.12l-.06-.06v-.36l.06-.06a22.42 22.42 0 003.61 0l.07.06v.36l-.07.06a4.7 4.7 0 00-.78.12c-.1.03-.17.1-.23.22-.05.1-.09.37-.1.78l-.02 1.69v.23zM673.49 75.24l-.27.62a5.23 5.23 0 01-2.83.91c-.69 0-1.34-.13-1.95-.4a3.3 3.3 0 01-1.5-1.36 5.46 5.46 0 01.11-5 5.46 5.46 0 012.06-1.46 3.78 3.78 0 013.2.23c.53.32.9.73 1.11 1.23a4.08 4.08 0 01.3 2.12l-.1.09c-.39.08-.91.14-1.57.17l-1.3.04h-2.74c.01 1.18.3 2.05.89 2.6.58.57 1.3.85 2.14.85.4 0 .78-.07 1.14-.2.37-.15.76-.34 1.17-.58l.14.14zm-5.48-3.5a51.16 51.16 0 002.7.1c.8 0 1.28-.01 1.45-.04l.01-.32c0-.88-.18-1.53-.53-1.96a1.8 1.8 0 00-1.48-.65c-.67 0-1.2.24-1.58.73-.38.48-.57 1.2-.57 2.15zM674.65 68.59l.07-.06a73.5 73.5 0 007.47 0l.06.06a43.3 43.3 0 00-.05 1.9l-.06.05h-.34l-.05-.05a6.44 6.44 0 00-.18-1.08c-.04-.12-.1-.19-.2-.22a1.44 1.44 0 00-.47-.06h-1.74l-.03 2.2v1.94c0 .42 0 .91.02 1.48 0 .56.04.89.1 1 .05.1.13.18.23.22.1.03.36.07.78.11l.07.06v.36l-.07.07a22.6 22.6 0 00-3.61 0l-.07-.07v-.36l.07-.06c.43-.04.69-.08.78-.1.1-.05.17-.12.23-.23.06-.12.09-.4.1-.83l.02-1.65v-1.92l-.04-2.22H676c-.24 0-.4.02-.5.06-.07.04-.14.12-.18.24-.04.12-.1.48-.17 1.06l-.05.05h-.34l-.06-.05-.05-1.9zM581.74 67.66a19.04 19.04 0 00-.25-1.48l.33-.1c.12.3.25.54.4.73.15.18.33.32.53.4.2.1.41.14.63.14.36 0 .66-.12.88-.35.23-.24.34-.55.34-.95 0-.42-.13-.74-.37-.95a1.37 1.37 0 00-.93-.31c-.18 0-.37.02-.58.08l-.06-.06.01-.06.09-.3.1-.37h.39a1.1 1.1 0 00.92-.52c.1-.17.15-.34.15-.52 0-.26-.1-.47-.28-.64a1 1 0 00-.72-.26c-.19 0-.36.03-.52.1a.8.8 0 00-.35.22c-.08.09-.15.25-.23.48l-.08.2-.35-.02.21-1c.03-.14.06-.3.08-.5.21-.16.45-.28.71-.35.27-.08.56-.12.88-.12.57 0 1 .13 1.31.4.3.27.45.6.45 1 0 .3-.09.57-.26.81-.18.23-.46.45-.82.64a1.6 1.6 0 01.76.22 1.35 1.35 0 01.64.72 2.1 2.1 0 01-.67 2.17 3.1 3.1 0 01-3.34.55z" fill="#FAEAD1"/><path d="M10 34h187v50H10V34z" fill="#2F2317"/><path d="M47.8 39.43l.07.06a487.49 487.49 0 000 11.19l.14.13c.63-.04 1.05-.07 1.26-.1l.12.16c-.34 1.26-.63 2.6-.88 4.03l-.14.14h-.2l-.15-.14.04-1.99c0-.46-.02-.76-.06-.9a.57.57 0 00-.2-.3 1.2 1.2 0 00-.5-.14 264.61 264.61 0 00-7.31-.05c-.75 0-1.21.04-1.38.08a.6.6 0 00-.35.27c-.07.13-.1.45-.1.95 0 .16 0 .84.04 2.03l-.15.15h-.2l-.14-.15c-.26-1.46-.55-2.8-.88-4.03l.11-.16c.36.06.78.1 1.27.1.7-.93 1.46-1.98 2.25-3.13l2.13-3.08 1.67-2.42c.48-.7.74-1.11.8-1.22l.1-.22a.5.5 0 00.02-.12c0-.18-.12-.31-.35-.4a9.08 9.08 0 00-1.91-.2l-.07-.06v-.42l.07-.06c.06 0 .4 0 1.01.03a35.13 35.13 0 003.87-.03zm-1.62 11.24a252.5 252.5 0 000-10.14h-.23c-3.26 5.03-5.4 8.41-6.4 10.14l.12.13a80.45 80.45 0 006.38 0l.13-.13zM50.48 51.5v-.36l.06-.06c.43-.04.69-.07.78-.1.1-.05.16-.12.22-.23.06-.1.1-.37.11-.79l.02-1.69v-1.45c0-.45 0-.94-.02-1.49a2.98 2.98 0 00-.1-.99.45.45 0 00-.25-.21c-.09-.04-.34-.08-.76-.11l-.06-.07v-.36l.06-.06a32.88 32.88 0 002.59.05c1-.03 1.67-.04 2.04-.04.66 0 1.14.14 1.44.43.3.3.46.66.46 1.1 0 .93-.63 1.57-1.9 1.91.79.05 1.37.24 1.74.59.38.34.56.79.56 1.34 0 .68-.26 1.29-.77 1.83s-1.34.81-2.47.81l-.5-.02a24.54 24.54 0 00-3.19.04l-.06-.07zm2.54-4.62l.54.02c.8 0 1.34-.13 1.65-.39.32-.26.48-.62.48-1.08 0-.4-.13-.72-.38-.98s-.7-.4-1.34-.4c-.28 0-.58.02-.9.05l-.05 2.78zm0 .51l.06 3.56c.28.04.6.06.93.06.5 0 .89-.1 1.18-.29.3-.2.5-.43.63-.7a2.2 2.2 0 00-.07-1.9 1.32 1.32 0 00-.75-.6c-.32-.1-.77-.16-1.35-.16l-.63.03zM65.72 50.24l-.27.62a5.2 5.2 0 01-2.82.91 4.8 4.8 0 01-1.94-.4c-.61-.27-1.1-.72-1.5-1.36a5.47 5.47 0 01.11-5 5.43 5.43 0 012.05-1.46 3.76 3.76 0 013.2.23c.53.32.9.73 1.1 1.24a4.09 4.09 0 01.3 2.1l-.1.1c-.39.09-.9.14-1.56.17l-1.3.04h-2.73c.01 1.18.3 2.05.89 2.61.58.56 1.29.84 2.13.84.4 0 .77-.07 1.14-.2.37-.14.76-.34 1.17-.58l.13.14zm-5.46-3.49a50.92 50.92 0 002.7.1c.8 0 1.27-.02 1.44-.05l.01-.32c0-.88-.18-1.53-.54-1.96a1.8 1.8 0 00-1.46-.65c-.68 0-1.2.24-1.59.73-.37.48-.56 1.2-.56 2.15zM74.96 43.95v-.36l.06-.06a22.96 22.96 0 003.61 0l.07.06c-.02.43-.03 1.65-.03 3.66l-.03 3.64.06.07c.51 0 1.01-.03 1.5-.08l.11.1a29.9 29.9 0 00-.77 3.13h-.37c0-.27-.01-.67-.04-1.23a3.43 3.43 0 00-.12-.99c-.05-.1-.16-.2-.33-.27-.16-.07-.5-.1-1.01-.1h-.28l-2.24-.02c-.43 0-.95 0-1.55.03-.6.02-.95.05-1.06.08-.1.04-.2.1-.26.19a.99.99 0 00-.15.44 16.88 16.88 0 00-.02 1.87h-.37a20.82 20.82 0 00-.82-3.24l.11-.12c.4.06.73.1 1 .12l2.81-3.94c.97-1.36 1.49-2.1 1.55-2.24.07-.14.1-.24.1-.3 0-.17-.13-.26-.4-.27l-1.07-.1-.06-.07zm2.17.58c-1.85 2.7-3.27 4.84-4.27 6.43h4.44l-.01-3.18c0-1.57-.02-2.65-.04-3.25h-.12zM83.72 43.25l.15.1a24.4 24.4 0 00-.09 1.73 29.28 29.28 0 011.73-1.47c.13-.08.31-.14.55-.2.25-.04.55-.07.9-.07a3.2 3.2 0 012.47.97c.6.65.9 1.48.9 2.5 0 .41-.06.84-.2 1.27a5.26 5.26 0 01-1.04 1.88c-.12.1-.45.31-1 .64-.22.13-.44.28-.67.45-.32.23-.54.37-.64.43a3.04 3.04 0 01-1.24.25c-.59 0-1.17-.15-1.76-.45v1.6l.03 1.64c.03.66.07 1.03.12 1.12.05.09.11.15.2.18.1.02.37.06.83.1l.07.07v.36l-.07.07a28.48 28.48 0 00-3.79 0l-.07-.07v-.36l.07-.07c.43-.04.7-.06.78-.09.09-.02.15-.06.2-.1a.47.47 0 00.1-.25 49.82 49.82 0 00.11-2.6v-6.56a17.95 17.95 0 00-.09-1.68.26.26 0 00-.13-.15c-.06-.05-.2-.07-.41-.07l-.55-.02-.08-.07v-.37l.07-.07c1.02-.15 1.87-.36 2.55-.64zm.06 6.56c.65.66 1.4.99 2.25.99.87 0 1.55-.33 2.05-.98.5-.66.75-1.46.75-2.4 0-.58-.12-1.1-.34-1.56a2.35 2.35 0 00-.98-1.07 2.65 2.65 0 00-1.34-.37 2.75 2.75 0 00-2.2 1.2c-.1.17-.16.3-.17.4l-.02.47v3.32zM90.94 54.46l.26-.05c.15.33.34.54.56.65.22.1.47.16.76.16.54 0 .98-.19 1.33-.57.36-.37.84-1.28 1.45-2.74l-1.72-4.1-1.23-2.88c-.11-.25-.24-.45-.38-.59-.14-.14-.43-.25-.86-.32l-.06-.07v-.36l.06-.06a27.57 27.57 0 003.66 0l.06.06v.36l-.06.07c-.44.07-.7.14-.8.22-.09.07-.13.16-.13.25 0 .08.01.15.04.23l.37.94 1.73 4.2h.17l1.47-3.58c.29-.7.45-1.13.5-1.27.04-.15.06-.27.06-.36a.45.45 0 00-.12-.32.61.61 0 00-.3-.19 7.21 7.21 0 00-.7-.12l-.06-.07v-.36l.06-.06c.62.04 1.16.07 1.63.07.53 0 1.02-.03 1.47-.07l.07.06v.36l-.07.07c-.28.04-.5.11-.66.23-.22.17-.46.5-.72.98-.2.36-.75 1.6-1.68 3.74l-1.88 4.3a9.8 9.8 0 01-1.18 2.14 2.58 2.58 0 01-2.13 1.07c-.29 0-.56-.05-.8-.16-.02-.68-.08-1.3-.17-1.86zM100.91 43.59l.07-.06c.59.04 1.2.07 1.81.07 1.44 0 2.34 0 2.71-.02.37-.01.93-.05 1.67-.1l.06.07c-.09.63-.15 1.3-.2 1.99l-.05.06h-.3l-.05-.06a7.8 7.8 0 00-.16-.9.68.68 0 00-.17-.32.54.54 0 00-.28-.14 3.3 3.3 0 00-.68-.05h-1.62l-.07.06v4.13a10 10 0 00.14 2.32c.1.2.47.35 1.13.44l.05.06v.36l-.05.07c-.8-.05-1.46-.07-1.97-.07-.53 0-1.19.02-1.97.07l-.07-.07v-.36l.07-.06c.34-.05.6-.1.76-.17.16-.06.27-.13.32-.21.06-.09.1-.2.1-.31.02-.12.03-.43.05-.92l.02-1.15v-1.54c0-1.35-.05-2.12-.14-2.33-.08-.2-.45-.35-1.11-.43l-.07-.07v-.36zM107.9 51.5v-.36l.07-.06c.34-.05.59-.1.75-.17.17-.06.28-.13.33-.21.06-.09.09-.2.1-.31a33.94 33.94 0 00.07-2.07v-1.54a10 10 0 00-.14-2.33c-.08-.2-.45-.35-1.11-.43l-.07-.07v-.36l.07-.06c.79.04 1.44.07 1.97.07.5 0 1.16-.03 1.96-.07l.06.06v.36l-.06.07c-.36.05-.62.1-.76.17a.75.75 0 00-.3.18.47.47 0 00-.11.24 39.94 39.94 0 00-.09 2.16v3.53l.14.06a124.6 124.6 0 004.04-6.83 16.21 16.21 0 002.7 0l.07.06v.36l-.07.07c-.66.08-1.04.23-1.13.45-.08.2-.12.98-.12 2.3v1.55c0 1.34.04 2.11.13 2.32.09.2.46.35 1.12.44l.07.06v.36l-.07.07c-.79-.05-1.45-.07-1.97-.07-.5 0-1.16.02-1.97.07l-.07-.07v-.36l.07-.06c.67-.09 1.04-.24 1.13-.45.09-.21.13-.98.13-2.3v-3.49l-.13-.05c-.42.62-1.08 1.72-2 3.3a80.23 80.23 0 00-1.91 3.48 16.04 16.04 0 00-2.83 0l-.07-.07zM125.79 50.24l-.28.62a5.2 5.2 0 01-2.82.91 4.8 4.8 0 01-1.94-.4c-.6-.27-1.1-.72-1.5-1.36a5.46 5.46 0 01.11-5 5.42 5.42 0 012.05-1.46 3.76 3.76 0 013.2.23c.53.32.9.73 1.1 1.24a4.1 4.1 0 01.3 2.1l-.1.1c-.38.09-.9.14-1.56.17l-1.3.04h-2.73c.02 1.18.31 2.05.89 2.61.58.56 1.29.84 2.13.84.4 0 .78-.07 1.14-.2.37-.14.76-.34 1.17-.58l.14.14zm-5.47-3.49a50.94 50.94 0 002.7.1c.8 0 1.28-.02 1.45-.05v-.32c0-.88-.17-1.53-.53-1.96a1.8 1.8 0 00-1.47-.65c-.67 0-1.2.24-1.58.73-.38.48-.57 1.2-.57 2.15zM135.02 43.95v-.36l.06-.06a22.96 22.96 0 003.62 0l.06.06c-.02.43-.03 1.65-.03 3.66 0 .83 0 2.04-.02 3.64l.05.07c.52 0 1.02-.03 1.5-.08l.12.1c-.27.85-.53 1.89-.78 3.13h-.37c0-.27-.01-.67-.04-1.23a3.4 3.4 0 00-.12-.99c-.05-.1-.16-.2-.32-.27-.17-.07-.5-.1-1.02-.1h-.28l-2.24-.02c-.43 0-.94 0-1.54.03-.6.02-.95.05-1.07.08-.1.04-.2.1-.26.19a.97.97 0 00-.15.44 16.75 16.75 0 00-.02 1.87h-.37a20.86 20.86 0 00-.81-3.24l.1-.12c.4.06.73.1 1 .12l2.81-3.94c.98-1.36 1.5-2.1 1.56-2.24.06-.14.1-.24.1-.3 0-.17-.13-.26-.4-.27l-1.08-.1-.06-.07zm2.18.58c-1.85 2.7-3.28 4.84-4.27 6.43h4.44l-.02-3.18c0-1.57-.02-2.65-.03-3.25h-.12zM141.13 51.5v-.36l.07-.06c.43-.04.69-.07.78-.1.09-.05.16-.12.22-.23.06-.1.1-.37.11-.79l.02-1.69v-1.45c0-.45 0-.94-.02-1.49a3 3 0 00-.11-.99.45.45 0 00-.24-.21c-.09-.04-.34-.08-.76-.11l-.07-.07v-.36l.07-.06a32.85 32.85 0 002.59.05c.99-.03 1.67-.04 2.04-.04.65 0 1.13.14 1.44.43.3.3.46.66.46 1.1 0 .93-.63 1.57-1.9 1.91.78.05 1.36.24 1.74.59.37.34.56.79.56 1.34 0 .68-.26 1.29-.77 1.83-.52.54-1.34.81-2.48.81l-.5-.02a24.5 24.5 0 00-3.18.04l-.07-.07zm2.54-4.62l.55.02c.79 0 1.34-.13 1.65-.39.32-.26.48-.62.48-1.08 0-.4-.13-.72-.38-.98s-.7-.4-1.34-.4c-.29 0-.58.02-.9.05l-.06 2.78zm0 .51l.06 3.56c.29.04.6.06.94.06.5 0 .89-.1 1.18-.29.3-.2.5-.43.63-.7a2.19 2.19 0 00-.07-1.9 1.33 1.33 0 00-.75-.6c-.32-.1-.77-.16-1.35-.16l-.64.03zM156.38 50.24l-.27.62a5.2 5.2 0 01-2.82.91 4.8 4.8 0 01-1.95-.4c-.6-.27-1.1-.72-1.49-1.36a5.46 5.46 0 01.11-5 5.42 5.42 0 012.05-1.46 3.77 3.77 0 013.2.23c.53.32.9.73 1.1 1.24a4.08 4.08 0 01.3 2.1l-.1.1c-.39.09-.9.14-1.56.17l-1.3.04h-2.73c0 1.18.3 2.05.88 2.61.58.56 1.3.84 2.13.84.4 0 .78-.07 1.15-.2.37-.14.75-.34 1.16-.58l.14.14zm-5.46-3.49a50.9 50.9 0 002.7.1c.79 0 1.27-.02 1.44-.05v-.32c0-.88-.17-1.53-.53-1.96a1.8 1.8 0 00-1.47-.65c-.67 0-1.2.24-1.58.73-.38.48-.56 1.2-.56 2.15zM160.39 43.25l.15.1c-.06.68-.09 1.25-.1 1.73a29.01 29.01 0 011.74-1.47c.12-.08.3-.14.55-.2.24-.04.55-.07.9-.07a3.2 3.2 0 012.47.97c.6.65.9 1.48.9 2.5 0 .41-.07.84-.2 1.27a5.31 5.31 0 01-1.05 1.88c-.11.1-.45.31-1 .64-.21.13-.44.28-.66.45-.33.23-.54.37-.65.43a3.04 3.04 0 01-1.23.25c-.6 0-1.18-.15-1.76-.45v1.6c0 .43 0 .98.03 1.64.03.66.06 1.03.11 1.12.05.09.12.15.2.18.1.02.37.06.83.1l.08.07v.36l-.08.07a28.5 28.5 0 00-3.78 0l-.07-.07v-.36l.07-.07c.43-.04.69-.06.77-.09.1-.02.16-.06.2-.1a.47.47 0 00.1-.25 48.58 48.58 0 00.11-2.6v-6.56a17.64 17.64 0 00-.08-1.68.25.25 0 00-.13-.15c-.06-.05-.2-.07-.42-.07a39 39 0 01-.54-.02l-.08-.07v-.37l.07-.07c1.01-.15 1.86-.36 2.55-.64zm.06 6.56c.65.66 1.4.99 2.25.99.87 0 1.55-.33 2.04-.98.5-.66.75-1.46.75-2.4 0-.58-.11-1.1-.33-1.56a2.35 2.35 0 00-.98-1.07 2.64 2.64 0 00-1.35-.37 2.74 2.74 0 00-2.2 1.2c-.1.17-.16.3-.17.4l-.01.47v3.32zM168.39 51.5v-.36l.07-.06c.34-.05.59-.1.75-.17.17-.06.28-.13.33-.21.06-.09.09-.2.1-.31a36.22 36.22 0 00.07-2.07v-1.54a10 10 0 00-.14-2.33c-.08-.2-.45-.35-1.11-.43l-.07-.07v-.36l.07-.06c.79.04 1.44.07 1.97.07.5 0 1.16-.03 1.96-.07l.06.06v.36l-.06.07c-.36.05-.62.1-.76.17a.75.75 0 00-.3.18.47.47 0 00-.11.24 39.94 39.94 0 00-.09 2.16v3.53l.14.06a124.6 124.6 0 004.04-6.83 16.21 16.21 0 002.7 0l.07.06v.36l-.07.07c-.66.08-1.04.23-1.13.45-.08.2-.12.98-.12 2.3v1.55c0 1.34.04 2.11.13 2.32.09.2.46.35 1.12.44l.07.06v.36l-.07.07c-.79-.05-1.45-.07-1.97-.07-.5 0-1.16.02-1.97.07l-.07-.07v-.36l.07-.06c.67-.09 1.04-.24 1.13-.45.09-.21.13-.98.13-2.3v-3.49l-.13-.05c-.42.62-1.08 1.72-2 3.3a80.23 80.23 0 00-1.91 3.48 16.04 16.04 0 00-2.83 0l-.07-.07zM38 76.5v-.36l.08-.06c.42-.04.68-.07.77-.1.1-.05.17-.12.22-.23.07-.1.1-.37.11-.79.02-.41.02-.98.02-1.69v-1.45c0-.45 0-.94-.02-1.49a2.98 2.98 0 00-.1-.99.45.45 0 00-.25-.21c-.09-.04-.34-.08-.75-.11l-.07-.07v-.36l.07-.06a32.87 32.87 0 002.58.05c1-.03 1.67-.04 2.04-.04.66 0 1.14.14 1.44.43.31.3.46.66.46 1.1 0 .93-.63 1.57-1.9 1.91.79.05 1.37.24 1.74.59.38.34.56.79.56 1.34 0 .68-.25 1.29-.77 1.83-.51.54-1.34.81-2.47.81l-.5-.02a24.54 24.54 0 00-3.18.04L38 76.5zm2.55-4.62l.54.02c.8 0 1.34-.13 1.66-.39.31-.26.47-.62.47-1.08 0-.4-.12-.72-.38-.98-.25-.26-.7-.4-1.34-.4-.28 0-.58.02-.9.05l-.05 2.78zm0 .51l.06 3.56c.28.04.6.06.93.06.5 0 .9-.1 1.18-.29.3-.2.5-.43.63-.7a2.19 2.19 0 00-.07-1.9 1.32 1.32 0 00-.75-.6c-.32-.1-.77-.16-1.34-.16l-.64.03zM53.25 75.24l-.27.62a5.2 5.2 0 01-2.82.91 4.8 4.8 0 01-1.94-.4c-.61-.27-1.1-.72-1.5-1.36a5.47 5.47 0 01.11-5 5.43 5.43 0 012.05-1.46 3.76 3.76 0 013.2.23c.53.32.9.73 1.1 1.24a4.09 4.09 0 01.3 2.1l-.1.1c-.38.09-.9.14-1.56.17l-1.3.04H47.8c.01 1.18.3 2.05.89 2.61.58.56 1.29.84 2.13.84.4 0 .78-.07 1.14-.2.37-.14.76-.34 1.17-.58l.13.14zm-5.46-3.49a50.9 50.9 0 002.7.1c.8 0 1.27-.02 1.44-.05l.01-.32c0-.88-.18-1.53-.54-1.96a1.8 1.8 0 00-1.46-.65c-.68 0-1.2.24-1.59.73-.37.48-.56 1.2-.56 2.15zM58.13 68.95v-.36l.06-.06a22.96 22.96 0 003.61 0l.07.06c-.02.43-.03 1.65-.03 3.66l-.03 3.64.06.07c.51 0 1.01-.03 1.5-.08l.11.1c-.27.85-.52 1.89-.77 3.13h-.37l-.04-1.22a3.43 3.43 0 00-.12-1c-.05-.1-.16-.2-.33-.27-.16-.07-.5-.1-1.01-.1h-.28l-2.24-.02c-.44 0-.95 0-1.55.03-.6.02-.95.05-1.06.08-.1.04-.2.1-.27.19a.99.99 0 00-.14.44 16.88 16.88 0 00-.03 1.87h-.36a20.82 20.82 0 00-.82-3.24l.11-.12c.4.06.73.1 1 .12L58 71.93c.97-1.36 1.49-2.1 1.55-2.24.07-.14.1-.24.1-.3 0-.17-.13-.25-.4-.27l-1.07-.1-.06-.07zm2.17.58c-1.85 2.7-3.27 4.84-4.27 6.43h4.44l-.01-3.18c-.01-1.57-.02-2.65-.04-3.25h-.12zM63.6 79.46l.27-.05c.15.33.34.54.56.65.22.1.47.16.76.16.54 0 .98-.19 1.33-.57.36-.37.84-1.28 1.45-2.74l-1.72-4.1-1.24-2.88c-.1-.25-.23-.45-.37-.59-.14-.14-.43-.25-.86-.32l-.06-.07v-.36l.06-.06a27.57 27.57 0 003.66 0l.06.06v.36l-.06.07c-.44.07-.7.14-.8.22-.09.07-.13.16-.13.25 0 .08.01.15.04.23l.37.94 1.73 4.2h.17l1.47-3.58c.29-.7.45-1.13.5-1.27.04-.15.06-.27.06-.36a.45.45 0 00-.12-.32.61.61 0 00-.3-.19 7.21 7.21 0 00-.7-.12l-.06-.07v-.36l.06-.06c.62.04 1.16.07 1.63.07.53 0 1.02-.03 1.47-.07l.07.06v.36l-.07.07c-.28.04-.5.12-.67.23-.21.17-.45.5-.71.98-.2.36-.75 1.6-1.68 3.74l-1.88 4.3a9.8 9.8 0 01-1.18 2.14 2.58 2.58 0 01-2.13 1.07c-.29 0-.56-.05-.8-.16-.02-.68-.08-1.3-.17-1.86zM73.23 68.59l.07-.06a73.09 73.09 0 007.45 0l.06.06c-.04.75-.05 1.39-.05 1.9l-.06.05h-.34l-.05-.05a6.53 6.53 0 00-.18-1.08c-.04-.12-.1-.19-.2-.22a1.43 1.43 0 00-.47-.05h-1.73l-.03 2.18v1.95l.01 1.48c.01.56.05.9.1 1 .06.1.14.18.24.22.1.04.35.07.77.11l.07.06v.36l-.07.07a22.5 22.5 0 00-3.6 0l-.06-.07v-.36l.06-.06c.43-.04.69-.07.78-.1.1-.05.17-.12.23-.23.06-.12.1-.4.1-.83l.02-1.65v-1.92l-.04-2.21h-1.73c-.25 0-.41.02-.5.05-.08.04-.14.12-.19.24-.03.12-.1.48-.17 1.06l-.05.05h-.33l-.06-.05-.05-1.9zM86.02 76.5v-.36l.07-.06c.43-.04.68-.07.78-.1.09-.05.16-.12.22-.23.06-.1.1-.37.1-.79.02-.41.02-.98.02-1.69v-1.45l-.01-1.49a2.98 2.98 0 00-.11-.99.45.45 0 00-.24-.21c-.1-.04-.35-.08-.76-.11l-.07-.07v-.36l.07-.06a32.87 32.87 0 002.58.05c1-.03 1.68-.04 2.05-.04.65 0 1.13.14 1.44.43.3.3.46.66.46 1.1 0 .93-.64 1.57-1.9 1.91.78.05 1.36.24 1.74.59.37.34.56.79.56 1.34 0 .68-.26 1.29-.78 1.83-.5.54-1.33.81-2.47.81l-.5-.02a24.54 24.54 0 00-3.18.04l-.07-.07zm2.54-4.62l.55.02c.79 0 1.34-.13 1.65-.39.32-.26.48-.62.48-1.08 0-.4-.13-.72-.39-.98-.25-.26-.7-.4-1.33-.4-.29 0-.59.02-.9.05l-.06 2.78zm0 .51l.06 3.56c.29.04.6.06.94.06.5 0 .88-.1 1.17-.29.3-.2.51-.43.64-.7a2.19 2.19 0 00-.07-1.9 1.32 1.32 0 00-.75-.6c-.33-.1-.78-.16-1.35-.16l-.64.03zM98.4 64.97l-.06-.06v-.42l.06-.06c.98.04 1.73.07 2.25.07a139.43 139.43 0 003.33-.09c.77 0 1.37.08 1.82.23a2.24 2.24 0 011.5 2.14c0 .64-.23 1.22-.69 1.77-.45.54-1.2.92-2.21 1.16.6.05 1.11.14 1.51.25.4.1.74.27 1.03.5.3.22.52.51.69.87.17.36.25.78.25 1.25a3.3 3.3 0 01-.8 2.26 4.87 4.87 0 01-2.43 1.55c-.45.12-1 .18-1.68.18l-1.22-.04-1.23-.03c-.39 0-.86.02-1.43.07l-.06-.07v-.28l.06-.09c.33-.14.52-.25.58-.3.05-.06.09-.57.12-1.52.03-.95.05-1.67.05-2.18V69l-.01-1.94a24.6 24.6 0 00-.07-1.6c-.02-.11-.05-.2-.1-.24a.5.5 0 00-.19-.11 1.66 1.66 0 00-.42-.09l-.65-.05zm3.06 4.49c.29.02.6.03.97.03 1.17 0 2-.2 2.45-.63.46-.42.7-1 .7-1.73 0-.43-.1-.8-.27-1.09-.18-.3-.46-.53-.84-.69a4 4 0 00-1.53-.24c-.53 0-1 .04-1.4.13-.05.51-.08 1.4-.08 2.68v1.54zm.02 6.23c.44.1.89.15 1.35.15.81 0 1.45-.13 1.9-.39.47-.26.8-.62 1.02-1.09.22-.46.33-.97.33-1.52 0-.82-.23-1.47-.7-1.96-.46-.5-1.46-.75-3-.75-.25 0-.56.02-.92.04v2.91l.02 2.6zM116.3 75.24l-.27.62a5.2 5.2 0 01-2.82.91c-.68 0-1.33-.13-1.95-.4-.6-.27-1.1-.72-1.49-1.36a5.46 5.46 0 01.11-5 5.44 5.44 0 012.05-1.46 3.76 3.76 0 013.2.23c.53.32.9.73 1.1 1.24a4.1 4.1 0 01.3 2.1l-.1.1c-.39.09-.9.14-1.56.17l-1.3.04h-2.73c.01 1.18.3 2.05.88 2.61a3.22 3.22 0 003.27.63c.38-.13.77-.33 1.18-.57l.13.14zm-5.46-3.49a50.94 50.94 0 002.7.1c.79 0 1.27-.02 1.44-.05v-.32c0-.88-.17-1.53-.53-1.96a1.8 1.8 0 00-1.46-.65c-.68 0-1.2.24-1.59.73-.37.48-.56 1.2-.56 2.15zM124.53 75.59l-.34.57a5 5 0 01-2.45.6 3.72 3.72 0 01-2.9-1.11 4.11 4.11 0 01-1.02-2.9c0-.53.06-1 .17-1.42.12-.42.27-.77.44-1.04.18-.27.38-.5.6-.65a11.23 11.23 0 012.26-1.22c.26-.1.62-.14 1.08-.14.88 0 1.6.17 2.16.5-.1.65-.19 1.37-.24 2.16l-.08.07h-.35l-.08-.08a6.3 6.3 0 00-.09-.97c-.04-.16-.27-.34-.68-.53a3.1 3.1 0 00-1.32-.28c-.46 0-.88.1-1.24.3-.36.2-.64.52-.83.97a4.2 4.2 0 00-.27 1.6c0 .52.08 1.03.22 1.53.15.5.34.91.58 1.24a2.93 2.93 0 002.3 1.09c.3 0 .6-.04.89-.12.3-.08.63-.21 1.01-.4l.18.23zM125.22 68.59l.06-.06a73.11 73.11 0 007.45 0l.06.06a43.3 43.3 0 00-.05 1.9l-.05.05h-.34l-.05-.05a6.6 6.6 0 00-.18-1.08c-.05-.12-.11-.19-.2-.22a1.43 1.43 0 00-.47-.05h-1.73l-.04 2.18v1.95c0 .42 0 .92.02 1.48 0 .56.04.9.1 1 .06.1.13.18.23.22.1.04.35.07.78.11l.06.06v.36l-.06.07a22.54 22.54 0 00-3.6 0l-.07-.07v-.36l.07-.06c.43-.04.68-.07.78-.1.1-.05.17-.12.23-.23.05-.12.09-.4.1-.83l.01-1.65v-1.92l-.04-2.21h-1.73c-.24 0-.4.02-.5.05-.07.04-.14.12-.18.24-.04.12-.1.48-.17 1.06l-.05.05h-.33l-.06-.05-.05-1.9zM140.66 75.24l-.28.62a5.2 5.2 0 01-2.82.91 4.8 4.8 0 01-1.94-.4c-.6-.27-1.1-.72-1.5-1.36a5.46 5.46 0 01.11-5 5.41 5.41 0 012.05-1.46 3.77 3.77 0 013.21.23c.52.32.89.73 1.1 1.24a4.1 4.1 0 01.29 2.1l-.1.1c-.38.09-.9.14-1.55.17l-1.3.04h-2.74c.02 1.18.31 2.05.9 2.61.57.56 1.28.84 2.12.84.4 0 .78-.07 1.14-.2.37-.14.76-.34 1.17-.58l.14.14zm-5.47-3.49a50.9 50.9 0 002.7.1c.8 0 1.28-.02 1.45-.05v-.32c0-.88-.17-1.53-.53-1.96a1.8 1.8 0 00-1.47-.65c-.67 0-1.2.24-1.58.73-.38.48-.56 1.2-.56 2.15zM144.66 68.25l.16.1c-.06.68-.1 1.26-.1 1.73a29.91 29.91 0 011.73-1.47c.13-.08.31-.14.56-.2.24-.04.54-.07.9-.07a3.2 3.2 0 012.46.97c.6.65.9 1.48.9 2.5 0 .41-.06.84-.2 1.27a5.22 5.22 0 01-1.04 1.88c-.12.1-.45.31-1 .64a8.6 8.6 0 00-.67.45c-.32.23-.54.37-.64.43a3.05 3.05 0 01-1.24.25c-.58 0-1.17-.15-1.76-.45v1.6c0 .43.01.98.04 1.64.03.66.06 1.03.1 1.12.06.09.13.15.21.18.1.02.37.06.83.1l.07.07v.36l-.07.07a28.46 28.46 0 00-3.78 0l-.07-.07v-.36l.06-.07c.44-.04.7-.06.78-.09.1-.02.16-.06.2-.1a.47.47 0 00.1-.25 48.58 48.58 0 00.11-2.6v-6.56a17.64 17.64 0 00-.09-1.68.26.26 0 00-.12-.15c-.07-.05-.2-.07-.42-.07l-.55-.02-.07-.07v-.37l.06-.07c1.02-.15 1.87-.36 2.55-.64zm.06 6.56c.66.66 1.4.99 2.25.99.87 0 1.55-.33 2.05-.98.5-.66.75-1.46.75-2.4 0-.58-.11-1.1-.34-1.56a2.35 2.35 0 00-.97-1.07 2.65 2.65 0 00-1.35-.37 2.74 2.74 0 00-2.2 1.2c-.1.17-.16.3-.17.4l-.02.47v3.32zM161.18 72.2c0 .71-.12 1.36-.35 1.93a4.1 4.1 0 01-3.97 2.61c-1.4 0-2.47-.4-3.2-1.2-.72-.8-1.09-1.81-1.09-3.01 0-.83.18-1.56.53-2.2.35-.65.86-1.14 1.53-1.49a5.11 5.11 0 012.35-.5c.87 0 1.62.16 2.24.49.62.32 1.1.78 1.44 1.38.34.6.52 1.25.52 1.98zm-1.65.5c0-1.14-.23-2.06-.7-2.74a2.32 2.32 0 00-2.06-1.04c-.75 0-1.37.27-1.85.8-.47.53-.71 1.34-.71 2.41 0 1.1.24 2.06.71 2.87a2.3 2.3 0 002.08 1.2c.8 0 1.41-.32 1.86-.96.45-.63.67-1.48.67-2.54zM169.16 75.59l-.35.57a5 5 0 01-2.45.6 3.73 3.73 0 01-2.9-1.11 4.12 4.12 0 01-1.02-2.9c0-.53.06-1 .17-1.42.12-.42.27-.77.44-1.04.19-.27.38-.5.6-.65a11.1 11.1 0 012.26-1.22c.26-.1.62-.14 1.08-.14.88 0 1.6.17 2.16.5-.1.65-.19 1.37-.24 2.16l-.08.07h-.35l-.07-.08a6.3 6.3 0 00-.1-.97c-.04-.16-.27-.34-.68-.53a3.1 3.1 0 00-1.31-.28c-.47 0-.88.1-1.25.3-.36.2-.64.52-.82.97-.19.44-.28.97-.28 1.6 0 .52.08 1.03.22 1.53.15.5.35.91.59 1.24.24.33.56.59.96.79.4.2.84.3 1.33.3.3 0 .6-.04.9-.12.29-.08.63-.21 1-.4l.19.23zM28.2 42.75v-.4l.93-.1c.1 0 .17-.03.21-.08.05-.04.08-.13.1-.26.05-.26.07-.82.07-1.7v-1.17c0-.4 0-.84-.02-1.3l-.01-.43c0-.1-.01-.17-.03-.2-.02-.03-.05-.04-.07-.04l-.22.08c-.63.28-1.03.47-1.2.56l-.06-.04a5.76 5.76 0 01-.1-.6v-.04a39.02 39.02 0 002.99-1l.1.07-.02.45-.03.5c-.01.28-.03 1-.04 2.17v2.19c.02.41.04.66.07.73a.2.2 0 00.1.1c.08.04.31.07.7.09.11 0 .22 0 .32.03v.4a38.69 38.69 0 00-3.78 0z" fill="#FAEAD1"/><path fill-rule="evenodd" clip-rule="evenodd" d="M10 33h685v52H10V33zm1 1v50h683V34H11zM16 25.39l-5-2.89 5-2.89V22h673v-2.39l5 2.89-5 2.89V23H16v2.39z" fill="#86C400"/><path fill-rule="evenodd" clip-rule="evenodd" d="M11 19v66h-1V19h1zM694 83V17h1v66h-1z" fill="#86C400"/><path d="M.84 64.55l4.54.26a6.63 6.63 0 01-.36-2.07c0-1.3.38-2.22 1.46-2.22.96 0 1.44.86 1.44 2.07 0 .86-.2 1.78-.6 2.46H8.6c.35-.72.56-1.66.56-2.61 0-1.8-.9-3.3-2.67-3.3-1.92 0-2.6 1.46-2.6 3.03 0 .42.05.84.14 1.24l-1.97-.12v-3.77H.84v5.03zM4.14 56.7h-.9v1.14h8.4v-1.28H8.26c.45-.4.9-1.07.9-2.08 0-1.73-1.38-2.85-3.04-2.85-1.66 0-3.04 1.12-3.04 2.85 0 1.08.5 1.77 1.06 2.22zm1.98-3.77c1.13 0 1.9.75 1.9 1.8 0 .88-.57 1.55-1.2 1.83h-1.4a2.03 2.03 0 01-1.2-1.84c0-1.04.77-1.79 1.9-1.79zM3.24 47.02l1.94 1.38-1.94 1.38v1.47l2.82-2.1L9 51.37V49.9l-2.04-1.5L9 46.9v-1.46l-2.94 2.22-2.82-2.1v1.46zM348.45 23.84l-.26 4.54a6.63 6.63 0 012.07-.36c1.3 0 2.22.38 2.22 1.46 0 .96-.86 1.44-2.08 1.44-.85 0-1.77-.2-2.45-.6v1.28c.72.35 1.66.56 2.61.56 1.8 0 3.3-.9 3.3-2.67 0-1.92-1.46-2.6-3.04-2.6-.42 0-.83.05-1.23.14l.12-1.97h3.77v-1.22h-5.03zM356.3 27.14v-.9h-1.14v8.4h1.28v-3.38c.4.45 1.07.9 2.08.9 1.73 0 2.85-1.38 2.85-3.04 0-1.66-1.13-3.04-2.85-3.04-1.08 0-1.77.5-2.22 1.06zm3.76 1.98c0 1.13-.74 1.9-1.78 1.9-.9 0-1.56-.57-1.84-1.2v-1.4c.28-.63.95-1.2 1.84-1.2 1.04 0 1.79.77 1.79 1.9zM365.98 26.24l-1.38 1.94-1.38-1.94h-1.47l2.1 2.82-2.22 2.94h1.47l1.5-2.04 1.5 2.04h1.46l-2.22-2.94 2.1-2.82h-1.46zM348.45 85.84l-.26 4.54a6.63 6.63 0 012.07-.36c1.3 0 2.22.38 2.22 1.46 0 .96-.86 1.44-2.08 1.44-.85 0-1.77-.2-2.45-.6v1.28c.72.35 1.66.56 2.61.56 1.8 0 3.3-.9 3.3-2.67 0-1.92-1.46-2.6-3.04-2.6-.42 0-.83.05-1.23.14l.12-1.97h3.77v-1.22h-5.03zM356.3 89.14v-.9h-1.14v8.4h1.28v-3.38c.4.45 1.07.9 2.08.9 1.73 0 2.85-1.38 2.85-3.04 0-1.66-1.13-3.04-2.85-3.04-1.08 0-1.77.5-2.22 1.06zm3.76 1.98c0 1.13-.74 1.9-1.78 1.9-.9 0-1.56-.57-1.84-1.2v-1.4c.28-.63.95-1.2 1.84-1.2 1.04 0 1.79.77 1.79 1.9zM365.98 88.24l-1.38 1.94-1.38-1.94h-1.47l2.1 2.82-2.22 2.94h1.47l1.5-2.04 1.5 2.04h1.46l-2.22-2.94 2.1-2.82h-1.46zM695.84 64.55l4.54.26a6.63 6.63 0 01-.36-2.07c0-1.3.38-2.22 1.46-2.22.96 0 1.44.86 1.44 2.07 0 .86-.2 1.78-.6 2.46h1.28c.35-.72.56-1.66.56-2.61 0-1.8-.9-3.3-2.67-3.3-1.92 0-2.6 1.46-2.6 3.03 0 .42.05.84.14 1.24l-1.97-.12v-3.77h-1.22v5.03zM699.14 56.7h-.9v1.14h8.4v-1.28h-3.38c.45-.4.9-1.07.9-2.08 0-1.73-1.38-2.85-3.04-2.85-1.66 0-3.04 1.12-3.04 2.85 0 1.08.5 1.77 1.06 2.22zm1.98-3.77c1.13 0 1.9.75 1.9 1.8 0 .88-.57 1.55-1.2 1.83h-1.4a2.03 2.03 0 01-1.2-1.84c0-1.04.77-1.79 1.9-1.79zM698.24 47.02l1.94 1.38-1.94 1.38v1.47l2.82-2.1 2.94 2.22V49.9l-2.04-1.5 2.04-1.5v-1.46l-2.94 2.22-2.82-2.1v1.46z" fill="#A7A6F2"/><path d="M335.21 8.84l-.26 4.54a6.63 6.63 0 012.07-.36c1.3 0 2.22.38 2.22 1.46 0 .96-.86 1.44-2.07 1.44-.86 0-1.78-.2-2.46-.6v1.28c.72.35 1.67.56 2.61.56 1.8 0 3.3-.9 3.3-2.67 0-1.92-1.46-2.6-3.03-2.6-.42 0-.84.05-1.24.14l.12-1.97h3.77V8.84h-5.03zM342.22 8.84l-.27 4.54a6.63 6.63 0 012.08-.36c1.3 0 2.22.38 2.22 1.46 0 .96-.86 1.44-2.07 1.44-.86 0-1.78-.2-2.47-.6v1.28c.73.35 1.67.56 2.62.56 1.8 0 3.3-.9 3.3-2.67 0-1.92-1.46-2.6-3.03-2.6-.43 0-.85.05-1.24.14l.12-1.97h3.77V8.84h-5.03zM348.7 12.92c0 2.39 1.13 4.24 3.66 4.24 2.53 0 3.66-1.85 3.66-4.24s-1.13-4.24-3.66-4.24c-2.53 0-3.66 1.85-3.66 4.24zm5.94 0c0 1.9-.72 2.99-2.28 2.99-1.57 0-2.28-1.1-2.28-2.99 0-1.9.7-2.99 2.28-2.99 1.56 0 2.28 1.1 2.28 2.99zM358.54 12.14v-.9h-1.14v8.4h1.28v-3.38c.4.45 1.07.9 2.08.9 1.73 0 2.86-1.38 2.86-3.04 0-1.66-1.13-3.04-2.86-3.04-1.08 0-1.76.5-2.22 1.06zm3.77 1.98c0 1.13-.75 1.9-1.8 1.9-.88 0-1.55-.57-1.83-1.2v-1.4c.28-.63.95-1.2 1.84-1.2 1.04 0 1.79.77 1.79 1.9zM368.22 11.24l-1.38 1.94-1.38-1.94H364l2.1 2.82-2.23 2.94h1.47l1.5-2.04 1.5 2.04h1.46l-2.22-2.94 2.1-2.82h-1.46z" fill="#86C400"/><path fill-rule="evenodd" clip-rule="evenodd" d="M5 75.39l5-2.89-5-2.89V72H0v1h5v2.39zM337.61 28l2.89 5 2.89-5H341v-5h-1v5h-2.39zM337.61 90l2.89-5 2.89 5H341v5h-1v-5h-2.39zM700 75.39l-5-2.89 5-2.89V72h5v1h-5v2.39z" fill="#A7A6F2"/></g><defs><clipPath id="clip0"><path fill="#fff" d="M0 0h705v95H0z"/></clipPath></defs></svg>