<svg width="705" height="223" viewBox="0 0 705 223" fill="none" xmlns="http://www.w3.org/2000/svg"><path d="M0 0h705v40H0V0z" fill="#FFE0B2"/><path d="M0 45h350v64H0V45zM355 45h350v64H355V45zM178 114h350v64H178v-64z" fill="#A8DDA2"/><path d="M0 183h705v40H0v-40z" fill="#FFE0B2"/><path d="M20.94 12.8V24h2.23v-5c.32-.47.93-.98 1.71-.98.86 0 1.49.48 1.49 1.52V24h2.22v-4.75c0-1.78-1.1-3.15-3.12-3.15-.96 0-1.74.4-2.3.92V12.8h-2.23zM29.95 20.16c0 2.67 2.02 4.06 4.45 4.06a7.3 7.3 0 002.81-.48V22c-.65.29-1.44.46-2.32.46-1.26 0-2.44-.46-2.7-1.58h5.4c.52-2.27-.5-4.78-3.69-4.78a3.87 3.87 0 00-3.95 4.06zm5.65-.72h-3.43c.04-1.06.87-1.65 1.81-1.65 1.4 0 1.7 1.12 1.62 1.65zM46 22.02v-2.45c0-2.53-1.48-3.47-3.78-3.47-1.18 0-2.35.3-2.98.5v1.93a7.36 7.36 0 012.72-.58c1.2 0 1.81.53 1.81 1.3v.27a8.38 8.38 0 00-1.82-.2c-1.54 0-3.38.6-3.38 2.55 0 1.52 1.25 2.35 2.69 2.35 1.14 0 2.02-.35 2.77-.94.32.58.91.86 1.7.86.43 0 .87-.1 1.23-.22v-1.46c-.15.05-.3.07-.42.07-.29 0-.54-.11-.54-.51zm-3.54-1.38c.46 0 .98.1 1.31.18v1.2c-.51.44-1.1.62-1.73.62-.67 0-1.2-.37-1.2-.94 0-.79.8-1.06 1.62-1.06zM53.86 12.8v4.34a3.3 3.3 0 00-2.53-1.04c-2.44 0-3.76 1.96-3.76 4.06 0 2.1 1.32 4.06 3.76 4.06 1.41 0 2.3-.65 2.79-1.34V24h1.95V12.8h-2.2zm0 6.45v1.82a2.2 2.2 0 01-2 1.28c-1.26 0-2.01-.99-2.01-2.19s.75-2.2 2.01-2.2c.98 0 1.7.62 2 1.29zM57.53 20.16c0 2.67 2.01 4.06 4.45 4.06a7.3 7.3 0 002.81-.48V22c-.65.29-1.44.46-2.32.46-1.26 0-2.45-.46-2.7-1.58h5.4c.52-2.27-.5-4.78-3.69-4.78a3.87 3.87 0 00-3.95 4.06zm5.65-.72h-3.43c.03-1.06.87-1.65 1.81-1.65 1.4 0 1.7 1.12 1.62 1.65zM68.68 17.47v-1.15H66.7V24h2.22v-4.51c.47-.91 1.64-1.38 2.85-1.17v-2.16c-1.44-.14-2.56.46-3.1 1.31zM20.6 63.46c0 2.76 4.34 2.21 4.34 3.44 0 .44-.52.58-1.34.58a5.7 5.7 0 01-2.93-.82v1.84c.79.47 1.89.72 3.06.72 1.84 0 3.49-.56 3.49-2.36 0-2.82-4.34-2.18-4.34-3.46 0-.46.58-.6 1.07-.6.91 0 2.03.33 2.69.78v-1.83a6.43 6.43 0 00-2.83-.65c-1.62 0-3.2.59-3.2 2.36zM28.14 65.16c0 2.67 2.01 4.06 4.45 4.06a7.3 7.3 0 002.81-.48V67c-.66.29-1.44.46-2.32.46-1.26 0-2.45-.46-2.7-1.58h5.4c.52-2.27-.5-4.78-3.7-4.78a3.87 3.87 0 00-3.94 4.06zm5.64-.72h-3.42c.03-1.06.87-1.65 1.8-1.65 1.4 0 1.7 1.12 1.63 1.65zM36.89 65.27c0 2.74 2.1 3.95 4.19 3.95.98 0 1.84-.19 2.6-.5v-1.98c-.57.34-1.35.56-2.17.56-1.2 0-2.35-.67-2.35-2.14 0-1.55 1.17-2.14 2.38-2.14.74 0 1.5.22 2.05.57v-1.95a5.07 5.07 0 00-2.37-.56c-2.13 0-4.33 1.25-4.33 4.2zM45.74 59.08v2.24h-1.3v1.87h1.3v3.44c0 1.9 1.28 2.6 2.77 2.6.76 0 1.47-.13 2.06-.34v-1.8c-.45.18-.88.26-1.4.26-.82 0-1.22-.35-1.22-1.15v-3h2.43v-1.88h-2.43v-2.77l-2.21.53zM54.09 69v-7.68h-2.22V69h2.22zm.2-10.22c0-.87-.62-1.25-1.32-1.25-.69 0-1.3.38-1.3 1.25 0 .88.61 1.26 1.3 1.26.7 0 1.31-.38 1.31-1.26zM55.57 65.16c0 2.69 2.02 4.06 4.24 4.06 2.24 0 4.24-1.37 4.24-4.06 0-2.69-2-4.06-4.24-4.06-2.22 0-4.24 1.37-4.24 4.06zm6.23 0c0 1.18-.7 2.08-1.99 2.08-1.26 0-1.96-.9-1.96-2.08 0-1.18.7-2.08 1.96-2.08 1.28 0 1.99.9 1.99 2.08zM67.47 62.3v-.98h-1.96V69h2.22v-5c.32-.47.93-.98 1.71-.98.87 0 1.49.48 1.49 1.52V69h2.22v-4.75c0-1.78-1.1-3.15-3.12-3.15-1.1 0-1.96.5-2.56 1.2zM74.88 64.17v1.87h5.95v-1.87h-5.95zM84.82 58.12l-2.64 1v2.17l2.04-.77v6.42h-2.04V69h6.2v-2.06h-1.82v-8.82h-1.74zM375.6 63.46c0 2.76 4.34 2.21 4.34 3.44 0 .44-.52.58-1.34.58a5.7 5.7 0 01-2.93-.82v1.84c.79.47 1.89.72 3.06.72 1.84 0 3.49-.56 3.49-2.36 0-2.82-4.34-2.18-4.34-3.46 0-.46.58-.6 1.07-.6.91 0 2.03.33 2.69.78v-1.83a6.43 6.43 0 00-2.83-.65c-1.62 0-3.2.59-3.2 2.36zM383.14 65.16c0 2.67 2.01 4.06 4.44 4.06a7.3 7.3 0 002.82-.48V67c-.65.29-1.44.46-2.32.46-1.26 0-2.45-.46-2.7-1.58h5.4c.52-2.27-.5-4.78-3.7-4.78a3.87 3.87 0 00-3.94 4.06zm5.65-.72h-3.43c.03-1.06.87-1.65 1.8-1.65 1.4 0 1.7 1.12 1.63 1.65zM391.89 65.27c0 2.74 2.1 3.95 4.19 3.95.98 0 1.84-.19 2.6-.5v-1.98c-.57.34-1.35.56-2.17.56-1.2 0-2.35-.67-2.35-2.14 0-1.55 1.17-2.14 2.38-2.14.74 0 1.5.22 2.05.57v-1.95a5.07 5.07 0 00-2.37-.56c-2.13 0-4.33 1.25-4.33 4.2zM400.74 59.08v2.24h-1.3v1.87h1.3v3.44c0 1.9 1.28 2.6 2.77 2.6.76 0 1.47-.13 2.06-.34v-1.8c-.45.18-.88.26-1.4.26-.82 0-1.22-.35-1.22-1.15v-3h2.43v-1.88h-2.43v-2.77l-2.21.53zM409.09 69v-7.68h-2.22V69h2.22zm.2-10.22c0-.87-.62-1.25-1.32-1.25-.69 0-1.3.38-1.3 1.25 0 .88.61 1.26 1.3 1.26.7 0 1.31-.38 1.31-1.26zM410.57 65.16c0 2.69 2.02 4.06 4.25 4.06 2.24 0 4.24-1.37 4.24-4.06 0-2.69-2-4.06-4.25-4.06-2.22 0-4.24 1.37-4.24 4.06zm6.23 0c0 1.18-.7 2.08-1.99 2.08-1.26 0-1.96-.9-1.96-2.08 0-1.18.7-2.08 1.96-2.08 1.29 0 1.99.9 1.99 2.08zM422.48 62.3v-.98h-1.97V69h2.22v-5c.32-.47.93-.98 1.71-.98.87 0 1.5.48 1.5 1.52V69h2.21v-4.75c0-1.78-1.1-3.15-3.11-3.15-1.1 0-1.97.5-2.56 1.2zM429.88 64.17v1.87h5.95v-1.87h-5.95zM437.54 59.05v2.24a5.96 5.96 0 013.52-1.3c1.1 0 1.8.42 1.8 1.22 0 1.04-.97 1.47-2.1 2.13-1.6.94-3.59 1.96-3.59 4.59V69h8.16v-2.06l-5.44.01c.02-.7 1.12-1.3 2.42-2.06 1.42-.85 2.94-1.94 2.94-3.78 0-2.22-1.77-3.21-3.97-3.21-1.32 0-2.62.35-3.74 1.15zM198.6 132.46c0 2.76 4.34 2.21 4.34 3.44 0 .44-.52.58-1.34.58a5.7 5.7 0 01-2.93-.82v1.84c.79.47 1.89.72 3.06.72 1.84 0 3.49-.56 3.49-2.36 0-2.82-4.34-2.18-4.34-3.46 0-.46.58-.6 1.07-.6.91 0 2.03.33 2.69.78v-1.83a6.43 6.43 0 00-2.83-.65c-1.62 0-3.2.59-3.2 2.36zM206.14 134.16c0 2.67 2.01 4.06 4.45 4.06a7.3 7.3 0 002.81-.48V136c-.66.29-1.44.46-2.32.46-1.26 0-2.45-.46-2.7-1.58h5.4c.52-2.27-.5-4.78-3.7-4.78a3.87 3.87 0 00-3.94 4.06zm5.65-.72h-3.43c.03-1.06.86-1.65 1.8-1.65 1.4 0 1.7 1.12 1.63 1.65zM214.89 134.27c0 2.74 2.1 3.95 4.19 3.95.97 0 1.84-.19 2.6-.5v-1.98c-.57.34-1.35.56-2.17.56-1.2 0-2.35-.67-2.35-2.14 0-1.55 1.17-2.14 2.38-2.14.74 0 1.5.22 2.05.57v-1.95a5.07 5.07 0 00-2.37-.56c-2.13 0-4.33 1.25-4.33 4.2zM223.74 128.08v2.24h-1.3v1.87h1.3v3.44c0 1.9 1.28 2.6 2.77 2.6.77 0 1.47-.13 2.06-.34v-1.8c-.45.18-.88.26-1.4.26-.82 0-1.22-.35-1.22-1.15v-3h2.43v-1.88h-2.43v-2.77l-2.21.53zM232.09 138v-7.68h-2.22V138h2.22zm.2-10.22c0-.87-.62-1.25-1.32-1.25-.69 0-1.3.38-1.3 1.25 0 .88.61 1.26 1.3 1.26.7 0 1.31-.38 1.31-1.26zM233.57 134.16c0 2.69 2.02 4.06 4.25 4.06 2.24 0 4.24-1.37 4.24-4.06 0-2.69-2-4.06-4.25-4.06-2.22 0-4.24 1.37-4.24 4.06zm6.23 0c0 1.18-.7 2.08-1.99 2.08-1.26 0-1.96-.9-1.96-2.08 0-1.18.7-2.08 1.97-2.08 1.28 0 1.98.9 1.98 2.08zM245.47 131.3v-.98h-1.96V138h2.22v-5c.32-.47.93-.98 1.71-.98.87 0 1.5.48 1.5 1.52V138h2.22v-4.75c0-1.78-1.1-3.15-3.13-3.15-1.1 0-1.96.5-2.56 1.2zM252.88 133.17v1.87h5.95v-1.87h-5.95zM268.15 129.9c0-1.98-1.68-3-3.94-3-1.34 0-2.57.32-3.55.84v2.23a6.37 6.37 0 013.22-.98c1.31 0 2 .47 2 1.25 0 .75-.66 1.15-1.73 1.15l-1.5-.01-.02 2.04h1.8c1.08 0 1.88.34 1.88 1.27 0 1.02-1.02 1.42-2.25 1.42a6.69 6.69 0 01-3.59-.85v2.23a9.3 9.3 0 003.78.73c2.24 0 4.35-.9 4.35-3.2 0-1.6-1-2.44-2.1-2.78a2.37 2.37 0 001.65-2.34zM23.9 207v-5.8h2.36v-1.88H23.9v-.66c0-.96.66-1.21 1.38-1.21.5 0 1 .13 1.33.32v-1.87c-.5-.2-1.19-.32-1.89-.32-1.46 0-3.02.67-3.02 2.99v.75h-1.33v1.87h1.33V207h2.2zM26.8 203.16c0 2.69 2 4.06 4.23 4.06 2.24 0 4.24-1.37 4.24-4.06 0-2.69-2-4.06-4.24-4.06-2.22 0-4.24 1.37-4.24 4.06zm6.22 0c0 1.18-.7 2.08-1.99 2.08-1.26 0-1.96-.9-1.96-2.08 0-1.18.7-2.08 1.96-2.08 1.28 0 1.99.9 1.99 2.08zM36.3 203.16c0 2.69 2 4.06 4.23 4.06 2.24 0 4.24-1.37 4.24-4.06 0-2.69-2-4.06-4.24-4.06-2.22 0-4.24 1.37-4.24 4.06zm6.22 0c0 1.18-.7 2.08-1.99 2.08-1.26 0-1.96-.9-1.96-2.08 0-1.18.7-2.08 1.96-2.08 1.28 0 1.99.9 1.99 2.08zM46.7 197.08v2.24h-1.3v1.87h1.3v3.44c0 1.9 1.27 2.6 2.76 2.6.77 0 1.47-.13 2.06-.34v-1.8c-.44.18-.88.26-1.39.26-.83 0-1.23-.35-1.23-1.15v-3h2.43v-1.88H48.9v-2.77l-2.2.53zM52.37 203.16c0 2.67 2.02 4.06 4.45 4.06a7.3 7.3 0 002.82-.48V205c-.66.29-1.44.46-2.32.46-1.27 0-2.45-.46-2.7-1.58h5.4c.51-2.27-.51-4.78-3.7-4.78a3.87 3.87 0 00-3.95 4.06zm5.65-.72H54.6c.03-1.06.86-1.65 1.8-1.65 1.4 0 1.7 1.12 1.62 1.65zM63.52 200.47v-1.15h-1.97V207h2.23v-4.51c.46-.91 1.63-1.38 2.85-1.17v-2.16c-1.44-.14-2.56.46-3.1 1.31z" fill="#333"/></svg>