<svg width="705" height="470" viewBox="0 0 705 470" fill="none" xmlns="http://www.w3.org/2000/svg"><path fill="#3F3329" d="M0 0h705v470H0z"/><path d="M40 62.8a7.8 7.8 0 017.8-7.8h179.4c4.3 0 7.8 3.5 7.8 7.8v304.4a7.8 7.8 0 01-7.8 7.8H47.8a7.8 7.8 0 01-7.8-7.8V62.8z" fill="#59473A"/><path fill-rule="evenodd" clip-rule="evenodd" d="M227.2 58.9H47.8a3.9 3.9 0 00-3.9 3.9v304.4a3.9 3.9 0 003.9 3.9h179.4a3.9 3.9 0 003.9-3.9V62.8a3.9 3.9 0 00-3.9-3.9zM47.8 55a7.8 7.8 0 00-7.8 7.8v304.4a7.8 7.8 0 007.8 7.8h179.4c4.3 0 7.8-3.5 7.8-7.8V62.8a7.8 7.8 0 00-7.8-7.8H47.8z" fill="#28231E"/><g filter="url(#filter0_d)" fill="#FAEAD1"><path d="M77.07 111.59v-1.4l3.24-.34c.34-.04.6-.14.75-.29.16-.16.28-.47.36-.94.15-.9.23-2.88.23-5.95v-4.12c0-1.42-.02-2.95-.06-4.6l-.05-1.47c0-.36-.03-.6-.1-.7-.07-.1-.15-.16-.26-.16a88.93 88.93 0 00-5 2.25l-.2-.12c-.05-.23-.11-.6-.18-1.1a17.6 17.6 0 00-.19-1.04l.02-.12c2.05-.6 3.67-1.1 4.87-1.5 1.2-.4 3.1-1.08 5.65-2.04l.38.26c0 .18-.03.72-.1 1.61-.07.9-.1 1.47-.1 1.72-.04 1-.08 3.54-.14 7.63v2.54c0 2.48 0 4.2.03 5.16.04 1.46.11 2.32.22 2.57.07.15.19.27.35.34.27.15 1.1.26 2.47.31.38.02.76.05 1.11.1v1.4c-2.48-.12-4.5-.18-6.03-.18-1.05 0-3.48.06-7.27.18zM120.38 109.96l.22.22a75.32 75.32 0 00-1.8 6.84l-.2.16h-.91l-.22-.16c0-2.3-.06-3.69-.17-4.16a1.4 1.4 0 00-.88-1c-.46-.18-2.36-.27-5.7-.27-1.14 0-2.25.02-3.33.06a5.67 5.67 0 00-2.02.33 1.4 1.4 0 00-.6.8c-.12.38-.17 1.32-.17 2.82v1.42l-.23.16h-.92l-.2-.16a67.85 67.85 0 00-1.57-6.09l-.24-.75.24-.22 1 .15 8.89-12.45c.13-.2.19-.32.19-.38 0-.07-.06-.13-.19-.2a3.77 3.77 0 00-1.04-.2c-.59-.08-1.27-.13-2.05-.16l-.22-.2v-1l.2-.17a199.07 199.07 0 009.12 0l.4.2-.12 4.01c-.03 1.05-.05 2.46-.05 4.26 0 3.4.04 5.45.14 6.14l.17.22 2.26-.22zm-6.92.22V97.37h-.24l-3.78 6.16-4.04 6.65h8.05zM138.15 106.4a4.7 4.7 0 01-1.71 3.73 6.69 6.69 0 01-4.54 1.53l-2.45-.06a133.45 133.45 0 00-5.93.06l-.12-.13v-.73l.06-.14c.61-.38.93-.62.96-.74.08-.26.12-1.55.12-3.86v-5.17c0-2.28-.08-3.53-.24-3.74a.66.66 0 00-.4-.26c-.25-.06-.8-.12-1.69-.17l-.15-.16v-1.04l.12-.17c1.92.05 3.12.08 3.6.08a202.32 202.32 0 007.11-.08c2.14 0 3.54.49 4.22 1.47.34.5.51 1.09.51 1.75a3.4 3.4 0 01-1.97 3.22c-.56.3-1.3.56-2.21.77 3.14.13 4.71 1.41 4.71 3.85zm-5.09-7.13c0-1.66-.88-2.48-2.64-2.48-.49 0-.98.02-1.47.08-.03.92-.05 1.67-.05 2.25v2.96c.16.03.37.04.63.04 2.35 0 3.53-.95 3.53-2.85zm.5 7.4c0-2.23-1.2-3.35-3.62-3.35l-1.04.03v5.12c0 .6.01 1.17.05 1.7.44.05.84.08 1.18.08 1.5 0 2.5-.58 3.03-1.75.27-.58.4-1.2.4-1.84zM157 103.05l-.24.27c-.84.33-2.82.5-5.92.5-1.94 0-3.7-.02-5.28-.05.1 1.81.6 3.27 1.49 4.35 1 1.2 2.37 1.8 4.13 1.8 1.73 0 3.28-.45 4.63-1.37l.29.6-.69 1.46a12.64 12.64 0 01-6.13 1.7c-3.51 0-5.9-1.29-7.19-3.86a9.94 9.94 0 01-.99-4.48c0-2.57.77-4.65 2.31-6.24a8.63 8.63 0 016.45-2.66c2.34 0 4.12.59 5.33 1.77 1.2 1.18 1.81 3.06 1.81 5.66v.55zm-4.57-.93a17.2 17.2 0 00-.19-2.57 3.8 3.8 0 00-1.18-2.22 3.23 3.23 0 00-2.13-.65c-2.36 0-3.55 1.54-3.55 4.6l.02.98a53.47 53.47 0 007.03-.14zM179.25 101.66c0 4-1.49 6.92-4.47 8.74a10.98 10.98 0 01-5.83 1.53c-.88 0-1.83-.11-2.84-.33v4.72c0 1.31.03 2.14.11 2.49.06.25.22.42.47.51.22.08.97.15 2.26.2l.17.18v1.06l-.19.16-.78-.04a98.4 98.4 0 00-8.78.04l-.17-.18v-1.04l.17-.17a9.69 9.69 0 001.88-.2c.21-.06.35-.23.43-.5.07-.25.1-1.08.1-2.51v-15.57c0-1.43-.03-2.27-.11-2.52-.07-.27-.2-.43-.41-.5-.25-.08-.9-.14-1.96-.19l-.19-.17v-.96l.16-.17c2.13-.23 4.3-.71 6.51-1.44l.36.22-.02 2.92a8.3 8.3 0 016.31-2.94c1.2 0 2.32.26 3.36.77a5.9 5.9 0 012.53 2.3 6.9 6.9 0 01.93 3.59zm-4.46 2.24c0-2.7-.76-4.54-2.3-5.5a4.65 4.65 0 00-2.53-.74c-1.72 0-2.88.66-3.46 1.99-.26.6-.4 1.56-.4 2.86v5.87c1.26 1.28 2.6 1.92 4.02 1.92.92 0 1.77-.3 2.53-.88a5.12 5.12 0 001.6-2.17c.36-.94.54-2.06.54-3.35zM199.25 106c0 3.14-1.64 4.95-4.93 5.43-1.02.15-2.06.22-3.1.2l-5.13-.04c-.86-.02-2.27.02-4.23.1l-.2-.16v-1.06l.18-.15a9.05 9.05 0 001.88-.2c.22-.08.37-.25.45-.52.07-.24.1-1.07.1-2.49v-5.71c0-2.64-.08-4.07-.26-4.27a.73.73 0 00-.42-.26c-.25-.06-.85-.1-1.8-.15l-.16-.16v-1.04l.12-.17a103.74 103.74 0 009.3 0l.2.17v1.04l-.17.17-1.2.06c-.56.05-.92.19-1.07.4-.11.17-.17.55-.17 1.14v2.92l4.72.01c1.93 0 3.39.4 4.38 1.17 1 .78 1.51 1.96 1.51 3.56zm-4.6-.23c0-1.4-.5-2.37-1.5-2.9-.57-.3-2.07-.44-4.5-.44v4.92c0 1.45.18 2.32.56 2.59.22.16.55.24 1.01.24.81 0 1.58-.2 2.3-.6.76-.44 1.32-1 1.66-1.7.32-.64.48-1.34.48-2.1z"/></g><path d="M137.5 144.76c121.41 78.05 52.87 195.12 52.87 195.12H84.62S16.08 222.8 137.5 144.76z" fill="#E4CFC6"/><path fill-rule="evenodd" clip-rule="evenodd" d="M190.37 339.88s68.54-117.07-52.87-195.12C16.08 222.8 84.62 339.88 84.62 339.88h105.75zm-.8 0c32.4-65.13 20.36-146.67-52.07-187.73-72.43 41.06-84.48 122.6-52.08 187.73h104.15z" fill="#EDE1DC"/><path fill-rule="evenodd" clip-rule="evenodd" d="M87.54 191.73l1.11-1.6 25.08 20.2.67.55-.45.73-10.72 17.56-.47.77-.8-.41-27.23-14.01.76-1.8 26.55 13.66 9.8-16.06-24.3-19.59zm-22.2 72.05h24.57l3.56-16.96-25.26-10.11.43-1.93 26.32 10.53.76.3-.17.81-3.9 18.54-.16.77H65.35v-1.95zm7.74 48.65l22.2-3.58-6.26-19.66-21.36 1.22-.33-1.94 22.34-1.27.75-.05.23.73 6.83 21.46.34 1.08-1.12.18-23.01 3.71-.6-1.88zm133.72-19.15l-24.6-4.92-2.66 19.53 22.35 4.63-.6 1.86-23.04-4.77-.9-.18.13-.9 2.93-21.47.14-1.02 1.01.2 25.6 5.12-.35 1.92zm1.27-49.6l-25.6 9.04 2.65 14.96h24.49l-.06 1.95h-26.07l-.14-.8-2.93-16.59-.14-.81.78-.28 26.7-9.43.32 1.96zm-18.93-49.41l-28.73 17.09 15.37 19 25.2-13.02c.25.6.48 1.22.7 1.83l-25.71 13.28-.7.37-.5-.62-16.58-20.49-.7-.88.96-.57 29.62-17.62 1.07 1.63zm-50.67-48.88v43.77l7.65 5.95 21.71-26.56 1.4 1.38-22.2 27.15-.6.74-.76-.59-8.77-6.83-.38-.29V145.4l.98-.63.97.63zm-27.19 19.3l20.19 28.28-1.6 1.13-20.04-28.08 1.45-1.33zm85.04 162.88l-.82 1.9-24.94-2.28.18-1.94 25.58 2.32zM80.3 331.3l-.81-1.81 16.81-4.2.47 1.89-16.47 4.12z" fill="#C19785"/><path fill-rule="evenodd" clip-rule="evenodd" d="M88.65 190.12l-1.1 1.61 3.3 2.67 1.12-1.6-3.32-2.68zm21.18-24.1l2.73 3.82 1.48-1.29-2.76-3.86-1.45 1.33zm26.7-20.63v7.32l.97-.56.97.56v-7.32l-.97-.63c-.33.2-.65.42-.98.63zm31.3 23.16l-2.9 3.55 1.43 1.34 2.87-3.51-1.4-1.38zm20.24 24.09l-3.65 2.17 1.08 1.63 3.64-2.17-1.07-1.63zm12.92 24.7l-3.71 1.91.7 1.83 3.7-1.9c-.22-.62-.46-1.23-.7-1.84zm6.76 24.38l-3.62 1.28.36 1.94 3.58-1.26-.32-1.96zm1.86 25.96h-3.04c.01.65.02 1.3.01 1.95h2.97l.06-1.95zm-2.45 23.68l-2.16-.43-.29 1.93 2.1.42.35-1.92zm-5.27 21.15l-1.5-.3-.56 1.87 1.45.3.6-1.87zm-5.57 15.06l-1.19-.1-.76 1.89 1.13.1.82-1.88zM78.45 217.44l.76-1.8-3.72-1.92-.76 1.81 3.72 1.91zm-9.81 17.35c-.15.64-.3 1.29-.43 1.93l3.66 1.46.45-1.92-3.68-1.47zm-.19 30.95l.07-1.95h-3.17a132.85 132.85 0 000 1.95h3.1zm-1.12 22.74l.33 1.94 2.24-.13c-.1-.64-.18-1.3-.26-1.94l-2.3.13zm7.83 25.6l-.55-1.88-1.53.24.6 1.88 1.48-.24zm4.34 15.4l.8 1.82 1.03-.26-.76-1.82-1.07.27z" fill="#DABAAD"/><path d="M137.5 183.78c-88.6 62.44-38.59 156.1-38.59 156.1H94.6c-28.19-63.3-14.18-125.63 42.9-165.85 57.08 40.22 71.08 102.55 42.9 165.85h-4.32s50.02-93.66-38.58-156.1z" fill="#C19785"/><path d="M137.5 183.78c88.6 62.44 38.58 156.1 38.58 156.1H98.91s-50.01-93.66 38.59-156.1z" fill="#DF6D26"/><path fill-rule="evenodd" clip-rule="evenodd" d="M176.08 339.88s50.02-93.66-38.58-156.1c-88.6 62.44-38.59 156.1-38.59 156.1h77.17zm-3.48 0c22.13-50.4 16.52-105.32-35.1-146.43-51.62 41.11-57.24 96.02-35.1 146.43h70.2z" fill="#A44D17"/><path fill-rule="evenodd" clip-rule="evenodd" d="M135.55 185.18v154.7h3.9v-154.7l-1.95-1.4c-.66.46-1.31.93-1.95 1.4zm-25 23.06c1.08-1.29 2.2-2.57 3.35-3.84l-1.75 43.77-1.6-39.93zM92.6 238.06l-.93 29.62-.78-25.05c.53-1.52 1.1-3.04 1.7-4.57zm59.08-43.01l1.42 35.56 1.32-33.03c-.9-.85-1.8-1.7-2.74-2.53zm26.97 34.68l1.75 43.8 1.47-36.77c-.97-2.34-2.05-4.69-3.22-7.03zM149.2 339.88l-.98-31.22-.97 31.22h1.95zm21.45-46.83l-1.95 44.88h3.9l-1.95-44.88zM118 337.93l1.95-33.17 1.95 33.17H118zm43.87-52.69s-.97-19.02-.97-31.22c0-12.19.97-31.22.97-31.22s.98 19.03.98 31.22c0 12.2-.98 31.22-.98 31.22zM96.55 295c0 12.2 1.95 31.22 1.95 31.22s1.95-19.03 1.95-31.22c0-12.2-1.95-31.22-1.95-31.22s-1.95 19.03-1.95 31.22zm28.27-31.22s-.97-19.03-.97-31.22c0-12.2.97-31.22.97-31.22s.98 19.03.98 31.22c0 12.2-.98 31.22-.98 31.22z" fill="#BD5819"/><path fill-rule="evenodd" clip-rule="evenodd" d="M139.45 185.18l-1.95-1.4c-.66.46-1.31.93-1.95 1.4v9.85c.64-.53 1.29-1.06 1.95-1.58.66.52 1.3 1.05 1.95 1.58v-9.85zm14.53 23.47c-.6-.65-1.22-1.3-1.84-1.94l-.46-11.66a140.58 140.58 0 012.74 2.53l-.44 11.07zm27.1 47.68c-.48-1.76-1-3.52-1.58-5.28l-.85-21.32c1.17 2.34 2.25 4.69 3.22 7.03l-.78 19.57zm-56.1-51.77l-.16-3.22-.17 3.54.33-.32zm-11.61 13.12l.53-13.28a123.97 123.97 0 00-3.35 3.84l.5 12.54a121.6 121.6 0 012.32-3.1zm-21.65 48.55l.88-28.17a105.5 105.5 0 00-1.7 4.57l.74 24.05.08-.45z" fill="#8C3C0B"/><path fill-rule="evenodd" clip-rule="evenodd" d="M98.92 339.88h77.17s.73-1.38 1.86-3.9h-80.9a69.74 69.74 0 001.87 3.9z" fill="#E4CFC6"/><path fill-rule="evenodd" clip-rule="evenodd" d="M131.65 288.17c0-2.73-1.6-5.09-3.92-6.18a2.93 2.93 0 00-5.82 0 6.83 6.83 0 109.74 6.18zm-4.4-4.23a2.92 2.92 0 01-4.86 0 4.88 4.88 0 104.86 0zm29.75 4.23c0-2.73-1.6-5.09-3.92-6.18a2.93 2.93 0 00-5.82 0 6.83 6.83 0 109.74 6.18zm-4.4-4.23a2.92 2.92 0 01-4.86 0 4.88 4.88 0 104.86 0z" fill="#A44D17"/><path fill-rule="evenodd" clip-rule="evenodd" d="M131.65 286.22c0-2.73-1.6-5.09-3.92-6.18a2.93 2.93 0 00-5.82 0 6.83 6.83 0 109.74 6.18zm-4.4-4.23a2.92 2.92 0 01-4.86 0 4.88 4.88 0 104.86 0zm27.8 4.23a4.88 4.88 0 11-7.31-4.23 2.92 2.92 0 004.86 0 4.88 4.88 0 012.45 4.23zm-1.97-6.18a6.83 6.83 0 11-5.82 0 2.93 2.93 0 015.82 0z" fill="#576364"/><path fill-rule="evenodd" clip-rule="evenodd" d="M127.58 279.4a2.93 2.93 0 01-5.52 0 2.93 2.93 0 105.52 0zm25.35 0a2.93 2.93 0 01-5.52 0 2.93 2.93 0 105.52 0z" fill="#25383B"/><path fill-rule="evenodd" clip-rule="evenodd" d="M88.1 252.07c.64-2.59 1.38-5.19 2.24-7.8h25.7l3.9 3.9-3.9 3.9H88.1zm1.45 62.44c-.65-2.46-1.27-5.07-1.84-7.8h28.34l3.9 3.9-3.9 3.9h-26.5zm97.74-7.8c-.57 2.73-1.19 5.34-1.84 7.8h-26.5l-3.9-3.9 3.9-3.9h28.34zm-2.63-62.44c.86 2.61 1.6 5.21 2.24 7.8h-27.95l-3.9-3.9 3.9-3.9h25.7z" fill="#576364"/><path fill-rule="evenodd" clip-rule="evenodd" d="M181.24 314.51h4.21c.65-2.46 1.27-5.07 1.84-7.8h-4.4c-.47 2.6-1.02 5.2-1.65 7.8zm-1.41-62.44h7.07c-.64-2.59-1.38-5.19-2.24-7.8H177c1.05 2.58 1.99 5.18 2.82 7.8zm-81.84-7.8h-7.65c-.86 2.61-1.6 5.21-2.24 7.8h7.07c.83-2.62 1.77-5.22 2.82-7.8zM92.1 306.7h-4.4c.57 2.73 1.19 5.34 1.84 7.8h4.2c-.62-2.6-1.17-5.2-1.64-7.8zM104.35 248.17a1.95 1.95 0 11-3.9 0 1.95 1.95 0 013.9 0zm0 62.44a1.95 1.95 0 11-3.9 0 1.95 1.95 0 013.9 0zm7.8-60.49a1.95 1.95 0 100-3.9 1.95 1.95 0 000 3.9zm1.95 60.49a1.95 1.95 0 11-3.9 0 1.95 1.95 0 013.9 0zm52.65-62.44a1.95 1.95 0 11-3.9 0 1.95 1.95 0 013.9 0zm0 62.44a1.95 1.95 0 11-3.9 0 1.95 1.95 0 013.9 0zm7.8-60.49a1.95 1.95 0 100-3.9 1.95 1.95 0 000 3.9zm1.95 60.49a1.95 1.95 0 11-3.9 0 1.95 1.95 0 013.9 0z" fill="#25383B"/><path d="M255 62.8a7.8 7.8 0 017.8-7.8h179.4c4.3 0 7.8 3.5 7.8 7.8v304.4a7.8 7.8 0 01-7.8 7.8H262.8a7.8 7.8 0 01-7.8-7.8V62.8z" fill="#59473A"/><path fill-rule="evenodd" clip-rule="evenodd" d="M442.2 58.9H262.8a3.9 3.9 0 00-3.9 3.9v304.4a3.9 3.9 0 003.9 3.9h179.4a3.9 3.9 0 003.9-3.9V62.8a3.9 3.9 0 00-3.9-3.9zM262.8 55a7.8 7.8 0 00-7.8 7.8v304.4a7.8 7.8 0 007.8 7.8h179.4c4.3 0 7.8-3.5 7.8-7.8V62.8a7.8 7.8 0 00-7.8-7.8H262.8z" fill="#28231E"/><g filter="url(#filter1_d)" fill="#FAEAD1"><path d="M290.34 111.58v-1.76l3.17-3.16a88.15 88.15 0 003.67-3.89c.8-.92 1.42-1.78 1.87-2.57.44-.8.75-1.5.92-2.13.18-.64.28-1.29.28-1.95 0-1.32-.34-2.32-1.01-3a3.67 3.67 0 00-2.75-1.03c-.65 0-1.27.13-1.85.4-.57.25-1.06.65-1.47 1.17-.2.7-.44 1.6-.7 2.71h-1.33l.45-3.92.2-1.9a7.19 7.19 0 012.58-1.62 9.6 9.6 0 013.27-.53c1.7 0 3.06.28 4.1.84a5.35 5.35 0 012.34 2.31 6.48 6.48 0 01.49 5.03c-.2.64-.54 1.35-1.03 2.13-.48.76-1 1.44-1.53 2.04l-1.94 1.97-1.8 1.77c-.94.93-1.97 1.9-3.06 2.9l.05.22h3.01l4.55-.09c.82-.02 1.82-.07 3.01-.14l.14.23c-.11 1-.17 1.8-.17 2.36 0 .37.04.84.12 1.43l-.09.18-5.05-.13a94 94 0 00-2.45-.05l-7.99.18zM335.38 109.96l.22.22a75.26 75.26 0 00-1.8 6.84l-.2.16h-.91l-.22-.16c0-2.3-.06-3.69-.18-4.17-.1-.46-.4-.8-.87-.99-.46-.18-2.36-.28-5.7-.28-1.14 0-2.25.03-3.33.07a5.67 5.67 0 00-2.02.33 1.4 1.4 0 00-.6.8c-.12.38-.17 1.32-.17 2.82v1.42l-.23.16h-.92l-.2-.16a68.1 68.1 0 00-1.57-6.09l-.24-.75.24-.22 1 .15 8.9-12.45c.12-.2.18-.32.18-.38 0-.07-.06-.13-.19-.2a3.77 3.77 0 00-1.04-.2c-.59-.08-1.27-.13-2.04-.16l-.23-.2v-1l.2-.18a199.1 199.1 0 009.12 0l.4.21-.12 4.01c-.03 1.04-.05 2.46-.05 4.26 0 3.4.05 5.45.14 6.14l.17.22 2.26-.22zm-6.92.22V97.37h-.24l-3.77 6.16-4.05 6.65h8.06zM353.15 106.4a4.7 4.7 0 01-1.71 3.73 6.7 6.7 0 01-4.54 1.52 123.56 123.56 0 00-8.38 0l-.12-.12v-.73l.06-.14c.61-.38.93-.62.97-.74.07-.26.12-1.55.12-3.86v-5.18c0-2.27-.09-3.52-.25-3.73a.66.66 0 00-.4-.26c-.25-.06-.8-.12-1.69-.17l-.15-.16v-1.04l.12-.18c1.92.06 3.12.1 3.6.1a202.19 202.19 0 007.11-.1c2.14 0 3.54.5 4.22 1.48.34.5.51 1.09.51 1.75a3.4 3.4 0 01-1.97 3.22c-.56.3-1.3.56-2.21.77 3.14.13 4.71 1.41 4.71 3.85zm-5.09-7.13c0-1.66-.88-2.48-2.64-2.48-.49 0-.98.02-1.47.08-.03.92-.05 1.66-.05 2.25v2.96c.16.03.37.04.63.04 2.36 0 3.53-.95 3.53-2.85zm.5 7.4c0-2.24-1.2-3.35-3.62-3.35l-1.04.03v5.11c0 .61.02 1.18.05 1.7.44.06.84.09 1.18.09 1.5 0 2.51-.58 3.04-1.75.26-.58.39-1.2.39-1.84zM372 103.05l-.23.27c-.85.33-2.83.5-5.93.5-1.94 0-3.7-.02-5.28-.05.1 1.81.6 3.27 1.49 4.35 1 1.2 2.37 1.8 4.13 1.8 1.74 0 3.28-.45 4.63-1.37l.29.6-.69 1.46a12.64 12.64 0 01-6.13 1.7c-3.51 0-5.9-1.3-7.18-3.86a9.94 9.94 0 01-1-4.48c0-2.57.77-4.65 2.31-6.24a8.63 8.63 0 016.45-2.66c2.34 0 4.12.59 5.33 1.77C371.4 98 372 99.9 372 102.5v.55zm-4.57-.93a17.2 17.2 0 00-.19-2.57 3.8 3.8 0 00-1.18-2.22 3.24 3.24 0 00-2.13-.65c-2.36 0-3.54 1.53-3.54 4.6l.01.98a53.07 53.07 0 007.03-.14zM394.25 101.66c0 4-1.49 6.92-4.47 8.74a10.96 10.96 0 01-5.83 1.53c-.88 0-1.83-.11-2.84-.33v4.72c0 1.31.04 2.14.12 2.49.05.25.2.42.46.51.22.08.97.15 2.26.2l.17.18v1.06l-.19.16-.78-.04a98.5 98.5 0 00-8.78.04l-.17-.18v-1.04l.17-.17a9.77 9.77 0 001.89-.2c.2-.06.34-.23.42-.5.07-.25.1-1.08.1-2.51v-15.57c0-1.43-.03-2.27-.11-2.52-.07-.27-.2-.43-.41-.5-.24-.08-.9-.14-1.96-.19l-.19-.17v-.96l.16-.17c2.13-.23 4.3-.71 6.51-1.44l.36.22-.02 2.91a8.3 8.3 0 016.31-2.93c1.2 0 2.32.26 3.36.77a5.91 5.91 0 012.54 2.3 6.9 6.9 0 01.92 3.59zm-4.45 2.24c0-2.7-.77-4.54-2.3-5.5a4.65 4.65 0 00-2.54-.74c-1.72 0-2.88.66-3.46 1.99a7.7 7.7 0 00-.4 2.86v5.87c1.26 1.28 2.6 1.92 4.02 1.92.92 0 1.77-.3 2.53-.88a5.13 5.13 0 001.6-2.17 9.2 9.2 0 00.55-3.35zM414.25 106c0 3.14-1.64 4.95-4.93 5.43-1.02.15-2.05.22-3.1.2l-5.13-.05c-.86 0-2.27.03-4.23.1l-.2-.15v-1.06l.18-.15a9.08 9.08 0 001.89-.2c.21-.08.36-.25.44-.52.07-.24.1-1.07.1-2.5v-5.7c0-2.64-.08-4.07-.25-4.27a.73.73 0 00-.43-.26c-.25-.06-.85-.1-1.8-.15l-.16-.16v-1.04l.12-.18a103.74 103.74 0 009.3 0l.2.18v1.04l-.17.17-1.2.06c-.56.05-.92.19-1.06.4-.12.17-.18.54-.18 1.14v2.91l4.72.02c1.93 0 3.39.39 4.38 1.17 1.01.77 1.51 1.96 1.51 3.56zm-4.6-.23c0-1.4-.5-2.37-1.5-2.9-.57-.3-2.07-.44-4.5-.44v4.92c0 1.45.18 2.32.56 2.59.22.16.55.24 1.01.24.81 0 1.58-.2 2.3-.6.76-.44 1.32-1 1.66-1.7.32-.64.48-1.34.48-2.1z"/></g><path fill-rule="evenodd" clip-rule="evenodd" d="M291.39 329.15c.43-.64.65-1.4.65-2.16v-6.62h17.55v5.85l-3.41 1.95h92.63l-3.42-1.95v-5.85h17.55v6.62c0 .77.23 1.52.66 2.16l1.8 2.71a3.9 3.9 0 010 4.33l-2.46 3.69h-5.85l.94-2.82a3.9 3.9 0 00-1.76-4.62l-7.25-4.14c-1.31.6-7.2 3.24-11.43 3.77-3.25.42-5.17-.2-7.19-.85-1.76-.56-3.6-1.15-6.46-1.1-3.84.07-7.23 1.5-10.61 2.93-3.46 1.47-6.91 2.93-10.84 2.93-3.92 0-7.38-1.46-10.83-2.93-3.39-1.43-6.78-2.86-10.62-2.93-2.86-.05-4.7.54-6.46 1.1-2.01.65-3.94 1.27-7.19.85-4.22-.53-10.11-3.17-11.43-3.77l-7.24 4.14a3.9 3.9 0 00-1.77 4.62l.94 2.82h-5.85l-2.46-3.7a3.9 3.9 0 010-4.32l1.8-2.7z" fill="#8C3C0B"/><path d="M288.15 324.27a3.9 3.9 0 013.9-3.9h120.9a3.9 3.9 0 010 7.8h-120.9a3.9 3.9 0 01-3.9-3.9zM280.35 166.22a5.85 5.85 0 015.85-5.85c42.9 0 39.87-15.61 66.3-15.61 26.44 0 23.4 15.6 66.3 15.6a5.85 5.85 0 015.85 5.86c0 3.23-2.63 5.84-5.83 6.27-2.48.6-5.87 3.96-5.87 7.39h-120.9c0-3.43-3.39-6.8-5.87-7.39-3.2-.43-5.83-3.04-5.83-6.27z" fill="#A44D17"/><path d="M292.04 179.88s28.28-11.7 60.45-11.7 60.45 11.7 60.45 11.7v140.49h-120.9v-140.5z" fill="#DF6D26"/><path d="M350.54 168.17h3.9v152.2h-3.9v-152.2z" fill="#8C3C0B"/><path d="M292.04 318.42h120.9v1.95h-120.9v-1.95z" fill="#8C3C0B"/><path d="M372 259.88a3.9 3.9 0 013.9-3.9h25.36a3.9 3.9 0 013.9 3.9v48.78a3.9 3.9 0 01-3.9 3.9H364.2a3.9 3.9 0 01-3.9-3.9v-19.98a7.8 7.8 0 012.53-5.76l6.65-6.09a7.8 7.8 0 002.52-5.75v-11.2z" fill="#EA9661"/><path d="M372 255.98a3.9 3.9 0 013.9-3.9h25.36a3.9 3.9 0 013.9 3.9v50.73a3.9 3.9 0 01-3.9 3.9H364.2a3.9 3.9 0 01-3.9-3.9v-21.94a7.8 7.8 0 012.53-5.75l6.65-6.09a7.8 7.8 0 002.52-5.75v-11.2z" fill="#C95D1A"/><path d="M372 257.93a3.9 3.9 0 013.9-3.9h25.36a3.9 3.9 0 013.9 3.9v48.78a3.9 3.9 0 01-3.9 3.9H364.2a3.9 3.9 0 01-3.9-3.9v-19.98a7.8 7.8 0 012.53-5.76l6.65-6.09a7.8 7.8 0 002.52-5.75v-11.2z" fill="#E68142"/><path d="M333 259.88a3.9 3.9 0 00-3.9-3.9h-25.36a3.9 3.9 0 00-3.9 3.9v48.78a3.9 3.9 0 003.9 3.9h37.05a3.9 3.9 0 003.9-3.9v-19.98a7.8 7.8 0 00-2.53-5.76l-6.64-6.09a7.8 7.8 0 01-2.53-5.75v-11.2z" fill="#EA9661"/><path d="M333 255.98a3.9 3.9 0 00-3.9-3.9h-25.36a3.9 3.9 0 00-3.9 3.9v50.73a3.9 3.9 0 003.9 3.9h37.05a3.9 3.9 0 003.9-3.9v-21.94a7.8 7.8 0 00-2.53-5.75l-6.64-6.09a7.8 7.8 0 01-2.53-5.75v-11.2z" fill="#C95D1A"/><path d="M333 257.93a3.9 3.9 0 00-3.9-3.9h-25.36a3.9 3.9 0 00-3.9 3.9v48.78a3.9 3.9 0 003.9 3.9h37.05a3.9 3.9 0 003.9-3.9v-19.98a7.8 7.8 0 00-2.53-5.76l-6.64-6.09a7.8 7.8 0 01-2.53-5.75v-11.2z" fill="#E68142"/><path d="M360.3 184.52a3.9 3.9 0 014.57-3.85l37.05 6.45a3.9 3.9 0 013.23 3.84v51.36a3.9 3.9 0 01-3.9 3.9H375.9a3.9 3.9 0 01-3.9-3.9v-10.2a7.8 7.8 0 00-1.42-4.51l-8.85-12.54a7.81 7.81 0 01-1.43-4.5v-26.05z" fill="#EA9661"/><path d="M360.3 180.32c0-2.32 2.01-4.13 4.31-3.85 4.56.54 11.8 1.46 17.14 2.43 6.14 1.12 15.83 3.74 20.59 5.06 1.67.47 2.81 2 2.81 3.73v50.72a3.9 3.9 0 01-3.9 3.9H375.9a3.9 3.9 0 01-3.9-3.9v-10.2a7.8 7.8 0 00-1.42-4.5l-8.85-12.54a7.8 7.8 0 01-1.43-4.5v-26.35z" fill="#C95D1A"/><path d="M360.3 182.27c0-2.32 2.01-4.12 4.31-3.85 4.56.54 11.8 1.46 17.14 2.43 6.14 1.12 15.83 3.74 20.59 5.06 1.67.47 2.81 2 2.81 3.74v50.72a3.9 3.9 0 01-3.9 3.9H375.9a3.9 3.9 0 01-3.9-3.9v-10.21a7.8 7.8 0 00-1.42-4.5l-8.85-12.54a7.81 7.81 0 01-1.43-4.5v-26.35z" fill="#E68142"/><path d="M344.7 184.52a3.9 3.9 0 00-4.58-3.85l-37.05 6.45a3.9 3.9 0 00-3.23 3.84v51.36a3.9 3.9 0 003.9 3.9h25.35a3.9 3.9 0 003.9-3.9v-10.2c0-1.62.5-3.2 1.43-4.51l8.84-12.54a7.81 7.81 0 001.43-4.5v-26.05z" fill="#EA9661"/><path d="M344.7 180.32c0-2.32-2.01-4.13-4.32-3.85a316.7 316.7 0 00-17.14 2.43c-6.13 1.12-15.82 3.74-20.58 5.06-1.68.47-2.82 2-2.82 3.73v50.72a3.9 3.9 0 003.9 3.9h25.35a3.9 3.9 0 003.9-3.9v-10.2c0-1.61.5-3.19 1.43-4.5l8.84-12.54a7.8 7.8 0 001.43-4.5v-26.35z" fill="#C95D1A"/><path d="M344.7 182.27c0-2.32-2.01-4.12-4.32-3.85-4.55.54-11.8 1.46-17.14 2.43-6.13 1.12-15.82 3.74-20.58 5.06-1.68.47-2.82 2-2.82 3.74v50.72a3.9 3.9 0 003.9 3.9h25.35a3.9 3.9 0 003.9-3.9v-10.21c0-1.61.5-3.18 1.43-4.5l8.84-12.54a7.81 7.81 0 001.43-4.5v-26.35z" fill="#E68142"/><path d="M358.35 158.41a5.85 5.85 0 11-11.7 0 5.85 5.85 0 0111.7 0z" fill="#8C3C0B"/><path d="M358.35 156.46a5.85 5.85 0 11-11.7 0 5.85 5.85 0 0111.7 0z" fill="#DF6D26"/><path fill-rule="evenodd" clip-rule="evenodd" d="M364.19 236.8v-.34c0-2.15-.43-3.9-.97-3.9s-.98 1.75-.98 3.9v.33c-1.13.8-1.95 2.97-1.95 5.53 0 3.23 1.31 5.85 2.93 5.85 1.61 0 2.92-2.62 2.92-5.85 0-2.56-.81-4.72-1.95-5.53zm1.95 19.17c0 2.56-.81 4.73-1.95 5.53v.33c0 2.15-.43 3.9-.97 3.9s-.98-1.75-.98-3.9v-.33c-1.13-.8-1.95-2.97-1.95-5.53 0-3.23 1.31-5.85 2.93-5.85 1.61 0 2.92 2.62 2.92 5.85zM342.75 236.8v-.34c0-2.15-.44-3.9-.97-3.9-.54 0-.98 1.75-.98 3.9v.33c-1.13.8-1.95 2.97-1.95 5.53 0 3.23 1.31 5.85 2.93 5.85 1.61 0 2.92-2.62 2.92-5.85 0-2.56-.81-4.72-1.95-5.53zm1.95 19.17c0 2.56-.81 4.73-1.95 5.53v.33c0 2.15-.44 3.9-.97 3.9-.54 0-.98-1.75-.98-3.9v-.33c-1.13-.8-1.95-2.97-1.95-5.53 0-3.23 1.31-5.85 2.93-5.85 1.61 0 2.92 2.62 2.92 5.85z" fill="#8C3C0B"/><path d="M366.15 249.15a2.93 2.93 0 11-5.85 0 2.93 2.93 0 015.85 0z" fill="#576364"/><path fill-rule="evenodd" clip-rule="evenodd" d="M365.99 248.17a2.93 2.93 0 01-5.52 0 2.93 2.93 0 105.52 0z" fill="#25383B"/><path d="M344.7 249.15a2.93 2.93 0 11-5.85 0 2.93 2.93 0 015.85 0z" fill="#576364"/><path fill-rule="evenodd" clip-rule="evenodd" d="M344.54 248.17a2.93 2.93 0 01-5.52 0 2.93 2.93 0 105.52 0z" fill="#25383B"/><path fill-rule="evenodd" clip-rule="evenodd" d="M292.05 181.1v-1.22c0-.3-.03-.59-.07-.88l.5-.2c3.08-1.3 7.6-3.02 13.3-4.73a163.04 163.04 0 0146.72-6.88c19.14 0 35.32 3.44 46.72 6.88a137.22 137.22 0 0113.8 4.94c-.05.28-.07.58-.07.87v1.22l-1.18-.5a135.29 135.29 0 00-13.1-4.67 161.09 161.09 0 00-46.17-6.78c-18.91 0-34.9 3.39-46.17 6.78a135.19 135.19 0 00-14.28 5.17z" fill="#8C3C0B"/><path d="M470 62.8a7.8 7.8 0 017.8-7.8h179.4c4.3 0 7.8 3.5 7.8 7.8v304.4a7.8 7.8 0 01-7.8 7.8H477.8a7.8 7.8 0 01-7.8-7.8V62.8z" fill="#59473A"/><path fill-rule="evenodd" clip-rule="evenodd" d="M657.2 58.9H477.8a3.9 3.9 0 00-3.9 3.9v304.4a3.9 3.9 0 003.9 3.9h179.4a3.9 3.9 0 003.9-3.9V62.8a3.9 3.9 0 00-3.9-3.9zM477.8 55a7.8 7.8 0 00-7.8 7.8v304.4a7.8 7.8 0 007.8 7.8h179.4c4.3 0 7.8-3.5 7.8-7.8V62.8a7.8 7.8 0 00-7.8-7.8H477.8z" fill="#28231E"/><g filter="url(#filter2_d)" fill="#FAEAD1"><path d="M506.11 111.28c-.06-.46-.2-1.32-.4-2.6-.21-1.26-.37-2.13-.47-2.6l1.15-.34c.43 1.04.9 1.88 1.42 2.54a4.87 4.87 0 001.85 1.44c.7.3 1.44.46 2.21.46a4.1 4.1 0 003.1-1.24 4.61 4.61 0 001.19-3.32c0-1.49-.44-2.6-1.3-3.33a4.8 4.8 0 00-3.26-1.11c-.63 0-1.3.1-2.03.29l-.2-.2.03-.23.3-1.01.32-1.34.15-.02 1.25.02c.62 0 1.23-.16 1.84-.48a3.57 3.57 0 001.9-3.17c0-.9-.32-1.64-.96-2.25-.64-.6-1.48-.9-2.52-.9-.67 0-1.29.1-1.85.32-.56.2-.97.47-1.23.79a6.1 6.1 0 00-.8 1.68c-.1.32-.2.56-.26.72l-1.26-.09.76-3.48c.1-.5.2-1.1.27-1.77a7.8 7.8 0 012.5-1.25c.94-.27 1.97-.41 3.09-.41 2 0 3.53.47 4.6 1.42 1.05.94 1.59 2.1 1.59 3.5 0 1.06-.32 2.01-.95 2.85a8.67 8.67 0 01-2.88 2.26 5.9 5.9 0 014.06 1.85c.4.43.68.9.86 1.44a7.37 7.37 0 01-2.37 7.63 10.9 10.9 0 01-7.5 2.84c-.82 0-1.54-.07-2.16-.21-.6-.14-1.28-.37-2.04-.7zM550.38 109.96l.22.22a75.26 75.26 0 00-1.8 6.84l-.2.16h-.9l-.23-.16c0-2.3-.06-3.69-.17-4.17a1.4 1.4 0 00-.88-.99c-.45-.18-2.36-.28-5.7-.28-1.14 0-2.24.03-3.33.07a5.67 5.67 0 00-2.02.33 1.4 1.4 0 00-.6.8c-.12.38-.17 1.32-.17 2.82v1.42l-.23.16h-.92l-.2-.16a67.76 67.76 0 00-1.57-6.09l-.24-.75.24-.22 1 .15 8.9-12.45c.12-.2.18-.32.18-.38 0-.07-.06-.13-.19-.2a3.76 3.76 0 00-1.04-.2c-.59-.08-1.27-.13-2.04-.16l-.23-.2v-1l.21-.18a199.01 199.01 0 009.12 0l.4.21-.13 4.01c-.03 1.04-.05 2.46-.05 4.26 0 3.4.05 5.45.14 6.14l.17.22 2.26-.22zm-6.92.22V97.37h-.24l-3.77 6.16-4.05 6.65h8.06zM568.15 106.4a4.7 4.7 0 01-1.71 3.73 6.7 6.7 0 01-4.54 1.52 123.5 123.5 0 00-8.38 0l-.12-.12v-.73l.07-.14c.6-.38.92-.62.96-.74.08-.26.12-1.55.12-3.86v-5.18c0-2.27-.08-3.52-.24-3.73a.66.66 0 00-.41-.26c-.25-.06-.8-.12-1.68-.17l-.16-.16v-1.04l.12-.18c1.92.06 3.12.1 3.6.1a202.19 202.19 0 007.11-.1c2.14 0 3.54.5 4.22 1.48.34.5.51 1.09.51 1.75a3.4 3.4 0 01-1.97 3.22c-.56.3-1.3.56-2.2.77 3.13.13 4.7 1.41 4.7 3.85zm-5.09-7.13c0-1.66-.88-2.48-2.63-2.48-.5 0-.99.02-1.48.08-.03.92-.05 1.66-.05 2.25v2.96c.16.03.37.04.63.04 2.36 0 3.53-.95 3.53-2.85zm.5 7.4c0-2.24-1.2-3.35-3.61-3.35l-1.05.03v5.11c0 .61.02 1.18.05 1.7.45.06.84.09 1.18.09 1.5 0 2.51-.58 3.04-1.75.26-.58.4-1.2.4-1.84zM587 103.05l-.23.27c-.85.33-2.82.5-5.93.5-1.93 0-3.7-.02-5.28-.05.1 1.81.6 3.27 1.49 4.35 1 1.2 2.37 1.8 4.13 1.8 1.74 0 3.28-.45 4.63-1.37l.29.6-.69 1.46a12.64 12.64 0 01-6.13 1.7c-3.51 0-5.9-1.3-7.18-3.86a9.96 9.96 0 01-1-4.48c0-2.57.77-4.65 2.32-6.24a8.63 8.63 0 016.44-2.66c2.34 0 4.12.59 5.33 1.77 1.21 1.17 1.82 3.06 1.82 5.66v.55zm-4.57-.93a17.2 17.2 0 00-.19-2.57 3.8 3.8 0 00-1.18-2.22 3.23 3.23 0 00-2.13-.65c-2.36 0-3.54 1.53-3.54 4.6l.01.98a53.07 53.07 0 007.03-.14zM609.25 101.66c0 4-1.49 6.92-4.47 8.74a10.96 10.96 0 01-5.83 1.53c-.88 0-1.83-.11-2.84-.33v4.72c0 1.31.04 2.14.12 2.49.05.25.2.42.46.51.22.08.97.15 2.26.2l.17.18v1.06l-.19.16-.78-.04a98.48 98.48 0 00-8.78.04l-.17-.18v-1.04l.17-.17a9.77 9.77 0 001.89-.2c.2-.06.35-.23.43-.5.06-.25.1-1.08.1-2.51v-15.57c0-1.43-.04-2.27-.12-2.52-.07-.27-.2-.43-.41-.5-.24-.08-.9-.14-1.96-.19l-.18-.17v-.96l.15-.17c2.14-.23 4.3-.71 6.51-1.44l.36.22-.01 2.91a8.3 8.3 0 016.3-2.93c1.2 0 2.32.26 3.36.77a5.9 5.9 0 012.54 2.3 6.9 6.9 0 01.92 3.59zm-4.45 2.24c0-2.7-.77-4.54-2.3-5.5a4.65 4.65 0 00-2.54-.74c-1.72 0-2.88.66-3.46 1.99-.26.6-.4 1.56-.4 2.86v5.87c1.26 1.28 2.6 1.92 4.02 1.92.92 0 1.77-.3 2.53-.88a5.13 5.13 0 001.6-2.17 9.2 9.2 0 00.55-3.35zM629.25 106c0 3.14-1.64 4.95-4.93 5.43-1.02.15-2.05.22-3.1.2l-5.13-.05c-.86 0-2.27.03-4.23.1l-.2-.15v-1.06l.18-.15a9.08 9.08 0 001.89-.2c.21-.08.36-.25.44-.52.07-.24.1-1.07.1-2.5v-5.7c0-2.64-.08-4.07-.25-4.27a.73.73 0 00-.43-.26c-.25-.06-.85-.1-1.8-.15l-.15-.16v-1.04l.12-.18a103.74 103.74 0 009.3 0l.19.18v1.04l-.17.17-1.2.06c-.56.05-.91.19-1.06.4-.12.17-.18.54-.18 1.14v2.91l4.72.02c1.93 0 3.4.39 4.38 1.17 1.01.77 1.51 1.96 1.51 3.56zm-4.59-.23c0-1.4-.5-2.37-1.5-2.9-.58-.3-2.08-.44-4.51-.44v4.92c0 1.45.18 2.32.56 2.59.22.16.55.24 1.01.24.81 0 1.58-.2 2.3-.6.76-.44 1.32-1 1.66-1.7.32-.64.48-1.34.48-2.1z"/></g><path d="M526.55 224.76a40.96 40.96 0 1181.9 0v115.12h-81.9V224.76z" fill="#DF6D26"/><path fill-rule="evenodd" clip-rule="evenodd" d="M552.86 220.82s-.97-13.68-.97-22.45c0-8.76.97-22.44.97-22.44s.98 13.68.98 22.44c0 8.77-.98 22.45-.98 22.45zm32.19 93.69l1.95-46.85 1.95 46.84h-.98l.98 23.43h-3.9l.98-23.43h-.98zm-52.67 23.42l.97-66.37.98 66.37h-1.96zm39.02 1.95l1.95-17.57 1.95 17.57h-3.9zm-17.56-13.66l-1.95-13.67h3.9l-1.95 13.67zm0-58.56L551.89 295h3.9l-1.95-27.33zm33.16-56.6c0 12.2.98 31.23.98 31.23s.98-19.04.98-31.23c0-12.2-.98-31.23-.98-31.23s-.98 19.03-.98 31.23zm-14.63 68.31s-.97-22-.97-36.1c0-14.1.97-36.12.97-36.12s.98 22.01.98 36.11c0 14.1-.98 36.11-.98 36.11zm-40-53.67c0 14.1.98 36.1.98 36.1s.98-22 .98-36.1c0-14.1-.98-36.11-.98-36.11s-.98 22-.98 36.1z" fill="#A44D17"/><path d="M596.74 263.76a3.9 3.9 0 11-7.8 0v-1.95h7.8v1.95zM596.74 283.27a3.9 3.9 0 11-7.8 0v-1.95h7.8v1.95z" fill="#A44D17"/><path d="M596.75 281.32a3.9 3.9 0 11-7.81 0 3.9 3.9 0 017.8 0z" fill="#576364"/><path fill-rule="evenodd" clip-rule="evenodd" d="M596.52 280.02a3.9 3.9 0 01-7.36 0 3.9 3.9 0 003.68 5.2 3.9 3.9 0 003.68-5.2z" fill="#25383B"/><path d="M596.75 261.8a3.9 3.9 0 11-7.81 0 3.9 3.9 0 017.8 0z" fill="#576364"/><path fill-rule="evenodd" clip-rule="evenodd" d="M596.52 260.5a3.9 3.9 0 01-7.36 0 3.9 3.9 0 003.68 5.21 3.9 3.9 0 003.68-5.2z" fill="#25383B"/><path d="M590.9 261.8a1.95 1.95 0 113.9 0v19.52a1.95 1.95 0 11-3.9 0v-19.51z" fill="#25383B"/><path fill-rule="evenodd" clip-rule="evenodd" d="M545.58 169.46a1.9 1.9 0 011.45-2.38l21.5-4.72c.36-.07.73-.05 1.07.06l18.48 6.24a1.9 1.9 0 011.2 2.43l-.32.92a1.97 1.97 0 013.16-.67L610.9 189c.8.75.8 2.01 0 2.76l-18.22 16.9c-.67.62-1.7.7-2.46.18l-10.32-7.08a1.89 1.89 0 01-.75-2.1 1.95 1.95 0 01-1.84 1.28h-21.19c-.84 0-1.59-.53-1.85-1.3l.01.04c.22.76-.06 1.57-.7 2.04l-7.29 5.33c-.74.54-1.76.5-2.46-.1L524.16 190a1.88 1.88 0 01-.06-2.81l18.58-17.46a1.97 1.97 0 013.2.77l-.3-1.04zm-1.82 37.43l-19.04-16.4a1.97 1.97 0 00-3.12.79l-7.92 21.7a1.9 1.9 0 001.39 2.5l-.38-.09a1.96 1.96 0 00-2.29 1.28l-3.31 10.18c-.1.3-.12.64-.05.96L512.6 245c.17.82.86 1.42 1.68 1.51-.8.15-1.43.78-1.56 1.58l-3.4 20.83c-.19 1.2.79 2.26 2.02 2.2l-.52.04a1.93 1.93 0 00-1.82 1.97l.68 20.93c.03 1.03.9 1.85 1.95 1.85h20.33c1.03 0 1.88-.79 1.94-1.8l1.37-22.42a1.93 1.93 0 00-2.03-2.02l.34-.02a1.93 1.93 0 001.82-1.9v-21.57c0-1.01-.8-1.82-1.78-1.9.2-.26.33-.57.37-.9l2.79-21.37a1.91 1.91 0 00-1.49-2.1l.37.08c.8.18 1.63-.16 2.07-.84l6.39-9.8c.52-.8.37-1.84-.36-2.46zm-32.56 90.78c.08-1 .93-1.76 1.95-1.76h20.42c1.03 0 1.88.78 1.95 1.79l1.38 21.15c.06.96-.62 1.82-1.58 2l-.9.17c1.29-.2 2.42.85 2.26 2.11l-1.88 15.07a1.94 1.94 0 01-1.93 1.68h-21.29c-1.03 0-1.89-.8-1.95-1.8l-.6-10.6c-.05-.96.62-1.8 1.58-1.99l.79-.14c-1.25.2-2.36-.8-2.26-2.04l2.06-25.64zm99.47-105.7l-18.08 16.78c-.62.58-.79 1.5-.4 2.25l5.07 9.72c.4.78 1.3 1.19 2.17 1l.1-.03a1.91 1.91 0 00-1.46 2l1.35 17.69c.07 1 .92 1.77 1.94 1.77h22.02c1.03 0 1.88-.79 1.95-1.8l.66-10.2c.02-.2 0-.42-.07-.63l-3.42-12a1.95 1.95 0 00-2.25-1.37h.05a1.92 1.92 0 001.51-2.09l-1.36-11.92a1.89 1.89 0 00-.3-.82l-6.5-9.98a1.98 1.98 0 00-2.98-.36zm11.16 51.18h-20.2c-1.13 0-2.02.93-1.94 2.04l1.34 19.17c.07.95.84 1.7 1.8 1.77l.25.02c-1.07-.06-1.99.73-2.06 1.78l-1.33 20.52c-.08 1.16.9 2.11 2.08 2.03l21.69-1.49c1-.06 1.77-.86 1.81-1.83l.67-17.55a1.93 1.93 0 00-1.81-1.97l-.4-.03c1.2.07 2.17-.92 2.06-2.09l-2.02-20.64a1.94 1.94 0 00-1.94-1.73zm1.36 45.86l-21.7 1.49c-1.07.07-1.88 1-1.8 2.05l1.32 17.42c.08.98.9 1.75 1.9 1.77h-1.3c-1.12 0-2.01.92-1.95 2.01l1.39 24.32c.06 1.02.91 1.8 1.95 1.8h18.76c1.03 0 1.89-.78 1.95-1.8l1.38-24.31c.06-1.08-.8-2-1.9-2.02h.8c1.1 0 1.98-.9 1.95-1.98l-.67-18.9a1.94 1.94 0 00-2.08-1.85z" fill="#A44D17"/><path d="M608.45 253.08v-26.37l-24.37 3.76h-57.53v20.73l28.28 2.83 53.62-.95z" fill="#A44D17"/><path d="M608.45 249.18V222.8l-24.37 3.77h-57.53v20.73l28.28 2.82 53.62-.94z" fill="#EA9661"/><path d="M608.45 251.13v-26.37l-24.37 3.76h-57.53v20.73l28.28 2.82 53.62-.94z" fill="#E58142"/><path d="M608.45 316.46V295l-37.05-2.93-26.32.98-18.53-1.95v27.31h45.83l36.07-1.95z" fill="#A44D17"/><path d="M608.45 312.56V291.1l-37.05-2.93-26.32.98-18.53-1.95v27.31h45.83l36.07-1.95z" fill="#EA9661"/><path d="M608.45 314.51v-21.46l-37.05-2.93-26.32.98-18.53-1.95v27.31h45.83l36.07-1.95z" fill="#E58142"/><path fill-rule="evenodd" clip-rule="evenodd" d="M538.24 299.88s7.73-.98 12.68-.98c4.95 0 12.67.98 12.67.98s-7.72.97-12.67.97-12.68-.97-12.68-.97zM559.7 307.68s12.47-.97 20.47-.97c8 0 20.47.97 20.47.97s-12.48.98-20.47.98c-8 0-20.48-.98-20.48-.98zM536.3 231.59s12.48-.98 20.48-.98 20.47.97 20.47.97-12.48.98-20.48.98-20.47-.97-20.47-.97zM551.9 245.24s4.16-.97 6.83-.97c2.66 0 6.82.97 6.82.97s-4.15.98-6.82.98-6.83-.98-6.83-.98zM569.45 239.4s12.47-.99 20.47-.99c8 0 20.48.98 20.48.98s-12.48.98-20.48.98-20.47-.98-20.47-.98z" fill="#A44D17"/><path fill-rule="evenodd" clip-rule="evenodd" d="M533.7 295.9l.62 42.03h-1.95l.62-42.03H533.7zm-.02-1.08c-.15.31-.4.58-.7.77l.36-24.02.34 23.25zm.3-50.5c-.28 9.46-.64 17.49-.64 17.49s-.97-22.01-.97-36.11c0-8.7.37-20.39.65-28.08l.66.57c.29 7.7.64 19.03.64 27.5 0 5.17-.13 11.38-.3 17.2l-.06.46c-.04.33-.17.64-.37.9.13 0 .26.03.39.07zm-.3-46.13l-.66-.57c.18-4.8.32-8.03.32-8.03s.16 3.5.34 8.6zm20.12 3.28a1.9 1.9 0 01-.25.21l-1.6 1.17c-.04-1.56-.07-3.08-.07-4.48 0-8.76.98-22.44.98-22.44s.97 13.68.97 22.44l-.03 3.1zm35.13 6.44l-1.9-1.3c.18-11.88.94-26.78.94-26.78s.82 16.02.96 28.08z" fill="#8C3C0B"/><path fill-rule="evenodd" clip-rule="evenodd" d="M535.63 230.58h-9.11v21.47l8.86.91v-6.8c0-1.02-.8-1.83-1.78-1.91.2-.26.32-.57.37-.9l1.66-12.77zm72.83 12.54V254l-8.13.15-.63-9a1.93 1.93 0 011.95-2.03h6.8zm-10.03-14.84l10.03-1.6v16.44h-7.09a1.94 1.94 0 01-1.94-1.77l-1-13.07zm-64.41 63.6l-7.5-.8v4.82h5.41c1.04 0 1.89-.8 1.95-1.8l.14-2.23zm2.82 26.53h-10.32V295.9h7.03c1.03 0 1.88.78 1.94 1.79l1.35 20.72zm63-24.1l8.62.68v21.47l-8.6.46-.19-3.17a1.93 1.93 0 011.95-2.02h1.3c-1-.02-1.82-.79-1.9-1.77l-1.19-15.65z" fill="#8C3C0B"/><path fill-rule="evenodd" clip-rule="evenodd" d="M536.14 226.67h-9.62v21.47l8.86.92v-2.9c0-1.02-.8-1.83-1.78-1.91.2-.26.32-.57.37-.9l2.17-16.68zm72.32 16.45v6.97l-8.4.16-.36-5.09a1.93 1.93 0 011.95-2.04h6.8zm-10.32-18.7l10.32-1.65v20.35h-7.09a1.94 1.94 0 01-1.94-1.77l-1.29-16.93zM534.25 288l-7.73-.81v8.72h5.41c1.04 0 1.89-.8 1.95-1.8l.37-6.1zm2.34 26.51h-10.07v-18.6h7.03c1.03 0 1.88.78 1.94 1.79l1.1 16.81zm64.68-23.99l7.19.57v21.47l-8.69.47c.27-.75 1-1.29 1.85-1.29h1.3c-1-.02-1.82-.79-1.9-1.77l-1.32-17.43a1.92 1.92 0 011.57-2.01z" fill="#C75914"/><path fill-rule="evenodd" clip-rule="evenodd" d="M535.89 228.63h-9.37v21.47l8.86.91v-4.86c0-1-.8-1.82-1.78-1.9.2-.26.32-.57.37-.9l1.92-14.72zm72.57 14.49v8.93l-8.27.15-.5-7.04a1.93 1.93 0 011.96-2.04h6.8zm-10.17-16.77l10.17-1.63v18.4h-7.09a1.94 1.94 0 01-1.94-1.77l-1.14-15zm-64.16 63.58l-7.61-.8v6.77h5.41c1.04 0 1.89-.8 1.95-1.8l.25-4.17zm2.59 26.53h-10.2V295.9h7.03c1.03 0 1.88.78 1.94 1.79l1.23 18.77zm62.97-24.12l8.77.7v21.46l-8.72.48-.07-1.23a1.93 1.93 0 011.95-2.02h1.3c-1-.02-1.82-.79-1.9-1.77l-1.32-17.43v-.19z" fill="#A44D17"/><path fill-rule="evenodd" clip-rule="evenodd" d="M599.23 238.66c5.9.29 11.18.7 11.18.7s-5.23.4-11.08.7l-.1-1.4z" fill="#8C3C0B"/><path d="M543.92 335l-17.5.88c-1.04.06-1.86.91-1.86 1.95v1.07h29.76l-1-1.97c-.29-.6-.87-1-1.52-1.07l-7.57-.84c-.1-.01-.21-.02-.31-.01zM567.24 334.06l-11.68 1.55a1.95 1.95 0 00-1.48 2.81l.24.48h29.75l-.59-1.76a1.95 1.95 0 00-1.6-1.32l-14.14-1.77a1.95 1.95 0 00-.5 0z" fill="#E4CFC6"/><path d="M610.27 334.16l-24.66 1.65a1.95 1.95 0 00-1.72 2.56l.17.53h28.3v-2.8c0-1.12-.96-2.01-2.09-1.94z" fill="#E4CFC6"/><path d="M526.5 337.93h81.95v1.95h-81.94v-1.95zM600.86 334.78l7.59-.54v3.69h-7.4l-.2-3.15zM535.1 335.45l-6.62.34v2.14h6.3l.33-2.48z" fill="#AF826E"/><path d="M540.84 153.61a1.95 1.95 0 011.48-2.51l26.63-5.33c.31-.06.64-.05.95.05l22.87 7.04a1.95 1.95 0 011.24 2.59l-12.38 30.96a1.95 1.95 0 01-1.81 1.23h-26.53c-.84 0-1.6-.55-1.86-1.35l-10.59-32.68z" fill="#E4CFC6"/><path d="M540.84 153.61c-.54-1 .33-2.28 1.47-2.51l26.64-5.33c.31-.06.64-.05.95.05l22.87 7.04c1.09.33 1.04.68 1.04 1.65 0 0-1.4 5.53-5.85 9.76-1.17 1.11-26.32 5.59-29.25 4.88-2.92-.72-14.42-8.78-16.4-11.71-2.5-3.71-1.15-3.23-1.47-3.83z" fill="#EDE1DC"/><path fill-rule="evenodd" clip-rule="evenodd" d="M569.62 146.75a.98.98 0 00-.48-.02l-26.63 5.33a.98.98 0 00-.73 1.25L552.37 186c.13.4.5.67.93.67h26.52c.4 0 .76-.24.9-.61l12.39-30.96a.98.98 0 00-.62-1.3l-22.87-7.04zm-.86-1.94c.48-.1.97-.07 1.44.08l22.86 7.04c1.64.5 2.5 2.3 1.86 3.88l-12.38 30.96a2.93 2.93 0 01-2.72 1.84H553.3c-1.27 0-2.4-.81-2.79-2.02l-10.59-32.67a2.93 2.93 0 012.21-3.78l26.63-5.33z" fill="#C09784"/><path d="M542.64 158.06l8.81 28.18c.26.83-.06 1.73-.78 2.2l-9.33 6.23c-.7.46-1.6.43-2.27-.08l-22.54-17.35a1.95 1.95 0 01-.23-2.88l14.66-15.53c.29-.3.66-.51 1.07-.58l8.4-1.53c.97-.18 1.92.4 2.22 1.34z" fill="#E4CFC6"/><path d="M542.64 158.06l3.41 11.09c.26.82-1.23 7.61-1.95 8.1-.72.47-8.08.21-8.77.68-.7.46-6.17 4.41-6.83 3.9l-11.97-4.59a1.95 1.95 0 01-.23-2.88l14.66-15.53c.29-.3.66-.51 1.07-.58l8.4-1.53c.97-.18 1.92.4 2.22 1.34z" fill="#EDE1DC"/><path fill-rule="evenodd" clip-rule="evenodd" d="M540.25 155.76c1.46-.27 2.88.6 3.32 2l8.8 28.2a2.93 2.93 0 01-1.16 3.3l-9.33 6.22c-1.04.7-2.41.65-3.4-.11l-22.55-17.35a2.93 2.93 0 01-.35-4.33l14.67-15.53c.42-.46.99-.76 1.6-.87l8.4-1.53zm1.46 2.59a.98.98 0 00-1.1-.67l-8.41 1.53c-.2.03-.4.13-.54.29L517 175.03a.98.98 0 00.12 1.44l22.54 17.35c.33.25.79.27 1.14.04l9.32-6.22a.98.98 0 00.4-1.1l-8.81-28.2z" fill="#C09784"/><path d="M514.51 175.28l24.2 19.01c.81.65.98 1.82.37 2.67l-7.93 11.12c-.45.63-1.22.93-1.98.78l-25.95-5.2a1.95 1.95 0 01-1.5-2.44l5.2-18.17c.05-.2.14-.38.25-.55l4.51-6.77a1.95 1.95 0 012.83-.45z" fill="#E4CFC6"/><path d="M514.51 175.28l19.84 15.33c.81.64-13.05 2.08-13.65 2.93-.61.85-4.88 10.73-4.88 10.73-.45.62 14.1 4.74 13.35 4.59l-25.95-5.2a1.95 1.95 0 01-1.5-2.44l5.2-18.17c.05-.2.14-.38.25-.55l4.51-6.77a1.95 1.95 0 012.83-.45z" fill="#EDE1DC"/><path fill-rule="evenodd" clip-rule="evenodd" d="M510.87 175.19a2.93 2.93 0 014.24-.68l24.2 19.02a2.93 2.93 0 01.57 4l-7.94 11.12a2.93 2.93 0 01-2.96 1.17l-25.95-5.2a2.93 2.93 0 01-2.24-3.67l5.19-18.17c.08-.29.2-.56.38-.82l4.51-6.77zm3.04.85a.98.98 0 00-1.42.23l-4.51 6.77a.95.95 0 00-.13.28l-5.19 18.16a.98.98 0 00.75 1.23l25.96 5.2c.37.07.76-.09.98-.4l7.94-11.12a.98.98 0 00-.2-1.33l-24.18-19.02z" fill="#C09784"/><path d="M496.37 216.5l2.44-11.39a1.95 1.95 0 012.26-1.5l27.51 5.15a1.95 1.95 0 011.58 2.2l-3.42 23.92c-.13.9-.87 1.6-1.78 1.67l-22.13 1.7a1.95 1.95 0 01-2.05-1.5l-4.4-19.42a1.94 1.94 0 01-.01-.84z" fill="#E4CFC6"/><path d="M496.37 216.5l2.44-11.39a1.95 1.95 0 012.26-1.5l27.51 5.15c1.03.2-1.88-1.41-2.03-.38 0 0-2.93 12.47-3.9 13.45-.98.97-10.73 5.85-13.65 5.85-2.93 0-10.2-1.95-10.2-1.95-.96.08 2.2 11.96 1.98 11.01l-4.4-19.4a1.94 1.94 0 01-.01-.85z" fill="#EDE1DC"/><path fill-rule="evenodd" clip-rule="evenodd" d="M500.89 204.56a.98.98 0 00-1.14.76l-2.43 11.38a1 1 0 000 .42l4.4 19.4c.11.48.55.8 1.03.76l22.13-1.7a.98.98 0 00.89-.84l3.41-23.92a.98.98 0 00-.78-1.1l-27.51-5.16zm-3.04.35a2.93 2.93 0 013.4-2.27l27.5 5.16a2.93 2.93 0 012.37 3.3l-3.42 23.92a2.93 2.93 0 01-2.67 2.5l-22.13 1.7a2.93 2.93 0 01-3.07-2.26l-4.41-19.4c-.1-.42-.1-.85-.01-1.27l2.44-11.38z" fill="#C09784"/><path d="M502.6 238.23l23.7-2.54a1.95 1.95 0 012.16 1.94v24.3c0 1.02-.8 1.88-1.83 1.94l-27.89 1.69a1.95 1.95 0 01-2.04-2.3l4.19-23.43c.15-.86.85-1.5 1.71-1.6z" fill="#E4CFC6"/><path d="M502.6 238.23l23.7-2.54a1.95 1.95 0 012.16 1.94l.03 4.69c0 1.03 1 3.84-.03 3.9 0 0-14.08 8.57-17.52 8.78-3.45.2-11.92-1.68-11.7-2.93l1.65-12.24c.15-.86.85-1.5 1.71-1.6z" fill="#EDE1DC"/><path fill-rule="evenodd" clip-rule="evenodd" d="M527.49 237.63a.98.98 0 00-1.08-.97l-23.7 2.54a.98.98 0 00-.86.8l-4.18 23.44a.98.98 0 001.02 1.14l27.88-1.69a.98.98 0 00.92-.97v-24.3zm-1.3-2.91a2.93 2.93 0 013.25 2.9v24.3c0 1.55-1.2 2.83-2.75 2.92l-27.89 1.7a2.93 2.93 0 01-3.05-3.44l4.18-23.45a2.93 2.93 0 012.57-2.4l23.7-2.53z" fill="#C09784"/><path d="M498.18 265.6l28.08-1.7c1.17-.08 2.14.9 2.06 2.07l-1.68 25.24a1.95 1.95 0 01-1.95 1.83h-25.56a1.95 1.95 0 01-1.94-1.89l-.84-23.54a1.95 1.95 0 011.83-2.02z" fill="#E4CFC6"/><path d="M498.18 265.6l28.08-1.7c1.17-.08 2.14.9 2.06 2.07l-.8 8.54c-.07 1.03-7.75 6.83-8.77 6.83h-14.63c-1.05 0-7.74-5.78-7.77-6.83v-6.9a1.95 1.95 0 011.83-2.02z" fill="#EDE1DC"/><path fill-rule="evenodd" clip-rule="evenodd" d="M527.35 265.9a.98.98 0 00-1.03-1.03l-28.09 1.7a.98.98 0 00-.91 1l.84 23.55c.02.52.45.94.97.94h25.56c.51 0 .94-.4.97-.91l1.69-25.25zm-1.15-2.98a2.93 2.93 0 013.1 3.12l-1.69 25.24a2.93 2.93 0 01-2.92 2.73h-25.56a2.93 2.93 0 01-2.92-2.82l-.84-23.54a2.93 2.93 0 012.75-3.03l28.08-1.7z" fill="#C09784"/><path d="M526.65 293.03H501c-1.01 0-1.85.78-1.94 1.78l-2.55 28.88a1.95 1.95 0 002.27 2.1l29.9-5.13a1.95 1.95 0 001.62-2.06l-1.7-23.75a1.95 1.95 0 00-1.94-1.82z" fill="#E4CFC6"/><path d="M526.65 293.03H501c-1.01 0-1.85.78-1.94 1.78l-2.55 28.88a1.95 1.95 0 002.27 2.1L498 306.7c.99-.17 17.83 6.83 21.73 4.88 3.9-1.96 8.87-16.74 8.87-16.74a1.95 1.95 0 00-1.95-1.82z" fill="#EDE1DC"/><path fill-rule="evenodd" clip-rule="evenodd" d="M498.07 294.73a2.93 2.93 0 012.92-2.67h25.66a2.93 2.93 0 012.92 2.72l1.7 23.75c.1 1.5-.95 2.84-2.43 3.1l-29.9 5.12a2.93 2.93 0 01-3.42-3.14l2.55-28.88zm2.92-.72c-.51 0-.93.39-.98.9l-2.54 28.87a.98.98 0 001.13 1.05l29.9-5.13c.5-.09.85-.53.82-1.03l-1.7-23.75a.98.98 0 00-.97-.9h-25.66z" fill="#C09784"/><path d="M498.02 325.92l29.71-5.1c1.32-.23 2.47.9 2.26 2.23l-2.5 15.85h-30.24L496.4 328c-.08-1 .62-1.9 1.61-2.07z" fill="#E4CFC6"/><path d="M498.02 325.92l29.71-5.1c1.32-.23 2.47.9 2.26 2.23 0 0-7.08 7.9-13.2 10-7.21 2.46-19.5-.98-19.5-.98l-.88-4.08c-.08-1 .62-1.9 1.61-2.07z" fill="#EDE1DC"/><path fill-rule="evenodd" clip-rule="evenodd" d="M529.03 322.9a.98.98 0 00-1.13-1.12l-29.71 5.1a.97.97 0 00-.81 1.03l.77 10.02h28.5l2.38-15.03zm-1.46-3.04a2.93 2.93 0 013.38 3.34l-2.63 16.68h-31.98l-.9-11.82a2.93 2.93 0 012.42-3.1l29.7-5.1z" fill="#C09784"/><path d="M592.05 158.57l-10.34 27.57c-.33.87 0 1.85.8 2.34l13.02 8.15c.73.45 1.67.38 2.32-.19l20.83-18.23c.82-.72.9-1.97.17-2.78l-7.25-8.06c-.14-.15-.3-.28-.48-.38l-16.27-9.43a1.95 1.95 0 00-2.8 1z" fill="#E4CFC6"/><path d="M592.04 158.57l-10.34 27.57c-.33.87-.37-.49.42 0l6.82-17.97c.73.46 1.05 4.95 4.88 8.78 1.02 1.03 7.8 2.93 11.7 2.93 3.9 0 13.4-3.1 12.67-3.9l-6.6-8.6c-.14-.16-.3-.29-.48-.4l-16.27-9.42a1.95 1.95 0 00-2.8 1z" fill="#EDE1DC"/><path fill-rule="evenodd" clip-rule="evenodd" d="M594.35 158.4a.98.98 0 00-1.4.51l-10.34 27.58c-.16.43 0 .92.4 1.17l13.03 8.14c.36.23.83.2 1.16-.1l20.83-18.23c.41-.36.45-.98.08-1.39l-7.25-8.06.59-.52-.59.53a.97.97 0 00-.23-.2l-16.28-9.42zm-3.23-.18a2.93 2.93 0 014.21-1.5l16.27 9.42c.27.16.5.35.71.58l7.25 8.06a2.93 2.93 0 01-.25 4.16l-20.83 18.24c-.97.85-2.38.96-3.48.28l-13.02-8.15a2.93 2.93 0 01-1.2-3.51l10.35-27.58z" fill="#C09784"/><path d="M620.5 177.3l-22.51 19.05c-.72.6-.9 1.64-.44 2.46l6.3 11.03a1.95 1.95 0 002.08.94l26.11-5.22c1-.2 1.68-1.14 1.55-2.16l-1.66-13.32a1.95 1.95 0 00-.35-.9l-8.24-11.53a1.95 1.95 0 00-2.85-.36z" fill="#E4CFC6"/><path d="M620.5 177.3l-22.51 19.05c-.72.6-.9 1.64-.44 2.46l6.3 11.03a1.95 1.95 0 002.08.94l-6.26-15.3c1-.2 13.88 3.9 20.47 1.96 5.2-1.53 11.79-7.36 11.79-7.36a1.95 1.95 0 00-.35-.9l-8.24-11.53a1.95 1.95 0 00-2.85-.36z" fill="#EDE1DC"/><path fill-rule="evenodd" clip-rule="evenodd" d="M622.56 178.22a.98.98 0 00-1.43-.18l-22.5 19.05a.98.98 0 00-.22 1.23l6.3 11.03c.2.37.63.56 1.04.48l26.1-5.23c.5-.1.85-.57.78-1.07l-1.66-13.33a.96.96 0 00-.18-.44l-8.23-11.54zm-2.69-1.67a2.93 2.93 0 014.27.53l8.24 11.54c.28.4.46.86.52 1.34l1.67 13.32a2.93 2.93 0 01-2.33 3.24l-26.11 5.22a2.93 2.93 0 01-3.12-1.42l-6.3-11.03a2.93 2.93 0 01.65-3.69l22.51-19.05z" fill="#C09784"/><path d="M630.31 205.54l-24.08 5.16c-.96.2-1.61 1.1-1.53 2.07l1.66 19.92a1.95 1.95 0 001.94 1.8h27.6c1.03 0 1.88-.8 1.95-1.82l.81-11.37c.03-.32-.03-.63-.15-.92l-6-13.72a1.95 1.95 0 00-2.2-1.12z" fill="#E4CFC6"/><path d="M630.31 205.54l-24.08 5.16c-.96.2-1.61 1.1-1.53 2.07l1.66 19.92a1.95 1.95 0 001.94 1.8l-1.81-16.56c1.02 0 21.2 4.88 23.4 4.88 2.2 0 8.77-1.51 8.77-1.51.03-.32-.03-.63-.15-.92l-6-13.72a1.95 1.95 0 00-2.2-1.12z" fill="#EDE1DC"/><path fill-rule="evenodd" clip-rule="evenodd" d="M631.63 207.05a.98.98 0 00-1.1-.56l-24.08 5.16c-.48.1-.81.55-.77 1.04l1.66 19.92c.04.5.46.9.97.9h27.6c.52 0 .94-.4.98-.91l.81-11.37a.98.98 0 00-.08-.46l-6-13.72zm-1.51-2.47c1.36-.29 2.74.42 3.3 1.7l5.99 13.7c.19.44.27.91.24 1.39l-.81 11.37a2.93 2.93 0 01-2.92 2.72h-27.6a2.93 2.93 0 01-2.92-2.69l-1.66-19.92a2.93 2.93 0 012.3-3.1l24.08-5.17z" fill="#C09784"/><path d="M634.02 234.48h-25.4c-1.14 0-2.04.97-1.95 2.1l1.66 21.59c.07.96.85 1.73 1.82 1.8l26.24 1.69c1.2.07 2.2-.96 2.06-2.16l-2.49-23.28c-.1-.99-.94-1.74-1.94-1.74z" fill="#E4CFC6"/><path d="M634.02 234.48h-25.4c-1.14 0-2.04.97-1.95 2.1l1.66 21.59c.07.96-.85-13.96.12-13.9 0 0 7.44 4.88 11.7 4.88 4.25 0 16.7-7.58 16.57-8.78l-.76-4.15c-.1-.99-.94-1.74-1.94-1.74z" fill="#EDE1DC"/><path fill-rule="evenodd" clip-rule="evenodd" d="M605.7 236.66a2.93 2.93 0 012.91-3.16h25.41c1.5 0 2.75 1.13 2.91 2.62l2.5 23.28a2.93 2.93 0 01-3.1 3.23l-26.25-1.7a2.93 2.93 0 01-2.72-2.69l-1.66-21.58zm2.91-1.2a.98.98 0 00-.97 1.05l1.66 21.58c.04.48.43.87.91.9l26.24 1.7a.98.98 0 001.03-1.08L635 236.33a.98.98 0 00-.97-.87h-25.4z" fill="#C09784"/><path d="M636.8 261.68l-26.4-1.7c-1.07-.07-2 .74-2.08 1.8l-1.65 23.17a1.95 1.95 0 002.07 2.09l27.23-1.7c1-.06 1.79-.87 1.83-1.87l.82-19.76a1.95 1.95 0 00-1.82-2.03z" fill="#E4CFC6"/><path d="M636.8 261.68l-26.4-1.7c-1.08-.07-2 .74-2.08 1.8l-1.65 23.17c-.09 1.18 1.77-18.24 1.77-15.32 0 2.93 12.68 6.83 17.56 6.83 7.22 0 12.63-5.83 12.67-6.83l-.05-5.92a1.95 1.95 0 00-1.82-2.03z" fill="#EDE1DC"/><path fill-rule="evenodd" clip-rule="evenodd" d="M607.35 261.72a2.93 2.93 0 013.1-2.72l26.41 1.7c1.59.11 2.8 1.46 2.74 3.05l-.83 19.76a2.93 2.93 0 01-2.74 2.8l-27.23 1.7a2.93 2.93 0 01-3.1-3.13l1.65-23.16zm2.98-.77a.98.98 0 00-1.04.9l-1.65 23.17a.98.98 0 001.03 1.05l27.24-1.7c.5-.04.9-.44.91-.94l.83-19.76a.98.98 0 00-.91-1.01l-26.4-1.7z" fill="#C09784"/><path d="M635.73 285.35l-27.23 1.7a1.95 1.95 0 00-1.83 2.12l1.64 19.64a1.95 1.95 0 001.95 1.8h26.41c1.11 0 2-.93 1.95-2.04l-.82-21.34a1.95 1.95 0 00-2.07-1.88z" fill="#E4CFC6"/><path d="M635.73 285.35l-27.23 1.7a1.95 1.95 0 00-1.83 2.12l.8 6.8c.08 1.02 4.83 3.9 5.85 3.9h17.55c1.1 0 6.87-5.71 6.82-6.82l.11-5.82a1.95 1.95 0 00-2.07-1.88z" fill="#EDE1DC"/><path fill-rule="evenodd" clip-rule="evenodd" d="M636.83 287.26a.98.98 0 00-1.04-.93s-14.67.86-24.42 1.84c-1.6.16-2.49 1.37-2.92 2.93-1.1 3.9.84 17.63.84 17.63.04.5.46.9.97.9h26.42c.55 0 1-.46.97-1.02l-.82-21.35zm-1.16-2.88a2.93 2.93 0 013.11 2.8l.82 21.36a2.93 2.93 0 01-2.92 3.04h-26.42a2.93 2.93 0 01-2.92-2.69l-1.63-19.64a2.93 2.93 0 012.73-3.17l27.23-1.7z" fill="#C09784"/><path d="M635.7 310.6h-27.1c-1.13 0-2.02.96-1.95 2.09l1.81 26.21h28.29l.9-26.28a1.95 1.95 0 00-1.94-2.02z" fill="#E4CFC6"/><path d="M635.7 310.6h-27.1c-1.13 0-2.02.96-1.95 2.09l.82 9.63s13.38 9.05 21.45 5.85c3.54-1.4 7.8-5.85 7.8-5.85l.94-9.7a1.95 1.95 0 00-1.95-2.02z" fill="#EDE1DC"/><path fill-rule="evenodd" clip-rule="evenodd" d="M605.68 312.75a2.93 2.93 0 012.92-3.13h27.1a2.93 2.93 0 012.93 3.03l-.94 27.23h-30.14l-1.87-27.13zm7.64-.19c-8.78 0-4.15 20.85-3.95 25.37h26.44c.23-6.87 3.84-27.32-5.91-26.34l-16.58.97z" fill="#C09784"/><path d="M541.48 154.7c-.7-2.21 0-3.17 0-3.17s6.21 20.8 16.27 28.35c2.92 2.2 15.4 3.9 18.52.97 8.26-7.75 17.5-28.35 17.5-28.35s.33 1.8-.49 3.92l-11.17 28.73c-.58 1.5-.33 2.53-1.94 2.53l-25.43-.04a3.9 3.9 0 01-3.72-2.73l-9.54-30.2z" fill="#C09784"/><path d="M539.22 187.68c3.72-.31 10.71-5.9 10.71-5.9 1.95 4.88.96 6.52-.48 7.48l-6.92 4.62a3.9 3.9 0 01-4.57-.18l-21.2-15.82c-1.93-1.52-1.86-2.25 0-3.86 0 0 6.55 6.83 12.7 6.83 2.93 0 6.04 7.15 9.76 6.83z" fill="#C09784"/><path d="M524.6 205.24c4.93.54 12.64-12.1 12.64-12.1a3.9 3.9 0 01.76 5.34l-6.12 8.57a3.9 3.9 0 01-3.94 1.56l-24.84-5.36c-2.39-.48-1.11-2.09-.2-4.36l5.08-18.08c-6.78 20.53-.94 22.54 16.62 24.43zM496.67 215.84s3.65 13.69 5.5 16.72c2.38 3.9 19.25-1.95 21.23-2.93 2.93-1.44 6.47-18.53 3.15-20.48 2.92 0 3.65 1.56 3.35 3.61l-2.93 20.57a3.9 3.9 0 01-3.57 3.34l-18.88 1.46a3.9 3.9 0 01-4.1-3.03l-3.88-17.08a3.9 3.9 0 01.13-2.18zM502.17 260.85c2.15.54 20.17.8 22.36-1.95 3.9-4.88 3.79-22.67 3.94-20.52l-.28 21.44a3.9 3.9 0 01-3.66 4.18l-23.3 1.4c-2.52.16-5.4-.13-4.95-2.62l4.35-21.42c.3-1.75-2.36 18.52 1.54 19.5zM501.02 287.2c1.95 1.95 20.64.97 22.6-.98 3.96-3.94 4.72-20.39 4.56-18.04l-1.41 21.21a3.9 3.9 0 01-3.9 3.65h-21.85a3.9 3.9 0 01-3.9-3.77l-.7-19.75c-.08-2.12 1.31 14.38 4.6 17.68zM525.57 318.42c-1.95 2.92-21.45.52-22.43 0-7.1-3.83-4.07-23.84-4.25-21.82l-2.61 26.69c-.23 2.55 2.47 2.5 4.99 2.07l25.67-4.4a3.9 3.9 0 003.23-4.13l-1.44-20.17c-.15-2.04.7 15.96-3.16 21.75zM502.17 335.98c4.9.83 15.82 2.72 20.47.97 4.55-1.71 7.42-13.93 7.06-11.32l-1.24 14.25h-31.21l-.75-10.17c-.13-1.99 1.3 5.52 5.67 6.27zM584.07 180.85l-1.75 3.78c-.68 1.74-1.59 3.03 0 4.03l12.02 7.23c1.44.9 3.3.76 4.6-.33l19.85-16.7c1.83-1.56.97-1.96-1.55-3.91-4.3 7.8-13.2 13.8-19.52 15.66-4.12 1.21-12.67-4.88-13.65-9.76z" fill="#C09784"/><path d="M602.6 192.56c1.88-2.5-3.37 2.74-3.37 2.74a3.9 3.9 0 00-.86 4.92l4.8 8.4a3.9 3.9 0 004.15 1.89l22.95-4.6a3.9 3.9 0 003.1-4.3L632 190.56c-.08-.64 1.43 7.77-1.13 10.77-3.6 4.23-17.56 6.19-22.42 5.85-3.9-.26-8.78-10.72-5.85-14.63zM610.1 229.63c-2.92-2.92-3.88-18.53-3.88-18.53-1.94.39-1.53 1.45-1.37 3.43l1.37 16.37a3.9 3.9 0 003.88 3.58h24a3.9 3.9 0 003.89-3.63l.66-9.3c.04-.48-.02-.97-.16-1.44 0 0 1.16 3.4-2.74 9.52-1.25 1.96-22.2 3.46-25.65 0zM633.8 256.95c-3.81 2.93-21.45 0-23.4-1.95-4.46-4.47-3.09-19.86-2.91-17.6l.71 19.08a3.9 3.9 0 003.64 3.6l22.24 1.43c2.42.15 4.88-.22 4.62-2.63l-2.55-20.91c-.21-1.98 1.46 16.05-2.35 18.98zM633.8 280.37c-6 4.71-25.35 4.27-25.35 0 0-4.28-.11-18.79-.26-16.65l-1.7 20.55c-.17 2.36 1.55 3.07 3.9 2.93l23.83-1.75a3.9 3.9 0 003.65-3.74l.67-16.1c.1-2.11-.72 11.6-4.75 14.76zM633.8 304.76c-.98.97-15.46 3.14-19.5 1.95-6.12-1.81-7.64-17.74-7.46-15.56l1.32 15.87a3.9 3.9 0 003.9 3.58h22.59a3.9 3.9 0 003.9-4.05l-1.8-19.37c0-1.95 1.68 12.93-2.96 17.58zM630.87 335.98c-1.8.97-16.33.83-19.5-3.9-3.16-4.75-4.74-19.58-4.6-17.33l1.69 25.13h27.31l1.7-25.13c.14-2.25-.27 17.8-6.6 21.23z" fill="#C09784"/><path d="M544.08 244.24a1.95 1.95 0 11-3.9 0 1.95 1.95 0 013.9 0z" fill="#576364"/><path fill-rule="evenodd" clip-rule="evenodd" d="M543.97 243.59a1.95 1.95 0 01-3.68 0 1.95 1.95 0 103.68 0z" fill="#25383B"/><path d="M596.75 232.53a1.95 1.95 0 11-3.9 0 1.95 1.95 0 013.9 0z" fill="#576364"/><path fill-rule="evenodd" clip-rule="evenodd" d="M596.63 231.88a1.95 1.95 0 01-3.67 0 1.95 1.95 0 103.68 0z" fill="#25383B"/><path d="M592.85 298.89a1.95 1.95 0 11-3.9 0 1.95 1.95 0 013.9 0z" fill="#576364"/><path fill-rule="evenodd" clip-rule="evenodd" d="M592.73 298.24a1.95 1.95 0 01-3.68 0c-.07.2-.1.42-.1.65a1.95 1.95 0 103.78-.65z" fill="#25383B"/><path d="M551.88 308.65a1.95 1.95 0 11-3.9 0 1.95 1.95 0 013.9 0z" fill="#576364"/><path fill-rule="evenodd" clip-rule="evenodd" d="M551.77 308a1.95 1.95 0 01-3.67 0 1.95 1.95 0 103.68 0z" fill="#25383B"/><path opacity=".15" d="M21 16h663v39H21V16zM21 375h663v79H21v-79zM21 55h19v320H21V55zM665 55h19v320h-19V55z" fill="#A7A6F2"/><path opacity=".3" d="M235 55h20v320h-20V55zM450 55h20v320h-20V55z" fill="#8BCC00"/><path fill-rule="evenodd" clip-rule="evenodd" d="M255 55h195v320H255V55zm1 1v318h193V56H256zM470 55h195v320H470V55zm1 1v318h193V56H471zM40 55h195v320H40V55zm1 1v318h193V56H41z" fill="#8BCC00"/><path fill-rule="evenodd" clip-rule="evenodd" d="M20 15h665v440H20V15zm1 1v438h663V16H21z" fill="#A7A6F2"/><path fill-rule="evenodd" clip-rule="evenodd" d="M240 367.39l-5-2.89 5-2.89V364h10v-2.39l5 2.89-5 2.89V365h-10v2.39zM46 367.39l-5-2.89 5-2.89V364h183v-2.39l5 2.89-5 2.89V365H46v2.39zM261 367.39l-5-2.89 5-2.89V364h183v-2.39l5 2.89-5 2.89V365H261v2.39zM476 367.39l-5-2.89 5-2.89V364h183v-2.39l5 2.89-5 2.89V365H476v2.39z" fill="#8BCC00"/><path fill-rule="evenodd" clip-rule="evenodd" d="M667.39 50l-2.89 5-2.89-5H664V21h-2.39l2.89-5 2.89 5H665v29h2.39z" fill="#A7A6F2"/><path fill-rule="evenodd" clip-rule="evenodd" d="M455 367.39l-5-2.89 5-2.89V364h10v-2.39l5 2.89-5 2.89V365h-10v2.39z" fill="#8BCC00"/><path fill-rule="evenodd" clip-rule="evenodd" d="M670 235.39l-5-2.89 5-2.89V232h9v-2.39l5 2.89-5 2.89V233h-9v2.39zM26 235.39l-5-2.89 5-2.89V232h9v-2.39l5 2.89-5 2.89V233h-9v2.39z" fill="#A7A6F2"/><path d="M240.84 354.95l.76 1.98h1.26l-.62-1.63h5.52v1.63H249v-4.44h-1.24v1.45h-6.92v1zM244.92 351.64c2.39 0 4.24-1.12 4.24-3.65 0-2.54-1.85-3.67-4.24-3.67s-4.24 1.13-4.24 3.67c0 2.53 1.85 3.65 4.24 3.65zm0-5.94c1.9 0 2.99.73 2.99 2.29 0 1.57-1.1 2.27-2.99 2.27-1.9 0-2.99-.7-2.99-2.27 0-1.56 1.1-2.29 2.99-2.29zM244.14 341.8h-.9v1.14h8.4v-1.28h-3.38c.45-.4.9-1.07.9-2.08 0-1.72-1.38-2.85-3.04-2.85-1.66 0-3.04 1.13-3.04 2.85 0 1.08.5 1.77 1.06 2.22zm1.98-3.76c1.13 0 1.9.74 1.9 1.78 0 .9-.57 1.56-1.2 1.84h-1.4a2.03 2.03 0 01-1.2-1.84c0-1.04.77-1.78 1.9-1.78zM243.24 332.12l1.94 1.38-1.94 1.38v1.47l2.82-2.1 2.94 2.22V335l-2.04-1.5L249 332v-1.46l-2.94 2.22-2.82-2.1v1.46zM122.82 350.84l-1.98.76v1.26l1.63-.62v5.52h-1.63V359h4.44v-1.24h-1.46v-6.92h-1zM126.12 354.92c0 2.39 1.13 4.24 3.66 4.24 2.53 0 3.66-1.85 3.66-4.24s-1.13-4.24-3.66-4.24c-2.53 0-3.66 1.85-3.66 4.24zm5.94 0c0 1.9-.72 2.99-2.28 2.99-1.57 0-2.28-1.1-2.28-2.99 0-1.9.7-2.99 2.28-2.99 1.56 0 2.28 1.1 2.28 2.99zM134.6 354.92c0 2.39 1.12 4.24 3.65 4.24s3.66-1.85 3.66-4.24-1.13-4.24-3.66-4.24c-2.53 0-3.66 1.85-3.66 4.24zm5.93 0c0 1.9-.72 2.99-2.28 2.99-1.57 0-2.28-1.1-2.28-2.99 0-1.9.71-2.99 2.28-2.99 1.56 0 2.28 1.1 2.28 2.99zM144.43 354.14v-.9h-1.14v8.4h1.29v-3.38c.4.45 1.06.9 2.07.9 1.73 0 2.86-1.38 2.86-3.04 0-1.66-1.13-3.04-2.86-3.04-1.08 0-1.76.5-2.22 1.06zm3.77 1.98c0 1.13-.74 1.9-1.79 1.9-.88 0-1.56-.57-1.83-1.2v-1.4c.27-.63.94-1.2 1.83-1.2 1.05 0 1.8.77 1.8 1.9zM154.11 353.24l-1.38 1.94-1.38-1.94h-1.46l2.1 2.82-2.22 2.94h1.46l1.5-2.04 1.5 2.04h1.47l-2.22-2.94 2.1-2.82h-1.47zM337.82 350.84l-1.98.76v1.26l1.63-.62v5.52h-1.63V359h4.44v-1.24h-1.46v-6.92h-1zM341.12 354.92c0 2.39 1.13 4.24 3.66 4.24 2.53 0 3.66-1.85 3.66-4.24s-1.13-4.24-3.66-4.24c-2.53 0-3.66 1.85-3.66 4.24zm5.94 0c0 1.9-.72 2.99-2.28 2.99-1.57 0-2.28-1.1-2.28-2.99 0-1.9.7-2.99 2.28-2.99 1.56 0 2.28 1.1 2.28 2.99zM349.6 354.92c0 2.39 1.12 4.24 3.65 4.24 2.54 0 3.66-1.85 3.66-4.24s-1.13-4.24-3.66-4.24c-2.53 0-3.66 1.85-3.66 4.24zm5.93 0c0 1.9-.72 2.99-2.28 2.99-1.57 0-2.28-1.1-2.28-2.99 0-1.9.71-2.99 2.28-2.99 1.56 0 2.28 1.1 2.28 2.99zM359.43 354.14v-.9h-1.14v8.4h1.29v-3.38c.4.45 1.06.9 2.07.9 1.73 0 2.86-1.38 2.86-3.04 0-1.66-1.13-3.04-2.86-3.04-1.08 0-1.76.5-2.22 1.06zm3.77 1.98c0 1.13-.74 1.9-1.79 1.9-.89 0-1.56-.57-1.83-1.2v-1.4c.27-.63.94-1.2 1.83-1.2 1.05 0 1.8.77 1.8 1.9zM369.11 353.24l-1.38 1.94-1.38-1.94h-1.46l2.1 2.82-2.22 2.94h1.46l1.5-2.04 1.5 2.04h1.47l-2.22-2.94 2.1-2.82h-1.47zM552.82 350.84l-1.98.76v1.26l1.63-.62v5.52h-1.63V359h4.44v-1.24h-1.46v-6.92h-1zM556.12 354.92c0 2.39 1.13 4.24 3.66 4.24 2.53 0 3.66-1.85 3.66-4.24s-1.13-4.24-3.66-4.24c-2.53 0-3.66 1.85-3.66 4.24zm5.94 0c0 1.9-.72 2.99-2.28 2.99-1.57 0-2.28-1.1-2.28-2.99 0-1.9.7-2.99 2.28-2.99 1.56 0 2.28 1.1 2.28 2.99zM564.6 354.92c0 2.39 1.12 4.24 3.65 4.24s3.66-1.85 3.66-4.24-1.13-4.24-3.66-4.24c-2.53 0-3.66 1.85-3.66 4.24zm5.93 0c0 1.9-.72 2.99-2.28 2.99-1.57 0-2.28-1.1-2.28-2.99 0-1.9.71-2.99 2.28-2.99 1.56 0 2.28 1.1 2.28 2.99zM574.43 354.14v-.9h-1.14v8.4h1.29v-3.38c.4.45 1.06.9 2.07.9 1.73 0 2.86-1.38 2.86-3.04 0-1.66-1.13-3.04-2.86-3.04-1.08 0-1.76.5-2.22 1.06zm3.77 1.98c0 1.13-.74 1.9-1.79 1.9-.88 0-1.56-.57-1.83-1.2v-1.4c.27-.63.94-1.2 1.83-1.2 1.05 0 1.8.77 1.8 1.9zM584.11 353.24l-1.38 1.94-1.38-1.94h-1.46l2.1 2.82-2.22 2.94h1.46l1.5-2.04 1.5 2.04h1.47l-2.22-2.94 2.1-2.82h-1.47z" fill="#8BCC00"/><path d="M670.83 48.98h1.32a4.45 4.45 0 01-.91-2.6c0-1 .37-1.61 1.08-1.61.92 0 1.34.82 1.9 1.77.72 1.24 1.48 2.71 3.47 2.71h.63v-5.91h-1.24l.01 4.38c-.81-.01-1.32-1.01-1.94-2.07-.66-1.1-1.48-2.25-2.86-2.25-1.52 0-2.29 1.21-2.29 2.87 0 .94.25 1.87.83 2.7zM674.24 42.17c2.38 0 4.23-1.12 4.23-3.66 0-2.53-1.85-3.66-4.23-3.66-2.4 0-4.24 1.13-4.24 3.66 0 2.54 1.85 3.66 4.24 3.66zm0-5.94c1.9 0 2.98.72 2.98 2.28 0 1.58-1.09 2.28-2.98 2.28-1.9 0-3-.7-3-2.28 0-1.56 1.1-2.28 3-2.28zM673.46 32.33h-.9v1.14h8.4V32.2h-3.39c.46-.4.9-1.07.9-2.08 0-1.72-1.38-2.85-3.03-2.85-1.66 0-3.04 1.13-3.04 2.85 0 1.08.5 1.77 1.06 2.22zm1.98-3.76c1.12 0 1.9.74 1.9 1.78 0 .9-.57 1.56-1.2 1.84h-1.41a2.03 2.03 0 01-1.2-1.84c0-1.04.78-1.78 1.9-1.78zM672.56 22.65l1.94 1.38-1.94 1.38v1.47l2.82-2.1 2.94 2.22v-1.47l-2.04-1.5 2.04-1.5v-1.46l-2.94 2.22-2.82-2.1v1.46z" fill="#A7A6F2"/><path d="M455.84 354.95l.76 1.98h1.26l-.62-1.63h5.52v1.63H464v-4.44h-1.24v1.45h-6.92v1zM459.92 351.64c2.39 0 4.24-1.12 4.24-3.65 0-2.54-1.85-3.67-4.24-3.67s-4.24 1.13-4.24 3.67c0 2.53 1.85 3.65 4.24 3.65zm0-5.94c1.9 0 2.99.73 2.99 2.29 0 1.57-1.1 2.27-2.99 2.27-1.9 0-2.99-.7-2.99-2.27 0-1.56 1.1-2.29 2.99-2.29zM459.14 341.8h-.9v1.14h8.4v-1.28h-3.38c.45-.4.9-1.07.9-2.08 0-1.72-1.38-2.85-3.04-2.85-1.66 0-3.04 1.13-3.04 2.85 0 1.08.5 1.77 1.06 2.22zm1.98-3.76c1.13 0 1.9.74 1.9 1.78 0 .9-.57 1.56-1.2 1.84h-1.4a2.03 2.03 0 01-1.2-1.84c0-1.04.77-1.78 1.9-1.78zM458.24 332.12l1.94 1.38-1.94 1.38v1.47l2.82-2.1 2.94 2.22V335l-2.04-1.5L464 332v-1.46l-2.94 2.22-2.82-2.1v1.46z" fill="#8BCC00"/><path d="M669.84 222.95l.76 1.98h1.26l-.62-1.63h5.52v1.63H678v-4.44h-1.24v1.45h-6.92v1zM673.92 219.65c2.39 0 4.24-1.13 4.24-3.66 0-2.54-1.85-3.67-4.24-3.67s-4.24 1.13-4.24 3.67c0 2.53 1.85 3.66 4.24 3.66zm0-5.94c1.9 0 2.99.72 2.99 2.28 0 1.57-1.1 2.27-2.99 2.27-1.9 0-2.99-.7-2.99-2.27 0-1.56 1.1-2.28 2.99-2.28zM673.14 209.8h-.9v1.14h8.4v-1.28h-3.38c.45-.4.9-1.07.9-2.08 0-1.72-1.38-2.85-3.04-2.85-1.66 0-3.04 1.13-3.04 2.85 0 1.08.5 1.77 1.06 2.22zm1.98-3.76c1.13 0 1.9.74 1.9 1.78 0 .9-.57 1.56-1.2 1.84h-1.4a2.03 2.03 0 01-1.2-1.84c0-1.04.77-1.78 1.9-1.78zM672.24 200.12l1.94 1.38-1.94 1.38v1.47l2.82-2.1 2.94 2.22V203l-2.04-1.5L678 200v-1.46l-2.94 2.22-2.82-2.1v1.46zM25.84 222.95l.76 1.98h1.26l-.62-1.63h5.52v1.63H34v-4.44h-1.24v1.45h-6.92v1zM29.92 219.65c2.39 0 4.24-1.13 4.24-3.66 0-2.54-1.85-3.67-4.24-3.67s-4.24 1.13-4.24 3.67c0 2.53 1.85 3.66 4.24 3.66zm0-5.94c1.9 0 2.99.72 2.99 2.28 0 1.57-1.1 2.27-2.99 2.27-1.9 0-2.99-.7-2.99-2.27 0-1.56 1.1-2.28 2.99-2.28zM29.14 209.8h-.9v1.14h8.4v-1.28h-3.38c.45-.4.9-1.07.9-2.08 0-1.72-1.38-2.85-3.04-2.85-1.66 0-3.04 1.13-3.04 2.85 0 1.08.5 1.77 1.06 2.22zm1.98-3.76c1.13 0 1.9.74 1.9 1.78 0 .9-.57 1.56-1.2 1.84h-1.4a2.03 2.03 0 01-1.2-1.84c0-1.04.77-1.78 1.9-1.78zM28.24 200.12l1.94 1.38-1.94 1.38v1.47l2.82-2.1 2.94 2.22V203l-2.04-1.5L34 200v-1.46l-2.94 2.22-2.82-2.1v1.46z" fill="#A7A6F2"/><path fill-rule="evenodd" clip-rule="evenodd" d="M667.39 449l-2.89 5-2.89-5H664v-69h-2.39l2.89-5 2.89 5H665v69h2.39z" fill="#A7A6F2"/><path d="M670.16 426.41l5.32 4.34h1.17v-4.42h1.67V425h-1.67v-1.4h-1.19v1.4h-5.3v1.4zm5.3-.08v2.9l-3.56-2.9h3.56zM674.24 422.67c2.38 0 4.23-1.12 4.23-3.66 0-2.53-1.85-3.66-4.23-3.66-2.4 0-4.24 1.13-4.24 3.66 0 2.54 1.85 3.66 4.24 3.66zm0-5.94c1.9 0 2.98.72 2.98 2.28 0 1.58-1.09 2.28-2.98 2.28-1.9 0-3-.7-3-2.28 0-1.56 1.1-2.28 3-2.28zM673.46 412.83h-.9v1.14h8.4v-1.28h-3.39c.46-.4.9-1.07.9-2.08 0-1.73-1.38-2.85-3.03-2.85-1.66 0-3.04 1.13-3.04 2.85 0 1.08.5 1.77 1.06 2.22zm1.98-3.76c1.12 0 1.9.74 1.9 1.78 0 .9-.57 1.56-1.2 1.84h-1.41a2.03 2.03 0 01-1.2-1.84c0-1.04.78-1.79 1.9-1.79zM672.56 403.15l1.94 1.38-1.94 1.38v1.47l2.82-2.1 2.94 2.22v-1.47l-2.04-1.5 2.04-1.5v-1.46l-2.94 2.22-2.82-2.1v1.46z" fill="#A7A6F2"/><path fill-rule="evenodd" clip-rule="evenodd" d="M659 42.61l5 2.89-5 2.89V46H46v2.39l-5-2.89 5-2.89V45h613v-2.39zM41 43h-1v12h1V43z" fill="#8BCC00"/><path d="M341.27 33.92c0-1.4-1.18-2.24-2.86-2.24-1 0-1.88.22-2.61.6v1.31c.79-.45 1.63-.67 2.43-.67 1.12 0 1.73.43 1.73 1.16 0 .68-.54 1.1-1.55 1.1h-1.14v1.23h1.3c.97 0 1.73.3 1.73 1.23 0 .92-.84 1.27-1.92 1.28a5.2 5.2 0 01-2.73-.62v1.32c.87.37 1.73.54 2.83.54 1.67 0 3.12-.74 3.12-2.38 0-1.24-.78-1.85-1.54-2.09a1.8 1.8 0 001.2-1.77zM342.95 32.51v1.32a4.45 4.45 0 012.59-.91c1 0 1.62.37 1.62 1.08 0 .92-.83 1.34-1.78 1.9-1.23.73-2.71 1.48-2.71 3.48V40h5.92v-1.24l-4.38.02c0-.82 1-1.32 2.06-1.95 1.1-.66 2.26-1.47 2.26-2.85 0-1.53-1.22-2.3-2.87-2.3-.95 0-1.87.26-2.71.83zM349.75 35.92c0 2.39 1.13 4.24 3.66 4.24 2.53 0 3.66-1.85 3.66-4.24s-1.13-4.24-3.66-4.24c-2.53 0-3.66 1.85-3.66 4.24zm5.94 0c0 1.9-.72 2.99-2.28 2.99-1.57 0-2.28-1.1-2.28-2.99 0-1.9.7-2.99 2.28-2.99 1.56 0 2.28 1.1 2.28 2.99zM359.59 35.14v-.9h-1.14v8.4h1.28v-3.38c.4.45 1.07.9 2.08.9 1.73 0 2.86-1.38 2.86-3.04 0-1.66-1.13-3.04-2.86-3.04-1.08 0-1.76.5-2.22 1.06zm3.77 1.98c0 1.13-.75 1.9-1.79 1.9-.89 0-1.56-.57-1.84-1.2v-1.4c.28-.63.95-1.2 1.84-1.2 1.04 0 1.79.77 1.79 1.9zM369.27 34.24l-1.38 1.94-1.38-1.94h-1.46l2.1 2.82-2.22 2.94h1.46l1.5-2.04 1.5 2.04h1.46l-2.22-2.94 2.1-2.82h-1.46z" fill="#8BCC00"/><defs><filter id="filter0_d" x="75.61" y="87.95" width="127.64" height="36.96" filterUnits="userSpaceOnUse" color-interpolation-filters="sRGB"><feFlood flood-opacity="0" result="BackgroundImageFix"/><feColorMatrix in="SourceAlpha" values="0 0 0 0 0 0 0 0 0 0 0 0 0 0 0 0 0 0 127 0"/><feOffset dx="2" dy="2"/><feGaussianBlur stdDeviation="1"/><feColorMatrix values="0 0 0 0 0 0 0 0 0 0 0 0 0 0 0 0 0 0 1 0"/><feBlend in2="BackgroundImageFix" result="effect1_dropShadow"/><feBlend in="SourceGraphic" in2="effect1_dropShadow" result="shape"/></filter><filter id="filter1_d" x="290.34" y="88.4" width="127.91" height="36.52" filterUnits="userSpaceOnUse" color-interpolation-filters="sRGB"><feFlood flood-opacity="0" result="BackgroundImageFix"/><feColorMatrix in="SourceAlpha" values="0 0 0 0 0 0 0 0 0 0 0 0 0 0 0 0 0 0 127 0"/><feOffset dx="2" dy="2"/><feGaussianBlur stdDeviation="1"/><feColorMatrix values="0 0 0 0 0 0 0 0 0 0 0 0 0 0 0 0 0 0 1 0"/><feBlend in2="BackgroundImageFix" result="effect1_dropShadow"/><feBlend in="SourceGraphic" in2="effect1_dropShadow" result="shape"/></filter><filter id="filter2_d" x="505.24" y="88.4" width="128.01" height="36.52" filterUnits="userSpaceOnUse" color-interpolation-filters="sRGB"><feFlood flood-opacity="0" result="BackgroundImageFix"/><feColorMatrix in="SourceAlpha" values="0 0 0 0 0 0 0 0 0 0 0 0 0 0 0 0 0 0 127 0"/><feOffset dx="2" dy="2"/><feGaussianBlur stdDeviation="1"/><feColorMatrix values="0 0 0 0 0 0 0 0 0 0 0 0 0 0 0 0 0 0 1 0"/><feBlend in2="BackgroundImageFix" result="effect1_dropShadow"/><feBlend in="SourceGraphic" in2="effect1_dropShadow" result="shape"/></filter></defs></svg>