<svg width="705" height="190" viewBox="0 0 705 190" fill="none" xmlns="http://www.w3.org/2000/svg"><path d="M17 0h670v190H17V0z" fill="#fff"/><path fill-rule="evenodd" clip-rule="evenodd" d="M685 2H19v186h666V2zM17 0v190h670V0H17z" fill="#AAA"/><path d="M37 45h150v80H37V45z" fill="#B9E3B5"/><path d="M517 45h150v80H517V45z" fill="#F9D4C8"/><path d="M197 45h150v80H197V45z" fill="#FFD699"/><path d="M357 45h150v80H357V45z" fill="#C8C4EE"/><path d="M44.04 28.52v-3.3c2.54-.1 4.43-1.61 4.43-4.06 0-2.45-1.89-3.97-4.43-4.06v-3.3h-2.11v3.3c-2.55.1-4.43 1.61-4.43 4.06 0 2.45 1.88 3.97 4.43 4.06v3.3h2.11zm-4.32-7.36c0-1.15.74-2.13 2.22-2.2v4.4c-1.48-.07-2.22-1.05-2.22-2.2zm4.34-2.2c1.48.07 2.22 1.05 2.22 2.2 0 1.15-.74 2.13-2.22 2.2v-4.4zM53.18 19.08h1.97V25h2.22v-7.68h-6.24c-.14 3.44-.41 5.95-1.63 5.95-.14 0-.3-.03-.46-.1v1.77c.44.16.86.22 1.21.22 2.11 0 2.7-2.62 2.93-6.08zM58.82 21.16c0 2.67 2.02 4.06 4.45 4.06a7.3 7.3 0 002.82-.48V23c-.66.29-1.44.46-2.32.46-1.27 0-2.45-.46-2.7-1.58h5.4c.51-2.27-.51-4.78-3.7-4.78a3.87 3.87 0 00-3.95 4.06zm5.65-.72h-3.42c.03-1.06.86-1.65 1.8-1.65 1.4 0 1.7 1.12 1.62 1.65zM70.2 25v-3.04h.9L73.3 25h2.5l-2.86-3.89 2.64-3.79h-2.5l-1.95 2.86h-.93v-2.86h-2.22V25h2.22zM75.9 21.27c0 2.74 2.1 3.95 4.2 3.95.97 0 1.83-.19 2.59-.5v-1.98c-.56.34-1.35.56-2.16.56-1.2 0-2.36-.67-2.36-2.14 0-1.55 1.17-2.14 2.39-2.14.73 0 1.5.22 2.05.57v-1.95a5.07 5.07 0 00-2.37-.56c-2.13 0-4.34 1.25-4.34 4.2zM84.16 20.17v1.87h5.95v-1.87h-5.95zM94.17 25v-3.04h.9l2.2 3.04h2.5l-2.87-3.89 2.64-3.79h-2.5l-1.94 2.86h-.93v-2.86h-2.23V25h2.23zM99.87 21.16c0 2.69 2.02 4.06 4.24 4.06 2.24 0 4.24-1.37 4.24-4.06 0-2.69-2-4.06-4.24-4.06-2.22 0-4.24 1.37-4.24 4.06zm6.22 0c0 1.18-.7 2.08-1.98 2.08-1.26 0-1.97-.9-1.97-2.08 0-1.18.7-2.08 1.97-2.08 1.28 0 1.98.9 1.98 2.08zM112.03 25v-2.91h3.1V25h2.23v-7.68h-2.23v2.91h-3.1v-2.91h-2.23V25h2.23zM123.2 25v-5.8h2.46v-1.88h-7.1v1.87H121V25h2.2zM126.22 21.16c0 2.67 2.01 4.06 4.44 4.06a7.3 7.3 0 002.82-.48V23c-.66.29-1.44.46-2.32.46-1.26 0-2.45-.46-2.7-1.58h5.4c.51-2.27-.5-4.78-3.7-4.78a3.87 3.87 0 00-3.94 4.06zm5.64-.72h-3.42c.03-1.06.86-1.65 1.8-1.65 1.4 0 1.7 1.12 1.62 1.65zM141.6 15.75V14.1c-.84.46-1.63.6-2.44.6-.82 0-1.6-.14-2.45-.6v1.66c.7.43 1.46.64 2.45.64.99 0 1.74-.2 2.45-.64zM137.3 25l3.43-4.32V25h2.2v-7.68h-1.92l-3.42 4.32v-4.32h-2.22V25h1.93zM147.04 25v-2.91h3.1V25h2.23v-7.68h-2.22v2.91h-3.1v-2.91h-2.23V25h2.22zM153.82 21.16c0 2.67 2.02 4.06 4.45 4.06a7.3 7.3 0 002.82-.48V23c-.66.29-1.44.46-2.32.46-1.27 0-2.45-.46-2.7-1.58h5.4c.51-2.27-.51-4.78-3.7-4.78a3.87 3.87 0 00-3.95 4.06zm5.65-.72h-3.42c.03-1.06.86-1.65 1.8-1.65 1.4 0 1.7 1.12 1.62 1.65zM164.94 18.44v-1.12h-1.97v11.2h2.23v-4.34a3.3 3.3 0 002.53 1.04c2.43 0 3.74-1.96 3.74-4.06 0-2.1-1.31-4.06-3.74-4.06-1.43 0-2.3.65-2.79 1.34zm4.26 2.72c0 1.2-.75 2.2-2.02 2.2-.97 0-1.7-.62-2-1.29v-1.82a2.2 2.2 0 012-1.28c1.27 0 2.02.99 2.02 2.19zM61.13 116.52v-3.3c2.54-.1 4.43-1.61 4.43-4.06 0-2.45-1.89-3.97-4.43-4.06v-3.3H59v3.3c-2.54.1-4.43 1.61-4.43 4.06 0 2.45 1.89 3.97 4.43 4.06v3.3h2.12zm-4.32-7.36c0-1.15.73-2.13 2.22-2.2v4.4c-1.49-.07-2.22-1.05-2.22-2.2zm4.33-2.2c1.49.07 2.23 1.05 2.23 2.2 0 1.15-.74 2.13-2.23 2.2v-4.4zM70.27 107.08h1.96V113h2.23v-7.68h-6.24c-.15 3.44-.42 5.95-1.63 5.95-.15 0-.3-.03-.47-.1v1.77c.45.16.87.22 1.22.22 2.11 0 2.7-2.62 2.93-6.08zM75.91 109.16c0 2.67 2.02 4.06 4.45 4.06a7.3 7.3 0 002.81-.48V111c-.65.29-1.44.46-2.32.46-1.26 0-2.44-.46-2.7-1.58h5.4c.52-2.27-.5-4.78-3.69-4.78a3.87 3.87 0 00-3.95 4.06zm5.65-.72h-3.43c.04-1.06.87-1.65 1.81-1.65 1.4 0 1.7 1.12 1.62 1.65zM87.29 113v-3.04h.9l2.2 3.04h2.5l-2.87-3.89 2.64-3.79h-2.5l-1.95 2.86h-.92v-2.86h-2.23V113h2.23zM92.99 109.27c0 2.74 2.1 3.95 4.19 3.95.98 0 1.84-.19 2.6-.5v-1.98c-.57.34-1.35.56-2.17.56-1.2 0-2.35-.67-2.35-2.14 0-1.55 1.17-2.14 2.38-2.14.74 0 1.5.22 2.05.57v-1.95a5.07 5.07 0 00-2.37-.56c-2.12 0-4.33 1.25-4.33 4.2zM101.25 108.17v1.87h5.95v-1.87h-5.95zM115.67 109.3c0-2.97-2.2-4.2-4.38-4.2-.93 0-1.78.22-2.53.67v1.82a4.27 4.27 0 012.25-.67c1.2 0 2.2.43 2.44 1.4h-3.32V110h3.32c-.21 1.03-1.17 1.41-2.4 1.41-.82 0-1.72-.24-2.37-.67v1.82c.9.47 1.61.67 2.85.67 1.92 0 4.14-1.13 4.14-3.92zM120.4 107.08h1.96V113h2.22v-7.68h-6.24c-.14 3.44-.41 5.95-1.63 5.95-.14 0-.3-.03-.46-.1v1.77c.44.16.86.22 1.21.22 2.12 0 2.7-2.62 2.93-6.08zM126.03 109.16c0 2.67 2.02 4.06 4.45 4.06a7.3 7.3 0 002.82-.48V111c-.66.29-1.44.46-2.32.46-1.26 0-2.45-.46-2.7-1.58h5.4c.51-2.27-.5-4.78-3.7-4.78a3.87 3.87 0 00-3.94 4.06zm5.65-.72h-3.42c.03-1.06.86-1.65 1.8-1.65 1.4 0 1.7 1.12 1.62 1.65zM137.35 113v-4.53l1.8 2.87h1.1l1.82-2.87V113h2.14v-7.68h-2.11l-2.4 3.8-2.39-3.8h-2.12V113h2.16zM145.66 109.16c0 2.67 2.02 4.06 4.45 4.06a7.3 7.3 0 002.81-.48V111c-.65.29-1.44.46-2.32.46-1.26 0-2.44-.46-2.7-1.58h5.4c.52-2.27-.5-4.78-3.69-4.78a3.87 3.87 0 00-3.95 4.06zm5.65-.72h-3.43c.04-1.06.87-1.65 1.81-1.65 1.4 0 1.7 1.12 1.62 1.65zM157.03 113v-2.91h3.1V113h2.23v-7.68h-2.22v2.91h-3.1v-2.91h-2.23V113h2.22zM168.22 113v-5.8h2.44v-1.88h-7.1v1.87h2.45V113h2.2zM221.13 116.52v-3.3c2.54-.1 4.43-1.61 4.43-4.06 0-2.45-1.89-3.97-4.43-4.06v-3.3H219v3.3c-2.54.1-4.43 1.61-4.43 4.06 0 2.45 1.89 3.97 4.43 4.06v3.3h2.12zm-4.32-7.36c0-1.15.73-2.13 2.22-2.2v4.4c-1.49-.07-2.22-1.05-2.22-2.2zm4.33-2.2c1.49.07 2.23 1.05 2.23 2.2 0 1.15-.74 2.13-2.23 2.2v-4.4zM230.27 107.08h1.96V113h2.23v-7.68h-6.24c-.15 3.44-.42 5.95-1.63 5.95-.15 0-.3-.03-.47-.1v1.77c.45.16.87.22 1.22.22 2.11 0 2.7-2.62 2.93-6.08zM235.91 109.16c0 2.67 2.02 4.06 4.45 4.06a7.3 7.3 0 002.81-.48V111c-.65.29-1.44.46-2.32.46-1.26 0-2.44-.46-2.7-1.58h5.4c.52-2.27-.5-4.78-3.69-4.78a3.87 3.87 0 00-3.95 4.06zm5.65-.72h-3.43c.04-1.06.87-1.65 1.81-1.65 1.4 0 1.7 1.12 1.62 1.65zM247.28 113v-3.04h.9l2.2 3.04h2.5l-2.86-3.89 2.64-3.79h-2.5l-1.95 2.86h-.93v-2.86h-2.22V113h2.22zM252.99 109.27c0 2.74 2.1 3.95 4.2 3.95.97 0 1.83-.19 2.58-.5v-1.98c-.56.34-1.34.56-2.16.56-1.2 0-2.35-.67-2.35-2.14 0-1.55 1.17-2.14 2.38-2.14.74 0 1.5.22 2.05.57v-1.95a5.07 5.07 0 00-2.37-.56c-2.12 0-4.33 1.25-4.33 4.2zM261.25 108.17v1.87h5.95v-1.87h-5.95zM275.67 109.3c0-2.97-2.2-4.2-4.38-4.2-.93 0-1.78.22-2.53.67v1.82a4.27 4.27 0 012.25-.67c1.2 0 2.2.43 2.44 1.4h-3.32V110h3.32c-.21 1.03-1.17 1.41-2.4 1.41-.82 0-1.72-.24-2.37-.67v1.82c.9.47 1.61.67 2.85.67 1.92 0 4.14-1.13 4.14-3.92zM280.4 107.08h1.96V113h2.22v-7.68h-6.24c-.14 3.44-.41 5.95-1.63 5.95-.14 0-.3-.03-.46-.1v1.77c.44.16.86.22 1.21.22 2.12 0 2.7-2.62 2.93-6.08zM286.04 109.16c0 2.67 2.01 4.06 4.44 4.06a7.3 7.3 0 002.82-.48V111c-.66.29-1.44.46-2.32.46-1.27 0-2.45-.46-2.7-1.58h5.4c.51-2.27-.5-4.78-3.7-4.78a3.87 3.87 0 00-3.94 4.06zm5.64-.72h-3.42c.03-1.06.86-1.65 1.8-1.65 1.4 0 1.7 1.12 1.62 1.65zM297.35 113v-4.53l1.8 2.87h1.1l1.82-2.87V113h2.14v-7.68h-2.11l-2.4 3.8-2.39-3.8h-2.12V113h2.16zM305.66 109.16c0 2.67 2.02 4.06 4.45 4.06a7.3 7.3 0 002.81-.48V111c-.65.29-1.44.46-2.32.46-1.26 0-2.44-.46-2.7-1.58h5.4c.52-2.27-.5-4.78-3.69-4.78a3.87 3.87 0 00-3.95 4.06zm5.65-.72h-3.43c.04-1.06.87-1.65 1.81-1.65 1.4 0 1.7 1.12 1.62 1.65zM317.04 113v-2.91h3.1V113h2.22v-7.68h-2.22v2.91h-3.1v-2.91h-2.23V113h2.23zM328.22 113v-5.8h2.44v-1.88h-7.1v1.87h2.45V113h2.2zM381.13 116.52v-3.3c2.54-.1 4.43-1.61 4.43-4.06 0-2.45-1.89-3.97-4.43-4.06v-3.3H379v3.3c-2.54.1-4.43 1.61-4.43 4.06 0 2.45 1.89 3.97 4.43 4.06v3.3h2.12zm-4.32-7.36c0-1.15.73-2.13 2.22-2.2v4.4c-1.49-.07-2.22-1.05-2.22-2.2zm4.33-2.2c1.49.07 2.23 1.05 2.23 2.2 0 1.15-.74 2.13-2.23 2.2v-4.4zM390.27 107.08h1.96V113h2.23v-7.68h-6.24c-.15 3.44-.42 5.95-1.63 5.95-.15 0-.3-.03-.47-.1v1.77c.45.16.87.22 1.22.22 2.11 0 2.7-2.62 2.93-6.08zM395.91 109.16c0 2.67 2.02 4.06 4.45 4.06a7.3 7.3 0 002.81-.48V111c-.65.29-1.44.46-2.32.46-1.26 0-2.44-.46-2.7-1.58h5.4c.52-2.27-.5-4.78-3.69-4.78a3.87 3.87 0 00-3.95 4.06zm5.65-.72h-3.43c.04-1.06.87-1.65 1.81-1.65 1.4 0 1.7 1.12 1.62 1.65zM407.29 113v-3.04h.9l2.2 3.04h2.5l-2.87-3.89 2.64-3.79h-2.5l-1.95 2.86h-.92v-2.86h-2.23V113h2.23zM412.99 109.27c0 2.74 2.1 3.95 4.2 3.95.97 0 1.83-.19 2.58-.5v-1.98c-.56.34-1.34.56-2.16.56-1.2 0-2.35-.67-2.35-2.14 0-1.55 1.17-2.14 2.38-2.14.74 0 1.5.22 2.05.57v-1.95a5.07 5.07 0 00-2.37-.56c-2.12 0-4.33 1.25-4.33 4.2zM421.25 108.17v1.87h5.95v-1.87h-5.95zM435.67 109.3c0-2.97-2.2-4.2-4.38-4.2-.93 0-1.78.22-2.53.67v1.82a4.27 4.27 0 012.25-.67c1.2 0 2.2.43 2.44 1.4h-3.32V110h3.32c-.21 1.03-1.17 1.41-2.4 1.41-.82 0-1.72-.24-2.37-.67v1.82c.9.47 1.61.67 2.85.67 1.92 0 4.14-1.13 4.14-3.92zM440.4 107.08h1.96V113h2.22v-7.68h-6.24c-.14 3.44-.41 5.95-1.63 5.95-.14 0-.3-.03-.46-.1v1.77c.44.16.86.22 1.21.22 2.12 0 2.7-2.62 2.93-6.08zM446.04 109.16c0 2.67 2.01 4.06 4.44 4.06a7.3 7.3 0 002.82-.48V111c-.66.29-1.44.46-2.32.46-1.27 0-2.45-.46-2.7-1.58h5.4c.51-2.27-.5-4.78-3.7-4.78a3.87 3.87 0 00-3.94 4.06zm5.64-.72h-3.42c.03-1.06.86-1.65 1.8-1.65 1.4 0 1.7 1.12 1.62 1.65zM457.35 113v-4.53l1.8 2.87h1.1l1.82-2.87V113h2.14v-7.68h-2.11l-2.4 3.8-2.39-3.8h-2.12V113h2.16zM465.66 109.16c0 2.67 2.02 4.06 4.45 4.06a7.3 7.3 0 002.81-.48V111c-.65.29-1.44.46-2.32.46-1.26 0-2.44-.46-2.7-1.58h5.4c.52-2.27-.5-4.78-3.69-4.78a3.87 3.87 0 00-3.95 4.06zm5.65-.72h-3.43c.04-1.06.87-1.65 1.81-1.65 1.4 0 1.7 1.12 1.62 1.65zM477.04 113v-2.91h3.1V113h2.22v-7.68h-2.22v2.91h-3.1v-2.91h-2.23V113h2.23zM488.22 113v-5.8h2.44v-1.88h-7.1v1.87h2.45V113h2.2zM541.13 116.52v-3.3c2.54-.1 4.43-1.61 4.43-4.06 0-2.45-1.89-3.97-4.43-4.06v-3.3H539v3.3c-2.54.1-4.43 1.61-4.43 4.06 0 2.45 1.89 3.97 4.43 4.06v3.3h2.12zm-4.32-7.36c0-1.15.73-2.13 2.22-2.2v4.4c-1.49-.07-2.22-1.05-2.22-2.2zm4.33-2.2c1.49.07 2.23 1.05 2.23 2.2 0 1.15-.74 2.13-2.23 2.2v-4.4zM550.27 107.08h1.96V113h2.23v-7.68h-6.24c-.15 3.44-.42 5.95-1.63 5.95-.15 0-.3-.03-.47-.1v1.77c.45.16.87.22 1.22.22 2.11 0 2.7-2.62 2.93-6.08zM555.91 109.16c0 2.67 2.02 4.06 4.45 4.06a7.3 7.3 0 002.81-.48V111c-.65.29-1.44.46-2.32.46-1.26 0-2.44-.46-2.7-1.58h5.4c.52-2.27-.5-4.78-3.69-4.78a3.87 3.87 0 00-3.95 4.06zm5.65-.72h-3.43c.04-1.06.87-1.65 1.81-1.65 1.4 0 1.7 1.12 1.62 1.65zM567.28 113v-3.04h.9l2.2 3.04h2.5l-2.86-3.89 2.64-3.79h-2.5l-1.95 2.86h-.93v-2.86h-2.22V113h2.23zM572.99 109.27c0 2.74 2.1 3.95 4.2 3.95.97 0 1.83-.19 2.58-.5v-1.98c-.56.34-1.34.56-2.16.56-1.2 0-2.35-.67-2.35-2.14 0-1.55 1.17-2.14 2.38-2.14.74 0 1.5.22 2.05.57v-1.95a5.07 5.07 0 00-2.37-.56c-2.12 0-4.33 1.25-4.33 4.2zM581.25 108.17v1.87h5.95v-1.87h-5.95zM595.67 109.3c0-2.97-2.2-4.2-4.38-4.2-.93 0-1.78.22-2.53.67v1.82a4.27 4.27 0 012.25-.67c1.2 0 2.2.43 2.44 1.4h-3.32V110h3.32c-.21 1.03-1.17 1.41-2.4 1.41-.82 0-1.72-.24-2.37-.67v1.82c.9.47 1.61.67 2.85.67 1.92 0 4.14-1.13 4.14-3.92zM600.4 107.08h1.96V113h2.22v-7.68h-6.24c-.14 3.44-.41 5.95-1.63 5.95-.14 0-.3-.03-.46-.1v1.77c.45.16.86.22 1.21.22 2.12 0 2.7-2.62 2.93-6.08zM606.03 109.16c0 2.67 2.02 4.06 4.45 4.06a7.3 7.3 0 002.82-.48V111c-.66.29-1.44.46-2.32.46-1.26 0-2.45-.46-2.7-1.58h5.4c.52-2.27-.5-4.78-3.7-4.78a3.87 3.87 0 00-3.95 4.06zm5.65-.72h-3.42c.03-1.06.86-1.65 1.8-1.65 1.4 0 1.7 1.12 1.62 1.65zM617.35 113v-4.53l1.8 2.87h1.1l1.82-2.87V113h2.14v-7.68h-2.11l-2.4 3.8-2.39-3.8h-2.12V113h2.16zM625.66 109.16c0 2.67 2.02 4.06 4.45 4.06a7.3 7.3 0 002.81-.48V111c-.65.29-1.44.46-2.32.46-1.26 0-2.44-.46-2.7-1.58h5.4c.52-2.27-.5-4.78-3.69-4.78a3.87 3.87 0 00-3.95 4.06zm5.65-.72h-3.43c.04-1.06.87-1.65 1.81-1.65 1.4 0 1.7 1.12 1.62 1.65zM637.03 113v-2.91h3.1V113h2.23v-7.68h-2.22v2.91h-3.1v-2.91h-2.23V113h2.23zM648.22 113v-5.8h2.44v-1.88h-7.1v1.87h2.45V113h2.2z" fill="#333"/><path d="M111.92 59.8l-6.6 2.52v5.4l5.12-1.92v16.04h-5.12V87h15.52v-5.16h-4.56V59.8h-4.36zM262.6 62.12v5.6a14.9 14.9 0 018.8-3.24c2.77 0 4.53 1.04 4.53 3.04 0 2.6-2.44 3.68-5.28 5.32-4 2.36-8.96 4.92-8.96 11.48V87h20.4v-5.16l-13.6.04c.04-1.76 2.8-3.24 6.04-5.16 3.56-2.12 7.36-4.84 7.36-9.44 0-5.56-4.44-8.04-9.92-8.04-3.32 0-6.56.88-9.36 2.88zM441.17 66.76c0-4.96-4.2-7.52-9.84-7.52-3.36 0-6.44.8-8.88 2.12v5.56a15.91 15.91 0 018.04-2.44c3.28 0 5 1.16 5 3.12 0 1.88-1.64 2.88-4.32 2.88l-3.76-.04-.04 5.12h4.48c2.72 0 4.72.84 4.72 3.16 0 2.56-2.56 3.56-5.64 3.56-3.12.04-5.88-.4-8.96-2.12v5.56a23.25 23.25 0 009.44 1.84c5.6 0 10.88-2.28 10.88-8 0-4-2.48-6.12-5.24-6.96a5.92 5.92 0 004.12-5.84zM594.32 59.8l-14.05 17.28v4.96h14.28V87h5.73v-4.96h4.12v-5h-4.13V59.8h-5.95zm.23 17.24h-8.03l8.03-9.92v9.92z" fill="#fff"/><path d="M309.17 157v-5.8h3.63v-1.88h-5.86V157h2.23zM316.54 151.08h1.97V157h2.22v-7.68h-6.24c-.14 3.44-.42 5.95-1.63 5.95-.15 0-.3-.03-.47-.1v1.77c.45.16.87.22 1.22.22 2.11 0 2.7-2.62 2.93-6.08zM329.48 155.02v-2.45c0-2.53-1.47-3.47-3.78-3.47-1.18 0-2.35.3-2.97.5v1.93a7.36 7.36 0 012.72-.58c1.2 0 1.8.53 1.8 1.3v.27a8.38 8.38 0 00-1.82-.2c-1.53 0-3.37.6-3.37 2.55 0 1.52 1.24 2.35 2.68 2.35 1.14 0 2.02-.35 2.77-.94.32.58.91.86 1.7.86.43 0 .88-.1 1.23-.22v-1.46c-.14.05-.29.07-.42.07-.28 0-.54-.11-.54-.51zm-3.54-1.38c.47 0 .98.1 1.32.18v1.2c-.52.44-1.1.62-1.73.62-.67 0-1.2-.37-1.2-.94 0-.79.8-1.06 1.61-1.06zM336.33 157c1.94 0 2.58-1 2.58-2.08 0-.93-.53-1.54-1.36-1.8a1.75 1.75 0 001.19-1.77c0-1.04-.7-2.03-2.53-2.03h-4.58V157h4.7zm-2.47-3.18h1.82c.54 0 1.02.19 1.02.84 0 .61-.46.82-1.02.82h-1.82v-1.66zm-.02-2.98h1.68c.51 0 .98.2.98.83 0 .6-.44.8-.96.8h-1.7v-1.63zM342.64 157v-2.91h3.1V157h2.22v-7.68h-2.22v2.91h-3.1v-2.91h-2.23V157h2.23zM356.71 155.02v-2.45c0-2.53-1.47-3.47-3.77-3.47-1.19 0-2.35.3-2.98.5v1.93a7.36 7.36 0 012.72-.58c1.2 0 1.81.53 1.81 1.3v.27a8.38 8.38 0 00-1.82-.2c-1.54 0-3.38.6-3.38 2.55 0 1.52 1.25 2.35 2.69 2.35 1.13 0 2.01-.35 2.77-.94.32.58.9.86 1.7.86.42 0 .87-.1 1.22-.22v-1.46c-.14.05-.28.07-.41.07-.29 0-.55-.11-.55-.51zm-3.53-1.38c.46 0 .97.1 1.31.18v1.2c-.51.44-1.1.62-1.73.62-.67 0-1.2-.37-1.2-.94 0-.79.8-1.06 1.62-1.06zM360.69 157l1.71-2.29h1.25V157h2.22v-7.68h-4.16c-2.01 0-3.07 1.25-3.07 2.69 0 1.04.53 1.97 1.57 2.41l-2.02 2.58h2.5zm.2-4.93c0-.64.47-.99 1.27-.99h1.49v1.97h-1.49c-.8 0-1.26-.35-1.26-.98zM370.87 153.16c0 2.69 2.02 4.06 4.24 4.06 2.24 0 4.24-1.37 4.24-4.06 0-2.69-2-4.06-4.24-4.06-2.22 0-4.24 1.37-4.24 4.06zm6.23 0c0 1.18-.7 2.08-1.99 2.08-1.26 0-1.97-.9-1.97-2.08 0-1.18.7-2.08 1.97-2.08 1.28 0 1.99.9 1.99 2.08zM380.37 153.27c0 2.74 2.1 3.95 4.2 3.95.97 0 1.83-.19 2.58-.5v-1.98c-.55.34-1.34.56-2.15.56-1.2 0-2.36-.67-2.36-2.14 0-1.55 1.17-2.14 2.39-2.14.73 0 1.5.22 2.05.57v-1.95a5.07 5.07 0 00-2.37-.56c-2.13 0-4.34 1.25-4.34 4.2zM392.7 157c2.01 0 3.1-1.17 3.1-2.64 0-1.47-1.09-2.64-3.1-2.64h-1.78v-2.4h-2.23V157h4zm-1.8-3.68h1.25c.88 0 1.36.38 1.36 1.04s-.48 1.04-1.36 1.04h-1.25v-2.08z" fill="#E84E1B"/><path fill-rule="evenodd" clip-rule="evenodd" d="M704.7 164.3l-6.36-6.37a1 1 0 10-1.41 1.41l4.66 4.66H678.08v2h23.51l-4.66 4.66a1 1 0 101.41 1.41l6.37-6.36a1 1 0 000-1.42zM7.88 166h24.06v-2H7.88a4 4 0 100 2zm32.03 0h11.97v-2H39.9v2zm19.95 0H71.8v-2H59.85v2zm19.94 0h11.96v-2H79.8v2zm19.94 0h11.97v-2H99.73v2zm19.94 0h11.97v-2h-11.97v2zm19.95 0h11.96v-2h-11.96v2zm19.94 0h11.97v-2h-11.97v2zm19.94 0h11.97v-2H179.5v2zm19.95 0h11.96v-2h-11.96v2zm19.94 0h11.96v-2H219.4v2zm19.94 0h11.97v-2h-11.97v2zm19.94 0h11.97v-2h-11.97v2zm19.95 0h11.96v-2h-11.96v2zm19.94 0h11.97v-2h-11.97v2zm19.94 0h11.97v-2H319.1v2zm19.95 0H351v-2h-11.96v2zm19.94 0h11.96v-2H359v2zm19.94 0h11.97v-2h-11.97v2zm19.94 0h11.97v-2h-11.97v2zm19.95 0h11.96v-2h-11.96v2zm19.94 0h11.97v-2h-11.97v2zm19.94 0h11.97v-2H458.7v2zm19.95 0h11.96v-2h-11.96v2zm19.94 0h11.96v-2H498.6v2zm19.94 0h11.97v-2h-11.97v2zm19.94 0h11.97v-2h-11.97v2zm19.95 0h11.96v-2h-11.96v2zm19.94 0h11.97v-2h-11.97v2zm19.94 0h11.97v-2H598.3v2zm19.95 0h11.96v-2h-11.96v2zm19.94 0h11.96v-2H638.2v2zm19.94 0h11.97v-2h-11.97v2z" fill="#E84E1B"/></svg>