<svg width="705" height="210" viewBox="0 0 705 210" fill="none" xmlns="http://www.w3.org/2000/svg"><path d="M0 0h705v210H0V0z" fill="#fff"/><path d="M4 4h697v64H4V4z" fill="#EEF8EC"/><path d="M421 4h280v64H421V4z" fill="#A8DDA2"/><path d="M4 73h697v64H4V73z" fill="#FFF5E6"/><path d="M4 73h280v64H4V73z" fill="#FFD699"/><path d="M4 142h697v64H4v-64z" fill="#EDEBF9"/><path d="M213 142h280v64H213v-64z" fill="#C8C4EE"/><path fill-rule="evenodd" clip-rule="evenodd" d="M703 2H2v206h701V2zM0 0v210h705V0H0z" fill="#AAA"/><path d="M27.56 42v-5.69c.42-.54 1.1-1.04 1.86-1.04.79 0 1.35.52 1.35 1.42V42h2.48v-5.47c0-.15 0-.27-.02-.4a2.37 2.37 0 011.71-.86c.8 0 1.35.52 1.35 1.42V42h2.49v-5.47c0-1.53-.8-3.42-3.22-3.42-1.2 0-2.16.57-2.88 1.28-.5-.74-1.35-1.28-2.65-1.28a3.7 3.7 0 00-2.75 1.26v-1.01h-2.22V42h2.5zM48.53 39.77V37c0-2.84-1.65-3.9-4.24-3.9-1.34 0-2.65.34-3.35.57v2.16A8.28 8.28 0 0144 35.2c1.35 0 2.03.59 2.03 1.45v.31a9.43 9.43 0 00-2.05-.23c-1.73 0-3.8.68-3.8 2.88 0 1.7 1.4 2.64 3.03 2.64 1.27 0 2.26-.4 3.11-1.06.36.65 1.03.97 1.9.97.5 0 1-.1 1.4-.25v-1.64c-.17.06-.33.07-.47.07-.33 0-.62-.12-.62-.57zm-3.97-1.55c.52 0 1.1.1 1.47.2v1.35c-.57.5-1.24.7-1.94.7-.76 0-1.35-.41-1.35-1.06 0-.88.9-1.19 1.82-1.19zM53.01 34.66v-1.3H50.8V42h2.5v-5.08c.52-1.02 1.83-1.54 3.2-1.31v-2.43c-1.62-.16-2.88.52-3.49 1.48zM57.17 37.68c0 2.36 1.47 4.57 4.23 4.57 1.36 0 2.28-.56 2.84-1.17v.8c0 1.7-1.28 2.23-2.8 2.23a6.59 6.59 0 01-3.34-.9v2.2c1.05.5 2.3.8 3.66.8 2.53 0 4.96-1.15 4.96-4.44v-8.41h-2.2v1.26a3.7 3.7 0 00-3.12-1.51c-2.76 0-4.23 2.21-4.23 4.57zm7.07-1.03v2.11a2.48 2.48 0 01-2.25 1.39c-1.42 0-2.27-1.12-2.27-2.47s.85-2.47 2.27-2.47c1.1 0 1.9.69 2.25 1.44zM71.37 42v-8.64h-2.5V42h2.5zm.22-11.5c0-.97-.69-1.4-1.48-1.4-.77 0-1.46.43-1.46 1.4 0 .99.69 1.42 1.46 1.42.8 0 1.48-.43 1.48-1.42zM75.74 34.46v-1.1h-2.22V42h2.5v-5.63a2.43 2.43 0 011.93-1.1c.97 0 1.68.54 1.68 1.7V42h2.5v-5.35c0-2-1.24-3.54-3.51-3.54-1.24 0-2.22.57-2.88 1.35zM84.07 36.56v2.11h6.7v-2.1h-6.7zM92.86 28.86V42h2.5V28.86h-2.5zM97.03 37.68c0 3 2.27 4.57 5 4.57 1.3 0 2.36-.2 3.17-.54v-1.96c-.73.32-1.62.52-2.6.52-1.43 0-2.76-.52-3.05-1.78h6.09c.57-2.56-.58-5.38-4.16-5.38a4.35 4.35 0 00-4.45 4.57zm6.36-.81h-3.86c.04-1.19.98-1.85 2.04-1.85 1.57 0 1.9 1.26 1.82 1.85zM110.7 42v-6.53h2.64v-2.11h-2.65v-.74c0-1.08.74-1.37 1.55-1.37.56 0 1.12.15 1.5.36v-2.1a6.16 6.16 0 00-2.13-.36c-1.64 0-3.4.75-3.4 3.36v.85h-1.5v2.1h1.5V42h2.48zM115.27 30.84v2.52h-1.46v2.1h1.46v3.88c0 2.14 1.44 2.91 3.12 2.91.86 0 1.65-.14 2.32-.38v-2.01c-.5.2-1 .29-1.57.29-.94 0-1.39-.4-1.39-1.3v-3.38h2.74v-2.11h-2.73v-3.11l-2.49.59zM125.13 35.29c0-1.01-.7-1.48-1.5-1.48-.82 0-1.54.47-1.54 1.48 0 1.02.72 1.47 1.53 1.47s1.51-.45 1.51-1.47zm0 5.47c0-1.01-.7-1.48-1.5-1.48-.82 0-1.54.47-1.54 1.48 0 1 .72 1.47 1.53 1.47s1.51-.46 1.51-1.47zM138.92 39.77V37c0-2.84-1.66-3.9-4.25-3.9-1.33 0-2.64.34-3.34.57v2.16a8.28 8.28 0 013.05-.64c1.36 0 2.04.59 2.04 1.45v.31a9.43 9.43 0 00-2.05-.23c-1.73 0-3.8.68-3.8 2.88 0 1.7 1.4 2.64 3.02 2.64 1.28 0 2.27-.4 3.12-1.06.36.65 1.02.97 1.9.97.5 0 1-.1 1.4-.25v-1.64c-.17.06-.33.07-.48.07-.32 0-.6-.12-.6-.57zm-3.98-1.55c.53 0 1.1.1 1.48.2v1.35c-.58.5-1.24.7-1.94.7-.76 0-1.35-.41-1.35-1.06 0-.88.9-1.19 1.81-1.19zM147.18 33.36v5.63a2.46 2.46 0 01-1.95 1.1c-1.02 0-1.65-.56-1.65-1.7v-5.03h-2.5v5.35c0 2 1.16 3.54 3.5 3.54 1.23 0 2.22-.57 2.88-1.35V42h2.22v-8.64h-2.5zM152.45 30.84v2.52h-1.46v2.1h1.46v3.88c0 2.14 1.44 2.91 3.11 2.91.87 0 1.66-.14 2.32-.38v-2.01c-.5.2-.99.29-1.56.29-.94 0-1.39-.4-1.39-1.3v-3.38h2.74v-2.11h-2.74v-3.11l-2.48.59zM158.84 37.68c0 3.02 2.27 4.57 4.77 4.57 2.52 0 4.77-1.55 4.77-4.57 0-3.02-2.25-4.57-4.77-4.57-2.5 0-4.77 1.55-4.77 4.57zm7 0c0 1.33-.8 2.34-2.23 2.34-1.42 0-2.22-1-2.22-2.34 0-1.33.8-2.34 2.22-2.34 1.44 0 2.23 1 2.23 2.34zM171.32 44.61l1.77-4.84h-2.65l-1.13 4.84h2.01zm1.79-9.83c0-1-.7-1.46-1.53-1.46-.8 0-1.52.45-1.52 1.46 0 1.03.72 1.5 1.52 1.5.82 0 1.53-.47 1.53-1.5zM27.56 180v-5.69c.42-.54 1.1-1.04 1.86-1.04.79 0 1.35.52 1.35 1.42V180h2.48v-5.47c0-.15 0-.27-.02-.4a2.37 2.37 0 011.71-.86c.8 0 1.35.52 1.35 1.42V180h2.49v-5.47c0-1.53-.8-3.42-3.22-3.42-1.2 0-2.16.57-2.88 1.28-.5-.74-1.35-1.28-2.65-1.28a3.7 3.7 0 00-2.75 1.26v-1.01h-2.22V180h2.5zM48.53 177.77V175c0-2.84-1.65-3.9-4.24-3.9-1.34 0-2.65.34-3.35.57v2.16a8.28 8.28 0 013.06-.64c1.35 0 2.03.59 2.03 1.45v.31a9.43 9.43 0 00-2.05-.23c-1.73 0-3.8.68-3.8 2.88 0 1.7 1.4 2.64 3.03 2.64 1.27 0 2.26-.4 3.11-1.06.36.65 1.03.97 1.9.97.5 0 1-.1 1.4-.25v-1.64c-.17.06-.33.07-.47.07-.33 0-.62-.12-.62-.57zm-3.97-1.55c.52 0 1.1.1 1.47.2v1.35c-.57.5-1.24.7-1.94.7-.76 0-1.35-.41-1.35-1.06 0-.88.9-1.19 1.82-1.19zM53.01 172.66v-1.3H50.8V180h2.5v-5.08c.52-1.02 1.83-1.54 3.2-1.31v-2.43c-1.62-.16-2.88.52-3.49 1.48zM57.17 175.68c0 2.36 1.47 4.57 4.23 4.57 1.36 0 2.28-.56 2.84-1.17v.8c0 1.7-1.28 2.23-2.8 2.23a6.59 6.59 0 01-3.34-.9v2.2c1.05.5 2.3.8 3.66.8 2.53 0 4.96-1.15 4.96-4.44v-8.41h-2.2v1.26a3.7 3.7 0 00-3.12-1.51c-2.76 0-4.23 2.21-4.23 4.57zm7.07-1.03v2.11a2.48 2.48 0 01-2.25 1.39c-1.42 0-2.27-1.12-2.27-2.47s.85-2.47 2.27-2.47c1.1 0 1.9.69 2.25 1.44zM71.37 180v-8.64h-2.5V180h2.5zm.22-11.5c0-.97-.69-1.4-1.48-1.4-.77 0-1.46.43-1.46 1.4 0 .99.69 1.42 1.46 1.42.8 0 1.48-.43 1.48-1.42zM75.74 172.46v-1.1h-2.22V180h2.5v-5.63a2.43 2.43 0 011.93-1.1c.97 0 1.68.54 1.68 1.7V180h2.5v-5.35c0-2-1.24-3.54-3.51-3.54-1.24 0-2.22.57-2.88 1.35zM84.07 174.56v2.11h6.7v-2.1h-6.7zM92.86 166.86V180h2.5v-13.14h-2.5zM97.03 175.68c0 3 2.27 4.57 5 4.57 1.3 0 2.36-.2 3.17-.54v-1.96c-.73.32-1.62.52-2.6.52-1.43 0-2.76-.52-3.05-1.78h6.09c.57-2.56-.58-5.38-4.16-5.38a4.35 4.35 0 00-4.45 4.57zm6.36-.81h-3.86c.04-1.19.98-1.85 2.04-1.85 1.57 0 1.9 1.26 1.82 1.85zM110.7 180v-6.53h2.64v-2.11h-2.65v-.74c0-1.08.74-1.37 1.55-1.37.56 0 1.12.15 1.5.36v-2.1a6.16 6.16 0 00-2.13-.36c-1.64 0-3.4.75-3.4 3.36v.85h-1.5v2.1h1.5V180h2.48zM115.27 168.84v2.52h-1.46v2.1h1.46v3.88c0 2.14 1.44 2.91 3.12 2.91.86 0 1.65-.14 2.32-.38v-2.01c-.5.2-1 .29-1.57.29-.94 0-1.39-.4-1.39-1.3v-3.38h2.74v-2.11h-2.73v-3.11l-2.49.59zM125.13 173.29c0-1.01-.7-1.48-1.5-1.48-.82 0-1.54.47-1.54 1.48 0 1.02.72 1.47 1.53 1.47s1.51-.45 1.51-1.47zm0 5.47c0-1.01-.7-1.48-1.5-1.48-.82 0-1.54.47-1.54 1.48 0 1 .72 1.47 1.53 1.47s1.51-.46 1.51-1.47zM138.92 177.77V175c0-2.84-1.66-3.9-4.25-3.9-1.33 0-2.64.34-3.34.57v2.16a8.28 8.28 0 013.05-.64c1.36 0 2.04.59 2.04 1.45v.31a9.43 9.43 0 00-2.05-.23c-1.73 0-3.8.68-3.8 2.88 0 1.7 1.4 2.64 3.02 2.64 1.28 0 2.27-.4 3.12-1.06.36.65 1.02.97 1.9.97.5 0 1-.1 1.4-.25v-1.64c-.17.06-.33.07-.48.07-.32 0-.6-.12-.6-.57zm-3.98-1.55c.53 0 1.1.1 1.48.2v1.35c-.58.5-1.24.7-1.94.7-.76 0-1.35-.41-1.35-1.06 0-.88.9-1.19 1.81-1.19zM147.18 171.36v5.63a2.46 2.46 0 01-1.95 1.1c-1.02 0-1.65-.56-1.65-1.7v-5.03h-2.5v5.35c0 2 1.16 3.54 3.5 3.54 1.23 0 2.22-.57 2.88-1.35v1.1h2.22v-8.64h-2.5zM152.45 168.84v2.52h-1.46v2.1h1.46v3.88c0 2.14 1.44 2.91 3.11 2.91.87 0 1.66-.14 2.32-.38v-2.01c-.5.2-.99.29-1.56.29-.94 0-1.39-.4-1.39-1.3v-3.38h2.74v-2.11h-2.74v-3.11l-2.48.59zM158.84 175.68c0 3.02 2.27 4.57 4.77 4.57 2.52 0 4.77-1.55 4.77-4.57 0-3.02-2.25-4.57-4.77-4.57-2.5 0-4.77 1.55-4.77 4.57zm7 0c0 1.33-.8 2.34-2.23 2.34-1.42 0-2.22-1-2.22-2.34 0-1.33.8-2.34 2.22-2.34 1.44 0 2.23 1 2.23 2.34zM171.32 182.61l1.77-4.84h-2.65l-1.13 4.84h2.01zm1.79-9.83c0-1-.7-1.46-1.53-1.46-.8 0-1.52.45-1.52 1.46 0 1.03.72 1.5 1.52 1.5.82 0 1.53-.47 1.53-1.5zM522.72 111v-5.69c.42-.54 1.1-1.04 1.86-1.04.79 0 1.35.52 1.35 1.42V111h2.48v-5.47c0-.15 0-.27-.02-.4a2.37 2.37 0 011.71-.86c.8 0 1.35.52 1.35 1.42V111h2.49v-5.47c0-1.53-.8-3.42-3.23-3.42-1.18 0-2.16.57-2.88 1.28-.5-.74-1.35-1.28-2.64-1.28a3.7 3.7 0 00-2.76 1.26v-1.01h-2.21V111h2.5zM543.7 108.77V106c0-2.84-1.66-3.9-4.26-3.9-1.33 0-2.64.34-3.34.57v2.16a8.28 8.28 0 013.06-.64c1.35 0 2.03.59 2.03 1.45v.31a9.43 9.43 0 00-2.05-.23c-1.73 0-3.8.68-3.8 2.88 0 1.7 1.4 2.64 3.02 2.64 1.28 0 2.27-.4 3.12-1.06.36.65 1.02.97 1.9.97.5 0 1-.1 1.4-.25v-1.64c-.17.06-.33.07-.48.07-.32 0-.6-.12-.6-.57zm-3.99-1.55c.53 0 1.1.1 1.48.2v1.35c-.58.5-1.24.7-1.94.7-.76 0-1.35-.41-1.35-1.06 0-.88.9-1.19 1.81-1.19zM548.17 103.66v-1.3h-2.21V111h2.5v-5.08c.52-1.02 1.83-1.54 3.2-1.31v-2.43c-1.62-.16-2.88.52-3.5 1.48zM552.32 106.68c0 2.36 1.48 4.57 4.23 4.57 1.37 0 2.29-.56 2.85-1.17v.8c0 1.7-1.28 2.23-2.81 2.23a6.59 6.59 0 01-3.33-.9v2.2c1.04.5 2.3.8 3.65.8 2.54 0 4.97-1.15 4.97-4.44v-8.41h-2.2v1.26a3.7 3.7 0 00-3.13-1.51c-2.75 0-4.23 2.21-4.23 4.57zm7.08-1.03v2.11a2.48 2.48 0 01-2.25 1.39c-1.42 0-2.27-1.12-2.27-2.47s.85-2.47 2.27-2.47c1.1 0 1.9.69 2.25 1.44zM566.53 111v-8.64h-2.5V111h2.5zm.21-11.5c0-.97-.68-1.4-1.47-1.4-.78 0-1.46.43-1.46 1.4 0 .99.68 1.42 1.46 1.42.79 0 1.47-.43 1.47-1.42zM570.9 103.46v-1.1h-2.22V111h2.5v-5.63a2.43 2.43 0 011.93-1.1c.97 0 1.67.54 1.67 1.7V111h2.5v-5.35c0-2-1.24-3.54-3.5-3.54-1.25 0-2.22.57-2.88 1.35zM579.23 105.56v2.11h6.7v-2.1h-6.7zM590.2 103.66v-1.3h-2.22V111h2.5v-5.08c.53-1.02 1.84-1.54 3.21-1.31v-2.43c-1.62-.16-2.88.52-3.5 1.48zM597.53 111v-8.64h-2.5V111h2.5zm.22-11.5c0-.97-.68-1.4-1.48-1.4-.77 0-1.45.43-1.45 1.4 0 .99.68 1.42 1.45 1.42.8 0 1.48-.43 1.48-1.42zM599.2 106.68c0 2.36 1.48 4.57 4.23 4.57 1.37 0 2.3-.56 2.85-1.17v.8c0 1.7-1.28 2.23-2.8 2.23a6.59 6.59 0 01-3.34-.9v2.2c1.04.5 2.3.8 3.65.8 2.54 0 4.97-1.15 4.97-4.44v-8.41h-2.2v1.26a3.7 3.7 0 00-3.13-1.51c-2.75 0-4.22 2.21-4.22 4.57zm7.08-1.03v2.11a2.48 2.48 0 01-2.25 1.39c-1.42 0-2.27-1.12-2.27-2.47s.85-2.47 2.27-2.47c1.1 0 1.9.69 2.25 1.44zM610.89 98.4V111h2.5v-5.63a2.43 2.43 0 011.93-1.1c.97 0 1.67.54 1.67 1.7V111h2.5v-5.35c0-2-1.24-3.54-3.5-3.54-1.09 0-1.97.45-2.6 1.04V98.4h-2.5zM622.08 99.84v2.52h-1.46v2.1h1.46v3.88c0 2.14 1.44 2.91 3.12 2.91.86 0 1.65-.14 2.32-.38v-2.01c-.5.2-1 .29-1.57.29-.93 0-1.38-.4-1.38-1.3v-3.38h2.73v-2.11h-2.73v-3.11l-2.49.59zM631.95 104.29c0-1.01-.7-1.48-1.52-1.48-.8 0-1.52.47-1.52 1.48 0 1.02.72 1.47 1.52 1.47.82 0 1.52-.45 1.52-1.47zm0 5.47c0-1.01-.7-1.48-1.52-1.48-.8 0-1.52.47-1.52 1.48 0 1 .72 1.47 1.52 1.47.82 0 1.52-.46 1.52-1.47zM645.73 108.77V106c0-2.84-1.65-3.9-4.25-3.9-1.33 0-2.64.34-3.34.57v2.16a8.28 8.28 0 013.06-.64c1.35 0 2.03.59 2.03 1.45v.31a9.43 9.43 0 00-2.05-.23c-1.73 0-3.8.68-3.8 2.88 0 1.7 1.4 2.64 3.02 2.64 1.28 0 2.27-.4 3.12-1.06.36.65 1.02.97 1.9.97.5 0 1-.1 1.4-.25v-1.64c-.17.06-.33.07-.48.07-.32 0-.6-.12-.6-.57zm-3.98-1.55c.53 0 1.1.1 1.48.2v1.35c-.58.5-1.24.7-1.94.7-.76 0-1.35-.41-1.35-1.06 0-.88.9-1.19 1.81-1.19zM653.99 102.36v5.63a2.46 2.46 0 01-1.94 1.1c-1.03 0-1.66-.56-1.66-1.7v-5.03h-2.5v5.35c0 2 1.17 3.54 3.5 3.54 1.23 0 2.22-.57 2.89-1.35v1.1h2.21v-8.64H654zM659.26 99.84v2.52h-1.46v2.1h1.46v3.88c0 2.14 1.44 2.91 3.12 2.91.86 0 1.65-.14 2.32-.38v-2.01c-.5.2-1 .29-1.57.29-.93 0-1.38-.4-1.38-1.3v-3.38h2.73v-2.11h-2.74v-3.11l-2.48.59zM665.65 106.68c0 3.02 2.27 4.57 4.77 4.57 2.52 0 4.77-1.55 4.77-4.57 0-3.02-2.25-4.57-4.77-4.57-2.5 0-4.77 1.55-4.77 4.57zm7 0c0 1.33-.79 2.34-2.23 2.34-1.42 0-2.21-1-2.21-2.34 0-1.33.79-2.34 2.21-2.34 1.44 0 2.23 1 2.23 2.34zM678.14 113.61l1.76-4.84h-2.64l-1.14 4.84h2.02zm1.78-9.83c0-1-.7-1.46-1.53-1.46-.8 0-1.51.45-1.51 1.46 0 1.03.72 1.5 1.51 1.5.83 0 1.53-.47 1.53-1.5zM522.72 180v-5.69c.42-.54 1.1-1.04 1.86-1.04.79 0 1.35.52 1.35 1.42V180h2.48v-5.47c0-.15 0-.27-.02-.4a2.37 2.37 0 011.71-.86c.8 0 1.35.52 1.35 1.42V180h2.49v-5.47c0-1.53-.8-3.42-3.23-3.42-1.18 0-2.16.57-2.88 1.28-.5-.74-1.35-1.28-2.64-1.28a3.7 3.7 0 00-2.76 1.26v-1.01h-2.21V180h2.5zM543.7 177.77V175c0-2.84-1.66-3.9-4.26-3.9-1.33 0-2.64.34-3.34.57v2.16a8.28 8.28 0 013.06-.64c1.35 0 2.03.59 2.03 1.45v.31a9.43 9.43 0 00-2.05-.23c-1.73 0-3.8.68-3.8 2.88 0 1.7 1.4 2.64 3.02 2.64 1.28 0 2.27-.4 3.12-1.06.36.65 1.02.97 1.9.97.5 0 1-.1 1.4-.25v-1.64c-.17.06-.33.07-.48.07-.32 0-.6-.12-.6-.57zm-3.99-1.55c.53 0 1.1.1 1.48.2v1.35c-.58.5-1.24.7-1.94.7-.76 0-1.35-.41-1.35-1.06 0-.88.9-1.19 1.81-1.19zM548.17 172.66v-1.3h-2.21V180h2.5v-5.08c.52-1.02 1.83-1.54 3.2-1.31v-2.43c-1.62-.16-2.88.52-3.5 1.48zM552.32 175.68c0 2.36 1.48 4.57 4.23 4.57 1.37 0 2.29-.56 2.85-1.17v.8c0 1.7-1.28 2.23-2.81 2.23a6.59 6.59 0 01-3.33-.9v2.2c1.04.5 2.3.8 3.65.8 2.54 0 4.97-1.15 4.97-4.44v-8.41h-2.2v1.26a3.7 3.7 0 00-3.13-1.51c-2.75 0-4.23 2.21-4.23 4.57zm7.08-1.03v2.11a2.48 2.48 0 01-2.25 1.39c-1.42 0-2.27-1.12-2.27-2.47s.85-2.47 2.27-2.47c1.1 0 1.9.69 2.25 1.44zM566.53 180v-8.64h-2.5V180h2.5zm.21-11.5c0-.97-.68-1.4-1.47-1.4-.78 0-1.46.43-1.46 1.4 0 .99.68 1.42 1.46 1.42.79 0 1.47-.43 1.47-1.42zM570.9 172.46v-1.1h-2.22V180h2.5v-5.63a2.43 2.43 0 011.93-1.1c.97 0 1.67.54 1.67 1.7V180h2.5v-5.35c0-2-1.24-3.54-3.5-3.54-1.25 0-2.22.57-2.88 1.35zM579.23 174.56v2.11h6.7v-2.1h-6.7zM590.2 172.66v-1.3h-2.22V180h2.5v-5.08c.53-1.02 1.84-1.54 3.21-1.31v-2.43c-1.62-.16-2.88.52-3.5 1.48zM597.53 180v-8.64h-2.5V180h2.5zm.22-11.5c0-.97-.68-1.4-1.48-1.4-.77 0-1.45.43-1.45 1.4 0 .99.68 1.42 1.45 1.42.8 0 1.48-.43 1.48-1.42zM599.2 175.68c0 2.36 1.48 4.57 4.23 4.57 1.37 0 2.3-.56 2.85-1.17v.8c0 1.7-1.28 2.23-2.8 2.23a6.59 6.59 0 01-3.34-.9v2.2c1.04.5 2.3.8 3.65.8 2.54 0 4.97-1.15 4.97-4.44v-8.41h-2.2v1.26a3.7 3.7 0 00-3.13-1.51c-2.75 0-4.22 2.21-4.22 4.57zm7.08-1.03v2.11a2.48 2.48 0 01-2.25 1.39c-1.42 0-2.27-1.12-2.27-2.47s.85-2.47 2.27-2.47c1.1 0 1.9.69 2.25 1.44zM610.89 167.4V180h2.5v-5.63a2.43 2.43 0 011.93-1.1c.97 0 1.67.54 1.67 1.7V180h2.5v-5.35c0-2-1.24-3.54-3.5-3.54-1.09 0-1.97.45-2.6 1.04v-4.75h-2.5zM622.08 168.84v2.52h-1.46v2.1h1.46v3.88c0 2.14 1.44 2.91 3.12 2.91.86 0 1.65-.14 2.32-.38v-2.01c-.5.2-1 .29-1.57.29-.93 0-1.38-.4-1.38-1.3v-3.38h2.73v-2.11h-2.73v-3.11l-2.49.59zM631.95 173.29c0-1.01-.7-1.48-1.52-1.48-.8 0-1.52.47-1.52 1.48 0 1.02.72 1.47 1.52 1.47.82 0 1.52-.45 1.52-1.47zm0 5.47c0-1.01-.7-1.48-1.52-1.48-.8 0-1.52.47-1.52 1.48 0 1 .72 1.47 1.52 1.47.82 0 1.52-.46 1.52-1.47zM645.73 177.77V175c0-2.84-1.65-3.9-4.25-3.9-1.33 0-2.64.34-3.34.57v2.16a8.28 8.28 0 013.06-.64c1.35 0 2.03.59 2.03 1.45v.31a9.43 9.43 0 00-2.05-.23c-1.73 0-3.8.68-3.8 2.88 0 1.7 1.4 2.64 3.02 2.64 1.28 0 2.27-.4 3.12-1.06.36.65 1.02.97 1.9.97.5 0 1-.1 1.4-.25v-1.64c-.17.06-.33.07-.48.07-.32 0-.6-.12-.6-.57zm-3.98-1.55c.53 0 1.1.1 1.48.2v1.35c-.58.5-1.24.7-1.94.7-.76 0-1.35-.41-1.35-1.06 0-.88.9-1.19 1.81-1.19zM653.99 171.36v5.63a2.46 2.46 0 01-1.94 1.1c-1.03 0-1.66-.56-1.66-1.7v-5.03h-2.5v5.35c0 2 1.17 3.54 3.5 3.54 1.23 0 2.22-.57 2.89-1.35v1.1h2.21v-8.64H654zM659.26 168.84v2.52h-1.46v2.1h1.46v3.88c0 2.14 1.44 2.91 3.12 2.91.86 0 1.65-.14 2.32-.38v-2.01c-.5.2-1 .29-1.57.29-.93 0-1.38-.4-1.38-1.3v-3.38h2.73v-2.11h-2.74v-3.11l-2.48.59zM665.65 175.68c0 3.02 2.27 4.57 4.77 4.57 2.52 0 4.77-1.55 4.77-4.57 0-3.02-2.25-4.57-4.77-4.57-2.5 0-4.77 1.55-4.77 4.57zm7 0c0 1.33-.79 2.34-2.23 2.34-1.42 0-2.21-1-2.21-2.34 0-1.33.79-2.34 2.21-2.34 1.44 0 2.23 1 2.23 2.34zM678.14 182.61l1.76-4.84h-2.64l-1.14 4.84h2.02zm1.78-9.83c0-1-.7-1.46-1.53-1.46-.8 0-1.51.45-1.51 1.46 0 1.03.72 1.5 1.51 1.5.83 0 1.53-.47 1.53-1.5z" fill="#333"/></svg>