<svg width="705" height="140" viewBox="0 0 705 140" fill="none" xmlns="http://www.w3.org/2000/svg">
<path fill-rule="evenodd" clip-rule="evenodd" d="M8 0C3.58172 0 0 3.58172 0 8V32C0 36.4183 3.58172 40 8 40H132C136.418 40 140 36.4183 140 32V8C140 3.58172 136.418 0 132 0H8ZM196 0C191.582 0 188 3.58172 188 8V32C188 36.4183 191.582 40 196 40H320C324.418 40 328 36.4183 328 32V8C328 3.58172 324.418 0 320 0H196ZM188 58C188 53.5817 191.582 50 196 50H320C324.418 50 328 53.5817 328 58V82C328 86.4183 324.418 90 320 90H196C191.582 90 188 86.4183 188 82V58ZM384 50C379.582 50 376 53.5817 376 58V82C376 86.4183 379.582 90 384 90H508C512.418 90 516 86.4183 516 82V58C516 53.5817 512.418 50 508 50H384ZM376 108C376 103.582 379.582 100 384 100H508C512.418 100 516 103.582 516 108V132C516 136.418 512.418 140 508 140H384C379.582 140 376 136.418 376 132V108ZM573 100C568.582 100 565 103.582 565 108V132C565 136.418 568.582 140 573 140H697C701.418 140 705 136.418 705 132V108C705 103.582 701.418 100 697 100H573Z" fill="#7F75D7"/>
<path fill-rule="evenodd" clip-rule="evenodd" d="M48.4512 26.9999V12.9999H50.5912V18.4599C51.2912 17.7399 52.3912 17.1399 53.6912 17.1399C56.1112 17.1399 57.6512 18.7799 57.6512 21.0599V26.9999H55.5112V21.3399C55.5112 19.7799 54.5512 19.0399 53.2712 19.0399C52.0512 19.0399 51.1312 19.8599 50.5912 20.6399V26.9999H48.4512ZM61.2309 17.3999V14.4999L63.3509 13.9799V17.3999H66.8309V19.2799H63.3509V23.6799C63.3509 24.9399 63.9309 25.3599 65.1709 25.3599C65.8709 25.3599 66.5109 25.2199 67.1109 24.9799V26.8199C66.3909 27.0799 65.4709 27.2399 64.5309 27.2399C62.6709 27.2399 61.2309 26.3199 61.2309 24.0799V19.2799H59.5109V17.3999H61.2309ZM71.3912 20.5199V26.9999H69.2512V17.3999H71.1512V18.5999C71.6712 18.0199 72.7912 17.1399 74.3512 17.1399C75.7912 17.1399 76.7912 17.7399 77.3512 18.6799C78.1912 17.8399 79.3112 17.1399 80.7112 17.1399C83.2512 17.1399 84.3512 19.0199 84.3512 20.9999V26.9999H82.2112V21.0599C82.2112 19.8199 81.4712 19.0399 80.3112 19.0399C79.2512 19.0399 78.4312 19.7399 77.9312 20.3399C77.9512 20.5599 77.9712 20.7799 77.9712 20.9999V26.9999H75.8312V21.0599C75.8312 19.8199 75.0912 19.0399 73.9312 19.0399C72.7712 19.0399 71.8912 19.8799 71.3912 20.5199ZM87.367 26.9999V12.3999H89.507V26.9999H87.367ZM235.664 26.9999V12.9999H237.804V18.4599C238.504 17.7399 239.604 17.1399 240.904 17.1399C243.324 17.1399 244.864 18.7799 244.864 21.0599V26.9999H242.724V21.3399C242.724 19.7799 241.764 19.0399 240.484 19.0399C239.264 19.0399 238.344 19.8599 237.804 20.6399V26.9999H235.664ZM252.662 27.2599C249.722 27.2599 247.222 25.5799 247.222 22.1999C247.222 18.7199 249.862 17.1399 252.082 17.1399C255.902 17.1399 257.222 20.2199 256.602 22.9999H249.382C249.622 24.7199 251.302 25.4399 253.062 25.4399C254.222 25.4399 255.282 25.1599 256.102 24.7599V26.5999C255.222 27.0199 254.002 27.2599 252.662 27.2599ZM249.362 21.3999H254.682C254.802 20.5599 254.282 18.9199 252.182 18.9199C250.742 18.9199 249.442 19.7799 249.362 21.3999ZM267.359 21.3399V24.7799C267.359 25.3199 267.679 25.4799 268.059 25.4799C268.279 25.4799 268.499 25.4199 268.699 25.3599V26.8999C268.299 27.0599 267.819 27.1399 267.339 27.1399C266.459 27.1399 265.759 26.7999 265.419 26.0199C264.479 26.7799 263.299 27.2599 261.799 27.2599C260.059 27.2599 258.439 26.2999 258.439 24.3199C258.439 21.8599 260.719 21.0999 262.719 21.0999C263.539 21.0999 264.459 21.2199 265.219 21.3799V21.0399C265.219 19.8399 264.339 18.9999 262.699 18.9999C261.279 18.9999 260.099 19.3599 259.239 19.7399V17.7799C259.999 17.5199 261.379 17.1399 262.919 17.1399C265.639 17.1399 267.359 18.4399 267.359 21.3399ZM265.219 22.8399C264.639 22.7199 263.819 22.5999 263.139 22.5999C261.919 22.5999 260.639 22.9799 260.639 24.1799C260.639 25.1199 261.479 25.5999 262.439 25.5999C263.459 25.5999 264.459 25.2199 265.219 24.4599V22.8399ZM278.195 18.6399V12.9999H280.335V26.9999H278.415V25.4799C277.675 26.4199 276.535 27.2599 274.735 27.2599C271.835 27.2599 269.975 24.9599 269.975 22.1999C269.975 19.4399 271.835 17.1399 274.735 17.1399C276.415 17.1399 277.535 17.8799 278.195 18.6399ZM278.175 23.3599V21.0199C277.715 19.9799 276.615 19.0199 275.115 19.0199C273.395 19.0199 272.135 20.3199 272.135 22.1999C272.135 24.0799 273.395 25.3799 275.115 25.3799C276.615 25.3799 277.715 24.4199 278.175 23.3599ZM235.354 62.9999V76.9999H237.254V75.4799C238.014 76.4199 239.154 77.2599 240.954 77.2599C243.834 77.2599 245.714 74.9599 245.714 72.1999C245.714 69.4399 243.834 67.1399 240.954 67.1399C239.274 67.1399 238.154 67.8999 237.494 68.6399V62.9999H235.354ZM243.534 72.1999C243.534 74.0799 242.294 75.3799 240.554 75.3799C239.074 75.3799 237.954 74.4199 237.494 73.3599V71.0199C237.954 69.9799 239.074 69.0199 240.554 69.0199C242.294 69.0199 243.534 70.3199 243.534 72.1999ZM247.595 72.1999C247.595 75.5199 250.115 77.2599 252.795 77.2599C255.495 77.2599 257.995 75.5199 257.995 72.1999C257.995 68.8799 255.495 67.1399 252.795 67.1399C250.115 67.1399 247.595 68.8799 247.595 72.1999ZM255.815 72.1999C255.815 74.0799 254.575 75.2999 252.795 75.2999C250.995 75.2999 249.755 74.0799 249.755 72.1999C249.755 70.3199 250.995 69.0999 252.795 69.0999C254.575 69.0999 255.815 70.3199 255.815 72.1999ZM268.09 62.9999V68.6399C267.43 67.8799 266.31 67.1399 264.63 67.1399C261.73 67.1399 259.87 69.4399 259.87 72.1999C259.87 74.9599 261.73 77.2599 264.63 77.2599C266.43 77.2599 267.57 76.4199 268.31 75.4799V76.9999H270.23V62.9999H268.09ZM268.07 71.0199V73.3599C267.61 74.4199 266.51 75.3799 265.01 75.3799C263.29 75.3799 262.03 74.0799 262.03 72.1999C262.03 70.3199 263.29 69.0199 265.01 69.0199C266.51 69.0199 267.61 69.9799 268.07 71.0199ZM274.391 67.3999H272.111L276.671 77.0799L276.471 77.5599C275.911 79.0599 275.131 79.7999 274.091 79.7999C273.771 79.7999 273.431 79.7599 273.111 79.6599V81.4799C273.531 81.5799 273.951 81.6399 274.371 81.6399C275.831 81.6399 277.191 80.7999 278.231 78.2999L282.731 67.3999H280.491L277.631 74.6399L274.391 67.3999ZM443.52 67.3999V68.8999C444.28 67.9799 445.42 67.1399 447.22 67.1399C450.1 67.1399 451.98 69.4399 451.98 72.1999C451.98 74.9599 450.1 77.2599 447.22 77.2599C445.54 77.2599 444.42 76.5199 443.76 75.7599V81.3999H441.62V67.3999H443.52ZM446.82 75.3799C448.56 75.3799 449.8 74.0799 449.8 72.1999C449.8 70.3199 448.56 69.0199 446.82 69.0199C445.34 69.0199 444.22 69.9799 443.76 71.0199V73.3599C444.22 74.4199 445.34 75.3799 446.82 75.3799ZM420.729 118.9V117.4H418.829V131.4H420.969V125.76C421.629 126.52 422.749 127.26 424.429 127.26C427.309 127.26 429.189 124.96 429.189 122.2C429.189 119.44 427.309 117.14 424.429 117.14C422.629 117.14 421.489 117.98 420.729 118.9ZM427.009 122.2C427.009 124.08 425.769 125.38 424.029 125.38C422.549 125.38 421.429 124.42 420.969 123.36V121.02C421.429 119.98 422.549 119.02 424.029 119.02C425.769 119.02 427.009 120.32 427.009 122.2ZM433.775 125.9C433.775 125.04 433.155 124.62 432.435 124.62C431.715 124.62 431.075 125.04 431.075 125.9C431.075 126.8 431.715 127.22 432.435 127.22C433.155 127.22 433.775 126.8 433.775 125.9ZM436.715 114.5V117.4H434.995V119.28H436.715V124.08C436.715 126.32 438.155 127.24 440.015 127.24C440.955 127.24 441.875 127.08 442.595 126.82V124.98C441.995 125.22 441.355 125.36 440.655 125.36C439.415 125.36 438.835 124.94 438.835 123.68V119.28H442.315V117.4H438.835V113.98L436.715 114.5ZM444.136 122.2C444.136 125.58 446.636 127.26 449.576 127.26C450.916 127.26 452.136 127.02 453.016 126.6V124.76C452.196 125.16 451.136 125.44 449.976 125.44C448.216 125.44 446.536 124.72 446.296 123H453.516C454.136 120.22 452.816 117.14 448.996 117.14C446.776 117.14 444.136 118.72 444.136 122.2ZM451.596 121.4H446.276C446.356 119.78 447.656 118.92 449.096 118.92C451.196 118.92 451.716 120.56 451.596 121.4ZM461.996 117.4L459.696 120.64L457.396 117.4H454.956L458.456 122.1L454.756 127H457.196L459.696 123.6L462.196 127H464.636L460.936 122.1L464.436 117.4H461.996ZM467.232 114.5V117.4H465.512V119.28H467.232V124.08C467.232 126.32 468.672 127.24 470.532 127.24C471.472 127.24 472.392 127.08 473.112 126.82V124.98C472.512 125.22 471.872 125.36 471.172 125.36C469.932 125.36 469.352 124.94 469.352 123.68V119.28H472.832V117.4H469.352V113.98L467.232 114.5ZM615.549 123.078C613.907 122.587 611.945 122.001 611.945 120C611.945 117.9 613.865 117.14 615.765 117.14C617.085 117.14 618.285 117.48 619.225 117.96V119.84C618.425 119.3 617.045 118.9 615.905 118.9C615.045 118.9 614.125 119.16 614.125 119.94C614.125 120.724 615.153 121.025 616.341 121.373C617.972 121.85 619.905 122.416 619.905 124.44C619.905 126.56 617.945 127.26 615.765 127.26C614.365 127.26 612.945 126.92 612.005 126.34V124.44C613.005 125.1 614.465 125.46 615.665 125.46C616.865 125.46 617.745 125.26 617.745 124.48C617.745 123.735 616.73 123.432 615.549 123.078ZM624.14 117.4V118.9C624.9 117.98 626.04 117.14 627.84 117.14C630.72 117.14 632.6 119.44 632.6 122.2C632.6 124.96 630.72 127.26 627.84 127.26C626.16 127.26 625.04 126.52 624.38 125.76V131.4H622.24V117.4H624.14ZM627.44 125.38C629.18 125.38 630.42 124.08 630.42 122.2C630.42 120.32 629.18 119.02 627.44 119.02C625.96 119.02 624.84 119.98 624.38 121.02V123.36C624.84 124.42 625.96 125.38 627.44 125.38ZM643.261 121.34V124.78C643.261 125.32 643.581 125.48 643.961 125.48C644.181 125.48 644.401 125.42 644.601 125.36V126.9C644.201 127.06 643.721 127.14 643.241 127.14C642.361 127.14 641.661 126.8 641.321 126.02C640.381 126.78 639.201 127.26 637.701 127.26C635.961 127.26 634.341 126.3 634.341 124.32C634.341 121.86 636.621 121.1 638.621 121.1C639.441 121.1 640.361 121.22 641.121 121.38V121.04C641.121 119.84 640.241 119 638.601 119C637.181 119 636.001 119.36 635.141 119.74V117.78C635.901 117.52 637.281 117.14 638.821 117.14C641.541 117.14 643.261 118.44 643.261 121.34ZM641.121 122.84C640.541 122.72 639.721 122.6 639.041 122.6C637.821 122.6 636.541 122.98 636.541 124.18C636.541 125.12 637.381 125.6 638.341 125.6C639.361 125.6 640.361 125.22 641.121 124.46V122.84ZM648.377 117.4V118.72C649.077 117.88 650.257 117.14 651.717 117.14C654.137 117.14 655.677 118.78 655.677 121.06V127H653.537V121.34C653.537 119.78 652.577 119.04 651.297 119.04C650.077 119.04 649.157 119.86 648.617 120.64V127H646.477V117.4H648.377Z" fill="white"/>
<path fill-rule="evenodd" clip-rule="evenodd" d="M162 40C162 30.0589 153.941 22 144 22H140V18H144H188V22H156.652C162.306 25.9815 166 32.5594 166 40V50C166 59.9411 174.059 68 184 68H188V72H184C171.85 72 162 62.1503 162 50V40ZM376 68H332H328V72H332C341.941 72 350 80.0589 350 90V100C350 112.15 359.85 122 372 122H376V118H372C362.059 118 354 109.941 354 100V90C354 82.5594 350.306 75.9815 344.652 72H376V68ZM565 118H516V122H565V118Z" fill="#4EB543"/>
</svg>
