<svg width="705" height="180" viewBox="0 0 705 180" fill="none" xmlns="http://www.w3.org/2000/svg"><g clip-path="url(#clip0)"><path fill="#E2E2E2" d="M0 0h705v180H0z"/><path d="M0 0h705v180H0V0z" fill="#333"/><path d="M125 0h120L75 180H0v-47.65L125 0zM0 0h100L0 105.88V0zM688 0h17v109.06L638 180H518L688 0z" fill="#057905"/><path fill-rule="evenodd" clip-rule="evenodd" d="M194 12a2 2 0 10-4 0 2 2 0 004 0zm0 12a2 2 0 10-4 0 2 2 0 004 0zm-2 10a2 2 0 110 4 2 2 0 010-4zm14-22a2 2 0 10-4 0 2 2 0 004 0zm-2 10a2 2 0 110 4 2 2 0 010-4zm2 14a2 2 0 10-4 0 2 2 0 004 0zm10-26a2 2 0 110 4 2 2 0 010-4zm2 14a2 2 0 10-4 0 2 2 0 004 0zm-2 10a2 2 0 110 4 2 2 0 010-4zm14-22a2 2 0 10-4 0 2 2 0 004 0zm-2 10a2 2 0 110 4 2 2 0 010-4zM522 22a2 2 0 110 4 2 2 0 010-4zm12 0a2 2 0 110 4 2 2 0 010-4zm2 14a2 2 0 10-4 0 2 2 0 004 0zm10-14a2 2 0 110 4 2 2 0 010-4zm2 14a2 2 0 10-4 0 2 2 0 004 0zm-2 10a2 2 0 110 4 2 2 0 010-4zM572 156a2 2 0 10-4 0 2 2 0 004 0zm0 12a2 2 0 10-4 0 2 2 0 004 0zm-14-2a2 2 0 110 4 2 2 0 010-4zm26-10a2 2 0 10-4 0 2 2 0 004 0zm-2 10a2 2 0 110 4 2 2 0 010-4zm14-10a2 2 0 10-4 0 2 2 0 004 0zm10-2a2 2 0 110 4 2 2 0 010-4zm2 14a2 2 0 10-4 0 2 2 0 004 0zm-14-2a2 2 0 110 4 2 2 0 010-4z" fill="#fff"/><path d="M250.92 69.68h-4.7v-4.75h-11.37v4.75h-4.69V61.1h1.37c.96-1.98 1.72-4.4 2.27-7.24.56-2.86.83-5.93.83-9.22H249V61.1h1.93v8.58zm-7.04-8.58V48.53h-4.46a43.4 43.4 0 01-1.02 6.93 28.01 28.01 0 01-1.93 5.64h7.4zM268.06 57.33c0 2.52-.69 4.52-2.08 5.97-1.37 1.45-3.32 2.18-5.85 2.18-2.5 0-4.45-.73-5.85-2.18-1.38-1.45-2.08-3.45-2.08-5.97 0-2.55.7-4.55 2.08-5.99 1.4-1.45 3.35-2.17 5.85-2.17 2.52 0 4.47.73 5.85 2.19 1.39 1.44 2.08 3.44 2.08 5.97zm-4.9.03a9.3 9.3 0 00-.24-2.27 4.12 4.12 0 00-.61-1.47c-.29-.38-.6-.64-.96-.79a3.02 3.02 0 00-1.22-.23c-.43 0-.81.07-1.16.2a2.2 2.2 0 00-.96.76c-.27.35-.49.84-.65 1.46-.17.62-.25 1.4-.25 2.34s.08 1.7.23 2.28c.16.57.36 1.04.6 1.38.26.36.58.62.96.78a3.2 3.2 0 002.44 0c.4-.16.72-.4.95-.74.29-.39.5-.86.65-1.4.14-.56.21-1.33.21-2.3zM278.14 65.41c-1.27 0-2.43-.16-3.49-.48a6.78 6.78 0 01-4.52-3.98 9.11 9.11 0 01-.65-3.57c0-1.46.24-2.71.7-3.74a7.03 7.03 0 014.58-3.95 11.27 11.27 0 018.34.76v4.1h-.61a9.12 9.12 0 00-1.62-1.2 5.75 5.75 0 00-2.64-.68c-1.22 0-2.17.43-2.84 1.28-.66.85-1 2-1 3.43 0 1.55.36 2.7 1.07 3.45a3.76 3.76 0 002.86 1.13 5.53 5.53 0 002.76-.7 5.56 5.56 0 001.4-1.14h.62v4.1l-.96.41a11.9 11.9 0 01-2.4.67c-.4.07-.94.11-1.6.11zM297.98 52.98h-4.76V65h-4.79V52.98h-4.75v-3.33h14.3v3.33zM308.4 61v-3.2l-1.96.21c-.5.06-1 .17-1.48.35-.42.14-.75.36-.98.67-.23.29-.34.68-.34 1.17 0 .72.19 1.22.57 1.5.4.26.97.39 1.72.39.42 0 .85-.1 1.29-.29.44-.2.83-.46 1.19-.8zm0 2.37l-.88.74a6.92 6.92 0 01-2.3 1.13c-.4.12-.96.17-1.7.17a4.57 4.57 0 01-3.38-1.37 4.72 4.72 0 01-1.34-3.44 5 5 0 01.68-2.76 4.7 4.7 0 011.97-1.67c.87-.42 1.9-.71 3.1-.88 1.2-.16 2.5-.29 3.89-.38v-.08c0-.85-.32-1.43-.95-1.75a6.2 6.2 0 00-2.8-.5c-.57 0-1.23.11-1.98.32-.76.2-1.5.46-2.22.78h-.4v-3.7a23.88 23.88 0 015.49-.77c2.64 0 4.56.44 5.77 1.33 1.21.87 1.82 2.21 1.82 4.01V65h-4.76v-1.63zM331.14 60.37a4.28 4.28 0 01-1.6 3.4c-.63.48-1.29.81-1.98.98-.68.17-1.5.25-2.44.25h-8.41V49.65h8c1.13 0 1.96.03 2.48.1.53.08 1.05.26 1.56.54.54.3.94.68 1.2 1.16.27.48.4 1.06.4 1.72 0 .77-.2 1.43-.61 2-.41.56-.93 1-1.55 1.3v.15a4 4 0 012.1 1.27c.57.63.85 1.45.85 2.48zm-5.56-6.09c0-.6-.17-1-.52-1.23a2.98 2.98 0 00-1.63-.34h-1.98v3.06h2.07c.66 0 1.17-.13 1.53-.4.35-.26.53-.62.53-1.09zm.68 5.93c0-.66-.18-1.13-.56-1.39a2.81 2.81 0 00-1.66-.41h-2.59v3.51h2.67c.67 0 1.2-.15 1.57-.45.38-.3.57-.73.57-1.26zM348.9 65h-5.5l-3.64-6.08h-1.23V65h-4.79V49.65h4.79v6.16c.67 0 1.17-.1 1.5-.28.34-.2.7-.7 1.1-1.5a52.74 52.74 0 00.8-1.77 4.36 4.36 0 011.78-2.08 5.5 5.5 0 012.58-.56 35.6 35.6 0 011.7.03v4.1h-.93c-.3 0-.56.06-.8.18a2.17 2.17 0 00-1 .97c-.07.18-.16.36-.24.53-.2.5-.36.84-.46 1.05-.1.21-.28.42-.54.62l4.88 7.9zM359.1 61v-3.2l-1.97.21c-.5.06-.99.17-1.47.35-.42.14-.75.36-.99.67-.22.29-.34.68-.34 1.17 0 .72.2 1.22.58 1.5.39.26.96.39 1.72.39.42 0 .85-.1 1.28-.29.44-.2.84-.46 1.2-.8zm0 2.37l-.89.74c-.25.22-.6.44-1.03.66-.43.2-.85.37-1.26.48-.4.1-.97.16-1.7.16a4.58 4.58 0 01-3.39-1.37 4.72 4.72 0 01-1.34-3.44 5 5 0 01.69-2.76 4.7 4.7 0 011.96-1.67c.87-.42 1.9-.71 3.1-.88 1.21-.16 2.5-.29 3.9-.38v-.08c0-.85-.32-1.43-.95-1.75a6.2 6.2 0 00-2.8-.5c-.57 0-1.23.11-1.99.32-.75.2-1.5.46-2.21.78h-.41v-3.7a23.88 23.88 0 015.5-.77c2.64 0 4.56.44 5.76 1.33 1.21.87 1.82 2.21 1.82 4.01V65h-4.76v-1.63zM246.27 101h-4.79V89.04h-4.86V101h-4.79V85.65h14.44V101zM264.99 93.11c0 2.45-.63 4.43-1.88 5.93a5.73 5.73 0 01-4.59 2.26 6.86 6.86 0 01-3.8-1.07v6.4h-4.79V85.65h4.79v1.6c.7-.6 1.42-1.1 2.15-1.47a5.47 5.47 0 012.52-.56c1.78 0 3.16.7 4.13 2.12.98 1.41 1.47 3.34 1.47 5.77zm-4.9.1c0-1.5-.23-2.58-.7-3.26-.45-.67-1.17-1-2.14-1-.43 0-.86.06-1.29.2a5.1 5.1 0 00-1.24.61v7.73c.25.1.53.18.83.23.31.04.68.07 1.1.07 1.16 0 2.03-.38 2.6-1.14.56-.76.84-1.91.84-3.44zM276.03 97v-3.2l-1.97.21c-.5.06-.99.17-1.47.35-.42.14-.75.36-.99.67-.22.29-.34.68-.34 1.17 0 .72.2 1.22.58 1.5.39.26.96.39 1.72.39.42 0 .85-.1 1.28-.29.44-.2.84-.46 1.2-.8zm0 2.37l-.88.74a6.93 6.93 0 01-2.3 1.13c-.4.12-.97.17-1.7.17a4.58 4.58 0 01-3.39-1.37 4.72 4.72 0 01-1.34-3.44 5 5 0 01.69-2.76 4.7 4.7 0 011.96-1.67c.87-.42 1.9-.71 3.1-.88 1.21-.16 2.5-.29 3.9-.38v-.08c0-.85-.32-1.43-.95-1.75a6.2 6.2 0 00-2.8-.5c-.57 0-1.23.11-1.99.32-.75.2-1.5.46-2.21.78h-.41v-3.7a23.88 23.88 0 015.5-.77c2.64 0 4.56.44 5.76 1.33 1.21.87 1.82 2.21 1.82 4.01V101h-4.76v-1.63zM298.77 96.37a4.28 4.28 0 01-1.61 3.4c-.62.48-1.28.81-1.97.98-.69.17-1.5.25-2.45.25h-8.4V85.65h8c1.13 0 1.95.03 2.48.1.53.08 1.05.26 1.56.54.54.3.94.68 1.2 1.16.26.48.4 1.06.4 1.72 0 .77-.2 1.43-.62 2-.4.56-.92 1-1.54 1.3v.15a4 4 0 012.1 1.27c.57.63.85 1.45.85 2.48zm-5.56-6.09c0-.6-.18-1-.52-1.23a2.98 2.98 0 00-1.63-.34h-1.98v3.06h2.06c.67 0 1.18-.13 1.53-.4.36-.26.53-.62.53-1.09zm.68 5.93c0-.66-.19-1.13-.56-1.39a2.81 2.81 0 00-1.67-.41h-2.58v3.51h2.66c.68 0 1.2-.15 1.57-.45.39-.3.58-.73.58-1.26zM315.95 101h-4.7v-9.32l-5.88 9.32h-4V85.65h4.7v8.34l5.39-8.34h4.5V101zM334.27 101h-4.78V89.02h-3.76a426.7 426.7 0 01-.1 2.94 25.02 25.02 0 01-.38 3.6 9.75 9.75 0 01-.7 2.27 5.97 5.97 0 01-1.77 2.32c-.32.28-.77.5-1.36.69-.58.17-1.11.26-1.6.26-.4 0-.82-.02-1.23-.06l-.72-.04v-3.88h.14l.17.01.26.01c.22 0 .45-.02.69-.06.23-.06.43-.16.58-.32a4.57 4.57 0 001.2-2.55c.19-1.07.31-2.27.38-3.59a228.95 228.95 0 00.19-4.97h12.8V101zM351.77 95.85c0 .78-.15 1.5-.46 2.17-.3.66-.71 1.2-1.22 1.61-.62.5-1.26.86-1.92 1.07-.66.2-1.55.3-2.67.3h-7.55V85.65h4.78v5.18h2.78c1.1 0 2 .08 2.67.23.68.16 1.33.46 1.94.92.54.4.95.94 1.23 1.62.28.69.42 1.43.42 2.25zm-5.26 1.32c.16-.2.26-.4.32-.61.05-.22.08-.45.08-.67 0-.66-.2-1.15-.59-1.47-.4-.32-.96-.47-1.7-.47h-1.9v3.95h1.9a3 3 0 001.2-.2c.32-.15.55-.33.7-.53zM368.58 101h-4.79v-6.58h-4.95V101h-4.78V85.65h4.78v5.31h4.95v-5.31h4.79V101zM386.98 93.33c0 2.52-.7 4.52-2.08 5.97-1.37 1.45-3.32 2.18-5.85 2.18-2.5 0-4.46-.73-5.85-2.18-1.39-1.45-2.08-3.45-2.08-5.97 0-2.55.7-4.55 2.08-5.99 1.4-1.45 3.34-2.17 5.85-2.17 2.52 0 4.47.73 5.85 2.19 1.39 1.44 2.08 3.44 2.08 5.97zm-4.9.03a9.3 9.3 0 00-.24-2.27 4.12 4.12 0 00-.61-1.47c-.29-.38-.6-.64-.96-.79a3.02 3.02 0 00-1.22-.23c-.43 0-.81.07-1.16.2a2.2 2.2 0 00-.96.76c-.27.35-.5.84-.66 1.46-.16.62-.24 1.4-.24 2.34s.08 1.7.23 2.28c.16.57.36 1.04.6 1.38.26.36.58.62.96.78a3.2 3.2 0 002.43 0c.4-.16.72-.4.96-.74.28-.39.5-.86.64-1.4.15-.56.22-1.33.22-2.3zM401.51 89.01h-7.2V101h-4.79V85.65h12V89zM418.23 93.33c0 2.52-.69 4.52-2.07 5.97-1.38 1.45-3.33 2.18-5.86 2.18-2.5 0-4.45-.73-5.85-2.18-1.38-1.45-2.07-3.45-2.07-5.97 0-2.55.69-4.55 2.07-5.99 1.4-1.45 3.35-2.17 5.86-2.17 2.51 0 4.46.73 5.85 2.19 1.38 1.44 2.07 3.44 2.07 5.97zm-4.9.03a9.3 9.3 0 00-.24-2.27 4.12 4.12 0 00-.61-1.47c-.28-.38-.6-.64-.96-.79a3.02 3.02 0 00-1.21-.23c-.43 0-.82.07-1.17.2a2.2 2.2 0 00-.95.76c-.28.35-.5.84-.66 1.46-.16.62-.25 1.4-.25 2.34s.08 1.7.24 2.28c.15.57.35 1.04.6 1.38.25.36.57.62.95.78a3.2 3.2 0 002.44 0c.4-.16.72-.4.95-.74.29-.39.5-.86.65-1.4.14-.56.22-1.33.22-2.3zM246.27 137h-4.79v-11.96h-4.86V137h-4.79v-15.35h14.44V137zM264.52 137h-4.7v-9.32l-5.88 9.32h-4v-15.35h4.7v8.34l5.38-8.34h4.5V137zM280.8 124.98h-4.75V137h-4.79v-12.02h-4.76v-3.33h14.3v3.33zM291.24 133v-3.2l-1.97.21c-.5.06-1 .17-1.48.34a2.1 2.1 0 00-.98.68c-.23.29-.35.68-.35 1.17 0 .72.2 1.22.58 1.5.4.26.96.39 1.72.39.42 0 .85-.1 1.29-.29a4 4 0 001.19-.8zm0 2.37l-.9.74c-.25.22-.6.44-1.03.66-.43.2-.85.37-1.26.48-.4.1-.97.16-1.7.16a4.58 4.58 0 01-3.39-1.37 4.72 4.72 0 01-1.33-3.44 5 5 0 01.68-2.76 4.69 4.69 0 011.97-1.67c.86-.42 1.9-.71 3.1-.88 1.2-.16 2.5-.29 3.88-.38v-.08c0-.85-.31-1.43-.94-1.75a6.2 6.2 0 00-2.8-.5c-.57 0-1.23.11-1.98.32-.76.2-1.5.46-2.22.78h-.41v-3.7a23.66 23.66 0 015.5-.77c2.64 0 4.56.44 5.77 1.33 1.2.87 1.81 2.21 1.81 4.02V137h-4.75v-1.63zM314.06 137h-4.79v-6.58h-4.95V137h-4.78v-15.35h4.78v5.31h4.95v-5.31h4.79V137zM332.3 137h-4.7v-9.32l-5.88 9.32h-4v-15.35h4.7v8.34l5.39-8.34h4.5V137zM349.37 137h-4.77v-5.33h-1.45l-3.68 5.33h-5.36l4.4-6.02c-1.09-.5-1.89-1.1-2.39-1.81a4.94 4.94 0 01-.75-2.87c0-.85.16-1.56.5-2.14.33-.58.78-1.07 1.34-1.47.5-.35 1.1-.61 1.77-.78a9.3 9.3 0 012.28-.26h8.1V137zm-4.77-8.34v-3.83h-2.2c-.68 0-1.2.16-1.59.47-.37.3-.56.74-.56 1.32 0 .72.19 1.24.56 1.56.37.32.93.48 1.67.48h2.12zM180 90a80 80 0 11-160 0 80 80 0 01160 0z" fill="#fff"/><path fill-rule="evenodd" clip-rule="evenodd" d="M138.7 31.67a65 65 0 100 116.67 70 70 0 110-116.67z" fill="#0C9E0C"/><path fill-rule="evenodd" clip-rule="evenodd" d="M137.9 143.14a60 60 0 10-53.82.99l1.36-36.54C76.59 105.93 70 99.2 70 86.4 70 71.49 78.95 54 90 54s20 17.49 20 32.4c0 12.8-6.6 19.54-15.45 21.2l1.4 40.74a60.12 60.12 0 0030.12-.52l1.38-40.33C119.7 105.68 114 98.95 114 86.4c0-6.38 1.72-20.67 2.42-26.18a1.94 1.94 0 012.45-1.62c.84.24 1.42 1 1.35 1.88-.04.62-.15 1.61-.29 2.85-.74 6.72-2.28 20.67 1.27 20.67 3.75 0 4.03-12.12 4.2-20 .04-1.64.08-3.1.14-4.22A1.9 1.9 0 01127.5 58c1.04 0 1.9.74 1.93 1.79.02 1.4-.03 3.34-.1 5.5-.22 7.85-.52 18.71 2.67 18.71 3.2 0 2.88-10.86 2.66-18.71-.06-2.16-.11-4.1-.09-5.5.03-1.05.89-1.79 1.93-1.79s1.9.74 1.96 1.78c.06 1.13.1 2.58.13 4.21.18 7.89.46 20.01 4.21 20.01 3.1 0 1.93-12.85 1.25-20.32l-.27-3.14c-.07-.91.53-1.7 1.41-1.95 1.14-.32 2.3.4 2.5 1.56A164.5 164.5 0 01150 86.4c0 12.55-5.7 19.28-13.44 21.1l1.33 35.64z" fill="#86C500"/><path opacity=".3" fill-rule="evenodd" clip-rule="evenodd" d="M694 10H20v160h674V10zm11 160V0H0v180h705v-10z" fill="#FF6B00"/><path fill-rule="evenodd" clip-rule="evenodd" d="M21 0v180h-1V0h1zm673 180V0h1v180h-1z" fill="#FF6B00"/><path fill-rule="evenodd" clip-rule="evenodd" d="M705 11H0v-1h705v1zM0 169h705v1H0v-1z" fill="#FF6B00"/><path fill-rule="evenodd" clip-rule="evenodd" d="M5 107.39l-5-2.89 5-2.89V104h10v-2.39l5 2.89-5 2.89V105H5v2.39z" fill="#fff"/><path d="M6.51 98.2h1.32a4.45 4.45 0 01-.91-2.58C6.92 94.6 7.29 94 8 94c.92 0 1.34.82 1.9 1.77.73 1.24 1.48 2.71 3.48 2.71H14v-5.91h-1.24l.02 4.38c-.82-.01-1.32-1.01-1.95-2.07-.66-1.1-1.47-2.25-2.85-2.25-1.53 0-2.3 1.21-2.3 2.87 0 .94.26 1.87.83 2.7zM9.92 91.4c2.39 0 4.24-1.12 4.24-3.66 0-2.53-1.85-3.66-4.24-3.66s-4.24 1.13-4.24 3.66c0 2.54 1.85 3.66 4.24 3.66zm0-5.94c1.9 0 2.99.72 2.99 2.28 0 1.58-1.1 2.28-2.99 2.28-1.9 0-2.99-.7-2.99-2.28 0-1.56 1.1-2.28 2.99-2.28zM9.14 81.56h-.9v1.14h8.4v-1.28h-3.38c.45-.4.9-1.07.9-2.08 0-1.72-1.38-2.85-3.04-2.85-1.66 0-3.04 1.13-3.04 2.85 0 1.08.5 1.77 1.06 2.22zm1.98-3.76c1.13 0 1.9.74 1.9 1.78 0 .9-.57 1.56-1.2 1.84h-1.4a2.03 2.03 0 01-1.2-1.84c0-1.04.77-1.78 1.9-1.78zM8.24 71.88l1.94 1.38-1.94 1.38v1.47l2.82-2.1L14 76.23v-1.47l-2.04-1.5 2.04-1.5V70.3l-2.94 2.22-2.82-2.1v1.46z" fill="#fff"/><path fill-rule="evenodd" clip-rule="evenodd" d="M384.39 5l-2.89 5-2.89-5H381V0h1v5h2.39zM384.39 175l-2.89-5-2.89 5H381v5h1v-5h2.39zM700 100.61l-5 2.89 5 2.89V104h5v-1h-5v-2.39z" fill="#fff"/><path d="M390.1 1.84l-1.98.76v1.26l1.64-.62v5.52h-1.64V10h4.44V8.76h-1.45V1.84h-1zM393.4 5.92c0 2.39 1.14 4.24 3.67 4.24 2.53 0 3.66-1.85 3.66-4.24s-1.13-4.24-3.66-4.24c-2.53 0-3.66 1.85-3.66 4.24zm5.95 0c0 1.9-.72 2.99-2.28 2.99-1.57 0-2.28-1.1-2.28-2.99 0-1.9.7-2.99 2.28-2.99 1.56 0 2.28 1.1 2.28 2.99zM403.25 5.14v-.9h-1.14v8.4h1.28V9.26c.4.45 1.07.9 2.08.9 1.73 0 2.85-1.38 2.85-3.04 0-1.66-1.12-3.04-2.85-3.04-1.08 0-1.77.5-2.22 1.06zm3.77 1.98c0 1.13-.75 1.9-1.8 1.9-.88 0-1.55-.57-1.83-1.2v-1.4c.28-.63.95-1.2 1.84-1.2 1.04 0 1.79.77 1.79 1.9zM412.93 4.24l-1.38 1.94-1.38-1.94h-1.47l2.1 2.82-2.22 2.94h1.47l1.5-2.04 1.5 2.04h1.46l-2.22-2.94 2.1-2.82h-1.46zM390.1 169.84l-1.98.76v1.26l1.64-.62v5.52h-1.64V178h4.44v-1.24h-1.45v-6.92h-1zM393.4 173.92c0 2.39 1.14 4.24 3.67 4.24 2.53 0 3.66-1.85 3.66-4.24s-1.13-4.24-3.66-4.24c-2.53 0-3.66 1.85-3.66 4.24zm5.95 0c0 1.9-.72 2.99-2.28 2.99-1.57 0-2.28-1.1-2.28-2.99 0-1.9.7-2.99 2.28-2.99 1.56 0 2.28 1.1 2.28 2.99zM403.25 173.14v-.9h-1.14v8.4h1.28v-3.38c.4.45 1.07.9 2.08.9 1.73 0 2.85-1.38 2.85-3.04 0-1.66-1.12-3.04-2.85-3.04-1.08 0-1.77.5-2.22 1.06zm3.77 1.98c0 1.13-.75 1.9-1.8 1.9-.88 0-1.55-.57-1.83-1.2v-1.4c.28-.63.95-1.2 1.84-1.2 1.04 0 1.79.77 1.79 1.9zM412.93 172.24l-1.38 1.94-1.38-1.94h-1.47l2.1 2.82-2.22 2.94h1.47l1.5-2.04 1.5 2.04h1.46l-2.22-2.94 2.1-2.82h-1.46zM695.16 94.4l.75 1.99h1.26l-.61-1.63h5.52v1.63h1.24v-4.44h-1.24v1.45h-6.92v1zM699.24 91.1c2.38 0 4.23-1.12 4.23-3.66 0-2.53-1.85-3.66-4.23-3.66-2.4 0-4.24 1.13-4.24 3.66 0 2.54 1.85 3.66 4.24 3.66zm0-5.94c1.9 0 2.98.72 2.98 2.28 0 1.58-1.09 2.28-2.98 2.28-1.9 0-3-.7-3-2.28 0-1.56 1.1-2.28 3-2.28zM698.46 81.26h-.9v1.14h8.4v-1.28h-3.39c.46-.4.9-1.07.9-2.08 0-1.72-1.38-2.85-3.03-2.85-1.66 0-3.04 1.13-3.04 2.85 0 1.08.5 1.77 1.06 2.22zm1.98-3.76c1.12 0 1.9.74 1.9 1.78 0 .9-.57 1.56-1.2 1.84h-1.41a2.03 2.03 0 01-1.2-1.84c0-1.04.78-1.78 1.9-1.78zM697.56 71.58l1.94 1.38-1.94 1.38v1.47l2.82-2.1 2.94 2.22v-1.47l-2.04-1.5 2.04-1.5V70l-2.94 2.22-2.82-2.1v1.46z" fill="#fff"/></g><defs><clipPath id="clip0"><path fill="#fff" d="M0 0h705v180H0z"/></clipPath></defs></svg>