<svg width="705" height="60" viewBox="0 0 705 60" fill="none" xmlns="http://www.w3.org/2000/svg"><g clip-path="url(#clip0)"><path fill="#fff" d="M0 0h705v60H0z"/><path d="M0 0h705v60H0V0z" fill="#333"/><path opacity=".2" d="M0 0h705v60H0V0z" fill="#FF6B00"/><path d="M20 20h665v20H20V20z" fill="#333"/><path d="M32.41 31.52a5.7 5.7 0 01-1.73 4.19 5.7 5.7 0 01-4.18 1.73 5.71 5.71 0 01-4.18-1.73 5.71 5.71 0 01-1.73-4.19 5.7 5.7 0 011.73-4.17 5.71 5.71 0 014.18-1.73 5.7 5.7 0 014.18 1.73 5.68 5.68 0 011.73 4.17zm-.78 0c0-1.42-.5-2.64-1.5-3.64s-2.2-1.51-3.62-1.51c-1.41 0-2.62.5-3.63 1.5-1 1.01-1.5 2.23-1.5 3.65a5 5 0 001.5 3.65c1 1.01 2.22 1.51 3.63 1.51a4.9 4.9 0 003.61-1.5c1-1.01 1.5-2.23 1.5-3.66zm-2.92 2.74c-.3.13-.61.25-.92.36-.3.1-.66.15-1.08.15-.95 0-1.7-.28-2.25-.84-.55-.57-.83-1.38-.83-2.44 0-1.05.28-1.86.85-2.44a2.99 2.99 0 012.23-.86c.38 0 .74.05 1.09.15.35.1.65.21.9.35v1.23h-.1a3.21 3.21 0 00-1.86-.73c-.56 0-1 .19-1.35.56-.33.38-.5.95-.5 1.74 0 .74.16 1.3.48 1.7.32.38.78.57 1.37.57.38 0 .75-.08 1.09-.24.34-.17.6-.33.77-.49h.1v1.23zM44.4 36h-6.28v-1.43l1.28-1.23c.4-.4.8-.8 1.18-1.22.77-.85 1.3-1.54 1.58-2.05.28-.51.43-1.04.43-1.59 0-.28-.05-.53-.14-.74-.09-.22-.2-.4-.36-.54a1.6 1.6 0 00-.56-.3c-.2-.07-.44-.1-.69-.1-.24 0-.48.02-.74.09a5.15 5.15 0 00-1.26.5l-.43.28h-.08v-1.45c.29-.14.68-.27 1.18-.4.5-.14.98-.21 1.44-.21.94 0 1.69.25 2.22.76.54.5.81 1.18.81 2.04a4.02 4.02 0 01-.53 2.04c-.16.3-.37.59-.6.88-.24.3-.5.58-.76.86-.42.47-.9.95-1.43 1.45l-1.26 1.2h5V36zM52.1 30.9c0 1.83-.27 3.18-.8 4.03-.53.86-1.35 1.28-2.46 1.28-1.12 0-1.94-.43-2.47-1.3-.52-.87-.78-2.2-.78-3.99 0-1.84.26-3.18.79-4.03.53-.85 1.35-1.27 2.46-1.27 1.12 0 1.94.44 2.47 1.32.52.88.78 2.2.78 3.97zm-1.76 3.11a5 5 0 00.28-1.28 17.48 17.48 0 000-3.64 4.9 4.9 0 00-.28-1.29c-.14-.34-.33-.6-.57-.78a1.48 1.48 0 00-.93-.28c-.38 0-.69.1-.94.28-.24.18-.43.44-.57.8-.14.34-.23.78-.28 1.31a21.5 21.5 0 00-.01 3.58c.04.47.14.9.28 1.28.14.35.32.62.56.81.25.2.57.28.96.28.38 0 .69-.08.93-.26.25-.18.44-.45.57-.8zM59.69 36h-6.28v-1.43l1.28-1.23c.4-.4.79-.8 1.17-1.22.78-.85 1.3-1.54 1.59-2.05.28-.51.42-1.04.42-1.59 0-.28-.04-.53-.14-.74-.08-.22-.2-.4-.36-.54a1.6 1.6 0 00-.55-.3c-.21-.07-.44-.1-.7-.1-.23 0-.48.02-.73.09a5.16 5.16 0 00-1.27.5l-.43.28h-.07v-1.45c.28-.14.67-.27 1.17-.4.51-.14.99-.21 1.44-.21.95 0 1.7.25 2.23.76.54.5.8 1.18.8 2.04a4.02 4.02 0 01-.52 2.04c-.17.3-.37.59-.6.88a30.45 30.45 0 01-2.19 2.31l-1.26 1.2h5V36zM67.38 30.9c0 1.83-.27 3.18-.8 4.03-.53.86-1.35 1.28-2.45 1.28-1.13 0-1.95-.43-2.47-1.3-.53-.87-.79-2.2-.79-3.99 0-1.84.27-3.18.8-4.03.53-.85 1.35-1.27 2.46-1.27 1.12 0 1.94.44 2.46 1.32.53.88.79 2.2.79 3.97zm-1.75 3.11a5 5 0 00.28-1.28 17.6 17.6 0 000-3.64 4.89 4.89 0 00-.29-1.29c-.13-.34-.32-.6-.56-.78a1.48 1.48 0 00-.93-.28c-.38 0-.7.1-.94.28-.24.18-.43.44-.57.8-.14.34-.23.78-.28 1.31a21.5 21.5 0 00-.01 3.58c.04.47.13.9.28 1.28.13.35.32.62.56.81.24.2.56.28.96.28.37 0 .68-.08.93-.26.24-.18.43-.45.57-.8zM79.24 33.69a2.05 2.05 0 01-.8 1.7c-.3.24-.63.4-.97.49-.34.08-.74.12-1.22.12h-3v-7.64h2.8c.57 0 .98.02 1.24.06.25.03.51.12.77.26.27.14.46.34.6.58.12.24.18.53.18.86 0 .37-.1.7-.3.99-.2.28-.46.5-.8.67l.04.04a2 2 0 011.04.64c.28.32.42.73.42 1.23zm-1.72-3.37c0-.17-.03-.32-.08-.45a.6.6 0 00-.3-.3 1.37 1.37 0 00-.55-.15c-.2-.02-.48-.03-.84-.03h-1.23v2.1H76c.31 0 .54-.02.67-.05.13-.03.28-.1.44-.2.15-.08.25-.2.32-.36.06-.16.1-.34.1-.56zm.4 3.38c0-.26-.04-.47-.12-.63-.08-.16-.24-.3-.5-.42a1.5 1.5 0 00-.5-.14 8.1 8.1 0 00-.77-.03h-1.5v2.5h1.1c.47 0 .83-.02 1.08-.06.26-.04.47-.11.66-.22.19-.12.33-.25.41-.4.1-.16.13-.36.13-.6zM83.63 36.17c-.53 0-1-.08-1.44-.24a3 3 0 01-1.13-.74 3.35 3.35 0 01-.73-1.23 5.4 5.4 0 01-.26-1.77c0-.67.09-1.25.26-1.73.19-.5.43-.9.73-1.23.3-.34.67-.6 1.12-.77a4.11 4.11 0 012.66-.1c.4.12.74.26 1.04.41v1.45h-.07a4.5 4.5 0 00-1.5-.82c-.25-.06-.48-.1-.7-.1-.67 0-1.2.25-1.6.76-.4.5-.61 1.21-.61 2.13 0 .9.2 1.6.58 2.11.4.5.94.76 1.63.76.42 0 .82-.09 1.2-.26.37-.18.7-.4 1-.67h.07v1.44l-.47.22a6.02 6.02 0 01-1.1.33c-.18.03-.4.05-.68.05zM90.38 36.18a3.8 3.8 0 01-2.84-1.03c-.67-.69-1-1.66-1-2.92 0-1.25.32-2.24.97-2.97.65-.74 1.5-1.1 2.56-1.1.47 0 .9.06 1.26.2.36.13.68.35.95.64.28.3.49.65.63 1.07.15.42.22.94.22 1.55v.7h-5.29c0 .88.22 1.56.67 2.03.45.47 1.06.7 1.85.7a3.57 3.57 0 001.57-.34 5.75 5.75 0 00.98-.58H93v1.4l-.56.23a6.77 6.77 0 01-1.29.36c-.2.04-.45.06-.76.06zm1.5-4.85c0-.35-.05-.64-.12-.9a1.85 1.85 0 00-.32-.63c-.15-.2-.34-.34-.58-.44a2.2 2.2 0 00-.87-.15 2.04 2.04 0 00-1.96 1.27c-.1.24-.16.53-.19.85h4.04zM104.83 36h-1.28v-6.53h-3.46V36H98.8v-7.64h6.03V36zM113.1 31.98a4.7 4.7 0 01-.92 3.04 2.84 2.84 0 01-2.3 1.13 3.54 3.54 0 01-1.9-.53v3.2h-1.29V28.36h1.29v.8c.32-.28.67-.52 1.06-.71.39-.2.82-.3 1.28-.3.87 0 1.55.35 2.04 1.04.5.7.74 1.62.74 2.79zm-1.33.14c0-.87-.14-1.54-.41-2.02-.28-.48-.73-.72-1.36-.72-.36 0-.72.08-1.06.24a4.5 4.5 0 00-.96.62v4.33c.34.17.62.28.86.34s.52.09.83.09c.66 0 1.18-.25 1.55-.74.37-.48.55-1.2.55-2.14zM118.7 34.12V32l-1.17.12c-.46.04-.84.1-1.12.2-.34.1-.63.26-.85.48-.22.22-.34.52-.34.9 0 .44.13.77.37 1 .25.22.61.33 1.08.33.4 0 .78-.09 1.1-.26.33-.18.64-.4.93-.65zm0 1.07l-.43.32a3.77 3.77 0 01-1.17.6c-.2.07-.5.1-.88.1a2.3 2.3 0 01-2.14-1.45 2.63 2.63 0 01-.18-.97c0-.53.11-.98.33-1.35.23-.38.58-.67 1.06-.89.43-.2.94-.33 1.52-.4a24.3 24.3 0 011.89-.17v-.25c0-.3-.05-.54-.14-.73-.1-.18-.22-.33-.38-.43-.17-.1-.37-.17-.6-.2a4.81 4.81 0 00-1.78.08c-.4.09-.8.22-1.2.38h-.08v-1.3c.24-.07.58-.15 1.02-.23a7.19 7.19 0 012.64 0c.36.08.68.23.97.45.28.2.48.48.62.81.14.33.2.74.2 1.22V36h-1.27v-.81zM127.78 33.69c0 .37-.08.7-.22.98-.14.29-.33.52-.58.71-.3.25-.63.41-.98.5-.33.08-.74.12-1.21.12h-3v-7.64h2.8c.56 0 .97.02 1.23.06.26.03.52.12.77.26.27.14.47.34.6.58.13.24.19.53.19.86 0 .37-.1.7-.3.99-.2.28-.47.5-.8.67l.03.04a2 2 0 011.04.64c.28.32.43.73.43 1.23zm-1.72-3.37c0-.17-.03-.32-.09-.45a.6.6 0 00-.3-.3 1.37 1.37 0 00-.55-.15c-.2-.02-.48-.03-.84-.03h-1.22v2.1h1.47c.32 0 .54-.02.67-.05.14-.03.28-.1.44-.2.15-.08.26-.2.32-.36.07-.16.1-.34.1-.56zm.39 3.38c0-.26-.04-.47-.12-.63-.07-.16-.23-.3-.49-.42a1.51 1.51 0 00-.51-.14 8.1 8.1 0 00-.76-.03h-1.51v2.5h1.11c.46 0 .82-.02 1.08-.06.25-.04.47-.11.65-.22.2-.12.33-.25.42-.4.09-.16.13-.36.13-.6zM133.4 34.12V32l-1.17.12c-.46.04-.84.1-1.13.2-.34.1-.62.26-.84.48a1.2 1.2 0 00-.34.9c0 .44.13.77.37 1 .25.22.6.33 1.08.33.4 0 .77-.09 1.1-.26.33-.18.64-.4.93-.65zm0 1.07l-.43.32a3.8 3.8 0 01-1.17.6c-.2.07-.5.1-.89.1a2.29 2.29 0 01-2.13-1.45 2.62 2.62 0 01-.18-.97c0-.53.1-.98.33-1.35.22-.38.58-.67 1.06-.89.43-.2.93-.33 1.52-.4.58-.08 1.21-.14 1.89-.17v-.25c0-.3-.05-.54-.14-.73a1 1 0 00-.38-.43c-.17-.1-.37-.17-.6-.2a4.8 4.8 0 00-1.78.08c-.4.09-.8.22-1.2.38h-.08v-1.3c.24-.07.57-.15 1.02-.23a7.19 7.19 0 012.63 0c.37.08.69.23.98.45.27.2.48.48.62.81.13.33.2.74.2 1.22V36h-1.27v-.81zM145.92 33.89a2 2 0 01-1 1.79c-.28.17-.6.3-.95.37-.36.09-.71.13-1.07.13a6.48 6.48 0 01-2.75-.62v-1.42h.08c.31.29.7.52 1.16.68a4.22 4.22 0 002.05.19c.23-.05.43-.12.58-.2.21-.13.36-.27.45-.42.09-.14.13-.34.13-.6 0-.27-.05-.49-.15-.65a.92.92 0 00-.42-.38 1.76 1.76 0 00-.6-.15 6.74 6.74 0 00-.7-.03h-.9v-1.11h.7c.16 0 .38 0 .64-.02.26-.01.47-.05.62-.1.2-.08.36-.18.47-.31.12-.14.18-.37.18-.69a.9.9 0 00-.53-.86 1.58 1.58 0 00-.5-.16 4.24 4.24 0 00-1.78.14c-.4.11-.74.3-1.02.53h-.09V28.6c.33-.11.7-.21 1.1-.3a5.68 5.68 0 012.18-.03c.34.07.66.18.96.34.28.15.52.37.7.64.2.27.3.6.3 1s-.13.77-.36 1.08c-.23.31-.54.52-.93.62v.05c.42.14.77.37 1.04.67.27.3.4.7.4 1.2zM151.54 34.12V32l-1.16.12c-.47.04-.85.1-1.13.2-.34.1-.63.26-.85.48a1.2 1.2 0 00-.34.9c0 .44.13.77.37 1 .25.22.61.33 1.08.33.4 0 .78-.09 1.1-.26.33-.18.64-.4.93-.65zm0 1.07l-.43.32a3.73 3.73 0 01-1.17.6c-.2.07-.5.1-.88.1a2.3 2.3 0 01-2.14-1.45 2.63 2.63 0 01-.18-.97c0-.53.11-.98.33-1.35.23-.38.58-.67 1.06-.89.43-.2.94-.33 1.52-.4.58-.08 1.21-.14 1.89-.17v-.25c0-.3-.05-.54-.14-.73a1 1 0 00-.38-.43c-.17-.1-.37-.17-.6-.2a4.81 4.81 0 00-1.78.08c-.4.09-.8.22-1.2.38h-.08v-1.3c.24-.07.58-.15 1.02-.23a7.18 7.18 0 012.64 0c.36.08.68.23.97.45.28.2.48.48.62.81.14.33.2.74.2 1.22V36h-1.27v-.81zM164.42 37.83h-1.2V36h-8.6v-7.64h1.3v6.55h2.58v-6.55h1.29v6.55h2.59v-6.55h1.28v6.55h.76v2.92zM171.72 36h-1.28v-5.7l-3.59 5.7h-1.16v-7.64h1.27v5.61l3.55-5.6h1.2V36zM183.37 37.83h-1.2V36h-8.6v-7.64h1.3v6.55h2.58v-6.55h1.29v6.55h2.59v-6.55h1.28v6.55h.76v2.92zM187.95 36.18a3.8 3.8 0 01-2.83-1.03c-.68-.69-1.01-1.66-1.01-2.92 0-1.25.33-2.24.98-2.97.65-.74 1.5-1.1 2.56-1.1.47 0 .89.06 1.25.2.37.13.69.35.96.64.27.3.48.65.63 1.07.14.42.22.94.22 1.55v.7h-5.3c0 .88.23 1.56.68 2.03.44.47 1.06.7 1.85.7a3.58 3.58 0 001.56-.34 5.86 5.86 0 00.99-.58h.07v1.4l-.56.23a6.7 6.7 0 01-1.28.36c-.2.04-.46.06-.77.06zm1.5-4.85c0-.35-.04-.64-.12-.9a1.86 1.86 0 00-.31-.63c-.15-.2-.35-.34-.58-.44a2.2 2.2 0 00-.87-.15 2.04 2.04 0 00-1.96 1.27c-.1.24-.17.53-.2.85h4.05zM198.03 36h-1.28v-3.44h-3.46V36h-1.28v-7.64h1.28v3.1h3.46v-3.1h1.28V36zM205.56 33.63c0 .37-.07.7-.22 1.01-.15.3-.35.54-.6.73-.3.23-.63.4-.97.49-.34.1-.78.14-1.32.14h-2.55v-7.64h1.28v2.98h1.3c.58 0 1.02.03 1.34.09.32.06.63.2.95.43.26.2.46.45.6.76.13.3.2.64.2 1.01zm-1.32.03c0-.24-.05-.44-.13-.61a.93.93 0 00-.39-.43c-.19-.12-.4-.19-.65-.2-.25-.03-.6-.04-1.05-.04h-.84v2.6h.81c.46 0 .81-.02 1.06-.06.25-.04.47-.12.65-.23.19-.11.32-.25.4-.41.1-.17.14-.37.14-.62zm3.5 2.34h-1.29v-7.64h1.29V36z" fill="#B0B0B0"/><path fill-rule="evenodd" clip-rule="evenodd" d="M20.5 0v60h-1V0h1zm664 60V0h1v60h-1z" fill="#FF6B00"/><path opacity=".5" fill-rule="evenodd" clip-rule="evenodd" d="M705 20.5H0v-1h705v1zM0 39.5h705v1H0v-1z" fill="#FF6B00"/><path fill-rule="evenodd" clip-rule="evenodd" d="M685 20.5H20v-1h665v1zm-665 19h665v1H20v-1z" fill="#FF6B00"/><path fill-rule="evenodd" clip-rule="evenodd" d="M5 49.89L0 47l5-2.89v2.39h10v-2.39L20 47l-5 2.89V47.5H5v2.39zM690 49.89L685 47l5-2.89v2.39h10v-2.39l5 2.89-5 2.89V47.5h-10v2.39zM335.11 5L338 0l2.89 5h-2.39v10h2.39L338 20l-2.89-5h2.39V5h-2.39zM335.11 45l2.89-5 2.89 5h-2.39v10h2.39L338 60l-2.89-5h2.39V45h-2.39z" fill="#fff"/><path d="M6.51 40.2h1.32a4.45 4.45 0 01-.91-2.58C6.92 36.6 7.29 36 8 36c.92 0 1.34.82 1.9 1.77.73 1.24 1.48 2.71 3.48 2.71H14v-5.91h-1.24l.02 4.38c-.82-.01-1.32-1.01-1.95-2.07-.66-1.1-1.47-2.25-2.85-2.25-1.53 0-2.3 1.21-2.3 2.87 0 .94.26 1.87.83 2.7zM9.92 33.4c2.39 0 4.24-1.12 4.24-3.66 0-2.53-1.85-3.66-4.24-3.66s-4.24 1.13-4.24 3.66c0 2.54 1.85 3.66 4.24 3.66zm0-5.94c1.9 0 2.99.72 2.99 2.28 0 1.58-1.1 2.28-2.99 2.28-1.9 0-2.99-.7-2.99-2.28 0-1.56 1.1-2.28 2.99-2.28zM9.14 23.56h-.9v1.14h8.4v-1.28h-3.38c.45-.4.9-1.07.9-2.08 0-1.72-1.38-2.85-3.04-2.85-1.66 0-3.04 1.13-3.04 2.85 0 1.08.5 1.77 1.06 2.22zm1.98-3.76c1.13 0 1.9.74 1.9 1.78 0 .9-.57 1.56-1.2 1.84h-1.4a2.03 2.03 0 01-1.2-1.84c0-1.04.77-1.78 1.9-1.78zM8.24 13.88l1.94 1.38-1.94 1.38v1.47l2.82-2.1L14 18.23v-1.47l-2.04-1.5 2.04-1.5V12.3l-2.94 2.22-2.82-2.1v1.46zM691.51 40.2h1.32a4.45 4.45 0 01-.91-2.58c0-1.01.37-1.62 1.08-1.62.92 0 1.34.82 1.9 1.77.73 1.24 1.48 2.71 3.48 2.71h.62v-5.91h-1.24l.02 4.38c-.82-.01-1.32-1.01-1.95-2.07-.66-1.1-1.47-2.25-2.85-2.25-1.53 0-2.3 1.21-2.3 2.87 0 .94.26 1.87.83 2.7zM694.92 33.4c2.39 0 4.24-1.12 4.24-3.66 0-2.53-1.85-3.66-4.24-3.66s-4.24 1.13-4.24 3.66c0 2.54 1.85 3.66 4.24 3.66zm0-5.94c1.9 0 2.99.72 2.99 2.28 0 1.58-1.1 2.28-2.99 2.28-1.9 0-2.99-.7-2.99-2.28 0-1.56 1.1-2.28 2.99-2.28zM694.14 23.56h-.9v1.14h8.4v-1.28h-3.38c.45-.4.9-1.07.9-2.08 0-1.72-1.38-2.85-3.04-2.85-1.66 0-3.04 1.13-3.04 2.85 0 1.08.5 1.77 1.06 2.22zm1.98-3.76c1.13 0 1.9.74 1.9 1.78 0 .9-.57 1.56-1.2 1.84h-1.4a2.03 2.03 0 01-1.2-1.84c0-1.04.77-1.78 1.9-1.78zM693.24 13.88l1.94 1.38-1.94 1.38v1.47l2.82-2.1 2.94 2.22v-1.47l-2.04-1.5 2.04-1.5V12.3l-2.94 2.22-2.82-2.1v1.46zM344.3 6.51v1.32a4.45 4.45 0 012.58-.91c1.01 0 1.62.37 1.62 1.08 0 .92-.82 1.34-1.77 1.9-1.24.73-2.71 1.48-2.71 3.48V14h5.91v-1.24l-4.38.02c.01-.82 1.01-1.32 2.07-1.95 1.1-.66 2.25-1.47 2.25-2.85 0-1.53-1.21-2.3-2.87-2.3-.94 0-1.87.26-2.7.83zM351.1 9.92c0 2.39 1.12 4.24 3.65 4.24 2.54 0 3.67-1.85 3.67-4.24s-1.13-4.24-3.67-4.24c-2.53 0-3.65 1.85-3.65 4.24zm5.94 0c0 1.9-.73 2.99-2.29 2.99-1.57 0-2.27-1.1-2.27-2.99 0-1.9.7-2.99 2.27-2.99 1.56 0 2.29 1.1 2.29 2.99zM360.94 9.14v-.9h-1.14v8.4h1.28v-3.38c.4.45 1.07.9 2.08.9 1.72 0 2.85-1.38 2.85-3.04 0-1.66-1.13-3.04-2.85-3.04-1.08 0-1.77.5-2.22 1.06zm3.76 1.98c0 1.13-.74 1.9-1.78 1.9-.9 0-1.56-.57-1.84-1.2v-1.4c.28-.63.95-1.2 1.84-1.2 1.04 0 1.78.77 1.78 1.9zM370.62 8.24l-1.38 1.94-1.38-1.94h-1.47l2.1 2.82-2.22 2.94h1.47l1.5-2.04 1.5 2.04h1.46l-2.22-2.94 2.1-2.82h-1.46zM344.3 46.51v1.32a4.45 4.45 0 012.58-.91c1.01 0 1.62.37 1.62 1.08 0 .92-.82 1.34-1.77 1.9-1.24.73-2.71 1.48-2.71 3.48V54h5.91v-1.24l-4.38.02c.01-.82 1.01-1.32 2.07-1.95 1.1-.66 2.25-1.47 2.25-2.85 0-1.53-1.21-2.3-2.87-2.3-.94 0-1.87.26-2.7.83zM351.1 49.92c0 2.39 1.12 4.24 3.65 4.24 2.54 0 3.67-1.85 3.67-4.24s-1.13-4.24-3.67-4.24c-2.53 0-3.65 1.85-3.65 4.24zm5.94 0c0 1.9-.73 2.99-2.29 2.99-1.57 0-2.27-1.1-2.27-2.99 0-1.9.7-2.99 2.27-2.99 1.56 0 2.29 1.1 2.29 2.99zM360.94 49.14v-.9h-1.14v8.4h1.28v-3.38c.4.45 1.07.9 2.08.9 1.72 0 2.85-1.38 2.85-3.04 0-1.66-1.13-3.04-2.85-3.04-1.08 0-1.77.5-2.22 1.06zm3.76 1.98c0 1.13-.74 1.9-1.78 1.9-.9 0-1.56-.57-1.84-1.2v-1.4c.28-.63.95-1.2 1.84-1.2 1.04 0 1.78.77 1.78 1.9zM370.62 48.24l-1.38 1.94-1.38-1.94h-1.47l2.1 2.82-2.22 2.94h1.47l1.5-2.04 1.5 2.04h1.46l-2.22-2.94 2.1-2.82h-1.46z" fill="#fff"/></g><defs><clipPath id="clip0"><path fill="#fff" d="M0 0h705v60H0z"/></clipPath></defs></svg>