<svg width="705" height="76" viewBox="0 0 705 76" fill="none" xmlns="http://www.w3.org/2000/svg"><g clip-path="url(#clip0)"><path fill="#fff" d="M0 0h705v76H0z"/><path d="M0 0h705v76H0V0z" fill="#F7F2ED"/><path fill-rule="evenodd" clip-rule="evenodd" d="M575.26 22.18c7.9-3.86 15.42 5.04 16.74 7.8 1.32-2.76 8.85-11.66 16.74-7.8 3.46 1.94 6.2 4.5 8.36 7.46 1.8 2.49 3.23 5.3 4.31 8.35a43.43 43.43 0 00-13.82-3.59c-3.87-.42-7.64 1.67-8.45 5.56-.81 3.88 1.99 6.74 5.51 8.51 4.85 2.43 7.7 5.63 10.02 9.44-6.02 2.16-13.98 4.17-22.67 4.17-8.69 0-16.65-2.01-22.67-4.17 2.32-3.81 5.17-7.01 10.02-9.44 3.52-1.77 6.32-4.63 5.5-8.51-.8-3.89-4.57-5.98-8.44-5.56-6.25.68-10.2 2-13.82 3.6a32.98 32.98 0 014.31-8.36 25.83 25.83 0 018.36-7.46zm29.8-4.8c-3.77-1.3-8.1-2-13.06-2-4.96 0-9.29.7-13.05 2-1.04-1.88-3.9-5.98-9.35-6.38-3.32 6.9-1.03 10.73-.24 11.76C560.4 30.38 557 42.92 557 55.5c0 0 15.67 9.49 35 9.49s35-9.49 35-9.49c0-12.6-3.39-25.13-12.36-32.75.79-1.03 3.08-4.87-.24-11.76-5.45.4-8.31 4.5-9.35 6.37zM592 47.47c3.1 0 5.6 3 5.6 5.48 0 2.47-2.5 3.28-5.6 3.28-3.1 0-5.6-.8-5.6-3.28 0-2.48 2.5-5.47 5.6-5.47zm-10.5-6.56a2.86 2.86 0 01-2.8 2.92c-1.55 0-2.8-1.3-2.8-2.92a2.86 2.86 0 012.8-2.92c1.55 0 2.8 1.3 2.8 2.92zm26.6 0a2.86 2.86 0 01-2.8 2.92c-1.55 0-2.8-1.3-2.8-2.92a2.86 2.86 0 012.8-2.92c1.54 0 2.8 1.3 2.8 2.92z" fill="url(#paint0_linear)"/><path d="M374.82 52.84c0-1.46.52-2.7 1.55-3.72a5.08 5.08 0 013.72-1.55c1.46 0 2.7.52 3.72 1.55a5.05 5.05 0 011.55 3.72c0 1.45-.52 2.7-1.55 3.72a5.05 5.05 0 01-3.72 1.55c-1.45 0-2.7-.52-3.72-1.55a5.08 5.08 0 01-1.55-3.72zm9.68 0c0-1.22-.43-2.26-1.29-3.12a4.25 4.25 0 00-3.12-1.29c-1.21 0-2.26.43-3.12 1.29a4.24 4.24 0 00-1.29 3.12c0 1.21.43 2.26 1.29 3.12.86.86 1.9 1.29 3.12 1.29 1.22 0 2.26-.43 3.12-1.29a4.27 4.27 0 001.29-3.12zm-2.4 2.54a2.7 2.7 0 01-1.98.78c-.84 0-1.5-.3-2-.91a3.76 3.76 0 01-.73-2.43c0-.97.26-1.78.78-2.41.52-.64 1.2-.96 2.02-.96.71 0 1.26.11 1.65.34l-.3.76c-.27-.2-.72-.3-1.34-.3a1.6 1.6 0 00-1.37.73c-.34.49-.51 1.12-.51 1.89 0 .74.18 1.34.53 1.8.36.45.81.68 1.37.68.6 0 1.07-.21 1.4-.64l.49.67zM397.96 58v-5.54h-5V58h-1.55V46.56h1.56v4.57h5v-4.57h1.56V58h-1.57zM408.8 53.97h-6.03c0 .61.1 1.13.3 1.56.22.43.52.77.9 1.02.4.24.88.36 1.44.36.83 0 1.54-.25 2.12-.75l.61 1.2c-.39.3-.82.52-1.29.63-.47.11-1.05.17-1.73.17a3.7 3.7 0 01-2.8-1.17 4.32 4.32 0 01-1.1-3.07c0-1.33.38-2.4 1.15-3.22a3.66 3.66 0 012.76-1.23c1.16 0 2.08.32 2.77.98a3.4 3.4 0 011.03 2.6c0 .22-.05.53-.13.92zm-3.6-3.25c-.66 0-1.2.21-1.65.64a2.3 2.3 0 00-.74 1.52h4.63c0-.63-.2-1.15-.61-1.55-.4-.4-.95-.61-1.63-.61zM413.76 49.47c1.2 0 2.12.39 2.78 1.16.66.77 1 1.83 1 3.16 0 1.37-.35 2.44-1.04 3.21a3.5 3.5 0 01-2.74 1.16c-1.2 0-2.13-.4-2.8-1.18-.66-.78-1-1.84-1-3.2 0-1.28.36-2.32 1.06-3.12.7-.8 1.6-1.2 2.74-1.2zm0 7.48c.7 0 1.24-.3 1.62-.87.4-.58.59-1.34.59-2.3 0-2.06-.74-3.1-2.21-3.1-.7 0-1.25.29-1.65.85-.4.56-.6 1.32-.6 2.26 0 2.1.75 3.16 2.25 3.16zM425.73 58h-1.49v-7.12h-3.65V58h-1.49v-8.37h6.63V58zM431.09 49.47c1.2 0 2.12.39 2.78 1.16.66.77.99 1.83.99 3.16 0 1.37-.34 2.44-1.03 3.21a3.5 3.5 0 01-2.74 1.16c-1.2 0-2.13-.4-2.8-1.18-.66-.78-1-1.84-1-3.2 0-1.28.36-2.32 1.05-3.12.7-.8 1.62-1.2 2.75-1.2zm0 7.48c.7 0 1.24-.3 1.62-.87.4-.58.59-1.34.59-2.3 0-2.06-.74-3.1-2.21-3.1-.7 0-1.25.29-1.65.85-.4.56-.6 1.32-.6 2.26 0 2.1.75 3.16 2.25 3.16zM440.55 53.63c1.04.38 1.56 1.07 1.56 2.05 0 .78-.3 1.38-.88 1.82-.59.44-1.38.66-2.39.66a5.42 5.42 0 01-3.07-.94l.75-1.19c.67.61 1.46.92 2.4.92.5 0 .9-.12 1.2-.35.3-.23.44-.54.44-.92 0-1-.62-1.5-1.87-1.5-.36 0-.67.02-.93.05v-1.2c.1.02.42.02.97.02.51 0 .91-.1 1.2-.3.28-.2.42-.47.42-.83 0-.39-.13-.7-.39-.9a1.6 1.6 0 00-1.08-.33c-.7 0-1.43.21-2.2.64l-.54-1.2c.96-.44 1.9-.66 2.82-.66.82 0 1.51.22 2.07.66.56.43.84 1 .84 1.73 0 .86-.44 1.45-1.32 1.77zM450.53 58h-1.5v-3.77h-3.84V58h-1.5v-8.37h1.5V53h3.85v-3.36h1.5V58zM457.29 57.04c-.6.74-1.51 1.12-2.72 1.12-.66 0-1.23-.24-1.71-.72a2.41 2.41 0 01-.72-1.78c0-.84.37-1.56 1.1-2.14a4.46 4.46 0 013.92-.7c0-1.35-.6-2.02-1.82-2.02-.92 0-1.63.25-2.14.75l-.63-1.23a4.5 4.5 0 012.61-.85c1.18 0 2.05.27 2.6.8.57.54.85 1.43.85 2.68v2.99c0 .73.22 1.22.66 1.47v.73c-.65 0-1.12-.1-1.4-.29-.3-.2-.5-.46-.6-.81zm-.13-3.15c-.53-.1-.86-.16-.99-.16-.75 0-1.36.2-1.83.58-.48.4-.71.85-.71 1.37 0 .87.5 1.31 1.53 1.31.74 0 1.4-.35 2-1.07V53.9zM467.7 58h-1.49v-3.77h-3.85V58h-1.5v-8.37h1.5V53h3.85v-3.36h1.5V58zM476.66 58h-1.5v-3.77h-3.85V58h-1.49v-8.37h1.5V53h3.84v-3.36h1.5V58zM487.63 58h-1.47v-8.37h1.46V58zm-7.4-5.3c.43-.06.9-.1 1.43-.1 1.07 0 1.89.24 2.45.7.56.47.84 1.15.84 2.06a2.58 2.58 0 01-1.5 2.3 4.4 4.4 0 01-1.82.34h-2.86v-8.37h1.46v3.07zm0 4.1c.36.03.83.05 1.43.05.55 0 .99-.13 1.32-.4.33-.26.5-.64.5-1.12 0-.53-.18-.92-.53-1.18-.34-.26-.8-.4-1.37-.4-.31 0-.76.04-1.35.1v2.95zM496.78 58h-1.48v-5.73l-5.22 5.96h-.34v-8.6h1.5v5.73l5.2-5.95h.34V58zm-.57-12.41c-.35 1.6-1.28 2.4-2.8 2.4-1.52 0-2.45-.8-2.8-2.4l1.33-.3c.19 1.06.68 1.6 1.47 1.6.88 0 1.39-.54 1.53-1.6l1.27.3zM505.4 47.97v3.16h3.79v1.33h-3.78v4.13h5.18V58h-6.75V46.56h6.83v1.4h-5.26zM519.25 58h-1.5v-3.77h-3.84V58h-1.5v-8.37h1.5V53h3.85v-3.36h1.49V58zM524.62 49.47c1.2 0 2.12.39 2.78 1.16.66.77 1 1.83 1 3.16 0 1.37-.35 2.44-1.04 3.21a3.5 3.5 0 01-2.74 1.16c-1.2 0-2.13-.4-2.8-1.18-.66-.78-1-1.84-1-3.2 0-1.28.36-2.32 1.05-3.12.7-.8 1.62-1.2 2.75-1.2zm0 7.48c.7 0 1.24-.3 1.62-.87.4-.58.59-1.34.59-2.3 0-2.06-.74-3.1-2.21-3.1-.7 0-1.25.29-1.65.85-.4.56-.6 1.32-.6 2.26 0 2.1.75 3.16 2.25 3.16zM535.67 50.88h-2.4V58h-1.48v-7.12h-2.4v-1.25h6.28v1.25zM81.77 52.48h2.73v1.1h-2.73v2.7h-1.1v-2.7h-2.72v-1.1h2.72V49.8h1.1v2.68zM88.73 58H87a45.8 45.8 0 011.95-4.85 91.91 91.91 0 012.5-5.16h-5.4v-1.48h7.42v.6l-1 2a70.94 70.94 0 00-2.16 4.66c-.35.83-.66 1.6-.93 2.32-.26.7-.48 1.35-.65 1.91zM103.44 46.48v.65c-1.03 1.48-1.55 3.66-1.55 6.52 0 3.4.52 5.69 1.55 6.87v.82a7.13 7.13 0 01-2.46-3.16 11.58 11.58 0 01-.86-4.55c0-1.41.33-2.84.99-4.29.66-1.44 1.44-2.4 2.33-2.86zM107.54 58.2l-.76-.84c.45-.18 1.12-.8 1.99-1.84.87-1.05 1.35-1.86 1.44-2.43a2.5 2.5 0 01-1.8.62 3.18 3.18 0 01-2.43-.97 3.72 3.72 0 01-.92-2.66c0-1.12.31-2.02.94-2.7a3.09 3.09 0 012.37-1.03c2.5 0 3.76 1.67 3.76 5 0 1.38-.49 2.8-1.47 4.25-.98 1.45-2.02 2.31-3.12 2.6zm2.95-8.08c0-1.63-.67-2.44-2-2.44-.57 0-1.01.21-1.34.64a2.7 2.7 0 00-.49 1.68c0 .72.18 1.3.52 1.73.34.44.79.65 1.33.65 1.32 0 1.98-.75 1.98-2.26zM115.93 58.2l-.76-.84c.45-.18 1.12-.8 1.99-1.84.87-1.05 1.35-1.86 1.44-2.43a2.5 2.5 0 01-1.8.62 3.18 3.18 0 01-2.43-.97 3.73 3.73 0 01-.92-2.66c0-1.12.32-2.02.94-2.7a3.09 3.09 0 012.37-1.03c2.5 0 3.76 1.67 3.76 5 0 1.38-.49 2.8-1.47 4.25-.98 1.45-2.02 2.31-3.12 2.6zm2.95-8.08c0-1.63-.67-2.44-2-2.44-.57 0-1.01.21-1.34.64a2.7 2.7 0 00-.48 1.68c0 .72.17 1.3.51 1.73.34.44.79.65 1.33.65 1.32 0 1.98-.75 1.98-2.26zM124.32 58.2l-.76-.84c.46-.18 1.12-.8 1.99-1.84.87-1.05 1.35-1.86 1.44-2.43a2.5 2.5 0 01-1.8.62 3.18 3.18 0 01-2.43-.97 3.72 3.72 0 01-.92-2.66c0-1.12.32-2.02.94-2.7a3.09 3.09 0 012.37-1.03c2.5 0 3.76 1.67 3.76 5 0 1.38-.49 2.8-1.47 4.25-.98 1.45-2.02 2.31-3.12 2.6zm2.95-8.08c0-1.63-.67-2.44-2-2.44-.57 0-1.01.21-1.34.64a2.7 2.7 0 00-.49 1.68c0 .72.18 1.3.52 1.73.35.44.79.65 1.33.65 1.32 0 1.98-.75 1.98-2.26zM131.16 61.34v-.82c1.03-1.18 1.55-3.48 1.55-6.87 0-2.86-.52-5.04-1.55-6.52v-.65c.9.46 1.67 1.42 2.33 2.86.66 1.45 1 2.88 1 4.3 0 1.65-.3 3.17-.88 4.54a7.08 7.08 0 01-2.45 3.16zM143.41 58.2l-.75-.84c.45-.18 1.11-.8 1.98-1.84.88-1.05 1.36-1.86 1.45-2.43a2.5 2.5 0 01-1.8.62 3.18 3.18 0 01-2.44-.97 3.72 3.72 0 01-.91-2.66c0-1.12.31-2.02.94-2.7a3.09 3.09 0 012.36-1.03c2.51 0 3.77 1.67 3.77 5 0 1.38-.5 2.8-1.48 4.25-.98 1.45-2.02 2.31-3.12 2.6zm2.96-8.08c0-1.63-.67-2.44-2.01-2.44-.56 0-1 .21-1.34.64a2.7 2.7 0 00-.48 1.68c0 .72.17 1.3.52 1.73.34.44.78.65 1.32.65 1.33 0 1.99-.75 1.99-2.26zM151.8 58.2l-.75-.84c.45-.18 1.11-.8 1.98-1.84.88-1.05 1.36-1.86 1.45-2.43a2.5 2.5 0 01-1.8.62 3.18 3.18 0 01-2.44-.97 3.73 3.73 0 01-.91-2.66c0-1.12.31-2.02.94-2.7a3.09 3.09 0 012.36-1.03c2.51 0 3.77 1.67 3.77 5 0 1.38-.5 2.8-1.48 4.25-.98 1.45-2.02 2.31-3.11 2.6zm2.96-8.08c0-1.63-.67-2.44-2.01-2.44-.56 0-1 .21-1.34.64a2.7 2.7 0 00-.48 1.68c0 .72.17 1.3.51 1.73.35.44.8.65 1.33.65 1.33 0 1.99-.75 1.99-2.26zM160.2 58.2l-.76-.84c.45-.18 1.11-.8 1.98-1.84.88-1.05 1.36-1.86 1.45-2.43a2.5 2.5 0 01-1.8.62 3.18 3.18 0 01-2.44-.97 3.72 3.72 0 01-.91-2.66c0-1.12.31-2.02.94-2.7a3.09 3.09 0 012.36-1.03c2.51 0 3.77 1.67 3.77 5 0 1.38-.5 2.8-1.48 4.25-.98 1.45-2.02 2.31-3.12 2.6zm2.95-8.08c0-1.63-.67-2.44-2-2.44-.57 0-1.02.21-1.34.64a2.7 2.7 0 00-.49 1.68c0 .72.17 1.3.52 1.73.34.44.78.65 1.32.65 1.33 0 1.99-.75 1.99-2.26zM166.77 54.05v-1.37h3.35v1.37h-3.35zM174.46 58.2l-.76-.84c.46-.18 1.12-.8 1.99-1.84.87-1.05 1.35-1.86 1.44-2.43a2.5 2.5 0 01-1.8.62 3.19 3.19 0 01-2.43-.97 3.73 3.73 0 01-.92-2.66c0-1.12.32-2.02.94-2.7a3.09 3.09 0 012.37-1.03c2.5 0 3.77 1.67 3.77 5 0 1.38-.5 2.8-1.48 4.25-.98 1.45-2.02 2.31-3.12 2.6zm2.95-8.08c0-1.63-.66-2.44-2-2.44-.57 0-1.01.21-1.34.64a2.7 2.7 0 00-.48 1.68c0 .72.17 1.3.51 1.73.34.44.79.65 1.33.65 1.32 0 1.98-.75 1.98-2.26zM182.85 58.2l-.76-.84c.46-.18 1.12-.8 1.99-1.84.87-1.05 1.35-1.86 1.44-2.43a2.5 2.5 0 01-1.8.62 3.18 3.18 0 01-2.43-.97 3.73 3.73 0 01-.91-2.66c0-1.12.3-2.02.93-2.7a3.09 3.09 0 012.37-1.03c2.51 0 3.76 1.67 3.76 5 0 1.38-.49 2.8-1.47 4.25-.98 1.45-2.02 2.31-3.12 2.6zm2.96-8.08c0-1.63-.68-2.44-2.01-2.44-.57 0-1.01.21-1.34.64a2.7 2.7 0 00-.48 1.68c0 .72.17 1.3.51 1.73.35.44.79.65 1.33.65 1.32 0 1.99-.75 1.99-2.26zM189.43 54.05v-1.37h3.34v1.37h-3.34zM197.12 58.2l-.76-.84c.45-.18 1.11-.8 1.98-1.84.88-1.05 1.36-1.86 1.45-2.43a2.5 2.5 0 01-1.8.62 3.18 3.18 0 01-2.44-.97 3.72 3.72 0 01-.9-2.66c0-1.12.3-2.02.93-2.7a3.09 3.09 0 012.36-1.03c2.52 0 3.77 1.67 3.77 5 0 1.38-.5 2.8-1.48 4.25-.97 1.45-2.01 2.31-3.11 2.6zm2.95-8.08c0-1.63-.67-2.44-2-2.44-.57 0-1.01.21-1.34.64a2.7 2.7 0 00-.49 1.68c0 .72.17 1.3.52 1.73.34.44.78.65 1.33.65 1.32 0 1.98-.75 1.98-2.26zM205.5 58.2l-.75-.84c.45-.18 1.12-.8 1.98-1.84.88-1.05 1.36-1.86 1.45-2.43a2.5 2.5 0 01-1.8.62 3.19 3.19 0 01-2.44-.97 3.73 3.73 0 01-.9-2.66c0-1.12.3-2.02.93-2.7a3.09 3.09 0 012.37-1.03c2.5 0 3.76 1.67 3.76 5 0 1.38-.5 2.8-1.47 4.25-.98 1.45-2.02 2.31-3.12 2.6zm2.96-8.08c0-1.63-.67-2.44-2-2.44-.57 0-1.02.21-1.34.64a2.7 2.7 0 00-.49 1.68c0 .72.18 1.3.52 1.73.34.44.78.65 1.33.65 1.32 0 1.98-.75 1.98-2.26zM79.46 21.63v5.34c0 1.29.56 1.94 1.68 1.94.49 0 .94-.14 1.34-.43.41-.28.68-.6.8-.97v-5.88h1.5V30h-1.5v-1.16c-.16.33-.5.63-1 .91-.5.27-.99.4-1.47.4-.91 0-1.62-.26-2.1-.78a3.2 3.2 0 01-.73-2.25v-5.49h1.48zM91.95 30v-4.87c0-.89-.13-1.51-.4-1.86-.27-.36-.72-.54-1.35-.54-.34 0-.69.1-1.06.3-.37.2-.65.45-.85.75V30H86.8v-8.37h1.02l.47 1.08c.49-.82 1.29-1.23 2.4-1.23 1.83 0 2.75 1.11 2.75 3.34V30h-1.49zM100.96 30l-2.62-4.19-1.3 1.34V30h-1.49V18.2h1.49v7.32l3.2-3.89h1.74l-2.68 3.18 3.27 5.19h-1.6zM108.78 30v-4.87c0-.89-.13-1.51-.4-1.86-.27-.36-.72-.54-1.35-.54-.34 0-.7.1-1.06.3-.37.2-.66.45-.85.75V30h-1.49v-8.37h1.02l.47 1.08c.49-.82 1.29-1.23 2.4-1.23 1.83 0 2.75 1.11 2.75 3.34V30h-1.49zM111.84 25.8c0-1.3.34-2.34 1.03-3.13.7-.8 1.62-1.2 2.75-1.2 1.2 0 2.13.39 2.8 1.16.66.76.99 1.81.99 3.17 0 1.35-.34 2.41-1.02 3.2a3.48 3.48 0 01-2.77 1.16c-1.19 0-2.12-.4-2.78-1.18-.67-.79-1-1.85-1-3.18zm1.56 0c0 2.1.74 3.15 2.22 3.15.7 0 1.24-.29 1.63-.85.4-.56.6-1.33.6-2.3 0-2.08-.75-3.11-2.22-3.11-.68 0-1.22.27-1.63.83-.4.55-.6 1.3-.6 2.28zM128.71 30.16h-.39l-2.45-5.7-2.45 5.7h-.39l-3-8.55h1.6l1.78 5.5 2.23-5.5h.4l2.29 5.5 1.92-5.5h1.46l-3 8.55zM138.03 30v-4.87c0-.89-.13-1.51-.4-1.86-.27-.36-.72-.54-1.35-.54-.34 0-.7.1-1.06.3-.37.2-.66.45-.85.75V30h-1.49v-8.37h1.02l.47 1.08c.49-.82 1.29-1.23 2.4-1.23 1.83 0 2.75 1.11 2.75 3.34V30h-1.49zM149.77 29.1c.23.08.59.23 1.05.45-1 1-2.32 1.5-3.95 1.5-1.67 0-3-.52-4.01-1.54a5.55 5.55 0 01-1.5-4.05c0-1.7.5-3.09 1.52-4.18a5.2 5.2 0 013.99-1.63c1.57 0 2.85.47 3.81 1.41.96.95 1.44 2.2 1.44 3.78 0 .88-.23 1.63-.7 2.25a2.2 2.2 0 01-1.84.93c-.83 0-1.43-.19-1.8-.55-.44.4-.97.6-1.57.6-.56 0-1-.14-1.35-.45-.34-.3-.52-.71-.52-1.23 0-.66.28-1.16.85-1.5a4.35 4.35 0 012.28-.52c-.08-.76-.39-1.14-.92-1.14-.55 0-.98.14-1.3.43l-.38-.77c.43-.32.95-.48 1.57-.48 1.44 0 2.17.83 2.17 2.5v1.86c.37.28.7.42.95.42.97 0 1.46-.8 1.46-2.38 0-1.2-.4-2.2-1.18-3a3.98 3.98 0 00-2.97-1.2c-1.32 0-2.38.45-3.19 1.36a5.07 5.07 0 00-1.21 3.5c0 1.38.4 2.5 1.2 3.35a4.2 4.2 0 003.2 1.27c1.2 0 2.17-.33 2.9-1zm-2.3-2.17V25.1h-.4c-1.01 0-1.52.42-1.52 1.25 0 .28.1.51.3.7.2.18.44.27.74.27.32 0 .62-.13.88-.39zM158.5 23.06a1.7 1.7 0 00-.97-.33c-.53 0-.99.24-1.38.72a2.7 2.7 0 00-.59 1.75V30h-1.48v-8.37h1.48v1.34a2.6 2.6 0 012.42-1.5c.26 0 .65.05 1.15.15l-.62 1.44zM164.9 29.04c-.59.74-1.5 1.12-2.72 1.12-.66 0-1.23-.24-1.71-.71a2.42 2.42 0 01-.72-1.79c0-.84.37-1.56 1.1-2.14.75-.6 1.7-.89 2.85-.89.32 0 .67.07 1.07.2 0-1.35-.6-2.03-1.82-2.03-.92 0-1.64.25-2.14.75l-.62-1.24c.28-.23.67-.42 1.16-.58.5-.17.98-.25 1.43-.25 1.22 0 2.1.27 2.64.82.55.56.83 1.43.83 2.64v3c0 .73.22 1.22.66 1.47v.74c-.6 0-1.06-.09-1.36-.26-.3-.17-.51-.46-.64-.85zm-.13-3.15c-.47-.1-.8-.16-.99-.16-.75 0-1.36.2-1.84.58-.47.39-.7.84-.7 1.37 0 .87.5 1.3 1.53 1.3.75 0 1.42-.35 2-1.07V25.9zM174.9 22.31l-.74 1.05a3.34 3.34 0 00-1.93-.63c-.8 0-1.44.28-1.92.85a3.5 3.5 0 00-.7 2.32c0 .98.23 1.73.72 2.24.48.51 1.15.77 2.01.77.67 0 1.34-.26 2.02-.78l.58 1.25c-.8.52-1.78.78-2.96.78a3.78 3.78 0 01-2.82-1.15 4.27 4.27 0 01-1.12-3.11c0-1.33.38-2.4 1.16-3.21a4.2 4.2 0 013.18-1.21c.43 0 .9.09 1.4.27.5.18.88.37 1.12.56zM182.82 22.31l-.73 1.05a3.34 3.34 0 00-1.93-.63c-.81 0-1.45.28-1.93.85a3.49 3.49 0 00-.7 2.32c0 .98.24 1.73.72 2.24.48.51 1.16.77 2.02.77.66 0 1.33-.26 2.01-.78l.59 1.25c-.8.52-1.79.78-2.96.78a3.78 3.78 0 01-2.83-1.15 4.27 4.27 0 01-1.12-3.11c0-1.33.39-2.4 1.16-3.21a4.2 4.2 0 013.18-1.21c.43 0 .9.09 1.4.27.5.18.88.37 1.12.56zM183.88 25.8c0-1.3.35-2.34 1.04-3.13.7-.8 1.62-1.2 2.75-1.2 1.2 0 2.13.39 2.8 1.16.65.76.98 1.81.98 3.17 0 1.35-.33 2.41-1.01 3.2a3.48 3.48 0 01-2.77 1.16c-1.2 0-2.12-.4-2.79-1.18-.66-.79-1-1.85-1-3.18zm1.56 0c0 2.1.75 3.15 2.23 3.15.7 0 1.24-.29 1.63-.85.4-.56.6-1.33.6-2.3 0-2.08-.75-3.11-2.23-3.11-.67 0-1.22.27-1.62.83-.4.55-.6 1.3-.6 2.28zM192.48 25.8c0-1.3.34-2.34 1.04-3.13.7-.8 1.61-1.2 2.75-1.2 1.2 0 2.12.39 2.78 1.16.67.76 1 1.81 1 3.17 0 1.35-.34 2.41-1.02 3.2a3.48 3.48 0 01-2.76 1.16c-1.2 0-2.13-.4-2.8-1.18-.66-.79-1-1.85-1-3.18zm1.56 0c0 2.1.74 3.15 2.23 3.15.69 0 1.23-.29 1.62-.85.4-.56.6-1.33.6-2.3 0-2.08-.75-3.11-2.22-3.11-.68 0-1.22.27-1.63.83-.4.55-.6 1.3-.6 2.28zM206.77 30v-4.87c0-.89-.14-1.51-.41-1.86-.27-.36-.71-.54-1.34-.54-.34 0-.7.1-1.07.3-.37.2-.65.45-.85.75V30h-1.48v-8.37h1.01l.47 1.08c.5-.82 1.3-1.23 2.4-1.23 1.83 0 2.75 1.11 2.75 3.34V30h-1.48zM212.08 27.8c.32 0 .6.12.83.35.22.23.34.5.34.83 0 .32-.12.6-.34.83-.23.23-.5.35-.83.35-.33 0-.6-.12-.83-.35a1.16 1.16 0 01-.34-.83c0-.33.11-.6.34-.83.23-.23.5-.35.83-.35zM220.79 23.06a1.7 1.7 0 00-.98-.33c-.52 0-.98.24-1.38.72a2.7 2.7 0 00-.59 1.75V30h-1.48v-8.37h1.48v1.34a2.6 2.6 0 012.42-1.5c.26 0 .65.05 1.15.15l-.62 1.44zM223.87 21.63v5.34c0 1.29.56 1.94 1.68 1.94.49 0 .93-.14 1.34-.43.4-.28.68-.6.8-.97v-5.88h1.49V30h-1.49v-1.16c-.16.33-.5.63-1 .91-.5.27-1 .4-1.47.4-.92 0-1.62-.26-2.11-.78a3.2 3.2 0 01-.73-2.25v-5.49h1.49z" fill="#333"/><path d="M637-4H67v80h570V-4z" fill="#6653D9" fill-opacity=".15"/><path fill-rule="evenodd" clip-rule="evenodd" d="M638-5H66v82h572V-5zm-1 1v80H67V-4h570zM643 73.39l-5-2.89 5-2.89V70h57v-2.39l5 2.89-5 2.89V71h-57v2.39zM5 73.39L0 70.5l5-2.89V70h56v-2.39l5 2.89-5 2.89V71H5v2.39z" fill="#6653D9"/></g><defs><linearGradient id="paint0_linear" x1="592" y1="11" x2="592" y2="65" gradientUnits="userSpaceOnUse"><stop stop-color="#F90"/><stop offset="1" stop-color="#FF7A00"/></linearGradient><clipPath id="clip0"><path fill="#fff" d="M0 0h705v76H0z"/></clipPath></defs></svg>