<svg width="705" height="374" viewBox="0 0 705 374" fill="none" xmlns="http://www.w3.org/2000/svg"><path d="M0 0h705v237H0V0z" fill="#fff"/><path fill-rule="evenodd" clip-rule="evenodd" d="M703 2H2v233h701V2zM0 0v237h705V0H0z" fill="#AAA"/><path d="M4 4h346v112H4V4z" fill="#EEF8EC"/><path d="M355 121h346v112H355V121z" fill="#EDEBF9"/><path d="M355 4h346v112H355V4z" fill="#FFF5E6"/><path d="M4 121h346v112H4V121z" fill="#FCEDE8"/><path d="M40 40h274v40H40V40z" fill="#A8DDA2"/><path d="M391 157h274v40H391v-40z" fill="#C8C4EE"/><path d="M391 40h274v40H391V40z" fill="#FFD699"/><path d="M40 157h274v40H40v-40z" fill="#F7C9BA"/><path d="M43.17 28v-5.06c.37-.48.97-.92 1.65-.92.7 0 1.2.46 1.2 1.26V28h2.2v-4.86l-.01-.36a2.1 2.1 0 011.52-.76c.7 0 1.2.46 1.2 1.26V28h2.2v-4.86c0-1.36-.7-3.04-2.86-3.04-1.05 0-1.92.5-2.56 1.13-.45-.65-1.2-1.13-2.35-1.13-1.17 0-2.05.64-2.45 1.12v-.9h-1.97V28h2.23zM61.8 26.02v-2.45c0-2.53-1.46-3.47-3.77-3.47-1.18 0-2.35.3-2.97.5v1.93a7.36 7.36 0 012.72-.58c1.2 0 1.8.53 1.8 1.3v.27a8.38 8.38 0 00-1.82-.2c-1.54 0-3.38.6-3.38 2.55 0 1.52 1.25 2.35 2.7 2.35 1.13 0 2-.35 2.76-.94.32.58.91.86 1.7.86.43 0 .88-.1 1.23-.22v-1.46c-.15.05-.29.07-.42.07-.29 0-.54-.11-.54-.51zm-3.53-1.38c.47 0 .98.1 1.31.18v1.2c-.5.44-1.1.62-1.72.62-.68 0-1.2-.37-1.2-.94 0-.79.8-1.06 1.61-1.06zM65.79 21.47v-1.15h-1.97V28h2.22v-4.51c.47-.91 1.63-1.38 2.85-1.17v-2.16c-1.44-.14-2.56.46-3.1 1.31zM69.48 24.16c0 2.1 1.31 4.06 3.76 4.06a3.3 3.3 0 002.53-1.04v.7c0 1.53-1.14 2-2.5 2-1.05 0-2.1-.3-2.96-.8v1.94c.93.45 2.05.72 3.25.72 2.26 0 4.42-1.02 4.42-3.95v-7.47h-1.96v1.12a3.28 3.28 0 00-2.78-1.34c-2.45 0-3.76 1.96-3.76 4.06zm6.29-.91v1.87a2.2 2.2 0 01-2 1.23c-1.27 0-2.02-.99-2.02-2.19s.75-2.2 2.02-2.2c.97 0 1.7.62 2 1.29zM82.1 28v-7.68h-2.22V28h2.23zm.2-10.22c0-.87-.61-1.25-1.31-1.25-.7 0-1.3.38-1.3 1.25 0 .88.6 1.26 1.3 1.26.7 0 1.3-.38 1.3-1.26zM85.99 21.3v-.98h-1.97V28h2.23v-5c.32-.47.92-.98 1.7-.98.87 0 1.5.48 1.5 1.52V28h2.22v-4.75c0-1.78-1.1-3.15-3.12-3.15-1.1 0-1.97.5-2.56 1.2zM96.12 22.03c0-.9-.63-1.31-1.35-1.31-.72 0-1.36.42-1.36 1.31 0 .91.64 1.31 1.36 1.31.72 0 1.35-.4 1.35-1.3zm0 4.87c0-.9-.63-1.32-1.35-1.32-.72 0-1.36.42-1.36 1.32 0 .9.64 1.3 1.36 1.3.72 0 1.35-.4 1.35-1.3zM104.02 17.12l-2.64 1v2.17l2.05-.77v6.42h-2.05V28h6.2v-2.06h-1.82v-8.82h-1.74zM108.63 22.56c0 3.14 1.48 5.66 4.95 5.66 3.48 0 4.97-2.52 4.97-5.66s-1.5-5.66-4.97-5.66c-3.47 0-4.95 2.52-4.95 5.66zm7.52 0c0 2.32-.8 3.55-2.57 3.55-1.75 0-2.55-1.23-2.55-3.55s.8-3.55 2.55-3.55c1.77 0 2.56 1.23 2.56 3.55zM122.15 21.44v-1.12h-1.97v11.2h2.22v-4.34a3.3 3.3 0 002.53 1.04c2.43 0 3.74-1.96 3.74-4.06 0-2.1-1.3-4.06-3.74-4.06-1.42 0-2.3.65-2.78 1.34zm4.25 2.72c0 1.2-.75 2.2-2.01 2.2-.98 0-1.7-.62-2-1.29v-1.82a2.2 2.2 0 012-1.28c1.26 0 2.01.99 2.01 2.19zM134.59 20.32l-1.54 2.3-1.56-2.3h-2.52l2.79 3.8-2.93 3.88h2.51l1.71-2.35 1.7 2.35h2.51l-2.93-3.87 2.77-3.81h-2.51zM139.4 30.32l1.56-4.3h-2.35l-1 4.3h1.78zm1.58-8.74c0-.9-.63-1.3-1.36-1.3-.7 0-1.35.4-1.35 1.3 0 .92.64 1.33 1.35 1.33.73 0 1.36-.41 1.36-1.33zM43.17 145v-5.06c.37-.48.97-.92 1.65-.92.7 0 1.2.46 1.2 1.26V145h2.2v-4.86l-.01-.36a2.1 2.1 0 011.52-.76c.7 0 1.2.46 1.2 1.26V145h2.2v-4.86c0-1.36-.7-3.04-2.86-3.04-1.05 0-1.92.5-2.56 1.13-.45-.65-1.2-1.13-2.35-1.13-1.17 0-2.05.64-2.45 1.12v-.9h-1.97V145h2.23zM61.8 143.02v-2.45c0-2.53-1.46-3.47-3.77-3.47-1.18 0-2.35.3-2.97.5v1.93a7.36 7.36 0 012.72-.58c1.2 0 1.8.53 1.8 1.3v.27a8.38 8.38 0 00-1.82-.2c-1.54 0-3.38.6-3.38 2.55 0 1.52 1.25 2.35 2.7 2.35 1.13 0 2-.35 2.76-.94.32.58.91.86 1.7.86.43 0 .88-.1 1.23-.22v-1.46c-.15.05-.29.07-.42.07-.29 0-.54-.11-.54-.51zm-3.53-1.38c.47 0 .98.1 1.31.18v1.2c-.5.44-1.1.62-1.72.62-.68 0-1.2-.37-1.2-.94 0-.79.8-1.06 1.61-1.06zM65.79 138.47v-1.15h-1.97V145h2.22v-4.51c.47-.91 1.63-1.38 2.85-1.17v-2.16c-1.44-.14-2.56.46-3.1 1.31zM69.48 141.16c0 2.1 1.31 4.06 3.76 4.06a3.3 3.3 0 002.53-1.04v.7c0 1.53-1.14 2-2.5 2-1.05 0-2.1-.3-2.96-.8v1.94c.93.45 2.05.72 3.25.72 2.26 0 4.42-1.02 4.42-3.95v-7.47h-1.96v1.12a3.28 3.28 0 00-2.78-1.34c-2.45 0-3.76 1.96-3.76 4.06zm6.29-.91v1.87a2.2 2.2 0 01-2 1.23c-1.27 0-2.02-.99-2.02-2.19s.75-2.2 2.02-2.2c.97 0 1.7.62 2 1.29zM82.1 145v-7.68h-2.22V145h2.23zm.2-10.22c0-.87-.61-1.25-1.31-1.25-.7 0-1.3.38-1.3 1.25 0 .88.6 1.26 1.3 1.26.7 0 1.3-.38 1.3-1.26zM85.99 138.3v-.98h-1.97V145h2.23v-5c.32-.47.92-.98 1.7-.98.87 0 1.5.48 1.5 1.52V145h2.22v-4.75c0-1.78-1.1-3.15-3.12-3.15-1.1 0-1.97.5-2.56 1.2zM96.12 139.03c0-.9-.63-1.31-1.35-1.31-.72 0-1.36.42-1.36 1.31 0 .91.64 1.31 1.36 1.31.72 0 1.35-.4 1.35-1.3zm0 4.87c0-.9-.63-1.32-1.35-1.32-.72 0-1.36.42-1.36 1.32 0 .9.64 1.3 1.36 1.3.72 0 1.35-.4 1.35-1.3zM104.02 134.12l-2.64 1v2.17l2.05-.77v6.42h-2.05V145h6.2v-2.06h-1.82v-8.82h-1.74zM108.63 139.56c0 3.14 1.48 5.66 4.95 5.66 3.48 0 4.97-2.52 4.97-5.66s-1.5-5.66-4.97-5.66c-3.47 0-4.95 2.52-4.95 5.66zm7.52 0c0 2.32-.8 3.55-2.57 3.55-1.75 0-2.55-1.23-2.55-3.55s.8-3.55 2.55-3.55c1.77 0 2.56 1.23 2.56 3.55zM122.15 138.44v-1.12h-1.97v11.2h2.22v-4.34a3.3 3.3 0 002.53 1.04c2.43 0 3.74-1.96 3.74-4.06 0-2.1-1.3-4.06-3.74-4.06-1.42 0-2.3.65-2.78 1.34zm4.25 2.72c0 1.2-.75 2.2-2.01 2.2-.98 0-1.7-.62-2-1.29v-1.82a2.2 2.2 0 012-1.28c1.26 0 2.01.99 2.01 2.19zM134.59 137.32l-1.54 2.3-1.56-2.3h-2.52l2.79 3.8-2.93 3.88h2.51l1.71-2.35 1.7 2.35h2.51l-2.93-3.87 2.77-3.81h-2.51zM139.4 147.32l1.56-4.3h-2.35l-1 4.3h1.78zm1.58-8.74c0-.9-.63-1.3-1.36-1.3-.7 0-1.35.4-1.35 1.3 0 .92.64 1.33 1.35 1.33.73 0 1.36-.41 1.36-1.33zM394.17 28v-5.06c.37-.48.97-.92 1.65-.92.7 0 1.2.46 1.2 1.26V28h2.2v-4.86l-.01-.36a2.1 2.1 0 011.52-.76c.7 0 1.2.46 1.2 1.26V28h2.2v-4.86c0-1.36-.7-3.04-2.86-3.04-1.05 0-1.92.5-2.56 1.13-.45-.65-1.2-1.13-2.35-1.13-1.17 0-2.05.64-2.45 1.12v-.9h-1.97V28h2.23zM412.8 26.02v-2.45c0-2.53-1.46-3.47-3.77-3.47-1.18 0-2.35.3-2.97.5v1.93a7.36 7.36 0 012.72-.58c1.2 0 1.8.53 1.8 1.3v.27a8.38 8.38 0 00-1.82-.2c-1.54 0-3.38.6-3.38 2.55 0 1.52 1.25 2.35 2.7 2.35 1.13 0 2-.35 2.76-.94.32.58.91.86 1.7.86.43 0 .88-.1 1.23-.22v-1.46c-.15.05-.29.07-.42.07-.29 0-.54-.11-.54-.51zm-3.53-1.38c.47 0 .98.1 1.31.18v1.2c-.5.44-1.1.62-1.72.62-.68 0-1.2-.37-1.2-.94 0-.79.8-1.06 1.61-1.06zM416.79 21.47v-1.15h-1.97V28h2.22v-4.51c.47-.91 1.63-1.38 2.85-1.17v-2.16c-1.44-.14-2.56.46-3.1 1.31zM420.48 24.16c0 2.1 1.31 4.06 3.76 4.06a3.3 3.3 0 002.53-1.04v.7c0 1.53-1.14 2-2.5 2-1.05 0-2.1-.3-2.96-.8v1.94c.93.45 2.05.72 3.25.72 2.26 0 4.42-1.02 4.42-3.95v-7.47h-1.96v1.12a3.28 3.28 0 00-2.78-1.34c-2.45 0-3.76 1.96-3.76 4.06zm6.29-.91v1.87a2.2 2.2 0 01-2 1.23c-1.26 0-2.02-.99-2.02-2.19s.75-2.2 2.02-2.2c.98 0 1.7.62 2 1.29zM433.1 28v-7.68h-2.22V28h2.23zm.2-10.22c0-.87-.61-1.25-1.31-1.25-.7 0-1.3.38-1.3 1.25 0 .88.6 1.26 1.3 1.26.7 0 1.3-.38 1.3-1.26zM436.99 21.3v-.98h-1.97V28h2.23v-5c.32-.47.92-.98 1.7-.98.87 0 1.5.48 1.5 1.52V28h2.22v-4.75c0-1.78-1.1-3.15-3.12-3.15-1.1 0-1.97.5-2.56 1.2zM447.12 22.03c0-.9-.63-1.31-1.35-1.31-.72 0-1.36.42-1.36 1.31 0 .91.64 1.31 1.36 1.31.72 0 1.35-.4 1.35-1.3zm0 4.87c0-.9-.63-1.32-1.35-1.32-.72 0-1.36.42-1.36 1.32 0 .9.64 1.3 1.36 1.3.72 0 1.35-.4 1.35-1.3zM455.02 17.12l-2.64 1v2.17l2.05-.77v6.42h-2.05V28h6.2v-2.06h-1.82v-8.82h-1.74zM459.63 22.56c0 3.14 1.48 5.66 4.95 5.66 3.48 0 4.97-2.52 4.97-5.66s-1.5-5.66-4.97-5.66c-3.47 0-4.95 2.52-4.95 5.66zm7.51 0c0 2.32-.8 3.55-2.56 3.55-1.75 0-2.56-1.23-2.56-3.55s.8-3.55 2.56-3.55c1.77 0 2.56 1.23 2.56 3.55zM473.15 21.44v-1.12h-1.97v11.2h2.22v-4.34a3.3 3.3 0 002.53 1.04c2.43 0 3.74-1.96 3.74-4.06 0-2.1-1.3-4.06-3.74-4.06-1.42 0-2.3.65-2.78 1.34zm4.25 2.72c0 1.2-.75 2.2-2.01 2.2-.98 0-1.7-.62-2-1.29v-1.82a2.2 2.2 0 012-1.28c1.26 0 2.01.99 2.01 2.19zM485.59 20.32l-1.54 2.3-1.56-2.3h-2.52l2.79 3.8-2.93 3.88h2.51l1.71-2.35 1.7 2.35h2.51l-2.93-3.87 2.77-3.81h-2.51zM490.4 30.32l1.56-4.3h-2.35l-1 4.3h1.78zm1.58-8.74c0-.9-.63-1.3-1.36-1.3-.7 0-1.35.4-1.35 1.3 0 .92.64 1.33 1.35 1.33.73 0 1.36-.41 1.36-1.33zM394.17 145v-5.06c.37-.48.97-.92 1.65-.92.7 0 1.2.46 1.2 1.26V145h2.2v-4.86l-.01-.36a2.1 2.1 0 011.52-.76c.7 0 1.2.46 1.2 1.26V145h2.2v-4.86c0-1.36-.7-3.04-2.86-3.04-1.05 0-1.92.5-2.56 1.13-.45-.65-1.2-1.13-2.35-1.13-1.17 0-2.05.64-2.45 1.12v-.9h-1.97V145h2.23zM412.8 143.02v-2.45c0-2.53-1.46-3.47-3.77-3.47-1.18 0-2.35.3-2.97.5v1.93a7.36 7.36 0 012.72-.58c1.2 0 1.8.53 1.8 1.3v.27a8.38 8.38 0 00-1.82-.2c-1.54 0-3.38.6-3.38 2.55 0 1.52 1.25 2.35 2.7 2.35 1.13 0 2-.35 2.76-.94.32.58.91.86 1.7.86.43 0 .88-.1 1.23-.22v-1.46c-.15.05-.29.07-.42.07-.29 0-.54-.11-.54-.51zm-3.53-1.38c.47 0 .98.1 1.31.18v1.2c-.5.44-1.1.62-1.72.62-.68 0-1.2-.37-1.2-.94 0-.79.8-1.06 1.61-1.06zM416.79 138.47v-1.15h-1.97V145h2.22v-4.51c.47-.91 1.63-1.38 2.85-1.17v-2.16c-1.44-.14-2.56.46-3.1 1.31zM420.48 141.16c0 2.1 1.31 4.06 3.76 4.06a3.3 3.3 0 002.53-1.04v.7c0 1.53-1.14 2-2.5 2-1.05 0-2.1-.3-2.96-.8v1.94c.93.45 2.05.72 3.25.72 2.26 0 4.42-1.02 4.42-3.95v-7.47h-1.96v1.12a3.28 3.28 0 00-2.78-1.34c-2.45 0-3.76 1.96-3.76 4.06zm6.29-.91v1.87a2.2 2.2 0 01-2 1.23c-1.26 0-2.02-.99-2.02-2.19s.75-2.2 2.02-2.2c.98 0 1.7.62 2 1.29zM433.1 145v-7.68h-2.22V145h2.23zm.2-10.22c0-.87-.61-1.25-1.31-1.25-.7 0-1.3.38-1.3 1.25 0 .88.6 1.26 1.3 1.26.7 0 1.3-.38 1.3-1.26zM436.99 138.3v-.98h-1.97V145h2.23v-5c.32-.47.92-.98 1.7-.98.87 0 1.5.48 1.5 1.52V145h2.22v-4.75c0-1.78-1.1-3.15-3.12-3.15-1.1 0-1.97.5-2.56 1.2zM447.12 139.03c0-.9-.63-1.31-1.35-1.31-.72 0-1.36.42-1.36 1.31 0 .91.64 1.31 1.36 1.31.72 0 1.35-.4 1.35-1.3zm0 4.87c0-.9-.63-1.32-1.35-1.32-.72 0-1.36.42-1.36 1.32 0 .9.64 1.3 1.36 1.3.72 0 1.35-.4 1.35-1.3zM455.02 134.12l-2.64 1v2.17l2.05-.77v6.42h-2.05V145h6.2v-2.06h-1.82v-8.82h-1.74zM459.63 139.56c0 3.14 1.48 5.66 4.95 5.66 3.48 0 4.97-2.52 4.97-5.66s-1.5-5.66-4.97-5.66c-3.47 0-4.95 2.52-4.95 5.66zm7.51 0c0 2.32-.8 3.55-2.56 3.55-1.75 0-2.56-1.23-2.56-3.55s.8-3.55 2.56-3.55c1.77 0 2.56 1.23 2.56 3.55zM473.15 138.44v-1.12h-1.97v11.2h2.22v-4.34a3.3 3.3 0 002.53 1.04c2.43 0 3.74-1.96 3.74-4.06 0-2.1-1.3-4.06-3.74-4.06-1.42 0-2.3.65-2.78 1.34zm4.25 2.72c0 1.2-.75 2.2-2.01 2.2-.98 0-1.7-.62-2-1.29v-1.82a2.2 2.2 0 012-1.28c1.26 0 2.01.99 2.01 2.19zM485.59 137.32l-1.54 2.3-1.56-2.3h-2.52l2.79 3.8-2.93 3.88h2.51l1.71-2.35 1.7 2.35h2.51l-2.93-3.87 2.77-3.81h-2.51zM490.4 147.32l1.56-4.3h-2.35l-1 4.3h1.78zm1.58-8.74c0-.9-.63-1.3-1.36-1.3-.7 0-1.35.4-1.35 1.3 0 .92.64 1.33 1.35 1.33.73 0 1.36-.41 1.36-1.33z" fill="#333"/><path d="M0 245h705v129H0V245z" fill="#fff"/><path fill-rule="evenodd" clip-rule="evenodd" d="M703 247H2v125h701V247zM0 245v129h705V245H0z" fill="#AAA"/><path d="M4 249h328v40H4v-40z" fill="#A8DDA2"/><path d="M373 249h328v40H373v-40z" fill="#FFD699"/><path d="M4 330h328v40H4v-40z" fill="#F7C9BA"/><path d="M373 330h328v40H373v-40z" fill="#C8C4EE"/><path d="M303.76 309.2c0 2.62 1.64 5.08 4.7 5.08 1.52 0 2.54-.62 3.16-1.3v.88c0 1.9-1.42 2.48-3.12 2.48a7.32 7.32 0 01-3.7-1v2.44a9.4 9.4 0 004.06.9c2.82 0 5.52-1.28 5.52-4.94v-9.34h-2.44v1.4a4.1 4.1 0 00-3.48-1.68c-3.06 0-4.7 2.46-4.7 5.08zm7.86-1.14v2.34a2.76 2.76 0 01-2.5 1.54c-1.58 0-2.52-1.24-2.52-2.74 0-1.5.94-2.74 2.52-2.74 1.22 0 2.12.76 2.5 1.6zM325.32 311.52v-3.06c0-3.16-1.84-4.34-4.72-4.34-1.48 0-2.94.38-3.72.64v2.4a9.2 9.2 0 013.4-.72c1.5 0 2.26.66 2.26 1.62v.34c-.68-.16-1.52-.26-2.28-.26-1.92 0-4.22.76-4.22 3.2 0 1.9 1.56 2.94 3.36 2.94 1.42 0 2.52-.44 3.46-1.18.4.72 1.14 1.08 2.12 1.08.54 0 1.1-.12 1.54-.28v-1.82c-.18.06-.36.08-.52.08-.36 0-.68-.14-.68-.64zm-4.42-1.72c.58 0 1.22.12 1.64.22v1.5c-.64.56-1.38.78-2.16.78-.84 0-1.5-.46-1.5-1.18 0-.98 1-1.32 2.02-1.32zM330.3 305.8v-1.4h-2.46v14h2.78v-5.42c.62.68 1.64 1.3 3.16 1.3 3.04 0 4.68-2.46 4.68-5.08s-1.64-5.08-4.68-5.08c-1.78 0-2.88.82-3.48 1.68zm5.32 3.4c0 1.5-.94 2.74-2.52 2.74a2.74 2.74 0 01-2.5-1.6v-2.28a2.74 2.74 0 012.5-1.6c1.58 0 2.52 1.24 2.52 2.74zM343.6 306.54c0-1.12-.78-1.64-1.68-1.64-.9 0-1.7.52-1.7 1.64 0 1.14.8 1.64 1.7 1.64.9 0 1.68-.5 1.68-1.64zm0 6.08c0-1.12-.78-1.64-1.68-1.64-.9 0-1.7.52-1.7 1.64 0 1.12.8 1.64 1.7 1.64.9 0 1.68-.52 1.68-1.64zM353.48 300.4l-3.3 1.26v2.7l2.56-.96v8.02h-2.56V314h7.76v-2.58h-2.28V300.4h-2.18zM359.24 307.2c0 3.92 1.86 7.08 6.2 7.08s6.2-3.16 6.2-7.08-1.86-7.08-6.2-7.08-6.2 3.16-6.2 7.08zm9.4 0c0 2.9-1 4.44-3.2 4.44s-3.2-1.54-3.2-4.44c0-2.9 1-4.44 3.2-4.44s3.2 1.54 3.2 4.44zM376.14 305.8v-1.4h-2.46v14h2.78v-5.42c.62.68 1.64 1.3 3.16 1.3 3.04 0 4.68-2.46 4.68-5.08s-1.64-5.08-4.68-5.08c-1.78 0-2.88.82-3.48 1.68zm5.32 3.4c0 1.5-.94 2.74-2.52 2.74a2.74 2.74 0 01-2.5-1.6v-2.28a2.74 2.74 0 012.5-1.6c1.58 0 2.52 1.24 2.52 2.74zM391.7 304.4l-1.93 2.88-1.96-2.88h-3.14l3.48 4.76-3.66 4.84h3.14l2.14-2.94 2.12 2.94h3.14l-3.66-4.84 3.46-4.76h-3.14zM397.7 316.9l1.96-5.38h-2.94l-1.26 5.38h2.24zm1.98-10.92c0-1.12-.78-1.62-1.7-1.62-.88 0-1.68.5-1.68 1.62 0 1.14.8 1.66 1.68 1.66.92 0 1.7-.52 1.7-1.66z" fill="#333"/></svg>