<svg width="705" height="292" viewBox="0 0 705 292" fill="none" xmlns="http://www.w3.org/2000/svg"><path d="M0 0h705v292H0V0z" fill="#E8E8E8"/><path d="M40 40h625v212H40V40z" fill="#F8F8F8"/><path d="M82 82h541v128H82V82z" fill="#E8E8E8"/><path d="M122 122h461v48H122v-48z" fill="#4839C6"/><path d="M312.1 147.4c0 4.11 3.15 5.94 6.3 5.94 1.46 0 2.75-.3 3.88-.77v-2.95c-.84.5-2.02.84-3.24.84-1.8 0-3.53-1.01-3.53-3.22 0-2.33 1.75-3.22 3.58-3.22 1.1 0 2.25.34 3.07.87v-2.93a7.6 7.6 0 00-3.55-.84c-3.2 0-6.5 1.87-6.5 6.29zM323.87 147.24c0 4.03 3.02 6.1 6.36 6.1 3.36 0 6.36-2.07 6.36-6.1 0-4.03-3-6.1-6.36-6.1-3.34 0-6.36 2.07-6.36 6.1zm9.34 0c0 1.78-1.06 3.12-2.98 3.12-1.9 0-2.95-1.34-2.95-3.12s1.05-3.12 2.95-3.12c1.92 0 2.98 1.34 2.98 3.12zM341.72 142.94v-1.46h-2.95V153h3.33v-7.51c.48-.7 1.4-1.47 2.57-1.47 1.3 0 2.23.72 2.23 2.28v6.7h3.34v-7.13c0-2.66-1.66-4.73-4.68-4.73-1.66 0-2.95.77-3.84 1.8zM353.7 138.12v3.36h-1.95v2.8h1.94v5.17c0 2.85 1.92 3.89 4.16 3.89 1.15 0 2.2-.2 3.1-.5v-2.7c-.68.27-1.33.39-2.1.39-1.24 0-1.84-.53-1.84-1.73v-4.51h3.64v-2.81h-3.64v-4.15l-3.32.79zM362.21 147.24c0 4 3.03 6.1 6.68 6.1 1.72 0 3.14-.27 4.22-.72V150c-.99.43-2.16.7-3.48.7-1.9 0-3.67-.7-4.06-2.38h8.12c.76-3.4-.77-7.18-5.55-7.18-2.6 0-5.93 1.76-5.93 6.1zm8.48-1.08h-5.14c.05-1.58 1.3-2.47 2.71-2.47 2.09 0 2.55 1.68 2.43 2.47zM378.94 142.94v-1.46h-2.95V153h3.33v-7.51c.48-.7 1.4-1.47 2.57-1.47 1.3 0 2.23.72 2.23 2.28v6.7h3.34v-7.13c0-2.66-1.66-4.73-4.68-4.73-1.66 0-2.95.77-3.84 1.8zM390.91 138.12v3.36h-1.94v2.8h1.94v5.17c0 2.85 1.92 3.89 4.15 3.89 1.16 0 2.21-.2 3.1-.5v-2.7c-.67.27-1.32.39-2.09.39-1.25 0-1.84-.53-1.84-1.73v-4.51h3.64v-2.81h-3.64v-4.15l-3.32.79z" fill="#fff"/><path d="M124.91 99.44v-1.12h-1.97v11.2h2.23v-4.34a3.3 3.3 0 002.53 1.04c2.43 0 3.74-1.96 3.74-4.06 0-2.1-1.31-4.06-3.74-4.06-1.43 0-2.3.65-2.79 1.34zm4.26 2.72c0 1.2-.75 2.2-2.02 2.2-.97 0-1.7-.62-2-1.29v-1.82a2.2 2.2 0 012-1.28c1.27 0 2.02.99 2.02 2.19zM139.76 104.02v-2.45c0-2.53-1.47-3.47-3.77-3.47-1.19 0-2.36.3-2.98.5v1.93a7.36 7.36 0 012.72-.58c1.2 0 1.8.53 1.8 1.3v.27a8.38 8.38 0 00-1.82-.2c-1.53 0-3.37.6-3.37 2.55 0 1.52 1.25 2.35 2.69 2.35 1.13 0 2.01-.35 2.76-.94.32.58.92.86 1.7.86.43 0 .88-.1 1.23-.22v-1.46c-.14.05-.29.07-.41.07-.3 0-.55-.11-.55-.51zm-3.53-1.38c.46 0 .97.1 1.3.18v1.2c-.5.44-1.1.62-1.72.62-.67 0-1.2-.37-1.2-.94 0-.79.8-1.06 1.61-1.06zM147.63 94.8v4.34a3.3 3.3 0 00-2.53-1.04c-2.45 0-3.76 1.96-3.76 4.06 0 2.1 1.31 4.06 3.76 4.06 1.4 0 2.29-.65 2.78-1.34V106h1.96V94.8h-2.21zm0 6.45v1.82a2.2 2.2 0 01-2 1.28c-1.27 0-2.02-.99-2.02-2.19s.75-2.2 2.02-2.2c.97 0 1.7.62 2 1.29zM157.58 94.8v4.34a3.3 3.3 0 00-2.53-1.04c-2.45 0-3.76 1.96-3.76 4.06 0 2.1 1.31 4.06 3.76 4.06 1.41 0 2.3-.65 2.79-1.34V106h1.95V94.8h-2.2zm0 6.45v1.82a2.2 2.2 0 01-2 1.28c-1.26 0-2.02-.99-2.02-2.19s.76-2.2 2.02-2.2c.98 0 1.7.62 2 1.29zM163.92 106v-7.68h-2.23V106h2.23zm.19-10.22c0-.87-.6-1.25-1.31-1.25-.69 0-1.3.38-1.3 1.25 0 .88.61 1.26 1.3 1.26.7 0 1.31-.38 1.31-1.26zM167.8 99.3v-.98h-1.97V106h2.23v-5c.32-.47.93-.98 1.71-.98.86 0 1.49.48 1.49 1.52V106h2.22v-4.75c0-1.78-1.1-3.15-3.12-3.15-1.1 0-1.97.5-2.56 1.2zM174.84 102.16c0 2.1 1.31 4.06 3.76 4.06a3.3 3.3 0 002.53-1.04v.7c0 1.53-1.14 2-2.5 2-1.05 0-2.1-.3-2.96-.8v1.94c.93.45 2.05.72 3.25.72 2.26 0 4.42-1.02 4.42-3.95v-7.47h-1.96v1.12a3.28 3.28 0 00-2.78-1.34c-2.45 0-3.76 1.96-3.76 4.06zm6.29-.91v1.87a2.2 2.2 0 01-2 1.23c-1.27 0-2.02-.99-2.02-2.19s.75-2.2 2.02-2.2c.97 0 1.7.62 2 1.29zM82.94 54.8V66h1.97v-1.12a3.24 3.24 0 002.79 1.34c2.43 0 3.74-1.96 3.74-4.06 0-2.1-1.31-4.06-3.74-4.06-1.22 0-2.05.5-2.53 1.04V54.8h-2.23zm6.23 7.36c0 1.2-.75 2.2-2.02 2.2-.97 0-1.7-.62-2-1.29v-1.82a2.2 2.2 0 012-1.28c1.27 0 2.02.99 2.02 2.19zM92.47 62.16c0 2.69 2.01 4.06 4.24 4.06 2.24 0 4.23-1.37 4.23-4.06 0-2.69-2-4.06-4.23-4.06-2.23 0-4.24 1.37-4.24 4.06zm6.22 0c0 1.18-.7 2.08-1.98 2.08-1.27 0-1.97-.9-1.97-2.08 0-1.18.7-2.08 1.97-2.08 1.28 0 1.98.9 1.98 2.08zM104.36 59.47v-1.15h-1.96V66h2.22v-4.51c.46-.91 1.63-1.38 2.85-1.17v-2.16c-1.44-.14-2.56.46-3.1 1.31zM114.35 54.8v4.34a3.3 3.3 0 00-2.53-1.04c-2.45 0-3.76 1.96-3.76 4.06 0 2.1 1.31 4.06 3.76 4.06 1.4 0 2.29-.65 2.78-1.34V66h1.96V54.8h-2.21zm0 6.45v1.82a2.2 2.2 0 01-2 1.28c-1.27 0-2.02-.99-2.02-2.19s.75-2.2 2.02-2.2c.97 0 1.7.62 2 1.29zM118.01 62.16c0 2.67 2.02 4.06 4.45 4.06a7.3 7.3 0 002.82-.48V64c-.66.29-1.44.46-2.32.46-1.27 0-2.45-.46-2.7-1.58h5.4c.51-2.27-.51-4.78-3.7-4.78a3.87 3.87 0 00-3.95 4.06zm5.65-.72h-3.42c.03-1.06.86-1.65 1.8-1.65 1.4 0 1.7 1.12 1.62 1.65zM129.16 59.47v-1.15h-1.97V66h2.23v-4.51c.46-.91 1.63-1.38 2.85-1.17v-2.16c-1.44-.14-2.56.46-3.1 1.31zM43.17 24v-5.06c.37-.48.97-.92 1.65-.92.7 0 1.2.46 1.2 1.26V24h2.2v-4.86l-.01-.36a2.1 2.1 0 011.52-.76c.7 0 1.2.46 1.2 1.26V24h2.2v-4.86c0-1.36-.7-3.04-2.86-3.04-1.05 0-1.92.5-2.56 1.13-.45-.65-1.2-1.13-2.35-1.13-1.17 0-2.05.64-2.45 1.12v-.9h-1.97V24h2.23zM61.8 22.02v-2.45c0-2.53-1.46-3.47-3.77-3.47-1.18 0-2.35.3-2.97.5v1.93a7.36 7.36 0 012.72-.58c1.2 0 1.8.53 1.8 1.3v.27a8.38 8.38 0 00-1.82-.2c-1.54 0-3.38.6-3.38 2.55 0 1.52 1.25 2.35 2.7 2.35 1.13 0 2-.35 2.76-.94.32.58.91.86 1.7.86.43 0 .88-.1 1.23-.22v-1.46c-.15.05-.29.07-.42.07-.29 0-.54-.11-.54-.51zm-3.53-1.38c.47 0 .98.1 1.31.18v1.2c-.5.44-1.1.62-1.72.62-.68 0-1.2-.37-1.2-.94 0-.79.8-1.06 1.61-1.06zM65.79 17.47v-1.15h-1.97V24h2.22v-4.51c.47-.91 1.63-1.38 2.85-1.17v-2.16c-1.44-.14-2.56.46-3.1 1.31zM69.48 20.16c0 2.1 1.31 4.06 3.76 4.06a3.3 3.3 0 002.53-1.04v.7c0 1.53-1.14 2-2.5 2-1.05 0-2.1-.3-2.96-.8v1.94c.93.45 2.05.72 3.25.72 2.26 0 4.42-1.02 4.42-3.95v-7.47h-1.96v1.12a3.28 3.28 0 00-2.78-1.34c-2.45 0-3.76 1.96-3.76 4.06zm6.29-.91v1.87a2.2 2.2 0 01-2 1.23c-1.27 0-2.02-.99-2.02-2.19s.75-2.2 2.02-2.2c.97 0 1.7.62 2 1.29zM82.1 24v-7.68h-2.22V24h2.23zm.2-10.22c0-.87-.61-1.25-1.31-1.25-.7 0-1.3.38-1.3 1.25 0 .88.6 1.26 1.3 1.26.7 0 1.3-.38 1.3-1.26zM85.99 17.3v-.98h-1.97V24h2.23v-5c.32-.47.92-.98 1.7-.98.87 0 1.5.48 1.5 1.52V24h2.22v-4.75c0-1.78-1.1-3.15-3.12-3.15-1.1 0-1.97.5-2.56 1.2z" fill="#AAA"/></svg>