<svg width="705" height="156" viewBox="0 0 705 156" fill="none" xmlns="http://www.w3.org/2000/svg"><path d="M0 0h705v156H0V0z" fill="#fff"/><path fill-rule="evenodd" clip-rule="evenodd" d="M703 2H2v152h701V2zM0 0v156h705V0H0z" fill="#AAA"/><path d="M4 4h229v148H4V4z" fill="#EEF8EC"/><path d="M4 88h229v64H4V88z" fill="#A8DDA2"/><path d="M238 4h229v148H238V4z" fill="#FFF5E6"/><path d="M238 4h229v64H238V4z" fill="#FFD699"/><path d="M472 4h229v148H472V4z" fill="#EDEBF9"/><path d="M472 46h229v64H472V46z" fill="#C8C4EE"/><path d="M47.04 30v-5.69c.41-.54 1.1-1.04 1.85-1.04.8 0 1.35.52 1.35 1.42V30h2.49v-5.47c0-.15 0-.27-.02-.4a2.37 2.37 0 011.71-.86c.8 0 1.35.52 1.35 1.42V30h2.48v-5.47c0-1.53-.79-3.42-3.22-3.42-1.19 0-2.16.57-2.88 1.28-.5-.74-1.35-1.28-2.64-1.28a3.7 3.7 0 00-2.76 1.26v-1.01h-2.21V30h2.5zM68.01 27.77V25c0-2.84-1.66-3.9-4.25-3.9-1.33 0-2.64.34-3.35.57v2.16a8.28 8.28 0 013.06-.64c1.35 0 2.04.59 2.04 1.45v.31a9.43 9.43 0 00-2.05-.23c-1.73 0-3.8.68-3.8 2.88 0 1.7 1.4 2.64 3.02 2.64 1.28 0 2.27-.4 3.12-1.06.36.65 1.02.97 1.9.97.5 0 1-.1 1.4-.25v-1.64c-.17.06-.33.07-.48.07-.32 0-.6-.12-.6-.57zm-3.98-1.55c.52 0 1.1.1 1.48.2v1.35c-.58.5-1.24.7-1.95.7-.75 0-1.35-.41-1.35-1.06 0-.88.9-1.19 1.82-1.19zM72.49 22.66v-1.3h-2.22V30h2.5v-5.08c.53-1.02 1.84-1.54 3.2-1.31v-2.43c-1.61-.16-2.87.52-3.48 1.48zM76.64 25.68c0 2.36 1.48 4.57 4.23 4.57 1.37 0 2.29-.56 2.85-1.17v.8c0 1.7-1.28 2.23-2.81 2.23a6.59 6.59 0 01-3.33-.9v2.2c1.04.5 2.3.8 3.65.8 2.54 0 4.97-1.15 4.97-4.44v-8.41H84v1.26a3.7 3.7 0 00-3.13-1.51c-2.75 0-4.23 2.21-4.23 4.57zm7.08-1.03v2.11a2.48 2.48 0 01-2.25 1.39c-1.43 0-2.27-1.12-2.27-2.47s.84-2.47 2.27-2.47c1.1 0 1.9.69 2.25 1.44zM90.85 30v-8.64h-2.5V30h2.5zm.21-11.5c0-.97-.68-1.4-1.47-1.4-.78 0-1.46.43-1.46 1.4 0 .99.68 1.42 1.46 1.42.79 0 1.47-.43 1.47-1.42zM95.22 22.46v-1.1H93V30h2.5v-5.63a2.43 2.43 0 011.93-1.1c.97 0 1.67.54 1.67 1.7V30h2.5v-5.35c0-2-1.24-3.54-3.5-3.54-1.25 0-2.22.57-2.88 1.35zM103.55 24.56v2.11h6.7v-2.1h-6.7zM112.72 18.84v2.52h-1.46v2.1h1.46v3.88c0 2.14 1.44 2.91 3.12 2.91.86 0 1.65-.14 2.32-.38v-2.01c-.5.2-1 .29-1.57.29-.93 0-1.38-.4-1.38-1.3v-3.38h2.73v-2.11h-2.73v-3.11l-2.49.59zM119.11 25.68c0 3.02 2.27 4.57 4.77 4.57 2.52 0 4.77-1.55 4.77-4.57 0-3.02-2.25-4.57-4.77-4.57-2.5 0-4.77 1.55-4.77 4.57zm7 0c0 1.33-.79 2.34-2.23 2.34-1.42 0-2.21-1-2.21-2.34 0-1.33.79-2.34 2.21-2.34 1.44 0 2.23 1 2.23 2.34zM132.5 22.62v-1.26h-2.22v12.6h2.5v-4.88a3.72 3.72 0 002.85 1.17c2.74 0 4.21-2.21 4.21-4.57 0-2.36-1.47-4.57-4.2-4.57-1.61 0-2.6.74-3.14 1.51zm4.79 3.06c0 1.35-.85 2.47-2.27 2.47-1.1 0-1.9-.69-2.25-1.44v-2.06a2.47 2.47 0 012.25-1.44c1.42 0 2.27 1.12 2.27 2.47zM144.47 23.29c0-1.01-.7-1.48-1.51-1.48s-1.53.47-1.53 1.48c0 1.02.72 1.47 1.53 1.47.8 0 1.51-.45 1.51-1.47zm0 5.47c0-1.01-.7-1.48-1.51-1.48s-1.53.47-1.53 1.48c0 1 .72 1.47 1.53 1.47.8 0 1.51-.46 1.51-1.47zM158.26 27.77V25c0-2.84-1.66-3.9-4.25-3.9-1.33 0-2.65.34-3.35.57v2.16a8.28 8.28 0 013.06-.64c1.35 0 2.03.59 2.03 1.45v.31a9.43 9.43 0 00-2.05-.23c-1.72 0-3.8.68-3.8 2.88 0 1.7 1.4 2.64 3.03 2.64 1.28 0 2.27-.4 3.11-1.06.36.65 1.03.97 1.91.97.49 0 1-.1 1.39-.25v-1.64c-.16.06-.33.07-.47.07-.33 0-.61-.12-.61-.57zm-3.98-1.55c.52 0 1.1.1 1.47.2v1.35c-.57.5-1.24.7-1.94.7-.75 0-1.35-.41-1.35-1.06 0-.88.9-1.19 1.82-1.19zM166.51 21.36v5.63a2.46 2.46 0 01-1.94 1.1c-1.03 0-1.66-.56-1.66-1.7v-5.03h-2.5v5.35c0 2 1.17 3.54 3.51 3.54 1.23 0 2.22-.57 2.88-1.35V30h2.21v-8.64h-2.5zM171.78 18.84v2.52h-1.45v2.1h1.45v3.88c0 2.14 1.44 2.91 3.12 2.91.86 0 1.65-.14 2.32-.38v-2.01c-.5.2-.99.29-1.57.29-.93 0-1.38-.4-1.38-1.3v-3.38H177v-2.11h-2.73v-3.11l-2.49.59zM178.17 25.68c0 3.02 2.27 4.57 4.77 4.57 2.52 0 4.77-1.55 4.77-4.57 0-3.02-2.25-4.57-4.77-4.57-2.5 0-4.77 1.55-4.77 4.57zm7 0c0 1.33-.79 2.34-2.23 2.34-1.42 0-2.21-1-2.21-2.34 0-1.33.8-2.34 2.21-2.34 1.44 0 2.24 1 2.24 2.34zM190.66 32.61l1.77-4.84h-2.65l-1.13 4.84h2.01zm1.78-9.83c0-1-.7-1.46-1.53-1.46-.79 0-1.5.45-1.5 1.46 0 1.03.71 1.5 1.5 1.5.83 0 1.53-.47 1.53-1.5zM515.04 30v-5.69c.42-.54 1.1-1.04 1.86-1.04.79 0 1.35.52 1.35 1.42V30h2.48v-5.47c0-.15 0-.27-.02-.4a2.37 2.37 0 011.71-.86c.8 0 1.35.52 1.35 1.42V30h2.49v-5.47c0-1.53-.8-3.42-3.23-3.42-1.18 0-2.16.57-2.88 1.28-.5-.74-1.35-1.28-2.64-1.28a3.7 3.7 0 00-2.76 1.26v-1.01h-2.21V30h2.5zM536.01 27.77V25c0-2.84-1.65-3.9-4.25-3.9-1.33 0-2.64.34-3.35.57v2.16a8.28 8.28 0 013.07-.64c1.35 0 2.03.59 2.03 1.45v.31a9.43 9.43 0 00-2.05-.23c-1.73 0-3.8.68-3.8 2.88 0 1.7 1.4 2.64 3.02 2.64 1.28 0 2.27-.4 3.12-1.06.36.65 1.02.97 1.9.97.5 0 1-.1 1.4-.25v-1.64c-.17.06-.33.07-.48.07-.32 0-.6-.12-.6-.57zm-3.98-1.55c.52 0 1.1.1 1.48.2v1.35c-.58.5-1.24.7-1.94.7-.76 0-1.36-.41-1.36-1.06 0-.88.9-1.19 1.82-1.19zM540.49 22.66v-1.3h-2.22V30h2.5v-5.08c.53-1.02 1.84-1.54 3.2-1.31v-2.43c-1.61-.16-2.87.52-3.48 1.48zM544.64 25.68c0 2.36 1.48 4.57 4.23 4.57 1.37 0 2.29-.56 2.85-1.17v.8c0 1.7-1.28 2.23-2.81 2.23a6.59 6.59 0 01-3.33-.9v2.2c1.04.5 2.3.8 3.65.8 2.54 0 4.97-1.15 4.97-4.44v-8.41H552v1.26a3.7 3.7 0 00-3.13-1.51c-2.75 0-4.23 2.21-4.23 4.57zm7.08-1.03v2.11a2.48 2.48 0 01-2.25 1.39c-1.43 0-2.27-1.12-2.27-2.47s.84-2.47 2.27-2.47c1.1 0 1.9.69 2.25 1.44zM558.85 30v-8.64h-2.5V30h2.5zm.21-11.5c0-.97-.68-1.4-1.47-1.4-.78 0-1.46.43-1.46 1.4 0 .99.68 1.42 1.46 1.42.79 0 1.47-.43 1.47-1.42zM563.22 22.46v-1.1H561V30h2.5v-5.63a2.43 2.43 0 011.93-1.1c.97 0 1.67.54 1.67 1.7V30h2.5v-5.35c0-2-1.24-3.54-3.5-3.54-1.25 0-2.22.57-2.88 1.35zM571.55 24.56v2.11h6.7v-2.1h-6.7zM580.72 18.84v2.52h-1.46v2.1h1.46v3.88c0 2.14 1.44 2.91 3.12 2.91.86 0 1.65-.14 2.32-.38v-2.01c-.5.2-1 .29-1.57.29-.93 0-1.38-.4-1.38-1.3v-3.38h2.73v-2.11h-2.73v-3.11l-2.49.59zM587.11 25.68c0 3.02 2.27 4.57 4.77 4.57 2.52 0 4.77-1.55 4.77-4.57 0-3.02-2.25-4.57-4.77-4.57-2.5 0-4.77 1.55-4.77 4.57zm7 0c0 1.33-.79 2.34-2.23 2.34-1.42 0-2.21-1-2.21-2.34 0-1.33.79-2.34 2.21-2.34 1.44 0 2.23 1 2.23 2.34zM600.5 22.62v-1.26h-2.22v12.6h2.5v-4.88a3.72 3.72 0 002.85 1.17c2.74 0 4.21-2.21 4.21-4.57 0-2.36-1.47-4.57-4.2-4.57-1.61 0-2.6.74-3.14 1.51zm4.79 3.06c0 1.35-.85 2.47-2.27 2.47-1.1 0-1.9-.69-2.25-1.44v-2.06a2.47 2.47 0 012.25-1.44c1.42 0 2.27 1.12 2.27 2.47zM612.47 23.29c0-1.01-.7-1.48-1.51-1.48s-1.53.47-1.53 1.48c0 1.02.72 1.47 1.53 1.47.8 0 1.51-.45 1.51-1.47zm0 5.47c0-1.01-.7-1.48-1.51-1.48s-1.53.47-1.53 1.48c0 1 .72 1.47 1.53 1.47.8 0 1.51-.46 1.51-1.47zM626.26 27.77V25c0-2.84-1.66-3.9-4.25-3.9-1.33 0-2.65.34-3.35.57v2.16a8.28 8.28 0 013.06-.64c1.35 0 2.03.59 2.03 1.45v.31a9.43 9.43 0 00-2.05-.23c-1.73 0-3.8.68-3.8 2.88 0 1.7 1.4 2.64 3.03 2.64 1.28 0 2.27-.4 3.11-1.06.36.65 1.03.97 1.91.97.49 0 1-.1 1.39-.25v-1.64c-.17.06-.33.07-.47.07-.33 0-.61-.12-.61-.57zm-3.98-1.55c.52 0 1.1.1 1.48.2v1.35c-.58.5-1.25.7-1.95.7-.75 0-1.35-.41-1.35-1.06 0-.88.9-1.19 1.82-1.19zM634.51 21.36v5.63a2.46 2.46 0 01-1.94 1.1c-1.03 0-1.66-.56-1.66-1.7v-5.03h-2.5v5.35c0 2 1.17 3.54 3.51 3.54 1.23 0 2.22-.57 2.88-1.35V30h2.22v-8.64h-2.5zM639.78 18.84v2.52h-1.45v2.1h1.45v3.88c0 2.14 1.44 2.91 3.12 2.91.86 0 1.65-.14 2.32-.38v-2.01c-.5.2-.99.29-1.57.29-.93 0-1.38-.4-1.38-1.3v-3.38H645v-2.11h-2.73v-3.11l-2.49.59zM646.17 25.68c0 3.02 2.27 4.57 4.77 4.57 2.52 0 4.77-1.55 4.77-4.57 0-3.02-2.25-4.57-4.77-4.57-2.5 0-4.77 1.55-4.77 4.57zm7 0c0 1.33-.79 2.34-2.23 2.34-1.42 0-2.21-1-2.21-2.34 0-1.33.8-2.34 2.21-2.34 1.44 0 2.24 1 2.24 2.34zM658.66 32.61l1.76-4.84h-2.64l-1.13 4.84h2.01zm1.78-9.83c0-1-.7-1.46-1.53-1.46-.79 0-1.5.45-1.5 1.46 0 1.03.71 1.5 1.5 1.5.83 0 1.53-.47 1.53-1.5zM264 138v-5.69c.42-.54 1.1-1.04 1.86-1.04.8 0 1.35.52 1.35 1.42V138h2.49v-5.47c0-.15 0-.27-.02-.4a2.37 2.37 0 011.7-.86c.8 0 1.36.52 1.36 1.42V138h2.48v-5.47c0-1.53-.8-3.42-3.22-3.42-1.19 0-2.16.57-2.88 1.28-.5-.74-1.35-1.28-2.65-1.28a3.7 3.7 0 00-2.75 1.26v-1.01h-2.22V138h2.5zM284.98 135.77V133c0-2.84-1.66-3.9-4.25-3.9-1.33 0-2.65.34-3.35.57v2.16a8.28 8.28 0 013.06-.64c1.35 0 2.04.59 2.04 1.45v.31a9.43 9.43 0 00-2.06-.23c-1.73 0-3.8.68-3.8 2.88 0 1.7 1.4 2.64 3.03 2.64 1.28 0 2.27-.4 3.11-1.06.36.65 1.03.97 1.91.97.49 0 1-.1 1.39-.25v-1.64c-.17.06-.33.07-.47.07-.32 0-.61-.12-.61-.57zm-3.98-1.55c.52 0 1.1.1 1.48.2v1.35c-.58.5-1.25.7-1.95.7-.75 0-1.35-.41-1.35-1.06 0-.88.9-1.19 1.82-1.19zM289.45 130.66v-1.3h-2.21V138h2.5v-5.08c.52-1.02 1.84-1.54 3.2-1.31v-2.43c-1.61-.16-2.87.52-3.49 1.48zM293.6 133.68c0 2.36 1.48 4.57 4.24 4.57 1.37 0 2.29-.56 2.84-1.17v.8c0 1.7-1.28 2.23-2.8 2.23a6.59 6.59 0 01-3.33-.9v2.2c1.04.5 2.3.8 3.65.8 2.54 0 4.97-1.15 4.97-4.44v-8.41h-2.2v1.26a3.7 3.7 0 00-3.13-1.51c-2.75 0-4.23 2.21-4.23 4.57zm7.08-1.03v2.11a2.48 2.48 0 01-2.25 1.39c-1.42 0-2.26-1.12-2.26-2.47s.84-2.47 2.26-2.47c1.1 0 1.91.69 2.25 1.44zM307.81 138v-8.64h-2.5V138h2.5zm.22-11.5c0-.97-.69-1.4-1.48-1.4-.77 0-1.46.43-1.46 1.4 0 .99.69 1.42 1.46 1.42.8 0 1.48-.43 1.48-1.42zM312.18 130.46v-1.1h-2.21V138h2.5v-5.63a2.43 2.43 0 011.93-1.1c.97 0 1.67.54 1.67 1.7V138h2.5v-5.35c0-2-1.24-3.54-3.5-3.54-1.25 0-2.22.57-2.89 1.35zM320.51 132.56v2.11h6.7v-2.1h-6.7zM329.27 125.4V138h2.21v-1.26a3.64 3.64 0 003.13 1.51c2.74 0 4.22-2.21 4.22-4.57 0-2.36-1.48-4.57-4.21-4.57-1.37 0-2.3.56-2.85 1.17v-4.88h-2.5zm7 8.28c0 1.35-.84 2.47-2.27 2.47-1.1 0-1.9-.69-2.25-1.44v-2.06a2.47 2.47 0 012.25-1.44c1.43 0 2.27 1.12 2.27 2.47zM339.98 133.68c0 3.02 2.27 4.57 4.77 4.57 2.52 0 4.77-1.55 4.77-4.57 0-3.02-2.25-4.57-4.77-4.57-2.5 0-4.77 1.55-4.77 4.57zm7 0c0 1.33-.79 2.34-2.23 2.34-1.42 0-2.21-1-2.21-2.34 0-1.33.79-2.34 2.21-2.34 1.44 0 2.23 1 2.23 2.34zM351.68 126.84v2.52h-1.46v2.1h1.46v3.88c0 2.14 1.44 2.91 3.11 2.91.87 0 1.66-.14 2.32-.38v-2.01c-.5.2-.99.29-1.56.29-.94 0-1.39-.4-1.39-1.3v-3.38h2.74v-2.11h-2.74v-3.11l-2.48.59zM359.2 126.84v2.52h-1.46v2.1h1.46v3.88c0 2.14 1.44 2.91 3.12 2.91.86 0 1.65-.14 2.32-.38v-2.01c-.5.2-1 .29-1.57.29-.93 0-1.38-.4-1.38-1.3v-3.38h2.73v-2.11h-2.73v-3.11l-2.49.59zM365.6 133.68c0 3.02 2.26 4.57 4.76 4.57 2.52 0 4.77-1.55 4.77-4.57 0-3.02-2.25-4.57-4.77-4.57-2.5 0-4.77 1.55-4.77 4.57zm7 0c0 1.33-.8 2.34-2.24 2.34-1.42 0-2.21-1-2.21-2.34 0-1.33.79-2.34 2.21-2.34 1.44 0 2.23 1 2.23 2.34zM379.27 138v-5.69c.41-.54 1.1-1.04 1.85-1.04.8 0 1.35.52 1.35 1.42V138h2.48v-5.47l-.01-.4a2.37 2.37 0 011.7-.86c.8 0 1.36.52 1.36 1.42V138h2.48v-5.47c0-1.53-.8-3.42-3.22-3.42-1.19 0-2.16.57-2.88 1.28-.5-.74-1.35-1.28-2.65-1.28a3.7 3.7 0 00-2.75 1.26v-1.01h-2.22V138h2.5zM395.5 131.29c0-1.01-.7-1.48-1.5-1.48-.82 0-1.54.47-1.54 1.48 0 1.02.72 1.47 1.53 1.47s1.51-.45 1.51-1.47zm0 5.47c0-1.01-.7-1.48-1.5-1.48-.82 0-1.54.47-1.54 1.48 0 1 .72 1.47 1.53 1.47s1.51-.46 1.51-1.47zM409.29 135.77V133c0-2.84-1.66-3.9-4.25-3.9-1.33 0-2.64.34-3.35.57v2.16a8.28 8.28 0 013.06-.64c1.35 0 2.04.59 2.04 1.45v.31a9.43 9.43 0 00-2.05-.23c-1.73 0-3.8.68-3.8 2.88 0 1.7 1.4 2.64 3.02 2.64 1.28 0 2.27-.4 3.12-1.06.36.65 1.02.97 1.9.97.49 0 1-.1 1.39-.25v-1.64c-.16.06-.32.07-.47.07-.32 0-.61-.12-.61-.57zm-3.98-1.55c.52 0 1.1.1 1.48.2v1.35c-.58.5-1.24.7-1.95.7-.75 0-1.35-.41-1.35-1.06 0-.88.9-1.19 1.82-1.19zM417.55 129.36v5.63a2.46 2.46 0 01-1.95 1.1c-1.02 0-1.65-.56-1.65-1.7v-5.03h-2.5v5.35c0 2 1.16 3.54 3.5 3.54 1.23 0 2.22-.57 2.88-1.35v1.1h2.22v-8.64h-2.5zM422.82 126.84v2.52h-1.46v2.1h1.46v3.88c0 2.14 1.44 2.91 3.11 2.91.87 0 1.66-.14 2.32-.38v-2.01c-.5.2-.99.29-1.56.29-.94 0-1.39-.4-1.39-1.3v-3.38h2.74v-2.11h-2.74v-3.11l-2.48.59zM429.2 133.68c0 3.02 2.28 4.57 4.78 4.57 2.52 0 4.77-1.55 4.77-4.57 0-3.02-2.25-4.57-4.77-4.57-2.5 0-4.77 1.55-4.77 4.57zm7 0c0 1.33-.78 2.34-2.22 2.34-1.43 0-2.22-1-2.22-2.34 0-1.33.8-2.34 2.22-2.34 1.44 0 2.23 1 2.23 2.34zM441.7 140.61l1.76-4.84h-2.65l-1.13 4.84h2.01zm1.78-9.83c0-1-.7-1.46-1.53-1.46-.8 0-1.52.45-1.52 1.46 0 1.03.72 1.5 1.52 1.5.82 0 1.53-.47 1.53-1.5zM498 138v-5.69c.42-.54 1.1-1.04 1.86-1.04.8 0 1.35.52 1.35 1.42V138h2.49v-5.47c0-.15 0-.27-.02-.4a2.37 2.37 0 011.7-.86c.8 0 1.36.52 1.36 1.42V138h2.48v-5.47c0-1.53-.8-3.42-3.22-3.42-1.19 0-2.16.57-2.88 1.28-.5-.74-1.35-1.28-2.65-1.28a3.7 3.7 0 00-2.75 1.26v-1.01h-2.22V138h2.5zM518.98 135.77V133c0-2.84-1.66-3.9-4.25-3.9-1.33 0-2.65.34-3.35.57v2.16a8.28 8.28 0 013.06-.64c1.35 0 2.03.59 2.03 1.45v.31a9.43 9.43 0 00-2.05-.23c-1.72 0-3.8.68-3.8 2.88 0 1.7 1.4 2.64 3.03 2.64 1.28 0 2.27-.4 3.11-1.06.36.65 1.03.97 1.91.97.49 0 1-.1 1.39-.25v-1.64c-.16.06-.33.07-.47.07-.33 0-.61-.12-.61-.57zm-3.98-1.55c.52 0 1.1.1 1.48.2v1.35c-.58.5-1.25.7-1.95.7-.75 0-1.35-.41-1.35-1.06 0-.88.9-1.19 1.82-1.19zM523.45 130.66v-1.3h-2.21V138h2.5v-5.08c.52-1.02 1.84-1.54 3.2-1.31v-2.43c-1.61-.16-2.87.52-3.49 1.48zM527.6 133.68c0 2.36 1.49 4.57 4.24 4.57 1.37 0 2.28-.56 2.84-1.17v.8c0 1.7-1.27 2.23-2.8 2.23a6.59 6.59 0 01-3.34-.9v2.2c1.05.5 2.3.8 3.66.8 2.54 0 4.97-1.15 4.97-4.44v-8.41h-2.2v1.26a3.7 3.7 0 00-3.13-1.51c-2.75 0-4.23 2.21-4.23 4.57zm7.08-1.03v2.11a2.48 2.48 0 01-2.25 1.39c-1.42 0-2.26-1.12-2.26-2.47s.84-2.47 2.26-2.47c1.1 0 1.91.69 2.25 1.44zM541.81 138v-8.64h-2.5V138h2.5zm.22-11.5c0-.97-.69-1.4-1.48-1.4-.77 0-1.46.43-1.46 1.4 0 .99.69 1.42 1.46 1.42.8 0 1.48-.43 1.48-1.42zM546.18 130.46v-1.1h-2.21V138h2.5v-5.63a2.43 2.43 0 011.93-1.1c.97 0 1.67.54 1.67 1.7V138h2.5v-5.35c0-2-1.24-3.54-3.5-3.54-1.25 0-2.22.57-2.89 1.35zM554.51 132.56v2.11h6.7v-2.1h-6.7zM563.27 125.4V138h2.21v-1.26a3.64 3.64 0 003.13 1.51c2.74 0 4.22-2.21 4.22-4.57 0-2.36-1.48-4.57-4.22-4.57-1.36 0-2.3.56-2.84 1.17v-4.88h-2.5zm7 8.28c0 1.35-.85 2.47-2.27 2.47-1.1 0-1.9-.69-2.25-1.44v-2.06a2.47 2.47 0 012.25-1.44c1.42 0 2.27 1.12 2.27 2.47zM573.98 133.68c0 3.02 2.27 4.57 4.77 4.57 2.52 0 4.77-1.55 4.77-4.57 0-3.02-2.25-4.57-4.77-4.57-2.5 0-4.77 1.55-4.77 4.57zm7 0c0 1.33-.79 2.34-2.23 2.34-1.42 0-2.21-1-2.21-2.34 0-1.33.79-2.34 2.21-2.34 1.44 0 2.23 1 2.23 2.34zM585.68 126.84v2.52h-1.46v2.1h1.46v3.88c0 2.14 1.44 2.91 3.11 2.91.87 0 1.66-.14 2.33-.38v-2.01c-.5.2-1 .29-1.57.29-.94 0-1.39-.4-1.39-1.3v-3.38h2.74v-2.11h-2.74v-3.11l-2.48.59zM593.2 126.84v2.52h-1.46v2.1h1.46v3.88c0 2.14 1.44 2.91 3.12 2.91.86 0 1.65-.14 2.32-.38v-2.01c-.5.2-1 .29-1.57.29-.93 0-1.38-.4-1.38-1.3v-3.38h2.73v-2.11h-2.73v-3.11l-2.49.59zM599.6 133.68c0 3.02 2.26 4.57 4.76 4.57 2.52 0 4.77-1.55 4.77-4.57 0-3.02-2.25-4.57-4.77-4.57-2.5 0-4.77 1.55-4.77 4.57zm7 0c0 1.33-.8 2.34-2.24 2.34-1.42 0-2.21-1-2.21-2.34 0-1.33.79-2.34 2.21-2.34 1.44 0 2.23 1 2.23 2.34zM613.27 138v-5.69c.41-.54 1.1-1.04 1.85-1.04.8 0 1.35.52 1.35 1.42V138h2.49v-5.47c0-.15 0-.27-.02-.4a2.37 2.37 0 011.7-.86c.8 0 1.36.52 1.36 1.42V138h2.48v-5.47c0-1.53-.8-3.42-3.22-3.42-1.19 0-2.16.57-2.88 1.28-.5-.74-1.35-1.28-2.65-1.28a3.7 3.7 0 00-2.75 1.26v-1.01h-2.22V138h2.5zM629.5 131.29c0-1.01-.7-1.48-1.5-1.48-.82 0-1.54.47-1.54 1.48 0 1.02.72 1.47 1.53 1.47s1.51-.45 1.51-1.47zm0 5.47c0-1.01-.7-1.48-1.5-1.48-.82 0-1.54.47-1.54 1.48 0 1 .72 1.47 1.53 1.47s1.51-.46 1.51-1.47zM643.29 135.77V133c0-2.84-1.66-3.9-4.25-3.9-1.33 0-2.64.34-3.35.57v2.16a8.28 8.28 0 013.06-.64c1.35 0 2.04.59 2.04 1.45v.31a9.43 9.43 0 00-2.05-.23c-1.73 0-3.8.68-3.8 2.88 0 1.7 1.4 2.64 3.02 2.64 1.28 0 2.27-.4 3.12-1.06.36.65 1.02.97 1.9.97.49 0 1-.1 1.39-.25v-1.64c-.16.06-.32.07-.47.07-.32 0-.61-.12-.61-.57zm-3.98-1.55c.52 0 1.1.1 1.48.2v1.35c-.58.5-1.24.7-1.95.7-.75 0-1.35-.41-1.35-1.06 0-.88.9-1.19 1.82-1.19zM651.55 129.36v5.63a2.46 2.46 0 01-1.95 1.1c-1.02 0-1.65-.56-1.65-1.7v-5.03h-2.5v5.35c0 2 1.16 3.54 3.5 3.54 1.23 0 2.22-.57 2.88-1.35v1.1h2.22v-8.64h-2.5zM656.82 126.84v2.52h-1.46v2.1h1.46v3.88c0 2.14 1.44 2.91 3.11 2.91.87 0 1.66-.14 2.32-.38v-2.01c-.5.2-.99.29-1.56.29-.94 0-1.39-.4-1.39-1.3v-3.38h2.74v-2.11h-2.74v-3.11l-2.48.59zM663.2 133.68c0 3.02 2.27 4.57 4.78 4.57 2.52 0 4.77-1.55 4.77-4.57 0-3.02-2.25-4.57-4.77-4.57-2.5 0-4.77 1.55-4.77 4.57zm7 0c0 1.33-.78 2.34-2.22 2.34-1.43 0-2.22-1-2.22-2.34 0-1.33.8-2.34 2.22-2.34 1.44 0 2.23 1 2.23 2.34zM675.7 140.61l1.76-4.84h-2.65l-1.13 4.84h2.01zm1.78-9.83c0-1-.7-1.46-1.53-1.46-.8 0-1.52.45-1.52 1.46 0 1.03.72 1.5 1.52 1.5.82 0 1.53-.47 1.53-1.5z" fill="#333"/></svg>