<svg fill="none" height="170" viewBox="0 0 705 170" width="705" xmlns="http://www.w3.org/2000/svg"><path clip-rule="evenodd" d="m697 2h-689c-3.31371 0-6 2.68629-6 6v154c0 3.314 2.6863 6 6.00001 6h688.99999c3.314 0 6-2.686 6-6v-154c0-3.3137-2.686-6-6-6zm-689-2c-4.41828 0-8 3.58172-8 8v154c0 4.418 3.58173 8 8.00001 8h688.99999c4.418 0 8-3.582 8-8v-154c0-4.41828-3.582-8-8-8z" fill="#d2d5e3" fill-rule="evenodd"/><path d="m0 8c0-4.41828 3.58172-8 8-8h689c4.418 0 8 3.58172 8 8v16h-705z" fill="#d2d5e3"/><path d="m18 12c0 2.2091-1.7909 4-4 4s-4-1.7909-4-4c0-2.20914 1.7909-4 4-4s4 1.79086 4 4z" fill="#e84e1b"/><path d="m30 12c0 2.2091-1.7909 4-4 4s-4-1.7909-4-4c0-2.20914 1.7909-4 4-4s4 1.79086 4 4z" fill="#e68a00"/><path d="m42 12c0 2.2091-1.7909 4-4 4s-4-1.7909-4-4c0-2.20914 1.7909-4 4-4s4 1.79086 4 4z" fill="#4eb543"/><path d="m2 32h701v42h-701z" fill="#4839c6"/><path d="m2 78h701v82h-701z" fill="#979bb5"/><g fill="#fff"><path d="m24.992 53.824-4.432-1.424 4.432-1.424v-2l-6.368 2.32v2.208l6.368 2.32z"/><path d="m27.0378 46.8v11.2h2.224v-5.008c.32-.464.928-.976 1.712-.976.864 0 1.488.48 1.488 1.52v4.464h2.224v-4.752c0-1.776-1.104-3.152-3.12-3.152-.96 0-1.744.4-2.304.928v-4.224z"/><path d="m38.9873 47.12-2.64 1.008v2.16l2.048-.768v6.416h-2.048v2.064h6.208v-2.064h-1.824v-8.816z"/><path d="m50.3783 53.504v-2.208l-6.368-2.32v2l4.432 1.424-4.432 1.424v2z"/><path d="m60.392 54.96c0-1.68-1.072-2.56-2.24-2.88 1.088-.368 1.792-1.216 1.792-2.448 0-2.064-1.792-3.056-4.416-3.056-1.168 0-2.416.192-3.712.736v2.288c1.36-.656 2.496-.88 3.504-.864 1.424 0 2.224.384 2.224 1.28 0 .784-.688 1.168-1.744 1.168h-2.352l-.016 2.112h2.528c1.088 0 2.016.272 2.016 1.312 0 1.152-1.168 1.456-2.384 1.456-1.184.016-2.496-.144-3.968-.864v2.304c1.488.528 2.816.72 4.144.72 2.224 0 4.624-.768 4.624-3.264z"/><path d="m68.7924 56.016v-2.448c0-2.528-1.472-3.472-3.776-3.472-1.184 0-2.352.304-2.976.512v1.92c.72-.288 1.664-.576 2.72-.576 1.2 0 1.808.528 1.808 1.296v.272c-.544-.128-1.216-.208-1.824-.208-1.536 0-3.376.608-3.376 2.56 0 1.52 1.248 2.352 2.688 2.352 1.136 0 2.016-.352 2.768-.944.32.576.912.864 1.696.864.432 0 .88-.096 1.232-.224v-1.456c-.144.048-.288.064-.416.064-.288 0-.544-.112-.544-.512zm-3.536-1.376c.464 0 .976.096 1.312.176v1.2c-.512.448-1.104.624-1.728.624-.672 0-1.2-.368-1.2-.944 0-.784.8-1.056 1.616-1.056z"/><path d="m73.168 58v-5.808h3.632v-1.872h-5.856v7.68z"/><path d="m77.3558 54.16c0 2.688 2.016 4.064 4.24 4.064 2.24 0 4.24-1.376 4.24-4.064s-2-4.064-4.24-4.064c-2.224 0-4.24 1.376-4.24 4.064zm6.224 0c0 1.184-.704 2.08-1.984 2.08-1.264 0-1.968-.896-1.968-2.08s.704-2.08 1.968-2.08c1.28 0 1.984.896 1.984 2.08z"/><path d="m90.5551 52.08h1.968v5.92h2.224v-7.68h-6.24c-.144 3.44-.416 5.952-1.632 5.952-.144 0-.304-.032-.464-.096v1.76c.448.16.8641.224 1.2161.224 2.112 0 2.7039-2.624 2.9279-6.08z"/><path d="m96.1995 54.16c0 2.688 2.016 4.064 4.2405 4.064 2.24 0 4.24-1.376 4.24-4.064s-2-4.064-4.24-4.064c-2.2245 0-4.2405 1.376-4.2405 4.064zm6.2245 0c0 1.184-.704 2.08-1.984 2.08-1.2645 0-1.9685-.896-1.9685-2.08s.704-2.08 1.9685-2.08c1.28 0 1.984.896 1.984 2.08z"/><path d="m110.836 58c1.936 0 2.576-.992 2.576-2.08 0-.928-.528-1.536-1.36-1.808.752-.288 1.184-.88 1.184-1.76 0-1.04-.704-2.032-2.528-2.032h-4.576v7.68zm-2.48-3.184h1.824c.544 0 1.024.192 1.024.848 0 .608-.464.816-1.024.816h-1.824zm-.016-2.976h1.68c.512 0 .976.192.976.832 0 .592-.432.8-.96.8h-1.696z"/><path d="m114.481 54.16c0 2.688 2.016 4.064 4.24 4.064 2.24 0 4.24-1.376 4.24-4.064s-2-4.064-4.24-4.064c-2.224 0-4.24 1.376-4.24 4.064zm6.224 0c0 1.184-.704 2.08-1.984 2.08-1.264 0-1.968-.896-1.968-2.08s.704-2.08 1.968-2.08c1.28 0 1.984.896 1.984 2.08z"/><path d="m126.637 58v-3.04h.896l2.208 3.04h2.496l-2.864-3.888 2.64-3.792h-2.496l-1.952 2.864h-.928v-2.864h-2.224v7.68z"/><path d="m139.226 53.824-4.432-1.424 4.432-1.424v-2l-6.368 2.32v2.208l6.368 2.32z"/><path d="m142.28 58.944 4.896-13.088h-1.584l-4.896 13.088z"/><path d="m148.491 46.8v11.2h2.224v-5.008c.32-.464.928-.976 1.712-.976.864 0 1.488.48 1.488 1.52v4.464h2.224v-4.752c0-1.776-1.104-3.152-3.12-3.152-.96 0-1.744.4-2.304.928v-4.224z"/><path d="m160.44 47.12-2.64 1.008v2.16l2.048-.768v6.416h-2.048v2.064h6.208v-2.064h-1.824v-8.816z"/><path d="m171.831 53.504v-2.208l-6.368-2.32v2l4.432 1.424-4.432 1.424v2z"/><path d="m24.992 99.824-4.432-1.424 4.432-1.424v-2l-6.368 2.32v2.208l6.368 2.32z"/><path d="m29.0058 97.44v-1.12h-1.968v11.2h2.224v-4.336c.496.544 1.312 1.04 2.528 1.04 2.432 0 3.744-1.968 3.744-4.064s-1.312-4.064-3.744-4.064c-1.424 0-2.304.656-2.784 1.344zm4.256 2.72c0 1.2-.752 2.192-2.016 2.192-.976 0-1.696-.608-2-1.28v-1.824c.304-.672 1.024-1.28 2-1.28 1.264 0 2.016.992 2.016 2.192z"/><path d="m43.5189 99.504v-2.208l-6.368-2.32v2l4.432 1.424-4.432 1.424v2z"/><path d="m34.7155 124 .832-2.096h5.12l.816 2.096h2.48l-4.56-11.2h-2.592l-4.576 11.2zm3.136-8.096c.096-.224.176-.448.256-.88.08.432.16.656.24.88l1.568 4.016h-3.616z"/><path d="m52.5656 120.496c0-2.352-1.52-3.696-3.408-3.696-1.168 0-2.016.528-2.496 1.2.112-.752.528-1.696 1.408-2.176 1.488-.784 2.784-.368 3.824-1.216v-2.032c-1.072 1.04-2.944.432-5.152 1.808-1.376.864-2.352 2.448-2.352 5.2 0 3.312 1.84 4.64 4.096 4.64 2.32 0 4.08-1.28 4.08-3.728zm-5.904.016c0-.816.48-1.936 1.824-1.936 1.36 0 1.808 1.072 1.808 1.936s-.448 1.936-1.808 1.936c-1.344 0-1.824-1.072-1.824-1.936z"/><path d="m60.248 121.872c0-.912-.56-1.552-1.456-1.824.72-.192 1.296-.768 1.296-1.68 0-1.12-.848-2.288-3.504-2.288-1.072 0-2.176.256-2.896.64v1.76c.608-.32 1.728-.64 2.624-.64.992 0 1.504.304 1.504.816 0 .528-.544.72-1.312.72h-1.424v1.472h1.424c.752 0 1.472.08 1.472.752 0 .656-.752.864-1.792.864-.944 0-2.064-.336-2.64-.656v1.776c.704.368 1.728.624 2.928.624 2.64 0 3.776-1.136 3.776-2.336z"/><path d="m68.6049 122.016v-2.448c0-2.528-1.472-3.472-3.776-3.472-1.184 0-2.352.304-2.976.512v1.92c.72-.288 1.664-.576 2.72-.576 1.2 0 1.808.528 1.808 1.296v.272c-.544-.128-1.216-.208-1.824-.208-1.536 0-3.376.608-3.376 2.56 0 1.52 1.248 2.352 2.688 2.352 1.136 0 2.016-.352 2.768-.944.32.576.912.864 1.696.864.432 0 .88-.096 1.232-.224v-1.456c-.144.048-.288.064-.416.064-.288 0-.544-.112-.544-.512zm-3.536-1.376c.464 0 .976.096 1.312.176v1.2c-.512.448-1.104.624-1.728.624-.672 0-1.2-.368-1.2-.944 0-.784.8-1.056 1.616-1.056z"/><path d="m79.3805 126.032v-3.856h-1.152v-5.856h-2.224v5.808h-3.024v-5.808h-2.224v7.68h6.576v2.032z"/><path d="m88.287 124v-5.808h2.448v-1.872h-7.104v1.872h2.448v5.808z"/><path d="m91.2933 120.16c0 2.672 2.016 4.064 4.448 4.064 1.152 0 2.096-.176 2.816-.48v-1.744c-.656.288-1.44.464-2.32.464-1.264 0-2.448-.464-2.704-1.584h5.408c.512-2.272-.512-4.784-3.696-4.784-1.728 0-3.952 1.168-3.952 4.064zm5.648-.72h-3.424c.032-1.056.864-1.648 1.808-1.648 1.392 0 1.696 1.12 1.616 1.648z"/><path d="m102.668 124v-3.04h.896l2.208 3.04h2.496l-2.864-3.888 2.64-3.792h-2.496l-1.952 2.864h-.928v-2.864h-2.224v7.68z"/><path d="m108.371 120.272c0 2.736 2.096 3.952 4.192 3.952.976 0 1.84-.192 2.592-.512v-1.968c-.56.336-1.344.56-2.16.56-1.2 0-2.352-.672-2.352-2.144 0-1.552 1.168-2.144 2.384-2.144.736 0 1.504.224 2.048.576v-1.952c-.688-.368-1.52-.56-2.368-.56-2.128 0-4.336 1.248-4.336 4.192z"/><path d="m120.662 124v-5.808h2.448v-1.872h-7.104v1.872h2.448v5.808z"/><path d="m131.058 122.016v-2.448c0-2.528-1.472-3.472-3.776-3.472-1.184 0-2.352.304-2.976.512v1.92c.72-.288 1.664-.576 2.72-.576 1.2 0 1.808.528 1.808 1.296v.272c-.544-.128-1.216-.208-1.824-.208-1.536 0-3.376.608-3.376 2.56 0 1.52 1.248 2.352 2.688 2.352 1.136 0 2.016-.352 2.768-.944.32.576.912.864 1.696.864.432 0 .88-.096 1.232-.224v-1.456c-.144.048-.288.064-.416.064-.288 0-.544-.112-.544-.512zm-3.536-1.376c.464 0 .976.096 1.312.176v1.2c-.512.448-1.104.624-1.728.624-.672 0-1.2-.368-1.2-.944 0-.784.8-1.056 1.616-1.056z"/><path d="m24.992 139.824-4.432-1.424 4.432-1.424v-2l-6.368 2.32v2.208l6.368 2.32z"/><path d="m28.0458 144.944 4.896-13.088h-1.584l-4.896 13.088z"/><path d="m35.6933 137.44v-1.12h-1.968v11.2h2.224v-4.336c.496.544 1.312 1.04 2.528 1.04 2.432 0 3.744-1.968 3.744-4.064s-1.312-4.064-3.744-4.064c-1.424 0-2.304.656-2.784 1.344zm4.256 2.72c0 1.2-.752 2.192-2.016 2.192-.976 0-1.696-.608-2-1.28v-1.824c.304-.672 1.024-1.28 2-1.28 1.264 0 2.016.992 2.016 2.192z"/><path d="m50.2064 139.504v-2.208l-6.368-2.32v2l4.432 1.424-4.432 1.424v2z"/></g></svg>