<svg fill="none" height="140" viewBox="0 0 705 140" width="705" xmlns="http://www.w3.org/2000/svg"><path clip-rule="evenodd" d="m697 2h-689c-3.31371 0-6 2.68629-6 6v124c0 3.314 2.6863 6 6.00001 6h688.99999c3.314 0 6-2.686 6-6v-124c0-3.3137-2.686-6-6-6zm-689-2c-4.41828 0-8 3.58172-8 8v124c0 4.418 3.58173 8 8.00001 8h688.99999c4.418 0 8-3.582 8-8v-124c0-4.41828-3.582-8-8-8z" fill="#d2d5e3" fill-rule="evenodd"/><path d="m0 8c0-4.41828 3.58172-8 8-8h689c4.418 0 8 3.58172 8 8v16h-705z" fill="#d2d5e3"/><path d="m18 12c0 2.2091-1.7909 4-4 4s-4-1.7909-4-4c0-2.20914 1.7909-4 4-4s4 1.79086 4 4z" fill="#e84e1b"/><path d="m30 12c0 2.2091-1.7909 4-4 4s-4-1.7909-4-4c0-2.20914 1.7909-4 4-4s4 1.79086 4 4z" fill="#e68a00"/><path d="m42 12c0 2.2091-1.7909 4-4 4s-4-1.7909-4-4c0-2.20914 1.7909-4 4-4s4 1.79086 4 4z" fill="#4eb543"/><path d="m10 52c0-4.4183 3.5817-8 8-8h119c4.418 0 8 3.5817 8 8v14c0 4.4183-3.582 8-8 8h-119c-4.4183 0-8-3.5817-8-8z" fill="#4839c6"/><path d="m26.992 59.824-4.432-1.424 4.432-1.424v-2l-6.368 2.32v2.208l6.368 2.32z" fill="#fff"/><path d="m35.9017 62.016v-2.448c0-2.528-1.472-3.472-3.776-3.472-1.184 0-2.352.304-2.976.512v1.92c.72-.288 1.664-.576 2.72-.576 1.2 0 1.808.528 1.808 1.296v.272c-.544-.128-1.216-.208-1.824-.208-1.536 0-3.376.608-3.376 2.56 0 1.52 1.248 2.352 2.688 2.352 1.136 0 2.016-.352 2.768-.944.32.576.912.864 1.696.864.432 0 .88-.096 1.232-.224v-1.456c-.144.048-.288.064-.416.064-.288 0-.544-.112-.544-.512zm-3.536-1.376c.464 0 .976.096 1.312.176v1.2c-.512.448-1.104.624-1.728.624-.672 0-1.2-.368-1.2-.944 0-.784.8-1.056 1.616-1.056z" fill="#fff"/><path d="m44.4407 59.504v-2.208l-6.368-2.32v2l4.432 1.424-4.432 1.424v2z" fill="#fff"/><path d="m45.6385 58.528c0 3.904 3.056 5.696 6.048 5.696 1.184 0 2.288-.256 3.248-.72v-2.352c-.672.608-1.728.928-2.88.928-1.952 0-3.968-1.088-3.952-3.552 0-2.704 1.984-3.824 3.952-3.824 1.04 0 2.08.32 2.8.88v-2.288c-.96-.48-2.08-.72-3.2-.72-2.992 0-6 1.856-6.016 5.952z" fill="#fff"/><path d="m55.9339 60.272c0 2.736 2.096 3.952 4.192 3.952.976 0 1.84-.192 2.592-.512v-1.968c-.56.336-1.344.56-2.16.56-1.2 0-2.352-.672-2.352-2.144 0-1.552 1.168-2.144 2.384-2.144.736 0 1.504.224 2.048.576v-1.952c-.688-.368-1.52-.56-2.368-.56-2.128 0-4.336 1.248-4.336 4.192z" fill="#fff"/><path d="m68.2565 64c2.016 0 3.104-1.168 3.104-2.64s-1.088-2.64-3.104-2.64h-1.776v-2.4h-2.224v7.68zm-1.792-3.68h1.248c.88 0 1.36.384 1.36 1.04s-.48 1.04-1.36 1.04h-1.248zm8.368 3.68v-7.68h-2.224v7.68z" fill="#fff"/><path d="m80.1332 58.08h1.968v5.92h2.224v-7.68h-6.24c-.144 3.44-.416 5.952-1.632 5.952-.144 0-.304-.032-.464-.096v1.76c.448.16.864.224 1.216.224 2.112 0 2.704-2.624 2.928-6.08z" fill="#fff"/><path d="m88.4336 64v-3.04h.896l2.208 3.04h2.496l-2.864-3.888 2.64-3.792h-2.496l-1.952 2.864h-.928v-2.864h-2.224v7.68z" fill="#fff"/><path d="m101.745 62.016v-2.448c0-2.528-1.472-3.472-3.7755-3.472-1.184 0-2.352.304-2.976.512v1.92c.72-.288 1.664-.576 2.72-.576 1.2 0 1.808.528 1.808 1.296v.272c-.544-.128-1.216-.208-1.824-.208-1.536 0-3.376.608-3.376 2.56 0 1.52 1.248 2.352 2.688 2.352 1.136 0 2.016-.352 2.768-.944.3195.576.9115.864 1.6955.864.432 0 .88-.096 1.232-.224v-1.456c-.144.048-.288.064-.416.064-.288 0-.544-.112-.544-.512zm-3.5355-1.376c.464 0 .976.096 1.312.176v1.2c-.512.448-1.104.624-1.728.624-.672 0-1.2-.368-1.2-.944 0-.784.8-1.056 1.616-1.056z" fill="#fff"/><path d="m109.945 59.824-4.432-1.424 4.432-1.424v-2l-6.368 2.32v2.208l6.368 2.32z" fill="#fff"/><path d="m112.999 64.944 4.896-13.088h-1.584l-4.896 13.088z" fill="#fff"/><path d="m125.402 62.016v-2.448c0-2.528-1.472-3.472-3.776-3.472-1.184 0-2.352.304-2.976.512v1.92c.72-.288 1.664-.576 2.72-.576 1.2 0 1.808.528 1.808 1.296v.272c-.544-.128-1.216-.208-1.824-.208-1.536 0-3.376.608-3.376 2.56 0 1.52 1.248 2.352 2.688 2.352 1.136 0 2.016-.352 2.768-.944.32.576.912.864 1.696.864.432 0 .88-.096 1.232-.224v-1.456c-.144.048-.288.064-.416.064-.288 0-.544-.112-.544-.512zm-3.536-1.376c.464 0 .976.096 1.312.176v1.2c-.512.448-1.104.624-1.728.624-.672 0-1.2-.368-1.2-.944 0-.784.8-1.056 1.616-1.056z" fill="#fff"/><path d="m133.941 59.504v-2.208l-6.368-2.32v2l4.432 1.424-4.432 1.424v2z" fill="#fff"/><path d="m155 52c0-4.4183 3.582-8 8-8h336c4.418 0 8 3.5817 8 8v14c0 4.4183-3.582 8-8 8h-336c-4.418 0-8-3.5817-8-8z" fill="#979bb5"/><g fill="#fff"><path d="m171.992 59.824-4.432-1.424 4.432-1.424v-2l-6.368 2.32v2.208l6.368 2.32z"/><path d="m173.702 58.464c0 2.752 4.336 2.208 4.336 3.44 0 .432-.528.576-1.344.576-.928 0-2.096-.272-2.928-.816v1.84c.784.464 1.888.72 3.056.72 1.84 0 3.488-.56 3.488-2.368 0-2.816-4.336-2.176-4.336-3.456 0-.464.576-.608 1.072-.608.912 0 2.032.336 2.688.784v-1.824c-.784-.384-1.744-.656-2.832-.656-1.616 0-3.2.592-3.2 2.368z"/><path d="m183.631 57.44v-1.12h-1.968v11.2h2.224v-4.336c.496.544 1.312 1.04 2.528 1.04 2.432 0 3.744-1.968 3.744-4.064s-1.312-4.064-3.744-4.064c-1.424 0-2.304.656-2.784 1.344zm4.256 2.72c0 1.2-.752 2.192-2.016 2.192-.976 0-1.696-.608-2-1.28v-1.824c.304-.672 1.024-1.28 2-1.28 1.264 0 2.016.992 2.016 2.192z"/><path d="m198.48 62.016v-2.448c0-2.528-1.472-3.472-3.776-3.472-1.184 0-2.352.304-2.976.512v1.92c.72-.288 1.664-.576 2.72-.576 1.2 0 1.808.528 1.808 1.296v.272c-.544-.128-1.216-.208-1.824-.208-1.536 0-3.376.608-3.376 2.56 0 1.52 1.248 2.352 2.688 2.352 1.136 0 2.016-.352 2.768-.944.32.576.912.864 1.696.864.432 0 .88-.096 1.232-.224v-1.456c-.144.048-.288.064-.416.064-.288 0-.544-.112-.544-.512zm-3.536-1.376c.464 0 .976.096 1.312.176v1.2c-.512.448-1.104.624-1.728.624-.672 0-1.2-.368-1.2-.944 0-.784.8-1.056 1.616-1.056z"/><path d="m202.459 57.296v-.976h-1.968v7.68h2.224v-5.008c.32-.464.928-.976 1.712-.976.864 0 1.488.48 1.488 1.52v4.464h2.224v-4.752c0-1.776-1.104-3.152-3.12-3.152-1.104 0-1.968.512-2.56 1.2z"/><path d="m216.456 59.504v-2.208l-6.368-2.32v2l4.432 1.424-4.432 1.424v2z"/><path d="m220.678 64v-9.04h4.96v9.04h2.384v-11.2h-9.744v11.2z"/><path d="m232.131 57.44v-1.12h-1.968v11.2h2.224v-4.336c.496.544 1.312 1.04 2.528 1.04 2.432 0 3.744-1.968 3.744-4.064s-1.312-4.064-3.744-4.064c-1.424 0-2.304.656-2.784 1.344zm4.256 2.72c0 1.2-.752 2.192-2.016 2.192-.976 0-1.696-.608-2-1.28v-1.824c.304-.672 1.024-1.28 2-1.28 1.264 0 2.016.992 2.016 2.192z"/><path d="m239.684 60.16c0 2.688 2.016 4.064 4.24 4.064 2.24 0 4.24-1.376 4.24-4.064s-2-4.064-4.24-4.064c-2.224 0-4.24 1.376-4.24 4.064zm6.224 0c0 1.184-.704 2.08-1.984 2.08-1.264 0-1.968-.896-1.968-2.08s.704-2.08 1.968-2.08c1.28 0 1.984.896 1.984 2.08z"/><path d="m251.552 64 3.424-4.32v4.32h2.208v-7.68h-1.92l-3.424 4.32v-4.32h-2.224v7.68z"/><path d="m265.373 61.872c0-.912-.56-1.552-1.456-1.824.72-.192 1.296-.768 1.296-1.68 0-1.12-.848-2.288-3.504-2.288-1.072 0-2.176.256-2.896.64v1.76c.608-.32 1.728-.64 2.624-.64.992 0 1.504.304 1.504.816 0 .528-.544.72-1.312.72h-1.424v1.472h1.424c.752 0 1.472.08 1.472.752 0 .656-.752.864-1.792.864-.944 0-2.064-.336-2.64-.656v1.776c.704.368 1.728.624 2.928.624 2.64 0 3.776-1.136 3.776-2.336z"/><path d="m271.57 64c1.936 0 2.576-.992 2.576-2.08 0-.928-.528-1.536-1.36-1.808.752-.288 1.184-.88 1.184-1.76 0-1.04-.704-2.032-2.528-2.032h-4.576v7.68zm-2.48-3.184h1.824c.544 0 1.024.192 1.024.848 0 .608-.464.816-1.024.816h-1.824zm-.016-2.976h1.68c.512 0 .976.192.976.832 0 .592-.432.8-.96.8h-1.696z"/><path d="m275.215 60.16c0 2.688 2.016 4.064 4.24 4.064 2.24 0 4.24-1.376 4.24-4.064s-2-4.064-4.24-4.064c-2.224 0-4.24 1.376-4.24 4.064zm6.224 0c0 1.184-.704 2.08-1.984 2.08-1.264 0-1.968-.896-1.968-2.08s.704-2.08 1.968-2.08c1.28 0 1.984.896 1.984 2.08z"/><path d="m288.414 58.08h1.968v5.92h2.224v-7.68h-6.24c-.144 3.44-.416 5.952-1.632 5.952-.144 0-.304-.032-.464-.096v1.76c.448.16.864.224 1.216.224 2.112 0 2.704-2.624 2.928-6.08z"/><path d="m298.491 64c2.016 0 3.104-1.168 3.104-2.64s-1.088-2.64-3.104-2.64h-1.776v-2.4h-2.224v7.68zm-1.792-3.68h1.248c.88 0 1.36.384 1.36 1.04s-.48 1.04-1.36 1.04h-1.248z"/><path d="m305.121 64v-2.912h3.104v2.912h2.224v-7.68h-2.224v2.912h-3.104v-2.912h-2.224v7.68z"/><path d="m319.199 62.016v-2.448c0-2.528-1.472-3.472-3.776-3.472-1.184 0-2.352.304-2.976.512v1.92c.72-.288 1.664-.576 2.72-.576 1.2 0 1.808.528 1.808 1.296v.272c-.544-.128-1.216-.208-1.824-.208-1.536 0-3.376.608-3.376 2.56 0 1.52 1.248 2.352 2.688 2.352 1.136 0 2.016-.352 2.768-.944.32.576.912.864 1.696.864.432 0 .88-.096 1.232-.224v-1.456c-.144.048-.288.064-.416.064-.288 0-.544-.112-.544-.512zm-3.536-1.376c.464 0 .976.096 1.312.176v1.2c-.512.448-1.104.624-1.728.624-.672 0-1.2-.368-1.2-.944 0-.784.8-1.056 1.616-1.056z"/><path d="m323.174 64 1.712-2.288h1.248v2.288h2.224v-7.68h-4.16c-2.016 0-3.072 1.248-3.072 2.688 0 1.04.528 1.968 1.568 2.416l-2.016 2.576zm.208-4.928c0-.64.464-.992 1.264-.992h1.488v1.968h-1.488c-.8 0-1.264-.352-1.264-.976z"/><path d="m333.356 60.272c0 2.736 2.096 3.952 4.192 3.952.976 0 1.84-.192 2.592-.512v-1.968c-.56.336-1.344.56-2.16.56-1.2 0-2.352-.672-2.352-2.144 0-1.552 1.168-2.144 2.384-2.144.736 0 1.504.224 2.048.576v-1.952c-.688-.368-1.52-.56-2.368-.56-2.128 0-4.336 1.248-4.336 4.192z"/><path d="m345.646 64v-5.808h2.448v-1.872h-7.104v1.872h2.448v5.808z"/><path d="m351.256 57.44v-1.12h-1.968v11.2h2.224v-4.336c.496.544 1.312 1.04 2.528 1.04 2.432 0 3.744-1.968 3.744-4.064s-1.312-4.064-3.744-4.064c-1.424 0-2.304.656-2.784 1.344zm4.256 2.72c0 1.2-.752 2.192-2.016 2.192-.976 0-1.696-.608-2-1.28v-1.824c.304-.672 1.024-1.28 2-1.28 1.264 0 2.016.992 2.016 2.192z"/><path d="m358.809 60.16c0 2.688 2.016 4.064 4.24 4.064 2.24 0 4.24-1.376 4.24-4.064s-2-4.064-4.24-4.064c-2.224 0-4.24 1.376-4.24 4.064zm6.224 0c0 1.184-.704 2.08-1.984 2.08-1.264 0-1.968-.896-1.968-2.08s.704-2.08 1.968-2.08c1.28 0 1.984.896 1.984 2.08z"/><path d="m370.965 64v-3.04h.896l2.208 3.04h2.496l-2.864-3.888 2.64-3.792h-2.496l-1.952 2.864h-.928v-2.864h-2.224v7.68z"/><path d="m384.277 62.016v-2.448c0-2.528-1.472-3.472-3.776-3.472-1.184 0-2.352.304-2.976.512v1.92c.72-.288 1.664-.576 2.72-.576 1.2 0 1.808.528 1.808 1.296v.272c-.544-.128-1.216-.208-1.824-.208-1.536 0-3.376.608-3.376 2.56 0 1.52 1.248 2.352 2.688 2.352 1.136 0 2.016-.352 2.768-.944.32.576.912.864 1.696.864.432 0 .88-.096 1.232-.224v-1.456c-.144.048-.288.064-.416.064-.288 0-.544-.112-.544-.512zm-3.536-1.376c.464 0 .976.096 1.312.176v1.2c-.512.448-1.104.624-1.728.624-.672 0-1.2-.368-1.2-.944 0-.784.8-1.056 1.616-1.056z"/><path d="m393.943 64v-5.808h2.448v-1.872h-7.104v1.872h2.448v5.808z"/><path d="m396.949 60.16c0 2.672 2.017 4.064 4.449 4.064 1.152 0 2.096-.176 2.816-.48v-1.744c-.656.288-1.441.464-2.321.464-1.264 0-2.448-.464-2.704-1.584h5.409c.512-2.272-.512-4.784-3.696-4.784-1.728 0-3.953 1.168-3.953 4.064zm5.649-.72h-3.425c.032-1.056.865-1.648 1.809-1.648 1.392 0 1.696 1.12 1.616 1.648z"/><path d="m408.324 64v-3.04h.896l2.208 3.04h2.496l-2.864-3.888 2.64-3.792h-2.496l-1.952 2.864h-.928v-2.864h-2.224v7.68z"/><path d="m414.028 60.272c0 2.736 2.096 3.952 4.192 3.952.976 0 1.84-.192 2.592-.512v-1.968c-.56.336-1.344.56-2.16.56-1.2 0-2.352-.672-2.352-2.144 0-1.552 1.168-2.144 2.384-2.144.736 0 1.504.224 2.048.576v-1.952c-.688-.368-1.52-.56-2.368-.56-2.128 0-4.336 1.248-4.336 4.192z"/><path d="m426.318 64v-5.808h2.448v-1.872h-7.104v1.872h2.448v5.808z"/><path d="m436.714 62.016v-2.448c0-2.528-1.472-3.472-3.776-3.472-1.184 0-2.352.304-2.976.512v1.92c.72-.288 1.664-.576 2.72-.576 1.2 0 1.808.528 1.808 1.296v.272c-.544-.128-1.216-.208-1.824-.208-1.536 0-3.376.608-3.376 2.56 0 1.52 1.248 2.352 2.688 2.352 1.136 0 2.016-.352 2.768-.944.32.576.912.864 1.696.864.432 0 .88-.096 1.232-.224v-1.456c-.144.048-.288.064-.416.064-.288 0-.544-.112-.544-.512zm-3.536-1.376c.464 0 .976.096 1.312.176v1.2c-.512.448-1.104.624-1.728.624-.672 0-1.2-.368-1.2-.944 0-.784.8-1.056 1.616-1.056z"/><path d="m444.914 59.824-4.432-1.424 4.432-1.424v-2l-6.368 2.32v2.208l6.368 2.32z"/><path d="m447.968 64.944 4.896-13.088h-1.584l-4.896 13.088z"/><path d="m453.186 58.464c0 2.752 4.336 2.208 4.336 3.44 0 .432-.528.576-1.344.576-.928 0-2.096-.272-2.928-.816v1.84c.784.464 1.888.72 3.056.72 1.84 0 3.488-.56 3.488-2.368 0-2.816-4.336-2.176-4.336-3.456 0-.464.576-.608 1.072-.608.912 0 2.032.336 2.688.784v-1.824c-.784-.384-1.744-.656-2.832-.656-1.616 0-3.2.592-3.2 2.368z"/><path d="m463.115 57.44v-1.12h-1.968v11.2h2.224v-4.336c.496.544 1.312 1.04 2.528 1.04 2.432 0 3.744-1.968 3.744-4.064s-1.312-4.064-3.744-4.064c-1.424 0-2.304.656-2.784 1.344zm4.256 2.72c0 1.2-.752 2.192-2.016 2.192-.976 0-1.696-.608-2-1.28v-1.824c.304-.672 1.024-1.28 2-1.28 1.264 0 2.016.992 2.016 2.192z"/><path d="m477.964 62.016v-2.448c0-2.528-1.472-3.472-3.776-3.472-1.184 0-2.352.304-2.976.512v1.92c.72-.288 1.664-.576 2.72-.576 1.2 0 1.808.528 1.808 1.296v.272c-.544-.128-1.216-.208-1.824-.208-1.536 0-3.376.608-3.376 2.56 0 1.52 1.248 2.352 2.688 2.352 1.136 0 2.016-.352 2.768-.944.32.576.912.864 1.696.864.432 0 .88-.096 1.232-.224v-1.456c-.144.048-.288.064-.416.064-.288 0-.544-.112-.544-.512zm-3.536-1.376c.464 0 .976.096 1.312.176v1.2c-.512.448-1.104.624-1.728.624-.672 0-1.2-.368-1.2-.944 0-.784.8-1.056 1.616-1.056z"/><path d="m481.943 57.296v-.976h-1.968v7.68h2.224v-5.008c.32-.464.928-.976 1.712-.976.864 0 1.488.48 1.488 1.52v4.464h2.224v-4.752c0-1.776-1.104-3.152-3.12-3.152-1.104 0-1.968.512-2.56 1.2z"/><path d="m495.941 59.504v-2.208l-6.368-2.32v2l4.432 1.424-4.432 1.424v2z"/></g><path d="m517 52c0-4.4183 3.582-8 8-8h178v30h-178c-4.418 0-8-3.5817-8-8z" fill="#4eb543"/><path d="m2 86h170c4.418 0 8 3.5817 8 8v14c0 4.418-3.582 8-8 8h-170z" fill="#4eb543"/><path d="m533.992 59.824-4.432-1.424 4.432-1.424v-2l-6.368 2.32v2.208l6.368 2.32z" fill="#fff"/><path d="m535.606 60.16c0 2.672 2.016 4.0641 4.448 4.0641 1.152 0 2.096-.176 2.816-.48v-1.7441c-.656.288-1.44.464-2.32.464-1.264 0-2.448-.464-2.704-1.584h5.408c.512-2.272-.512-4.784-3.696-4.784-1.728 0-3.952 1.168-3.952 4.064zm5.648-.72h-3.424c.032-1.056.864-1.648 1.808-1.648 1.392 0 1.696 1.12 1.616 1.648z" fill="#fff"/><path d="m547.012 64v-5.056c.368-.48.976-.928 1.648-.928.704 0 1.2.464 1.2 1.264v4.72h2.208v-4.864c0-.128 0-.24-.016-.352.368-.416.912-.768 1.52-.768.704 0 1.2.464 1.2 1.264v4.72h2.208v-4.864c0-1.36-.704-3.04-2.864-3.04-1.056 0-1.92.512-2.56 1.136-.448-.656-1.2-1.136-2.352-1.136-1.168 0-2.048.64-2.448 1.12v-.896h-1.968v7.68z" fill="#fff"/><path d="m565.316 59.504v-2.208l-6.368-2.32v2l4.432 1.424-4.432 1.424v2z" fill="#fff"/><path d="m566.146 52.8v2.16h3.44v9.04h2.384v-9.04h3.44v-2.16z" fill="#fff"/><path d="m574.356 60.16c0 2.672 2.016 4.0641 4.448 4.0641 1.152 0 2.096-.176 2.816-.48v-1.7441c-.656.288-1.44.464-2.32.464-1.264 0-2.448-.464-2.704-1.584h5.408c.512-2.272-.512-4.784-3.696-4.784-1.728 0-3.952 1.168-3.952 4.064zm5.648-.72h-3.424c.032-1.056.864-1.648 1.808-1.648 1.392 0 1.696 1.12 1.616 1.648z" fill="#fff"/><path d="m585.731 64v-3.04h.896l2.208 3.04h2.496l-2.864-3.888 2.64-3.792h-2.496l-1.952 2.864h-.928v-2.864h-2.224v7.68z" fill="#fff"/><path d="m591.434 60.272c0 2.736 2.096 3.9521 4.192 3.9521.976 0 1.84-.1921 2.592-.5121v-1.968c-.56.336-1.344.56-2.16.56-1.2 0-2.352-.672-2.352-2.144 0-1.552 1.168-2.144 2.384-2.144.736 0 1.504.224 2.048.576v-1.952c-.688-.368-1.52-.56-2.368-.56-2.128 0-4.336 1.248-4.336 4.192z" fill="#fff"/><path d="m603.725 64v-5.808h2.448v-1.872h-7.104v1.872h2.448v5.808z" fill="#fff"/><path d="m607.591 66.32 1.568-4.304h-2.352l-1.008 4.304z" fill="#fff"/><path d="m619.086 64c1.936 0 2.576-.992 2.576-2.08 0-.928-.528-1.536-1.36-1.808.752-.288 1.184-.88 1.184-1.76 0-1.04-.704-2.032-2.528-2.032h-4.576v7.68zm-2.48-3.184h1.824c.544 0 1.024.192 1.024.848 0 .608-.464.816-1.024.816h-1.824zm-.016-2.976h1.68c.512 0 .976.192.976.832 0 .592-.432.8-.96.8h-1.696z" fill="#fff"/><path d="m627.163 64c2.016 0 3.104-1.168 3.104-2.64s-1.088-2.64-3.104-2.64h-1.776v-2.4h-2.224v7.68zm-1.792-3.68h1.248c.88 0 1.36.384 1.36 1.04s-.48 1.04-1.36 1.04h-1.248zm8.368 3.68v-7.68h-2.224v7.68z" fill="#fff"/><path d="m637.072 66.032v-2.032h5.568v2.032h2.048v-3.728h-1.152v-5.984h-6.32c.048 2.432-.192 4.368-1.12 5.984h-1.072v3.728zm2.192-8.016h2.064v4.288h-2.928c.576-1.248.8-2.48.864-4.288z" fill="#fff"/><path d="m645.465 60.16c0 2.672 2.016 4.0641 4.448 4.0641 1.152 0 2.096-.176 2.816-.48v-1.7441c-.656.288-1.44.464-2.32.464-1.264 0-2.448-.464-2.704-1.584h5.408c.512-2.272-.512-4.784-3.696-4.784-1.728 0-3.952 1.168-3.952 4.064zm5.648-.72h-3.424c.032-1.056.864-1.648 1.808-1.648 1.392 0 1.696 1.12 1.616 1.648z" fill="#fff"/><path d="m658.024 58.08h1.968v5.92h2.224v-7.68h-6.24c-.144 3.44-.416 5.952-1.632 5.952-.144 0-.304-.032-.464-.096v1.76c.448.16.864.224 1.216.224 2.112 0 2.704-2.624 2.928-6.08z" fill="#fff"/><path d="m663.668 60.16c0 2.672 2.016 4.0641 4.448 4.0641 1.152 0 2.096-.176 2.816-.48v-1.7441c-.656.288-1.44.464-2.32.464-1.264 0-2.448-.464-2.704-1.584h5.408c.512-2.272-.512-4.784-3.696-4.784-1.728 0-3.952 1.168-3.952 4.064zm5.648-.72h-3.424c.032-1.056.864-1.648 1.808-1.648 1.392 0 1.696 1.12 1.616 1.648z" fill="#fff"/><path d="m675.043 64v-2.912h3.104v2.912h2.224v-7.68h-2.224v2.912h-3.104v-2.912h-2.224v7.68z" fill="#fff"/><path d="m682.193 59.168v1.872h5.952v-1.872z" fill="#fff"/><path d="m18.168 106v-2.912h3.104v2.912h2.224v-7.68h-2.224v2.912h-3.104v-2.912h-2.224v7.68z" fill="#fff"/><path d="m29.3815 106c2.016 0 3.104-1.168 3.104-2.64s-1.088-2.64-3.104-2.64h-1.776v-2.4h-2.224v7.68zm-1.792-3.68h1.248c.88 0 1.36.384 1.36 1.04s-.48 1.04-1.36 1.04h-1.248zm8.368 3.68v-7.68h-2.224v7.68z" fill="#fff"/><path d="m44.0903 96.752v-1.664c-.8481.464-1.632.608-2.448.608s-1.6-.144-2.448-.608v1.664c.704.432 1.456.64 2.448.64s1.744-.208 2.448-.64zm-4.304 9.248 3.424-4.32v4.32h2.208v-7.68h-1.92l-3.4241 4.32v-4.32h-2.2239v7.68z" fill="#fff"/><path d="m53.0742 106v-3.04h.896l2.208 3.04h2.4961l-2.8641-3.888 2.64-3.792h-2.4959l-1.952 2.864h-.9281v-2.864h-2.2239v7.68z" fill="#fff"/><path d="m63.3119 103.504-2.24-5.184h-2.352l3.632 7.792-.016.032c-.416 1.136-1.024 1.68-1.824 1.68-.304 0-.608-.048-.912-.112v1.84c.4.096.8.176 1.2.176 1.248 0 2.448-.656 3.312-2.8l3.408-8.608h-2.304z" fill="#fff"/><path d="m70.5995 99.44v-1.12h-1.968v11.2h2.224v-4.336c.496.544 1.312 1.04 2.528 1.04 2.432 0 3.744-1.968 3.744-4.064s-1.312-4.064-3.744-4.064c-1.424 0-2.304.656-2.784 1.344zm4.256 2.72c0 1.2-.752 2.192-2.016 2.192-.976 0-1.696-.608-2-1.28v-1.824c.304-.672 1.024-1.28 2-1.28 1.264 0 2.016.992 2.016 2.192z" fill="#fff"/><path d="m78.1526 102.272c0 2.736 2.096 3.952 4.192 3.952.976 0 1.84-.192 2.592-.512v-1.968c-.56.336-1.344.56-2.16.56-1.2 0-2.352-.672-2.352-2.144 0-1.552 1.168-2.144 2.384-2.144.736 0 1.504.224 2.048.576v-1.952c-.688-.368-1.52-.56-2.368-.56-2.128 0-4.336 1.248-4.336 4.192z" fill="#fff"/><path d="m88.4112 106 3.4241-4.32v4.32h2.208v-7.68h-1.92l-3.4241 4.32v-4.32h-2.2239v7.68z" fill="#fff"/><path d="m100.632 106c1.936 0 2.576-.992 2.576-2.08 0-.928-.528-1.536-1.36-1.808.752-.288 1.184-.88 1.184-1.76 0-1.04-.704-2.032-2.528-2.032h-4.5756v7.68zm-2.4796-3.184h1.824c.5436 0 1.0236.192 1.0236.848 0 .608-.464.816-1.0236.816h-1.824zm-.016-2.976h1.68c.5116 0 .9756.192.9756.832 0 .592-.432.8-.9596.8h-1.696z" fill="#fff"/><path d="m104.278 102.16c0 2.688 2.016 4.064 4.24 4.064 2.24 0 4.24-1.376 4.24-4.064s-2-4.064-4.24-4.064c-2.224 0-4.24 1.376-4.24 4.064zm6.224 0c0 1.184-.704 2.08-1.984 2.08-1.264 0-1.968-.896-1.968-2.08s.704-2.08 1.968-2.08c1.28 0 1.984.896 1.984 2.08z" fill="#fff"/><path d="m116.37 106v-4.528l1.808 2.864h1.104l1.808-2.864v4.528h2.144v-7.68h-2.112l-2.4 3.808-2.384-3.808h-2.128v7.68z" fill="#fff"/><path d="m131.164 101.824-4.432-1.424 4.432-1.424v-2l-6.368 2.32v2.208l6.368 2.32z" fill="#fff"/><path d="m134.218 106.944 4.896-13.088h-1.584l-4.896 13.088z" fill="#fff"/><path d="m139.2 102.16c0 2.672 2.016 4.064 4.448 4.064 1.152 0 2.096-.176 2.816-.48v-1.744c-.656.288-1.441.464-2.321.464-1.264 0-2.448-.464-2.704-1.584h5.409c.512-2.272-.512-4.784-3.696-4.784-1.728 0-3.952 1.168-3.952 4.064zm5.648-.72h-3.424c.032-1.056.864-1.648 1.808-1.648 1.392 0 1.696 1.12 1.616 1.648z" fill="#fff"/><path d="m150.605 106v-5.056c.368-.48.976-.928 1.648-.928.704 0 1.201.464 1.201 1.264v4.72h2.207v-4.864c0-.128.001-.24-.015-.352.368-.416.911-.768 1.519-.768.704 0 1.2.464 1.2 1.264v4.72h2.209v-4.864c0-1.36-.704-3.04-2.864-3.04-1.056 0-1.92.512-2.56 1.136-.448-.656-1.2-1.136-2.352-1.136-1.168 0-2.048.64-2.448 1.12v-.896h-1.968v7.68z" fill="#fff"/><path d="m168.91 101.504v-2.208l-6.368-2.32v2l4.431 1.424-4.431 1.424v2z" fill="#fff"/></svg>