<svg fill="none" height="178" viewBox="0 0 705 178" width="705" xmlns="http://www.w3.org/2000/svg"><path d="m0 0h705v178h-705z" fill="#fdede8"/><path d="m182 0h291v178h-291z" fill="#fadbd1"/><path d="m0 40h705v108h-705z" fill="#fadbd1"/><path d="m183 41h289v106h-289z" fill="#cbeac7"/><path clip-rule="evenodd" d="m471 42h-287v104h287zm-289-2v108h291v-108z" fill="#ffad33" fill-rule="evenodd"/><path d="m214 72h227v44h-227z" fill="#4839c6"/><path d="m291.753 94.34c0 3.42 2.62 4.94 5.24 4.94 1.22 0 2.3-.24 3.24-.64v-2.46c-.7.42-1.68.7-2.7.7-1.5 0-2.94-.84-2.94-2.68 0-1.94 1.46-2.68 2.98-2.68.92 0 1.88.28 2.56.72v-2.44c-.86-.46-1.9-.7-2.96-.7-2.66 0-5.42 1.56-5.42 5.24z" fill="#fff"/><path d="m301.558 94.2c0 3.36 2.52 5.08 5.3 5.08 2.8 0 5.3-1.72 5.3-5.08s-2.5-5.08-5.3-5.08c-2.78 0-5.3 1.72-5.3 5.08zm7.78 0c0 1.48-.88 2.6-2.48 2.6-1.58 0-2.46-1.12-2.46-2.6s.88-2.6 2.46-2.6c1.6 0 2.48 1.12 2.48 2.6z" fill="#fff"/><path d="m316.433 90.62v-1.22h-2.46v9.6h2.78v-6.26c.4-.58 1.16-1.22 2.14-1.22 1.08 0 1.86.6 1.86 1.9v5.58h2.78v-5.94c0-2.22-1.38-3.94-3.9-3.94-1.38 0-2.46.64-3.2 1.5z" fill="#fff"/><path d="m326.411 86.6v2.8h-1.62v2.34h1.62v4.3c0 2.38 1.6 3.24 3.46 3.24.96 0 1.84-.16 2.58-.42v-2.24c-.56.22-1.1.32-1.74.32-1.04 0-1.54-.44-1.54-1.44v-3.76h3.04v-2.34h-3.04v-3.46z" fill="#fff"/><path d="m333.511 94.2c0 3.34 2.52 5.08 5.56 5.08 1.44 0 2.62-.22 3.52-.6v-2.18c-.82.36-1.8.58-2.9.58-1.58 0-3.06-.58-3.38-1.98h6.76c.64-2.84-.64-5.98-4.62-5.98-2.16 0-4.94 1.46-4.94 5.08zm7.06-.9h-4.28c.04-1.32 1.08-2.06 2.26-2.06 1.74 0 2.12 1.4 2.02 2.06z" fill="#fff"/><path d="m347.448 90.62v-1.22h-2.46v9.6h2.78v-6.26c.4-.58 1.16-1.22 2.14-1.22 1.08 0 1.86.6 1.86 1.9v5.58h2.78v-5.94c0-2.22-1.38-3.94-3.9-3.94-1.38 0-2.46.64-3.2 1.5z" fill="#fff"/><path d="m357.427 86.6v2.8h-1.62v2.34h1.62v4.3c0 2.38 1.6 3.24 3.46 3.24.96 0 1.84-.16 2.58-.42v-2.24c-.56.22-1.1.32-1.74.32-1.04 0-1.54-.44-1.54-1.44v-3.76h3.04v-2.34h-3.04v-3.46z" fill="#fff"/><g fill="#333"><path d="m20.5433 98v-5.056c.368-.48.976-.928 1.648-.928.704 0 1.2.464 1.2 1.264v4.72h2.208v-4.864c0-.128 0-.24-.016-.352.368-.416.912-.768 1.52-.768.704 0 1.2.464 1.2 1.264v4.72h2.208v-4.864c0-1.36-.704-3.04-2.864-3.04-1.056 0-1.92.512-2.56 1.136-.448-.656-1.2-1.136-2.352-1.136-1.168 0-2.048.64-2.448 1.12v-.896h-1.968v7.68z"/><path d="m39.1833 96.016v-2.448c0-2.528-1.472-3.472-3.776-3.472-1.184 0-2.352.304-2.976.512v1.92c.72-.288 1.664-.576 2.72-.576 1.2 0 1.808.528 1.808 1.296v.272c-.544-.128-1.216-.208-1.824-.208-1.536 0-3.376.608-3.376 2.56 0 1.52 1.248 2.352 2.688 2.352 1.136 0 2.016-.352 2.768-.944.32.576.912.864 1.696.864.432 0 .88-.096 1.232-.224v-1.456c-.144.048-.288.064-.416.064-.288 0-.544-.112-.544-.512zm-3.536-1.376c.464 0 .976.096 1.312.176v1.2c-.512.448-1.104.624-1.728.624-.672 0-1.2-.368-1.2-.944 0-.784.8-1.056 1.616-1.056z"/><path d="m43.1623 91.472v-1.152h-1.968v7.68h2.224v-4.512c.464-.912 1.632-1.376 2.848-1.168v-2.16c-1.44-.144-2.56.464-3.104 1.312z"/><path d="m46.8561 94.16c0 2.096 1.312 4.064 3.76 4.064 1.216 0 2.032-.496 2.528-1.04v.704c0 1.52-1.136 1.984-2.496 1.984-1.056 0-2.096-.288-2.96-.8v1.952c.928.448 2.048.72 3.248.72 2.256 0 4.416-1.024 4.416-3.952v-7.472h-1.952v1.12c-.496-.688-1.376-1.344-2.784-1.344-2.448 0-3.76 1.968-3.76 4.064zm6.288-.912v1.872c-.304.64-1.024 1.232-2 1.232-1.264 0-2.016-.992-2.016-2.192s.752-2.192 2.016-2.192c.976 0 1.696.608 2 1.28z"/><path d="m59.4812 98v-7.68h-2.224v7.68zm.192-10.224c0-.864-.608-1.248-1.312-1.248-.688 0-1.296.384-1.296 1.248 0 .88.608 1.264 1.296 1.264.704 0 1.312-.384 1.312-1.264z"/><path d="m63.3655 91.296v-.976h-1.968v7.68h2.224v-5.008c.32-.464.928-.976 1.712-.976.864 0 1.488.48 1.488 1.52v4.464h2.224v-4.752c0-1.776-1.104-3.152-3.12-3.152-1.104 0-1.968.512-2.56 1.2z"/><path d="m70.771 93.168v1.872h5.952v-1.872z"/><path d="m78.5857 86.32v11.68h2.224v-11.68z"/><path d="m82.2936 94.16c0 2.672 2.016 4.064 4.448 4.064 1.152 0 2.096-.176 2.816-.48v-1.744c-.656.288-1.44.464-2.32.464-1.264 0-2.448-.464-2.704-1.584h5.408c.512-2.272-.512-4.784-3.696-4.784-1.728 0-3.952 1.168-3.952 4.064zm5.648-.72h-3.424c.032-1.056.864-1.648 1.808-1.648 1.392 0 1.696 1.12 1.616 1.648z"/><path d="m94.4356 98v-5.808h2.352v-1.872h-2.352v-.656c0-.96.656-1.216 1.376-1.216.496 0 .992.128 1.328.32v-1.872c-.496-.192-1.184-.32-1.888-.32-1.456 0-3.024.672-3.024 2.992v.752h-1.328v1.872h1.328v5.808z"/><path d="m98.5047 88.08v2.24h-1.296v1.872h1.296v3.44c0 1.904 1.28 2.592 2.7683 2.592.768 0 1.472-.128 2.064-.336v-1.792c-.448.176-.88.256-1.392.256-.832 0-1.232-.352-1.232-1.152v-3.008h2.432v-1.872h-2.432v-2.768z"/><path d="m107.272 92.032c0-.896-.624-1.312-1.344-1.312s-1.36.416-1.36 1.312c0 .912.64 1.312 1.36 1.312s1.344-.4 1.344-1.312zm0 4.864c0-.896-.624-1.312-1.344-1.312s-1.36.416-1.36 1.312.64 1.312 1.36 1.312 1.344-.416 1.344-1.312z"/><path d="m115.175 87.12-2.64 1.008v2.16l2.048-.768v6.416h-2.048v2.064h6.208v-2.064h-1.824v-8.816z"/><path d="m120.15 89.904c0 1.104.544 1.824 1.296 2.336-1.024.608-1.696 1.648-1.696 2.736 0 1.664 1.376 3.248 4.624 3.248 3.28 0 4.592-1.568 4.592-3.168 0-1.312-.784-2.08-1.776-2.576.88-.656 1.392-1.456 1.376-2.512-.016-1.52-1.456-3.072-4.224-3.072-2.976 0-4.192 1.552-4.192 3.008zm4.464 3.616c1.072.368 1.968.672 1.968 1.6 0 .736-.88 1.216-2.032 1.216-1.648 0-2.384-.72-2.4-1.648-.016-.56.256-1.216.848-1.712.56.208 1.136.368 1.616.544zm1.648-3.376c.016.528-.256 1.168-.768 1.68-.352-.096-.688-.208-1.008-.288-1.072-.352-2.048-.656-2.048-1.616 0-.608.656-1.136 1.808-1.136 1.344 0 2.016.608 2.016 1.36z"/><path d="m130.313 92.56c0 3.136 1.488 5.664 4.96 5.664s4.96-2.528 4.96-5.664-1.488-5.664-4.96-5.664-4.96 2.528-4.96 5.664zm7.52 0c0 2.32-.8 3.552-2.56 3.552s-2.56-1.232-2.56-3.552.8-3.552 2.56-3.552 2.56 1.232 2.56 3.552z"/><path d="m143.834 91.44v-1.12h-1.968v11.2h2.224v-4.336c.496.544 1.312 1.04 2.528 1.04 2.432 0 3.744-1.968 3.744-4.064s-1.312-4.064-3.744-4.064c-1.424 0-2.304.656-2.784 1.344zm4.256 2.72c0 1.2-.752 2.192-2.016 2.192-.976 0-1.696-.608-2-1.28v-1.824c.304-.672 1.024-1.28 2-1.28 1.264 0 2.016.992 2.016 2.192z"/><path d="m156.277 90.32-1.536 2.304-1.568-2.304h-2.512l2.784 3.808-2.928 3.872h2.512l1.712-2.352 1.696 2.352h2.512l-2.928-3.872 2.768-3.808z"/><path d="m161.081 100.32 1.568-4.304h-2.352l-1.008 4.304zm1.584-8.736c0-.896-.624-1.296-1.36-1.296-.704 0-1.344.4-1.344 1.296 0 .912.64 1.328 1.344 1.328.736 0 1.36-.416 1.36-1.328z"/><path d="m514.286 98v-5.056c.368-.48.976-.928 1.648-.928.704 0 1.2.464 1.2 1.264v4.72h2.208v-4.864c0-.128 0-.24-.016-.352.368-.416.912-.768 1.52-.768.704 0 1.2.464 1.2 1.264v4.72h2.208v-4.864c0-1.36-.704-3.04-2.864-3.04-1.056 0-1.92.512-2.56 1.136-.448-.656-1.2-1.136-2.352-1.136-1.168 0-2.048.64-2.448 1.12v-.896h-1.968v7.68z"/><path d="m532.926 96.016v-2.448c0-2.528-1.472-3.472-3.776-3.472-1.184 0-2.352.304-2.976.512v1.92c.72-.288 1.664-.576 2.72-.576 1.2 0 1.808.528 1.808 1.296v.272c-.544-.128-1.216-.208-1.824-.208-1.536 0-3.376.608-3.376 2.56 0 1.52 1.248 2.352 2.688 2.352 1.136 0 2.016-.352 2.768-.944.32.576.912.864 1.696.864.432 0 .88-.096 1.232-.224v-1.456c-.144.048-.288.064-.416.064-.288 0-.544-.112-.544-.512zm-3.536-1.376c.464 0 .976.096 1.312.176v1.2c-.512.448-1.104.624-1.728.624-.672 0-1.2-.368-1.2-.944 0-.784.8-1.056 1.616-1.056z"/><path d="m536.905 91.472v-1.152h-1.968v7.68h2.224v-4.512c.464-.912 1.632-1.376 2.848-1.168v-2.16c-1.44-.144-2.56.464-3.104 1.312z"/><path d="m540.598 94.16c0 2.096 1.312 4.064 3.76 4.064 1.216 0 2.032-.496 2.528-1.04v.704c0 1.52-1.136 1.984-2.496 1.984-1.056 0-2.096-.288-2.96-.8v1.952c.928.448 2.048.72 3.248.72 2.256 0 4.416-1.024 4.416-3.952v-7.472h-1.952v1.12c-.496-.688-1.376-1.344-2.784-1.344-2.448 0-3.76 1.968-3.76 4.064zm6.288-.912v1.872c-.304.64-1.024 1.232-2 1.232-1.264 0-2.016-.992-2.016-2.192s.752-2.192 2.016-2.192c.976 0 1.696.608 2 1.28z"/><path d="m553.223 98v-7.68h-2.224v7.68zm.192-10.224c0-.864-.608-1.248-1.312-1.248-.688 0-1.296.384-1.296 1.248 0 .88.608 1.264 1.296 1.264.704 0 1.312-.384 1.312-1.264z"/><path d="m557.108 91.296v-.976h-1.968v7.68h2.224v-5.008c.32-.464.928-.976 1.712-.976.864 0 1.488.48 1.488 1.52v4.464h2.224v-4.752c0-1.776-1.104-3.152-3.12-3.152-1.104 0-1.968.512-2.56 1.2z"/><path d="m564.513 93.168v1.872h5.952v-1.872z"/><path d="m574.264 91.472v-1.152h-1.968v7.68h2.224v-4.512c.464-.912 1.632-1.376 2.848-1.168v-2.16c-1.44-.144-2.56.464-3.104 1.312z"/><path d="m580.786 98v-7.68h-2.224v7.68zm.192-10.224c0-.864-.608-1.248-1.312-1.248-.688 0-1.296.384-1.296 1.248 0 .88.608 1.264 1.296 1.264.704 0 1.312-.384 1.312-1.264z"/><path d="m582.27 94.16c0 2.096 1.312 4.064 3.76 4.064 1.216 0 2.032-.496 2.528-1.04v.704c0 1.52-1.136 1.984-2.496 1.984-1.056 0-2.096-.288-2.96-.8v1.952c.928.448 2.048.72 3.248.72 2.256 0 4.416-1.024 4.416-3.952v-7.472h-1.952v1.12c-.496-.688-1.376-1.344-2.784-1.344-2.448 0-3.76 1.968-3.76 4.064zm6.288-.912v1.872c-.304.64-1.024 1.232-2 1.232-1.264 0-2.016-.992-2.016-2.192s.752-2.192 2.016-2.192c.976 0 1.696.608 2 1.28z"/><path d="m592.655 86.8v11.2h2.224v-5.008c.32-.464.928-.976 1.712-.976.864 0 1.488.48 1.488 1.52v4.464h2.224v-4.752c0-1.776-1.104-3.152-3.12-3.152-.96 0-1.744.4-2.304.928v-4.224z"/><path d="m602.606 88.08v2.24h-1.296v1.872h1.296v3.44c0 1.904 1.28 2.592 2.768 2.592.768 0 1.472-.128 2.064-.336v-1.792c-.448.176-.88.256-1.392.256-.832 0-1.232-.352-1.232-1.152v-3.008h2.432v-1.872h-2.432v-2.768z"/><path d="m611.374 92.032c0-.896-.624-1.312-1.344-1.312s-1.36.416-1.36 1.312c0 .912.64 1.312 1.36 1.312s1.344-.4 1.344-1.312zm0 4.864c0-.896-.624-1.312-1.344-1.312s-1.36.416-1.36 1.312.64 1.312 1.36 1.312 1.344-.416 1.344-1.312z"/><path d="m616.829 88.048v2.24c1.152-.88 2.432-1.296 3.52-1.296 1.104 0 1.808.416 1.808 1.216 0 1.04-.976 1.472-2.112 2.128-1.6.944-3.584 1.968-3.584 4.592v1.072h8.16v-2.064l-5.44.016c.016-.704 1.12-1.296 2.416-2.064 1.424-.848 2.944-1.936 2.944-3.776 0-2.224-1.776-3.216-3.968-3.216-1.328 0-2.624.352-3.744 1.152z"/><path d="m633.784 89.904c0-1.984-1.68-3.008-3.936-3.008-1.344 0-2.576.32-3.552.848v2.224c1.072-.656 2.24-.976 3.216-.976 1.312 0 2 .464 2 1.248 0 .752-.656 1.152-1.728 1.152l-1.504-.016-.016 2.048h1.792c1.088 0 1.888.336 1.888 1.264 0 1.024-1.024 1.424-2.256 1.424-1.248.016-2.352-.16-3.584-.848v2.224c1.232.512 2.368.736 3.776.736 2.24 0 4.352-.912 4.352-3.2 0-1.6-.992-2.448-2.096-2.784 1.024-.352 1.648-1.216 1.648-2.336z"/><path d="m635.571 92.56c0 3.136 1.488 5.664 4.96 5.664s4.96-2.528 4.96-5.664-1.488-5.664-4.96-5.664-4.96 2.528-4.96 5.664zm7.52 0c0 2.32-.8 3.552-2.56 3.552s-2.56-1.232-2.56-3.552.8-3.552 2.56-3.552 2.56 1.232 2.56 3.552z"/><path d="m649.092 91.44v-1.12h-1.968v11.2h2.224v-4.336c.496.544 1.312 1.04 2.528 1.04 2.432 0 3.744-1.968 3.744-4.064s-1.312-4.064-3.744-4.064c-1.424 0-2.304.656-2.784 1.344zm4.256 2.72c0 1.2-.752 2.192-2.016 2.192-.976 0-1.696-.608-2-1.28v-1.824c.304-.672 1.024-1.28 2-1.28 1.264 0 2.016.992 2.016 2.192z"/><path d="m661.535 90.32-1.536 2.304-1.568-2.304h-2.512l2.784 3.808-2.928 3.872h2.512l1.712-2.352 1.696 2.352h2.512l-2.928-3.872 2.768-3.808z"/><path d="m666.339 100.32 1.568-4.304h-2.352l-1.008 4.304zm1.584-8.736c0-.896-.624-1.296-1.36-1.296-.704 0-1.344.4-1.344 1.296 0 .912.64 1.328 1.344 1.328.736 0 1.36-.416 1.36-1.328z"/><path d="m261.317 30v-5.056c.368-.48.976-.928 1.648-.928.704 0 1.2.464 1.2 1.264v4.72h2.208v-4.864c0-.128 0-.24-.016-.352.368-.416.912-.768 1.52-.768.704 0 1.2.464 1.2 1.264v4.72h2.208v-4.864c0-1.36-.704-3.04-2.864-3.04-1.056 0-1.92.512-2.56 1.136-.448-.656-1.2-1.136-2.352-1.136-1.168 0-2.048.64-2.448 1.12v-.896h-1.968v7.68z"/><path d="m279.957 28.016v-2.448c0-2.528-1.472-3.472-3.776-3.472-1.184 0-2.352.304-2.976.512v1.92c.72-.288 1.664-.576 2.72-.576 1.2 0 1.808.528 1.808 1.296v.272c-.544-.128-1.216-.208-1.824-.208-1.536 0-3.376.608-3.376 2.56 0 1.52 1.248 2.352 2.688 2.352 1.136 0 2.016-.352 2.768-.944.32.576.912.864 1.696.864.432 0 .88-.096 1.232-.224v-1.456c-.144.048-.288.064-.416.064-.288 0-.544-.112-.544-.512zm-3.536-1.376c.464 0 .976.096 1.312.176v1.2c-.512.448-1.104.624-1.728.624-.672 0-1.2-.368-1.2-.944 0-.784.8-1.056 1.616-1.056z"/><path d="m283.936 23.472v-1.152h-1.968v7.68h2.224v-4.512c.464-.912 1.632-1.376 2.848-1.168v-2.16c-1.44-.144-2.56.464-3.104 1.312z"/><path d="m287.63 26.16c0 2.096 1.312 4.064 3.76 4.064 1.216 0 2.032-.496 2.528-1.04v.704c0 1.52-1.136 1.984-2.496 1.984-1.056 0-2.096-.288-2.96-.8v1.952c.928.448 2.048.72 3.248.72 2.256 0 4.416-1.024 4.416-3.952v-7.472h-1.952v1.12c-.496-.688-1.376-1.344-2.784-1.344-2.448 0-3.76 1.968-3.76 4.064zm6.288-.912v1.872c-.304.64-1.024 1.232-2 1.232-1.264 0-2.016-.992-2.016-2.192s.752-2.192 2.016-2.192c.976 0 1.696.608 2 1.28z"/><path d="m300.255 30v-7.68h-2.224v7.68zm.192-10.224c0-.864-.608-1.248-1.312-1.248-.688 0-1.296.384-1.296 1.248 0 .88.608 1.264 1.296 1.264.704 0 1.312-.384 1.312-1.264z"/><path d="m304.139 23.296v-.976h-1.968v7.68h2.224v-5.008c.32-.464.928-.976 1.712-.976.864 0 1.488.48 1.488 1.52v4.464h2.224v-4.752c0-1.776-1.104-3.152-3.12-3.152-1.104 0-1.968.512-2.56 1.2z"/><path d="m311.544 25.168v1.872h5.952v-1.872z"/><path d="m319.7 20.08v2.24h-1.296v1.872h1.296v3.44c0 1.904 1.28 2.592 2.768 2.592.768 0 1.472-.128 2.064-.336v-1.792c-.448.176-.88.256-1.392.256-.832 0-1.232-.352-1.232-1.152v-3.008h2.432v-1.872h-2.432v-2.768z"/><path d="m325.38 26.16c0 2.688 2.016 4.064 4.24 4.064 2.24 0 4.24-1.376 4.24-4.064s-2-4.064-4.24-4.064c-2.224 0-4.24 1.376-4.24 4.064zm6.224 0c0 1.184-.704 2.08-1.984 2.08-1.264 0-1.968-.896-1.968-2.08s.704-2.08 1.968-2.08c1.28 0 1.984.896 1.984 2.08z"/><path d="m337.28 23.44v-1.12h-1.968v11.2h2.224v-4.336c.496.544 1.312 1.04 2.528 1.04 2.432 0 3.744-1.968 3.744-4.064s-1.312-4.064-3.744-4.064c-1.424 0-2.304.656-2.784 1.344zm4.256 2.72c0 1.2-.752 2.192-2.016 2.192-.976 0-1.696-.608-2-1.28v-1.824c.304-.672 1.024-1.28 2-1.28 1.264 0 2.016.992 2.016 2.192z"/><path d="m347.921 24.032c0-.896-.624-1.312-1.344-1.312s-1.36.416-1.36 1.312c0 .912.64 1.312 1.36 1.312s1.344-.4 1.344-1.312zm0 4.864c0-.896-.624-1.312-1.344-1.312s-1.36.416-1.36 1.312.64 1.312 1.36 1.312 1.344-.416 1.344-1.312z"/><path d="m358.336 19.12-5.616 6.912v1.984h5.712v1.984h2.288v-1.984h1.648v-2h-1.648v-6.896zm.096 6.896h-3.216l3.216-3.968z"/><path d="m363.54 24.56c0 3.136 1.488 5.664 4.96 5.664s4.96-2.528 4.96-5.664-1.488-5.664-4.96-5.664-4.96 2.528-4.96 5.664zm7.52 0c0 2.32-.8 3.552-2.56 3.552s-2.56-1.232-2.56-3.552.8-3.552 2.56-3.552 2.56 1.232 2.56 3.552z"/><path d="m377.061 23.44v-1.12h-1.968v11.2h2.224v-4.336c.496.544 1.312 1.04 2.528 1.04 2.432 0 3.744-1.968 3.744-4.064s-1.312-4.064-3.744-4.064c-1.424 0-2.304.656-2.784 1.344zm4.256 2.72c0 1.2-.752 2.192-2.016 2.192-.976 0-1.696-.608-2-1.28v-1.824c.304-.672 1.024-1.28 2-1.28 1.264 0 2.016.992 2.016 2.192z"/><path d="m389.503 22.32-1.536 2.304-1.568-2.304h-2.512l2.784 3.808-2.928 3.872h2.512l1.712-2.352 1.696 2.352h2.512l-2.928-3.872 2.768-3.808z"/><path d="m394.308 32.32 1.568-4.304h-2.352l-1.008 4.304zm1.584-8.736c0-.896-.624-1.296-1.36-1.296-.704 0-1.344.4-1.344 1.296 0 .912.64 1.328 1.344 1.328.736 0 1.36-.416 1.36-1.328z"/><path d="m216.912 55.44v-1.12h-1.968v11.2h2.224v-4.336c.496.544 1.312 1.04 2.528 1.04 2.432 0 3.744-1.968 3.744-4.064s-1.312-4.064-3.744-4.064c-1.424 0-2.304.656-2.784 1.344zm4.256 2.72c0 1.2-.752 2.192-2.016 2.192-.976 0-1.696-.608-2-1.28v-1.824c.304-.672 1.024-1.28 2-1.28 1.264 0 2.016.992 2.016 2.192z"/><path d="m231.761 60.016v-2.448c0-2.528-1.472-3.472-3.776-3.472-1.184 0-2.352.304-2.976.512v1.92c.72-.288 1.664-.576 2.72-.576 1.2 0 1.808.528 1.808 1.296v.272c-.544-.128-1.216-.208-1.824-.208-1.536 0-3.376.608-3.376 2.56 0 1.52 1.248 2.352 2.688 2.352 1.136 0 2.016-.352 2.768-.944.32.576.912.864 1.696.864.432 0 .88-.096 1.232-.224v-1.456c-.144.048-.288.064-.416.064-.288 0-.544-.112-.544-.512zm-3.536-1.376c.464 0 .976.096 1.312.176v1.2c-.512.448-1.104.624-1.728.624-.672 0-1.2-.368-1.2-.944 0-.784.8-1.056 1.616-1.056z"/><path d="m239.628 50.8v4.336c-.496-.544-1.312-1.04-2.528-1.04-2.448 0-3.76 1.968-3.76 4.064s1.312 4.064 3.76 4.064c1.408 0 2.288-.656 2.784-1.344v1.12h1.952v-11.2zm0 6.448v1.824c-.304.672-1.024 1.28-2 1.28-1.264 0-2.016-.992-2.016-2.192s.752-2.192 2.016-2.192c.976 0 1.696.608 2 1.28z"/><path d="m249.582 50.8v4.336c-.496-.544-1.312-1.04-2.528-1.04-2.448 0-3.76 1.968-3.76 4.064s1.312 4.064 3.76 4.064c1.408 0 2.288-.656 2.784-1.344v1.12h1.952v-11.2zm0 6.448v1.824c-.304.672-1.024 1.28-2 1.28-1.264 0-2.016-.992-2.016-2.192s.752-2.192 2.016-2.192c.976 0 1.696.608 2 1.28z"/><path d="m255.919 62v-7.68h-2.224v7.68zm.192-10.224c0-.864-.608-1.248-1.312-1.248-.688 0-1.296.384-1.296 1.248 0 .88.608 1.264 1.296 1.264.704 0 1.312-.384 1.312-1.264z"/><path d="m259.803 55.296v-.976h-1.968v7.68h2.224v-5.008c.32-.464.928-.976 1.712-.976.864 0 1.488.48 1.488 1.52v4.464h2.224v-4.752c0-1.776-1.104-3.152-3.12-3.152-1.104 0-1.968.512-2.56 1.2z"/><path d="m266.84 58.16c0 2.096 1.312 4.064 3.76 4.064 1.216 0 2.032-.496 2.528-1.04v.704c0 1.52-1.136 1.984-2.496 1.984-1.056 0-2.096-.288-2.96-.8v1.952c.928.448 2.048.72 3.248.72 2.256 0 4.416-1.024 4.416-3.952v-7.472h-1.952v1.12c-.496-.688-1.376-1.344-2.784-1.344-2.448 0-3.76 1.968-3.76 4.064zm6.288-.912v1.872c-.304.64-1.024 1.232-2 1.232-1.264 0-2.016-.992-2.016-2.192s.752-2.192 2.016-2.192c.976 0 1.696.608 2 1.28z"/><path d="m246.653 168v-5.056c.368-.48.976-.928 1.648-.928.704 0 1.2.464 1.2 1.264v4.72h2.208v-4.864c0-.128 0-.24-.016-.352.368-.416.912-.768 1.52-.768.704 0 1.2.464 1.2 1.264v4.72h2.208v-4.864c0-1.36-.704-3.04-2.864-3.04-1.056 0-1.92.512-2.56 1.136-.448-.656-1.2-1.136-2.352-1.136-1.168 0-2.048.64-2.448 1.12v-.896h-1.968v7.68z"/><path d="m265.293 166.016v-2.448c0-2.528-1.472-3.472-3.776-3.472-1.184 0-2.352.304-2.976.512v1.92c.72-.288 1.664-.576 2.72-.576 1.2 0 1.808.528 1.808 1.296v.272c-.544-.128-1.216-.208-1.824-.208-1.536 0-3.376.608-3.376 2.56 0 1.52 1.248 2.352 2.688 2.352 1.136 0 2.016-.352 2.768-.944.32.576.912.864 1.696.864.432 0 .88-.096 1.232-.224v-1.456c-.144.048-.288.064-.416.064-.288 0-.544-.112-.544-.512zm-3.536-1.376c.464 0 .976.096 1.312.176v1.2c-.512.448-1.104.624-1.728.624-.672 0-1.2-.368-1.2-.944 0-.784.8-1.056 1.616-1.056z"/><path d="m269.272 161.472v-1.152h-1.968v7.68h2.224v-4.512c.464-.912 1.632-1.376 2.848-1.168v-2.16c-1.44-.144-2.56.464-3.104 1.312z"/><path d="m272.965 164.16c0 2.096 1.312 4.064 3.76 4.064 1.216 0 2.032-.496 2.528-1.04v.704c0 1.52-1.136 1.984-2.496 1.984-1.056 0-2.096-.288-2.96-.8v1.952c.928.448 2.048.72 3.248.72 2.256 0 4.416-1.024 4.416-3.952v-7.472h-1.952v1.12c-.496-.688-1.376-1.344-2.784-1.344-2.448 0-3.76 1.968-3.76 4.064zm6.288-.912v1.872c-.304.64-1.024 1.232-2 1.232-1.264 0-2.016-.992-2.016-2.192s.752-2.192 2.016-2.192c.976 0 1.696.608 2 1.28z"/><path d="m285.591 168v-7.68h-2.224v7.68zm.192-10.224c0-.864-.608-1.248-1.312-1.248-.688 0-1.296.384-1.296 1.248 0 .88.608 1.264 1.296 1.264.704 0 1.312-.384 1.312-1.264z"/><path d="m289.475 161.296v-.976h-1.968v7.68h2.224v-5.008c.32-.464.928-.976 1.712-.976.864 0 1.488.48 1.488 1.52v4.464h2.224v-4.752c0-1.776-1.104-3.152-3.12-3.152-1.104 0-1.968.512-2.56 1.2z"/><path d="m296.88 163.168v1.872h5.952v-1.872z"/><path d="m304.663 156.8v11.2h1.968v-1.12c.48.688 1.36 1.344 2.784 1.344 2.432 0 3.744-1.968 3.744-4.064s-1.312-4.064-3.744-4.064c-1.216 0-2.048.496-2.528 1.04v-4.336zm6.224 7.36c0 1.2-.752 2.192-2.016 2.192-.976 0-1.696-.608-2-1.28v-1.824c.304-.672 1.024-1.28 2-1.28 1.264 0 2.016.992 2.016 2.192z"/><path d="m314.184 164.16c0 2.688 2.016 4.064 4.24 4.064 2.24 0 4.24-1.376 4.24-4.064s-2-4.064-4.24-4.064c-2.224 0-4.24 1.376-4.24 4.064zm6.224 0c0 1.184-.704 2.08-1.984 2.08-1.264 0-1.968-.896-1.968-2.08s.704-2.08 1.968-2.08c1.28 0 1.984.896 1.984 2.08z"/><path d="m324.583 158.08v2.24h-1.296v1.872h1.296v3.44c0 1.904 1.28 2.592 2.768 2.592.768 0 1.472-.128 2.064-.336v-1.792c-.448.176-.88.256-1.392.256-.832 0-1.232-.352-1.232-1.152v-3.008h2.432v-1.872h-2.432v-2.768z"/><path d="m331.27 158.08v2.24h-1.296v1.872h1.296v3.44c0 1.904 1.28 2.592 2.768 2.592.768 0 1.472-.128 2.064-.336v-1.792c-.448.176-.88.256-1.392.256-.832 0-1.232-.352-1.232-1.152v-3.008h2.432v-1.872h-2.432v-2.768z"/><path d="m336.95 164.16c0 2.688 2.016 4.064 4.24 4.064 2.24 0 4.24-1.376 4.24-4.064s-2-4.064-4.24-4.064c-2.224 0-4.24 1.376-4.24 4.064zm6.224 0c0 1.184-.704 2.08-1.984 2.08-1.264 0-1.968-.896-1.968-2.08s.704-2.08 1.968-2.08c1.28 0 1.984.896 1.984 2.08z"/><path d="m349.106 168v-5.056c.368-.48.976-.928 1.648-.928.704 0 1.2.464 1.2 1.264v4.72h2.208v-4.864c0-.128 0-.24-.016-.352.368-.416.912-.768 1.52-.768.704 0 1.2.464 1.2 1.264v4.72h2.208v-4.864c0-1.36-.704-3.04-2.864-3.04-1.056 0-1.92.512-2.56 1.136-.448-.656-1.2-1.136-2.352-1.136-1.168 0-2.048.64-2.448 1.12v-.896h-1.968v7.68z"/><path d="m363.538 162.032c0-.896-.624-1.312-1.344-1.312s-1.36.416-1.36 1.312c0 .912.64 1.312 1.36 1.312s1.344-.4 1.344-1.312zm0 4.864c0-.896-.624-1.312-1.344-1.312s-1.36.416-1.36 1.312.64 1.312 1.36 1.312 1.344-.416 1.344-1.312z"/><path d="m376.417 159.904c0-1.984-1.68-3.008-3.936-3.008-1.344 0-2.576.32-3.552.848v2.224c1.072-.656 2.24-.976 3.216-.976 1.312 0 2 .464 2 1.248 0 .752-.656 1.152-1.728 1.152l-1.504-.016-.016 2.048h1.792c1.088 0 1.888.336 1.888 1.264 0 1.024-1.024 1.424-2.256 1.424-1.248.016-2.352-.16-3.584-.848v2.224c1.232.512 2.368.736 3.776.736 2.24 0 4.352-.912 4.352-3.2 0-1.6-.992-2.448-2.096-2.784 1.024-.352 1.648-1.216 1.648-2.336z"/><path d="m378.204 162.56c0 3.136 1.488 5.664 4.96 5.664s4.96-2.528 4.96-5.664-1.488-5.664-4.96-5.664-4.96 2.528-4.96 5.664zm7.52 0c0 2.32-.8 3.552-2.56 3.552s-2.56-1.232-2.56-3.552.8-3.552 2.56-3.552 2.56 1.232 2.56 3.552z"/><path d="m391.725 161.44v-1.12h-1.968v11.2h2.224v-4.336c.496.544 1.312 1.04 2.528 1.04 2.432 0 3.744-1.968 3.744-4.064s-1.312-4.064-3.744-4.064c-1.424 0-2.304.656-2.784 1.344zm4.256 2.72c0 1.2-.752 2.192-2.016 2.192-.976 0-1.696-.608-2-1.28v-1.824c.304-.672 1.024-1.28 2-1.28 1.264 0 2.016.992 2.016 2.192z"/><path d="m404.167 160.32-1.536 2.304-1.568-2.304h-2.512l2.784 3.808-2.928 3.872h2.512l1.712-2.352 1.696 2.352h2.512l-2.928-3.872 2.768-3.808z"/><path d="m408.972 170.32 1.568-4.304h-2.352l-1.008 4.304zm1.584-8.736c0-.896-.624-1.296-1.36-1.296-.704 0-1.344.4-1.344 1.296 0 .912.64 1.328 1.344 1.328.736 0 1.36-.416 1.36-1.328z"/></g></svg>