<svg fill="none" height="204" viewBox="0 0 705 204" width="705" xmlns="http://www.w3.org/2000/svg"><path d="m0 0h705v204h-705z" fill="#fdede8"/><path d="m30 60h645v114h-645z" fill="#4839c6"/><path d="m30 30h645v30h-645z" fill="#b9e3b5"/><path d="m47.1797 73v14h2.46v-1.4c.6.86 1.7 1.68 3.48 1.68 3.04 0 4.68-2.46 4.68-5.08s-1.64-5.08-4.68-5.08c-1.52 0-2.56.62-3.16 1.3v-5.42zm7.78 9.2c0 1.5-.94 2.74-2.52 2.74-1.22 0-2.12-.76-2.5-1.6v-2.28c.38-.84 1.28-1.6 2.5-1.6 1.58 0 2.52 1.24 2.52 2.74z" fill="#fff"/><path d="m59.6611 72.4v14.6h2.78v-14.6z" fill="#fff"/><path d="m64.2959 82.2c0 3.36 2.52 5.08 5.3 5.08 2.8 0 5.3-1.72 5.3-5.08s-2.5-5.08-5.3-5.08c-2.78 0-5.3 1.72-5.3 5.08zm7.78 0c0 1.48-.88 2.6-2.48 2.6-1.58 0-2.46-1.12-2.46-2.6s.88-2.6 2.46-2.6c1.6 0 2.48 1.12 2.48 2.6z" fill="#fff"/><path d="m76.1709 82.34c0 3.42 2.62 4.94 5.24 4.94 1.22 0 2.3-.24 3.24-.64v-2.46c-.7.42-1.68.7-2.7.7-1.5 0-2.94-.84-2.94-2.68 0-1.94 1.46-2.68 2.98-2.68.92 0 1.88.28 2.56.72v-2.44c-.86-.46-1.9-.7-2.96-.7-2.66 0-5.42 1.56-5.42 5.24z" fill="#fff"/><path d="m96.2956 87-3.58-4.86 3.3-4.74h-3.12l-2.44 3.58h-1.16v-7.98h-2.78v14h2.78v-3.8h1.12l2.76 3.8z" fill="#fff"/><path d="m100.593 73.4-3.2999 1.26v2.7l2.56-.96v8.02h-2.56v2.58h7.7599v-2.58h-2.28v-11.02z" fill="#fff"/><path d="m173 60h360v104h-360z" fill="#f5b099"/><path d="m213 110h280v44h-280z" fill="#4839c6"/><path d="m322.586 123v14h2.46v-1.4c.6.86 1.7 1.68 3.48 1.68 3.04 0 4.68-2.46 4.68-5.08s-1.64-5.08-4.68-5.08c-1.52 0-2.56.62-3.16 1.3v-5.42zm7.78 9.2c0 1.5-.94 2.74-2.52 2.74-1.22 0-2.12-.76-2.5-1.6v-2.28c.38-.84 1.28-1.6 2.5-1.6 1.58 0 2.52 1.24 2.52 2.74z" fill="#fff"/><path d="m335.067 122.4v14.6h2.78v-14.6z" fill="#fff"/><path d="m339.702 132.2c0 3.36 2.52 5.08 5.3 5.08 2.8 0 5.3-1.72 5.3-5.08s-2.5-5.08-5.3-5.08c-2.78 0-5.3 1.72-5.3 5.08zm7.78 0c0 1.48-.88 2.6-2.48 2.6-1.58 0-2.46-1.12-2.46-2.6s.88-2.6 2.46-2.6c1.6 0 2.48 1.12 2.48 2.6z" fill="#fff"/><path d="m351.577 132.34c0 3.42 2.62 4.94 5.24 4.94 1.22 0 2.3-.24 3.24-.64v-2.46c-.7.42-1.68.7-2.7.7-1.5 0-2.94-.84-2.94-2.68 0-1.94 1.46-2.68 2.98-2.68.92 0 1.88.28 2.56.72v-2.44c-.86-.46-1.9-.7-2.96-.7-2.66 0-5.42 1.56-5.42 5.24z" fill="#fff"/><path d="m371.702 137-3.58-4.86 3.3-4.74h-3.12l-2.44 3.58h-1.16v-7.98h-2.78v14h2.78v-3.8h1.12l2.76 3.8z" fill="#fff"/><path d="m372.939 124.56v2.8c1.44-1.1 3.04-1.62 4.4-1.62 1.38 0 2.26.52 2.26 1.52 0 1.3-1.22 1.84-2.64 2.66-2 1.18-4.48 2.46-4.48 5.74v1.34h10.2v-2.58l-6.8.02c.02-.88 1.4-1.62 3.02-2.58 1.78-1.06 3.68-2.42 3.68-4.72 0-2.78-2.22-4.02-4.96-4.02-1.66 0-3.28.44-4.68 1.44z" fill="#fff"/><g fill="#333"><path d="m216.168 100v-5.056c.368-.48.976-.928 1.648-.928.704 0 1.2.464 1.2 1.264v4.72h2.208v-4.864c0-.128 0-.24-.016-.352.368-.416.912-.768 1.52-.768.704 0 1.2.464 1.2 1.264v4.72h2.208v-4.864c0-1.36-.704-3.04-2.864-3.04-1.056 0-1.92.512-2.56 1.136-.448-.656-1.2-1.136-2.352-1.136-1.168 0-2.048.64-2.448 1.12v-.896h-1.968v7.68z"/><path d="m234.808 98.016v-2.448c0-2.528-1.472-3.472-3.776-3.472-1.184 0-2.352.304-2.976.512v1.92c.72-.288 1.664-.576 2.72-.576 1.2 0 1.808.528 1.808 1.296v.272c-.544-.128-1.216-.208-1.824-.208-1.536 0-3.376.608-3.376 2.56 0 1.52 1.248 2.352 2.688 2.352 1.136 0 2.016-.352 2.768-.944.32.576.912.864 1.696.864.432 0 .88-.096 1.232-.224v-1.456c-.144.048-.288.064-.416.064-.288 0-.544-.112-.544-.512zm-3.536-1.376c.464 0 .976.096 1.312.176v1.2c-.512.448-1.104.624-1.728.624-.672 0-1.2-.368-1.2-.944 0-.784.8-1.056 1.616-1.056z"/><path d="m238.787 93.472v-1.152h-1.968v7.68h2.224v-4.512c.464-.912 1.632-1.376 2.848-1.168v-2.16c-1.44-.144-2.56.464-3.104 1.312z"/><path d="m242.481 96.16c0 2.096 1.312 4.064 3.76 4.064 1.216 0 2.032-.496 2.528-1.04v.704c0 1.52-1.136 1.984-2.496 1.984-1.056 0-2.096-.288-2.96-.8v1.952c.928.448 2.048.72 3.248.72 2.256 0 4.416-1.024 4.416-3.952v-7.472h-1.952v1.12c-.496-.688-1.376-1.344-2.784-1.344-2.448 0-3.76 1.968-3.76 4.064zm6.288-.912v1.872c-.304.64-1.024 1.232-2 1.232-1.264 0-2.016-.992-2.016-2.192s.752-2.192 2.016-2.192c.976 0 1.696.608 2 1.28z"/><path d="m255.106 100v-7.68h-2.224v7.68zm.192-10.224c0-.864-.608-1.248-1.312-1.248-.688 0-1.296.384-1.296 1.248 0 .88.608 1.264 1.296 1.264.704 0 1.312-.384 1.312-1.264z"/><path d="m258.99 93.296v-.976h-1.968v7.68h2.224v-5.008c.32-.464.928-.976 1.712-.976.864 0 1.488.48 1.488 1.52v4.464h2.224v-4.752c0-1.776-1.104-3.152-3.12-3.152-1.104 0-1.968.512-2.56 1.2z"/><path d="m269.116 94.032c0-.896-.624-1.312-1.344-1.312s-1.36.416-1.36 1.312c0 .912.64 1.312 1.36 1.312s1.344-.4 1.344-1.312zm0 4.864c0-.896-.624-1.312-1.344-1.312s-1.36.416-1.36 1.312.64 1.312 1.36 1.312 1.344-.416 1.344-1.312z"/><path d="m274.987 89.104-.384 6.32c.944-.336 1.952-.464 2.736-.464 1.744 0 2.656.528 2.656 1.6 0 1.056-1.056 1.568-2.48 1.568-1.088 0-2.352-.304-3.232-.864v2.224c.96.464 2.24.736 3.504.736 2.4 0 4.608-1.104 4.608-3.632 0-2.496-1.808-3.472-3.984-3.472-.448 0-.944.064-1.408.16l.144-2.128 4.752.016v-2.064z"/><path d="m283.673 94.56c0 3.136 1.488 5.664 4.96 5.664s4.96-2.528 4.96-5.664-1.488-5.664-4.96-5.664-4.96 2.528-4.96 5.664zm7.52 0c0 2.32-.8 3.552-2.56 3.552s-2.56-1.232-2.56-3.552.8-3.552 2.56-3.552 2.56 1.232 2.56 3.552z"/><path d="m297.194 93.44v-1.12h-1.968v11.2h2.224v-4.336c.496.544 1.312 1.04 2.528 1.04 2.432 0 3.744-1.968 3.744-4.064s-1.312-4.064-3.744-4.064c-1.424 0-2.304.656-2.784 1.344zm4.256 2.72c0 1.2-.752 2.192-2.016 2.192-.976 0-1.696-.608-2-1.28v-1.824c.304-.672 1.024-1.28 2-1.28 1.264 0 2.016.992 2.016 2.192z"/><path d="m309.636 92.32-1.536 2.304-1.568-2.304h-2.512l2.784 3.808-2.928 3.872h2.512l1.712-2.352 1.696 2.352h2.512l-2.928-3.872 2.768-3.808z"/><path d="m321.843 89.12-5.616 6.912v1.984h5.712v1.984h2.288v-1.984h1.648v-2h-1.648v-6.896zm.096 6.896h-3.216l3.216-3.968z"/><path d="m327.048 94.56c0 3.136 1.488 5.664 4.96 5.664s4.96-2.528 4.96-5.664-1.488-5.664-4.96-5.664-4.96 2.528-4.96 5.664zm7.52 0c0 2.32-.8 3.552-2.56 3.552s-2.56-1.232-2.56-3.552.8-3.552 2.56-3.552 2.56 1.232 2.56 3.552z"/><path d="m340.569 93.44v-1.12h-1.968v11.2h2.224v-4.336c.496.544 1.312 1.04 2.528 1.04 2.432 0 3.744-1.968 3.744-4.064s-1.312-4.064-3.744-4.064c-1.424 0-2.304.656-2.784 1.344zm4.256 2.72c0 1.2-.752 2.192-2.016 2.192-.976 0-1.696-.608-2-1.28v-1.824c.304-.672 1.024-1.28 2-1.28 1.264 0 2.016.992 2.016 2.192z"/><path d="m353.011 92.32-1.536 2.304-1.568-2.304h-2.512l2.784 3.808-2.928 3.872h2.512l1.712-2.352 1.696 2.352h2.512l-2.928-3.872 2.768-3.808z"/><path d="m362.706 89.12-2.64 1.008v2.16l2.048-.768v6.416h-2.048v2.064h6.208v-2.064h-1.824v-8.816z"/><path d="m367.313 94.56c0 3.136 1.488 5.664 4.96 5.664s4.96-2.528 4.96-5.664-1.488-5.664-4.96-5.664-4.96 2.528-4.96 5.664zm7.52 0c0 2.32-.8 3.552-2.56 3.552s-2.56-1.232-2.56-3.552.8-3.552 2.56-3.552 2.56 1.232 2.56 3.552z"/><path d="m380.834 93.44v-1.12h-1.968v11.2h2.224v-4.336c.496.544 1.312 1.04 2.528 1.04 2.432 0 3.744-1.968 3.744-4.064s-1.312-4.064-3.744-4.064c-1.424 0-2.304.656-2.784 1.344zm4.256 2.72c0 1.2-.752 2.192-2.016 2.192-.976 0-1.696-.608-2-1.28v-1.824c.304-.672 1.024-1.28 2-1.28 1.264 0 2.016.992 2.016 2.192z"/><path d="m393.277 92.32-1.536 2.304-1.568-2.304h-2.512l2.784 3.808-2.928 3.872h2.512l1.712-2.352 1.696 2.352h2.512l-2.928-3.872 2.768-3.808z"/><path d="m398.081 102.32 1.568-4.304h-2.352l-1.008 4.304zm1.584-8.736c0-.896-.624-1.296-1.36-1.296-.704 0-1.344.4-1.344 1.296 0 .912.64 1.328 1.344 1.328.736 0 1.36-.416 1.36-1.328z"/><path d="m33.1683 20v-5.056c.368-.48.976-.928 1.648-.928.704 0 1.2.464 1.2 1.264v4.72h2.208v-4.864c0-.128 0-.24-.016-.352.368-.416.912-.768 1.52-.768.704 0 1.2.464 1.2 1.264v4.72h2.208v-4.864c0-1.36-.704-3.04-2.864-3.04-1.056 0-1.92.512-2.56 1.136-.448-.656-1.2-1.136-2.352-1.136-1.168 0-2.048.64-2.448 1.12v-.896h-1.968v7.68z"/><path d="m51.8083 18.016v-2.448c0-2.528-1.472-3.472-3.776-3.472-1.184 0-2.352.304-2.976.512v1.92c.72-.288 1.664-.576 2.72-.576 1.2 0 1.808.528 1.808 1.296v.272c-.544-.128-1.216-.208-1.824-.208-1.536 0-3.376.608-3.376 2.56 0 1.52 1.248 2.352 2.688 2.352 1.136 0 2.016-.352 2.768-.944.32.576.912.864 1.696.864.432 0 .88-.096 1.232-.224v-1.456c-.144.048-.288.064-.416.064-.288 0-.544-.112-.544-.512zm-3.536-1.376c.464 0 .976.096 1.312.176v1.2c-.512.448-1.104.624-1.728.624-.672 0-1.2-.368-1.2-.944 0-.784.8-1.056 1.616-1.056z"/><path d="m55.7873 13.472v-1.152h-1.968v7.68h2.224v-4.512c.464-.912 1.632-1.376 2.848-1.168v-2.16c-1.44-.144-2.56.464-3.104 1.312z"/><path d="m59.4811 16.16c0 2.096 1.312 4.064 3.76 4.064 1.216 0 2.032-.496 2.528-1.04v.704c0 1.52-1.136 1.984-2.496 1.984-1.056 0-2.096-.288-2.96-.8v1.952c.928.448 2.048.72 3.248.72 2.256 0 4.416-1.024 4.416-3.952v-7.472h-1.952v1.12c-.496-.688-1.376-1.344-2.784-1.344-2.448 0-3.76 1.968-3.76 4.064zm6.288-.912v1.872c-.304.64-1.024 1.232-2 1.232-1.264 0-2.016-.992-2.016-2.192s.752-2.192 2.016-2.192c.976 0 1.696.608 2 1.28z"/><path d="m72.1062 20v-7.68h-2.224v7.68zm.192-10.22405c0-.864-.608-1.248-1.312-1.248-.688 0-1.296.384-1.296 1.248 0 .88005.608 1.26405 1.296 1.26405.704 0 1.312-.384 1.312-1.26405z"/><path d="m75.9905 13.296v-.976h-1.968v7.68h2.224v-5.008c.32-.464.928-.976 1.712-.976.864 0 1.488.48 1.488 1.52v4.464h2.224v-4.752c0-1.776-1.104-3.152-3.12-3.152-1.104 0-1.968.512-2.56 1.2z"/><path d="m86.116 14.032c0-.896-.624-1.312-1.344-1.312s-1.36.416-1.36 1.312c0 .912.64 1.312 1.36 1.312s1.344-.4 1.344-1.312zm0 4.864c0-.896-.624-1.312-1.344-1.312s-1.36.416-1.36 1.312.64 1.312 1.36 1.312 1.344-.416 1.344-1.312z"/><path d="m98.9948 11.904c0-1.98405-1.68-3.00805-3.936-3.00805-1.344 0-2.576.32-3.552.848v2.22405c1.072-.656 2.24-.976 3.216-.976 1.312 0 2 .464 2 1.248 0 .752-.656 1.152-1.728 1.152l-1.504-.016-.016 2.048h1.792c1.088 0 1.888.336 1.888 1.264 0 1.024-1.024 1.424-2.256 1.424-1.248.016-2.352-.16-3.584-.848v2.224c1.232.512 2.368.736 3.776.736 2.24 0 4.352-.912 4.352-3.2 0-1.6-.992-2.448-2.096-2.784 1.024-.352 1.648-1.216 1.648-2.336z"/><path d="m100.782 14.56c0 3.136 1.488 5.664 4.96 5.664s4.96-2.528 4.96-5.664-1.488-5.66405-4.96-5.66405-4.96 2.52805-4.96 5.66405zm7.52 0c0 2.32-.8 3.552-2.56 3.552s-2.56-1.232-2.56-3.552.8-3.552 2.56-3.552 2.56 1.232 2.56 3.552z"/><path d="m114.303 13.44v-1.12h-1.968v11.2h2.224v-4.336c.496.544 1.312 1.04 2.528 1.04 2.432 0 3.744-1.968 3.744-4.064s-1.312-4.064-3.744-4.064c-1.424 0-2.304.656-2.784 1.344zm4.256 2.72c0 1.2-.752 2.192-2.016 2.192-.976 0-1.696-.608-2-1.28v-1.824c.304-.672 1.024-1.28 2-1.28 1.264 0 2.016.992 2.016 2.192z"/><path d="m126.745 12.32-1.536 2.304-1.568-2.304h-2.512l2.784 3.808-2.928 3.872h2.512l1.712-2.352 1.696 2.352h2.512l-2.928-3.872 2.768-3.808z"/><path d="m131.55 22.32 1.568-4.304h-2.352l-1.008 4.304zm1.584-8.736c0-.896-.624-1.296-1.36-1.296-.704 0-1.344.4-1.344 1.296 0 .912.64 1.328 1.344 1.328.736 0 1.36-.416 1.36-1.328z"/><path d="m48.9123 43.44v-1.12h-1.968v11.2h2.224v-4.336c.496.544 1.312 1.04 2.528 1.04 2.432 0 3.744-1.968 3.744-4.064s-1.312-4.064-3.744-4.064c-1.424 0-2.304.656-2.784 1.344zm4.256 2.72c0 1.2-.752 2.192-2.016 2.192-.976 0-1.696-.608-2-1.28v-1.824c.304-.672 1.024-1.28 2-1.28 1.264 0 2.016.992 2.016 2.192z"/><path d="m63.7615 48.016v-2.448c0-2.528-1.472-3.472-3.776-3.472-1.184 0-2.352.304-2.976.512v1.92c.72-.288 1.664-.576 2.72-.576 1.2 0 1.808.528 1.808 1.296v.272c-.544-.128-1.216-.208-1.824-.208-1.536 0-3.376.608-3.376 2.56 0 1.52 1.248 2.352 2.688 2.352 1.136 0 2.016-.352 2.768-.944.32.576.912.864 1.696.864.432 0 .88-.096 1.232-.224v-1.456c-.144.048-.288.064-.416.064-.288 0-.544-.112-.544-.512zm-3.536-1.376c.464 0 .976.096 1.312.176v1.2c-.512.448-1.104.624-1.728.624-.672 0-1.2-.368-1.2-.944 0-.784.8-1.056 1.616-1.056z"/><path d="m71.6285 38.8v4.336c-.496-.544-1.312-1.04-2.528-1.04-2.448 0-3.76 1.968-3.76 4.064s1.312 4.064 3.76 4.064c1.408 0 2.288-.656 2.784-1.344v1.12h1.952v-11.2zm0 6.448v1.824c-.304.672-1.024 1.28-2 1.28-1.264 0-2.016-.992-2.016-2.192s.752-2.192 2.016-2.192c.976 0 1.696.608 2 1.28z"/><path d="m81.5816 38.8v4.336c-.496-.544-1.312-1.04-2.528-1.04-2.448 0-3.76 1.968-3.76 4.064s1.312 4.064 3.76 4.064c1.408 0 2.288-.656 2.784-1.344v1.12h1.952v-11.2zm0 6.448v1.824c-.304.672-1.024 1.28-2 1.28-1.264 0-2.016-.992-2.016-2.192s.752-2.192 2.016-2.192c.976 0 1.696.608 2 1.28z"/><path d="m87.9187 50v-7.68h-2.224v7.68zm.192-10.224c0-.864-.608-1.248-1.312-1.248-.688 0-1.296.384-1.296 1.248 0 .88.608 1.264 1.296 1.264.704 0 1.312-.384 1.312-1.264z"/><path d="m91.803 43.296v-.976h-1.968v7.68h2.224v-5.008c.32-.464.928-.976 1.712-.976.864 0 1.488.48 1.488 1.52v4.464h2.224v-4.752c0-1.776-1.104-3.152-3.12-3.152-1.104 0-1.968.512-2.56 1.2z"/><path d="m98.8405 46.16c0 2.096 1.3115 4.064 3.7595 4.064 1.216 0 2.032-.496 2.528-1.04v.704c0 1.52-1.136 1.984-2.496 1.984-1.056 0-2.096-.288-2.9595-.8v1.952c.9275.448 2.0475.72 3.2475.72 2.256 0 4.416-1.024 4.416-3.952v-7.472h-1.952v1.12c-.496-.688-1.376-1.344-2.784-1.344-2.448 0-3.7595 1.968-3.7595 4.064zm6.2875-.912v1.872c-.304.64-1.024 1.232-2 1.232-1.264 0-2.016-.992-2.016-2.192s.752-2.192 2.016-2.192c.976 0 1.696.608 2 1.28z"/><path d="m109.162 45.168v1.872h5.952v-1.872z"/><path d="m117.317 40.08v2.24h-1.296v1.872h1.296v3.44c0 1.904 1.28 2.592 2.768 2.592.768 0 1.472-.128 2.064-.336v-1.792c-.448.176-.88.256-1.392.256-.832 0-1.232-.352-1.232-1.152v-3.008h2.432v-1.872h-2.432v-2.768z"/><path d="m122.997 46.16c0 2.688 2.016 4.064 4.24 4.064 2.24 0 4.24-1.376 4.24-4.064s-2-4.064-4.24-4.064c-2.224 0-4.24 1.376-4.24 4.064zm6.224 0c0 1.184-.704 2.08-1.984 2.08-1.264 0-1.968-.896-1.968-2.08s.704-2.08 1.968-2.08c1.28 0 1.984.896 1.984 2.08z"/><path d="m134.897 43.44v-1.12h-1.968v11.2h2.224v-4.336c.496.544 1.312 1.04 2.528 1.04 2.432 0 3.744-1.968 3.744-4.064s-1.312-4.064-3.744-4.064c-1.424 0-2.304.656-2.784 1.344zm4.256 2.72c0 1.2-.752 2.192-2.016 2.192-.976 0-1.696-.608-2-1.28v-1.824c.304-.672 1.024-1.28 2-1.28 1.264 0 2.016.992 2.016 2.192z"/><path d="m145.538 44.032c0-.896-.624-1.312-1.344-1.312s-1.36.416-1.36 1.312c0 .912.64 1.312 1.36 1.312s1.344-.4 1.344-1.312zm0 4.864c0-.896-.624-1.312-1.344-1.312s-1.36.416-1.36 1.312.64 1.312 1.36 1.312 1.344-.416 1.344-1.312z"/><path d="m158.417 41.904c0-1.984-1.68-3.008-3.936-3.008-1.344 0-2.576.32-3.552.848v2.224c1.072-.656 2.24-.976 3.216-.976 1.312 0 2 .464 2 1.248 0 .752-.656 1.152-1.728 1.152l-1.504-.016-.016 2.048h1.792c1.088 0 1.888.336 1.888 1.264 0 1.024-1.024 1.424-2.256 1.424-1.248.016-2.352-.16-3.584-.848v2.224c1.232.512 2.368.736 3.776.736 2.24 0 4.352-.912 4.352-3.2 0-1.6-.992-2.448-2.096-2.784 1.024-.352 1.648-1.216 1.648-2.336z"/><path d="m160.204 44.56c0 3.136 1.488 5.664 4.96 5.664s4.96-2.528 4.96-5.664-1.488-5.664-4.96-5.664-4.96 2.528-4.96 5.664zm7.52 0c0 2.32-.8 3.552-2.56 3.552s-2.56-1.232-2.56-3.552.8-3.552 2.56-3.552 2.56 1.232 2.56 3.552z"/><path d="m173.725 43.44v-1.12h-1.968v11.2h2.224v-4.336c.496.544 1.312 1.04 2.528 1.04 2.432 0 3.744-1.968 3.744-4.064s-1.312-4.064-3.744-4.064c-1.424 0-2.304.656-2.784 1.344zm4.256 2.72c0 1.2-.752 2.192-2.016 2.192-.976 0-1.696-.608-2-1.28v-1.824c.304-.672 1.024-1.28 2-1.28 1.264 0 2.016.992 2.016 2.192z"/><path d="m186.167 42.32-1.536 2.304-1.568-2.304h-2.512l2.784 3.808-2.928 3.872h2.512l1.712-2.352 1.696 2.352h2.512l-2.928-3.872 2.768-3.808z"/><path d="m190.972 52.32 1.568-4.304h-2.352l-1.008 4.304zm1.584-8.736c0-.896-.624-1.296-1.36-1.296-.704 0-1.344.4-1.344 1.296 0 .912.64 1.328 1.344 1.328.736 0 1.36-.416 1.36-1.328z"/></g></svg>