<svg fill="none" height="220" viewBox="0 0 704 220" width="704" xmlns="http://www.w3.org/2000/svg"><path clip-rule="evenodd" d="m574 2h-566c-3.31371 0-6 2.6863-6 6.00001v203.99999c0 3.314 2.6863 6 6.00001 6h565.99999c3.314 0 6-2.686 6-6v-204c0-3.3137-2.686-6-6-6zm-566-2c-4.41828 0-8 3.58173-8 8.00001v203.99999c0 4.418 3.58173 8 8.00001 8h565.99999c4.418 0 8-3.582 8-8v-204c0-4.41828-3.582-8-8-8z" fill="#d2d5e3" fill-rule="evenodd"/><path d="m0 8c0-4.41828 3.58172-8 8-8h566c4.418 0 8 3.58172 8 8v16h-582z" fill="#d2d5e3"/><path d="m18 12c0 2.2091-1.7909 4-4 4s-4-1.7909-4-4c0-2.20914 1.7909-4 4-4s4 1.79086 4 4z" fill="#e84e1b"/><path d="m30 12c0 2.2091-1.7909 4-4 4s-4-1.7909-4-4c0-2.20914 1.7909-4 4-4s4 1.79086 4 4z" fill="#e68a00"/><path d="m42 12c0 2.2091-1.7909 4-4 4s-4-1.7909-4-4c0-2.20914 1.7909-4 4-4s4 1.79086 4 4z" fill="#4eb543"/><path d="m2 40h578v74h-578z" fill="#b8e4b4"/><path d="m62 70h458v44h-458z" fill="#4839c6"/><path d="m247.588 87.4-1.76 6.58-1.9-6.58h-2.64l-1.92 6.58-1.74-6.58h-2.96l3.08 9.6h2.96l1.9-6.26 1.9 6.26h2.94l3.08-9.6z" fill="#fff"/><path d="m254.756 97v-9.6h-2.78v9.6zm.24-12.78c0-1.08-.76-1.56-1.64-1.56-.86 0-1.62.48-1.62 1.56 0 1.1.76 1.58 1.62 1.58.88 0 1.64-.48 1.64-1.58z" fill="#fff"/><path d="m264.471 83v5.42c-.62-.68-1.64-1.3-3.16-1.3-3.06 0-4.7 2.46-4.7 5.08s1.64 5.08 4.7 5.08c1.76 0 2.86-.82 3.48-1.68v1.4h2.44v-14zm0 8.06v2.28c-.38.84-1.28 1.6-2.5 1.6-1.58 0-2.52-1.24-2.52-2.74s.94-2.74 2.52-2.74c1.22 0 2.12.76 2.5 1.6z" fill="#fff"/><path d="m270.312 84.6v2.8h-1.62v2.34h1.62v4.3c0 2.38 1.6 3.24 3.46 3.24.96 0 1.84-.16 2.58-.42v-2.24c-.56.22-1.1.32-1.74.32-1.04 0-1.54-.44-1.54-1.44v-3.76h3.04v-2.34h-3.04v-3.46z" fill="#fff"/><path d="m277.952 83v14h2.78v-6.26c.4-.58 1.16-1.22 2.14-1.22 1.08 0 1.86.6 1.86 1.9v5.58h2.78v-5.94c0-2.22-1.38-3.94-3.9-3.94-1.2 0-2.18.5-2.88 1.16v-5.28z" fill="#fff"/><path d="m293.069 89.54c0-1.12-.78-1.64-1.68-1.64s-1.7.52-1.7 1.64c0 1.14.8 1.64 1.7 1.64s1.68-.5 1.68-1.64zm0 6.08c0-1.12-.78-1.64-1.68-1.64s-1.7.52-1.7 1.64.8 1.64 1.7 1.64 1.68-.52 1.68-1.64z" fill="#fff"/><path d="m308.387 94.52v-3.06c0-3.16-1.84-4.34-4.72-4.34-1.48 0-2.94.38-3.72.64v2.4c.9-.36 2.08-.72 3.4-.72 1.5 0 2.26.66 2.26 1.62v.34c-.68-.16-1.52-.26-2.28-.26-1.92 0-4.22.76-4.22 3.2 0 1.9 1.56 2.94 3.36 2.94 1.42 0 2.52-.44 3.46-1.18.4.72 1.14 1.08 2.12 1.08.54 0 1.1-.12 1.54-.28v-1.82c-.18.06-.36.08-.52.08-.36 0-.68-.14-.68-.64zm-4.42-1.72c.58 0 1.22.12 1.64.22v1.5c-.64.56-1.38.78-2.16.78-.84 0-1.5-.46-1.5-1.18 0-.98 1-1.32 2.02-1.32z" fill="#fff"/><path d="m317.561 87.4v6.26c-.42.58-1.16 1.22-2.16 1.22-1.14 0-1.84-.62-1.84-1.9v-5.58h-2.78v5.94c0 2.22 1.3 3.94 3.9 3.94 1.36 0 2.46-.64 3.2-1.5v1.22h2.46v-9.6z" fill="#fff"/><path d="m323.418 84.6v2.8h-1.62v2.34h1.62v4.3c0 2.38 1.6 3.24 3.46 3.24.96 0 1.84-.16 2.58-.42v-2.24c-.56.22-1.1.32-1.74.32-1.04 0-1.54-.44-1.54-1.44v-3.76h3.04v-2.34h-3.04v-3.46z" fill="#fff"/><path d="m330.517 92.2c0 3.36 2.52 5.08 5.3 5.08 2.8 0 5.3-1.72 5.3-5.08s-2.5-5.08-5.3-5.08c-2.78 0-5.3 1.72-5.3 5.08zm7.78 0c0 1.48-.88 2.6-2.48 2.6-1.58 0-2.46-1.12-2.46-2.6s.88-2.6 2.46-2.6c1.6 0 2.48 1.12 2.48 2.6z" fill="#fff"/><path d="m344.392 99.9 1.96-5.38h-2.94l-1.26 5.38zm1.98-10.92c0-1.12-.78-1.62-1.7-1.62-.88 0-1.68.5-1.68 1.62 0 1.14.8 1.66 1.68 1.66.92 0 1.7-.52 1.7-1.66z" fill="#fff"/><path d="m2 126h702v74h-702z" fill="#b8e4b4"/><path d="m62 156h582v44h-582z" fill="#4839c6"/><path d="m303.211 173.4-1.76 6.58-1.9-6.58h-2.64l-1.92 6.58-1.74-6.58h-2.96l3.08 9.6h2.96l1.9-6.26 1.9 6.26h2.94l3.08-9.6z" fill="#fff"/><path d="m310.379 183v-9.6h-2.78v9.6zm.24-12.78c0-1.08-.76-1.56-1.64-1.56-.86 0-1.62.48-1.62 1.56 0 1.1.76 1.58 1.62 1.58.88 0 1.64-.48 1.64-1.58z" fill="#fff"/><path d="m320.094 169v5.42c-.62-.68-1.64-1.3-3.16-1.3-3.06 0-4.7 2.46-4.7 5.08s1.64 5.08 4.7 5.08c1.76 0 2.86-.82 3.48-1.68v1.4h2.44v-14zm0 8.06v2.28c-.38.84-1.28 1.6-2.5 1.6-1.58 0-2.52-1.24-2.52-2.74s.94-2.74 2.52-2.74c1.22 0 2.12.76 2.5 1.6z" fill="#fff"/><path d="m325.935 170.6v2.8h-1.62v2.34h1.62v4.3c0 2.38 1.6 3.24 3.46 3.24.96 0 1.84-.16 2.58-.42v-2.24c-.56.22-1.1.32-1.74.32-1.04 0-1.54-.44-1.54-1.44v-3.76h3.04v-2.34h-3.04v-3.46z" fill="#fff"/><path d="m333.575 169v14h2.78v-6.26c.4-.58 1.16-1.22 2.14-1.22 1.08 0 1.86.6 1.86 1.9v5.58h2.78v-5.94c0-2.22-1.38-3.94-3.9-3.94-1.2 0-2.18.5-2.88 1.16v-5.28z" fill="#fff"/><path d="m348.692 175.54c0-1.12-.78-1.64-1.68-1.64s-1.7.52-1.7 1.64c0 1.14.8 1.64 1.7 1.64s1.68-.5 1.68-1.64zm0 6.08c0-1.12-.78-1.64-1.68-1.64s-1.7.52-1.7 1.64.8 1.64 1.7 1.64 1.68-.52 1.68-1.64z" fill="#fff"/><path d="m358.57 169.4-3.3 1.26v2.7l2.56-.96v8.02h-2.56v2.58h7.76v-2.58h-2.28v-11.02z" fill="#fff"/><path d="m364.329 176.2c0 3.92 1.86 7.08 6.2 7.08s6.2-3.16 6.2-7.08-1.86-7.08-6.2-7.08-6.2 3.16-6.2 7.08zm9.4 0c0 2.9-1 4.44-3.2 4.44s-3.2-1.54-3.2-4.44 1-4.44 3.2-4.44 3.2 1.54 3.2 4.44z" fill="#fff"/><path d="m378.45 176.2c0 3.92 1.86 7.08 6.2 7.08s6.2-3.16 6.2-7.08-1.86-7.08-6.2-7.08-6.2 3.16-6.2 7.08zm9.4 0c0 2.9-1 4.44-3.2 4.44s-3.2-1.54-3.2-4.44 1-4.44 3.2-4.44 3.2 1.54 3.2 4.44z" fill="#fff"/><path d="m397.871 184.2 8.18-16.4h-2l-8.18 16.4zm1.66-12.04c0-2.26-1.68-3.44-3.6-3.44-1.94 0-3.64 1.18-3.64 3.44s1.7 3.44 3.64 3.44c1.92 0 3.6-1.18 3.6-3.44zm-5 0c0-.72.42-1.38 1.4-1.38.94 0 1.36.66 1.36 1.38s-.42 1.38-1.36 1.38c-.98 0-1.4-.66-1.4-1.38zm15.02 7.68c0-2.26-1.68-3.44-3.6-3.44-1.94 0-3.64 1.18-3.64 3.44s1.7 3.44 3.64 3.44c1.92 0 3.6-1.18 3.6-3.44zm-5 0c0-.72.42-1.38 1.4-1.38.94 0 1.36.66 1.36 1.38s-.42 1.38-1.36 1.38c-.98 0-1.4-.66-1.4-1.38z" fill="#fff"/><path d="m412.769 185.9 1.96-5.38h-2.94l-1.26 5.38zm1.98-10.92c0-1.12-.78-1.62-1.7-1.62-.88 0-1.68.5-1.68 1.62 0 1.14.8 1.66 1.68 1.66.92 0 1.7-.52 1.7-1.66z" fill="#fff"/><g fill="#333"><path d="m64.9123 53.44v-1.12h-1.968v11.2h2.224v-4.336c.496.544 1.312 1.04 2.528 1.04 2.432 0 3.744-1.968 3.744-4.064s-1.312-4.064-3.744-4.064c-1.424 0-2.304.656-2.784 1.344zm4.256 2.72c0 1.2-.752 2.192-2.016 2.192-.976 0-1.696-.608-2-1.28v-1.824c.304-.672 1.024-1.28 2-1.28 1.264 0 2.016.992 2.016 2.192z"/><path d="m79.7615 58.016v-2.448c0-2.528-1.472-3.472-3.776-3.472-1.184 0-2.352.304-2.976.512v1.92c.72-.288 1.664-.576 2.72-.576 1.2 0 1.808.528 1.808 1.296v.272c-.544-.128-1.216-.208-1.824-.208-1.536 0-3.376.608-3.376 2.56 0 1.52 1.248 2.352 2.688 2.352 1.136 0 2.016-.352 2.768-.944.32.576.912.864 1.696.864.432 0 .88-.096 1.232-.224v-1.456c-.144.048-.288.064-.416.064-.288 0-.544-.112-.544-.512zm-3.536-1.376c.464 0 .976.096 1.312.176v1.2c-.512.448-1.104.624-1.728.624-.672 0-1.2-.368-1.2-.944 0-.784.8-1.056 1.616-1.056z"/><path d="m87.6285 48.8v4.336c-.496-.544-1.312-1.04-2.528-1.04-2.448 0-3.76 1.968-3.76 4.064s1.312 4.064 3.76 4.064c1.408 0 2.288-.656 2.784-1.344v1.12h1.952v-11.2zm0 6.448v1.824c-.304.672-1.024 1.28-2 1.28-1.264 0-2.016-.992-2.016-2.192s.752-2.192 2.016-2.192c.976 0 1.696.608 2 1.28z"/><path d="m97.5816 48.8v4.336c-.496-.544-1.312-1.04-2.528-1.04-2.448 0-3.76 1.968-3.76 4.064s1.312 4.064 3.76 4.064c1.408 0 2.288-.656 2.784-1.344v1.12h1.952v-11.2zm0 6.448v1.824c-.304.672-1.024 1.28-2 1.28-1.264 0-2.016-.992-2.016-2.192s.752-2.192 2.016-2.192c.976 0 1.696.608 2 1.28z"/><path d="m103.919 60v-7.68h-2.224v7.68zm.192-10.224c0-.864-.608-1.248-1.312-1.248-.688 0-1.296.384-1.296 1.248 0 .88.608 1.264 1.296 1.264.704 0 1.312-.384 1.312-1.264z"/><path d="m107.803 53.296v-.976h-1.968v7.68h2.224v-5.008c.32-.464.928-.976 1.712-.976.864 0 1.488.48 1.488 1.52v4.464h2.224v-4.752c0-1.776-1.104-3.152-3.12-3.152-1.104 0-1.968.512-2.56 1.2z"/><path d="m114.84 56.16c0 2.096 1.312 4.064 3.76 4.064 1.216 0 2.032-.496 2.528-1.04v.704c0 1.52-1.136 1.984-2.496 1.984-1.056 0-2.096-.288-2.96-.8v1.952c.928.448 2.048.72 3.248.72 2.256 0 4.416-1.024 4.416-3.952v-7.472h-1.952v1.12c-.496-.688-1.376-1.344-2.784-1.344-2.448 0-3.76 1.968-3.76 4.064zm6.288-.912v1.872c-.304.64-1.024 1.232-2 1.232-1.264 0-2.016-.992-2.016-2.192s.752-2.192 2.016-2.192c.976 0 1.696.608 2 1.28z"/><path d="m127.882 54.032c0-.896-.624-1.312-1.344-1.312s-1.36.416-1.36 1.312c0 .912.64 1.312 1.36 1.312s1.344-.4 1.344-1.312zm0 4.864c0-.896-.624-1.312-1.344-1.312s-1.36.416-1.36 1.312.64 1.312 1.36 1.312 1.344-.416 1.344-1.312z"/><path d="m140.76 51.904c0-1.984-1.68-3.008-3.936-3.008-1.344 0-2.576.32-3.552.848v2.224c1.072-.656 2.24-.976 3.216-.976 1.312 0 2 .464 2 1.248 0 .752-.656 1.152-1.728 1.152l-1.504-.016-.016 2.048h1.792c1.088 0 1.888.336 1.888 1.264 0 1.024-1.024 1.424-2.256 1.424-1.248.016-2.352-.16-3.584-.848v2.224c1.232.512 2.368.736 3.776.736 2.24 0 4.352-.912 4.352-3.2 0-1.6-.992-2.448-2.096-2.784 1.024-.352 1.648-1.216 1.648-2.336z"/><path d="m142.548 54.56c0 3.136 1.488 5.664 4.96 5.664s4.96-2.528 4.96-5.664-1.488-5.664-4.96-5.664-4.96 2.528-4.96 5.664zm7.52 0c0 2.32-.8 3.552-2.56 3.552s-2.56-1.232-2.56-3.552.8-3.552 2.56-3.552 2.56 1.232 2.56 3.552z"/><path d="m156.069 53.44v-1.12h-1.968v11.2h2.224v-4.336c.496.544 1.312 1.04 2.528 1.04 2.432 0 3.744-1.968 3.744-4.064s-1.312-4.064-3.744-4.064c-1.424 0-2.304.656-2.784 1.344zm4.256 2.72c0 1.2-.752 2.192-2.016 2.192-.976 0-1.696-.608-2-1.28v-1.824c.304-.672 1.024-1.28 2-1.28 1.264 0 2.016.992 2.016 2.192z"/><path d="m168.511 52.32-1.536 2.304-1.568-2.304h-2.512l2.784 3.808-2.928 3.872h2.512l1.712-2.352 1.696 2.352h2.512l-2.928-3.872 2.768-3.808z"/><path d="m177.822 53.696c.288-2.16 1.632-2.784 3.104-2.784.928 0 1.92.272 2.672.768v-2.112c-.928-.432-1.968-.672-2.992-.672-2.768 0-5.168 1.68-5.168 5.664 0 3.52 1.424 5.664 4.928 5.664 2.224 0 4.16-1.264 4.16-3.744 0-2.336-1.84-3.52-3.792-3.52-1.072 0-1.952.224-2.912.736zm0 1.936c.688-.448 1.456-.672 2.176-.672 1.12 0 2.128.384 2.128 1.632 0 1.2-.896 1.68-1.952 1.68-1.248 0-2.128-.608-2.352-2.64z"/><path d="m185.704 54.56c0 3.136 1.488 5.664 4.96 5.664s4.96-2.528 4.96-5.664-1.488-5.664-4.96-5.664-4.96 2.528-4.96 5.664zm7.52 0c0 2.32-.8 3.552-2.56 3.552s-2.56-1.232-2.56-3.552.8-3.552 2.56-3.552 2.56 1.232 2.56 3.552z"/><path d="m199.225 53.44v-1.12h-1.968v11.2h2.224v-4.336c.496.544 1.312 1.04 2.528 1.04 2.432 0 3.744-1.968 3.744-4.064s-1.312-4.064-3.744-4.064c-1.424 0-2.304.656-2.784 1.344zm4.256 2.72c0 1.2-.752 2.192-2.016 2.192-.976 0-1.696-.608-2-1.28v-1.824c.304-.672 1.024-1.28 2-1.28 1.264 0 2.016.992 2.016 2.192z"/><path d="m211.667 52.32-1.536 2.304-1.568-2.304h-2.512l2.784 3.808-2.928 3.872h2.512l1.712-2.352 1.696 2.352h2.512l-2.928-3.872 2.768-3.808z"/><path d="m218.595 54.56c0 3.136 1.488 5.664 4.96 5.664s4.96-2.528 4.96-5.664-1.488-5.664-4.96-5.664-4.96 2.528-4.96 5.664zm7.52 0c0 2.32-.8 3.552-2.56 3.552s-2.56-1.232-2.56-3.552.8-3.552 2.56-3.552 2.56 1.232 2.56 3.552z"/><path d="m231.315 62.32 1.568-4.304h-2.352l-1.008 4.304zm1.584-8.736c0-.896-.624-1.296-1.36-1.296-.704 0-1.344.4-1.344 1.296 0 .912.64 1.328 1.344 1.328.736 0 1.36-.416 1.36-1.328z"/><path d="m64.9123 139.44v-1.12h-1.968v11.2h2.224v-4.336c.496.544 1.312 1.04 2.528 1.04 2.432 0 3.744-1.968 3.744-4.064s-1.312-4.064-3.744-4.064c-1.424 0-2.304.656-2.784 1.344zm4.256 2.72c0 1.2-.752 2.192-2.016 2.192-.976 0-1.696-.608-2-1.28v-1.824c.304-.672 1.024-1.28 2-1.28 1.264 0 2.016.992 2.016 2.192z"/><path d="m79.7615 144.016v-2.448c0-2.528-1.472-3.472-3.776-3.472-1.184 0-2.352.304-2.976.512v1.92c.72-.288 1.664-.576 2.72-.576 1.2 0 1.808.528 1.808 1.296v.272c-.544-.128-1.216-.208-1.824-.208-1.536 0-3.376.608-3.376 2.56 0 1.52 1.248 2.352 2.688 2.352 1.136 0 2.016-.352 2.768-.944.32.576.912.864 1.696.864.432 0 .88-.096 1.232-.224v-1.456c-.144.048-.288.064-.416.064-.288 0-.544-.112-.544-.512zm-3.536-1.376c.464 0 .976.096 1.312.176v1.2c-.512.448-1.104.624-1.728.624-.672 0-1.2-.368-1.2-.944 0-.784.8-1.056 1.616-1.056z"/><path d="m87.6285 134.8v4.336c-.496-.544-1.312-1.04-2.528-1.04-2.448 0-3.76 1.968-3.76 4.064s1.312 4.064 3.76 4.064c1.408 0 2.288-.656 2.784-1.344v1.12h1.952v-11.2zm0 6.448v1.824c-.304.672-1.024 1.28-2 1.28-1.264 0-2.016-.992-2.016-2.192s.752-2.192 2.016-2.192c.976 0 1.696.608 2 1.28z"/><path d="m97.5816 134.8v4.336c-.496-.544-1.312-1.04-2.528-1.04-2.448 0-3.76 1.968-3.76 4.064s1.312 4.064 3.76 4.064c1.408 0 2.288-.656 2.784-1.344v1.12h1.952v-11.2zm0 6.448v1.824c-.304.672-1.024 1.28-2 1.28-1.264 0-2.016-.992-2.016-2.192s.752-2.192 2.016-2.192c.976 0 1.696.608 2 1.28z"/><path d="m103.919 146v-7.68h-2.224v7.68zm.192-10.224c0-.864-.608-1.248-1.312-1.248-.688 0-1.296.384-1.296 1.248 0 .88.608 1.264 1.296 1.264.704 0 1.312-.384 1.312-1.264z"/><path d="m107.803 139.296v-.976h-1.968v7.68h2.224v-5.008c.32-.464.928-.976 1.712-.976.864 0 1.488.48 1.488 1.52v4.464h2.224v-4.752c0-1.776-1.104-3.152-3.12-3.152-1.104 0-1.968.512-2.56 1.2z"/><path d="m114.84 142.16c0 2.096 1.312 4.064 3.76 4.064 1.216 0 2.032-.496 2.528-1.04v.704c0 1.52-1.136 1.984-2.496 1.984-1.056 0-2.096-.288-2.96-.8v1.952c.928.448 2.048.72 3.248.72 2.256 0 4.416-1.024 4.416-3.952v-7.472h-1.952v1.12c-.496-.688-1.376-1.344-2.784-1.344-2.448 0-3.76 1.968-3.76 4.064zm6.288-.912v1.872c-.304.64-1.024 1.232-2 1.232-1.264 0-2.016-.992-2.016-2.192s.752-2.192 2.016-2.192c.976 0 1.696.608 2 1.28z"/><path d="m127.882 140.032c0-.896-.624-1.312-1.344-1.312s-1.36.416-1.36 1.312c0 .912.64 1.312 1.36 1.312s1.344-.4 1.344-1.312zm0 4.864c0-.896-.624-1.312-1.344-1.312s-1.36.416-1.36 1.312.64 1.312 1.36 1.312 1.344-.416 1.344-1.312z"/><path d="m140.76 137.904c0-1.984-1.68-3.008-3.936-3.008-1.344 0-2.576.32-3.552.848v2.224c1.072-.656 2.24-.976 3.216-.976 1.312 0 2 .464 2 1.248 0 .752-.656 1.152-1.728 1.152l-1.504-.016-.016 2.048h1.792c1.088 0 1.888.336 1.888 1.264 0 1.024-1.024 1.424-2.256 1.424-1.248.016-2.352-.16-3.584-.848v2.224c1.232.512 2.368.736 3.776.736 2.24 0 4.352-.912 4.352-3.2 0-1.6-.992-2.448-2.096-2.784 1.024-.352 1.648-1.216 1.648-2.336z"/><path d="m142.548 140.56c0 3.136 1.488 5.664 4.96 5.664s4.96-2.528 4.96-5.664-1.488-5.664-4.96-5.664-4.96 2.528-4.96 5.664zm7.52 0c0 2.32-.8 3.552-2.56 3.552s-2.56-1.232-2.56-3.552.8-3.552 2.56-3.552 2.56 1.232 2.56 3.552z"/><path d="m156.069 139.44v-1.12h-1.968v11.2h2.224v-4.336c.496.544 1.312 1.04 2.528 1.04 2.432 0 3.744-1.968 3.744-4.064s-1.312-4.064-3.744-4.064c-1.424 0-2.304.656-2.784 1.344zm4.256 2.72c0 1.2-.752 2.192-2.016 2.192-.976 0-1.696-.608-2-1.28v-1.824c.304-.672 1.024-1.28 2-1.28 1.264 0 2.016.992 2.016 2.192z"/><path d="m168.511 138.32-1.536 2.304-1.568-2.304h-2.512l2.784 3.808-2.928 3.872h2.512l1.712-2.352 1.696 2.352h2.512l-2.928-3.872 2.768-3.808z"/><path d="m177.822 139.696c.288-2.16 1.632-2.784 3.104-2.784.928 0 1.92.272 2.672.768v-2.112c-.928-.432-1.968-.672-2.992-.672-2.768 0-5.168 1.68-5.168 5.664 0 3.52 1.424 5.664 4.928 5.664 2.224 0 4.16-1.264 4.16-3.744 0-2.336-1.84-3.52-3.792-3.52-1.072 0-1.952.224-2.912.736zm0 1.936c.688-.448 1.456-.672 2.176-.672 1.12 0 2.128.384 2.128 1.632 0 1.2-.896 1.68-1.952 1.68-1.248 0-2.128-.608-2.352-2.64z"/><path d="m185.704 140.56c0 3.136 1.488 5.664 4.96 5.664s4.96-2.528 4.96-5.664-1.488-5.664-4.96-5.664-4.96 2.528-4.96 5.664zm7.52 0c0 2.32-.8 3.552-2.56 3.552s-2.56-1.232-2.56-3.552.8-3.552 2.56-3.552 2.56 1.232 2.56 3.552z"/><path d="m199.225 139.44v-1.12h-1.968v11.2h2.224v-4.336c.496.544 1.312 1.04 2.528 1.04 2.432 0 3.744-1.968 3.744-4.064s-1.312-4.064-3.744-4.064c-1.424 0-2.304.656-2.784 1.344zm4.256 2.72c0 1.2-.752 2.192-2.016 2.192-.976 0-1.696-.608-2-1.28v-1.824c.304-.672 1.024-1.28 2-1.28 1.264 0 2.016.992 2.016 2.192z"/><path d="m211.667 138.32-1.536 2.304-1.568-2.304h-2.512l2.784 3.808-2.928 3.872h2.512l1.712-2.352 1.696 2.352h2.512l-2.928-3.872 2.768-3.808z"/><path d="m218.595 140.56c0 3.136 1.488 5.664 4.96 5.664s4.96-2.528 4.96-5.664-1.488-5.664-4.96-5.664-4.96 2.528-4.96 5.664zm7.52 0c0 2.32-.8 3.552-2.56 3.552s-2.56-1.232-2.56-3.552.8-3.552 2.56-3.552 2.56 1.232 2.56 3.552z"/><path d="m231.315 148.32 1.568-4.304h-2.352l-1.008 4.304zm1.584-8.736c0-.896-.624-1.296-1.36-1.296-.704 0-1.344.4-1.344 1.296 0 .912.64 1.328 1.344 1.328.736 0 1.36-.416 1.36-1.328z"/></g></svg>