<svg width="705" height="260" viewBox="0 0 705 260" fill="none" xmlns="http://www.w3.org/2000/svg"><path d="M0 40h705v20H0V40z" fill="#CBEAC8"/><path d="M1 0h703v40H1V0z" fill="#fff"/><path fill-rule="evenodd" clip-rule="evenodd" d="M703 2H2v36h701V2zM0 0v40h705V0H0z" fill="#4EB543"/><path d="M21.12 25h2.16v-4.16c0-1.04.72-1.76 1.68-1.76.88 0 1.44.56 1.44 1.52V25h2.16v-4.72c0-2-1.28-3.28-2.88-3.28-1.52 0-2.32 1.28-2.32 1.28h-.08V13.8h-2.16V25zM34.31 25.16c2.16 0 3.36-1.28 3.36-1.28l-1.12-1.52s-.72.88-2.08.88c-1.2 0-1.84-.64-2.08-1.36h5.68s.08-.4.08-.96A3.93 3.93 0 0034.23 17a4.1 4.1 0 00-4.08 4.08 4.11 4.11 0 004.16 4.08zm-1.92-4.88c.24-.72.88-1.36 1.76-1.36s1.52.64 1.76 1.36H32.4zM41.76 25.16c1.52 0 2.32-1.12 2.32-1.12h.08V25h2.16v-4.88c0-1.76-1.36-3.12-3.36-3.12-2.08 0-3.2 1.52-3.2 1.52l1.28 1.28s.64-.88 1.76-.88c.8 0 1.28.48 1.36 1.04l-2.48.45c-1.44.25-2.32 1.23-2.32 2.51 0 1.28.96 2.24 2.4 2.24zm.72-1.76c-.64 0-.96-.32-.96-.8 0-.4.32-.7.88-.8l1.76-.32v.16c0 1.04-.72 1.76-1.68 1.76zM51.44 25.16c1.68 0 2.48-1.28 2.48-1.28H54V25h2.16V13.8H54v4.48h-.08S53.12 17 51.44 17c-1.84 0-3.52 1.68-3.52 4.08 0 2.4 1.68 4.08 3.52 4.08zm.64-2a2 2 0 01-2-2.08 2 2 0 114 0 2 2 0 01-2 2.08zM62 25.16a4.81 4.81 0 003.36-1.28l-1.12-1.52s-.72.88-2.08.88c-1.2 0-1.84-.64-2.08-1.36h5.68s.08-.4.08-.96A3.93 3.93 0 0061.92 17a4.1 4.1 0 00-4.08 4.08A4.11 4.11 0 0062 25.16zm-1.92-4.88c.24-.72.88-1.36 1.76-1.36s1.52.64 1.76 1.36h-3.52zM67.45 25h2.16v-3.68c0-1.28.8-2.08 1.84-2.08.48 0 .72.08.72.08V17H72c-1.52 0-2.32 1.28-2.32 1.28h-.08v-1.12h-2.16V25z" fill="#4EB543"/><path d="M0 100h705v20H0v-20z" fill="#FFEACC"/><path d="M1 60h703v40H1V60z" fill="#fff"/><path fill-rule="evenodd" clip-rule="evenodd" d="M703 62H2v36h701V62zM0 60v40h705V60H0z" fill="#FF6B00"/><path d="M23.6 85.16c2.16 0 3.28-1.12 3.28-2.48 0-2.56-4-2.4-4-3.28 0-.24.24-.48.8-.48 1.12 0 1.76.64 1.76.64l1.28-1.36S25.68 77 23.68 77s-3.12 1.12-3.12 2.4c0 2.56 4 2.4 4 3.28 0 .32-.24.56-.96.56a3.01 3.01 0 01-2.08-.88l-1.28 1.36s1.2 1.44 3.36 1.44zM32 85.16c2.16 0 3.36-1.28 3.36-1.28l-1.12-1.52s-.72.88-2.08.88c-1.2 0-1.84-.64-2.08-1.36h5.68s.08-.4.08-.96A3.93 3.93 0 0031.92 77a4.1 4.1 0 00-4.08 4.08A4.11 4.11 0 0032 85.16zm-1.92-4.88c.24-.72.88-1.36 1.76-1.36s1.52.64 1.76 1.36h-3.52zM41.13 85.16a4 4 0 003.28-1.6l-1.36-1.36s-.72.96-1.92.96a2 2 0 01-2-2.08 2 2 0 012-2.08c1.2 0 1.92.96 1.92.96l1.36-1.36S43.37 77 41.13 77a4.11 4.11 0 00-4.16 4.08 4.11 4.11 0 004.16 4.08zM49.04 85.16c.8 0 1.44-.24 1.44-.24v-2s-.4.16-.88.16c-.64 0-1.04-.4-1.04-1.12v-2.64h1.76v-2h-1.76v-2.4h-1.92v1.44c0 .64-.32.96-.88.96h-.72v2h1.36v2.96c0 1.84 1.04 2.88 2.64 2.88zM52.16 85h2.17v-7.84h-2.16V85zm1.08-8.88c.68 0 1.24-.56 1.24-1.2a1.24 1.24 0 00-2.48 0c0 .64.56 1.2 1.24 1.2zM60.08 85.16a4.11 4.11 0 004.16-4.08A4.11 4.11 0 0060.08 77a4.11 4.11 0 00-4.16 4.08 4.11 4.11 0 004.16 4.08zm0-2a2 2 0 01-2-2.08 2 2 0 114 0 2 2 0 01-2 2.08zM65.84 85H68v-4.16c0-1.04.72-1.76 1.68-1.76.88 0 1.44.56 1.44 1.52V85h2.16v-4.72c0-2-1.28-3.28-2.88-3.28-1.52 0-2.32 1.28-2.32 1.28H68v-1.12h-2.16V85zM75.11 81.24h5.36v-2h-5.36v2zM83.18 85h2.4V73.8h-2s-.56 1.28-2.32 1.52v1.52h1.92V85z" fill="#FF6B00"/><path d="M0 160h705v20H0v-20z" fill="#DAD7F4"/><path d="M1 120h703v40H1v-40z" fill="#fff"/><path fill-rule="evenodd" clip-rule="evenodd" d="M703 122H2v36h701v-36zM0 120v40h705v-40H0z" fill="#744CE6"/><path d="M23.6 145.16c2.16 0 3.28-1.12 3.28-2.48 0-2.56-4-2.4-4-3.28 0-.24.24-.48.8-.48 1.12 0 1.76.64 1.76.64l1.28-1.36s-1.04-1.2-3.04-1.2-3.12 1.12-3.12 2.4c0 2.56 4 2.4 4 3.28 0 .32-.24.56-.96.56a3.01 3.01 0 01-2.08-.88l-1.28 1.36s1.2 1.44 3.36 1.44zM32 145.16c2.16 0 3.36-1.28 3.36-1.28l-1.12-1.52s-.72.88-2.08.88c-1.2 0-1.84-.64-2.08-1.36h5.68s.08-.4.08-.96a3.93 3.93 0 00-3.92-3.92 4.1 4.1 0 00-4.08 4.08 4.11 4.11 0 004.16 4.08zm-1.92-4.88c.24-.72.88-1.36 1.76-1.36s1.52.64 1.76 1.36h-3.52zM41.13 145.16a4 4 0 003.28-1.6l-1.36-1.36s-.72.96-1.92.96a2 2 0 01-2-2.08 2 2 0 012-2.08c1.2 0 1.92.96 1.92.96l1.36-1.36s-1.04-1.6-3.28-1.6a4.11 4.11 0 00-4.16 4.08 4.11 4.11 0 004.16 4.08zM49.04 145.16c.8 0 1.44-.24 1.44-.24v-2s-.4.16-.88.16c-.64 0-1.04-.4-1.04-1.12v-2.64h1.76v-2h-1.76v-2.4h-1.92v1.44c0 .64-.32.96-.88.96h-.72v2h1.36v2.96c0 1.84 1.04 2.88 2.64 2.88zM52.16 145h2.17v-7.84h-2.16V145zm1.08-8.88c.68 0 1.24-.56 1.24-1.2a1.24 1.24 0 00-2.48 0c0 .64.56 1.2 1.24 1.2zM60.08 145.16a4.11 4.11 0 004.16-4.08 4.11 4.11 0 00-4.16-4.08 4.11 4.11 0 00-4.16 4.08 4.11 4.11 0 004.16 4.08zm0-2a2 2 0 01-2-2.08 2 2 0 114 0 2 2 0 01-2 2.08zM65.84 145H68v-4.16c0-1.04.72-1.76 1.68-1.76.88 0 1.44.56 1.44 1.52v4.4h2.16v-4.72c0-2-1.28-3.28-2.88-3.28-1.52 0-2.32 1.28-2.32 1.28H68v-1.12h-2.16V145zM75.11 141.24h5.36v-2h-5.36v2zM81.26 145h7.92v-2.24h-4.8c1.28-2 4.8-2.48 4.8-5.68 0-2-1.52-3.52-3.92-3.52-3.12 0-4 2.64-4 2.64l1.92.96s.56-1.36 1.92-1.36c.96 0 1.6.64 1.6 1.44 0 2.48-5.44 2.48-5.44 7.76z" fill="#744CE6"/><path d="M0 180h705v40H0v-40z" fill="#FDE6FF"/><path d="M1 220h703v40H1v-40z" fill="#fff"/><path fill-rule="evenodd" clip-rule="evenodd" d="M703 222H2v36h701v-36zM0 220v40h705v-40H0z" fill="#EF33FF"/><path d="M21.52 245h2.16v-5.68h1.76v-2h-1.76v-.48c0-.72.4-1.12 1.04-1.12.48 0 .88.16.88.16v-2s-.64-.24-1.44-.24c-1.6 0-2.64 1.04-2.64 2.88v.8h-1.2v2h1.2V245zM30.64 245.16a4.11 4.11 0 004.16-4.08 4.11 4.11 0 00-4.16-4.08 4.11 4.11 0 00-4.16 4.08 4.11 4.11 0 004.16 4.08zm0-2a2 2 0 01-2-2.08 2 2 0 114 0 2 2 0 01-2 2.08zM40.08 245.16a4.11 4.11 0 004.16-4.08 4.11 4.11 0 00-4.16-4.08 4.11 4.11 0 00-4.16 4.08 4.11 4.11 0 004.16 4.08zm0-2a2 2 0 01-2-2.08 2 2 0 114 0 2 2 0 01-2 2.08zM49.12 245.16c.8 0 1.44-.24 1.44-.24v-2s-.4.16-.88.16c-.64 0-1.04-.4-1.04-1.12v-2.64h1.76v-2h-1.76v-2.4h-1.92v1.44c0 .64-.32.96-.88.96h-.72v2h1.36v2.96c0 1.84 1.04 2.88 2.64 2.88zM55.77 245.16c2.16 0 3.36-1.28 3.36-1.28L58 242.36s-.72.88-2.08.88c-1.2 0-1.84-.64-2.08-1.36h5.68s.08-.4.08-.96a3.93 3.93 0 00-3.92-3.92 4.1 4.1 0 00-4.08 4.08 4.11 4.11 0 004.16 4.08zm-1.92-4.88c.24-.72.88-1.36 1.76-1.36s1.52.64 1.76 1.36h-3.52zM61.21 245h2.16v-3.68c0-1.28.8-2.08 1.84-2.08.48 0 .72.08.72.08V237h-.16c-1.52 0-2.32 1.28-2.32 1.28h-.08v-1.12h-2.16V245z" fill="#EF33FF"/><path d="M353 60l-5-8h10l-5 8z" fill="#4EB543"/><path d="M353 120l-5-8h10l-5 8z" fill="#FF6B00"/><path d="M353 180l-5-8h10l-5 8z" fill="#744CE6"/><path d="M353 180l-5 8h10l-5-8z" fill="#EF33FF"/><path d="M352 40h2v12h-2V40z" fill="#4EB543"/><path d="M352 100h2v12h-2v-12z" fill="#FF6B00"/><path d="M352 160h2v12h-2v-12z" fill="#744CE6"/><path d="M352 220h2v-32h-2v32z" fill="#EF33FF"/></svg>