<svg width="380" height="410" viewBox="0 0 380 410" fill="none" xmlns="http://www.w3.org/2000/svg"><g clip-path="url(#clip0)"><path fill="#fff" d="M0 0h380v410H0z"/><path d="M-180 0h560v410h-560V0z" fill="#3844AE"/><path d="M20 24a4 4 0 014-4h332a4 4 0 014 4v362a4 4 0 01-4 4H24a4 4 0 01-4-4V24z" fill="#F0F1FD"/><path d="M145 315a4 4 0 014-4h82a4 4 0 014 4v26a4 4 0 01-4 4h-82a4 4 0 01-4-4v-26z" fill="#5F6EEB"/><path d="M168.23 323.99c.39.45.69 1 .9 1.66.22.66.32 1.42.32 2.26 0 .83-.1 1.57-.31 2.24a4.58 4.58 0 01-.91 1.67c-.41.48-.9.83-1.46 1.06-.55.22-1.16.33-1.82.33-.69 0-1.3-.11-1.86-.35a3.79 3.79 0 01-1.42-1.04c-.4-.45-.7-1-.9-1.66a7.4 7.4 0 01-.32-2.25c0-.85.1-1.6.32-2.25.21-.65.51-1.2.9-1.67.4-.45.87-.8 1.42-1.03a4.7 4.7 0 011.86-.35c.7 0 1.32.12 1.87.36a3.9 3.9 0 011.41 1.02zm-.18 3.92c0-.67-.08-1.27-.22-1.79a3.76 3.76 0 00-.62-1.29c-.27-.35-.6-.61-.98-.78-.37-.18-.8-.27-1.27-.27a2.66 2.66 0 00-2.26 1.05c-.28.35-.48.78-.63 1.3a6.85 6.85 0 00-.21 1.78c0 1.34.28 2.36.84 3.07.56.71 1.31 1.06 2.26 1.06.94 0 1.69-.35 2.25-1.06.56-.7.84-1.73.84-3.07zM176.42 326.5h-2.6v6.5h-1.28v-6.5h-2.6v-1.14h6.48v1.13zM183.37 330.69a2.06 2.06 0 01-.8 1.7c-.3.24-.63.4-.97.49-.34.08-.75.12-1.22.12h-3v-7.64h2.8c.56 0 .97.02 1.23.06.26.03.52.12.77.26.27.14.47.34.6.58.13.24.19.53.19.86 0 .37-.1.7-.3.99-.2.28-.47.5-.8.66l.03.05a2 2 0 011.04.64c.28.32.43.73.43 1.23zm-1.72-3.37c0-.17-.03-.32-.09-.45a.61.61 0 00-.3-.3 1.38 1.38 0 00-.55-.15c-.2-.02-.48-.03-.84-.03h-1.22v2.1h1.47c.32 0 .54-.02.67-.05.14-.03.28-.1.44-.2.15-.08.26-.2.32-.36.07-.15.1-.34.1-.56zm.39 3.38c0-.26-.04-.47-.12-.63-.07-.15-.23-.3-.49-.42a1.52 1.52 0 00-.51-.14 8.12 8.12 0 00-.76-.03h-1.51v2.5h1.11c.46 0 .82-.02 1.08-.06.25-.04.47-.1.65-.22.2-.12.33-.25.42-.4.09-.16.13-.36.13-.6zM188.03 333.18a3.8 3.8 0 01-2.83-1.03c-.67-.69-1-1.66-1-2.92 0-1.25.32-2.24.97-2.97.65-.74 1.5-1.1 2.56-1.1.47 0 .89.06 1.25.2.37.13.69.35.96.64.28.3.48.65.63 1.07.15.42.22.94.22 1.55v.7h-5.3c0 .88.23 1.56.68 2.03.45.47 1.06.7 1.85.7a3.56 3.56 0 001.57-.34 5.84 5.84 0 00.98-.58h.08v1.4l-.56.23a6.86 6.86 0 01-1.29.36c-.2.04-.46.06-.77.06zm1.5-4.85c0-.34-.04-.64-.12-.9a1.86 1.86 0 00-.3-.63c-.16-.2-.35-.34-.59-.44a2.2 2.2 0 00-.87-.15 2.05 2.05 0 00-1.96 1.27c-.1.25-.16.53-.2.85h4.05zM197.67 326.5h-2.6v6.5h-1.29v-6.5h-2.6v-1.14h6.49v1.13zM204.65 333h-1.27v-5.7l-3.6 5.7h-1.16v-7.64h1.28v5.61l3.55-5.6h1.2V333zM212.09 326.5h-2.6v6.5h-1.28v-6.5h-2.6v-1.14h6.48v1.13zM218.83 330.63c0 .37-.08.7-.23 1.01-.14.3-.34.54-.6.73-.3.23-.62.4-.96.49a5 5 0 01-1.32.14h-2.67v-7.64h1.28v2.98h1.42c.58 0 1.02.03 1.34.09.32.06.63.2.95.43.26.2.46.45.6.76.12.3.19.64.19 1.01zm-1.33.02c0-.23-.04-.43-.12-.6a.93.93 0 00-.39-.43c-.19-.12-.4-.19-.66-.2-.24-.03-.59-.04-1.04-.04h-.96v2.6h.93c.46 0 .81-.02 1.06-.06.25-.04.47-.12.65-.23.19-.11.32-.25.4-.41.1-.17.13-.37.13-.63z" fill="#fff"/><path d="M84 263.85c0 .5-.1.94-.28 1.34-.2.4-.45.73-.78.98-.38.3-.79.51-1.23.64-.43.13-1 .19-1.7.19h-2.94v-10.18h6.2v1.2h-4.85v2.8h1.64c.7 0 1.26.03 1.7.12.43.07.84.26 1.23.56.35.27.6.6.77 1 .16.4.24.85.24 1.35zm-1.41.03c0-.35-.06-.65-.17-.9-.11-.27-.29-.48-.53-.63a1.9 1.9 0 00-.87-.31c-.33-.04-.79-.06-1.39-.06h-1.2v3.87h1.17c.6 0 1.07-.04 1.4-.1.32-.05.61-.17.86-.34s.44-.38.55-.62c.12-.24.18-.55.18-.91zM91.5 263.19c0 1.28-.3 2.27-.92 2.98a3.15 3.15 0 01-2.48 1.04c-1.06 0-1.9-.36-2.5-1.08-.61-.72-.91-1.7-.91-2.94 0-1.28.3-2.27.93-2.98a3.16 3.16 0 012.48-1.06c1.03 0 1.86.36 2.48 1.06.62.7.93 1.7.93 2.98zm-1.32 0c0-1-.18-1.73-.54-2.2a1.8 1.8 0 00-1.54-.73c-.67 0-1.18.24-1.55.72-.36.48-.54 1.22-.54 2.2 0 .96.18 1.69.54 2.19.37.49.88.73 1.55.73a1.8 1.8 0 001.54-.72c.36-.49.54-1.22.54-2.2zM95.86 267.17c-.52 0-1-.08-1.44-.24a3 3 0 01-1.13-.74 3.35 3.35 0 01-.73-1.23 5.4 5.4 0 01-.26-1.77c0-.67.1-1.25.27-1.73.18-.5.42-.9.72-1.23.3-.34.68-.6 1.12-.77a4.13 4.13 0 012.66-.1c.4.12.74.26 1.05.41v1.45h-.08a4.28 4.28 0 00-1.5-.82c-.24-.06-.47-.1-.7-.1-.66 0-1.2.25-1.6.76-.4.5-.6 1.21-.6 2.13 0 .9.19 1.6.58 2.12.39.5.93.75 1.62.75.42 0 .82-.09 1.2-.26.38-.18.71-.4 1-.67h.08v1.44l-.48.22a6.29 6.29 0 01-1.1.33c-.18.03-.4.05-.68.05zM102.33 267.17c-.52 0-1-.08-1.44-.24a3 3 0 01-1.13-.74 3.35 3.35 0 01-.73-1.23 5.4 5.4 0 01-.26-1.77c0-.67.09-1.25.27-1.73.18-.5.42-.9.72-1.23.3-.34.67-.6 1.12-.77a4.13 4.13 0 012.66-.1c.4.12.74.26 1.05.41v1.45h-.08a4.25 4.25 0 00-1.5-.82c-.25-.06-.48-.1-.7-.1-.67 0-1.2.25-1.6.76-.4.5-.6 1.21-.6 2.13 0 .9.19 1.6.57 2.12.4.5.94.75 1.63.75.42 0 .82-.09 1.2-.26.37-.18.7-.4 1-.67h.08v1.44l-.48.22a6.32 6.32 0 01-1.1.33c-.18.03-.4.05-.68.05zM108.25 265.05l-1.91 4.48h-1l1.2-4.48h1.71zM117.69 267.18a3.8 3.8 0 01-2.84-1.03c-.67-.69-1-1.66-1-2.92 0-1.25.32-2.24.98-2.97.65-.74 1.5-1.1 2.55-1.1.48 0 .9.06 1.26.2.36.13.68.35.96.64.27.3.48.65.63 1.07.14.42.21.94.21 1.55v.7h-5.29c0 .88.23 1.56.67 2.03.45.47 1.07.7 1.86.7a3.56 3.56 0 001.56-.34 5.63 5.63 0 00.99-.58h.07v1.4l-.56.23a6.97 6.97 0 01-1.28.36c-.2.04-.46.06-.77.06zm1.5-4.85c0-.34-.05-.64-.12-.9a1.84 1.84 0 00-.31-.63c-.15-.2-.35-.34-.58-.44a2.2 2.2 0 00-.87-.15 2.05 2.05 0 00-1.96 1.27c-.1.25-.17.53-.2.85h4.04zM124.78 267.17c-.53 0-1-.08-1.44-.24a3 3 0 01-1.13-.74 3.35 3.35 0 01-.73-1.23 5.38 5.38 0 01-.26-1.77c0-.67.09-1.25.26-1.73.19-.5.43-.9.73-1.23.3-.34.67-.6 1.12-.77a4.12 4.12 0 012.66-.1c.4.12.74.26 1.05.41v1.45h-.08a4.25 4.25 0 00-1.5-.82c-.24-.06-.48-.1-.7-.1-.67 0-1.2.25-1.6.76-.4.5-.6 1.21-.6 2.13 0 .9.18 1.6.57 2.12.4.5.94.75 1.63.75.42 0 .82-.09 1.2-.26.37-.18.7-.4 1-.67h.08v1.44l-.48.22a6.32 6.32 0 01-1.1.33c-.18.03-.4.05-.68.05zM134.12 267h-1.28v-6.56h-2.63l-.04 1.1-.04.94c-.03.72-.07 1.32-.14 1.8a6.2 6.2 0 01-.25 1.16 2.6 2.6 0 01-.74 1.16c-.15.14-.32.24-.5.31-.17.07-.37.1-.6.1a8.69 8.69 0 01-.52-.01v-1.12h.17a1.1 1.1 0 00.44-.03c.1-.04.2-.1.28-.18.23-.23.4-.62.5-1.17.1-.56.18-1.34.23-2.35l.04-1.32.05-1.47h5.03V267zM142.02 267h-1.27v-5.7l-3.6 5.7H136v-7.64h1.27v5.61l3.56-5.6h1.2V267zM154.28 267H153v-6.53h-3.46V267h-1.29v-7.64h6.03V267zM162.55 262.98a4.7 4.7 0 01-.92 3.04 2.84 2.84 0 01-2.3 1.13 3.56 3.56 0 01-1.9-.53v3.2h-1.29v-10.46h1.29v.8a4.7 4.7 0 011.06-.71c.39-.2.81-.3 1.28-.3.87 0 1.55.35 2.04 1.04.5.7.74 1.62.74 2.79zm-1.33.14c0-.87-.14-1.54-.41-2.02-.28-.48-.73-.72-1.36-.72-.36 0-.72.08-1.06.24a4.5 4.5 0 00-.96.62v4.33a3.5 3.5 0 001.69.42c.66 0 1.18-.24 1.55-.73.37-.48.55-1.2.55-2.14zM170.16 263.19c0 1.28-.3 2.27-.93 2.98a3.15 3.15 0 01-2.47 1.04c-1.06 0-1.9-.36-2.51-1.08-.6-.72-.9-1.7-.9-2.94 0-1.28.3-2.27.93-2.98a3.16 3.16 0 012.48-1.06c1.03 0 1.85.36 2.47 1.06.62.7.93 1.7.93 2.98zm-1.32 0c0-1-.18-1.73-.54-2.2a1.8 1.8 0 00-1.54-.73c-.67 0-1.19.24-1.55.72-.36.48-.54 1.22-.54 2.2 0 .96.18 1.69.54 2.19.36.49.88.73 1.55.73a1.8 1.8 0 001.53-.72c.37-.49.55-1.22.55-2.2zM178.03 268.83h-1.2v-1.85h-5.03v1.85h-1.2v-2.92h.51c.44-.72.79-1.64 1.06-2.79.28-1.14.42-2.4.42-3.76h4.68v6.55h.76v2.92zm-2.04-2.92v-5.47h-2.19a14.92 14.92 0 01-.47 3.13 8.76 8.76 0 01-.95 2.34h3.6zM183.57 265.12V263l-1.16.12c-.47.04-.84.1-1.13.2-.34.1-.63.26-.85.48-.22.21-.33.52-.33.9 0 .44.12.77.37 1 .24.22.6.33 1.07.33.41 0 .78-.09 1.1-.26.33-.18.64-.4.93-.65zm0 1.07l-.42.32a3.85 3.85 0 01-1.17.6c-.21.07-.51.1-.9.1a2.29 2.29 0 01-2.13-1.45 2.63 2.63 0 01-.18-.97c0-.53.11-.98.33-1.35.23-.38.58-.67 1.06-.89.43-.2.94-.33 1.52-.4.58-.08 1.21-.14 1.89-.17v-.25c0-.3-.05-.54-.14-.73-.09-.18-.22-.33-.38-.43-.17-.1-.37-.17-.6-.2a4.86 4.86 0 00-1.78.08c-.4.09-.8.22-1.2.38h-.08v-1.3c.24-.07.58-.14 1.02-.23a7.19 7.19 0 012.64 0c.36.08.68.23.97.45.28.2.48.48.62.81.14.33.2.74.2 1.22V267h-1.27v-.81zM192.24 260.5h-2.6v6.5h-1.29v-6.5h-2.6v-1.14h6.49v1.13zM198.98 264.63c0 .37-.08.7-.23 1.01-.15.3-.34.54-.6.73-.3.23-.62.4-.96.49a5 5 0 01-1.32.14h-2.68v-7.64h1.29v2.98h1.42c.57 0 1.02.03 1.33.09.32.06.64.2.95.43.27.2.47.45.6.76.13.3.2.64.2 1.01zm-1.33.02c0-.23-.04-.43-.12-.6a.93.93 0 00-.4-.43c-.18-.12-.4-.19-.65-.2-.24-.03-.59-.04-1.04-.04h-.96v2.6h.93c.45 0 .8-.02 1.06-.06.25-.04.47-.12.65-.23.18-.11.32-.25.4-.41.09-.17.13-.37.13-.63zM207.62 267.17c-.53 0-1-.08-1.44-.24a3 3 0 01-1.13-.74 3.35 3.35 0 01-.74-1.23 5.41 5.41 0 01-.25-1.77c0-.67.09-1.25.26-1.73.19-.5.43-.9.73-1.23.3-.34.67-.6 1.12-.77a4.13 4.13 0 012.66-.1c.39.12.74.26 1.04.41v1.45h-.07a4.25 4.25 0 00-1.5-.82c-.25-.06-.48-.1-.7-.1-.67 0-1.2.25-1.61.76-.4.5-.6 1.21-.6 2.13 0 .9.2 1.6.58 2.12.4.5.93.75 1.63.75.42 0 .81-.09 1.2-.26.37-.18.7-.4 1-.67h.07v1.44l-.47.22a6.32 6.32 0 01-1.1.33c-.19.03-.4.05-.68.05zM214.36 267.18a3.8 3.8 0 01-2.83-1.03c-.67-.69-1-1.66-1-2.92 0-1.25.32-2.24.97-2.97.65-.74 1.5-1.1 2.56-1.1.47 0 .89.06 1.25.2.37.13.69.35.96.64.27.3.48.65.63 1.07.15.42.22.94.22 1.55v.7h-5.3c0 .88.23 1.56.68 2.03.44.47 1.06.7 1.85.7a3.56 3.56 0 001.57-.34 5.84 5.84 0 00.98-.58h.08v1.4l-.56.23a6.86 6.86 0 01-1.29.36c-.2.04-.46.06-.77.06zm1.5-4.85c0-.34-.04-.64-.12-.9a1.86 1.86 0 00-.3-.63c-.16-.2-.35-.34-.59-.44a2.2 2.2 0 00-.87-.15 2.05 2.05 0 00-1.96 1.27c-.1.25-.17.53-.2.85h4.05zM224.45 267h-1.27v-5.7l-3.6 5.7h-1.16v-7.64h1.27v5.61l3.55-5.6h1.2V267zm-.58-11.18c0 .39-.05.75-.14 1.07a2.07 2.07 0 01-1.1 1.35c-.27.12-.6.18-1 .18-.38 0-.7-.06-.99-.18-.28-.13-.51-.31-.7-.54-.2-.23-.33-.5-.43-.82-.1-.32-.14-.68-.14-1.06h1.1c0 .61.1 1.06.3 1.33.18.27.47.4.85.4a1 1 0 00.84-.4c.2-.26.3-.7.3-1.33h1.11zM232.05 267h-1.29v-2.98c-.4.13-.79.23-1.16.3-.38.08-.76.12-1.13.12-.32 0-.64-.04-.95-.13a1.9 1.9 0 01-1.31-1.15c-.12-.3-.18-.65-.18-1.05v-2.75h1.29v2.08c0 .33.01.6.04.8.03.2.1.39.22.58a1 1 0 00.48.37c.21.08.5.13.84.13a6.77 6.77 0 001.87-.3v-3.66h1.28V267zM238.17 265.12V263l-1.16.12c-.46.04-.84.1-1.13.2-.34.1-.62.26-.84.48a1.2 1.2 0 00-.34.9c0 .44.12.77.37 1 .25.22.6.33 1.08.33.4 0 .77-.09 1.1-.26.33-.18.64-.4.92-.65zm0 1.07l-.42.32a3.85 3.85 0 01-1.17.6c-.2.07-.5.1-.89.1a2.28 2.28 0 01-2.13-1.45 2.63 2.63 0 01-.19-.97c0-.53.12-.98.34-1.35.22-.38.58-.67 1.06-.89.43-.2.93-.33 1.52-.4.58-.08 1.2-.14 1.88-.17v-.25c0-.3-.04-.54-.13-.73a1 1 0 00-.39-.43c-.16-.1-.36-.17-.6-.2a4.87 4.87 0 00-1.78.08c-.4.09-.8.22-1.2.38H234v-1.3c.23-.07.57-.14 1.02-.23a7.18 7.18 0 012.63 0c.36.08.69.23.97.45.28.2.49.48.63.81.13.33.2.74.2 1.22V267h-1.28v-.81zM244.3 267.17c-.53 0-1-.08-1.44-.24a3 3 0 01-1.13-.74 3.34 3.34 0 01-.73-1.23 5.4 5.4 0 01-.26-1.77c0-.67.09-1.25.26-1.73.19-.5.43-.9.73-1.23.3-.34.67-.6 1.12-.77a4.13 4.13 0 012.66-.1c.4.12.74.26 1.04.41v1.45h-.07a4.21 4.21 0 00-1.5-.82c-.25-.06-.48-.1-.7-.1-.67 0-1.2.25-1.6.76-.4.5-.61 1.21-.61 2.13 0 .9.2 1.6.58 2.12.4.5.94.75 1.63.75.42 0 .82-.09 1.2-.26.37-.18.7-.4 1-.67h.08v1.44l-.48.22a6.32 6.32 0 01-1.1.33c-.18.03-.4.05-.68.05zM250.22 265.05l-1.91 4.48h-1l1.2-4.48h1.7zM259.38 267.17c-.52 0-1-.08-1.44-.24a3 3 0 01-1.13-.74 3.34 3.34 0 01-.73-1.23 5.4 5.4 0 01-.26-1.77c0-.67.09-1.25.26-1.73.19-.5.43-.9.73-1.23.3-.34.67-.6 1.12-.77a4.13 4.13 0 012.66-.1c.4.12.74.26 1.05.41v1.45h-.08a4.42 4.42 0 00-1.5-.82c-.25-.06-.48-.1-.7-.1-.67 0-1.2.25-1.6.76-.4.5-.61 1.21-.61 2.13 0 .9.2 1.6.58 2.12.4.5.94.75 1.63.75.42 0 .82-.09 1.2-.26.37-.18.7-.4 1-.67h.07v1.44l-.47.22a6.32 6.32 0 01-1.1.33c-.18.03-.4.05-.68.05zM269.9 267h-1.28v-6l-1.83 3.9h-.96l-1.82-3.9v6h-1.2v-7.64h1.55l2.01 4.24 1.94-4.24h1.58V267zM278.03 263.19c0 1.28-.3 2.27-.93 2.98a3.15 3.15 0 01-2.47 1.04c-1.06 0-1.9-.36-2.5-1.08-.62-.72-.92-1.7-.92-2.94 0-1.28.31-2.27.94-2.98a3.16 3.16 0 012.48-1.06c1.03 0 1.86.36 2.47 1.06.62.7.93 1.7.93 2.98zm-1.32 0c0-1-.18-1.73-.54-2.2a1.8 1.8 0 00-1.54-.73c-.67 0-1.19.24-1.55.72-.36.48-.54 1.22-.54 2.2 0 .96.18 1.69.54 2.19.36.49.88.73 1.55.73a1.8 1.8 0 001.53-.72c.37-.49.55-1.22.55-2.2zM288.62 267h-1.55l-2.4-3.51h-.5V267h-1.27v-3.51h-.5l-2.44 3.51h-1.48l2.88-4a1.85 1.85 0 01-.6-.51 3.33 3.33 0 01-.46-.99 1.82 1.82 0 00-.44-.8c-.17-.15-.44-.23-.83-.23h-.3v-1.1h.36c.56 0 1.02.1 1.38.34.36.22.65.62.85 1.2a11.05 11.05 0 00.32.78c.15.35.32.6.52.76.2.15.45.24.74.26v-3.35h1.27v3.35c.3-.03.54-.11.75-.27.2-.15.38-.4.53-.75a11.17 11.17 0 00.32-.79c.2-.56.47-.95.83-1.19.35-.23.82-.35 1.39-.35h.35v1.11h-.3c-.36 0-.63.08-.81.23-.18.14-.33.41-.45.8-.13.4-.28.71-.45.94-.18.23-.37.4-.58.52l2.87 4.04zM292.9 267.18a3.8 3.8 0 01-2.84-1.03c-.67-.69-1-1.66-1-2.92 0-1.25.32-2.24.97-2.97.65-.74 1.5-1.1 2.56-1.1.47 0 .9.06 1.26.2.36.13.68.35.95.64.28.3.49.65.63 1.07.15.42.22.94.22 1.55v.7h-5.3c0 .88.23 1.56.68 2.03.45.47 1.06.7 1.85.7a3.56 3.56 0 001.57-.34 5.63 5.63 0 00.98-.58h.08v1.4l-.56.23a6.97 6.97 0 01-1.29.36c-.2.04-.46.06-.76.06zm1.5-4.85c-.01-.34-.05-.64-.12-.9a1.84 1.84 0 00-.32-.63c-.15-.2-.34-.34-.58-.44a2.2 2.2 0 00-.87-.15 2.05 2.05 0 00-1.96 1.27c-.1.25-.16.53-.2.85h4.05zM304.03 267h-1.27v-6l-1.83 3.9h-.96l-1.82-3.9v6h-1.2v-7.64h1.55l2.01 4.24 1.94-4.24h1.58V267zM97.87 284.89a2 2 0 01-1 1.79c-.28.17-.6.3-.95.38a6.43 6.43 0 01-3.82-.5v-1.42h.08c.3.29.7.52 1.16.68a4.23 4.23 0 002.04.19c.24-.05.43-.12.6-.2.2-.13.35-.27.44-.42.09-.14.13-.34.13-.6 0-.27-.05-.49-.15-.65a.92.92 0 00-.42-.38 1.79 1.79 0 00-.6-.15 6.97 6.97 0 00-.7-.04h-.9v-1.1h.69c.17 0 .39 0 .65-.02.26-.01.47-.05.62-.1.2-.08.35-.18.47-.31.12-.14.18-.37.18-.69a.9.9 0 00-.15-.54c-.1-.13-.23-.24-.38-.32a1.56 1.56 0 00-.5-.16 4.24 4.24 0 00-1.78.14c-.4.11-.74.3-1.03.53h-.08v-1.39c.33-.11.7-.21 1.09-.3a5.66 5.66 0 012.19-.03c.33.07.65.18.95.34.29.15.52.37.72.64.19.27.28.6.28 1s-.12.77-.35 1.09c-.24.3-.55.51-.93.61v.05c.42.14.77.37 1.04.67.27.3.4.7.4 1.2zM103.48 285.12V283l-1.16.12c-.46.04-.84.1-1.13.2-.34.1-.62.26-.84.48-.23.21-.34.52-.34.9 0 .44.13.77.37 1 .25.22.6.33 1.08.33.4 0 .77-.09 1.1-.26.33-.18.64-.4.92-.65zm0 1.07l-.42.32a3.85 3.85 0 01-1.17.6c-.2.07-.5.1-.89.1a2.29 2.29 0 01-2.13-1.45 2.63 2.63 0 01-.18-.97c0-.53.1-.98.33-1.35.22-.38.58-.67 1.06-.89.43-.2.94-.33 1.52-.4.58-.08 1.21-.14 1.89-.17v-.25c0-.3-.05-.54-.14-.73-.1-.18-.22-.33-.38-.43-.17-.1-.37-.17-.6-.2a4.86 4.86 0 00-1.78.08c-.4.09-.8.22-1.2.38h-.08v-1.3c.24-.07.58-.14 1.02-.23a7.19 7.19 0 012.64 0c.36.08.68.23.97.45.28.2.48.48.62.81.13.33.2.74.2 1.22V287h-1.28v-.81zM112.6 287h-1.28v-6.53h-3.46V287h-1.28v-7.64h6.02V287zM118.73 285.12V283l-1.16.12a6.2 6.2 0 00-1.13.2c-.34.1-.63.26-.85.48-.22.21-.33.52-.33.9 0 .44.12.77.37 1 .24.22.6.33 1.08.33.4 0 .77-.09 1.1-.26.33-.18.63-.4.92-.65zm0 1.07l-.42.32a3.85 3.85 0 01-1.17.6c-.21.07-.5.1-.9.1a2.28 2.28 0 01-2.13-1.45 2.63 2.63 0 01-.18-.97c0-.53.11-.98.34-1.35.22-.38.57-.67 1.06-.89.42-.2.93-.33 1.51-.4.59-.08 1.22-.14 1.89-.17v-.25c0-.3-.05-.54-.14-.73a1 1 0 00-.38-.43c-.16-.1-.36-.17-.6-.2a4.85 4.85 0 00-1.78.08c-.4.09-.8.22-1.2.38h-.08v-1.3c.24-.07.58-.14 1.02-.23a7.19 7.19 0 012.64 0c.36.08.68.23.97.45.28.2.49.48.62.81.14.33.2.74.2 1.22V287h-1.27v-.81zM124.85 287.17c-.52 0-1-.08-1.44-.24a3 3 0 01-1.86-1.97 5.4 5.4 0 01-.26-1.77c0-.67.1-1.25.27-1.73.18-.5.42-.9.72-1.23.3-.34.68-.6 1.13-.77a4.12 4.12 0 012.66-.1c.39.12.74.26 1.04.41v1.45h-.08a4.21 4.21 0 00-1.5-.82c-.24-.06-.47-.1-.7-.1-.66 0-1.2.25-1.6.76-.4.5-.6 1.21-.6 2.13 0 .9.19 1.6.58 2.12.39.5.93.75 1.62.75.42 0 .82-.09 1.2-.26.38-.18.71-.4 1-.67h.08v1.44l-.48.22a6.17 6.17 0 01-1.1.33c-.18.03-.4.05-.68.05zM133.86 280.5h-2.6v6.5h-1.28v-6.5h-2.6v-1.14h6.48v1.13zM140.85 287h-1.27v-5.7l-3.6 5.7h-1.16v-7.64h1.27v5.61l3.56-5.6h1.2V287zM145.75 287.17c-.53 0-1.01-.08-1.45-.24a3 3 0 01-1.13-.74 3.35 3.35 0 01-.73-1.23 5.41 5.41 0 01-.26-1.77c0-.67.1-1.25.27-1.73.18-.5.42-.9.73-1.23.3-.34.67-.6 1.12-.77a4.13 4.13 0 012.66-.1c.39.12.74.26 1.04.41v1.45h-.07a4.25 4.25 0 00-1.5-.82c-.25-.06-.48-.1-.7-.1-.67 0-1.2.25-1.61.76-.4.5-.6 1.21-.6 2.13 0 .9.19 1.6.58 2.12.39.5.93.75 1.63.75.41 0 .81-.09 1.2-.26.37-.18.7-.4 1-.67h.07v1.44l-.48.22a6.32 6.32 0 01-1.1.33c-.18.03-.4.05-.67.05zM154.96 284.63c0 .37-.08.7-.23 1.01-.14.3-.34.54-.6.73-.3.23-.62.4-.96.49a5 5 0 01-1.32.14h-2.67v-7.64h1.28v2.98h1.42c.58 0 1.02.03 1.34.09.32.06.63.2.95.43.26.2.46.45.6.76.12.3.19.64.19 1.01zm-1.33.02c0-.23-.04-.43-.12-.6a.94.94 0 00-.39-.43c-.19-.12-.4-.19-.66-.2-.24-.03-.59-.04-1.04-.04h-.96v2.6h.93c.46 0 .81-.02 1.06-.06.25-.04.47-.12.65-.23.19-.11.32-.25.4-.41.09-.17.13-.37.13-.63zM166.14 280.5h-2.6v6.5h-1.28v-6.5h-2.6v-1.14h6.48v1.13zM173.1 279.36l-4.1 10.46h-1.38l1.37-3.19-2.78-7.27h1.39l2.09 5.66 2.07-5.66h1.34zM180.1 287h-1.28v-3.44h-3.46V287h-1.29v-7.64h1.29v3.1h3.46v-3.1h1.28V287zM188.7 288.83h-1.2V287h-5.54v-7.64h1.29v6.53h3.4v-6.53h1.3v6.53h.75v2.94zM196.26 283.19c0 1.28-.31 2.27-.93 2.98a3.15 3.15 0 01-2.48 1.04c-1.06 0-1.9-.36-2.5-1.08-.61-.72-.92-1.7-.92-2.94 0-1.28.32-2.27.94-2.98a3.16 3.16 0 012.48-1.06c1.03 0 1.86.36 2.48 1.06.62.7.93 1.7.93 2.98zm-1.33 0c0-1-.18-1.73-.54-2.2a1.8 1.8 0 00-1.54-.73c-.67 0-1.19.24-1.55.72-.36.48-.54 1.22-.54 2.2 0 .96.18 1.69.54 2.19.36.49.88.73 1.55.73a1.8 1.8 0 001.53-.72c.37-.49.55-1.22.55-2.2zM204.66 287h-1.27v-6l-1.84 3.9h-.95l-1.82-3.9v6h-1.2v-7.64h1.55l2 4.24 1.95-4.24h1.58V287zM216.92 287h-1.28v-3.44h-3.46V287h-1.29v-7.64h1.29v3.1h3.46v-3.1h1.28V287zM223.05 285.12V283l-1.17.12c-.46.04-.84.1-1.12.2-.35.1-.63.26-.85.48a1.2 1.2 0 00-.34.9c0 .44.13.77.37 1 .25.22.6.33 1.08.33.4 0 .77-.09 1.1-.26.33-.18.64-.4.93-.65zm0 1.07l-.43.32a3.85 3.85 0 01-1.17.6c-.2.07-.5.1-.89.1a2.28 2.28 0 01-2.13-1.45 2.63 2.63 0 01-.18-.97c0-.53.1-.98.33-1.35.22-.38.58-.67 1.06-.89.43-.2.94-.33 1.52-.4a24.4 24.4 0 011.89-.17v-.25c0-.3-.05-.54-.14-.73a1 1 0 00-.38-.43c-.17-.1-.37-.17-.6-.2a4.87 4.87 0 00-1.78.08c-.4.09-.8.22-1.2.38h-.08v-1.3c.24-.07.58-.14 1.02-.23a7.18 7.18 0 012.64 0c.36.08.68.23.97.45.28.2.48.48.62.81.14.33.2.74.2 1.22V287h-1.27v-.81zM236.54 287h-1.28v-6.53h-3.46V287h-1.29v-7.64h6.03V287zM243.93 287h-1.28v-3.03h-1.28l-2.26 3.03h-1.5l2.46-3.14a2.7 2.7 0 01-1.4-.84c-.29-.37-.43-.86-.43-1.48 0-.38.08-.71.24-1 .17-.28.4-.52.68-.72.23-.15.51-.27.86-.34.35-.08.73-.12 1.16-.12h2.75V287zm-1.28-4.04v-2.57h-1.4c-.3 0-.53.02-.7.05-.17.03-.34.1-.5.18a.99.99 0 00-.37.41c-.08.17-.13.35-.13.55 0 .25.03.46.09.61.06.16.16.3.31.44.16.13.35.22.58.27.23.04.49.06.76.06h1.36zM251.37 280.5h-2.6v6.5h-1.28v-6.5h-2.6v-1.14h6.48v1.13zM258.11 284.63c0 .37-.07.7-.22 1.01-.15.3-.35.54-.6.73-.3.23-.63.4-.97.49a5 5 0 01-1.32.14h-2.67v-7.64h1.29v2.98h1.42c.57 0 1.02.03 1.33.09.32.06.64.2.95.43.27.2.46.45.6.76.13.3.2.64.2 1.01zm-1.32.02c0-.23-.04-.43-.13-.6a.93.93 0 00-.39-.43c-.19-.12-.4-.19-.65-.2a11.9 11.9 0 00-1.05-.04h-.95v2.6h.93c.45 0 .8-.02 1.05-.06.26-.04.47-.12.66-.23.18-.11.32-.25.4-.41.08-.17.13-.37.13-.63zM269.63 287h-1.28v-6.56h-2.63l-.04 1.1-.04.94c-.03.72-.07 1.32-.14 1.8a6.2 6.2 0 01-.25 1.16 2.6 2.6 0 01-.74 1.16c-.15.14-.32.24-.5.31-.17.07-.38.1-.6.1a8.69 8.69 0 01-.52-.01v-1.12h.17a1.1 1.1 0 00.44-.03c.1-.04.2-.1.28-.18.23-.23.4-.62.5-1.17.1-.56.18-1.34.23-2.35l.04-1.32.05-1.47h5.03V287zM274.81 287.18a3.8 3.8 0 01-2.83-1.03c-.67-.69-1-1.66-1-2.92 0-1.25.32-2.24.97-2.97.65-.74 1.5-1.1 2.56-1.1.47 0 .89.06 1.25.2.37.13.69.35.96.64.27.3.48.65.63 1.07.15.42.22.94.22 1.55v.7h-5.3c0 .88.23 1.56.68 2.03.44.47 1.06.7 1.85.7a3.56 3.56 0 001.57-.34 5.63 5.63 0 00.98-.58h.08v1.4l-.56.23a6.97 6.97 0 01-1.29.36c-.2.04-.46.06-.77.06zm1.5-4.85c0-.34-.04-.64-.12-.9a1.84 1.84 0 00-.3-.63c-.16-.2-.35-.34-.59-.44a2.2 2.2 0 00-.87-.15 2.05 2.05 0 00-1.96 1.27c-.1.25-.16.53-.2.85h4.05zM284.45 280.5h-2.6v6.5h-1.29v-6.5h-2.6v-1.14h6.49v1.13zM287.56 276.82l-.19 7.38h-1.13l-.2-7.38h1.52zM287.5 287h-1.4v-1.44h1.4V287zM113.59 236.28c0 .57-.11 1.1-.33 1.57-.22.48-.51.86-.89 1.17-.44.35-.93.61-1.45.76-.51.15-1.14.22-1.89.22h-4.78v-11.63h8.45v2.22h-5.54v2.14h1.92c.7 0 1.32.06 1.87.16s1.05.32 1.49.67c.4.3.69.7.87 1.17.19.47.28.99.28 1.55zm-3.02.09c0-.2-.02-.38-.06-.55a1.04 1.04 0 00-.28-.48 1.46 1.46 0 00-.57-.33 3.25 3.25 0 00-1.02-.13h-1.48v2.96h1.48c.6 0 1.07-.12 1.42-.38.34-.25.51-.62.51-1.1zM123.41 240h-2.68v-5.33l-3.36 5.33h-2.3v-8.77h2.7v4.76l3.07-4.76h2.57V240zM132.72 233.13H130V240h-2.73v-6.87h-2.72v-1.9h8.17v1.9zM142.5 240h-3.14l-2.08-3.48h-.7V240h-2.74v-8.77h2.74v3.52c.38 0 .67-.06.86-.16.19-.11.4-.4.62-.86a28.27 28.27 0 00.46-1.01 2.5 2.5 0 011.02-1.19c.4-.21.9-.32 1.48-.32a21.1 21.1 0 01.96.02v2.34h-.53a1 1 0 00-.45.1 1.23 1.23 0 00-.57.56l-.14.3c-.12.28-.2.48-.27.6-.05.12-.16.24-.3.35l2.79 4.52zM151.92 235.62c0 1.44-.4 2.58-1.19 3.41-.78.83-1.9 1.24-3.34 1.24a4.42 4.42 0 01-3.34-1.24 4.75 4.75 0 01-1.2-3.41c0-1.46.4-2.6 1.2-3.43a4.42 4.42 0 013.34-1.24 4.4 4.4 0 013.34 1.25c.8.83 1.2 1.97 1.2 3.42zm-2.8.01c0-.52-.05-.95-.14-1.3-.08-.34-.2-.62-.35-.83a1.3 1.3 0 00-.54-.45c-.2-.1-.44-.14-.7-.14-.24 0-.47.04-.66.12-.2.07-.38.22-.55.43-.16.2-.28.48-.38.84-.09.35-.14.8-.14 1.33 0 .54.05.97.14 1.3.08.34.2.6.34.8.15.2.33.35.55.44a1.81 1.81 0 001.39 0c.23-.1.41-.23.54-.42.17-.22.29-.5.37-.8.09-.32.13-.76.13-1.32zM161.71 240h-2.69v-5.33l-3.36 5.33h-2.28v-8.77h2.68v4.76l3.08-4.76h2.57V240zM172.1 240h-2.72v-3.76h-2.83V240h-2.74v-8.77h2.74v3.04h2.82v-3.04h2.74V240zM187.14 240h-2.73v-6.84h-2.78V240h-2.74v-8.77h8.25V240zM197.66 235.62c0 1.44-.4 2.58-1.2 3.41-.78.83-1.9 1.24-3.34 1.24a4.42 4.42 0 01-3.34-1.24 4.76 4.76 0 01-1.19-3.41c0-1.46.4-2.6 1.2-3.43a4.42 4.42 0 013.34-1.24 4.4 4.4 0 013.34 1.25c.79.83 1.19 1.97 1.19 3.42zm-2.8.01c0-.52-.05-.95-.14-1.3-.09-.34-.2-.62-.35-.83a1.3 1.3 0 00-.55-.45c-.2-.1-.44-.14-.7-.14-.24 0-.46.04-.66.12-.2.07-.38.22-.55.43-.15.2-.28.48-.37.84-.1.35-.14.8-.14 1.33 0 .54.04.97.13 1.3.09.34.2.6.34.8.15.2.33.35.55.44a1.82 1.82 0 001.4 0c.22-.1.4-.23.54-.42.16-.22.28-.5.37-.8.08-.32.12-.76.12-1.32zM208.07 242.17h-2.43v-2.2h-5.08v2.2h-2.43v-4.14h.64c.4-.82.7-1.83.94-3.01.24-1.2.36-2.46.36-3.8h7.13v6.81h.87v4.14zm-3.59-4.14v-4.87h-1.92c-.1.97-.25 1.87-.46 2.7-.2.83-.46 1.56-.76 2.17h3.14zM217.9 235.62c0 1.44-.4 2.58-1.2 3.41-.78.83-1.9 1.24-3.34 1.24a4.42 4.42 0 01-3.34-1.24 4.75 4.75 0 01-1.2-3.41c0-1.46.4-2.6 1.2-3.43a4.42 4.42 0 013.34-1.24 4.4 4.4 0 013.34 1.25c.8.83 1.2 1.97 1.2 3.42zm-2.81.01c0-.52-.05-.95-.14-1.3-.08-.34-.2-.62-.35-.83a1.3 1.3 0 00-.54-.45c-.2-.1-.44-.14-.7-.14-.25 0-.47.04-.67.12-.2.07-.38.22-.54.43-.16.2-.28.48-.38.84-.09.35-.14.8-.14 1.33 0 .54.05.97.14 1.3.08.34.2.6.34.8.14.2.33.35.55.44a1.82 1.82 0 001.39 0c.23-.1.4-.23.54-.42.16-.22.29-.5.37-.8.08-.32.13-.76.13-1.32zM227.94 235.5c0 1.4-.35 2.52-1.06 3.38a3.28 3.28 0 01-2.63 1.3 3.9 3.9 0 01-2.17-.62v3.66h-2.74v-12h2.74v.92c.4-.34.8-.62 1.22-.83.42-.22.9-.33 1.45-.33 1.02 0 1.8.4 2.36 1.22.56.8.83 1.9.83 3.3zm-2.8.05c0-.86-.12-1.48-.39-1.86-.26-.39-.67-.58-1.23-.58-.24 0-.49.04-.73.12-.24.08-.48.2-.71.35v4.41c.14.06.3.1.47.13.18.03.39.04.63.04.67 0 1.16-.21 1.48-.64.33-.44.49-1.1.49-1.97zM237.84 235.62c0 1.44-.4 2.58-1.18 3.41-.79.83-1.9 1.24-3.35 1.24a4.42 4.42 0 01-3.34-1.24 4.75 4.75 0 01-1.19-3.41c0-1.46.4-2.6 1.19-3.43a4.42 4.42 0 013.34-1.24 4.4 4.4 0 013.35 1.25c.79.83 1.18 1.97 1.18 3.42zm-2.8.01c0-.52-.04-.95-.13-1.3-.09-.34-.2-.62-.35-.83a1.3 1.3 0 00-.55-.45c-.2-.1-.44-.14-.7-.14-.24 0-.46.04-.66.12-.2.07-.38.22-.55.43-.16.2-.28.48-.37.84-.1.35-.14.8-.14 1.33 0 .54.04.97.13 1.3.09.34.2.6.34.8.15.2.33.35.55.44a1.82 1.82 0 001.39 0c.23-.1.41-.23.55-.42.16-.22.28-.5.36-.8.09-.32.13-.76.13-1.32zM252.38 240h-3.08l-1.94-3.44h-.67V240h-2.71v-3.44h-.67l-1.97 3.44h-3.01l2.58-4.43c-.11-.08-.21-.2-.3-.34a5.42 5.42 0 01-.27-.61 2.06 2.06 0 00-.44-.78.87.87 0 00-.63-.24h-.59v-2.37a22.33 22.33 0 001.1-.02c.58 0 1.07.11 1.47.33.4.21.72.6.96 1.16l.2.48.22.54c.2.44.38.72.53.87.15.14.43.2.82.2v-3.56h2.72v3.57c.39 0 .66-.08.8-.2.16-.14.34-.43.54-.88l.2-.5.22-.53c.25-.55.57-.93.97-1.15.4-.22.89-.33 1.47-.33a28.57 28.57 0 011.1.02v2.34h-.6a.94.94 0 00-.6.21c-.17.14-.32.38-.46.71-.08.23-.17.43-.25.6-.09.18-.2.32-.33.43l2.62 4.48zM258.3 237.71v-1.83l-1.12.13c-.29.03-.57.1-.84.2a1.2 1.2 0 00-.57.38c-.13.16-.2.39-.2.67 0 .4.12.7.34.85.22.15.55.23.98.23.24 0 .49-.06.74-.17.25-.1.47-.26.68-.46zm0 1.36l-.5.42a3.98 3.98 0 01-1.31.65c-.24.06-.56.1-.97.1-.78 0-1.43-.27-1.94-.79a2.7 2.7 0 01-.77-1.97c0-.65.13-1.17.4-1.57.25-.4.63-.72 1.12-.96.5-.24 1.08-.4 1.77-.5.69-.1 1.43-.16 2.22-.22v-.04c0-.49-.18-.82-.54-1a4.32 4.32 0 00-2.73-.1 8.6 8.6 0 00-1.27.44h-.23v-2.12a13.65 13.65 0 013.14-.43c1.5 0 2.6.25 3.3.75.69.5 1.03 1.27 1.03 2.3V240h-2.71v-.93zM271.41 240h-2.73v-6.84h-2.15a118.34 118.34 0 01-.06 1.68c-.04.83-.1 1.52-.21 2.05-.1.53-.24.96-.4 1.3a3.38 3.38 0 01-1.02 1.33 2.2 2.2 0 01-.77.39c-.33.1-.64.15-.91.15-.24 0-.47-.02-.7-.04l-.42-.02v-2.22h.18l.15.02c.12 0 .25-.02.39-.04.13-.03.25-.1.33-.18.36-.37.6-.85.7-1.46.1-.61.17-1.3.2-2.05a144.85 144.85 0 00.11-2.84h7.31V240zM276.77 228.37l-.32 8.28h-2.47l-.32-8.28h3.1zm-.02 11.63h-3.08v-2.06h3.08V240z" fill="#333"/><g filter="url(#filter0_d)"><path d="M50 91a4 4 0 014-4h272a4 4 0 014 4v112a4 4 0 01-4 4H54a4 4 0 01-4-4V91z" fill="#fff"/></g><path fill-rule="evenodd" clip-rule="evenodd" d="M61 97a1 1 0 011 1v97h257a1 1 0 010 2H61a1 1 0 01-1-1V98a1 1 0 011-1z" fill="#F0F1FD"/><path fill-rule="evenodd" clip-rule="evenodd" d="M97 170a1 1 0 011 1v2.08a1 1 0 11-2 0V171a1 1 0 011-1zm0 10.42a1 1 0 011 1v4.16a1 1 0 11-2 0v-4.16a1 1 0 011-1zm0 12.5a1 1 0 011 1V196a1 1 0 01-2 0v-2.08a1 1 0 011-1zM132 181a1 1 0 011 1v2.33a1 1 0 11-2 0V182a1 1 0 011-1zm0 11.67a1 1 0 011 1V196a1 1 0 01-2 0v-2.33a1 1 0 011-1zM167 149a1 1 0 011 1v1.92a1 1 0 01-2 0V150a1 1 0 011-1zm0 9.58a1 1 0 011 1v3.84a1 1 0 01-2 0v-3.84a1 1 0 011-1zm0 11.5a1 1 0 011 1v3.84a1 1 0 01-2 0v-3.84a1 1 0 011-1zm0 11.5a1 1 0 011 1v3.84a1 1 0 01-2 0v-3.84a1 1 0 011-1zm0 11.5a1 1 0 011 1V196a1 1 0 01-2 0v-1.92a1 1 0 011-1zM202 155a1 1 0 011 1v2.22a1 1 0 11-2 0V156a1 1 0 011-1zm0 11.11a1 1 0 011 1v4.45a1 1 0 01-2 0v-4.45a1 1 0 011-1zm0 13.33a1 1 0 011 1v4.45a1 1 0 01-2 0v-4.45a1 1 0 011-1zm0 13.34a1 1 0 011 1V196a1 1 0 01-2 0v-2.22a1 1 0 011-1zM237 128a1 1 0 011 1v1.86a1 1 0 01-2 0V129a1 1 0 011-1zm0 9.3a1 1 0 011 1v3.73a1 1 0 01-2 0v-3.72a1 1 0 011-1zm0 11.17a1 1 0 011 1v3.72a1 1 0 11-2 0v-3.72a1 1 0 011-1zm0 11.17a1 1 0 011 1v3.72a1 1 0 01-2 0v-3.72a1 1 0 011-1zm0 11.17a1 1 0 011 1v3.72a1 1 0 01-2 0v-3.72a1 1 0 011-1zm0 11.16a1 1 0 011 1v3.72a1 1 0 11-2 0v-3.72a1 1 0 011-1zm0 11.17a1 1 0 011 1V196a1 1 0 01-2 0v-1.86a1 1 0 011-1zM272 145a1 1 0 011 1v2.08a1 1 0 11-2 0V146a1 1 0 011-1zm0 10.42a1 1 0 011 1v4.16a1 1 0 11-2 0v-4.16a1 1 0 011-1zm0 12.5a1 1 0 011 1v4.16a1 1 0 11-2 0v-4.16a1 1 0 011-1zm0 12.5a1 1 0 011 1v4.16a1 1 0 11-2 0v-4.16a1 1 0 011-1zm0 12.5a1 1 0 011 1V196a1 1 0 01-2 0v-2.08a1 1 0 011-1zM307 104a1 1 0 011 1v1.9a1 1 0 01-2 0V105a1 1 0 011-1zm0 9.48a1 1 0 011 1v3.8a1 1 0 01-2 0v-3.8a1 1 0 011-1zm0 11.37a1 1 0 011 1v3.8a1 1 0 01-2 0v-3.8a1 1 0 011-1zm0 11.38a1 1 0 011 1v3.8a1 1 0 01-2 0v-3.8a1 1 0 011-1zm0 11.37a1 1 0 011 1v3.8a1 1 0 01-2 0v-3.8a1 1 0 011-1zm0 11.38a1 1 0 011 1v3.8a1 1 0 01-2 0v-3.8a1 1 0 011-1zm0 11.37a1 1 0 011 1v3.8a1 1 0 01-2 0v-3.8a1 1 0 011-1zm0 11.38a1 1 0 011 1v3.8a1 1 0 01-2 0v-3.8a1 1 0 011-1zm0 11.37a1 1 0 011 1v1.9a1 1 0 01-2 0v-1.9a1 1 0 011-1z" fill="#F0F1FD"/><path fill-rule="evenodd" clip-rule="evenodd" d="M307.65 104.24a1 1 0 01.11 1.4l-35 41a1 1 0 01-1.2.26l-34.44-16.73-34.5 26.62a1 1 0 01-.79.2l-34.52-5.92-34.63 31.67a1 1 0 01-.98.21L97.17 172.1l-35.6 24.72a1 1 0 11-1.14-1.64l36-25a1 1 0 01.87-.13l34.45 10.82 34.57-31.6a1 1 0 01.85-.26l34.57 5.93 34.65-26.73a1 1 0 011.05-.1l34.3 16.65 34.5-40.4a1 1 0 011.4-.12z" fill="#86C400"/><path fill-rule="evenodd" clip-rule="evenodd" d="M307 111a6 6 0 100-12 6 6 0 000 12zm0 2a8 8 0 100-16 8 8 0 000 16z" fill="#86C400"/><path d="M311 105a4 4 0 11-8 0 4 4 0 018 0z" fill="#86C400"/><path d="M99.22 53h-1.16v-4.27h-4.02V53h-1.16v-8.72h1.16v3.42h4.02v-3.42h1.16V53zM103.75 53.15c-1.05 0-1.86-.3-2.43-.88-.58-.59-.86-1.42-.86-2.5 0-1.07.27-1.92.83-2.55a2.78 2.78 0 012.2-.95c.4 0 .76.06 1.07.18.31.12.59.3.82.55.24.25.42.56.54.92.13.36.19.8.19 1.32v.6h-4.54c0 .76.2 1.35.58 1.75.38.4.91.6 1.59.6a3.05 3.05 0 001.34-.3 4.97 4.97 0 00.84-.49h.07v1.2l-.48.2a5.82 5.82 0 01-1.1.3c-.18.04-.4.05-.66.05zm1.29-4.15c-.01-.3-.05-.55-.1-.77a1.6 1.6 0 00-.28-.54c-.13-.17-.3-.3-.5-.38-.2-.09-.44-.13-.74-.13s-.54.05-.75.14a1.75 1.75 0 00-.93.95c-.09.2-.14.45-.17.73h3.47zM112.6 49.73c0 1.1-.26 1.95-.79 2.56-.53.6-1.24.9-2.12.9-.91 0-1.63-.32-2.15-.93a3.82 3.82 0 01-.78-2.53c0-1.1.27-1.94.8-2.55.54-.6 1.25-.9 2.13-.9.88 0 1.59.3 2.12.9.53.6.8 1.45.8 2.55zm-1.13 0c0-.85-.15-1.48-.46-1.89-.31-.41-.75-.62-1.32-.62-.58 0-1.02.21-1.33.62-.3.41-.46 1.04-.46 1.89 0 .82.15 1.44.46 1.87.31.42.75.63 1.33.63.57 0 1-.2 1.31-.62.31-.42.47-1.04.47-1.88zM118.9 53h-1.1v-5.6h-2.96V53h-1.1v-6.54h5.17V53zM125.89 49.73c0 1.1-.27 1.95-.8 2.56-.53.6-1.24.9-2.12.9-.91 0-1.63-.32-2.15-.93a3.82 3.82 0 01-.78-2.53c0-1.1.27-1.94.8-2.55.54-.6 1.25-.9 2.13-.9.88 0 1.59.3 2.12.9.53.6.8 1.45.8 2.55zm-1.14 0c0-.85-.16-1.48-.47-1.89-.3-.41-.74-.62-1.31-.62-.58 0-1.02.21-1.33.62-.31.41-.47 1.04-.47 1.89 0 .82.16 1.44.47 1.87.3.42.75.63 1.33.63.56 0 1-.2 1.3-.62.32-.42.48-1.04.48-1.88zM131.35 51.19a1.71 1.71 0 01-.85 1.53c-.24.15-.51.26-.82.33a5.55 5.55 0 01-3.28-.42V51.4h.08c.26.24.6.44 1 .58a3.62 3.62 0 001.74.16c.2-.04.37-.1.5-.18.19-.1.31-.22.39-.35.08-.12.12-.3.12-.51 0-.24-.05-.42-.14-.57a.8.8 0 00-.36-.32 1.51 1.51 0 00-.51-.13 5.77 5.77 0 00-.6-.03h-.77v-.94h.59c.15 0 .33 0 .56-.02.22 0 .4-.04.53-.09a1 1 0 00.4-.26c.1-.12.16-.32.16-.59a.76.76 0 00-.46-.74 1.35 1.35 0 00-.43-.14 3.63 3.63 0 00-1.52.12c-.34.1-.64.25-.88.46h-.07v-1.2c.28-.1.59-.18.93-.25a4.88 4.88 0 011.88-.03c.28.06.56.16.81.3.25.12.45.3.62.54.16.23.24.52.24.85 0 .36-.1.67-.3.94-.2.27-.47.44-.8.53v.04c.36.12.66.31.89.57.23.26.35.6.35 1.04zM137.68 53h-1.1v-2.95h-2.97V53h-1.1v-6.54h1.1v2.64h2.97v-2.64h1.1V53zM142.93 51.39v-1.82l-1 .1c-.4.04-.72.1-.96.17-.3.1-.54.23-.73.42-.2.18-.29.44-.29.77 0 .38.1.66.32.85.21.2.52.29.92.29a2 2 0 00.95-.22c.28-.16.54-.34.79-.56zm0 .91l-.36.28a3.23 3.23 0 01-1 .52c-.19.05-.44.08-.77.08a1.96 1.96 0 01-1.83-1.24c-.1-.27-.15-.55-.15-.84 0-.45.1-.84.28-1.15.2-.32.5-.58.91-.76.37-.17.8-.29 1.3-.35.5-.07 1.04-.12 1.62-.15v-.2c0-.27-.04-.47-.12-.63a.86.86 0 00-.33-.37 1.25 1.25 0 00-.51-.17 4.12 4.12 0 00-1.53.07c-.34.07-.68.18-1.03.32h-.06V46.6a9.83 9.83 0 012-.3c.45 0 .83.03 1.13.1.31.07.59.2.84.38.24.18.41.42.53.7.12.29.18.63.18 1.04V53h-1.1v-.7zM150.75 53h-1.1v-2.95h-2.97V53h-1.1v-6.54h1.1v2.64h2.97v-2.64h1.1V53zM157.5 53h-1.1v-2.95h-2.96V53h-1.1v-6.54h1.1v2.64h2.97v-2.64h1.1V53zM163.96 50.97c0 .32-.06.6-.2.86-.12.26-.3.47-.51.63-.26.2-.53.33-.83.42-.29.08-.67.12-1.13.12h-2.19v-6.54h1.1V49h1.12c.5 0 .88.03 1.15.08.27.05.54.18.8.38.24.16.4.38.52.64.11.26.17.55.17.87zm-1.14.02c0-.2-.03-.37-.1-.52a.8.8 0 00-.34-.37c-.16-.1-.35-.16-.56-.18-.2-.02-.5-.03-.9-.03h-.72v2.23h.7c.4 0 .7-.01.9-.05.22-.03.4-.1.56-.19.16-.1.28-.22.35-.36.07-.14.11-.31.11-.53zm3 2.01h-1.1v-6.54h1.1V53zM172.59 53h-1.09v-4.88L168.42 53h-1v-6.54h1.1v4.8l3.04-4.8h1.03V53zm-.5-9.59c0 .34-.03.65-.12.92a1.79 1.79 0 01-.95 1.16c-.22.1-.5.16-.85.16-.32 0-.6-.06-.84-.16-.24-.11-.44-.27-.6-.46-.17-.2-.29-.43-.37-.7a3.15 3.15 0 01-.12-.92h.95c0 .53.08.91.24 1.15.17.23.41.34.74.34.3 0 .55-.11.72-.34.17-.23.26-.61.26-1.15h.95zM92.88 69v-8.72h5.46v1.03h-4.3v2.39h4v1.03h-4v3.24h4.3V69h-5.46zM104.7 69h-1.1v-2.95h-2.96V69h-1.1v-6.54h1.1v2.64h2.96v-2.64h1.1V69zM111.68 65.73c0 1.1-.26 1.95-.8 2.56-.53.6-1.23.9-2.12.9-.9 0-1.62-.32-2.15-.93a3.82 3.82 0 01-.78-2.53c0-1.1.27-1.94.8-2.55.55-.6 1.26-.9 2.13-.9.89 0 1.6.3 2.13.9.53.6.8 1.45.8 2.55zm-1.14 0c0-.85-.15-1.48-.46-1.89-.3-.41-.75-.62-1.32-.62-.57 0-1.01.21-1.33.62-.3.41-.46 1.04-.46 1.9 0 .81.16 1.43.46 1.86.32.42.76.63 1.33.63.57 0 1-.2 1.32-.62.3-.42.47-1.04.47-1.88zM117.6 63.42h-2.23V69h-1.1v-5.58h-2.23v-.96h5.55v.96z" fill="#5F6EEB"/><g clip-path="url(#clip1)"><path d="M50 40h32.17v32.17H50V40z" fill="#fff"/><path d="M61.43 62.74l8.11.69s2.97 3.43 2.86 4.17c-.11.74.69 4.29-.8 5.03-1.49.74-6.17-.8-6.91-.97-.75-.17-3.15.97-4.75-1.09-1.6-2.17-.4-.86-.4-1.94-.11-1.09 1.89-5.89 1.89-5.89z" fill="#555659"/><path d="M71.31 62.69c-.22.05-.34.11-.34.17 0 .17.23.05.97.4-1 .29-2.05.38-3.08.28.13-.25.22-.52.28-.8.07-.14.11-.3.12-.45.8-.12.45-.23 1.31-.35 0-.05.34-.05.34-.11-.11-.06.52-.17.4-.17a3.5 3.5 0 01-.34-.23 8.4 8.4 0 004-4.63c-1.83-.29-2.57-.91-2.86-2.23a3.87 3.87 0 00-3.54 1.03c-.06-.29-.06-.51-.11-.8-.86 1.37-1.09 1.6-1.66 1.71-.48-.97-.8-2.01-.97-3.08-.29 1.31-.29 2.11-.86 3.26-.51-.12-.97-.58-1.83-1.89-.06.26-.1.53-.11.8a3.47 3.47 0 00-3.37-.8c-.29 1.31-.29 1.83-2.12 2.17.75 2.06 1.77 3.49 3.66 4.52-.16.1-.33.17-.51.22-.12.06-.18.18-.29.23 0 .06-.46-.23-.46-.17.75.12 1.6.4 2.35.57.07.14.1.3.11.46.06.28.16.55.29.8-1.04.1-2.09 0-3.09-.29.97-.11.97-.22.97-.4 0-.05 0-.22-.28-.28-3.26-.34-4.69-2.97-5.38-4.12.69.29 1.03.52 1.15.35.11-.17.11-.23-.12-.4-.68-.69-1.03-2.92-1.14-3.89.46.17 1.26.57 2 .34.91-.28 1.66-1.08 2.17-2.4.06 0 .12.06.17.06l.17-.34a.49.49 0 000-.4c-.37-.97-.59-2-.62-3.03.05-.4.13-.8.22-1.2.63.3 1.18.76 1.6 1.31.24.28.48.55.75.8.4.4 1.14.58 1.25 0 .06-.17-.11-.34-.22-.51a.06.06 0 01-.06-.06c.63-.23 2.11-.74 3.37-.45h.17c.06 0 .12.05.17 0a7.4 7.4 0 013.66.17l.29.45c-.12.18-.4.35-.35.46.17.23.23.34.63-.11.23-.3.48-.59.74-.86a6.32 6.32 0 012.18-1.6c.05.34.17 1.43.17 1.71a7.16 7.16 0 01-.63 2.86c-.06.12-.29.29-.23.46.06.17 0 0 .06.11.05 0 .23.12.28.12l-.05.11c.51 1.32 1.2 1.89 2.11 2.17.75.16 1.54.06 2.23-.28-.12.91-.86 3.31-1.6 4.05-.17.18-.17.35-.12.4.06.06.63-.22 1.38-.51-.52 1.6-2.69 3.89-5.38 4.29z" fill="#C3C2CE"/><path d="M76.69 56.29c-.16.32-.42.59-.75.74V56c-1.03.11-2.8.23-3.03-2.17h-.05a3.3 3.3 0 00-1.49-.52c-.17 0-.34-.05-.46-.05l.4-.69s-2.34-.11-3.6 1.26c-.17.17 0-.86 0-.86-.6.18-1.16.47-1.65.86l-.23.86-.23-.86a4.93 4.93 0 00-1.66-.86s.17.97 0 .86c-1.31-1.37-3.6-1.26-3.6-1.26l.4.69a5.14 5.14 0 00-1.94.57h-.06c-.23 2.4-2 2.28-3.03 2.17v1.03a1.26 1.26 0 01-.74-.74l-.06.28.06.34c1.54 3.38 3.14 3.89 5.6 4.46l.74.06.98.51.11.69c.23.86.57 1.08 1.31 1.66l.29.22.86-.45.91-.12.92.12.68.34.34.11c.69-.43 1.2-1.1 1.43-1.88l.12-.69.97-.51.74-.06c2.46-.63 4.29-1.48 5.77-4.91l-.05-.17z" fill="#fff"/><path d="M65.31 60.86a1.53 1.53 0 011.32.05.57.57 0 01.17.98l-.06.05c-.68.92-1.14.69-1.77-.17a.5.5 0 01.17-.74c0-.12.06-.12.17-.17z" fill="#1E1E40"/><path d="M76.86 57.94c-.17.06-.35.17-.52.23.54-1.23.87-2.54.97-3.88l.06-.52-.4.29c-.62.37-1.35.49-2.06.34-.74-.23-1.42-.91-1.88-2.11v-.06a.21.21 0 01.06-.17c.27-.6.5-1.2.68-1.83a4.57 4.57 0 00-.11-3.26c-.35-.74-.35-.74-1.15-.57a6.05 6.05 0 00-2.91 1.83.49.49 0 01-.34.17 6.29 6.29 0 00-3.37-.34h-.12a6.29 6.29 0 00-3.37.34.49.49 0 01-.34-.17 6.5 6.5 0 00-2.92-1.83c-.8-.23-.8-.17-1.14.57a4.45 4.45 0 00-.23 3.32c.17.62.46 1.14.69 1.82a.21.21 0 00.05.18v.05c-.45 1.15-1.02 1.89-1.88 2.12a2.72 2.72 0 01-2.06-.35l-.4-.28.17.46c.1 1.34.44 2.65.97 3.88-.17-.06-.34-.17-.51-.23l-.63-.28.29.63c.05.17 1.65 3.48 4.74 4.51-.29.06-.57.06-.86.11l-.8.12.75.4c1.22.4 2.48.63 3.77.68.3 0 .61-.04.91-.11.12.18.28.33.46.46l.4.23H64l.51-.29.29.11a2.29 2.29 0 001.94 0l.29-.11.51.29h.17a.98.98 0 00.4-.23c.17-.14.32-.3.46-.46.3.07.6.1.92.11a14.6 14.6 0 003.77-.68l1.03-.34-1.09-.12c-.29-.06-.57-.06-.86-.11 3.09-1.03 4.69-4.4 4.75-4.52l.28-.63-.51.23zm-9.2 6.23c-.86-.51-1.37-.8-1.83-.8-.46 0-.92.23-1.83.8-1.31-.74-1.43-3.14-.8-4.28.1.21.18.44.23.68.16-.47.36-.92.57-1.37.4-.74.51-.91.51-.91.46-.69 2.12-.69 2.52 0 .21.27.39.58.51.91.24.44.43.9.57 1.37.06-.23.18-.46.23-.68.69 1.2.57 3.6-.68 4.28zm-5.32-5.54c-.74-.17-1.08-.74-1.48-1.09.91.12 2.34.46 2.63.75a1.06 1.06 0 01-1.15.34zm5.83-.34c.29-.29 1.72-.63 2.63-.75-.38.5-.9.88-1.49 1.09a1.1 1.1 0 01-1.14-.34zm3.14 4.4c-.22.05-.74.11-.68.11.06.11.34.11 1.37.46-1 .29-2.05.38-3.09.28.13-.25.23-.52.29-.8.07-.14.11-.3.11-.45.8-.12 1.6-.29 2.4-.4-.1-.07-.2-.14-.28-.23a3.5 3.5 0 01-.34-.23 8.4 8.4 0 004-4.63c-1.83-.29-2.58-.91-2.86-2.23a3.87 3.87 0 00-3.54 1.03c-.06-.29-.06-.51-.12-.8-.86 1.37-1.08 1.6-1.66 1.71-.5-1.2-.83-2.47-.97-3.77-.28 1.32-.4 2.57-.97 3.77-.51-.11-.74-.34-1.66-1.71-.06.26-.1.53-.11.8a3.77 3.77 0 00-3.54-1.03c-.29 1.32-1.03 1.94-2.86 2.23a8.57 8.57 0 004 4.63c-.1.1-.22.17-.34.23-.12.05-.17.05-.29.11.74.12 1.43.52 2.17.69.06.11.29.17.29.34.06.28.16.55.28.8-1.03.1-2.08 0-3.08-.29.97-.11.97-.22.97-.4 0-.05 0-.22-.29-.28-2.68-.34-4.4-2.69-5.08-3.89.68.29 1.03.52 1.14.4.12-.11-.23-.34-.4-.57-.57-.8-.97-2.86-1.08-3.83.63.27 1.33.33 2 .17.91-.28 1.65-1.08 2.17-2.4.05 0 .11.06.17.06l.17-.34a.49.49 0 000-.4c-.38-.97-.59-2-.63-3.03.02-.3.05-.61.12-.91.64.28 1.2.7 1.65 1.25.23.3.48.59.75.86a.79.79 0 001.31-.29c.06-.17-.11-.34-.23-.51a.06.06 0 01-.06-.06c.63-.23 2.12-.74 3.38-.45h.28a5.88 5.88 0 013.37.45h-.28c-.12.17-.29.4-.23.52a.78.78 0 001.31.28c.23-.3.48-.58.75-.85.44-.55 1-.99 1.65-1.26.07.3.1.6.12.91a8 8 0 01-.63 3.03.49.49 0 000 .4l.17.34c.06 0 .11-.05.17-.05.52 1.31 1.26 2.11 2.17 2.4.67.19 1.38.13 2-.17a12.57 12.57 0 01-1.08 3.71c-.17.29-.46.57-.4.63.05.06.4-.06 1.03-.34-.63 1.14-2.29 3.6-4.98 4z" fill="#1E1E40"/><path d="M65.89 61.43c.28 0 .51-.08.51-.17 0-.1-.23-.17-.51-.17-.29 0-.52.07-.52.17s.23.17.52.17z" fill="#fff"/><path d="M61.89 62.11l1.6 1.95a8.23 8.23 0 011.31 2.4c.51 1.65.86 1.14 1.14 3.54l-.05 2.8-3.55-.23s-.45-.23-2.97-5.83c-.17-.4-.8-4.23-.8-4.23l2.52-.34h.8v-.06z" fill="#4A4797"/><path d="M61.94 61.89c-.05.22-.05.4-.11.62l1.43 1.78.34.51c.4.55.71 1.17.91 1.83.18.57.46 1.14.69 1.83.11.28.51.97.63 1.37.11-.17.11-.69.23-.86-.06-.17-.35-.46-.4-.63-.26-.58-.5-1.17-.69-1.77a7.25 7.25 0 00-.97-2 4 4 0 01-.34-.51L61.94 62v-.11z" fill="#1E1E40"/><path d="M81.26 69.49c.05-2-.57-2.29-2.06-3.55-1.37-1.14-4.29-1.77-4.29-1.77 0-.34.23-2.06.29-2.34.4-1.43.23-1.54.23-1.54-1.37.03-2.73.2-4.06.51-1.23.2-2.47.34-3.71.4l.34 1.77h-1.43l.06 3.54-.8 4.35s-.23 3.14-.97 1.88c-.69-1.14-.69-.97-1.2-1.88-1.32-2.06-.8-1.09-2.86-4.29-.34-.51 1.49-1.26 1.37-1.83l-.34-1.14.17-1.43-4.69-.8.12.52c.07.33.16.65.28.97.18.45.4.91.63 1.43l.17.34s-4.34-.06-5.94 2.4a6.46 6.46 0 00-1.43 5.09l.57.57 17.26.28 12.12-.57c0 .06.11-1.49.17-2.91z" fill="#2E2C55"/><path d="M65.6 73.49l-14.8-.75c-.01-1.24.04-2.48.17-3.71.28-.77.7-1.47 1.26-2.06 1.94-2.17 4.8-2.57 5.83-2.63a10.8 10.8 0 01-.63-1.43c-.12-.34-.17-.62-.29-.97l-.17-.91 5.26.91L62 63.6l.29 1.14c.11.46-.35.8-.75 1.15-.17.17-.57.45-.57.57.23.45 1.26 1.88 2.12 3.14l.74 1.09c.37.55.71 1.12 1.03 1.71.28.51.63-.17.63-.17l-.06-1.43.8-4.34.06-3.77h1.42l-.34-1.78h.34a33 33 0 003.6-.4c1.33-.32 2.7-.49 4.06-.51h.06l.06.06c.17.11.28.4-.12 1.83-.06.28-.23 1.54-.28 2.05.68.17 2.97.69 4.17 1.77 1.54 1.38 2.28 2 2.11 4.06-.23 3.72-.06 3.09-.06 3.09l-15.71.63zm1.31-10.23l-.05 3.25-.69 5.89 6.92-.06 6.85-.05 1.03-.12v-2.51c.06-2-.57-2.29-2-3.49-1.31-1.08-4.11-1.71-4.11-1.71l-.17-.06v-.23c0-.4.22-2.11.28-2.46.1-.37.19-.75.23-1.14a20 20 0 00-3.77.52c-1.14.19-2.28.32-3.43.4l.34 1.77h-1.43zM51.43 72.5l8.8.23c-.06-.11 5.43 1.03 3.2-1.77l-.74-1.08c-.92-1.38-1.89-2.69-2.12-3.15-.23-.45.23-.85.69-1.25.23-.18.63-.52.57-.63l-.34-1.26.11-1.26-4.06-.68.06.17c.06.28.17.63.23.91.16.48.37.94.63 1.37l.4.75h-.46c-.4 0-3.31.11-5.26 1.94a6.12 6.12 0 00-1.6 2.34c-.1.3-.13.6-.11.92-.07.81-.07 1.64 0 2.45z" fill="#1E1E40"/><path d="M59.94 65.6a.21.21 0 01-.17-.06 2.1 2.1 0 00-1.6-.74.3.3 0 01-.28-.29.27.27 0 01.17-.26.27.27 0 01.11-.02c.74.02 1.43.33 1.94.86.12.11.12.28 0 .34-.11.06-.11.17-.17.17zm-3.71 7.26c-.17 0-.29-.12-.23-.29 0 0 .11-2.11.06-2.8 0-.11.05-.28.23-.28.17 0 .28.05.28.22.05.98.03 1.95-.06 2.92a.38.38 0 01-.28.23zm20.06 0a.62.62 0 01-.4-.17c-.4-.35-.52-1.32-.35-2.69 0-.11.17-.23.29-.23.11 0 .23.17.23.29-.17 1.65.05 2.11.17 2.23.11.11.06.05.11.05.06 0 .29.06.29.17 0 .12-.06.29-.23.29-.06.06-.06.06-.11.06zm-7.03-6a.21.21 0 01-.17-.06c-.12-.11-.12-.29 0-.34 2.91-2.63 5.77-2.52 5.88-2.52a.26.26 0 01.13.46.26.26 0 01-.19.06 8.52 8.52 0 00-5.54 2.34c0 .06-.06.06-.11.06z" fill="#1E1E40"/><path d="M68.91 65.49c-.11 0-.22-.06-.22-.18a.26.26 0 01.17-.34c1.89-.74 3.91-1.09 5.94-1.03a.26.26 0 01-.06.52 16.11 16.11 0 00-5.83 1.03z" fill="#1E1E40"/></g><path d="M0 130h20v40H0v-40z" fill="#F0F1FD"/><path fill-rule="evenodd" clip-rule="evenodd" d="M329 41H51v30h278V41zM50 40v32h280V40H50z" fill="#4EB543"/><path fill-rule="evenodd" clip-rule="evenodd" d="M329 223H51v22h278v-22zm-279-1v24h280v-24H50z" fill="#339CFF"/><path d="M50 246h280v5H50v-5z" fill="#339CFF" fill-opacity=".3"/><path fill-rule="evenodd" clip-rule="evenodd" d="M329 88H51v118h278V88zM50 87v120h280V87H50z" fill="#EF33FF"/><path fill-rule="evenodd" clip-rule="evenodd" d="M329 252H51v38h278v-38zm-279-1v40h280v-40H50z" fill="#FF6B00"/><path d="M50 291h280v20H50v-20z" fill="#FF6B00" fill-opacity=".2"/><path fill-rule="evenodd" clip-rule="evenodd" d="M329 312H51v32h278v-32zm-279-1v34h280v-34H50z" fill="#744CE6"/><path d="M50 72h280v15H50V72z" fill="#4EB543" fill-opacity=".2"/><path d="M50 207h280v15H50v-15z" fill="#EF33FF" fill-opacity=".2"/><path fill-rule="evenodd" clip-rule="evenodd" d="M329.5 72l2.5 4h-2v7h2l-2.5 4-2.5-4h2v-7h-2l2.5-4z" fill="#4EB543"/><path d="M336.6 74.84l-1.98.76v1.26l1.64-.62v5.52h-1.64V83h4.44v-1.24h-1.45v-6.92h-1zM340.44 74.84l-.27 4.54a6.63 6.63 0 012.08-.36c1.3 0 2.22.38 2.22 1.46 0 .96-.87 1.44-2.08 1.44-.85 0-1.77-.2-2.46-.6v1.28c.72.35 1.67.56 2.62.56 1.8 0 3.3-.9 3.3-2.67 0-1.92-1.47-2.6-3.04-2.6-.42 0-.84.05-1.23.14l.12-1.97h3.76v-1.22h-5.02zM348.28 78.14v-.9h-1.14v8.4h1.29v-3.38c.4.45 1.07.9 2.07.9 1.73 0 2.86-1.38 2.86-3.04 0-1.66-1.13-3.04-2.86-3.04-1.08 0-1.76.5-2.22 1.06zm3.77 1.98c0 1.13-.74 1.9-1.79 1.9-.88 0-1.56-.57-1.83-1.2v-1.4c.27-.63.95-1.2 1.83-1.2 1.05 0 1.8.77 1.8 1.9zM357.96 77.24l-1.38 1.94-1.38-1.94h-1.46l2.1 2.82-2.22 2.94h1.46l1.5-2.04 1.5 2.04h1.47l-2.22-2.94 2.1-2.82h-1.47z" fill="#4EB543"/><path fill-rule="evenodd" clip-rule="evenodd" d="M329.5 207l2.5 4h-2v7h2l-2.5 4-2.5-4h2v-7h-2l2.5-4z" fill="#EF33FF"/><path d="M336.6 209.84l-1.98.76v1.26l1.64-.62v5.52h-1.64V218h4.44v-1.24h-1.45v-6.92h-1zM340.44 209.84l-.27 4.54a6.63 6.63 0 012.08-.36c1.3 0 2.22.38 2.22 1.46 0 .96-.87 1.44-2.08 1.44-.85 0-1.77-.2-2.46-.6v1.28c.72.35 1.67.56 2.62.56 1.8 0 3.3-.9 3.3-2.67 0-1.92-1.47-2.6-3.04-2.6-.42 0-.84.05-1.23.14l.12-1.97h3.76v-1.22h-5.02zM348.28 213.14v-.9h-1.14v8.4h1.29v-3.38c.4.45 1.07.9 2.07.9 1.73 0 2.86-1.38 2.86-3.04 0-1.66-1.13-3.04-2.86-3.04-1.08 0-1.76.5-2.22 1.06zm3.77 1.98c0 1.13-.74 1.9-1.79 1.9-.88 0-1.56-.57-1.83-1.2v-1.4c.27-.63.95-1.2 1.83-1.2 1.05 0 1.8.77 1.8 1.9zM357.96 212.24l-1.38 1.94-1.38-1.94h-1.46l2.1 2.82-2.22 2.94h1.46l1.5-2.04 1.5 2.04h1.47l-2.22-2.94 2.1-2.82h-1.47z" fill="#EF33FF"/><path fill-rule="evenodd" clip-rule="evenodd" d="M329.5 291l2.5 4h-2v12h2l-2.5 4-2.5-4h2v-12h-2l2.5-4z" fill="#FF6B00"/><path d="M334.8 296.51v1.32a4.45 4.45 0 012.58-.91c1.01 0 1.62.37 1.62 1.08 0 .92-.82 1.34-1.77 1.9-1.24.73-2.71 1.48-2.71 3.48v.62h5.91v-1.24l-4.38.02c.01-.82 1.01-1.32 2.07-1.95 1.1-.66 2.25-1.47 2.25-2.85 0-1.53-1.21-2.3-2.87-2.3-.94 0-1.87.26-2.7.83zM341.6 299.92c0 2.39 1.12 4.24 3.66 4.24 2.53 0 3.66-1.85 3.66-4.24s-1.13-4.24-3.66-4.24c-2.54 0-3.66 1.85-3.66 4.24zm5.94 0c0 1.9-.72 2.99-2.28 2.99-1.58 0-2.28-1.1-2.28-2.99 0-1.9.7-2.99 2.28-2.99 1.56 0 2.28 1.1 2.28 2.99zM351.44 299.14v-.9h-1.14v8.4h1.28v-3.38c.4.45 1.07.9 2.08.9 1.72 0 2.85-1.38 2.85-3.04 0-1.66-1.13-3.04-2.85-3.04-1.08 0-1.77.5-2.22 1.06zm3.76 1.98c0 1.13-.74 1.9-1.78 1.9-.9 0-1.56-.57-1.84-1.2v-1.4c.28-.63.95-1.2 1.84-1.2 1.04 0 1.78.77 1.78 1.9zM361.12 298.24l-1.38 1.94-1.38-1.94h-1.47l2.1 2.82-2.22 2.94h1.47l1.5-2.04 1.5 2.04h1.46l-2.22-2.94 2.1-2.82h-1.46z" fill="#FF6B00"/><path fill-rule="evenodd" clip-rule="evenodd" d="M326.61 256l2.89-5 2.89 5h-5.78zM326.61 241l2.89 5 2.89-5H330v-3h-1v3h-2.39z" fill="#339CFF"/><path fill-rule="evenodd" clip-rule="evenodd" d="M330 244v8h-1v-8h1z" fill="#339CFF"/><path d="M335.1 243.84l-.26 4.54a6.63 6.63 0 012.08-.36c1.3 0 2.22.38 2.22 1.46 0 .96-.87 1.44-2.08 1.44-.85 0-1.78-.2-2.46-.6v1.28c.72.35 1.67.56 2.62.56 1.8 0 3.3-.9 3.3-2.67 0-1.92-1.47-2.6-3.04-2.6-.42 0-.84.05-1.24.14l.12-1.97h3.77v-1.22h-5.03zM342.95 247.14v-.9h-1.14v8.4h1.29v-3.38c.4.45 1.06.9 2.07.9 1.73 0 2.86-1.38 2.86-3.04 0-1.66-1.13-3.04-2.86-3.04-1.08 0-1.76.5-2.22 1.06zm3.77 1.98c0 1.13-.74 1.9-1.79 1.9-.89 0-1.56-.57-1.83-1.2v-1.4c.27-.63.94-1.2 1.83-1.2 1.05 0 1.79.77 1.79 1.9zM352.63 246.24l-1.38 1.94-1.38-1.94h-1.46l2.1 2.82-2.22 2.94h1.46l1.5-2.04 1.5 2.04h1.47l-2.22-2.94 2.1-2.82h-1.47z" fill="#339CFF"/></g><defs><clipPath id="clip0"><path fill="#fff" d="M0 0h380v410H0z"/></clipPath><clipPath id="clip1"><rect x="50" y="40" width="32" height="32" rx="16" fill="#fff"/></clipPath><filter id="filter0_d" x="46" y="85" width="288" height="128" filterUnits="userSpaceOnUse" color-interpolation-filters="sRGB"><feFlood flood-opacity="0" result="BackgroundImageFix"/><feColorMatrix in="SourceAlpha" values="0 0 0 0 0 0 0 0 0 0 0 0 0 0 0 0 0 0 127 0"/><feOffset dy="2"/><feGaussianBlur stdDeviation="2"/><feColorMatrix values="0 0 0 0 0.219608 0 0 0 0 0.266667 0 0 0 0 0.682353 0 0 0 0.2 0"/><feBlend in2="BackgroundImageFix" result="effect1_dropShadow"/><feBlend in="SourceGraphic" in2="effect1_dropShadow" result="shape"/></filter></defs></svg>