<svg width="560" height="410" viewBox="0 0 560 410" fill="none" xmlns="http://www.w3.org/2000/svg"><path fill="#fff" d="M0 0h560v410H0z"/><path d="M0 0h560v410H0V0z" fill="#3844AE"/><path d="M200 24a4 4 0 014-4h332a4 4 0 014 4v362a4 4 0 01-4 4H204a4 4 0 01-4-4V24z" fill="#F0F1FD"/><path d="M325 315a4 4 0 014-4h82a4 4 0 014 4v26a4 4 0 01-4 4h-82a4 4 0 01-4-4v-26z" fill="#5F6EEB"/><path d="M348.23 323.99c.39.45.69 1 .9 1.66.22.66.32 1.42.32 2.26 0 .83-.1 1.57-.31 2.24a4.58 4.58 0 01-.91 1.67c-.41.48-.9.83-1.46 1.06-.55.22-1.15.33-1.82.33-.69 0-1.3-.11-1.86-.35a3.79 3.79 0 01-1.42-1.04c-.4-.45-.7-1-.9-1.66a7.4 7.4 0 01-.32-2.25c0-.85.1-1.6.32-2.25.21-.65.51-1.2.9-1.67.4-.45.87-.8 1.42-1.03a4.7 4.7 0 011.86-.35c.7 0 1.32.12 1.87.36a3.9 3.9 0 011.41 1.02zm-.18 3.92c0-.67-.08-1.27-.22-1.79a3.76 3.76 0 00-.62-1.29c-.27-.35-.6-.61-.98-.78-.37-.18-.8-.27-1.27-.27a2.66 2.66 0 00-2.26 1.05c-.28.35-.48.78-.63 1.3a6.85 6.85 0 00-.21 1.78c0 1.34.28 2.36.84 3.07.56.71 1.31 1.06 2.26 1.06.94 0 1.69-.35 2.25-1.06.56-.7.84-1.73.84-3.07zM356.42 326.5h-2.6v6.5h-1.28v-6.5h-2.6v-1.14h6.48v1.13zM363.37 330.69a2.06 2.06 0 01-.8 1.7c-.3.24-.63.4-.97.49-.34.08-.75.12-1.22.12h-3v-7.64h2.8c.56 0 .97.02 1.23.06.26.03.52.12.77.26.27.14.47.34.6.58.13.24.19.53.19.86 0 .37-.1.7-.3.99-.2.28-.47.5-.8.66l.03.05a2 2 0 011.04.64c.28.32.43.73.43 1.23zm-1.72-3.37c0-.17-.03-.32-.09-.45a.61.61 0 00-.3-.3 1.38 1.38 0 00-.55-.15c-.2-.02-.48-.03-.84-.03h-1.22v2.1h1.48c.3 0 .53-.02.67-.05.13-.03.27-.1.43-.2.15-.08.26-.2.32-.36.07-.15.1-.34.1-.56zm.39 3.38c0-.26-.04-.47-.12-.63-.07-.15-.23-.3-.49-.42a1.52 1.52 0 00-.51-.14 8.12 8.12 0 00-.76-.03h-1.51v2.5h1.11c.46 0 .82-.02 1.08-.06.25-.04.47-.1.65-.22.2-.12.33-.25.42-.4.09-.16.13-.36.13-.6zM368.03 333.18a3.8 3.8 0 01-2.83-1.03c-.67-.69-1-1.66-1-2.92 0-1.25.32-2.24.97-2.97.65-.74 1.5-1.1 2.56-1.1.47 0 .89.06 1.25.2.37.13.69.35.96.64.27.3.48.65.63 1.07.15.42.22.94.22 1.55v.7h-5.3c0 .88.23 1.56.68 2.03.44.47 1.06.7 1.85.7a3.56 3.56 0 001.57-.34 5.84 5.84 0 00.98-.58h.08v1.4l-.56.23a6.86 6.86 0 01-1.29.36c-.2.04-.46.06-.77.06zm1.5-4.85c0-.34-.04-.64-.11-.9a1.86 1.86 0 00-.32-.63c-.15-.2-.34-.34-.58-.44a2.2 2.2 0 00-.87-.15 2.05 2.05 0 00-1.96 1.27c-.1.25-.17.53-.2.85h4.05zM377.67 326.5h-2.6v6.5h-1.29v-6.5h-2.6v-1.14h6.49v1.13zM384.65 333h-1.27v-5.7l-3.6 5.7h-1.16v-7.64h1.27v5.61l3.56-5.6h1.2V333zM392.09 326.5h-2.6v6.5h-1.28v-6.5h-2.6v-1.14h6.48v1.13zM398.83 330.63c0 .37-.07.7-.23 1.01-.14.3-.34.54-.6.73-.3.23-.62.4-.96.49a5 5 0 01-1.32.14h-2.67v-7.64h1.28v2.98h1.42c.58 0 1.02.03 1.34.09.32.06.63.2.95.43.26.2.46.45.6.76.12.3.19.64.19 1.01zm-1.33.02c0-.23-.04-.43-.12-.6a.93.93 0 00-.39-.43c-.19-.12-.4-.19-.66-.2-.24-.03-.58-.04-1.04-.04h-.96v2.6h.93c.46 0 .81-.02 1.06-.06.25-.04.47-.12.65-.23.19-.11.32-.25.4-.41.1-.17.13-.37.13-.63z" fill="#fff"/><path d="M263.5 263.85c0 .5-.1.94-.28 1.34-.2.4-.45.73-.78.98-.38.3-.79.51-1.23.64-.44.13-1 .19-1.7.19h-2.94v-10.18h6.2v1.2h-4.84v2.8h1.63c.7 0 1.26.03 1.7.12.43.07.84.26 1.23.56.35.27.6.6.77 1 .16.4.24.85.24 1.35zm-1.41.03c0-.35-.06-.65-.17-.9-.11-.27-.29-.48-.53-.63a1.91 1.91 0 00-.87-.31 13.5 13.5 0 00-1.38-.06h-1.21v3.87h1.17c.6 0 1.07-.04 1.4-.1.32-.05.61-.17.86-.34s.44-.38.55-.62c.12-.24.18-.55.18-.91zM271 263.19c0 1.28-.3 2.27-.92 2.98a3.15 3.15 0 01-2.48 1.04c-1.06 0-1.9-.36-2.5-1.08-.61-.72-.91-1.7-.91-2.94 0-1.28.3-2.27.93-2.98a3.16 3.16 0 012.48-1.06c1.03 0 1.86.36 2.48 1.06.62.7.93 1.7.93 2.98zm-1.32 0c0-1-.18-1.73-.54-2.2a1.8 1.8 0 00-1.54-.73c-.67 0-1.18.24-1.55.72-.36.48-.54 1.22-.54 2.2 0 .96.18 1.69.54 2.19.37.49.88.73 1.55.73a1.8 1.8 0 001.54-.72c.36-.49.54-1.22.54-2.2zM275.36 267.17c-.52 0-1-.08-1.44-.24a3 3 0 01-1.13-.74 3.35 3.35 0 01-.73-1.23 5.38 5.38 0 01-.26-1.77c0-.67.1-1.25.27-1.73.18-.5.42-.9.72-1.23.3-.34.68-.6 1.12-.77a4.12 4.12 0 012.66-.1c.4.12.74.26 1.05.41v1.45h-.08a4.25 4.25 0 00-1.5-.82c-.24-.06-.47-.1-.7-.1-.66 0-1.2.25-1.6.76-.4.5-.6 1.21-.6 2.13 0 .9.19 1.6.58 2.12.39.5.93.75 1.62.75.42 0 .82-.09 1.2-.26.38-.18.71-.4 1-.67h.08v1.44l-.48.22a6.32 6.32 0 01-1.1.33c-.18.03-.4.05-.68.05zM281.83 267.17c-.52 0-1-.08-1.44-.24a3 3 0 01-1.13-.74 3.34 3.34 0 01-.73-1.23 5.41 5.41 0 01-.26-1.77c0-.67.09-1.25.27-1.73.18-.5.42-.9.72-1.23.3-.34.67-.6 1.12-.77a4.13 4.13 0 012.66-.1c.4.12.74.26 1.05.41v1.45H284a4.25 4.25 0 00-1.5-.82c-.25-.06-.48-.1-.7-.1-.67 0-1.2.25-1.6.76-.4.5-.6 1.21-.6 2.13 0 .9.19 1.6.57 2.12.4.5.94.75 1.63.75.42 0 .82-.09 1.2-.26.37-.18.7-.4 1-.67h.08v1.44l-.48.22a6.32 6.32 0 01-1.1.33c-.18.03-.4.05-.68.05zM287.75 265.05l-1.91 4.48h-1l1.2-4.48h1.71zM297.19 267.18a3.8 3.8 0 01-2.84-1.03c-.67-.69-1-1.66-1-2.92 0-1.25.32-2.24.98-2.97.65-.74 1.5-1.1 2.55-1.1.48 0 .9.06 1.26.2.37.13.68.35.96.64.27.3.48.65.63 1.07.14.42.21.94.21 1.55v.7h-5.29c0 .88.23 1.56.67 2.03.45.47 1.07.7 1.86.7a3.56 3.56 0 001.56-.34 5.63 5.63 0 00.99-.58h.07v1.4l-.56.23a6.97 6.97 0 01-1.28.36c-.2.04-.46.06-.77.06zm1.5-4.85c0-.34-.05-.64-.12-.9a1.84 1.84 0 00-.31-.63c-.15-.2-.35-.34-.58-.44a2.2 2.2 0 00-.87-.15 2.05 2.05 0 00-1.96 1.27c-.1.25-.17.53-.2.85h4.04zM304.28 267.17c-.52 0-1-.08-1.44-.24a3 3 0 01-1.13-.74 3.35 3.35 0 01-.73-1.23 5.38 5.38 0 01-.26-1.77c0-.67.09-1.25.26-1.73.19-.5.43-.9.73-1.23.3-.34.67-.6 1.12-.77a4.12 4.12 0 012.66-.1c.4.12.74.26 1.05.41v1.45h-.08a4.25 4.25 0 00-1.5-.82c-.25-.06-.48-.1-.7-.1-.67 0-1.2.25-1.6.76-.4.5-.6 1.21-.6 2.13 0 .9.18 1.6.57 2.12.4.5.94.75 1.63.75.42 0 .82-.09 1.2-.26.37-.18.7-.4 1-.67h.08v1.44l-.48.22a6.32 6.32 0 01-1.1.33c-.18.03-.4.05-.68.05zM313.62 267h-1.28v-6.56h-2.63l-.04 1.1-.04.94c-.03.72-.07 1.32-.14 1.8a6.2 6.2 0 01-.25 1.16 2.6 2.6 0 01-.74 1.16c-.15.14-.32.24-.5.31-.17.07-.37.1-.6.1a8.69 8.69 0 01-.52-.01v-1.12h.17a1.1 1.1 0 00.44-.03c.1-.04.2-.1.28-.18.23-.23.4-.62.5-1.17.1-.56.18-1.34.23-2.35l.05-1.32.04-1.47h5.03V267zM321.52 267h-1.27v-5.7l-3.6 5.7h-1.16v-7.64h1.27v5.61l3.56-5.6h1.2V267zM333.78 267h-1.28v-6.53h-3.46V267h-1.29v-7.64h6.03V267zM342.05 262.98a4.7 4.7 0 01-.92 3.04 2.84 2.84 0 01-2.3 1.13 3.56 3.56 0 01-1.9-.53v3.2h-1.29v-10.46h1.29v.8a4.7 4.7 0 011.06-.71c.39-.2.81-.3 1.28-.3.87 0 1.55.35 2.04 1.04.5.7.74 1.62.74 2.79zm-1.33.14c0-.87-.14-1.54-.42-2.02-.27-.48-.72-.72-1.35-.72-.36 0-.72.08-1.06.24a4.5 4.5 0 00-.96.62v4.33a3.5 3.5 0 001.69.42c.66 0 1.18-.24 1.55-.73.37-.48.55-1.2.55-2.14zM349.66 263.19c0 1.28-.3 2.27-.93 2.98a3.15 3.15 0 01-2.47 1.04c-1.06 0-1.9-.36-2.51-1.08-.6-.72-.9-1.7-.9-2.94 0-1.28.3-2.27.93-2.98a3.16 3.16 0 012.48-1.06c1.03 0 1.85.36 2.47 1.06.62.7.93 1.7.93 2.98zm-1.32 0c0-1-.18-1.73-.54-2.2a1.8 1.8 0 00-1.54-.73c-.67 0-1.19.24-1.55.72-.36.48-.54 1.22-.54 2.2 0 .96.18 1.69.54 2.19.36.49.88.73 1.55.73a1.8 1.8 0 001.53-.72c.36-.49.55-1.22.55-2.2zM357.53 268.83h-1.2v-1.85h-5.03v1.85h-1.2v-2.92h.51c.44-.72.79-1.64 1.06-2.79.28-1.14.42-2.4.42-3.76h4.68v6.55h.76v2.92zm-2.04-2.92v-5.47h-2.19a14.92 14.92 0 01-.47 3.13 8.76 8.76 0 01-.95 2.34h3.6zM363.07 265.12V263l-1.16.12c-.47.04-.85.1-1.13.2-.34.1-.63.26-.85.48-.22.21-.33.52-.33.9 0 .44.12.77.36 1 .25.22.61.33 1.09.33.4 0 .77-.09 1.1-.26.32-.18.63-.4.92-.65zm0 1.07l-.43.32a3.85 3.85 0 01-1.17.6c-.2.07-.5.1-.88.1a2.29 2.29 0 01-2.14-1.45 2.63 2.63 0 01-.18-.97c0-.53.11-.98.33-1.35.23-.38.58-.67 1.06-.89.43-.2.94-.33 1.52-.4.58-.08 1.21-.14 1.89-.17v-.25c0-.3-.05-.54-.14-.73-.09-.18-.22-.33-.38-.43-.17-.1-.37-.17-.6-.2a4.86 4.86 0 00-1.78.08c-.4.09-.8.22-1.2.38h-.08v-1.3c.24-.07.58-.14 1.02-.23a7.19 7.19 0 012.64 0c.36.08.68.23.97.45.28.2.49.48.62.81.14.33.2.74.2 1.22V267h-1.27v-.81zM371.74 260.5h-2.6v6.5h-1.29v-6.5h-2.6v-1.14h6.49v1.13zM378.48 264.63c0 .37-.08.7-.23 1.01-.14.3-.35.54-.6.73-.3.23-.62.4-.96.49a5 5 0 01-1.32.14h-2.68v-7.64h1.29v2.98h1.42c.58 0 1.02.03 1.33.09.32.06.64.2.95.43.27.2.47.45.6.76.13.3.2.64.2 1.01zm-1.33.02c0-.23-.04-.43-.12-.6a.93.93 0 00-.4-.43c-.18-.12-.4-.19-.65-.2-.24-.03-.59-.04-1.04-.04h-.96v2.6h.93c.45 0 .8-.02 1.06-.06.25-.04.46-.12.65-.23.18-.11.32-.25.4-.41.09-.17.13-.37.13-.63zM387.12 267.17c-.53 0-1-.08-1.44-.24a3 3 0 01-1.13-.74 3.35 3.35 0 01-.74-1.23 5.41 5.41 0 01-.25-1.77c0-.67.08-1.25.26-1.73.19-.5.43-.9.73-1.23.3-.34.67-.6 1.12-.77a4.13 4.13 0 012.66-.1c.39.12.74.26 1.04.41v1.45h-.07a4.25 4.25 0 00-1.5-.82c-.25-.06-.48-.1-.7-.1-.67 0-1.2.25-1.61.76-.4.5-.6 1.21-.6 2.13 0 .9.2 1.6.58 2.12.4.5.93.75 1.63.75.42 0 .81-.09 1.2-.26.37-.18.7-.4 1-.67h.07v1.44l-.48.22a6.32 6.32 0 01-1.1.33c-.18.03-.4.05-.67.05zM393.86 267.18a3.8 3.8 0 01-2.83-1.03c-.67-.69-1-1.66-1-2.92 0-1.25.32-2.24.97-2.97.65-.74 1.5-1.1 2.56-1.1.47 0 .89.06 1.25.2.37.13.69.35.96.64.28.3.49.65.63 1.07.15.42.22.94.22 1.55v.7h-5.3c0 .88.23 1.56.68 2.03.44.47 1.06.7 1.85.7a3.56 3.56 0 001.57-.34 5.84 5.84 0 00.98-.58h.08v1.4l-.56.23a6.86 6.86 0 01-1.29.36c-.2.04-.46.06-.77.06zm1.5-4.85c0-.34-.04-.64-.12-.9a1.86 1.86 0 00-.3-.63c-.16-.2-.35-.34-.59-.44a2.2 2.2 0 00-.87-.15 2.05 2.05 0 00-1.96 1.27c-.1.25-.17.53-.2.85h4.05zM403.95 267h-1.27v-5.7l-3.6 5.7h-1.16v-7.64h1.27v5.61l3.55-5.6h1.2V267zm-.58-11.18c0 .39-.05.75-.14 1.07a2.07 2.07 0 01-1.1 1.35c-.27.12-.6.18-1 .18-.38 0-.7-.06-.99-.18-.28-.13-.51-.31-.7-.54-.2-.23-.33-.5-.43-.82-.1-.32-.14-.68-.14-1.06h1.1c0 .61.1 1.06.3 1.33.18.27.47.4.85.4a1 1 0 00.84-.4c.2-.26.3-.7.3-1.33h1.11zM411.55 267h-1.29v-2.98c-.4.13-.79.23-1.16.3-.38.08-.76.12-1.13.12-.32 0-.64-.04-.95-.13a1.9 1.9 0 01-1.31-1.15c-.12-.3-.18-.65-.18-1.05v-2.75h1.29v2.08c0 .33.01.6.04.8.03.2.1.39.22.58a1 1 0 00.48.37c.21.08.5.13.84.13a6.77 6.77 0 001.87-.3v-3.66h1.28V267zM417.67 265.12V263l-1.16.12c-.46.04-.84.1-1.13.2-.34.1-.62.26-.84.48a1.2 1.2 0 00-.34.9c0 .44.12.77.37 1 .25.22.6.33 1.08.33.4 0 .77-.09 1.1-.26.33-.18.64-.4.92-.65zm0 1.07l-.42.32a3.85 3.85 0 01-1.17.6c-.2.07-.5.1-.89.1a2.28 2.28 0 01-2.13-1.45 2.63 2.63 0 01-.19-.97c0-.53.12-.98.34-1.35.22-.38.58-.67 1.06-.89.43-.2.93-.33 1.52-.4.58-.08 1.2-.14 1.88-.17v-.25c0-.3-.04-.54-.13-.73a1 1 0 00-.39-.43c-.16-.1-.36-.17-.6-.2a4.87 4.87 0 00-1.78.08c-.4.09-.8.22-1.2.38h-.07v-1.3c.23-.07.57-.14 1.02-.23a7.18 7.18 0 012.63 0c.36.08.69.23.98.45.27.2.48.48.62.81.13.33.2.74.2 1.22V267h-1.28v-.81zM423.8 267.17c-.53 0-1-.08-1.44-.24a3 3 0 01-1.13-.74 3.34 3.34 0 01-.73-1.23 5.4 5.4 0 01-.26-1.77c0-.67.09-1.25.26-1.73.19-.5.43-.9.73-1.23.3-.34.67-.6 1.12-.77a4.13 4.13 0 012.66-.1c.4.12.74.26 1.05.41v1.45h-.08a4.21 4.21 0 00-1.5-.82c-.25-.06-.48-.1-.7-.1-.67 0-1.2.25-1.6.76-.4.5-.61 1.21-.61 2.13 0 .9.2 1.6.58 2.12.4.5.94.75 1.63.75.42 0 .82-.09 1.2-.26.37-.18.7-.4 1-.67h.07v1.44l-.47.22a6.32 6.32 0 01-1.1.33c-.18.03-.4.05-.68.05zM429.72 265.05l-1.92 4.48h-1l1.21-4.48h1.7zM438.88 267.17c-.52 0-1-.08-1.44-.24a3 3 0 01-1.13-.74 3.34 3.34 0 01-.73-1.23 5.4 5.4 0 01-.26-1.77c0-.67.09-1.25.26-1.73.19-.5.43-.9.73-1.23.3-.34.67-.6 1.12-.77a4.13 4.13 0 012.66-.1c.4.12.74.26 1.05.41v1.45h-.08a4.42 4.42 0 00-1.5-.82c-.25-.06-.48-.1-.7-.1-.67 0-1.2.25-1.6.76-.4.5-.61 1.21-.61 2.13 0 .9.2 1.6.58 2.12.4.5.94.75 1.63.75.42 0 .82-.09 1.2-.26.37-.18.7-.4 1-.67h.07v1.44l-.47.22a6.32 6.32 0 01-1.1.33c-.18.03-.4.05-.68.05zM449.4 267h-1.28v-6l-1.83 3.9h-.96l-1.82-3.9v6h-1.2v-7.64h1.55l2.01 4.24 1.94-4.24h1.58V267zM457.53 263.19c0 1.28-.3 2.27-.93 2.98a3.15 3.15 0 01-2.47 1.04c-1.06 0-1.9-.36-2.5-1.08-.62-.72-.92-1.7-.92-2.94 0-1.28.31-2.27.94-2.98a3.16 3.16 0 012.48-1.06c1.03 0 1.86.36 2.47 1.06.62.7.93 1.7.93 2.98zm-1.32 0c0-1-.18-1.73-.54-2.2a1.8 1.8 0 00-1.54-.73c-.67 0-1.19.24-1.55.72-.36.48-.54 1.22-.54 2.2 0 .96.18 1.69.54 2.19.36.49.88.73 1.55.73a1.8 1.8 0 001.53-.72c.37-.49.55-1.22.55-2.2zM468.12 267h-1.55l-2.4-3.51h-.5V267h-1.27v-3.51h-.5l-2.44 3.51h-1.48l2.88-4a1.85 1.85 0 01-.6-.51 3.33 3.33 0 01-.46-.99 1.82 1.82 0 00-.44-.8c-.17-.15-.44-.23-.83-.23h-.3v-1.1h.36c.56 0 1.02.1 1.38.34.36.22.65.62.85 1.2a11.05 11.05 0 00.32.78c.15.35.32.6.52.76.2.15.45.24.74.26v-3.35h1.27v3.35c.3-.03.54-.11.75-.27.2-.15.38-.4.53-.75a11.17 11.17 0 00.32-.79c.2-.56.47-.95.83-1.19.35-.23.82-.35 1.39-.35h.35v1.11h-.3c-.36 0-.63.08-.81.23-.18.14-.33.41-.45.8-.13.4-.28.71-.45.94-.18.23-.37.4-.58.52l2.87 4.04zM472.4 267.18a3.8 3.8 0 01-2.84-1.03c-.67-.69-1-1.66-1-2.92 0-1.25.32-2.24.97-2.97.65-.74 1.5-1.1 2.56-1.1.47 0 .9.06 1.26.2.36.13.68.35.95.64.28.3.49.65.63 1.07.15.42.22.94.22 1.55v.7h-5.3c0 .88.23 1.56.68 2.03.45.47 1.06.7 1.85.7a3.56 3.56 0 001.57-.34 5.63 5.63 0 00.98-.58h.08v1.4l-.56.23a6.97 6.97 0 01-1.29.36c-.2.04-.46.06-.76.06zm1.5-4.85c-.01-.34-.05-.64-.12-.9a1.84 1.84 0 00-.32-.63c-.15-.2-.34-.34-.58-.44a2.2 2.2 0 00-.87-.15 2.05 2.05 0 00-1.96 1.27c-.1.25-.16.53-.2.85h4.05zM483.53 267h-1.27v-6l-1.83 3.9h-.96l-1.82-3.9v6h-1.2v-7.64H478l2.01 4.24 1.94-4.24h1.58V267zM277.37 284.89a2 2 0 01-1 1.79c-.28.17-.6.3-.95.38a6.43 6.43 0 01-3.82-.5v-1.42h.08c.3.29.7.52 1.16.68a4.22 4.22 0 002.05.19c.23-.05.42-.12.58-.2.21-.13.36-.27.45-.42.09-.14.13-.34.13-.6 0-.27-.05-.49-.15-.65a.92.92 0 00-.42-.38 1.78 1.78 0 00-.6-.15 6.97 6.97 0 00-.7-.04h-.9v-1.1h.69c.17 0 .39 0 .65-.02.26-.01.46-.05.62-.1.2-.08.35-.18.47-.31.12-.14.18-.37.18-.69 0-.22-.05-.4-.15-.54-.1-.13-.23-.24-.38-.32a1.56 1.56 0 00-.5-.16 4.24 4.24 0 00-1.78.14c-.4.11-.74.3-1.02.53h-.09v-1.39c.33-.11.7-.21 1.09-.3a5.66 5.66 0 012.19-.03c.33.07.65.18.95.34.29.15.52.37.72.64.19.27.28.6.28 1s-.12.77-.35 1.09c-.24.3-.55.51-.93.61v.05c.42.14.77.37 1.04.67.27.3.4.7.4 1.2zM282.99 285.12V283l-1.17.12c-.46.04-.84.1-1.13.2-.34.1-.62.26-.84.48-.23.21-.34.52-.34.9 0 .44.13.77.37 1 .25.22.6.33 1.08.33.4 0 .77-.09 1.1-.26.33-.18.64-.4.93-.65zm0 1.07l-.43.32a3.85 3.85 0 01-1.17.6c-.2.07-.5.1-.89.1a2.29 2.29 0 01-2.13-1.45 2.63 2.63 0 01-.18-.97c0-.53.1-.98.33-1.35.23-.38.58-.67 1.06-.89.43-.2.94-.33 1.52-.4.58-.08 1.21-.14 1.88-.17v-.25c0-.3-.04-.54-.13-.73-.1-.18-.22-.33-.38-.43-.17-.1-.37-.17-.6-.2a4.86 4.86 0 00-1.78.08c-.4.09-.8.22-1.2.38h-.08v-1.3c.24-.07.57-.14 1.02-.23a7.19 7.19 0 012.64 0c.36.08.68.23.97.45.27.2.48.48.62.81.13.33.2.74.2 1.22V287H283v-.81zM292.1 287h-1.28v-6.53h-3.46V287h-1.29v-7.64h6.03V287zM298.23 285.12V283l-1.16.12a6.2 6.2 0 00-1.13.2c-.34.1-.63.26-.85.48-.22.21-.33.52-.33.9 0 .44.12.77.37 1 .24.22.6.33 1.08.33.4 0 .77-.09 1.1-.26.32-.18.63-.4.92-.65zm0 1.07l-.42.32a3.85 3.85 0 01-1.17.6c-.21.07-.5.1-.9.1a2.28 2.28 0 01-2.13-1.45 2.63 2.63 0 01-.18-.97c0-.53.11-.98.34-1.35.22-.38.57-.67 1.06-.89.42-.2.93-.33 1.51-.4.59-.08 1.22-.14 1.89-.17v-.25c0-.3-.05-.54-.14-.73a1 1 0 00-.38-.43c-.16-.1-.36-.17-.6-.2a4.85 4.85 0 00-1.78.08c-.4.09-.8.22-1.2.38h-.08v-1.3c.24-.07.58-.14 1.02-.23a7.19 7.19 0 012.64 0c.36.08.68.23.97.45.28.2.49.48.62.81.14.33.2.74.2 1.22V287h-1.27v-.81zM304.35 287.17c-.52 0-1-.08-1.44-.24a3 3 0 01-1.86-1.97 5.4 5.4 0 01-.26-1.77c0-.67.1-1.25.27-1.73.18-.5.42-.9.72-1.23.3-.34.68-.6 1.13-.77a4.12 4.12 0 012.66-.1c.39.12.73.26 1.04.41v1.45h-.07a4.21 4.21 0 00-1.5-.82c-.25-.06-.48-.1-.7-.1-.67 0-1.2.25-1.61.76-.4.5-.6 1.21-.6 2.13 0 .9.19 1.6.58 2.12.39.5.93.75 1.62.75.42 0 .82-.09 1.2-.26.38-.18.71-.4 1-.67h.08v1.44l-.48.22a6.17 6.17 0 01-1.1.33c-.18.03-.4.05-.68.05zM313.36 280.5h-2.6v6.5h-1.28v-6.5h-2.6v-1.14h6.48v1.13zM320.35 287h-1.27v-5.7l-3.6 5.7h-1.16v-7.64h1.27v5.61l3.56-5.6h1.2V287zM325.25 287.17c-.53 0-1.01-.08-1.45-.24a3 3 0 01-1.13-.74 3.35 3.35 0 01-.73-1.23 5.41 5.41 0 01-.26-1.77c0-.67.1-1.25.27-1.73.18-.5.42-.9.73-1.23.3-.34.67-.6 1.12-.77a4.13 4.13 0 012.66-.1c.39.12.74.26 1.04.41v1.45h-.07a4.25 4.25 0 00-1.5-.82c-.25-.06-.48-.1-.7-.1-.67 0-1.2.25-1.61.76-.4.5-.6 1.21-.6 2.13 0 .9.19 1.6.58 2.12.39.5.93.75 1.63.75.41 0 .81-.09 1.2-.26.37-.18.7-.4 1-.67h.07v1.44l-.48.22a6.32 6.32 0 01-1.1.33c-.18.03-.4.05-.68.05zM334.46 284.63c0 .37-.07.7-.23 1.01-.14.3-.34.54-.6.73-.3.23-.62.4-.96.49a5 5 0 01-1.32.14h-2.67v-7.64h1.28v2.98h1.42c.58 0 1.02.03 1.34.09.32.06.63.2.95.43.26.2.46.45.6.76.12.3.19.64.19 1.01zm-1.33.02c0-.23-.04-.43-.12-.6a.94.94 0 00-.39-.43c-.19-.12-.4-.19-.66-.2-.24-.03-.58-.04-1.04-.04h-.96v2.6h.93c.46 0 .81-.02 1.06-.06.25-.04.47-.12.65-.23.19-.11.32-.25.4-.41.09-.17.13-.37.13-.63zM345.64 280.5h-2.6v6.5h-1.28v-6.5h-2.6v-1.14h6.48v1.13zM352.6 279.36l-4.1 10.46h-1.38l1.37-3.19-2.78-7.27h1.39l2.08 5.66 2.08-5.66h1.34zM359.6 287h-1.28v-3.44h-3.46V287h-1.29v-7.64h1.29v3.1h3.46v-3.1h1.28V287zM368.2 288.83H367V287h-5.54v-7.64h1.29v6.53h3.4v-6.53h1.3v6.53h.75v2.94zM375.76 283.19c0 1.28-.31 2.27-.93 2.98a3.15 3.15 0 01-2.48 1.04c-1.06 0-1.9-.36-2.5-1.08-.61-.72-.92-1.7-.92-2.94 0-1.28.32-2.27.94-2.98a3.16 3.16 0 012.48-1.06c1.03 0 1.86.36 2.48 1.06.62.7.93 1.7.93 2.98zm-1.33 0c0-1-.18-1.73-.54-2.2a1.8 1.8 0 00-1.54-.73c-.67 0-1.19.24-1.55.72-.36.48-.54 1.22-.54 2.2 0 .96.18 1.69.54 2.19.36.49.88.73 1.55.73a1.8 1.8 0 001.53-.72c.37-.49.55-1.22.55-2.2zM384.16 287h-1.27v-6l-1.84 3.9h-.95l-1.82-3.9v6h-1.2v-7.64h1.55l2 4.24 1.95-4.24h1.58V287zM396.42 287h-1.28v-3.44h-3.46V287h-1.29v-7.64h1.29v3.1h3.46v-3.1h1.28V287zM402.55 285.12V283l-1.17.12c-.46.04-.84.1-1.12.2-.35.1-.63.26-.85.48a1.2 1.2 0 00-.34.9c0 .44.13.77.37 1 .25.22.6.33 1.08.33.4 0 .78-.09 1.1-.26.33-.18.64-.4.93-.65zm0 1.07l-.43.32a3.85 3.85 0 01-1.17.6c-.2.07-.5.1-.89.1a2.28 2.28 0 01-2.13-1.45 2.63 2.63 0 01-.18-.97c0-.53.1-.98.33-1.35.23-.38.58-.67 1.06-.89.43-.2.94-.33 1.52-.4a24.4 24.4 0 011.89-.17v-.25c0-.3-.05-.54-.14-.73a1 1 0 00-.38-.43c-.17-.1-.37-.17-.6-.2a4.87 4.87 0 00-1.78.08c-.4.09-.8.22-1.2.38h-.08v-1.3c.24-.07.58-.14 1.02-.23a7.18 7.18 0 012.64 0c.36.08.68.23.97.45.27.2.48.48.62.81.14.33.2.74.2 1.22V287h-1.27v-.81zM416.04 287h-1.29v-6.53h-3.45V287H410v-7.64h6.03V287zM423.43 287h-1.29v-3.03h-1.27l-2.26 3.03h-1.5l2.46-3.14a2.7 2.7 0 01-1.4-.84c-.29-.37-.44-.86-.44-1.48 0-.38.09-.71.25-1 .17-.28.4-.52.68-.72.23-.15.51-.27.86-.34.35-.08.73-.12 1.16-.12h2.75V287zm-1.29-4.04v-2.57h-1.39c-.3 0-.53.02-.7.05-.17.03-.34.1-.5.18a.99.99 0 00-.37.41c-.08.17-.13.35-.13.55 0 .25.03.46.09.61.06.16.16.3.31.44.16.13.35.22.58.27.24.04.49.06.76.06h1.35zM430.87 280.5h-2.6v6.5H427v-6.5h-2.6v-1.14h6.48v1.13zM437.61 284.63c0 .37-.07.7-.22 1.01-.15.3-.35.54-.6.73-.3.23-.63.4-.97.49a5 5 0 01-1.32.14h-2.67v-7.64h1.29v2.98h1.42c.57 0 1.02.03 1.33.09.32.06.64.2.95.43.27.2.46.45.6.76.13.3.2.64.2 1.01zm-1.32.02c0-.23-.04-.43-.13-.6a.93.93 0 00-.39-.43c-.19-.12-.4-.19-.65-.2a11.9 11.9 0 00-1.05-.04h-.95v2.6h.93c.45 0 .8-.02 1.06-.06.25-.04.46-.12.64-.23.2-.11.33-.25.4-.41.1-.17.14-.37.14-.63zM449.13 287h-1.28v-6.56h-2.63l-.04 1.1-.04.94c-.03.72-.07 1.32-.14 1.8a6.2 6.2 0 01-.25 1.16 2.6 2.6 0 01-.74 1.16c-.15.14-.32.24-.5.31-.17.07-.38.1-.6.1a8.69 8.69 0 01-.52-.01v-1.12h.17a1.1 1.1 0 00.44-.03c.1-.04.2-.1.28-.18.23-.23.4-.62.5-1.17.1-.56.18-1.34.23-2.35l.04-1.32.05-1.47h5.03V287zM454.31 287.18a3.8 3.8 0 01-2.83-1.03c-.67-.69-1-1.66-1-2.92 0-1.25.32-2.24.97-2.97.65-.74 1.5-1.1 2.56-1.1.47 0 .89.06 1.25.2.37.13.69.35.96.64.27.3.48.65.63 1.07.15.42.22.94.22 1.55v.7h-5.3c0 .88.23 1.56.68 2.03.44.47 1.06.7 1.85.7a3.56 3.56 0 001.57-.34 5.63 5.63 0 00.98-.58h.08v1.4l-.56.23a6.97 6.97 0 01-1.29.36c-.2.04-.46.06-.77.06zm1.5-4.85c0-.34-.04-.64-.12-.9a1.84 1.84 0 00-.3-.63c-.16-.2-.35-.34-.59-.44a2.2 2.2 0 00-.87-.15 2.05 2.05 0 00-1.96 1.27c-.1.25-.16.53-.2.85h4.05zM463.95 280.5h-2.6v6.5h-1.29v-6.5h-2.6v-1.14h6.49v1.13zM467.06 276.82l-.19 7.38h-1.13l-.2-7.38h1.52zM467 287h-1.4v-1.44h1.4V287zM293.09 236.28c0 .57-.11 1.1-.33 1.57-.22.48-.51.86-.88 1.17-.45.35-.94.61-1.46.76-.51.15-1.14.22-1.89.22h-4.78v-11.63h8.45v2.22h-5.54v2.14h1.92c.7 0 1.32.06 1.87.16.56.1 1.05.32 1.49.67.4.3.69.7.87 1.17.19.47.28.99.28 1.55zm-3.02.09c0-.2-.02-.38-.06-.55a1.04 1.04 0 00-.28-.48 1.46 1.46 0 00-.57-.33 3.25 3.25 0 00-1.02-.13h-1.48v2.96h1.48c.6 0 1.07-.12 1.42-.38.34-.25.51-.62.51-1.1zM302.91 240h-2.68v-5.33l-3.36 5.33h-2.3v-8.77h2.7v4.76l3.07-4.76h2.57V240zM312.22 233.13h-2.72V240h-2.73v-6.87h-2.72v-1.9h8.17v1.9zM322 240h-3.14l-2.08-3.48h-.7V240h-2.74v-8.77h2.74v3.52c.38 0 .67-.06.86-.16.19-.11.4-.4.62-.86a28.27 28.27 0 00.46-1.01 2.5 2.5 0 011.02-1.19c.4-.21.9-.32 1.48-.32a21.1 21.1 0 01.96.02v2.34h-.53a1 1 0 00-.45.1 1.23 1.23 0 00-.57.56l-.14.3c-.12.28-.2.48-.27.6-.05.12-.15.24-.3.35L322 240zM331.42 235.62c0 1.44-.4 2.58-1.19 3.41-.78.83-1.9 1.24-3.34 1.24a4.42 4.42 0 01-3.34-1.24 4.75 4.75 0 01-1.2-3.41c0-1.46.4-2.6 1.2-3.43a4.42 4.42 0 013.34-1.24 4.4 4.4 0 013.34 1.25c.8.83 1.2 1.97 1.2 3.42zm-2.8.01c0-.52-.05-.95-.14-1.3-.08-.34-.2-.62-.35-.83a1.3 1.3 0 00-.54-.45c-.2-.1-.44-.14-.7-.14-.24 0-.47.04-.66.12-.2.07-.38.22-.55.43-.16.2-.28.48-.38.84-.09.35-.14.8-.14 1.33 0 .54.05.97.14 1.3.08.34.2.6.34.8.15.2.33.35.55.44a1.81 1.81 0 001.39 0c.23-.1.41-.23.55-.42.16-.22.28-.5.36-.8.09-.32.13-.76.13-1.32zM341.21 240h-2.69v-5.33l-3.36 5.33h-2.29v-8.77h2.7v4.76l3.07-4.76h2.57V240zM351.6 240h-2.73v-3.76h-2.82V240h-2.74v-8.77h2.74v3.04h2.82v-3.04h2.74V240zM366.64 240h-2.73v-6.84h-2.79V240h-2.73v-8.77h8.25V240zM377.16 235.62c0 1.44-.4 2.58-1.2 3.41-.78.83-1.9 1.24-3.33 1.24a4.42 4.42 0 01-3.35-1.24 4.76 4.76 0 01-1.19-3.41c0-1.46.4-2.6 1.2-3.43a4.42 4.42 0 013.33-1.24 4.4 4.4 0 013.35 1.25c.79.83 1.19 1.97 1.19 3.42zm-2.8.01c0-.52-.05-.95-.14-1.3-.09-.34-.2-.62-.35-.83a1.3 1.3 0 00-.55-.45c-.2-.1-.44-.14-.7-.14-.24 0-.46.04-.66.12-.2.07-.38.22-.55.43-.15.2-.28.48-.37.84-.1.35-.14.8-.14 1.33 0 .54.04.97.13 1.3.09.34.2.6.35.8.14.2.32.35.54.44a1.82 1.82 0 001.4 0c.22-.1.4-.23.54-.42.16-.22.28-.5.37-.8.08-.32.12-.76.12-1.32zM387.57 242.17h-2.43v-2.2h-5.08v2.2h-2.43v-4.14h.64c.4-.82.7-1.83.94-3.01.24-1.2.36-2.46.36-3.8h7.13v6.81h.87v4.14zm-3.59-4.14v-4.87h-1.93c-.08.97-.24 1.87-.45 2.7-.2.83-.46 1.56-.76 2.17h3.14zM397.4 235.62c0 1.44-.4 2.58-1.2 3.41-.78.83-1.9 1.24-3.34 1.24a4.42 4.42 0 01-3.34-1.24 4.75 4.75 0 01-1.2-3.41c0-1.46.4-2.6 1.2-3.43a4.42 4.42 0 013.34-1.24 4.4 4.4 0 013.34 1.25c.8.83 1.2 1.97 1.2 3.42zm-2.81.01c0-.52-.05-.95-.14-1.3-.08-.34-.2-.62-.35-.83a1.3 1.3 0 00-.55-.45c-.2-.1-.43-.14-.7-.14-.24 0-.46.04-.66.12-.2.07-.38.22-.54.43-.16.2-.28.48-.38.84-.09.35-.14.8-.14 1.33 0 .54.05.97.14 1.3.08.34.2.6.34.8.14.2.33.35.55.44a1.82 1.82 0 001.39 0c.23-.1.4-.23.54-.42.17-.22.29-.5.37-.8.08-.32.13-.76.13-1.32zM407.44 235.5c0 1.4-.35 2.52-1.06 3.38a3.28 3.28 0 01-2.63 1.3 3.9 3.9 0 01-2.17-.62v3.66h-2.74v-12h2.74v.92c.4-.34.8-.62 1.23-.83.41-.22.9-.33 1.44-.33 1.02 0 1.8.4 2.36 1.22.56.8.83 1.9.83 3.3zm-2.8.05c0-.86-.12-1.48-.39-1.86-.26-.39-.67-.58-1.23-.58-.24 0-.49.04-.73.12-.24.08-.48.2-.71.35v4.41c.14.06.3.1.48.13.17.03.38.04.62.04.67 0 1.16-.21 1.48-.64.33-.44.49-1.1.49-1.97zM417.34 235.62c0 1.44-.4 2.58-1.18 3.41-.79.83-1.9 1.24-3.35 1.24a4.42 4.42 0 01-3.34-1.24 4.75 4.75 0 01-1.19-3.41c0-1.46.4-2.6 1.19-3.43a4.42 4.42 0 013.34-1.24 4.4 4.4 0 013.35 1.25c.79.83 1.18 1.97 1.18 3.42zm-2.8.01c0-.52-.05-.95-.13-1.3-.09-.34-.2-.62-.36-.83a1.3 1.3 0 00-.54-.45c-.2-.1-.44-.14-.7-.14-.24 0-.46.04-.66.12-.2.07-.38.22-.55.43-.16.2-.28.48-.37.84-.1.35-.14.8-.14 1.33 0 .54.04.97.13 1.3.09.34.2.6.34.8.15.2.33.35.55.44a1.82 1.82 0 001.39 0c.23-.1.41-.23.55-.42.16-.22.28-.5.36-.8.09-.32.13-.76.13-1.32zM431.88 240h-3.08l-1.94-3.44h-.67V240h-2.71v-3.44h-.67l-1.97 3.44h-3.01l2.58-4.43c-.11-.08-.21-.2-.3-.34a5.42 5.42 0 01-.27-.61 2.06 2.06 0 00-.44-.78.87.87 0 00-.63-.24h-.59v-2.37a22.33 22.33 0 001.1-.02c.58 0 1.07.11 1.47.33.4.21.72.6.96 1.16l.2.48.22.54c.2.44.38.72.53.87.15.14.43.2.82.2v-3.56h2.71v3.57c.4 0 .67-.08.82-.2.15-.14.33-.43.53-.88l.2-.5.22-.53c.25-.55.57-.93.97-1.15.4-.22.89-.33 1.47-.33a28.57 28.57 0 011.1.02v2.34h-.6a.94.94 0 00-.6.21c-.17.14-.32.38-.46.71-.08.23-.17.43-.25.6-.09.18-.2.32-.33.43l2.62 4.48zM437.8 237.71v-1.83l-1.12.13c-.29.03-.57.1-.84.2a1.2 1.2 0 00-.57.38c-.13.16-.2.39-.2.67 0 .4.12.7.34.85.22.15.55.23.98.23.24 0 .49-.06.74-.17.25-.1.47-.26.68-.46zm0 1.36l-.5.42a3.98 3.98 0 01-1.31.65c-.24.06-.56.1-.97.1-.78 0-1.43-.27-1.94-.79a2.7 2.7 0 01-.77-1.97c0-.65.13-1.17.4-1.57.25-.4.63-.72 1.12-.96.5-.24 1.08-.4 1.77-.5.69-.1 1.43-.16 2.22-.22v-.04c0-.49-.18-.82-.54-1a4.32 4.32 0 00-2.73-.1 8.6 8.6 0 00-1.27.44h-.23v-2.12a13.65 13.65 0 013.14-.43c1.5 0 2.6.25 3.3.75.69.5 1.03 1.27 1.03 2.3V240h-2.71v-.93zM450.91 240h-2.73v-6.84h-2.15a118.34 118.34 0 01-.06 1.68c-.04.83-.1 1.52-.21 2.05-.1.53-.24.96-.4 1.3a3.38 3.38 0 01-1.02 1.33 2.2 2.2 0 01-.77.39c-.33.1-.64.15-.91.15-.24 0-.47-.02-.7-.04l-.42-.02v-2.22h.18l.15.02c.12 0 .25-.02.39-.04.13-.03.25-.1.33-.18.36-.37.6-.85.7-1.46.1-.61.17-1.3.2-2.05a144.85 144.85 0 00.11-2.84h7.31V240zM456.27 228.37l-.32 8.28h-2.47l-.32-8.28h3.1zm-.02 11.63h-3.08v-2.06h3.08V240z" fill="#333"/><g filter="url(#filter0_d)"><path d="M230 91a4 4 0 014-4h272a4 4 0 014 4v112a4 4 0 01-4 4H234a4 4 0 01-4-4V91z" fill="#fff"/></g><path fill-rule="evenodd" clip-rule="evenodd" d="M241 97a1 1 0 011 1v97h257a1 1 0 010 2H241a1 1 0 01-1-1V98a1 1 0 011-1z" fill="#F0F1FD"/><path fill-rule="evenodd" clip-rule="evenodd" d="M277 170a1 1 0 011 1v2.08a1 1 0 11-2 0V171a1 1 0 011-1zm0 10.42a1 1 0 011 1v4.16a1 1 0 11-2 0v-4.16a1 1 0 011-1zm0 12.5a1 1 0 011 1V196a1 1 0 01-2 0v-2.08a1 1 0 011-1zM312 181a1 1 0 011 1v2.33a1 1 0 11-2 0V182a1 1 0 011-1zm0 11.67a1 1 0 011 1V196a1 1 0 01-2 0v-2.33a1 1 0 011-1zM347 149a1 1 0 011 1v1.92a1 1 0 01-2 0V150a1 1 0 011-1zm0 9.58a1 1 0 011 1v3.84a1 1 0 01-2 0v-3.84a1 1 0 011-1zm0 11.5a1 1 0 011 1v3.84a1 1 0 01-2 0v-3.84a1 1 0 011-1zm0 11.5a1 1 0 011 1v3.84a1 1 0 01-2 0v-3.84a1 1 0 011-1zm0 11.5a1 1 0 011 1V196a1 1 0 01-2 0v-1.92a1 1 0 011-1zM382 155a1 1 0 011 1v2.22a1 1 0 11-2 0V156a1 1 0 011-1zm0 11.11a1 1 0 011 1v4.45a1 1 0 01-2 0v-4.45a1 1 0 011-1zm0 13.33a1 1 0 011 1v4.45a1 1 0 01-2 0v-4.45a1 1 0 011-1zm0 13.34a1 1 0 011 1V196a1 1 0 01-2 0v-2.22a1 1 0 011-1zM417 128a1 1 0 011 1v1.86a1 1 0 01-2 0V129a1 1 0 011-1zm0 9.3a1 1 0 011 1v3.73a1 1 0 01-2 0v-3.72a1 1 0 011-1zm0 11.17a1 1 0 011 1v3.72a1 1 0 11-2 0v-3.72a1 1 0 011-1zm0 11.17a1 1 0 011 1v3.72a1 1 0 01-2 0v-3.72a1 1 0 011-1zm0 11.17a1 1 0 011 1v3.72a1 1 0 01-2 0v-3.72a1 1 0 011-1zm0 11.16a1 1 0 011 1v3.72a1 1 0 11-2 0v-3.72a1 1 0 011-1zm0 11.17a1 1 0 011 1V196a1 1 0 01-2 0v-1.86a1 1 0 011-1zM452 145a1 1 0 011 1v2.08a1 1 0 11-2 0V146a1 1 0 011-1zm0 10.42a1 1 0 011 1v4.16a1 1 0 11-2 0v-4.16a1 1 0 011-1zm0 12.5a1 1 0 011 1v4.16a1 1 0 11-2 0v-4.16a1 1 0 011-1zm0 12.5a1 1 0 011 1v4.16a1 1 0 11-2 0v-4.16a1 1 0 011-1zm0 12.5a1 1 0 011 1V196a1 1 0 01-2 0v-2.08a1 1 0 011-1zM487 104a1 1 0 011 1v1.9a1 1 0 01-2 0V105a1 1 0 011-1zm0 9.48a1 1 0 011 1v3.8a1 1 0 01-2 0v-3.8a1 1 0 011-1zm0 11.37a1 1 0 011 1v3.8a1 1 0 01-2 0v-3.8a1 1 0 011-1zm0 11.38a1 1 0 011 1v3.8a1 1 0 01-2 0v-3.8a1 1 0 011-1zm0 11.37a1 1 0 011 1v3.8a1 1 0 01-2 0v-3.8a1 1 0 011-1zm0 11.38a1 1 0 011 1v3.8a1 1 0 01-2 0v-3.8a1 1 0 011-1zm0 11.37a1 1 0 011 1v3.8a1 1 0 01-2 0v-3.8a1 1 0 011-1zm0 11.38a1 1 0 011 1v3.8a1 1 0 01-2 0v-3.8a1 1 0 011-1zm0 11.37a1 1 0 011 1v1.9a1 1 0 01-2 0v-1.9a1 1 0 011-1z" fill="#F0F1FD"/><path fill-rule="evenodd" clip-rule="evenodd" d="M487.65 104.24a1 1 0 01.11 1.4l-35 41a1 1 0 01-1.2.26l-34.44-16.73-34.5 26.62a1 1 0 01-.79.2l-34.52-5.92-34.63 31.67a1 1 0 01-.98.21l-34.53-10.85-35.6 24.72a1 1 0 11-1.14-1.64l36-25a1 1 0 01.87-.13l34.45 10.82 34.57-31.6a1 1 0 01.85-.26l34.57 5.93 34.65-26.73a1 1 0 011.05-.1l34.3 16.65 34.5-40.4a1 1 0 011.4-.12z" fill="#86C400"/><path fill-rule="evenodd" clip-rule="evenodd" d="M487 111a6 6 0 100-12 6 6 0 000 12zm0 2a8 8 0 100-16 8 8 0 000 16z" fill="#86C400"/><path d="M491 105a4 4 0 11-8 0 4 4 0 018 0z" fill="#86C400"/><path d="M279.22 53h-1.16v-4.27h-4.01V53h-1.17v-8.72h1.17v3.42h4v-3.42h1.17V53zM283.75 53.15c-1.05 0-1.86-.3-2.43-.88-.58-.59-.87-1.42-.87-2.5 0-1.07.28-1.92.84-2.55a2.78 2.78 0 012.2-.95c.4 0 .76.06 1.07.18.31.12.59.3.82.55.24.25.42.56.54.92.13.36.19.8.19 1.32v.6h-4.54c0 .76.2 1.35.58 1.75.38.4.91.6 1.59.6a3.05 3.05 0 001.34-.3 4.97 4.97 0 00.84-.49h.07v1.2l-.48.2a5.82 5.82 0 01-1.1.3c-.18.04-.4.05-.66.05zm1.29-4.15c-.01-.3-.05-.55-.1-.77a1.6 1.6 0 00-.28-.54c-.13-.17-.3-.3-.5-.38-.2-.09-.44-.13-.74-.13s-.54.05-.75.14a1.75 1.75 0 00-.93.95c-.09.2-.14.45-.17.73h3.47zM292.6 49.73c0 1.1-.26 1.95-.79 2.56-.53.6-1.24.9-2.12.9-.91 0-1.63-.32-2.15-.93a3.82 3.82 0 01-.78-2.53c0-1.1.27-1.94.8-2.55.54-.6 1.25-.9 2.13-.9.88 0 1.59.3 2.12.9.53.6.8 1.45.8 2.55zm-1.13 0c0-.85-.15-1.48-.46-1.89-.31-.41-.75-.62-1.32-.62-.57 0-1.02.21-1.33.62-.3.41-.46 1.04-.46 1.89 0 .82.15 1.44.46 1.87.31.42.75.63 1.33.63.57 0 1-.2 1.31-.62.31-.42.47-1.04.47-1.88zM298.9 53h-1.1v-5.6h-2.96V53h-1.1v-6.54h5.17V53zM305.88 49.73c0 1.1-.26 1.95-.8 2.56-.52.6-1.23.9-2.11.9-.91 0-1.63-.32-2.15-.93a3.82 3.82 0 01-.78-2.53c0-1.1.26-1.94.8-2.55.54-.6 1.25-.9 2.13-.9.88 0 1.59.3 2.12.9.53.6.8 1.45.8 2.55zm-1.13 0c0-.85-.16-1.48-.46-1.89-.31-.41-.75-.62-1.32-.62-.58 0-1.02.21-1.33.62-.31.41-.47 1.04-.47 1.89 0 .82.16 1.44.47 1.87.3.42.75.63 1.33.63.56 0 1-.2 1.3-.62.32-.42.48-1.04.48-1.88zM311.35 51.19a1.71 1.71 0 01-.85 1.53c-.24.15-.51.26-.82.33a5.55 5.55 0 01-3.28-.42V51.4h.08c.26.24.6.44 1 .58a3.62 3.62 0 001.75.16c.2-.04.36-.1.5-.18.18-.1.3-.22.38-.35.08-.12.12-.3.12-.51 0-.24-.05-.42-.14-.57a.8.8 0 00-.36-.32 1.51 1.51 0 00-.51-.13 5.77 5.77 0 00-.6-.03h-.77v-.94h.59c.15 0 .33 0 .56-.02.22 0 .4-.04.53-.09a1 1 0 00.4-.26c.1-.12.16-.32.16-.59a.76.76 0 00-.45-.74 1.35 1.35 0 00-.44-.14 3.63 3.63 0 00-1.52.12c-.34.1-.63.25-.88.46h-.07v-1.2c.28-.1.59-.18.93-.25a4.88 4.88 0 011.88-.03c.28.06.56.16.81.3.25.12.45.3.61.54.17.23.25.52.25.85 0 .36-.1.67-.3.94-.2.27-.47.44-.8.53v.04c.36.12.66.31.89.57.23.26.35.6.35 1.04zM317.68 53h-1.1v-2.95h-2.97V53h-1.1v-6.54h1.1v2.64h2.97v-2.64h1.1V53zM322.93 51.39v-1.82l-1 .1c-.4.04-.72.1-.96.17-.3.1-.54.23-.73.42-.2.18-.29.44-.29.77 0 .38.1.66.32.85.21.2.52.29.93.29a2 2 0 00.94-.22c.28-.16.54-.34.79-.56zm0 .91l-.36.28a3.23 3.23 0 01-1 .52c-.19.05-.44.08-.77.08a1.96 1.96 0 01-1.82-1.24c-.11-.27-.16-.55-.16-.84 0-.45.1-.84.28-1.15.2-.32.5-.58.91-.76.37-.17.8-.29 1.3-.35.5-.07 1.04-.12 1.62-.15v-.2c0-.27-.04-.47-.12-.63a.86.86 0 00-.33-.37 1.25 1.25 0 00-.51-.17 4.12 4.12 0 00-1.53.07c-.34.07-.68.18-1.03.32h-.06V46.6a9.83 9.83 0 012-.3c.45 0 .83.03 1.13.1.31.07.59.2.84.38.24.18.41.42.53.7.12.29.17.63.17 1.04V53h-1.09v-.7zM330.75 53h-1.1v-2.95h-2.97V53h-1.1v-6.54h1.1v2.64h2.96v-2.64h1.1V53zM337.5 53h-1.1v-2.95h-2.96V53h-1.1v-6.54h1.1v2.64h2.97v-2.64h1.1V53zM343.96 50.97c0 .32-.06.6-.2.86-.12.26-.3.47-.51.63-.26.2-.53.33-.83.42-.29.08-.67.12-1.13.12h-2.19v-6.54h1.1V49h1.12c.5 0 .88.03 1.14.08.28.05.55.18.82.38.23.16.4.38.5.64.12.26.18.55.18.87zm-1.14.02c0-.2-.03-.37-.1-.52a.8.8 0 00-.34-.37c-.16-.1-.35-.16-.56-.18-.2-.02-.5-.03-.9-.03h-.72v2.23h.7c.4 0 .7-.01.9-.05.22-.03.4-.1.56-.19.16-.1.28-.22.35-.36.08-.14.11-.31.11-.53zm3 2.01h-1.1v-6.54h1.1V53zM352.59 53h-1.09v-4.88L348.42 53h-1v-6.54h1.1v4.8l3.04-4.8h1.03V53zm-.5-9.59c0 .34-.03.65-.11.92a1.79 1.79 0 01-.95 1.16c-.23.1-.51.16-.86.16-.32 0-.6-.06-.84-.16-.24-.11-.44-.27-.6-.46-.17-.2-.29-.43-.37-.7a3.15 3.15 0 01-.12-.92h.95c0 .53.08.91.24 1.15.17.23.41.34.74.34.3 0 .55-.11.72-.34.17-.23.26-.61.26-1.15h.95zM272.88 69v-8.72h5.46v1.03h-4.3v2.39h4v1.03h-4v3.24h4.3V69h-5.45zM284.7 69h-1.1v-2.95h-2.96V69h-1.1v-6.54h1.1v2.64h2.96v-2.64h1.1V69zM291.68 65.73c0 1.1-.26 1.95-.8 2.56-.53.6-1.23.9-2.12.9-.9 0-1.62-.32-2.15-.93a3.82 3.82 0 01-.78-2.53c0-1.1.27-1.94.8-2.55.55-.6 1.25-.9 2.13-.9.89 0 1.6.3 2.13.9.53.6.8 1.45.8 2.55zm-1.13 0c0-.85-.16-1.48-.47-1.89-.3-.41-.75-.62-1.32-.62-.57 0-1.01.21-1.33.62-.3.41-.46 1.04-.46 1.9 0 .81.15 1.43.46 1.86.32.42.76.63 1.33.63.57 0 1-.2 1.32-.62.3-.42.47-1.04.47-1.88zM297.6 63.42h-2.23V69h-1.1v-5.58h-2.23v-.96h5.55v.96z" fill="#5F6EEB"/><g clip-path="url(#clip0)"><path d="M230 40h32.17v32.17H230V40z" fill="#fff"/><path d="M241.43 62.74l8.11.69s2.97 3.43 2.86 4.17c-.12.74.69 4.29-.8 5.03-1.49.74-6.17-.8-6.91-.97-.75-.17-3.15.97-4.75-1.09-1.6-2.17-.4-.86-.4-1.94-.11-1.09 1.89-5.89 1.89-5.89z" fill="#555659"/><path d="M251.31 62.69c-.22.05-.34.11-.34.17 0 .17.23.05.97.4-1 .29-2.04.38-3.08.28.13-.25.22-.52.28-.8.08-.14.11-.3.12-.45.8-.12.46-.23 1.31-.35 0-.05.34-.05.34-.11-.11-.06.52-.17.4-.17a3.38 3.38 0 01-.34-.23 8.4 8.4 0 004-4.63c-1.83-.29-2.57-.91-2.85-2.23a3.87 3.87 0 00-3.55 1.03c-.06-.29-.06-.51-.11-.8-.86 1.37-1.09 1.6-1.66 1.71-.48-.97-.8-2.01-.97-3.08-.29 1.31-.29 2.11-.86 3.26-.51-.12-.97-.58-1.83-1.89-.06.26-.1.53-.11.8a3.47 3.47 0 00-3.37-.8c-.29 1.31-.29 1.83-2.12 2.17.75 2.06 1.78 3.49 3.66 4.52-.16.1-.33.17-.51.22-.12.06-.18.18-.29.23 0 .06-.46-.23-.46-.17.75.12 1.6.4 2.35.57.07.14.1.3.11.46.06.28.16.55.29.8-1.04.1-2.09 0-3.09-.29.97-.11.97-.22.97-.4 0-.05 0-.22-.28-.28-3.26-.34-4.69-2.97-5.38-4.12.69.29 1.03.52 1.15.35.11-.17.11-.23-.12-.4-.68-.69-1.03-2.92-1.14-3.89.46.17 1.26.57 2 .34.91-.28 1.66-1.08 2.17-2.4.06 0 .12.06.17.06l.18-.34a.5.5 0 000-.4c-.38-.97-.6-2-.63-3.03.05-.4.13-.8.22-1.2.63.3 1.18.76 1.6 1.31.24.28.49.55.75.8.4.4 1.14.58 1.25 0 .06-.17-.11-.34-.22-.51-.02 0-.03 0-.04-.02a.06.06 0 01-.02-.04c.63-.23 2.11-.74 3.37-.45h.17c.06 0 .12.05.17 0a7.4 7.4 0 013.66.17l.29.45c-.12.18-.4.35-.35.46.18.23.23.34.63-.11.23-.3.48-.59.75-.86a6.32 6.32 0 012.17-1.6c.05.34.17 1.43.17 1.71a7.15 7.15 0 01-.63 2.86c-.06.12-.29.29-.23.46.06.17 0 0 .06.11.05 0 .23.12.28.12l-.05.11c.51 1.32 1.2 1.89 2.11 2.17.75.16 1.54.06 2.23-.28-.11.91-.86 3.31-1.6 4.05-.17.18-.17.35-.12.4.06.06.63-.22 1.38-.51-.52 1.6-2.69 3.89-5.38 4.29z" fill="#C3C2CE"/><path d="M256.69 56.29c-.16.32-.42.59-.75.74V56c-1.03.11-2.8.23-3.03-2.17h-.05a3.3 3.3 0 00-1.49-.52c-.17 0-.34-.05-.46-.05l.4-.69s-2.34-.11-3.6 1.26c-.17.17 0-.86 0-.86-.6.18-1.16.47-1.65.86l-.23.86-.23-.86a4.93 4.93 0 00-1.66-.86s.17.97 0 .86c-1.31-1.37-3.6-1.26-3.6-1.26l.4.69a5.15 5.15 0 00-1.94.57h-.06c-.23 2.4-2 2.28-3.03 2.17v1.03a1.26 1.26 0 01-.74-.74l-.06.28.06.34c1.54 3.38 3.14 3.89 5.6 4.46l.74.06.97.51.12.69c.23.86.57 1.08 1.31 1.66l.29.22.86-.45.91-.12.91.12.7.34.33.11c.69-.43 1.2-1.1 1.43-1.88l.12-.69.97-.51.74-.06c2.46-.63 4.29-1.48 5.77-4.91l-.06-.17z" fill="#fff"/><path d="M245.31 60.86a1.53 1.53 0 011.32.05.57.57 0 01.34.73c-.04.1-.1.18-.17.25l-.06.05c-.68.92-1.14.69-1.77-.17a.5.5 0 010-.6c.05-.06.1-.1.17-.14 0-.12.06-.12.17-.17z" fill="#1E1E40"/><path d="M256.86 57.94c-.17.06-.35.17-.52.23.54-1.23.87-2.54.98-3.88l.05-.52-.4.29c-.62.37-1.35.49-2.06.34-.74-.23-1.42-.91-1.88-2.11v-.06a.2.2 0 01.06-.17c.27-.6.5-1.2.68-1.83a4.57 4.57 0 00-.11-3.26c-.34-.74-.34-.74-1.15-.57a6.05 6.05 0 00-2.91 1.83.48.48 0 01-.34.17 6.29 6.29 0 00-3.37-.34h-.12a6.29 6.29 0 00-3.37.34.49.49 0 01-.34-.17 6.5 6.5 0 00-2.92-1.83c-.8-.23-.8-.17-1.14.57a4.45 4.45 0 00-.23 3.32c.17.62.46 1.14.69 1.82a.2.2 0 00.05.18v.05c-.45 1.15-1.02 1.89-1.88 2.12a2.72 2.72 0 01-2.06-.35l-.4-.28.17.46c.1 1.34.44 2.65.97 3.88-.17-.06-.34-.17-.51-.23l-.63-.28.29.63c.05.17 1.66 3.48 4.74 4.51-.28.06-.57.06-.86.11l-.8.12.75.4c1.22.4 2.49.63 3.77.68.3 0 .61-.04.91-.11.12.18.28.33.46.46l.4.23h.17l.51-.29.29.11a2.29 2.29 0 001.94 0l.29-.11.51.29h.18a1 1 0 00.4-.23c.16-.14.31-.3.45-.46.3.07.6.1.92.11 1.28-.06 2.55-.29 3.77-.68l1.03-.34-1.09-.12c-.28-.06-.57-.06-.86-.11 3.09-1.03 4.69-4.4 4.75-4.52l.28-.63-.51.23zm-9.2 6.23c-.86-.51-1.37-.8-1.83-.8-.46 0-.92.23-1.83.8-1.31-.74-1.43-3.14-.8-4.28.1.21.18.44.23.68.16-.47.36-.92.57-1.37.4-.74.51-.91.51-.91.46-.69 2.12-.69 2.52 0 .21.27.39.58.51.91.24.44.43.9.58 1.37.05-.23.17-.46.22-.68.69 1.2.57 3.6-.68 4.28zm-5.32-5.54c-.74-.17-1.08-.74-1.48-1.09.91.12 2.34.46 2.63.75a1.06 1.06 0 01-1.15.34zm5.83-.34c.29-.29 1.72-.63 2.63-.75-.38.5-.9.88-1.49 1.09a1.1 1.1 0 01-1.14-.34zm3.15 4.4c-.23.05-.75.11-.7.11.07.11.35.11 1.38.46a8.2 8.2 0 01-3.09.28c.13-.25.23-.52.29-.8.07-.14.11-.3.12-.45.8-.12 1.6-.29 2.4-.4-.11-.07-.2-.14-.3-.23a3.5 3.5 0 01-.33-.23 8.4 8.4 0 004-4.63c-1.83-.29-2.58-.91-2.86-2.23a3.87 3.87 0 00-3.54 1.03c-.06-.29-.06-.51-.12-.8-.85 1.37-1.08 1.6-1.66 1.71-.5-1.2-.83-2.47-.97-3.77-.28 1.32-.4 2.57-.97 3.77-.51-.11-.74-.34-1.66-1.71-.06.26-.1.53-.11.8a3.76 3.76 0 00-3.54-1.03c-.29 1.32-1.03 1.94-2.86 2.23a8.57 8.57 0 004 4.63c-.1.1-.22.17-.34.23-.12.05-.17.05-.29.11.75.12 1.43.52 2.17.69.06.11.29.17.29.34.06.28.16.55.28.8-1.03.1-2.08 0-3.08-.29.97-.11.97-.22.97-.4 0-.05 0-.22-.29-.28-2.68-.34-4.4-2.69-5.08-3.89.69.29 1.03.52 1.14.4.12-.11-.23-.34-.4-.57-.57-.8-.97-2.86-1.08-3.83.63.27 1.33.33 2 .17.91-.28 1.65-1.08 2.17-2.4.06 0 .11.06.17.06l.17-.34a.48.48 0 000-.4c-.38-.97-.59-2-.63-3.03.02-.3.05-.61.12-.91a4.4 4.4 0 011.65 1.25c.23.3.48.59.75.86a.79.79 0 001.31-.29c.06-.17-.11-.34-.23-.51-.01 0-.03 0-.04-.02a.06.06 0 01-.02-.04c.63-.23 2.12-.74 3.38-.45h.28a5.88 5.88 0 013.37.45h-.28c-.12.17-.29.4-.23.52a.78.78 0 001.31.28c.23-.3.48-.58.75-.85.44-.55 1-.99 1.65-1.26.07.3.1.6.12.91a8 8 0 01-.63 3.03.5.5 0 000 .4l.17.34c.06 0 .11-.05.17-.05.52 1.31 1.26 2.11 2.17 2.4.67.19 1.38.13 2-.17a12.58 12.58 0 01-1.08 3.71c-.17.29-.46.57-.4.63.06.06.4-.06 1.03-.34-.63 1.14-2.29 3.6-4.98 4z" fill="#1E1E40"/><path d="M245.88 61.43c.29 0 .52-.08.52-.17 0-.1-.23-.17-.52-.17-.28 0-.5.07-.5.17s.22.17.5.17z" fill="#fff"/><path d="M241.89 62.11l1.6 1.95a8.22 8.22 0 011.31 2.4c.51 1.65.86 1.14 1.14 3.54l-.05 2.8-3.55-.23s-.45-.23-2.97-5.83c-.17-.4-.8-4.23-.8-4.23l2.52-.34h.8v-.06z" fill="#4A4797"/><path d="M241.94 61.89c-.06.22-.06.4-.11.62l1.43 1.78.34.51c.4.55.72 1.17.91 1.83.18.57.46 1.14.69 1.83.11.28.51.97.63 1.37.11-.17.11-.69.23-.86-.06-.17-.35-.46-.4-.63a18.4 18.4 0 01-.69-1.77 7.27 7.27 0 00-.97-2 3.95 3.95 0 01-.34-.51L241.94 62v-.11z" fill="#1E1E40"/><path d="M261.26 69.49c.05-2-.57-2.29-2.06-3.55-1.37-1.14-4.29-1.77-4.29-1.77 0-.34.23-2.06.29-2.34.4-1.43.23-1.54.23-1.54-1.37.03-2.73.2-4.06.51-1.23.2-2.47.34-3.71.4l.34 1.77h-1.43l.06 3.54-.8 4.35s-.23 3.14-.97 1.88c-.69-1.14-.69-.97-1.2-1.88-1.32-2.06-.8-1.09-2.86-4.29-.34-.51 1.49-1.26 1.37-1.83l-.34-1.14.17-1.43-4.69-.8.12.52c.07.33.16.65.28.97.18.45.4.91.63 1.43l.17.34s-4.34-.06-5.94 2.4a6.44 6.44 0 00-1.43 5.09l.57.57 17.26.28 12.12-.57c0 .06.11-1.49.17-2.91z" fill="#2E2C55"/><path d="M245.6 73.49l-14.8-.75a32.9 32.9 0 01.17-3.71c.28-.77.7-1.47 1.26-2.06 1.94-2.17 4.8-2.57 5.83-2.63a10.8 10.8 0 01-.63-1.43c-.12-.34-.17-.62-.29-.97l-.17-.91 5.26.91-.23 1.66.28 1.14c.12.46-.34.8-.74 1.15-.17.17-.57.45-.57.57.23.45 1.26 1.88 2.12 3.14l.74 1.09c.37.55.71 1.12 1.03 1.71.28.51.63-.17.63-.17l-.06-1.43.8-4.34.06-3.77h1.42l-.34-1.78h.34c1.21-.06 2.41-.2 3.6-.4 1.33-.32 2.7-.49 4.06-.51h.06l.06.06c.17.11.28.4-.12 1.83-.06.28-.23 1.54-.28 2.05.68.17 2.97.69 4.17 1.77 1.54 1.38 2.28 2 2.11 4.06-.23 3.72-.06 3.09-.06 3.09l-15.71.63zm1.31-10.23l-.05 3.25-.69 5.89 6.92-.06 6.85-.05 1.03-.12v-2.51c.06-2-.57-2.29-2-3.49-1.31-1.08-4.11-1.71-4.11-1.71l-.18-.06v-.23c0-.4.23-2.11.3-2.46.1-.37.18-.75.22-1.14-1.27.05-2.53.22-3.77.52-1.14.19-2.28.32-3.43.4l.34 1.77h-1.43zm-15.48 9.25l8.8.23c-.06-.11 5.43 1.03 3.2-1.77l-.75-1.08c-.9-1.38-1.88-2.69-2.1-3.15-.24-.45.22-.85.68-1.25.23-.18.63-.52.57-.63l-.34-1.26.11-1.26-4.06-.68.06.17c.06.28.17.63.23.91.16.48.37.94.63 1.37l.4.75h-.46c-.4 0-3.31.11-5.26 1.94a6.13 6.13 0 00-1.6 2.34c-.1.3-.13.6-.11.92-.07.81-.07 1.64 0 2.45z" fill="#1E1E40"/><path d="M239.94 65.6a.21.21 0 01-.17-.06 2.12 2.12 0 00-1.6-.74.3.3 0 01-.28-.29l.01-.1a.26.26 0 01.16-.16.27.27 0 01.11-.02c.74.02 1.43.33 1.95.86.1.11.1.28 0 .34-.12.06-.12.17-.18.17zm-3.71 7.26c-.17 0-.29-.12-.23-.29 0 0 .12-2.11.06-2.8 0-.11.06-.28.23-.28s.28.05.28.22c.05.98.03 1.95-.06 2.92a.38.38 0 01-.28.23zm20.06 0a.62.62 0 01-.4-.17c-.4-.35-.52-1.32-.35-2.69 0-.11.17-.23.29-.23.11 0 .23.17.23.29-.17 1.65.05 2.11.17 2.23.11.11.06.05.11.05.06 0 .29.06.29.17 0 .12-.06.29-.23.29-.06.06-.06.06-.11.06zm-7.03-6a.21.21 0 01-.17-.06c-.12-.11-.12-.29 0-.34 2.91-2.63 5.77-2.52 5.88-2.52a.26.26 0 01.22.19.26.26 0 01-.09.27.26.26 0 01-.19.06 8.52 8.52 0 00-5.54 2.34c0 .06-.06.06-.11.06z" fill="#1E1E40"/><path d="M248.91 65.49c-.11 0-.22-.06-.22-.18a.27.27 0 01-.02-.1c0-.04 0-.07.03-.1a.25.25 0 01.16-.14c1.89-.74 3.91-1.09 5.94-1.03a.26.26 0 11-.06.52 16.11 16.11 0 00-5.83 1.03z" fill="#1E1E40"/></g><path d="M20 24a4 4 0 014-4h152a4 4 0 014 4v32a4 4 0 01-4 4H24a4 4 0 01-4-4V24z" fill="#5F6EEB"/><path d="M67.07 37.02h-4.68V46h-1.36V35.82h6.04v1.2zM74.44 41.98a4.7 4.7 0 01-.91 3.04 2.84 2.84 0 01-2.3 1.13 3.54 3.54 0 01-1.9-.53v3.2h-1.3V38.36h1.3v.8c.31-.28.67-.52 1.05-.71.4-.2.82-.3 1.28-.3.88 0 1.56.35 2.05 1.04.49.7.73 1.62.73 2.8zm-1.32.14c0-.87-.14-1.54-.42-2.02-.28-.48-.73-.72-1.35-.72-.37 0-.72.08-1.06.24a4.5 4.5 0 00-.97.62v4.33a3.48 3.48 0 001.69.42c.67 0 1.19-.24 1.55-.73.37-.48.56-1.2.56-2.14zM80.04 44.12V42l-1.16.12c-.46.04-.84.1-1.13.2-.34.1-.62.26-.84.48a1.2 1.2 0 00-.34.9c0 .44.12.77.37 1 .25.22.6.33 1.08.33.4 0 .77-.09 1.1-.26.33-.18.64-.4.92-.65zm0 1.07l-.42.32a3.79 3.79 0 01-1.17.6c-.2.07-.5.1-.89.1a2.3 2.3 0 01-2.13-1.45 2.63 2.63 0 01-.19-.97c0-.53.12-.98.34-1.35.22-.38.58-.67 1.06-.89.43-.2.93-.33 1.52-.4.58-.08 1.2-.14 1.88-.17v-.25c0-.3-.04-.54-.13-.73a1 1 0 00-.39-.43c-.16-.1-.36-.17-.6-.2a4.81 4.81 0 00-1.78.08c-.4.09-.8.22-1.2.38h-.07v-1.3c.23-.07.57-.15 1.01-.23a7.18 7.18 0 012.64 0c.36.08.69.23.97.45.28.2.49.48.63.81.13.33.2.74.2 1.22V46h-1.28v-.81zM92.42 41.98a5.9 5.9 0 01-.26 1.8c-.16.52-.38.95-.65 1.29-.28.34-.6.6-.95.78-.35.17-.71.26-1.1.26-.28 0-.54-.06-.76-.16-.21-.11-.4-.2-.54-.29v3.16h-1.27v-3.16c-.27.15-.49.26-.65.33-.16.08-.42.12-.78.12-.86 0-1.55-.35-2.06-1.04a4.73 4.73 0 01-.77-2.86c0-.64.08-1.21.24-1.71.17-.5.4-.93.68-1.28.26-.32.57-.58.92-.75.35-.19.71-.28 1.09-.28.27 0 .51.05.72.15.22.09.42.2.6.31v-3.29h1.28v3.3c.2-.13.43-.24.69-.33.26-.1.52-.14.8-.14.85 0 1.53.35 2.02 1.04.5.68.75 1.6.75 2.75zm-1.32.14c0-.87-.15-1.55-.45-2.06-.29-.5-.72-.76-1.3-.76-.23 0-.44.03-.63.1l-.56.2v5.09l.48.23c.13.06.31.09.56.09.59 0 1.05-.24 1.4-.73.33-.49.5-1.2.5-2.16zm-4.21 2.57v-5.1a5.67 5.67 0 00-.5-.2 1.6 1.6 0 00-.54-.09c-.59 0-1.05.23-1.4.7-.33.45-.5 1.17-.5 2.14 0 .9.15 1.6.45 2.1.31.51.76.77 1.33.77.23 0 .43-.04.62-.1l.54-.22zM99.8 46h-1.27v-5.7l-3.6 5.7h-1.16v-7.64h1.27v5.61l3.56-5.6h1.2V46zM107.8 46h-1.6l-2.61-3.52h-.65V46h-1.28v-7.64h1.28v3.33c.34 0 .62-.08.85-.2.24-.15.44-.4.6-.8a12.97 12.97 0 00.32-.79c.2-.56.48-.95.83-1.19a2.5 2.5 0 011.39-.35h.35v1.11h-.3c-.36 0-.63.08-.81.23-.18.14-.33.41-.45.8-.13.4-.28.71-.45.93a2 2 0 01-.58.51L107.8 46zM114.66 46h-1.27v-5.7l-3.6 5.7h-1.16v-7.64h1.27v5.61l3.56-5.6h1.2V46z" fill="#fff"/><path fill-rule="evenodd" clip-rule="evenodd" d="M42.5 34v6.5l5.63 3.25A6.5 6.5 0 0042.5 34zm0-1a7.5 7.5 0 11-5.3 2.2 7.48 7.48 0 015.3-2.2z" fill="#F0F1FD"/><path d="M20 79a4 4 0 014-4h152a4 4 0 014 4v32a4 4 0 01-4 4H24a4 4 0 01-4-4V79z" fill="#5F6EEB"/><path d="M68.56 101h-1.72l-3.6-4.66h-.85V101h-1.36V90.82h1.36v4.59c.53-.02.95-.15 1.26-.4.31-.26.57-.62.77-1.09a14.32 14.32 0 00.38-1.05c.27-.78.62-1.31 1.04-1.6.43-.3 1.02-.45 1.77-.45h.42v1.21h-.35c-.55 0-.94.11-1.17.33-.22.21-.42.62-.61 1.22a4 4 0 01-.63 1.33c-.23.28-.51.52-.84.74l4.13 5.35z" fill="#fff"/><path d="M75.28 101h-1.29v-6.56h-2.62a388.03 388.03 0 01-.08 2.04c-.03.72-.08 1.32-.15 1.8-.06.48-.14.87-.24 1.16a2.62 2.62 0 01-.74 1.16c-.16.14-.32.24-.5.31s-.38.1-.6.1a8.7 8.7 0 01-.52-.01v-1.12h.17a1.1 1.1 0 00.44-.04c.1-.03.2-.09.28-.17.22-.23.4-.62.5-1.17.1-.56.18-1.34.22-2.35l.05-1.32.05-1.47h5.03V101zM83.17 101H81.9v-5.7l-3.6 5.7h-1.16v-7.64h1.28v5.61l3.55-5.6h1.2V101zM88.35 101.18a3.8 3.8 0 01-2.84-1.03c-.67-.69-1-1.66-1-2.92 0-1.25.32-2.24.97-2.97.66-.74 1.5-1.1 2.56-1.1.47 0 .9.06 1.26.2.36.13.68.35.96.64.27.3.48.65.62 1.07.15.42.22.94.22 1.55v.7h-5.29c0 .88.23 1.56.67 2.03.45.47 1.07.7 1.85.7a3.55 3.55 0 001.57-.34 5.76 5.76 0 00.98-.58h.08v1.4l-.56.23a6.93 6.93 0 01-1.29.36c-.2.04-.45.06-.76.06zm1.5-4.85c0-.35-.05-.64-.12-.9a1.84 1.84 0 00-.31-.63c-.16-.2-.35-.34-.59-.44a2.2 2.2 0 00-.86-.15A2.04 2.04 0 0086 95.48c-.1.24-.17.53-.2.85h4.04zM98.43 101h-1.28v-3.44h-3.46V101H92.4v-7.64h1.29v3.1h3.46v-3.1h1.28V101zM105.87 94.5h-2.6v6.5H102v-6.5h-2.6v-1.14h6.48v1.13zM112.5 98.63c0 .37-.08.7-.23 1.01-.15.3-.35.54-.6.73-.3.23-.63.4-.97.49a5 5 0 01-1.32.14h-2.55v-7.64h1.28v2.98h1.3c.58 0 1.03.03 1.34.09.32.06.64.2.95.43.27.2.46.45.6.76.13.3.2.64.2 1.01zm-1.33.03c0-.24-.04-.44-.13-.61a.93.93 0 00-.39-.43c-.19-.12-.4-.19-.65-.2-.24-.03-.6-.04-1.05-.04h-.84v2.6h.81c.46 0 .81-.02 1.06-.06.25-.04.47-.12.65-.23.2-.11.33-.25.4-.41.1-.17.14-.37.14-.62zm3.5 2.34h-1.29v-7.64h1.29V101z" fill="#fff"/><path fill-rule="evenodd" clip-rule="evenodd" d="M42.5 88a3.5 3.5 0 100 7 3.5 3.5 0 000-7zm-6.4 14c.21-1.2.83-2.33 1.78-3.22A6.78 6.78 0 0142.5 97c1.75 0 3.4.65 4.62 1.78a5.85 5.85 0 011.79 3.22H36.1zm13.9 1a6.84 6.84 0 00-2.2-4.95A7.78 7.78 0 0042.5 96c-1.99 0-3.9.74-5.3 2.05A6.84 6.84 0 0035 103h15z" fill="#F0F1FD"/><path d="M20 189a4 4 0 014-4h152a4 4 0 014 4v32a4 4 0 01-4 4H24a4 4 0 01-4-4v-32z" fill="#5F6EEB"/><path d="M69.3 213.3H68v-2.33h-6.6v2.33h-1.29v-3.5h.56c.59-.97 1.07-2.25 1.43-3.82.36-1.57.54-3.3.54-5.16h5.68v8.98h.97v3.5zm-2.32-3.5V202h-3.06a21.21 21.21 0 01-.61 4.47 12.19 12.19 0 01-1.33 3.33h5zM76.78 207.19c0 1.28-.3 2.27-.93 2.98a3.15 3.15 0 01-2.47 1.04c-1.06 0-1.9-.36-2.51-1.08-.6-.72-.91-1.7-.91-2.94 0-1.28.31-2.27.94-2.98a3.16 3.16 0 012.48-1.06c1.03 0 1.85.36 2.47 1.06.62.7.93 1.7.93 2.98zm-1.32 0c0-1-.18-1.73-.54-2.2a1.8 1.8 0 00-1.54-.73c-.67 0-1.19.24-1.55.72-.36.48-.54 1.22-.54 2.2 0 .96.18 1.69.54 2.19.36.49.88.73 1.55.73a1.8 1.8 0 001.53-.72c.36-.49.55-1.22.55-2.2zM84.25 211h-1.6l-2.62-3.52h-.64V211H78.1v-7.64h1.29v3.33c.33 0 .61-.08.84-.2.24-.15.44-.4.6-.8a11.16 11.16 0 00.32-.79c.2-.56.48-.96.83-1.19.36-.23.82-.35 1.4-.35h.34v1.11h-.3c-.35 0-.62.08-.8.23a1.7 1.7 0 00-.46.8c-.13.4-.28.71-.45.93-.17.22-.36.4-.57.5l3.1 4.07zM91.08 203.36l-4.11 10.46h-1.38l1.37-3.19-2.77-7.27h1.38l2.09 5.66 2.08-5.66h1.34zM99.13 211h-1.27v-6l-1.83 3.9h-.96l-1.82-3.9v6h-1.2v-7.64h1.55l2 4.24 1.95-4.24h1.58V211zM104.3 211.18a3.8 3.8 0 01-2.83-1.03c-.67-.69-1-1.66-1-2.92 0-1.25.32-2.24.97-2.97.65-.74 1.5-1.1 2.56-1.1.47 0 .89.06 1.25.2.37.13.69.35.96.64.27.3.48.65.63 1.07.15.42.22.94.22 1.55v.7h-5.3c0 .88.23 1.56.68 2.03.44.47 1.06.7 1.85.7a3.56 3.56 0 001.56-.34 5.63 5.63 0 00.99-.58h.08v1.4l-.57.23a6.85 6.85 0 01-1.28.36c-.2.04-.46.06-.77.06zm1.5-4.85c0-.34-.04-.64-.11-.9a1.84 1.84 0 00-.32-.63c-.15-.2-.34-.34-.58-.44a2.2 2.2 0 00-.87-.15 2.05 2.05 0 00-1.96 1.27c-.1.24-.16.53-.2.85h4.05zM114.39 211h-1.29v-3.44h-3.46V211h-1.28v-7.64h1.28v3.1h3.46v-3.1h1.29V211zM121.82 204.5h-2.6v6.5h-1.28v-6.5h-2.6v-1.14h6.48v1.13zM128.45 208.63c0 .37-.08.7-.23 1.01-.14.3-.34.54-.6.73-.3.23-.62.4-.96.49a5 5 0 01-1.32.14h-2.56v-7.64h1.29v2.98h1.3c.58 0 1.02.03 1.33.09.32.06.64.2.95.43.27.2.47.45.6.76.13.3.2.64.2 1.01zm-1.33.03c0-.24-.04-.44-.12-.61a.93.93 0 00-.4-.43c-.18-.12-.4-.19-.65-.2a11.9 11.9 0 00-1.04-.04h-.84v2.6h.81c.46 0 .8-.02 1.06-.06.25-.04.47-.12.65-.23.19-.11.32-.25.4-.41.09-.17.13-.37.13-.63zm3.5 2.34h-1.28v-7.64h1.28V211z" fill="#fff"/><path fill-rule="evenodd" clip-rule="evenodd" d="M35 200v9c0 1.1.9 2 2 2h1v-9a3 3 0 013-3h3l-.41-.41a2 2 0 00-1.42-.59H37a2 2 0 00-2 2zm6 12h7a1 1 0 001-1v-6h-4v-4h-4a1 1 0 00-1 1v9a1 1 0 001 1zm5-10.59V204h2.59L46 201.41zM41 200a2 2 0 00-2 2v9c0 1.1.9 2 2 2h7a2 2 0 002-2v-6.17a2 2 0 00-.59-1.42l-2.82-2.82a2 2 0 00-1.42-.59H41z" fill="#F0F1FD"/><path d="M20 299a4 4 0 014-4h152a4 4 0 014 4v32a4 4 0 01-4 4H24a4 4 0 01-4-4v-32z" fill="#5F6EEB"/><path d="M68.42 321h-1.35v-4.98h-4.68V321h-1.36v-10.18h1.36v4h4.68v-4h1.35V321zM74.66 319.12V317l-1.17.12c-.46.04-.84.1-1.12.2-.35.1-.63.26-.85.48-.22.21-.34.52-.34.9 0 .44.13.77.37 1 .25.22.6.33 1.08.33.4 0 .78-.09 1.1-.26.33-.18.64-.4.93-.65zm0 1.07l-.43.32a3.84 3.84 0 01-1.17.6c-.2.07-.5.1-.89.1a2.28 2.28 0 01-2.13-1.45 2.63 2.63 0 01-.18-.97c0-.53.1-.98.33-1.35.23-.38.58-.67 1.06-.89.43-.2.94-.33 1.52-.4a24.4 24.4 0 011.89-.17v-.25c0-.3-.05-.54-.14-.73a1 1 0 00-.38-.43c-.17-.1-.37-.17-.6-.2a4.86 4.86 0 00-1.78.08c-.4.09-.8.22-1.2.38h-.08v-1.3c.24-.07.58-.14 1.02-.23a7.19 7.19 0 012.64 0c.36.08.68.23.97.45.28.2.48.48.62.81.14.33.2.74.2 1.22V321h-1.27v-.81zM80.78 321.17c-.52 0-1-.08-1.44-.24a3 3 0 01-1.13-.74 3.35 3.35 0 01-.73-1.23 5.4 5.4 0 01-.26-1.77c0-.67.09-1.25.27-1.73.18-.5.42-.9.72-1.23.3-.34.68-.6 1.12-.77a4.13 4.13 0 012.66-.1c.4.12.74.26 1.05.41v1.45h-.08a4.26 4.26 0 00-1.5-.82c-.24-.06-.48-.1-.7-.1-.66 0-1.2.25-1.6.76-.4.5-.6 1.21-.6 2.13 0 .9.19 1.6.57 2.12.4.5.94.75 1.63.75.42 0 .82-.09 1.2-.26.38-.18.71-.4 1-.67h.08v1.44l-.48.22a6.3 6.3 0 01-1.1.33c-.18.03-.4.05-.68.05zM89.8 314.5h-2.6v6.5h-1.3v-6.5h-2.59v-1.14h6.48v1.13zM97.15 316.98a4.7 4.7 0 01-.91 3.04 2.84 2.84 0 01-2.3 1.13 3.56 3.56 0 01-1.9-.53v3.2h-1.3v-10.46h1.3v.8c.31-.28.67-.52 1.05-.71.4-.2.82-.3 1.28-.3.88 0 1.56.35 2.05 1.04.49.7.73 1.62.73 2.79zm-1.32.14c0-.87-.14-1.54-.42-2.02-.28-.48-.73-.72-1.35-.72-.37 0-.72.08-1.06.24-.34.16-.66.37-.97.62v4.33c.34.17.63.28.86.34.25.05.52.08.83.08.67 0 1.18-.24 1.55-.73.37-.48.56-1.2.56-2.14zM104.77 317.19c0 1.28-.31 2.27-.93 2.98a3.15 3.15 0 01-2.48 1.04c-1.06 0-1.9-.36-2.5-1.08-.61-.72-.91-1.7-.91-2.94 0-1.28.3-2.27.93-2.98a3.16 3.16 0 012.48-1.06c1.03 0 1.86.36 2.48 1.06.62.7.93 1.7.93 2.98zm-1.33 0c0-1-.18-1.73-.54-2.2a1.8 1.8 0 00-1.54-.73c-.67 0-1.18.24-1.55.72-.36.48-.54 1.22-.54 2.2 0 .96.18 1.69.54 2.19.37.49.88.73 1.55.73a1.8 1.8 0 001.54-.72c.36-.49.54-1.22.54-2.2zM112.12 321h-1.27v-5.7l-3.6 5.7h-1.16v-7.64h1.27v5.61l3.55-5.6h1.2V321zm-.58-11.18c0 .39-.05.75-.14 1.07a2.07 2.07 0 01-1.1 1.35c-.27.12-.6.18-1 .18-.38 0-.7-.06-.99-.18-.28-.13-.51-.31-.7-.54-.2-.23-.33-.5-.43-.82-.1-.32-.14-.68-.14-1.06h1.1c0 .61.1 1.06.3 1.33.18.27.47.4.85.4a1 1 0 00.84-.4c.2-.26.3-.7.3-1.33h1.11zM120.12 321h-1.6l-2.62-3.52h-.64V321h-1.28v-7.64h1.28v3.33c.33 0 .62-.08.85-.2.24-.14.44-.4.6-.8a11.17 11.17 0 00.32-.79c.2-.56.47-.95.83-1.19a2.5 2.5 0 011.39-.35h.35v1.11h-.3c-.36 0-.63.08-.81.23a1.7 1.7 0 00-.45.8c-.13.4-.28.71-.45.93-.18.22-.37.4-.58.5l3.11 4.07zM126.98 321h-1.27v-5.7l-3.6 5.7h-1.16v-7.64h1.27v5.61l3.56-5.6h1.2V321z" fill="#fff"/><path fill-rule="evenodd" clip-rule="evenodd" d="M44 310.6a1 1 0 00.54.89l.39.22a1 1 0 001.03.03l1.18-.67a.53.53 0 01.71.19l1.08 1.83c.14.24.06.53-.18.66l-1.25.71a1 1 0 00-.5.9 4.54 4.54 0 010 .28 1 1 0 00.5.9l1.26.7c.23.14.3.43.17.67l-1.08 1.83a.53.53 0 01-.7.2l-1.19-.68a1 1 0 00-1.03.03l-.39.22a1 1 0 00-.54.89v1.1a.5.5 0 01-.5.5h-2a.5.5 0 01-.5-.5v-1.1a1 1 0 00-.54-.89 4.5 4.5 0 01-.38-.22 1 1 0 00-1.04-.03l-1.18.68a.53.53 0 01-.71-.2l-1.08-1.83a.47.47 0 01.18-.66l1.25-.7a1 1 0 00.5-.9 4.75 4.75 0 010-.29 1 1 0 00-.5-.9l-1.26-.7a.47.47 0 01-.17-.67l1.08-1.83a.53.53 0 01.7-.2l1.19.68a1 1 0 001.03-.03l.39-.22a1 1 0 00.54-.89v-1.1c0-.28.22-.5.5-.5h2c.28 0 .5.22.5.5v1.1zm1-1.1v1.1c.16.08.32.17.47.27l.47-.27.06-.03.65-.37c.72-.41 1.64-.16 2.06.55l1.08 1.84c.42.71.18 1.62-.54 2.03l-.54.3-.43.25-.28.16a5.49 5.49 0 010 .34l.28.16.43.25.54.3c.72.4.96 1.32.54 2.03l-1.08 1.84c-.42.71-1.34.96-2.06.55l-.65-.37-.06-.03-.47-.27c-.15.1-.31.19-.47.27v1.1c0 .83-.67 1.5-1.5 1.5h-2a1.5 1.5 0 01-1.5-1.5v-1.1a5.37 5.37 0 01-.46-.27l-.47.27-.07.04-.65.37c-.72.4-1.64.16-2.06-.56l-1.08-1.83a1.47 1.47 0 01.54-2.04l.54-.3.43-.24.28-.17a5.5 5.5 0 010-.34l-.28-.16-.43-.24-.54-.3a1.47 1.47 0 01-.54-2.04l1.08-1.84a1.53 1.53 0 012.06-.55l.65.37.06.03.47.27c.15-.1.31-.19.47-.27v-1.1c0-.83.67-1.5 1.5-1.5h2c.83 0 1.5.67 1.5 1.5zm-2.5 8.5a2.5 2.5 0 100-5 2.5 2.5 0 000 5z" fill="#F0F1FD"/><path d="M40 134a4 4 0 014-4h156v40H44a4 4 0 01-4-4v-32z" fill="#F0F1FD"/><path d="M85.44 156.2a4.84 4.84 0 01-3.64-1.38c-.9-.93-1.34-2.23-1.34-3.9 0-1.61.45-2.9 1.34-3.85a4.76 4.76 0 013.65-1.45 8 8 0 012.02.26 11.67 11.67 0 011.42.59v2.43h-.26a12.79 12.79 0 00-1.1-.84 4 4 0 00-.78-.37 2.84 2.84 0 00-1.9.02c-.32.11-.6.31-.89.6-.25.26-.46.61-.62 1.05-.16.44-.24.97-.24 1.57 0 .63.08 1.16.25 1.6.17.43.39.77.66 1.04.27.25.56.44.88.55a2.96 2.96 0 002.72-.37 5.08 5.08 0 001.05-.82h.23v2.4l-.65.3a6.28 6.28 0 01-1.65.5c-.28.04-.66.07-1.15.07zM97.64 152.16c0 1.27-.35 2.26-1.04 3-.7.72-1.67 1.08-2.93 1.08a3.87 3.87 0 01-2.92-1.09 4.16 4.16 0 01-1.04-2.99c0-1.27.34-2.27 1.04-2.99a3.87 3.87 0 012.92-1.09c1.26 0 2.23.37 2.93 1.1.69.72 1.04 1.72 1.04 2.98zm-2.46.02c0-.46-.04-.84-.11-1.14-.08-.3-.18-.54-.31-.73-.14-.19-.3-.32-.48-.4a1.52 1.52 0 00-.6-.11c-.22 0-.42.03-.59.1a1.1 1.1 0 00-.48.38c-.13.18-.24.42-.33.73-.08.31-.12.7-.12 1.17s.04.85.12 1.14c.07.29.18.52.3.7.13.17.29.3.48.38a1.6 1.6 0 001.21 0c.2-.08.36-.2.48-.37.14-.2.25-.43.32-.7.08-.28.11-.66.11-1.15zM106.28 152.16c0 1.27-.35 2.26-1.04 3-.69.72-1.66 1.08-2.93 1.08a3.87 3.87 0 01-2.92-1.09 4.16 4.16 0 01-1.04-2.99c0-1.27.34-2.27 1.04-2.99a3.87 3.87 0 012.92-1.09c1.26 0 2.24.37 2.93 1.1.7.72 1.04 1.72 1.04 2.98zm-2.46.02c0-.46-.03-.84-.11-1.14-.08-.3-.18-.54-.31-.73-.14-.19-.3-.32-.48-.4a1.52 1.52 0 00-.6-.11c-.22 0-.41.03-.59.1a1.1 1.1 0 00-.48.38c-.13.18-.24.42-.33.73-.08.31-.12.7-.12 1.17s.04.85.12 1.14c.08.29.18.52.3.7.13.17.29.3.48.38a1.6 1.6 0 001.21 0c.2-.08.36-.2.48-.37.14-.2.25-.43.32-.7.08-.28.11-.66.11-1.15zM114.13 149.54c.29.3.52.66.69 1.1.16.43.25.97.25 1.62 0 1.2-.36 2.16-1.07 2.9a3.85 3.85 0 01-2.89 1.08c-1.33 0-2.32-.43-2.97-1.3-.64-.85-.97-2.14-.97-3.86a10.56 10.56 0 01.27-2.24c.1-.4.23-.8.41-1.2.18-.4.4-.72.65-.98.28-.29.67-.54 1.15-.75a7 7 0 012.05-.45 30.58 30.58 0 012.84-.16v1.8a63.15 63.15 0 00-2.36.16 8.3 8.3 0 00-.8.1c-.26.05-.5.14-.73.25-.23.12-.41.27-.56.45-.1.15-.2.33-.27.57-.07.23-.12.52-.15.86.33-.24.7-.43 1.06-.58a3.37 3.37 0 012.41 0c.38.14.7.35.98.63zm-2 4.55c.14-.18.25-.4.34-.65.1-.26.14-.62.14-1.1 0-.55-.14-1-.43-1.32-.28-.34-.65-.5-1.12-.5a2.99 2.99 0 00-1.42.37V151.32c0 .66.01 1.16.05 1.5.05.34.14.66.28.95.12.25.28.43.48.56.2.13.43.2.7.2.14 0 .31-.04.5-.1.18-.08.34-.19.47-.34zM128.2 157.9h-2.13V156h-9.73v-7.68h2.39v6.02h1.96v-6.02h2.39v6.02h1.97v-6.02h2.39v6.02h.75v3.56zM133.34 156.2c-1.45 0-2.56-.34-3.34-1.03-.76-.7-1.15-1.68-1.15-2.96 0-1.26.36-2.26 1.08-3a4 4 0 013.02-1.13c1.18 0 2.06.32 2.65.95.6.64.9 1.54.9 2.72v.87h-5.25c.02.35.1.65.22.9.13.23.3.42.51.56.2.14.45.24.72.3a4.25 4.25 0 001.71 0 4.15 4.15 0 001.28-.52l.41-.27h.25v1.98l-.53.22a6.42 6.42 0 01-2.47.42zm.8-5.03c-.02-.5-.14-.89-.36-1.15-.22-.27-.56-.4-1.01-.4-.47 0-.83.14-1.1.42-.26.28-.4.66-.43 1.13h2.9zM144.98 156h-2.39v-3.29h-2.47V156h-2.4v-7.68h2.4v2.66h2.47v-2.66h2.4V156zM154.1 156h-2.34v-4.66l-2.94 4.66h-2v-7.68h2.35v4.17l2.69-4.17h2.25V156zM162.64 156h-2.39v-2.67h-.72l-1.84 2.67h-2.68l2.2-3a2.89 2.89 0 01-1.2-.92 2.47 2.47 0 01-.37-1.43c0-.43.08-.78.25-1.07.16-.3.39-.54.67-.74.25-.17.55-.3.88-.39.35-.08.73-.13 1.15-.13h4.05V156zm-2.39-4.17v-1.91h-1.1c-.33 0-.6.07-.79.23-.19.15-.28.37-.28.66 0 .36.1.62.28.78.19.16.46.24.83.24h1.06z" fill="#3844AE"/><path fill-rule="evenodd" clip-rule="evenodd" d="M57.95 150.16l-.15.78-.16.74c.13-.06.25-.12.36-.19v1.12a4.58 4.58 0 01-2 .39c.2-.31.37-.66.5-1.03.14-.4.25-.82.32-1.21A3 3 0 0155 148v-2a3 3 0 013-3h5a3 3 0 013 3v1h-1v-1a2 2 0 00-2-2h-5a2 2 0 00-2 2v2a2 2 0 001.21 1.84l.74.31zM70 151a3 3 0 00-3-3h-5a3 3 0 00-3 3v2a3 3 0 003 3h3c.75 1 2 2 4 2a6.18 6.18 0 01-.82-2.24A3 3 0 0070 153v-2z" fill="#3844AE"/><path d="M20 244a4 4 0 014-4h152a4 4 0 014 4v32a4 4 0 01-4 4H24a4 4 0 01-4-4v-32z" fill="#5F6EEB"/><path d="M68.42 266h-1.35v-8.98h-4.68V266h-1.36v-10.18h7.4V266zM76.8 261.98a4.7 4.7 0 01-.92 3.04 2.84 2.84 0 01-2.3 1.13 3.56 3.56 0 01-1.9-.53v3.2h-1.29v-10.46h1.29v.8c.31-.28.67-.52 1.06-.71.39-.2.81-.3 1.27-.3.88 0 1.56.35 2.05 1.04.49.7.74 1.62.74 2.79zm-1.33.14c0-.87-.14-1.54-.42-2.02-.28-.48-.73-.72-1.35-.72-.37 0-.72.08-1.06.24-.34.16-.66.37-.96.62v4.33a3.5 3.5 0 001.69.42c.66 0 1.18-.24 1.55-.73.37-.48.55-1.2.55-2.14zM84.41 262.19c0 1.28-.3 2.27-.93 2.98a3.15 3.15 0 01-2.47 1.04c-1.07 0-1.9-.36-2.51-1.08-.6-.72-.91-1.7-.91-2.94 0-1.28.31-2.27.94-2.98a3.16 3.16 0 012.48-1.06c1.03 0 1.85.36 2.47 1.06.62.7.93 1.7.93 2.98zm-1.33 0c0-1-.18-1.73-.54-2.2a1.8 1.8 0 00-1.53-.73c-.67 0-1.19.24-1.55.72-.36.48-.54 1.22-.54 2.2 0 .96.18 1.69.54 2.19.36.49.88.73 1.55.73a1.8 1.8 0 001.53-.72c.36-.49.54-1.22.54-2.2zM89.05 266.18a3.8 3.8 0 01-2.84-1.03c-.67-.69-1-1.66-1-2.92 0-1.25.32-2.24.97-2.97.65-.74 1.5-1.1 2.56-1.1.47 0 .9.06 1.26.2.36.13.68.35.95.64.28.3.49.65.63 1.07.15.42.22.94.22 1.55v.7h-5.29c0 .88.22 1.56.67 2.03.45.47 1.06.7 1.85.7a3.56 3.56 0 001.57-.34 5.73 5.73 0 00.98-.58h.08v1.4l-.56.23a6.92 6.92 0 01-1.29.36c-.2.04-.45.06-.76.06zm1.5-4.85c0-.34-.05-.64-.12-.9a1.84 1.84 0 00-.32-.63c-.15-.2-.34-.34-.58-.44a2.2 2.2 0 00-.87-.15 2.05 2.05 0 00-1.96 1.27c-.1.25-.16.53-.19.85h4.04zM99.25 266h-1.6l-2.62-3.52h-.65V266H93.1v-7.64h1.28v3.33c.34 0 .62-.08.85-.2.24-.14.44-.4.6-.8a11.36 11.36 0 00.32-.79c.2-.56.48-.95.83-1.19a2.5 2.5 0 011.39-.35h.35v1.11h-.3c-.36 0-.63.08-.8.23a1.7 1.7 0 00-.46.8c-.13.4-.28.71-.45.93-.17.22-.37.4-.58.5l3.12 4.07zM105.65 259.5h-2.6v6.5h-1.28v-6.5h-2.6v-1.14h6.48v1.13zM112.27 263.63c0 .37-.07.7-.22 1.01-.15.3-.35.54-.6.73-.3.23-.63.4-.97.49a5 5 0 01-1.32.14h-2.55v-7.64h1.28v2.98h1.3c.58 0 1.03.03 1.34.09.32.06.64.2.95.43.27.2.46.45.6.76.13.3.2.64.2 1.01zm-1.32.02c0-.23-.04-.43-.13-.6a.93.93 0 00-.38-.43c-.2-.12-.41-.19-.66-.2a11.9 11.9 0 00-1.05-.04h-.84v2.6h.82c.45 0 .8-.02 1.06-.06.25-.04.46-.12.65-.23.18-.11.32-.25.4-.41.09-.17.13-.37.13-.63zm3.5 2.35h-1.29v-7.64h1.29V266z" fill="#fff"/><path fill-rule="evenodd" clip-rule="evenodd" d="M39 254h7a1 1 0 011 1v5h-1.03a2 2 0 01-.9-.21l-1.15-.58a2 2 0 00-.9-.21H38v-4a1 1 0 011-1zm-2 5v-2a1 1 0 00-1 1v1h1zm0-3v-1c0-1.1.9-2 2-2h7a2 2 0 012 2 2 2 0 012 2v10a1 1 0 01-1 1H36a1 1 0 01-1-1v-9c0-1.1.9-2 2-2zm11 4h1v-3a1 1 0 00-1-1v4z" fill="#F0F1FD"/><path d="M20 354a4 4 0 014-4h152a4 4 0 014 4v32a4 4 0 01-4 4H24a4 4 0 01-4-4v-32z" fill="#5F6EEB"/><path d="M68.56 376h-1.72l-3.6-4.66h-.85V376h-1.36v-10.18h1.36v4.59c.53-.02.95-.15 1.26-.4.31-.26.57-.62.77-1.08a14.38 14.38 0 00.38-1.06c.27-.78.62-1.31 1.04-1.6.43-.3 1.02-.45 1.77-.45h.42v1.21h-.35c-.55 0-.94.11-1.17.33-.22.21-.42.62-.61 1.22s-.4 1.05-.63 1.33c-.23.28-.51.52-.84.74l4.13 5.35zM75.65 372.19c0 1.28-.31 2.27-.93 2.98a3.15 3.15 0 01-2.48 1.04c-1.06 0-1.9-.36-2.5-1.08-.61-.72-.91-1.7-.91-2.94 0-1.28.3-2.27.93-2.98a3.16 3.16 0 012.48-1.06c1.03 0 1.86.36 2.48 1.06.62.7.93 1.7.93 2.98zm-1.33 0c0-1-.18-1.73-.54-2.2a1.8 1.8 0 00-1.54-.73c-.67 0-1.18.24-1.55.72-.36.48-.54 1.22-.54 2.2 0 .96.18 1.69.54 2.19.37.49.88.73 1.55.73a1.8 1.8 0 001.53-.72c.37-.49.55-1.22.55-2.2zM83.37 371.98a4.7 4.7 0 01-.91 3.04 2.84 2.84 0 01-2.3 1.13 3.56 3.56 0 01-1.9-.53v3.2h-1.3v-10.46h1.3v.8c.31-.28.66-.52 1.05-.71.4-.2.82-.3 1.28-.3.87 0 1.56.35 2.04 1.04.5.7.74 1.62.74 2.79zm-1.32.14c0-.87-.14-1.54-.42-2.02-.28-.48-.73-.72-1.35-.72-.37 0-.72.08-1.06.24-.34.16-.66.37-.97.62v4.33c.34.17.63.28.86.34.24.05.52.08.83.08.67 0 1.18-.24 1.55-.73.37-.48.56-1.2.56-2.14zM89.76 373.89a2 2 0 01-1 1.79c-.27.17-.59.3-.94.38a6.43 6.43 0 01-3.82-.5v-1.42h.08c.3.29.7.52 1.16.68a4.23 4.23 0 002.04.19c.23-.05.43-.12.59-.2.21-.13.36-.27.44-.42.1-.14.14-.34.14-.6 0-.27-.05-.49-.16-.65a.92.92 0 00-.41-.38 1.79 1.79 0 00-.6-.15 6.97 6.97 0 00-.7-.04h-.9v-1.1h.69c.17 0 .39 0 .65-.02.26-.01.46-.05.62-.1.2-.08.35-.18.47-.31.12-.14.18-.37.18-.69a.9.9 0 00-.53-.86 1.56 1.56 0 00-.5-.16 4.24 4.24 0 00-1.78.14c-.4.11-.74.3-1.03.53h-.08v-1.39c.33-.11.7-.21 1.09-.3a5.66 5.66 0 012.18-.03c.34.07.66.18.96.34.28.15.52.37.71.64.2.27.29.6.29 1s-.12.77-.36 1.09c-.23.3-.54.51-.93.61v.05c.43.14.77.37 1.04.67.28.3.41.7.41 1.2zM97.15 376h-1.28v-5.7l-3.6 5.7h-1.15v-7.64h1.27v5.61l3.55-5.6h1.2V376zM105.03 376h-1.28v-3.44h-3.46V376h-1.28v-7.64h1.28v3.1h3.46v-3.1h1.28V376zM111.16 374.12V372l-1.16.12c-.47.04-.84.1-1.13.2-.34.1-.62.26-.85.48a1.2 1.2 0 00-.33.9c0 .44.12.77.37 1 .24.22.6.33 1.08.33.4 0 .77-.09 1.1-.26.33-.18.63-.4.92-.65zm0 1.07l-.42.32a3.78 3.78 0 01-1.17.6c-.21.07-.5.1-.9.1a2.29 2.29 0 01-2.12-1.45 2.63 2.63 0 01-.19-.97c0-.53.11-.98.34-1.35.22-.38.57-.67 1.06-.89.42-.2.93-.33 1.51-.4.59-.08 1.22-.14 1.89-.17v-.25c0-.3-.05-.54-.14-.73a1 1 0 00-.38-.43c-.16-.1-.36-.17-.6-.2a4.86 4.86 0 00-1.78.08c-.4.09-.8.22-1.2.38h-.08v-1.3c.24-.07.58-.14 1.02-.23a7.19 7.19 0 012.64 0c.36.08.68.23.97.45.28.2.49.48.62.81.14.33.2.74.2 1.22V376h-1.27v-.81z" fill="#fff"/><path fill-rule="evenodd" clip-rule="evenodd" d="M42 364h1a1 1 0 011 1h-3a1 1 0 011-1zm-2 1c0-1.1.9-2 2-2h1a2 2 0 012 2h4a1 1 0 010 2h-.17l-1.55 9.33A2 2 0 0145.3 378h-5.62a2 2 0 01-1.97-1.67L36.17 367H36a1 1 0 010-2h4zm1.06 2h2.88l-.09 2h-2.7l-.09-2zm3.8 2l.08-2h2.88l-.33 2h-2.64zm-3.67 1h2.62l-.12 3H41.3l-.12-3zm3.62 0l-.12 3h2.13l.5-3h-2.5zm-3.46 4h2.3l-.13 3h-2.04l-.13-3zm3.3 0l-.13 3h.79a1 1 0 00.98-.84l.36-2.16h-2zm-4.59-7h-2.88l.33 2h2.64l-.09-2zm.13 3h-2.5l.5 3h2.12l-.12-3zm.16 4h-2l.36 2.16a1 1 0 00.98.84h.79l-.13-3z" fill="#F0F1FD"/><defs><clipPath id="clip0"><rect x="230" y="40" width="32" height="32" rx="16" fill="#fff"/></clipPath><filter id="filter0_d" x="226" y="85" width="288" height="128" filterUnits="userSpaceOnUse" color-interpolation-filters="sRGB"><feFlood flood-opacity="0" result="BackgroundImageFix"/><feColorMatrix in="SourceAlpha" values="0 0 0 0 0 0 0 0 0 0 0 0 0 0 0 0 0 0 127 0"/><feOffset dy="2"/><feGaussianBlur stdDeviation="2"/><feColorMatrix values="0 0 0 0 0.219608 0 0 0 0 0.266667 0 0 0 0 0.682353 0 0 0 0.2 0"/><feBlend in2="BackgroundImageFix" result="effect1_dropShadow"/><feBlend in="SourceGraphic" in2="effect1_dropShadow" result="shape"/></filter></defs></svg>