<svg width="230" height="410" viewBox="0 0 230 410" fill="none" xmlns="http://www.w3.org/2000/svg"><path fill="#fff" d="M0 0h230v410H0z"/><path d="M0 0h230v410H0V0z" fill="#3844AE"/><path d="M200 24a4 4 0 014-4h26v370h-26a4 4 0 01-4-4V24z" fill="#F0F1FD"/><path d="M20 24a4 4 0 014-4h152a4 4 0 014 4v32a4 4 0 01-4 4H24a4 4 0 01-4-4V24z" fill="#5F6EEB"/><path d="M67.07 37.02h-4.68V46h-1.36V35.82h6.04v1.2zM74.44 41.98a4.7 4.7 0 01-.91 3.04 2.84 2.84 0 01-2.3 1.13 3.54 3.54 0 01-1.9-.53v3.2h-1.3V38.36h1.3v.8c.31-.28.67-.52 1.05-.71.4-.2.82-.3 1.28-.3.88 0 1.56.35 2.05 1.04.49.7.73 1.62.73 2.8zm-1.32.14c0-.87-.14-1.54-.42-2.02-.28-.48-.73-.72-1.35-.72-.37 0-.72.08-1.06.24a4.5 4.5 0 00-.97.62v4.33a3.48 3.48 0 001.69.42c.67 0 1.19-.24 1.55-.73.37-.48.56-1.2.56-2.14zM80.04 44.12V42l-1.16.12c-.46.04-.84.1-1.13.2-.34.1-.62.26-.84.48a1.2 1.2 0 00-.34.9c0 .44.12.77.37 1 .25.22.6.33 1.08.33.4 0 .77-.09 1.1-.26.33-.18.64-.4.92-.65zm0 1.07l-.42.32a3.79 3.79 0 01-1.17.6c-.2.07-.5.1-.89.1a2.3 2.3 0 01-2.13-1.45 2.63 2.63 0 01-.19-.97c0-.53.12-.98.34-1.35.22-.38.58-.67 1.06-.89.43-.2.93-.33 1.52-.4.58-.08 1.2-.14 1.88-.17v-.25c0-.3-.04-.54-.13-.73a1 1 0 00-.39-.43c-.16-.1-.36-.17-.6-.2a4.81 4.81 0 00-1.78.08c-.4.09-.8.22-1.2.38h-.07v-1.3c.23-.07.57-.15 1.01-.23a7.18 7.18 0 012.64 0c.36.08.69.23.97.45.28.2.49.48.63.81.13.33.2.74.2 1.22V46h-1.28v-.81zM92.42 41.98a5.9 5.9 0 01-.26 1.8c-.16.52-.38.95-.65 1.29-.28.34-.6.6-.95.78-.35.17-.71.26-1.1.26-.28 0-.54-.06-.76-.16-.21-.11-.4-.2-.54-.29v3.16h-1.27v-3.16c-.27.15-.49.26-.65.33-.16.08-.42.12-.78.12-.86 0-1.55-.35-2.06-1.04a4.73 4.73 0 01-.77-2.86c0-.64.08-1.21.24-1.71.17-.5.4-.93.68-1.28.26-.32.57-.58.92-.75.35-.19.71-.28 1.09-.28.27 0 .51.05.72.15.22.09.42.2.6.31v-3.29h1.28v3.3c.2-.13.43-.24.69-.33.26-.1.52-.14.8-.14.85 0 1.53.35 2.02 1.04.5.68.75 1.6.75 2.75zm-1.32.14c0-.87-.15-1.55-.45-2.06-.29-.5-.72-.76-1.3-.76-.23 0-.44.03-.63.1l-.56.2v5.09l.48.23c.13.06.31.09.56.09.59 0 1.05-.24 1.4-.73.33-.49.5-1.2.5-2.16zm-4.21 2.57v-5.1a5.67 5.67 0 00-.5-.2 1.6 1.6 0 00-.54-.09c-.59 0-1.05.23-1.4.7-.33.45-.5 1.17-.5 2.14 0 .9.15 1.6.45 2.1.31.51.76.77 1.33.77.23 0 .43-.04.62-.1l.54-.22zM99.8 46h-1.27v-5.7l-3.6 5.7h-1.16v-7.64h1.27v5.61l3.56-5.6h1.2V46zM107.8 46h-1.6l-2.61-3.52h-.65V46h-1.28v-7.64h1.28v3.33c.34 0 .62-.08.85-.2.24-.15.44-.4.6-.8a12.97 12.97 0 00.32-.79c.2-.56.48-.95.83-1.19a2.5 2.5 0 011.39-.35h.35v1.11h-.3c-.36 0-.63.08-.81.23-.18.14-.33.41-.45.8-.13.4-.28.71-.45.93a2 2 0 01-.58.51L107.8 46zM114.66 46h-1.27v-5.7l-3.6 5.7h-1.16v-7.64h1.27v5.61l3.56-5.6h1.2V46z" fill="#fff"/><path fill-rule="evenodd" clip-rule="evenodd" d="M42.5 34v6.5l5.63 3.25A6.5 6.5 0 0042.5 34zm0-1a7.5 7.5 0 11-5.3 2.2 7.48 7.48 0 015.3-2.2z" fill="#F0F1FD"/><path d="M20 79a4 4 0 014-4h152a4 4 0 014 4v32a4 4 0 01-4 4H24a4 4 0 01-4-4V79z" fill="#5F6EEB"/><path d="M68.56 101h-1.72l-3.6-4.66h-.85V101h-1.36V90.82h1.36v4.59c.53-.02.95-.15 1.26-.4.31-.26.57-.62.77-1.09a14.32 14.32 0 00.38-1.05c.27-.78.62-1.31 1.04-1.6.43-.3 1.02-.45 1.77-.45h.42v1.21h-.35c-.55 0-.94.11-1.17.33-.22.21-.42.62-.61 1.22a4 4 0 01-.63 1.33c-.23.28-.51.52-.84.74l4.13 5.35z" fill="#fff"/><path d="M75.28 101h-1.29v-6.56h-2.62a388.03 388.03 0 01-.08 2.04c-.03.72-.08 1.32-.15 1.8-.06.48-.14.87-.24 1.16a2.62 2.62 0 01-.74 1.16c-.16.14-.32.24-.5.31s-.38.1-.6.1a8.7 8.7 0 01-.52-.01v-1.12h.17a1.1 1.1 0 00.44-.04c.1-.03.2-.09.28-.17.22-.23.4-.62.5-1.17.1-.56.18-1.34.22-2.35l.05-1.32.05-1.47h5.03V101zM83.17 101H81.9v-5.7l-3.6 5.7h-1.16v-7.64h1.28v5.61l3.55-5.6h1.2V101zM88.35 101.18a3.8 3.8 0 01-2.84-1.03c-.67-.69-1-1.66-1-2.92 0-1.25.32-2.24.97-2.97.66-.74 1.5-1.1 2.56-1.1.47 0 .9.06 1.26.2.36.13.68.35.96.64.27.3.48.65.62 1.07.15.42.22.94.22 1.55v.7h-5.29c0 .88.23 1.56.67 2.03.45.47 1.07.7 1.85.7a3.55 3.55 0 001.57-.34 5.76 5.76 0 00.98-.58h.08v1.4l-.56.23a6.93 6.93 0 01-1.29.36c-.2.04-.45.06-.76.06zm1.5-4.85c0-.35-.05-.64-.12-.9a1.84 1.84 0 00-.31-.63c-.16-.2-.35-.34-.59-.44a2.2 2.2 0 00-.86-.15A2.04 2.04 0 0086 95.48c-.1.24-.17.53-.2.85h4.04zM98.43 101h-1.28v-3.44h-3.46V101H92.4v-7.64h1.29v3.1h3.46v-3.1h1.28V101zM105.87 94.5h-2.6v6.5H102v-6.5h-2.6v-1.14h6.48v1.13zM112.5 98.63c0 .37-.08.7-.23 1.01-.15.3-.35.54-.6.73-.3.23-.63.4-.97.49a5 5 0 01-1.32.14h-2.55v-7.64h1.28v2.98h1.3c.58 0 1.03.03 1.34.09.32.06.64.2.95.43.27.2.46.45.6.76.13.3.2.64.2 1.01zm-1.33.03c0-.24-.04-.44-.13-.61a.93.93 0 00-.39-.43c-.19-.12-.4-.19-.65-.2-.24-.03-.6-.04-1.05-.04h-.84v2.6h.81c.46 0 .81-.02 1.06-.06.25-.04.47-.12.65-.23.2-.11.33-.25.4-.41.1-.17.14-.37.14-.62zm3.5 2.34h-1.29v-7.64h1.29V101z" fill="#fff"/><path fill-rule="evenodd" clip-rule="evenodd" d="M42.5 88a3.5 3.5 0 100 7 3.5 3.5 0 000-7zm-6.4 14c.21-1.2.83-2.33 1.78-3.22A6.78 6.78 0 0142.5 97c1.75 0 3.4.65 4.62 1.78a5.85 5.85 0 011.79 3.22H36.1zm13.9 1a6.84 6.84 0 00-2.2-4.95A7.78 7.78 0 0042.5 96c-1.99 0-3.9.74-5.3 2.05A6.84 6.84 0 0035 103h15z" fill="#F0F1FD"/><path d="M20 189a4 4 0 014-4h152a4 4 0 014 4v32a4 4 0 01-4 4H24a4 4 0 01-4-4v-32z" fill="#5F6EEB"/><path d="M69.3 213.3H68v-2.33h-6.6v2.33h-1.29v-3.5h.56c.59-.97 1.07-2.25 1.43-3.82.36-1.57.54-3.3.54-5.16h5.68v8.98h.97v3.5zm-2.32-3.5V202h-3.06a21.21 21.21 0 01-.61 4.47 12.19 12.19 0 01-1.33 3.33h5zM76.78 207.19c0 1.28-.3 2.27-.93 2.98a3.15 3.15 0 01-2.47 1.04c-1.06 0-1.9-.36-2.51-1.08-.6-.72-.91-1.7-.91-2.94 0-1.28.31-2.27.94-2.98a3.16 3.16 0 012.48-1.06c1.03 0 1.85.36 2.47 1.06.62.7.93 1.7.93 2.98zm-1.32 0c0-1-.18-1.73-.54-2.2a1.8 1.8 0 00-1.54-.73c-.67 0-1.19.24-1.55.72-.36.48-.54 1.22-.54 2.2 0 .96.18 1.69.54 2.19.36.49.88.73 1.55.73a1.8 1.8 0 001.53-.72c.36-.49.55-1.22.55-2.2zM84.25 211h-1.6l-2.62-3.52h-.64V211H78.1v-7.64h1.29v3.33c.33 0 .61-.08.84-.2.24-.15.44-.4.6-.8a11.16 11.16 0 00.32-.79c.2-.56.48-.96.83-1.19.36-.23.82-.35 1.4-.35h.34v1.11h-.3c-.35 0-.62.08-.8.23a1.7 1.7 0 00-.46.8c-.13.4-.28.71-.45.93-.17.22-.36.4-.57.5l3.1 4.07zM91.08 203.36l-4.11 10.46h-1.38l1.37-3.19-2.77-7.27h1.38l2.09 5.66 2.08-5.66h1.34zM99.13 211h-1.27v-6l-1.83 3.9h-.96l-1.82-3.9v6h-1.2v-7.64h1.55l2 4.24 1.95-4.24h1.58V211zM104.3 211.18a3.8 3.8 0 01-2.83-1.03c-.67-.69-1-1.66-1-2.92 0-1.25.32-2.24.97-2.97.65-.74 1.5-1.1 2.56-1.1.47 0 .89.06 1.25.2.37.13.69.35.96.64.27.3.48.65.63 1.07.15.42.22.94.22 1.55v.7h-5.3c0 .88.23 1.56.68 2.03.44.47 1.06.7 1.85.7a3.56 3.56 0 001.56-.34 5.63 5.63 0 00.99-.58h.08v1.4l-.57.23a6.85 6.85 0 01-1.28.36c-.2.04-.46.06-.77.06zm1.5-4.85c0-.34-.04-.64-.11-.9a1.84 1.84 0 00-.32-.63c-.15-.2-.34-.34-.58-.44a2.2 2.2 0 00-.87-.15 2.05 2.05 0 00-1.96 1.27c-.1.24-.16.53-.2.85h4.05zM114.39 211h-1.29v-3.44h-3.46V211h-1.28v-7.64h1.28v3.1h3.46v-3.1h1.29V211zM121.82 204.5h-2.6v6.5h-1.28v-6.5h-2.6v-1.14h6.48v1.13zM128.45 208.63c0 .37-.08.7-.23 1.01-.14.3-.34.54-.6.73-.3.23-.62.4-.96.49a5 5 0 01-1.32.14h-2.56v-7.64h1.29v2.98h1.3c.58 0 1.02.03 1.33.09.32.06.64.2.95.43.27.2.47.45.6.76.13.3.2.64.2 1.01zm-1.33.03c0-.24-.04-.44-.12-.61a.93.93 0 00-.4-.43c-.18-.12-.4-.19-.65-.2a11.9 11.9 0 00-1.04-.04h-.84v2.6h.81c.46 0 .8-.02 1.06-.06.25-.04.47-.12.65-.23.19-.11.32-.25.4-.41.09-.17.13-.37.13-.63zm3.5 2.34h-1.28v-7.64h1.28V211z" fill="#fff"/><path fill-rule="evenodd" clip-rule="evenodd" d="M35 200v9c0 1.1.9 2 2 2h1v-9a3 3 0 013-3h3l-.41-.41a2 2 0 00-1.42-.59H37a2 2 0 00-2 2zm6 12h7a1 1 0 001-1v-6h-4v-4h-4a1 1 0 00-1 1v9a1 1 0 001 1zm5-10.59V204h2.59L46 201.41zM41 200a2 2 0 00-2 2v9c0 1.1.9 2 2 2h7a2 2 0 002-2v-6.17a2 2 0 00-.59-1.42l-2.82-2.82a2 2 0 00-1.42-.59H41z" fill="#F0F1FD"/><path d="M20 299a4 4 0 014-4h152a4 4 0 014 4v32a4 4 0 01-4 4H24a4 4 0 01-4-4v-32z" fill="#5F6EEB"/><path d="M68.42 321h-1.35v-4.98h-4.68V321h-1.36v-10.18h1.36v4h4.68v-4h1.35V321zM74.66 319.12V317l-1.17.12c-.46.04-.84.1-1.12.2-.35.1-.63.26-.85.48-.22.21-.34.52-.34.9 0 .44.13.77.37 1 .25.22.6.33 1.08.33.4 0 .78-.09 1.1-.26.33-.18.64-.4.93-.65zm0 1.07l-.43.32a3.84 3.84 0 01-1.17.6c-.2.07-.5.1-.89.1a2.28 2.28 0 01-2.13-1.45 2.63 2.63 0 01-.18-.97c0-.53.1-.98.33-1.35.23-.38.58-.67 1.06-.89.43-.2.94-.33 1.52-.4a24.4 24.4 0 011.89-.17v-.25c0-.3-.05-.54-.14-.73a1 1 0 00-.38-.43c-.17-.1-.37-.17-.6-.2a4.86 4.86 0 00-1.78.08c-.4.09-.8.22-1.2.38h-.08v-1.3c.24-.07.58-.14 1.02-.23a7.19 7.19 0 012.64 0c.36.08.68.23.97.45.28.2.48.48.62.81.14.33.2.74.2 1.22V321h-1.27v-.81zM80.78 321.17c-.52 0-1-.08-1.44-.24a3 3 0 01-1.13-.74 3.35 3.35 0 01-.73-1.23 5.4 5.4 0 01-.26-1.77c0-.67.09-1.25.27-1.73.18-.5.42-.9.72-1.23.3-.34.68-.6 1.12-.77a4.13 4.13 0 012.66-.1c.4.12.74.26 1.05.41v1.45h-.08a4.26 4.26 0 00-1.5-.82c-.24-.06-.48-.1-.7-.1-.66 0-1.2.25-1.6.76-.4.5-.6 1.21-.6 2.13 0 .9.19 1.6.57 2.12.4.5.94.75 1.63.75.42 0 .82-.09 1.2-.26.38-.18.71-.4 1-.67h.08v1.44l-.48.22a6.3 6.3 0 01-1.1.33c-.18.03-.4.05-.68.05zM89.8 314.5h-2.6v6.5h-1.3v-6.5h-2.59v-1.14h6.48v1.13zM97.15 316.98a4.7 4.7 0 01-.91 3.04 2.84 2.84 0 01-2.3 1.13 3.56 3.56 0 01-1.9-.53v3.2h-1.3v-10.46h1.3v.8c.31-.28.67-.52 1.05-.71.4-.2.82-.3 1.28-.3.88 0 1.56.35 2.05 1.04.49.7.73 1.62.73 2.79zm-1.32.14c0-.87-.14-1.54-.42-2.02-.28-.48-.73-.72-1.35-.72-.37 0-.72.08-1.06.24-.34.16-.66.37-.97.62v4.33c.34.17.63.28.86.34.25.05.52.08.83.08.67 0 1.18-.24 1.55-.73.37-.48.56-1.2.56-2.14zM104.77 317.19c0 1.28-.31 2.27-.93 2.98a3.15 3.15 0 01-2.48 1.04c-1.06 0-1.9-.36-2.5-1.08-.61-.72-.91-1.7-.91-2.94 0-1.28.3-2.27.93-2.98a3.16 3.16 0 012.48-1.06c1.03 0 1.86.36 2.48 1.06.62.7.93 1.7.93 2.98zm-1.33 0c0-1-.18-1.73-.54-2.2a1.8 1.8 0 00-1.54-.73c-.67 0-1.18.24-1.55.72-.36.48-.54 1.22-.54 2.2 0 .96.18 1.69.54 2.19.37.49.88.73 1.55.73a1.8 1.8 0 001.54-.72c.36-.49.54-1.22.54-2.2zM112.12 321h-1.27v-5.7l-3.6 5.7h-1.16v-7.64h1.27v5.61l3.55-5.6h1.2V321zm-.58-11.18c0 .39-.05.75-.14 1.07a2.07 2.07 0 01-1.1 1.35c-.27.12-.6.18-1 .18-.38 0-.7-.06-.99-.18-.28-.13-.51-.31-.7-.54-.2-.23-.33-.5-.43-.82-.1-.32-.14-.68-.14-1.06h1.1c0 .61.1 1.06.3 1.33.18.27.47.4.85.4a1 1 0 00.84-.4c.2-.26.3-.7.3-1.33h1.11zM120.12 321h-1.6l-2.62-3.52h-.64V321h-1.28v-7.64h1.28v3.33c.33 0 .62-.08.85-.2.24-.14.44-.4.6-.8a11.17 11.17 0 00.32-.79c.2-.56.47-.95.83-1.19a2.5 2.5 0 011.39-.35h.35v1.11h-.3c-.36 0-.63.08-.81.23a1.7 1.7 0 00-.45.8c-.13.4-.28.71-.45.93-.18.22-.37.4-.58.5l3.11 4.07zM126.98 321h-1.27v-5.7l-3.6 5.7h-1.16v-7.64h1.27v5.61l3.56-5.6h1.2V321z" fill="#fff"/><path fill-rule="evenodd" clip-rule="evenodd" d="M44 310.6a1 1 0 00.54.89l.39.22a1 1 0 001.03.03l1.18-.67a.53.53 0 01.71.19l1.08 1.83c.14.24.06.53-.18.66l-1.25.71a1 1 0 00-.5.9 4.54 4.54 0 010 .28 1 1 0 00.5.9l1.26.7c.23.14.3.43.17.67l-1.08 1.83a.53.53 0 01-.7.2l-1.19-.68a1 1 0 00-1.03.03l-.39.22a1 1 0 00-.54.89v1.1a.5.5 0 01-.5.5h-2a.5.5 0 01-.5-.5v-1.1a1 1 0 00-.54-.89 4.5 4.5 0 01-.38-.22 1 1 0 00-1.04-.03l-1.18.68a.53.53 0 01-.71-.2l-1.08-1.83a.47.47 0 01.18-.66l1.25-.7a1 1 0 00.5-.9 4.75 4.75 0 010-.29 1 1 0 00-.5-.9l-1.26-.7a.47.47 0 01-.17-.67l1.08-1.83a.53.53 0 01.7-.2l1.19.68a1 1 0 001.03-.03l.39-.22a1 1 0 00.54-.89v-1.1c0-.28.22-.5.5-.5h2c.28 0 .5.22.5.5v1.1zm1-1.1v1.1c.16.08.32.17.47.27l.47-.27.06-.03.65-.37c.72-.41 1.64-.16 2.06.55l1.08 1.84c.42.71.18 1.62-.54 2.03l-.54.3-.43.25-.28.16a5.49 5.49 0 010 .34l.28.16.43.25.54.3c.72.4.96 1.32.54 2.03l-1.08 1.84c-.42.71-1.34.96-2.06.55l-.65-.37-.06-.03-.47-.27c-.15.1-.31.19-.47.27v1.1c0 .83-.67 1.5-1.5 1.5h-2a1.5 1.5 0 01-1.5-1.5v-1.1a5.37 5.37 0 01-.46-.27l-.47.27-.07.04-.65.37c-.72.4-1.64.16-2.06-.56l-1.08-1.83a1.47 1.47 0 01.54-2.04l.54-.3.43-.24.28-.17a5.5 5.5 0 010-.34l-.28-.16-.43-.24-.54-.3a1.47 1.47 0 01-.54-2.04l1.08-1.84a1.53 1.53 0 012.06-.55l.65.37.06.03.47.27c.15-.1.31-.19.47-.27v-1.1c0-.83.67-1.5 1.5-1.5h2c.83 0 1.5.67 1.5 1.5zm-2.5 8.5a2.5 2.5 0 100-5 2.5 2.5 0 000 5z" fill="#F0F1FD"/><path d="M40 134a4 4 0 014-4h156v40H44a4 4 0 01-4-4v-32z" fill="#F0F1FD"/><path d="M85.44 156.2a4.84 4.84 0 01-3.64-1.38c-.9-.93-1.34-2.23-1.34-3.9 0-1.61.45-2.9 1.34-3.85a4.76 4.76 0 013.65-1.45 8 8 0 012.02.26 11.67 11.67 0 011.42.59v2.43h-.26a12.79 12.79 0 00-1.1-.84 4 4 0 00-.78-.37 2.84 2.84 0 00-1.9.02c-.32.11-.6.31-.89.6-.25.26-.46.61-.62 1.05-.16.44-.24.97-.24 1.57 0 .63.08 1.16.25 1.6.17.43.39.77.66 1.04.27.25.56.44.88.55a2.96 2.96 0 002.72-.37 5.08 5.08 0 001.05-.82h.23v2.4l-.65.3a6.28 6.28 0 01-1.65.5c-.28.04-.66.07-1.15.07zM97.64 152.16c0 1.27-.35 2.26-1.04 3-.7.72-1.67 1.08-2.93 1.08a3.87 3.87 0 01-2.92-1.09 4.16 4.16 0 01-1.04-2.99c0-1.27.34-2.27 1.04-2.99a3.87 3.87 0 012.92-1.09c1.26 0 2.23.37 2.93 1.1.69.72 1.04 1.72 1.04 2.98zm-2.46.02c0-.46-.04-.84-.11-1.14-.08-.3-.18-.54-.31-.73-.14-.19-.3-.32-.48-.4a1.52 1.52 0 00-.6-.11c-.22 0-.42.03-.59.1a1.1 1.1 0 00-.48.38c-.13.18-.24.42-.33.73-.08.31-.12.7-.12 1.17s.04.85.12 1.14c.07.29.18.52.3.7.13.17.29.3.48.38a1.6 1.6 0 001.21 0c.2-.08.36-.2.48-.37.14-.2.25-.43.32-.7.08-.28.11-.66.11-1.15zM106.28 152.16c0 1.27-.35 2.26-1.04 3-.69.72-1.66 1.08-2.93 1.08a3.87 3.87 0 01-2.92-1.09 4.16 4.16 0 01-1.04-2.99c0-1.27.34-2.27 1.04-2.99a3.87 3.87 0 012.92-1.09c1.26 0 2.24.37 2.93 1.1.7.72 1.04 1.72 1.04 2.98zm-2.46.02c0-.46-.03-.84-.11-1.14-.08-.3-.18-.54-.31-.73-.14-.19-.3-.32-.48-.4a1.52 1.52 0 00-.6-.11c-.22 0-.41.03-.59.1a1.1 1.1 0 00-.48.38c-.13.18-.24.42-.33.73-.08.31-.12.7-.12 1.17s.04.85.12 1.14c.08.29.18.52.3.7.13.17.29.3.48.38a1.6 1.6 0 001.21 0c.2-.08.36-.2.48-.37.14-.2.25-.43.32-.7.08-.28.11-.66.11-1.15zM114.13 149.54c.29.3.52.66.69 1.1.16.43.25.97.25 1.62 0 1.2-.36 2.16-1.07 2.9a3.85 3.85 0 01-2.89 1.08c-1.33 0-2.32-.43-2.97-1.3-.64-.85-.97-2.14-.97-3.86a10.56 10.56 0 01.27-2.24c.1-.4.23-.8.41-1.2.18-.4.4-.72.65-.98.28-.29.67-.54 1.15-.75a7 7 0 012.05-.45 30.58 30.58 0 012.84-.16v1.8a63.15 63.15 0 00-2.36.16 8.3 8.3 0 00-.8.1c-.26.05-.5.14-.73.25-.23.12-.41.27-.56.45-.1.15-.2.33-.27.57-.07.23-.12.52-.15.86.33-.24.7-.43 1.06-.58a3.37 3.37 0 012.41 0c.38.14.7.35.98.63zm-2 4.55c.14-.18.25-.4.34-.65.1-.26.14-.62.14-1.1 0-.55-.14-1-.43-1.32-.28-.34-.65-.5-1.12-.5a2.99 2.99 0 00-1.42.37V151.32c0 .66.01 1.16.05 1.5.05.34.14.66.28.95.12.25.28.43.48.56.2.13.43.2.7.2.14 0 .31-.04.5-.1.18-.08.34-.19.47-.34zM128.2 157.9h-2.13V156h-9.73v-7.68h2.39v6.02h1.96v-6.02h2.39v6.02h1.97v-6.02h2.39v6.02h.75v3.56zM133.34 156.2c-1.45 0-2.56-.34-3.34-1.03-.76-.7-1.15-1.68-1.15-2.96 0-1.26.36-2.26 1.08-3a4 4 0 013.02-1.13c1.18 0 2.06.32 2.65.95.6.64.9 1.54.9 2.72v.87h-5.25c.02.35.1.65.22.9.13.23.3.42.51.56.2.14.45.24.72.3a4.25 4.25 0 001.71 0 4.15 4.15 0 001.28-.52l.41-.27h.25v1.98l-.53.22a6.42 6.42 0 01-2.47.42zm.8-5.03c-.02-.5-.14-.89-.36-1.15-.22-.27-.56-.4-1.01-.4-.47 0-.83.14-1.1.42-.26.28-.4.66-.43 1.13h2.9zM144.98 156h-2.39v-3.29h-2.47V156h-2.4v-7.68h2.4v2.66h2.47v-2.66h2.4V156zM154.1 156h-2.34v-4.66l-2.94 4.66h-2v-7.68h2.35v4.17l2.69-4.17h2.25V156zM162.64 156h-2.39v-2.67h-.72l-1.84 2.67h-2.68l2.2-3a2.89 2.89 0 01-1.2-.92 2.47 2.47 0 01-.37-1.43c0-.43.08-.78.25-1.07.16-.3.39-.54.67-.74.25-.17.55-.3.88-.39.35-.08.73-.13 1.15-.13h4.05V156zm-2.39-4.17v-1.91h-1.1c-.33 0-.6.07-.79.23-.19.15-.28.37-.28.66 0 .36.1.62.28.78.19.16.46.24.83.24h1.06z" fill="#3844AE"/><path fill-rule="evenodd" clip-rule="evenodd" d="M57.95 150.16l-.15.78-.16.74c.13-.06.25-.12.36-.19v1.12a4.58 4.58 0 01-2 .39c.2-.31.37-.66.5-1.03.14-.4.25-.82.32-1.21A3 3 0 0155 148v-2a3 3 0 013-3h5a3 3 0 013 3v1h-1v-1a2 2 0 00-2-2h-5a2 2 0 00-2 2v2a2 2 0 001.21 1.84l.74.31zM70 151a3 3 0 00-3-3h-5a3 3 0 00-3 3v2a3 3 0 003 3h3c.75 1 2 2 4 2a6.18 6.18 0 01-.82-2.24A3 3 0 0070 153v-2z" fill="#3844AE"/><path d="M20 244a4 4 0 014-4h152a4 4 0 014 4v32a4 4 0 01-4 4H24a4 4 0 01-4-4v-32z" fill="#5F6EEB"/><path d="M68.42 266h-1.35v-8.98h-4.68V266h-1.36v-10.18h7.4V266zM76.8 261.98a4.7 4.7 0 01-.92 3.04 2.84 2.84 0 01-2.3 1.13 3.56 3.56 0 01-1.9-.53v3.2h-1.29v-10.46h1.29v.8c.31-.28.67-.52 1.06-.71.39-.2.81-.3 1.27-.3.88 0 1.56.35 2.05 1.04.49.7.74 1.62.74 2.79zm-1.33.14c0-.87-.14-1.54-.42-2.02-.28-.48-.73-.72-1.35-.72-.37 0-.72.08-1.06.24-.34.16-.66.37-.96.62v4.33a3.5 3.5 0 001.69.42c.66 0 1.18-.24 1.55-.73.37-.48.55-1.2.55-2.14zM84.41 262.19c0 1.28-.3 2.27-.93 2.98a3.15 3.15 0 01-2.47 1.04c-1.07 0-1.9-.36-2.51-1.08-.6-.72-.91-1.7-.91-2.94 0-1.28.31-2.27.94-2.98a3.16 3.16 0 012.48-1.06c1.03 0 1.85.36 2.47 1.06.62.7.93 1.7.93 2.98zm-1.33 0c0-1-.18-1.73-.54-2.2a1.8 1.8 0 00-1.53-.73c-.67 0-1.19.24-1.55.72-.36.48-.54 1.22-.54 2.2 0 .96.18 1.69.54 2.19.36.49.88.73 1.55.73a1.8 1.8 0 001.53-.72c.36-.49.54-1.22.54-2.2zM89.05 266.18a3.8 3.8 0 01-2.84-1.03c-.67-.69-1-1.66-1-2.92 0-1.25.32-2.24.97-2.97.65-.74 1.5-1.1 2.56-1.1.47 0 .9.06 1.26.2.36.13.68.35.95.64.28.3.49.65.63 1.07.15.42.22.94.22 1.55v.7h-5.29c0 .88.22 1.56.67 2.03.45.47 1.06.7 1.85.7a3.56 3.56 0 001.57-.34 5.73 5.73 0 00.98-.58h.08v1.4l-.56.23a6.92 6.92 0 01-1.29.36c-.2.04-.45.06-.76.06zm1.5-4.85c0-.34-.05-.64-.12-.9a1.84 1.84 0 00-.32-.63c-.15-.2-.34-.34-.58-.44a2.2 2.2 0 00-.87-.15 2.05 2.05 0 00-1.96 1.27c-.1.25-.16.53-.19.85h4.04zM99.25 266h-1.6l-2.62-3.52h-.65V266H93.1v-7.64h1.28v3.33c.34 0 .62-.08.85-.2.24-.14.44-.4.6-.8a11.36 11.36 0 00.32-.79c.2-.56.48-.95.83-1.19a2.5 2.5 0 011.39-.35h.35v1.11h-.3c-.36 0-.63.08-.8.23a1.7 1.7 0 00-.46.8c-.13.4-.28.71-.45.93-.17.22-.37.4-.58.5l3.12 4.07zM105.65 259.5h-2.6v6.5h-1.28v-6.5h-2.6v-1.14h6.48v1.13zM112.27 263.63c0 .37-.07.7-.22 1.01-.15.3-.35.54-.6.73-.3.23-.63.4-.97.49a5 5 0 01-1.32.14h-2.55v-7.64h1.28v2.98h1.3c.58 0 1.03.03 1.34.09.32.06.64.2.95.43.27.2.46.45.6.76.13.3.2.64.2 1.01zm-1.32.02c0-.23-.04-.43-.13-.6a.93.93 0 00-.38-.43c-.2-.12-.41-.19-.66-.2a11.9 11.9 0 00-1.05-.04h-.84v2.6h.82c.45 0 .8-.02 1.06-.06.25-.04.46-.12.65-.23.18-.11.32-.25.4-.41.09-.17.13-.37.13-.63zm3.5 2.35h-1.29v-7.64h1.29V266z" fill="#fff"/><path fill-rule="evenodd" clip-rule="evenodd" d="M39 254h7a1 1 0 011 1v5h-1.03a2 2 0 01-.9-.21l-1.15-.58a2 2 0 00-.9-.21H38v-4a1 1 0 011-1zm-2 5v-2a1 1 0 00-1 1v1h1zm0-3v-1c0-1.1.9-2 2-2h7a2 2 0 012 2 2 2 0 012 2v10a1 1 0 01-1 1H36a1 1 0 01-1-1v-9c0-1.1.9-2 2-2zm11 4h1v-3a1 1 0 00-1-1v4z" fill="#F0F1FD"/><path d="M20 354a4 4 0 014-4h152a4 4 0 014 4v32a4 4 0 01-4 4H24a4 4 0 01-4-4v-32z" fill="#5F6EEB"/><path d="M68.56 376h-1.72l-3.6-4.66h-.85V376h-1.36v-10.18h1.36v4.59c.53-.02.95-.15 1.26-.4.31-.26.57-.62.77-1.08a14.38 14.38 0 00.38-1.06c.27-.78.62-1.31 1.04-1.6.43-.3 1.02-.45 1.77-.45h.42v1.21h-.35c-.55 0-.94.11-1.17.33-.22.21-.42.62-.61 1.22s-.4 1.05-.63 1.33c-.23.28-.51.52-.84.74l4.13 5.35zM75.65 372.19c0 1.28-.31 2.27-.93 2.98a3.15 3.15 0 01-2.48 1.04c-1.06 0-1.9-.36-2.5-1.08-.61-.72-.91-1.7-.91-2.94 0-1.28.3-2.27.93-2.98a3.16 3.16 0 012.48-1.06c1.03 0 1.86.36 2.48 1.06.62.7.93 1.7.93 2.98zm-1.33 0c0-1-.18-1.73-.54-2.2a1.8 1.8 0 00-1.54-.73c-.67 0-1.18.24-1.55.72-.36.48-.54 1.22-.54 2.2 0 .96.18 1.69.54 2.19.37.49.88.73 1.55.73a1.8 1.8 0 001.53-.72c.37-.49.55-1.22.55-2.2zM83.37 371.98a4.7 4.7 0 01-.91 3.04 2.84 2.84 0 01-2.3 1.13 3.56 3.56 0 01-1.9-.53v3.2h-1.3v-10.46h1.3v.8c.31-.28.66-.52 1.05-.71.4-.2.82-.3 1.28-.3.87 0 1.56.35 2.04 1.04.5.7.74 1.62.74 2.79zm-1.32.14c0-.87-.14-1.54-.42-2.02-.28-.48-.73-.72-1.35-.72-.37 0-.72.08-1.06.24-.34.16-.66.37-.97.62v4.33c.34.17.63.28.86.34.24.05.52.08.83.08.67 0 1.18-.24 1.55-.73.37-.48.56-1.2.56-2.14zM89.76 373.89a2 2 0 01-1 1.79c-.27.17-.59.3-.94.38a6.43 6.43 0 01-3.82-.5v-1.42h.08c.3.29.7.52 1.16.68a4.23 4.23 0 002.04.19c.23-.05.43-.12.59-.2.21-.13.36-.27.44-.42.1-.14.14-.34.14-.6 0-.27-.05-.49-.16-.65a.92.92 0 00-.41-.38 1.79 1.79 0 00-.6-.15 6.97 6.97 0 00-.7-.04h-.9v-1.1h.69c.17 0 .39 0 .65-.02.26-.01.46-.05.62-.1.2-.08.35-.18.47-.31.12-.14.18-.37.18-.69a.9.9 0 00-.53-.86 1.56 1.56 0 00-.5-.16 4.24 4.24 0 00-1.78.14c-.4.11-.74.3-1.03.53h-.08v-1.39c.33-.11.7-.21 1.09-.3a5.66 5.66 0 012.18-.03c.34.07.66.18.96.34.28.15.52.37.71.64.2.27.29.6.29 1s-.12.77-.36 1.09c-.23.3-.54.51-.93.61v.05c.43.14.77.37 1.04.67.28.3.41.7.41 1.2zM97.15 376h-1.28v-5.7l-3.6 5.7h-1.15v-7.64h1.27v5.61l3.55-5.6h1.2V376zM105.03 376h-1.28v-3.44h-3.46V376h-1.28v-7.64h1.28v3.1h3.46v-3.1h1.28V376zM111.16 374.12V372l-1.16.12c-.47.04-.84.1-1.13.2-.34.1-.62.26-.85.48a1.2 1.2 0 00-.33.9c0 .44.12.77.37 1 .24.22.6.33 1.08.33.4 0 .77-.09 1.1-.26.33-.18.63-.4.92-.65zm0 1.07l-.42.32a3.78 3.78 0 01-1.17.6c-.21.07-.5.1-.9.1a2.29 2.29 0 01-2.12-1.45 2.63 2.63 0 01-.19-.97c0-.53.11-.98.34-1.35.22-.38.57-.67 1.06-.89.42-.2.93-.33 1.51-.4.59-.08 1.22-.14 1.89-.17v-.25c0-.3-.05-.54-.14-.73a1 1 0 00-.38-.43c-.16-.1-.36-.17-.6-.2a4.86 4.86 0 00-1.78.08c-.4.09-.8.22-1.2.38h-.08v-1.3c.24-.07.58-.14 1.02-.23a7.19 7.19 0 012.64 0c.36.08.68.23.97.45.28.2.49.48.62.81.14.33.2.74.2 1.22V376h-1.27v-.81z" fill="#fff"/><path fill-rule="evenodd" clip-rule="evenodd" d="M42 364h1a1 1 0 011 1h-3a1 1 0 011-1zm-2 1c0-1.1.9-2 2-2h1a2 2 0 012 2h4a1 1 0 010 2h-.17l-1.55 9.33A2 2 0 0145.3 378h-5.62a2 2 0 01-1.97-1.67L36.17 367H36a1 1 0 010-2h4zm1.06 2h2.88l-.09 2h-2.7l-.09-2zm3.8 2l.08-2h2.88l-.33 2h-2.64zm-3.67 1h2.62l-.12 3H41.3l-.12-3zm3.62 0l-.12 3h2.13l.5-3h-2.5zm-3.46 4h2.3l-.13 3h-2.04l-.13-3zm3.3 0l-.13 3h.79a1 1 0 00.98-.84l.36-2.16h-2zm-4.59-7h-2.88l.33 2h2.64l-.09-2zm.13 3h-2.5l.5 3h2.12l-.12-3zm.16 4h-2l.36 2.16a1 1 0 00.98.84h.79l-.13-3z" fill="#F0F1FD"/><path fill-rule="evenodd" clip-rule="evenodd" d="M179 21H21v38h158V21zM20 20v40h160V20H20z" fill="#FFA666"/><path d="M180 20h20v40h-20V20z" fill="#FFA666" fill-opacity=".3"/><path fill-rule="evenodd" clip-rule="evenodd" d="M95.5 60l2.5 4h-2v7h2l-2.5 4-2.5-4h2v-7h-2l2.5-4z" fill="#FFA666"/><path d="M103.6 62.84l-1.98.76v1.26l1.64-.62v5.52h-1.64V71h4.44v-1.24h-1.45v-6.92h-1zM107.44 62.84l-.27 4.54a6.63 6.63 0 012.08-.36c1.3 0 2.22.38 2.22 1.46 0 .96-.87 1.44-2.08 1.44-.85 0-1.77-.2-2.46-.6v1.28c.72.35 1.67.56 2.62.56 1.8 0 3.3-.9 3.3-2.67 0-1.92-1.47-2.6-3.04-2.6-.42 0-.84.05-1.23.14l.12-1.97h3.76v-1.22h-5.02zM115.28 66.14v-.9h-1.14v8.4h1.29v-3.38c.4.45 1.07.9 2.07.9 1.73 0 2.86-1.38 2.86-3.04 0-1.66-1.13-3.04-2.86-3.04-1.08 0-1.76.5-2.22 1.06zm3.77 1.98c0 1.13-.74 1.9-1.79 1.9-.88 0-1.56-.57-1.83-1.2v-1.4c.27-.63.95-1.2 1.83-1.2 1.05 0 1.8.77 1.8 1.9zM124.96 65.24l-1.38 1.94-1.38-1.94h-1.46l2.1 2.82-2.22 2.94h1.46l1.5-2.04 1.5 2.04h1.47l-2.22-2.94 2.1-2.82h-1.47z" fill="#FFA666"/><path fill-rule="evenodd" clip-rule="evenodd" d="M95.5 115l2.5 4h-2v7h2l-2.5 4-2.5-4h2v-7h-2l2.5-4z" fill="#FFA666"/><path d="M103.6 117.84l-1.98.76v1.26l1.64-.62v5.52h-1.64V126h4.44v-1.24h-1.45v-6.92h-1zM107.44 117.84l-.27 4.54a6.63 6.63 0 012.08-.36c1.3 0 2.22.38 2.22 1.46 0 .96-.87 1.44-2.08 1.44-.85 0-1.77-.2-2.46-.6v1.28c.72.35 1.67.56 2.62.56 1.8 0 3.3-.9 3.3-2.67 0-1.92-1.47-2.6-3.04-2.6-.42 0-.84.05-1.23.14l.12-1.97h3.76v-1.22h-5.02zM115.28 121.14v-.9h-1.14v8.4h1.29v-3.38c.4.45 1.07.9 2.07.9 1.73 0 2.86-1.38 2.86-3.04 0-1.66-1.13-3.04-2.86-3.04-1.08 0-1.76.5-2.22 1.06zm3.77 1.98c0 1.13-.74 1.9-1.79 1.9-.88 0-1.56-.57-1.83-1.2v-1.4c.27-.63.95-1.2 1.83-1.2 1.05 0 1.8.77 1.8 1.9zM124.96 120.24l-1.38 1.94-1.38-1.94h-1.46l2.1 2.82-2.22 2.94h1.46l1.5-2.04 1.5 2.04h1.47l-2.22-2.94 2.1-2.82h-1.47z" fill="#FFA666"/><path fill-rule="evenodd" clip-rule="evenodd" d="M95.5 170l2.5 4h-2v7h2l-2.5 4-2.5-4h2v-7h-2l2.5-4z" fill="#FFA666"/><path d="M103.6 172.84l-1.98.76v1.26l1.64-.62v5.52h-1.64V181h4.44v-1.24h-1.45v-6.92h-1zM107.44 172.84l-.27 4.54a6.63 6.63 0 012.08-.36c1.3 0 2.22.38 2.22 1.46 0 .96-.87 1.44-2.08 1.44-.85 0-1.77-.2-2.46-.6v1.28c.72.35 1.67.56 2.62.56 1.8 0 3.3-.9 3.3-2.67 0-1.92-1.47-2.6-3.04-2.6-.42 0-.84.05-1.23.14l.12-1.97h3.76v-1.22h-5.02zM115.28 176.14v-.9h-1.14v8.4h1.29v-3.38c.4.45 1.07.9 2.07.9 1.73 0 2.86-1.38 2.86-3.04 0-1.66-1.13-3.04-2.86-3.04-1.08 0-1.76.5-2.22 1.06zm3.77 1.98c0 1.13-.74 1.9-1.79 1.9-.88 0-1.56-.57-1.83-1.2v-1.4c.27-.63.95-1.2 1.83-1.2 1.05 0 1.8.77 1.8 1.9zM124.96 175.24l-1.38 1.94-1.38-1.94h-1.46l2.1 2.82-2.22 2.94h1.46l1.5-2.04 1.5 2.04h1.47l-2.22-2.94 2.1-2.82h-1.47z" fill="#FFA666"/><path fill-rule="evenodd" clip-rule="evenodd" d="M95.5 225l2.5 4h-2v7h2l-2.5 4-2.5-4h2v-7h-2l2.5-4z" fill="#FFA666"/><path d="M103.6 227.84l-1.98.76v1.26l1.64-.62v5.52h-1.64V236h4.44v-1.24h-1.45v-6.92h-1zM107.44 227.84l-.27 4.54a6.63 6.63 0 012.08-.36c1.3 0 2.22.38 2.22 1.46 0 .96-.87 1.44-2.08 1.44-.85 0-1.77-.2-2.46-.6v1.28c.72.35 1.67.56 2.62.56 1.8 0 3.3-.9 3.3-2.67 0-1.92-1.47-2.6-3.04-2.6-.42 0-.84.05-1.23.14l.12-1.97h3.76v-1.22h-5.02zM115.28 231.14v-.9h-1.14v8.4h1.29v-3.38c.4.45 1.07.9 2.07.9 1.73 0 2.86-1.38 2.86-3.04 0-1.66-1.13-3.04-2.86-3.04-1.08 0-1.76.5-2.22 1.06zm3.77 1.98c0 1.13-.74 1.9-1.79 1.9-.88 0-1.56-.57-1.83-1.2v-1.4c.27-.63.95-1.2 1.83-1.2 1.05 0 1.8.77 1.8 1.9zM124.96 230.24l-1.38 1.94-1.38-1.94h-1.46l2.1 2.82-2.22 2.94h1.46l1.5-2.04 1.5 2.04h1.47l-2.22-2.94 2.1-2.82h-1.47z" fill="#FFA666"/><path fill-rule="evenodd" clip-rule="evenodd" d="M95.5 280l2.5 4h-2v7h2l-2.5 4-2.5-4h2v-7h-2l2.5-4z" fill="#FFA666"/><path d="M103.6 282.84l-1.98.76v1.26l1.64-.62v5.52h-1.64V291h4.44v-1.24h-1.45v-6.92h-1zM107.44 282.84l-.27 4.54a6.63 6.63 0 012.08-.36c1.3 0 2.22.38 2.22 1.46 0 .96-.87 1.44-2.08 1.44-.85 0-1.77-.2-2.46-.6v1.28c.72.35 1.67.56 2.62.56 1.8 0 3.3-.9 3.3-2.67 0-1.92-1.47-2.6-3.04-2.6-.42 0-.84.05-1.23.14l.12-1.97h3.76v-1.22h-5.02zM115.28 286.14v-.9h-1.14v8.4h1.29v-3.38c.4.45 1.07.9 2.07.9 1.73 0 2.86-1.38 2.86-3.04 0-1.66-1.13-3.04-2.86-3.04-1.08 0-1.76.5-2.22 1.06zm3.77 1.98c0 1.13-.74 1.9-1.79 1.9-.88 0-1.56-.57-1.83-1.2v-1.4c.27-.63.95-1.2 1.83-1.2 1.05 0 1.8.77 1.8 1.9zM124.96 285.24l-1.38 1.94-1.38-1.94h-1.46l2.1 2.82-2.22 2.94h1.46l1.5-2.04 1.5 2.04h1.47l-2.22-2.94 2.1-2.82h-1.47z" fill="#FFA666"/><path fill-rule="evenodd" clip-rule="evenodd" d="M95.5 335l2.5 4h-2v7h2l-2.5 4-2.5-4h2v-7h-2l2.5-4z" fill="#FFA666"/><path d="M103.6 337.84l-1.98.76v1.26l1.64-.62v5.52h-1.64V346h4.44v-1.24h-1.45v-6.92h-1zM107.44 337.84l-.27 4.54a6.63 6.63 0 012.08-.36c1.3 0 2.22.38 2.22 1.46 0 .96-.87 1.44-2.08 1.44-.85 0-1.77-.2-2.46-.6v1.28c.72.35 1.67.56 2.62.56 1.8 0 3.3-.9 3.3-2.67 0-1.92-1.47-2.6-3.04-2.6-.42 0-.84.05-1.23.14l.12-1.97h3.76v-1.22h-5.02zM115.28 341.14v-.9h-1.14v8.4h1.29v-3.38c.4.45 1.07.9 2.07.9 1.73 0 2.86-1.38 2.86-3.04 0-1.66-1.13-3.04-2.86-3.04-1.08 0-1.76.5-2.22 1.06zm3.77 1.98c0 1.13-.74 1.9-1.79 1.9-.88 0-1.56-.57-1.83-1.2v-1.4c.27-.63.95-1.2 1.83-1.2 1.05 0 1.8.77 1.8 1.9zM124.96 340.24l-1.38 1.94-1.38-1.94h-1.46l2.1 2.82-2.22 2.94h1.46l1.5-2.04 1.5 2.04h1.47l-2.22-2.94 2.1-2.82h-1.47z" fill="#FFA666"/><path fill-rule="evenodd" clip-rule="evenodd" d="M179 76H21v38h158V76zM20 75v40h160V75H20z" fill="#FFA666"/><path d="M180 75h20v40h-20V75z" fill="#FFA666" fill-opacity=".3"/><path fill-rule="evenodd" clip-rule="evenodd" d="M41 131h158v38H41v-38zm159-1v40H40v-40h160z" fill="#FFA666"/><path d="M40 130H20v40h20v-40z" fill="#FFA666" fill-opacity=".3"/><path fill-rule="evenodd" clip-rule="evenodd" d="M179 186H21v38h158v-38zm-159-1v40h160v-40H20z" fill="#FFA666"/><path d="M180 185h20v40h-20v-40z" fill="#FFA666" fill-opacity=".3"/><path fill-rule="evenodd" clip-rule="evenodd" d="M179 241H21v38h158v-38zm-159-1v40h160v-40H20z" fill="#FFA666"/><path d="M180 240h20v40h-20v-40z" fill="#FFA666" fill-opacity=".3"/><path fill-rule="evenodd" clip-rule="evenodd" d="M179 296H21v38h158v-38zm-159-1v40h160v-40H20z" fill="#FFA666"/><path d="M180 295h20v40h-20v-40z" fill="#FFA666" fill-opacity=".3"/><path fill-rule="evenodd" clip-rule="evenodd" d="M179 351H21v38h158v-38zm-159-1v40h160v-40H20z" fill="#FFA666"/><path d="M180 350h20v40h-20v-40z" fill="#FFA666" fill-opacity=".3"/><path fill-rule="evenodd" clip-rule="evenodd" d="M180 39.5l4 2.5v-2h16v-1h-16v-2l-4 2.5zM180 94.5l4 2.5v-2h16v-1h-16v-2l-4 2.5zM40 149.5l-4 2.5v-2H20v-1h16v-2l4 2.5zM180 204.5l4 2.5v-2h16v-1h-16v-2l-4 2.5zM180 259.5l4 2.5v-2h16v-1h-16v-2l-4 2.5zM180 314.5l4 2.5v-2h16v-1h-16v-2l-4 2.5zM180 369.5l4 2.5v-2h16v-1h-16v-2l-4 2.5z" fill="#FFA666"/><path fill-rule="evenodd" clip-rule="evenodd" d="M19 19h182v372H19V19zm1 1v370h180V20H20z" fill="#99CEFF"/><path fill-rule="evenodd" clip-rule="evenodd" d="M25 22.39l-5-2.89 5-2.89V19h170v-2.39l5 2.89-5 2.89V20H25v2.39z" fill="#99CEFF"/><path d="M95.13 5.84l-1.98.76v1.26l1.63-.62v5.52h-1.63V14h4.44v-1.24h-1.45V5.84h-1zM98.7 7.87c0 .81.44 1.35 1.04 1.74a2.59 2.59 0 00-1.33 2.13c0 1.25 1.07 2.42 3.4 2.42 2.36 0 3.33-1.13 3.33-2.3 0-.97-.6-1.54-1.36-1.93a2.33 2.33 0 001.08-1.98c-.03-1.15-1.13-2.27-3.1-2.27-2.15 0-3.06 1.12-3.06 2.19zm3.2 2.6c.99.31 1.86.55 1.86 1.44 0 .65-.8 1.08-1.9 1.08-1.4 0-2.08-.56-2.1-1.4 0-.52.3-1.1.97-1.5.4.15.81.27 1.17.38zm1.61-2.35c0 .48-.26 1-.8 1.42l-.87-.26c-.87-.27-1.8-.51-1.8-1.42 0-.56.6-1.01 1.66-1.01 1.19 0 1.81.57 1.81 1.27zM106.28 9.92c0 2.39 1.12 4.24 3.66 4.24 2.53 0 3.66-1.85 3.66-4.24s-1.13-4.24-3.66-4.24c-2.54 0-3.66 1.85-3.66 4.24zm5.94 0c0 1.9-.72 2.99-2.28 2.99-1.58 0-2.28-1.1-2.28-2.99 0-1.9.7-2.99 2.28-2.99 1.56 0 2.28 1.1 2.28 2.99zM116.12 9.14v-.9h-1.14v8.4h1.28v-3.38c.4.45 1.07.9 2.08.9 1.72 0 2.85-1.38 2.85-3.04 0-1.66-1.13-3.04-2.85-3.04-1.08 0-1.77.5-2.22 1.06zm3.76 1.98c0 1.13-.74 1.9-1.78 1.9-.9 0-1.56-.57-1.84-1.2v-1.4c.28-.63.95-1.2 1.84-1.2 1.04 0 1.78.77 1.78 1.9zM125.8 8.24l-1.38 1.94-1.39-1.94h-1.46l2.1 2.82-2.22 2.94h1.47l1.5-2.04 1.5 2.04h1.46l-2.22-2.94 2.1-2.82h-1.47z" fill="#99CEFF"/></svg>