<svg width="705" height="143" viewBox="0 0 705 143" fill="none" xmlns="http://www.w3.org/2000/svg"><path d="M0 0h705v143H0V0z" fill="#fff"/><path fill-rule="evenodd" clip-rule="evenodd" d="M704 1H1v141h703V1zM0 0v143h705V0H0z" fill="#AAA"/><path d="M140 39h153v80H140V39z" fill="#CBEAC8"/><path d="M20 39h120v80H20V39z" fill="#fff"/><path fill-rule="evenodd" clip-rule="evenodd" d="M138 41H22v76h116V41zM20 39v80h120V39H20z" fill="#4EB543"/><path d="M413 39h152v80H413V39z" fill="#DAD7F4"/><path d="M293 39h120v80H293V39z" fill="#fff"/><path fill-rule="evenodd" clip-rule="evenodd" d="M411 41H295v76h116V41zm-118-2v80h120V39H293z" fill="#744CE6"/><path d="M565 39h120v80H565V39z" fill="#fff"/><path fill-rule="evenodd" clip-rule="evenodd" d="M683 41H567v76h116V41zm-118-2v80h120V39H565z" fill="#FF6B00"/><path d="M293 79l-8 5V74l8 5z" fill="#4EB543"/><path d="M565 79l-8 5V74l8 5z" fill="#744CE6"/><path d="M140 80v-2h145v2H140z" fill="#4EB543"/><path d="M412 80v-2h145v2H412z" fill="#744CE6"/><path d="M23.92 24.16c1.52 0 2.32-1.28 2.32-1.28h.08V24h2.16v-7.84h-2.16v4.16c0 1.04-.72 1.76-1.68 1.76-.88 0-1.44-.56-1.44-1.52v-4.4h-2.16v4.72c0 2 1.28 3.28 2.88 3.28zM30.64 24h2.16V12.8h-2.16V24z" fill="#333"/><path d="M41.12 63h2.16V51.8h-2.16V63zM45.45 63h2.16v-7.84h-2.16V63zm1.07-8.88c.69 0 1.25-.56 1.25-1.2 0-.64-.56-1.2-1.24-1.2-.68 0-1.24.56-1.24 1.2 0 .64.56 1.2 1.23 1.2z" fill="#4EB543"/><path d="M314.12 63h2.16V51.8h-2.16V63zM318.45 63h2.16v-7.84h-2.16V63zm1.07-8.88c.69 0 1.25-.56 1.25-1.2 0-.64-.56-1.2-1.24-1.2-.68 0-1.24.56-1.24 1.2 0 .64.56 1.2 1.23 1.2z" fill="#744CE6"/><path d="M586.12 63h2.16V51.8h-2.16V63zM590.45 63h2.16v-7.84h-2.16V63zm1.07-8.88c.69 0 1.25-.56 1.25-1.2 0-.64-.56-1.2-1.24-1.2-.68 0-1.24.56-1.24 1.2 0 .64.56 1.2 1.23 1.2z" fill="#FF6B00"/></svg>