<svg stroke-width=".501" stroke-linejoin="bevel" fill-rule="evenodd" xmlns="http://www.w3.org/2000/svg" overflow="visible" width="128" height="128" viewBox="0 0 96 96"><g transform="matrix(1 0 0 -1 0 96)" fill="none" stroke="#000" font-family="Times New Roman" font-size="16"><path d="M1.117 96.217v-96h96v96h-96z" stroke="none"/><clipPath id="a"><path d="M1.117.218v96h96v-96h-96z"/></clipPath><g clip-path="url(#a)"><path d="M47.458 12.62c23.505 0 42.583-2.763 42.583-6.17 0-3.404-19.076-6.17-42.58-6.17S4.875 3.046 4.875 6.45c0 3.407 19.078 6.17 42.583 6.17z" fill="#000" fill-opacity=".298" stroke="none"/><g stroke-linejoin="round"><path d="M61.852 2.588l-.18.09-1.184.386-1.577 1.01-.077.054-1.47.946-.558.556-.345.255-.66.55-.7-.284c-2.024-.63-4.146-1.113-6.37-1.44L47.125 4.6l-1.056-.642c-1.847-.776-3.58-1.146-5.33-1.312l-.26-.004 2.465.373c-2.058-.484-4.556-.705-6.8-.472l-.12.03-.752-.01c-7.082.143-23.71 2.193-28.3 14.42C4.84 22.66 5.9 30.8 7.375 33.79l.154.223.56 1.642c.395.93.872 1.863 1.435 2.8 3.006 4.997 7.12 9.072 11.317 12.6 7.39 6.214 15.147 13.48 19.942 21.57 1.642 2.77 3.504 6.464 3.875 9.25l.115 1.023c.494 3.463 2.368 12.06 6.225 12.897 2.58.56 4.68-1.38 6.19-3.698l1.752-3.39 2.296 1.26c3.814 1.5 8.966 1.452 12.758-.384l2.308-1.555 1.224 2.68c1.27 2.306 3.026 4.443 5.16 4.557 2.545.137 3.642-2.782 4.062-4.048.582-1.75.887-3.704 1.014-4.507.597-3.74.516-13.637.303-20.184-.496-15.25-3.47-29.083-9.262-39.82l-2.572-4.266.296-3.083c.257-1.487.602-2.963.916-4.156.3-1.137 1.002-3.41 1.2-5.406l-.218-2.665-.017-.458c-.147-.487-.377-.927-.71-1.29l-.175-.107-.047-.075-.324-.153-.782-.482-.303-.03-.378-.18-.612.08-.2-.02-.318.087-.83.108c-2.012.788-4.11 3.038-5.72 5.456l-1.235 2.19-.73-.606-.127-.078.187-.553.59-2.524.095-.312.026-.2.005-.053.184-1.534c.05-1.76-.475-3.354-2.28-3.954-.876-.29-1.868-.184-2.875.148z" fill="#3f3939" stroke="none"/><g stroke-linecap="round"><path d="M74.497 23.614c-.062-2.718.746-6.433 1.376-8.827.66-2.5 2.576-8.302-.458-8.83-3.908-.678-15.033 15.785-5.048 18.67 1.266.367 3.433.37 4.13-1.013z" fill="#3f3939" stroke="none"/><path d="M46.273 81.66c.167 2.573 2.18 11.915 5.074 12.544 3.342.724 6.36-6.047 6.906-8.457 2.986 4.952 15.693 5.115 18.604-.988.527 2.1 3.102 8.73 5.92 8.88 2.23.12 3.12-5.555 3.38-7.187.567-3.554.498-13.275.283-19.875C85.313 31.91 71.422 5.845 41.75 5.845c-2.115 0-7.75-.973-14.08.834-13.25 3.788-24.88 17.416-16.75 30.935 2.873 4.777 6.833 8.717 10.97 12.194 7.407 6.226 15.35 13.64 20.294 21.983 1.64 2.77 3.67 6.717 4.087 9.866z" stroke="#3f3939" fill="#3f3939" stroke-width="1.5" stroke-miterlimit="79.84"/><path d="M60.457 84.86c6.86-1.006 16.607-10.902 23.38-8.156 2-.016 1.932-4.393 2-7.998.164-8.472-.97-19.317-7.655-29.488-3.746-5.7-6.028-6.842-8.47-6.517-6.68.328-16.808 12.83-20.69 22.158-2.85 6.848-4.8 15.77-.838 22.234 3.71.125 10.13 3.72 10.554 7.298.562.178 1.133.335 1.72.47z" fill="#cdc0c0" stroke="none"/><path d="M62.047 21.6c-.078-2.69.934-6.367 1.718-8.736.822-2.472 3.215-8.212-.572-8.734-4.877-.672-18.76 15.617-6.3 18.472 1.58.36 4.285.367 5.154-1.002zM14.72 18.3c-4.013 3.62-.735 19.54-5.613 15.217-1.012-.9-2.932-9.775-.61-15.964 4.163-11.09 19.576-13.22 26.81-13.368 3.9-.08 6.802-.13 10.132 1.27 1.08.455 2.05 1.15 2.28 2.214 1.7 7.82-11.766 6.934-19.36 7.145-5.355.15-10.156.344-13.64 3.485z" fill="#3f3939" stroke="none"/><path d="M59.408 73.386c3.282 0 5.946-2.3 5.946-5.13 0-2.832-2.664-5.132-5.946-5.132-3.282 0-5.946 2.3-5.946 5.13 0 2.832 2.664 5.132 5.946 5.132z" fill="#948888" stroke="none"/><path d="M59.63 72.995c-3.02 0-5.47-1.5-5.47-3.35 0-1.847 2.45-3.348 5.47-3.348 3.017 0 5.468 1.5 5.468 3.35 0 1.847-2.45 3.348-5.47 3.348z" stroke="#5a5656" stroke-width="1.5" fill="#fff" stroke-miterlimit="79.84"/><path d="M79.854 73.386c3.282 0 5.946-2.3 5.946-5.13 0-2.832-2.664-5.132-5.946-5.132-3.282 0-5.946 2.3-5.946 5.13 0 2.832 2.664 5.132 5.946 5.132z" fill="#948888" stroke="none"/><path d="M80.388 73.08c-3.068 0-5.56-1.54-5.56-3.434 0-1.895 2.492-3.435 5.56-3.435 3.068 0 5.56 1.54 5.56 3.437 0 1.895-2.492 3.435-5.56 3.435z" stroke="#5a5656" stroke-width="1.5" fill="#fff" stroke-miterlimit="79.84"/><path d="M77.415 74.667c.18.657.46 1.67.503 2.315m-2.7-3.102c.09.894.33 1.88.543 2.677m-10.067-2.27c-.113.93-.43 1.79-.65 2.677m-1.575-2.27c-.062.93-.446 1.816-.652 2.677" stroke="#5a5656" stroke-width="1.125" stroke-miterlimit="79.84"/><path d="M66.644 65.777c-.798-.477-1.306-5.957-.638-6.727 1.385-1.596 7.627-1.065 8.065.245.49 1.466-.41 5.145-.814 6.48-1.71 1.488-4.442 1.303-6.61.002z" fill="#3f3939" stroke="none"/><path d="M70.66 63.51c1.266.514 3.294 2.072 2.76 2.765-.385.503-1.748.56-2.447.615-1.264.1-1.914.038-3.17-.137-3.37-.467-.198-2.993 2.108-3.403.17-.032.44.032.75.16z" fill="#dc1b6c" stroke="none"/><path d="M84.52 58.273c-1.956.797-4.185 1.836-6.154 2.606m4.08-5.744c-1.705 1.5-3.548 2.777-5.334 4.178m-22.754-1.222c1.81.797 4.37 1.765 6.336 2.533m-4.85-5.43c1.898 1.255 3.9 2.263 5.863 3.403" stroke="#5a5656" stroke-width="1.125" stroke-miterlimit="79.84"/><path d="M54.903 85.043c.484 2.09-1.796 5.415-3.637 4.86-2.86-.866-2.025-11.923 3.523-5.212.045.116.083.233.112.354zm28.347-2.157c.897 1.72 1.04 4.672.22 6.365-2.262.454-5.85-5.544-.435-6.73.075.115.148.238.215.367z" fill="#cdc0c0" stroke="none"/><path d="M14.12 21.418c2.36-3.42 6-4.222 9.487-4.682 11.078-1.466 19.8 3.392 22.645-5.946.614-2.016-.12-3.872-1.506-4.768" stroke="#948888" stroke-width="1.5" stroke-miterlimit="79.84"/><path d="M32.767 15.82c-2.136-3.653-3.896-9.11.9-11.054 3.122-1.265 8.675-.63 11.242.612.337.163 2.66 2.868 2.32 4.516-1.63 7.82-9.26 8.53-13.89 6.852-.19-.293-.384-.603-.574-.926zm36.81-4.52c.623-1.596 3.833-5.952 6.313-5.18 2.306.716.426 6.328-.033 7.392-1.618.278-6.81-1.92-6.28-2.21zm-13.51-2.998c1.61-1.06 5.79-5.1 8.148-4.316 2.58.858.17 6.955-.41 7.983-2.447.603-8.825-3.05-7.737-3.67z" fill="#cdc0c0" stroke="none"/><path d="M59.062 72.246c.98 0 1.774-.795 1.774-1.774 0-.98-.795-1.774-1.774-1.774-.98 0-1.774.795-1.774 1.774 0 .98.795 1.774 1.774 1.774zm20.798 0c.98 0 1.775-.795 1.775-1.774 0-.98-.795-1.774-1.774-1.774-.977 0-1.772.795-1.772 1.774 0 .98.795 1.774 1.774 1.774z" fill="#5a5656" stroke="none"/></g></g><path d="M67.793 12.38c2.82 2.513 5.654 5.26 7.666 8.49M47.35 18.974c1.863-4.254 4.807-8.065 7.495-10.345m5.945 13.765c.96-3.207 1.757-6.57 2.933-9.693" stroke="#948888" stroke-linejoin="round" stroke-linecap="round" stroke-width="1.5" stroke-miterlimit="79.84"/></g></g></svg>