<svg width="704" height="290" viewBox="0 0 704 290" fill="none" xmlns="http://www.w3.org/2000/svg">
<path fill-rule="evenodd" clip-rule="evenodd" d="M8 0C3.58172 0 0 3.58172 0 8V32C0 36.4183 3.58172 40 8 40H132C136.418 40 140 36.4183 140 32V8C140 3.58172 136.418 0 132 0H8ZM196 0C191.582 0 188 3.58172 188 8V32C188 36.4183 191.582 40 196 40H320C324.418 40 328 36.4183 328 32V8C328 3.58172 324.418 0 320 0H196ZM188 58C188 53.5817 191.582 50 196 50H320C324.418 50 328 53.5817 328 58V82C328 86.4183 324.418 90 320 90H196C191.582 90 188 86.4183 188 82V58ZM384 50C379.582 50 376 53.5817 376 58V82C376 86.4183 379.582 90 384 90H508C512.418 90 516 86.4183 516 82V58C516 53.5817 512.418 50 508 50H384ZM376 108C376 103.582 379.582 100 384 100H508C512.418 100 516 103.582 516 108V132C516 136.418 512.418 140 508 140H384C379.582 140 376 136.418 376 132V108ZM572 100C567.582 100 564 103.582 564 108V132C564 136.418 567.582 140 572 140H696C700.418 140 704 136.418 704 132V108C704 103.582 700.418 100 696 100H572ZM376 158C376 153.582 379.582 150 384 150H508C512.418 150 516 153.582 516 158V182C516 186.418 512.418 190 508 190H384C379.582 190 376 186.418 376 182V158ZM384 0C379.582 0 376 3.58172 376 8V32C376 36.4183 379.582 40 384 40H508C512.418 40 516 36.4183 516 32V8C516 3.58172 512.418 0 508 0H384ZM564 58C564 53.5817 567.582 50 572 50H696C700.418 50 704 53.5817 704 58V82C704 86.4183 700.418 90 696 90H572C567.582 90 564 86.4183 564 82V58ZM572 200C567.582 200 564 203.582 564 208V232C564 236.418 567.582 240 572 240H696C700.418 240 704 236.418 704 232V208C704 203.582 700.418 200 696 200H572ZM564 258C564 253.582 567.582 250 572 250H696C700.418 250 704 253.582 704 258V282C704 286.418 700.418 290 696 290H572C567.582 290 564 286.418 564 282V258ZM572 150C567.582 150 564 153.582 564 158V182C564 186.418 567.582 190 572 190H696C700.418 190 704 186.418 704 182V158C704 153.582 700.418 150 696 150H572Z" fill="#7F75D7"/>
<path fill-rule="evenodd" clip-rule="evenodd" d="M48.4512 26.9999V12.9999H50.5912V18.4599C51.2912 17.7399 52.3912 17.1399 53.6912 17.1399C56.1112 17.1399 57.6512 18.7799 57.6512 21.0599V26.9999H55.5112V21.3399C55.5112 19.7799 54.5512 19.0399 53.2712 19.0399C52.0512 19.0399 51.1312 19.8599 50.5912 20.6399V26.9999H48.4512ZM61.2309 17.3999V14.4999L63.3509 13.9799V17.3999H66.8309V19.2799H63.3509V23.6799C63.3509 24.9399 63.9309 25.3599 65.1709 25.3599C65.8709 25.3599 66.5109 25.2199 67.1109 24.9799V26.8199C66.3909 27.0799 65.4709 27.2399 64.5309 27.2399C62.6709 27.2399 61.2309 26.3199 61.2309 24.0799V19.2799H59.5109V17.3999H61.2309ZM71.3912 20.5199V26.9999H69.2512V17.3999H71.1512V18.5999C71.6712 18.0199 72.7912 17.1399 74.3512 17.1399C75.7912 17.1399 76.7912 17.7399 77.3512 18.6799C78.1912 17.8399 79.3112 17.1399 80.7112 17.1399C83.2512 17.1399 84.3512 19.0199 84.3512 20.9999V26.9999H82.2112V21.0599C82.2112 19.8199 81.4712 19.0399 80.3112 19.0399C79.2512 19.0399 78.4312 19.7399 77.9312 20.3399C77.9512 20.5599 77.9712 20.7799 77.9712 20.9999V26.9999H75.8312V21.0599C75.8312 19.8199 75.0912 19.0399 73.9312 19.0399C72.7712 19.0399 71.8912 19.8799 71.3912 20.5199ZM87.367 26.9999V12.3999H89.507V26.9999H87.367ZM235.664 26.9999V12.9999H237.804V18.4599C238.504 17.7399 239.604 17.1399 240.904 17.1399C243.324 17.1399 244.864 18.7799 244.864 21.0599V26.9999H242.724V21.3399C242.724 19.7799 241.764 19.0399 240.484 19.0399C239.264 19.0399 238.344 19.8599 237.804 20.6399V26.9999H235.664ZM252.662 27.2599C249.722 27.2599 247.222 25.5799 247.222 22.1999C247.222 18.7199 249.862 17.1399 252.082 17.1399C255.902 17.1399 257.222 20.2199 256.602 22.9999H249.382C249.622 24.7199 251.302 25.4399 253.062 25.4399C254.222 25.4399 255.282 25.1599 256.102 24.7599V26.5999C255.222 27.0199 254.002 27.2599 252.662 27.2599ZM249.362 21.3999H254.682C254.802 20.5599 254.282 18.9199 252.182 18.9199C250.742 18.9199 249.442 19.7799 249.362 21.3999ZM267.359 21.3399V24.7799C267.359 25.3199 267.679 25.4799 268.059 25.4799C268.279 25.4799 268.499 25.4199 268.699 25.3599V26.8999C268.299 27.0599 267.819 27.1399 267.339 27.1399C266.459 27.1399 265.759 26.7999 265.419 26.0199C264.479 26.7799 263.299 27.2599 261.799 27.2599C260.059 27.2599 258.439 26.2999 258.439 24.3199C258.439 21.8599 260.719 21.0999 262.719 21.0999C263.539 21.0999 264.459 21.2199 265.219 21.3799V21.0399C265.219 19.8399 264.339 18.9999 262.699 18.9999C261.279 18.9999 260.099 19.3599 259.239 19.7399V17.7799C259.999 17.5199 261.379 17.1399 262.919 17.1399C265.639 17.1399 267.359 18.4399 267.359 21.3399ZM265.219 22.8399C264.639 22.7199 263.819 22.5999 263.139 22.5999C261.919 22.5999 260.639 22.9799 260.639 24.1799C260.639 25.1199 261.479 25.5999 262.439 25.5999C263.459 25.5999 264.459 25.2199 265.219 24.4599V22.8399ZM278.195 18.6399V12.9999H280.335V26.9999H278.415V25.4799C277.675 26.4199 276.535 27.2599 274.735 27.2599C271.835 27.2599 269.975 24.9599 269.975 22.1999C269.975 19.4399 271.835 17.1399 274.735 17.1399C276.415 17.1399 277.535 17.8799 278.195 18.6399ZM278.175 23.3599V21.0199C277.715 19.9799 276.615 19.0199 275.115 19.0199C273.395 19.0199 272.135 20.3199 272.135 22.1999C272.135 24.0799 273.395 25.3799 275.115 25.3799C276.615 25.3799 277.715 24.4199 278.175 23.3599ZM235.354 62.9999V76.9999H237.254V75.4799C238.014 76.4199 239.154 77.2599 240.954 77.2599C243.834 77.2599 245.714 74.9599 245.714 72.1999C245.714 69.4399 243.834 67.1399 240.954 67.1399C239.274 67.1399 238.154 67.8999 237.494 68.6399V62.9999H235.354ZM243.534 72.1999C243.534 74.0799 242.294 75.3799 240.554 75.3799C239.074 75.3799 237.954 74.4199 237.494 73.3599V71.0199C237.954 69.9799 239.074 69.0199 240.554 69.0199C242.294 69.0199 243.534 70.3199 243.534 72.1999ZM247.595 72.1999C247.595 75.5199 250.115 77.2599 252.795 77.2599C255.495 77.2599 257.995 75.5199 257.995 72.1999C257.995 68.8799 255.495 67.1399 252.795 67.1399C250.115 67.1399 247.595 68.8799 247.595 72.1999ZM255.815 72.1999C255.815 74.0799 254.575 75.2999 252.795 75.2999C250.995 75.2999 249.755 74.0799 249.755 72.1999C249.755 70.3199 250.995 69.0999 252.795 69.0999C254.575 69.0999 255.815 70.3199 255.815 72.1999ZM268.09 62.9999V68.6399C267.43 67.8799 266.31 67.1399 264.63 67.1399C261.73 67.1399 259.87 69.4399 259.87 72.1999C259.87 74.9599 261.73 77.2599 264.63 77.2599C266.43 77.2599 267.57 76.4199 268.31 75.4799V76.9999H270.23V62.9999H268.09ZM268.07 71.0199V73.3599C267.61 74.4199 266.51 75.3799 265.01 75.3799C263.29 75.3799 262.03 74.0799 262.03 72.1999C262.03 70.3199 263.29 69.0199 265.01 69.0199C266.51 69.0199 267.61 69.9799 268.07 71.0199ZM274.391 67.3999H272.111L276.671 77.0799L276.471 77.5599C275.911 79.0599 275.131 79.7999 274.091 79.7999C273.771 79.7999 273.431 79.7599 273.111 79.6599V81.4799C273.531 81.5799 273.951 81.6399 274.371 81.6399C275.831 81.6399 277.191 80.7999 278.231 78.2999L282.731 67.3999H280.491L277.631 74.6399L274.391 67.3999ZM440.42 68.6399V62.9999H442.56V76.9999H440.64V75.4799C439.9 76.4199 438.76 77.2599 436.96 77.2599C434.06 77.2599 432.2 74.9599 432.2 72.1999C432.2 69.4399 434.06 67.1399 436.96 67.1399C438.64 67.1399 439.76 67.8799 440.42 68.6399ZM440.4 73.3599V71.0199C439.94 69.9799 438.84 69.0199 437.34 69.0199C435.62 69.0199 434.36 70.3199 434.36 72.1999C434.36 74.0799 435.62 75.3799 437.34 75.3799C438.84 75.3799 439.94 74.4199 440.4 73.3599ZM445.681 67.3999H447.821V76.9999H445.681V67.3999ZM446.761 63.0199C447.461 63.0199 448.061 63.4399 448.061 64.2799C448.061 65.1599 447.461 65.5599 446.761 65.5599C446.061 65.5599 445.441 65.1599 445.441 64.2799C445.441 63.4399 446.061 63.0199 446.761 63.0199ZM455.083 74.6799L457.983 67.3999H460.323L456.203 76.9999H453.943L449.843 67.3999H452.163L455.083 74.6799ZM406.413 113V118.64C405.753 117.88 404.633 117.14 402.953 117.14C400.053 117.14 398.193 119.44 398.193 122.2C398.193 124.96 400.053 127.26 402.953 127.26C404.753 127.26 405.893 126.42 406.633 125.48V127H408.553V113H406.413ZM406.393 121.02V123.36C405.933 124.42 404.833 125.38 403.333 125.38C401.613 125.38 400.353 124.08 400.353 122.2C400.353 120.32 401.613 119.02 403.333 119.02C404.833 119.02 405.933 119.98 406.393 121.02ZM413.814 117.4H411.674V127H413.814V117.4ZM414.054 114.28C414.054 113.44 413.454 113.02 412.754 113.02C412.054 113.02 411.434 113.44 411.434 114.28C411.434 115.16 412.054 115.56 412.754 115.56C413.454 115.56 414.054 115.16 414.054 114.28ZM423.977 117.4L421.077 124.68L418.157 117.4H415.837L419.937 127H422.197L426.317 117.4H423.977ZM429.54 125.9C429.54 125.04 428.92 124.62 428.2 124.62C427.48 124.62 426.84 125.04 426.84 125.9C426.84 126.8 427.48 127.22 428.2 127.22C428.92 127.22 429.54 126.8 429.54 125.9ZM431.414 122.2C431.414 125.58 433.914 127.26 436.854 127.26C438.194 127.26 439.414 127.02 440.294 126.6V124.76C439.474 125.16 438.414 125.44 437.254 125.44C435.494 125.44 433.814 124.72 433.574 123H440.794C441.414 120.22 440.094 117.14 436.274 117.14C434.054 117.14 431.414 118.72 431.414 122.2ZM438.874 121.4H433.554C433.634 119.78 434.934 118.92 436.374 118.92C438.474 118.92 438.994 120.56 438.874 121.4ZM445.511 127V120.52C446.011 119.88 446.891 119.04 448.051 119.04C449.211 119.04 449.951 119.82 449.951 121.06V127H452.091V121C452.091 120.78 452.071 120.56 452.051 120.34C452.551 119.74 453.371 119.04 454.431 119.04C455.591 119.04 456.331 119.82 456.331 121.06V127H458.471V121C458.471 119.02 457.371 117.14 454.831 117.14C453.431 117.14 452.311 117.84 451.471 118.68C450.911 117.74 449.911 117.14 448.471 117.14C446.911 117.14 445.791 118.02 445.271 118.6V117.4H443.371V127H445.511ZM463.347 118.9V117.4H461.447V131.4H463.587V125.76C464.247 126.52 465.367 127.26 467.047 127.26C469.927 127.26 471.807 124.96 471.807 122.2C471.807 119.44 469.927 117.14 467.047 117.14C465.247 117.14 464.107 117.98 463.347 118.9ZM469.627 122.2C469.627 124.08 468.387 125.38 466.647 125.38C465.167 125.38 464.047 124.42 463.587 123.36V121.02C464.047 119.98 465.167 119.02 466.647 119.02C468.387 119.02 469.627 120.32 469.627 122.2ZM474.852 114.5V117.4H473.132V119.28H474.852V124.08C474.852 126.32 476.292 127.24 478.152 127.24C479.092 127.24 480.012 127.08 480.732 126.82V124.98C480.132 125.22 479.492 125.36 478.792 125.36C477.552 125.36 476.972 124.94 476.972 123.68V119.28H480.452V117.4H476.972V113.98L474.852 114.5ZM487.192 124.64L483.952 117.4H481.672L486.232 127.08L486.032 127.56C485.472 129.06 484.692 129.8 483.652 129.8C483.332 129.8 482.992 129.76 482.672 129.66V131.48C483.092 131.58 483.512 131.64 483.932 131.64C485.392 131.64 486.752 130.8 487.792 128.3L492.292 117.4H490.052L487.192 124.64ZM630.52 117.4V118.9C631.28 117.98 632.42 117.14 634.22 117.14C637.1 117.14 638.98 119.44 638.98 122.2C638.98 124.96 637.1 127.26 634.22 127.26C632.54 127.26 631.42 126.52 630.76 125.76V131.4H628.62V117.4H630.52ZM633.82 125.38C635.56 125.38 636.8 124.08 636.8 122.2C636.8 120.32 635.56 119.02 633.82 119.02C632.34 119.02 631.22 119.98 630.76 121.02V123.36C631.22 124.42 632.34 125.38 633.82 125.38ZM444.76 167.4V173.76C444.22 174.54 443.3 175.36 442.08 175.36C440.66 175.36 439.84 174.62 439.84 173.06V167.4H437.7V173.34C437.7 175.62 439.12 177.26 441.66 177.26C443.12 177.26 444.3 176.52 445 175.68V177H446.9V167.4H444.76ZM450.018 162.4V177H452.158V162.4H450.018ZM428.539 17.3999V14.4999L430.659 13.9799V17.3999H434.139V19.2799H430.659V23.6799C430.659 24.9399 431.239 25.3599 432.479 25.3599C433.179 25.3599 433.819 25.2199 434.419 24.9799V26.8199C433.699 27.0799 432.779 27.2399 431.839 27.2399C429.979 27.2399 428.539 26.3199 428.539 24.0799V19.2799H426.819V17.3999H428.539ZM436.599 17.3999H438.739V26.9999H436.599V17.3999ZM437.679 13.0199C438.379 13.0199 438.979 13.4399 438.979 14.2799C438.979 15.1599 438.379 15.5599 437.679 15.5599C436.979 15.5599 436.359 15.1599 436.359 14.2799C436.359 13.4399 436.979 13.0199 437.679 13.0199ZM442.562 17.3999V14.4999L444.682 13.9799V17.3999H448.162V19.2799H444.682V23.6799C444.682 24.9399 445.262 25.3599 446.502 25.3599C447.202 25.3599 447.842 25.2199 448.442 24.9799V26.8199C447.722 27.0799 446.802 27.2399 445.862 27.2399C444.002 27.2399 442.562 26.3199 442.562 24.0799V19.2799H440.842V17.3999H442.562ZM450.622 26.9999V12.3999H452.762V26.9999H450.622ZM460.724 27.2599C457.784 27.2599 455.284 25.5799 455.284 22.1999C455.284 18.7199 457.924 17.1399 460.144 17.1399C463.964 17.1399 465.284 20.2199 464.664 22.9999H457.444C457.684 24.7199 459.364 25.4399 461.124 25.4399C462.284 25.4399 463.344 25.1599 464.164 24.7599V26.5999C463.284 27.0199 462.064 27.2599 460.724 27.2599ZM457.424 21.3999H462.744C462.864 20.5599 462.344 18.9199 460.244 18.9199C458.804 18.9199 457.504 19.7799 457.424 21.3999ZM624.818 62.9999V76.9999H626.958V70.6399C627.498 69.8599 628.418 69.0399 629.638 69.0399C630.918 69.0399 631.878 69.7799 631.878 71.3399V76.9999H634.018V71.0599C634.018 68.7799 632.478 67.1399 630.058 67.1399C628.758 67.1399 627.658 67.7399 626.958 68.4599V62.9999H624.818ZM639.976 63.3999L636.676 64.6599V66.7599L639.396 65.7399V74.9399H636.676V76.9999H644.076V74.9399H641.656V63.3999H639.976ZM629.778 227V212.4H631.918V227H629.778ZM637.22 217.4V227H635.08V217.4H637.22ZM636.16 213.02C636.86 213.02 637.46 213.44 637.46 214.28C637.46 215.16 636.86 215.56 636.16 215.56C635.46 215.56 634.84 215.16 634.84 214.28C634.84 213.44 635.46 213.02 636.16 213.02ZM629.778 262.4V277H631.918V262.4H629.778ZM637.22 277V267.4H635.08V277H637.22ZM637.46 264.28C637.46 263.44 636.86 263.02 636.16 263.02C635.46 263.02 634.84 263.44 634.84 264.28C634.84 265.16 635.46 265.56 636.16 265.56C636.86 265.56 637.46 265.16 637.46 264.28ZM608.465 177V162.4H610.605V177H608.465ZM615.907 167.4V177H613.767V167.4H615.907ZM614.847 163.02C615.547 163.02 616.147 163.44 616.147 164.28C616.147 165.16 615.547 165.56 614.847 165.56C614.147 165.56 613.527 165.16 613.527 164.28C613.527 163.44 614.147 163.02 614.847 163.02ZM620.009 174.62C620.729 174.62 621.349 175.04 621.349 175.9C621.349 176.8 620.729 177.22 620.009 177.22C619.289 177.22 618.649 176.8 618.649 175.9C618.649 175.04 619.289 174.62 620.009 174.62ZM626.648 169.28V177H624.508V169.28H622.768V167.4H624.508V166.34C624.508 163.56 626.328 162.74 628.088 162.74C628.968 162.74 629.808 162.92 630.468 163.16V165.04C629.988 164.8 629.288 164.62 628.608 164.62C627.568 164.62 626.648 164.92 626.648 166.42V167.4H629.928V169.28H626.648ZM634.06 167.4V177H631.92V167.4H634.06ZM633 163.02C633.7 163.02 634.3 163.44 634.3 164.28C634.3 165.16 633.7 165.56 633 165.56C632.3 165.56 631.68 165.16 631.68 164.28C631.68 163.44 632.3 163.02 633 163.02ZM639.082 167.4V168.98C639.822 167.8 641.382 167.04 643.122 167.2V169.3C641.402 169.06 639.902 169.82 639.322 171.18V177H637.182V167.4H639.082ZM648.245 173.078C646.603 172.587 644.641 172.001 644.641 170C644.641 167.9 646.561 167.14 648.461 167.14C649.781 167.14 650.981 167.48 651.921 167.96V169.84C651.121 169.3 649.741 168.9 648.601 168.9C647.741 168.9 646.821 169.16 646.821 169.94C646.821 170.724 647.849 171.025 649.037 171.373C650.668 171.85 652.601 172.416 652.601 174.44C652.601 176.56 650.641 177.26 648.461 177.26C647.061 177.26 645.641 176.92 644.701 176.34V174.44C645.701 175.1 647.161 175.46 648.361 175.46C649.561 175.46 650.441 175.26 650.441 174.48C650.441 173.735 649.426 173.432 648.245 173.078ZM655.636 167.4V164.5L657.756 163.98V167.4H661.236V169.28H657.756V173.68C657.756 174.94 658.336 175.36 659.576 175.36C660.276 175.36 660.916 175.22 661.516 174.98V176.82C660.796 177.08 659.876 177.24 658.936 177.24C657.076 177.24 655.636 176.32 655.636 174.08V169.28H653.916V167.4H655.636Z" fill="white"/>
<path fill-rule="evenodd" clip-rule="evenodd" d="M162 40C162 30.0589 153.941 22 144 22H140V18H144H188V22H156.652C162.306 25.9815 166 32.5594 166 40V50C166 59.9411 174.059 68 184 68H188V72H184C171.85 72 162 62.1503 162 50V40ZM350 90C350 80.0589 341.941 72 332 72H328V68H332H376V72H344.652C350.306 75.9815 354 82.5594 354 90V100C354 109.941 362.059 118 372 118H376V122H372C364.559 122 357.981 118.306 354 112.652V150C354 159.941 362.059 168 372 168H376V172H372C359.85 172 350 162.15 350 150V100V90ZM564 68H520H516V72H520C529.941 72 538 80.0589 538 90V100C538 112.15 547.85 122 560 122H564V118H560C550.059 118 542 109.941 542 100V90C542 82.5594 538.306 75.9815 532.652 72H564V68ZM328 18H376V22H328V18ZM520 172C529.941 172 538 180.059 538 190V200V250C538 262.15 547.85 272 560 272H564V268H560C550.059 268 542 259.941 542 250V212.652C545.981 218.306 552.559 222 560 222H564V218H560C550.059 218 542 209.941 542 200V190C542 182.559 538.306 175.981 532.652 172H564V168H520H516V172H520Z" fill="#4EB543"/>
</svg>
