<svg fill="none" height="228" viewBox="0 0 705 228" width="705" xmlns="http://www.w3.org/2000/svg"><path d="m0 0h705v228h-705z" fill="#fdede8"/><path d="m31 31h643v166h-643z" fill="#ffe0b3"/><path clip-rule="evenodd" d="m673 32h-641v164h641zm-643-2v168h645v-168z" fill="#ffad33" fill-rule="evenodd"/><path d="m62 62h581v104h-581z" fill="#b9e3b5"/><path d="m92 92h521v44h-521z" fill="#4839c6"/><path d="m316.753 114.34c0 3.42 2.62 4.94 5.24 4.94 1.22 0 2.3-.24 3.24-.64v-2.46c-.7.42-1.68.7-2.7.7-1.5 0-2.94-.84-2.94-2.68 0-1.94 1.46-2.68 2.98-2.68.92 0 1.88.28 2.56.72v-2.44c-.86-.46-1.9-.7-2.96-.7-2.66 0-5.42 1.56-5.42 5.24z" fill="#fff"/><path d="m326.558 114.2c0 3.36 2.52 5.08 5.3 5.08 2.8 0 5.3-1.72 5.3-5.08s-2.5-5.08-5.3-5.08c-2.78 0-5.3 1.72-5.3 5.08zm7.78 0c0 1.48-.88 2.6-2.48 2.6-1.58 0-2.46-1.12-2.46-2.6s.88-2.6 2.46-2.6c1.6 0 2.48 1.12 2.48 2.6z" fill="#fff"/><path d="m341.433 110.62v-1.22h-2.46v9.6h2.78v-6.26c.4-.58 1.16-1.22 2.14-1.22 1.08 0 1.86.6 1.86 1.9v5.58h2.78v-5.94c0-2.22-1.38-3.94-3.9-3.94-1.38 0-2.46.64-3.2 1.5z" fill="#fff"/><path d="m351.411 106.6v2.8h-1.62v2.34h1.62v4.3c0 2.38 1.6 3.24 3.46 3.24.96 0 1.84-.16 2.58-.42v-2.24c-.56.22-1.1.32-1.74.32-1.04 0-1.54-.44-1.54-1.44v-3.76h3.04v-2.34h-3.04v-3.46z" fill="#fff"/><path d="m358.511 114.2c0 3.34 2.52 5.08 5.56 5.08 1.44 0 2.62-.22 3.52-.6v-2.18c-.82.36-1.8.58-2.9.58-1.58 0-3.06-.58-3.38-1.98h6.76c.64-2.84-.64-5.98-4.62-5.98-2.16 0-4.94 1.46-4.94 5.08zm7.06-.9h-4.28c.04-1.32 1.08-2.06 2.26-2.06 1.74 0 2.12 1.4 2.02 2.06z" fill="#fff"/><path d="m372.448 110.62v-1.22h-2.46v9.6h2.78v-6.26c.4-.58 1.16-1.22 2.14-1.22 1.08 0 1.86.6 1.86 1.9v5.58h2.78v-5.94c0-2.22-1.38-3.94-3.9-3.94-1.38 0-2.46.64-3.2 1.5z" fill="#fff"/><path d="m382.427 106.6v2.8h-1.62v2.34h1.62v4.3c0 2.38 1.6 3.24 3.46 3.24.96 0 1.84-.16 2.58-.42v-2.24c-.56.22-1.1.32-1.74.32-1.04 0-1.54-.44-1.54-1.44v-3.76h3.04v-2.34h-3.04v-3.46z" fill="#fff"/><g fill="#333"><path d="m94.9123 75.44v-1.12h-1.968v11.2h2.224v-4.336c.496.544 1.312 1.04 2.528 1.04 2.4317 0 3.7437-1.968 3.7437-4.064s-1.312-4.064-3.7437-4.064c-1.424 0-2.304.656-2.784 1.344zm4.256 2.72c0 1.2-.752 2.192-2.016 2.192-.976 0-1.696-.608-2-1.28v-1.824c.304-.672 1.024-1.28 2-1.28 1.264 0 2.016.992 2.016 2.192z"/><path d="m109.761 80.016v-2.448c0-2.528-1.472-3.472-3.776-3.472-1.184 0-2.352.304-2.976.512v1.92c.72-.288 1.664-.576 2.72-.576 1.2 0 1.808.528 1.808 1.296v.272c-.544-.128-1.216-.208-1.824-.208-1.536 0-3.376.608-3.376 2.56 0 1.52 1.248 2.352 2.688 2.352 1.136 0 2.016-.352 2.768-.944.32.576.912.864 1.696.864.432 0 .88-.096 1.232-.224v-1.456c-.144.048-.288.064-.416.064-.288 0-.544-.112-.544-.512zm-3.536-1.376c.464 0 .976.096 1.312.176v1.2c-.512.448-1.104.624-1.728.624-.672 0-1.2-.368-1.2-.944 0-.784.8-1.056 1.616-1.056z"/><path d="m117.628 70.8v4.336c-.496-.544-1.312-1.04-2.528-1.04-2.448 0-3.76 1.968-3.76 4.064s1.312 4.064 3.76 4.064c1.408 0 2.288-.656 2.784-1.344v1.12h1.952v-11.2zm0 6.448v1.824c-.304.672-1.024 1.28-2 1.28-1.264 0-2.016-.992-2.016-2.192s.752-2.192 2.016-2.192c.976 0 1.696.608 2 1.28z"/><path d="m127.582 70.8v4.336c-.496-.544-1.312-1.04-2.528-1.04-2.448 0-3.76 1.968-3.76 4.064s1.312 4.064 3.76 4.064c1.408 0 2.288-.656 2.784-1.344v1.12h1.952v-11.2zm0 6.448v1.824c-.304.672-1.024 1.28-2 1.28-1.264 0-2.016-.992-2.016-2.192s.752-2.192 2.016-2.192c.976 0 1.696.608 2 1.28z"/><path d="m133.919 82v-7.68h-2.224v7.68zm.192-10.224c0-.864-.608-1.248-1.312-1.248-.688 0-1.296.384-1.296 1.248 0 .88.608 1.264 1.296 1.264.704 0 1.312-.384 1.312-1.264z"/><path d="m137.803 75.296v-.976h-1.968v7.68h2.224v-5.008c.32-.464.928-.976 1.712-.976.864 0 1.488.48 1.488 1.52v4.464h2.224v-4.752c0-1.776-1.104-3.152-3.12-3.152-1.104 0-1.968.512-2.56 1.2z"/><path d="m144.84 78.16c0 2.096 1.312 4.064 3.76 4.064 1.216 0 2.032-.496 2.528-1.04v.704c0 1.52-1.136 1.984-2.496 1.984-1.056 0-2.096-.288-2.96-.8v1.952c.928.448 2.048.72 3.248.72 2.256 0 4.416-1.024 4.416-3.952v-7.472h-1.952v1.12c-.496-.688-1.376-1.344-2.784-1.344-2.448 0-3.76 1.968-3.76 4.064zm6.288-.912v1.872c-.304.64-1.024 1.232-2 1.232-1.264 0-2.016-.992-2.016-2.192s.752-2.192 2.016-2.192c.976 0 1.696.608 2 1.28z"/><path d="m62.9443 40.8v11.2h1.968v-1.12c.48.688 1.36 1.344 2.784 1.344 2.432 0 3.744-1.968 3.744-4.064s-1.312-4.064-3.744-4.064c-1.216 0-2.048.496-2.528 1.04v-4.336zm6.224 7.36c0 1.2-.752 2.192-2.016 2.192-.976 0-1.696-.608-2-1.28v-1.824c.304-.672 1.024-1.28 2-1.28 1.264 0 2.016.992 2.016 2.192z"/><path d="m72.4655 48.16c0 2.688 2.016 4.064 4.24 4.064 2.24 0 4.24-1.376 4.24-4.064s-2-4.064-4.24-4.064c-2.224 0-4.24 1.376-4.24 4.064zm6.224 0c0 1.184-.704 2.08-1.984 2.08-1.264 0-1.968-.896-1.968-2.08s.704-2.08 1.968-2.08c1.28 0 1.984.896 1.984 2.08z"/><path d="m84.3655 45.472v-1.152h-1.968v7.68h2.224v-4.512c.464-.912 1.632-1.376 2.848-1.168v-2.16c-1.44-.144-2.56.464-3.104 1.312z"/><path d="m94.3472 40.8v4.336c-.496-.544-1.312-1.04-2.528-1.04-2.448 0-3.76 1.968-3.76 4.064s1.312 4.064 3.76 4.064c1.408 0 2.288-.656 2.784-1.344v1.12h1.952v-11.2zm0 6.448v1.824c-.304.672-1.024 1.28-2 1.28-1.264 0-2.016-.992-2.016-2.192s.752-2.192 2.016-2.192c.976 0 1.696.608 2 1.28z"/><path d="m98.0123 48.16c0 2.672 2.0157 4.064 4.4477 4.064 1.152 0 2.096-.176 2.816-.48v-1.744c-.656.288-1.44.464-2.32.464-1.264 0-2.448-.464-2.704-1.584h5.408c.512-2.272-.512-4.784-3.696-4.784-1.728 0-3.9517 1.168-3.9517 4.064zm5.6477-.72h-3.424c.032-1.056.864-1.648 1.808-1.648 1.392 0 1.696 1.12 1.616 1.648z"/><path d="m109.162 45.472v-1.152h-1.968v7.68h2.224v-4.512c.464-.912 1.632-1.376 2.848-1.168v-2.16c-1.44-.144-2.56.464-3.104 1.312z"/><path d="m33.1683 20v-5.056c.368-.48.976-.928 1.648-.928.704 0 1.2.464 1.2 1.264v4.72h2.208v-4.864c0-.128 0-.24-.016-.352.368-.416.912-.768 1.52-.768.704 0 1.2.464 1.2 1.264v4.72h2.208v-4.864c0-1.36-.704-3.04-2.864-3.04-1.056 0-1.92.512-2.56 1.136-.448-.656-1.2-1.136-2.352-1.136-1.168 0-2.048.64-2.448 1.12v-.896h-1.968v7.68z"/><path d="m51.8083 18.016v-2.448c0-2.528-1.472-3.472-3.776-3.472-1.184 0-2.352.304-2.976.512v1.92c.72-.288 1.664-.576 2.72-.576 1.2 0 1.808.528 1.808 1.296v.272c-.544-.128-1.216-.208-1.824-.208-1.536 0-3.376.608-3.376 2.56 0 1.52 1.248 2.352 2.688 2.352 1.136 0 2.016-.352 2.768-.944.32.576.912.864 1.696.864.432 0 .88-.096 1.232-.224v-1.456c-.144.048-.288.064-.416.064-.288 0-.544-.112-.544-.512zm-3.536-1.376c.464 0 .976.096 1.312.176v1.2c-.512.448-1.104.624-1.728.624-.672 0-1.2-.368-1.2-.944 0-.784.8-1.056 1.616-1.056z"/><path d="m55.7873 13.472v-1.152h-1.968v7.68h2.224v-4.512c.464-.912 1.632-1.376 2.848-1.168v-2.16c-1.44-.144-2.56.464-3.104 1.312z"/><path d="m59.4811 16.16c0 2.096 1.312 4.064 3.76 4.064 1.216 0 2.032-.496 2.528-1.04v.704c0 1.52-1.136 1.984-2.496 1.984-1.056 0-2.096-.288-2.96-.8v1.952c.928.448 2.048.72 3.248.72 2.256 0 4.416-1.024 4.416-3.952v-7.472h-1.952v1.12c-.496-.688-1.376-1.344-2.784-1.344-2.448 0-3.76 1.968-3.76 4.064zm6.288-.912v1.872c-.304.64-1.024 1.232-2 1.232-1.264 0-2.016-.992-2.016-2.192s.752-2.192 2.016-2.192c.976 0 1.696.608 2 1.28z"/><path d="m72.1062 20v-7.68h-2.224v7.68zm.192-10.22399c0-.864-.608-1.24799-1.312-1.24799-.688 0-1.296.38399-1.296 1.24799 0 .87999.608 1.26399 1.296 1.26399.704 0 1.312-.384 1.312-1.26399z"/><path d="m75.9905 13.296v-.976h-1.968v7.68h2.224v-5.008c.32-.464.928-.976 1.712-.976.864 0 1.488.48 1.488 1.52v4.464h2.224v-4.752c0-1.776-1.104-3.152-3.12-3.152-1.104 0-1.968.512-2.56 1.2z"/></g></svg>