<svg width="440" height="420" viewBox="0 0 440 420" fill="none" xmlns="http://www.w3.org/2000/svg"><path fill="#fff" d="M0 0h440v420H0z"/><path d="M53 52a4 4 0 014-4h352a4 4 0 014 4v352a4 4 0 01-4 4H57a4 4 0 01-4-4V52z" fill="#E3E2ED"/><path d="M392.5 67h1V31h-1v36z" fill="#000" fill-opacity=".3"/><path fill-rule="evenodd" clip-rule="evenodd" d="M283.5 67h-1V31h1v36zm10 0h-1V31h1v36zM173.5 67h-1V31h1v36zm10 0h-1V31h1v36z" fill="#000" fill-opacity=".3"/><path d="M72 67h1V31h-1v36zM72 168.5v-1H36v1h36zM72 178.5v-1H36v1h36zM72 278.5v-1H36v1h36zM72 288.5v-1H36v1h36z" fill="#000" fill-opacity=".3"/><path fill-rule="evenodd" clip-rule="evenodd" d="M409 49H57a3 3 0 00-3 3v352a3 3 0 003 3h352a3 3 0 003-3V52a3 3 0 00-3-3zM57 48a4 4 0 00-4 4v352a4 4 0 004 4h352a4 4 0 004-4V52a4 4 0 00-4-4H57z" fill="#BEBAE0"/><g filter="url(#filter0_d)"><path d="M293 118a50 50 0 01100 0 50 50 0 01-100 0z" fill="#4D53BC"/></g><g filter="url(#filter1_d)"><path fill-rule="evenodd" clip-rule="evenodd" d="M299 118a44 44 0 1088 0 44 44 0 00-88 0zm44-50a50 50 0 100 100 50 50 0 000-100z" fill="#fff"/></g><path fill-rule="evenodd" clip-rule="evenodd" d="M329.4 92.6c2.8.73 2.38-4.61 3.91-4 2.75 1.11 4.25 4.04 8.07 1.54 2.74-1.8 3.68 2.02 7.56-.45 2.28-1.46 4.62 2.96 8.14 1.19 5.38-2.7 19.74-24.18 29.03-18.55 7.57 4.58-4.79 40.5-6.2 44.89-1.09 3.37-2.42 11.4-5.11 18.56-2.13 5.66-5.57 10.79-9.94 12.65-10.47 4.43-13.64 9.5-20.75 9.5-6.01 0-11.73-5.72-21.79-10.02-3.54-1.51-6.99-6.13-9.8-12.14-3.9-8.37-6.78-18.08-7.94-20.2-3.77-6.9-11.1-42.2-4.07-43.84 10.05-2.36 23.15 19.38 28.9 20.87z" fill="#F05B29"/><path d="M344.11 158.62c-3.79 0-7.33-2.08-11.82-4.7a88.14 88.14 0 00-10.24-5.37c-3.48-1.49-7.09-5.93-10.16-12.5a173.73 173.73 0 01-5.81-14.67c-.94-2.62-1.68-4.68-2.11-5.47-3.36-6.14-9.66-34.46-6.02-42.6.57-1.27 1.37-2.04 2.4-2.28 6.7-1.57 14.41 6.65 20.6 13.26 3.44 3.66 6.69 7.12 8.64 7.63.81.2 1.17-.34 1.75-2 .32-.9.6-1.68 1.25-1.97.22-.1.56-.17.99 0 .82.33 1.52.8 2.18 1.24 1.66 1.1 2.86 1.9 5.24.35 1.57-1.02 2.73-.55 3.74-.13 1.1.44 2.03.82 3.82-.32 1.4-.9 2.8-.15 4.02.52 1.35.73 2.62 1.42 4.2.63 1.51-.77 3.94-3.28 6.75-6.19 6.75-6.99 15.99-16.55 22.95-12.34 5.07 3.07 3.2 18.12-5.57 44.73l-.33.98a75.36 75.36 0 00-1.26 4.98c-.94 3.98-2.1 8.93-3.86 13.62-2.46 6.55-6.22 11.3-10.32 13.05a66.05 66.05 0 00-9.83 5.3c-3.79 2.38-6.78 4.25-11.2 4.25zm-42.03-86.37c-.48 0-.95.06-1.41.16-.57.14-1.05.64-1.43 1.48-3.32 7.45 2.87 35.67 5.97 41.34.49.9 1.2 2.9 2.2 5.68 1.45 4.03 3.43 9.55 5.76 14.55 2.92 6.25 6.27 10.44 9.43 11.8 4.09 1.74 7.44 3.7 10.4 5.44 4.31 2.52 7.7 4.5 11.11 4.5 4.01 0 6.71-1.68 10.45-4.03a66.73 66.73 0 0110.02-5.4c3.75-1.6 7.23-6.06 9.56-12.25 1.73-4.6 2.88-9.5 3.8-13.44.49-2.08.9-3.87 1.3-5.09l.32-1c3.87-11.73 12.21-39.42 6.19-43.07-6-3.64-14.8 5.46-21.2 12.1-3.03 3.13-5.42 5.6-7.15 6.47-2.22 1.12-4.04.14-5.5-.64-1.2-.65-1.9-1-2.58-.57-2.4 1.53-3.9.92-5.11.43-.93-.38-1.5-.6-2.44.02-3.16 2.06-5.1.77-6.8-.37-.58-.39-1.19-.8-1.84-1.07-.14.2-.33.74-.46 1.1-.46 1.3-1.22 3.46-3.44 2.89-2.35-.61-5.42-3.89-9.31-8.03-5.48-5.84-12.2-13-17.84-13z" fill="#131741"/><path fill-rule="evenodd" clip-rule="evenodd" d="M369.22 114.33c-.5-1.94-2.62-3.11-4.3-3.5-1.32-.4-2.7 0-3.86-.2.17-1.34 1.02-5.62-1.52-5.22-1.32 0-2.7 4.63-3.53 5.82-1.32 2.33-2.18 1.74-2.34-.95-.33-2.73.82-6.41-1.02-6.96-1.32-.2-2.34 2.88-2.84 4.83-.16.94-1.02 1.74-.69-5.03 0-1.74 0-5.6-1.15-6.57-1.93-1.6-4.03 11.04-4.72 14.13-.5-3.1-3.2-16.27-5.2-13.37-.5 1.74-.17 2.49-.34 4.23 0 .95-.16 7.56-.82 6.41-.33-1.94-2.18-5.82-3.2-5.22-1.64 1.17-.34 4.63-.83 7.36-.33 2.73-1.19 3.28-2.34.8-.7-1.2-1.85-5.82-3.2-6.02-2.35-.4-2.16 4.84-2.16 6.18-1.19 0-6.31-1.68-7.64 2.65-2.15 7 6.1 15.91 13.13 14.51 4.47-.89 6.27-.78 8-.52l9.52.2c1.3-1.45 6.2 1.2 8.05 1.2 8.61.82 14.56-7.48 13-14.76z" fill="#EDA65B"/><path fill-rule="evenodd" clip-rule="evenodd" d="M363.08 147.48c-5.28 6.7-12.87 10.27-19.28 10.27-5.73 0-15.39-5.14-19.27-10.3" fill="#F05B29"/><path d="M343.8 158.46c-5.99 0-15.8-5.25-19.83-10.59a.7.7 0 01.14-.98.7.7 0 011 .14c3.72 4.96 13.16 10.01 18.69 10.01 6.7 0 13.87-3.83 18.72-10a.7.7 0 011.12.88c-5.12 6.5-12.72 10.54-19.84 10.54z" fill="#131741"/><path fill-rule="evenodd" clip-rule="evenodd" d="M343.81 141.96s3.05-6.62 6.82-7.16c3.76-.53 10.36-1.51 11.5 2.68 1.12 4.1-6.4 10.95-10.53 10.68-4.13-.27-7.8-1.9-7.79-6.2z" fill="#EDA65B"/><path fill-rule="evenodd" clip-rule="evenodd" d="M343.8 141.96s-3.05-6.63-6.81-7.16c-3.76-.53-9.94-1.63-11.98 2.2-2 3.78 6.88 10.49 11 10.22 4.13-.27 7.8-.9 7.8-5.26z" fill="#EDA65B"/><path fill-rule="evenodd" clip-rule="evenodd" d="M336.9 134.96c0-2.2 1.28-14.35 6.88-14.35 5.26 0 6.92 11.7 6.92 14.32l-6.9 2.28-6.9-2.25z" fill="#FF7B4F"/><path fill-rule="evenodd" clip-rule="evenodd" d="M336.9 134.96c.63 2.43 2.22 1.37 2.99 2.43 1.55 2.14 1.74 4.86 4.01 4.86 2.38 0 2.22-2.7 3.49-4.84.64-1.08 3.1-.03 3.31-2.48 0 0-1.66-1.03-6-.09-.53.12-1.07.1-1.6.01-5.03-.98-6.2.1-6.2.1z" fill="#D43802"/><path d="M343.8 142.87c-1.92 0-2.34-1.34-2.7-2.51a7.23 7.23 0 00-.99-2.18c-.11-.15-.5-.22-.9-.28-.97-.17-2.6-.44-3-2.82a.7.7 0 111.4-.23c.22 1.39.9 1.5 1.84 1.66.64.1 1.36.23 1.8.85.67.91.96 1.83 1.19 2.58.38 1.2.52 1.52 1.36 1.52 1.01 0 1.2-.43 1.61-1.78.21-.68.45-1.46.92-2.25.4-.68 1.17-.81 1.85-.93 1.12-.2 1.7-.36 1.82-1.63.04-.39.39-.67.77-.64.39.04.67.38.64.77-.22 2.4-1.95 2.71-2.98 2.89-.32.06-.8.14-.88.26-.38.65-.58 1.3-.78 1.95-.4 1.3-.86 2.77-2.96 2.77z" fill="#131741"/><path fill-rule="evenodd" clip-rule="evenodd" d="M382.16 75.12c-2.32.58-19.87 14.87-19.36 20.73.52 5.93 8.25 4.85 8.25 4.85s3.6 14.78 6.08 9.96c2.64-7.53 11.79-37.2 5.03-35.54zM303.95 76.05c2.31.57 18.1 12.85 17.15 19.88-.91 6.68-8.18 5.53-8.18 5.53s-2.8 14.86-5.3 10.04c-1.95-7.53-9.37-36.86-3.67-35.45z" fill="#fff"/><path d="M367.43 101.05l-.14-.01a.7.7 0 01-.57-.63c-1.03-9.99 8.69-14.15 8.79-14.2a.7.7 0 11.54 1.3c-.33.15-7.35 3.18-7.95 10.41 2.36-3.18 5.75-4.96 9.25-4.77a.7.7 0 11-.08 1.41c-3.7-.2-7.14 2.07-9.22 6.1a.7.7 0 01-.62.4zM317.44 101.05a.71.71 0 01-.63-.38c-2.07-4.03-5.53-6.3-9.21-6.1a.7.7 0 01-.75-.67.7.7 0 01.66-.74c3.5-.2 6.88 1.59 9.25 4.76-.64-7.26-7.87-10.36-7.95-10.39a.7.7 0 01.54-1.3c.1.04 9.82 4.2 8.79 14.2a.7.7 0 01-.57.62h-.13z" fill="#F05B29"/><path d="M376.04 112.33h-.18c-2.38-.3-4.44-7.28-5.35-10.87-1.3.09-4.32.07-6.39-1.58a5.46 5.46 0 01-2.02-3.96c-.55-6.27 17.22-20.82 19.89-21.48 1.16-.29 1.88.17 2.28.61.6.67 2.44 2.68-.99 17.06a217.4 217.4 0 01-5.48 18.79l-.04.09c-.56 1.08-1.22 1.34-1.72 1.34zm-4.45-12.42l.15.62c1.31 5.42 3.31 10.27 4.28 10.39.03.02.22-.08.46-.54 3.69-10.56 9.44-31.41 6.74-34.38-.15-.16-.38-.32-.9-.19-1.94.48-19.28 14.63-18.82 19.98.12 1.3.6 2.27 1.5 2.99 2.15 1.72 5.91 1.22 5.95 1.22l.64-.09zM308.67 113.17c-.65 0-1.2-.45-1.67-1.35l-.06-.14c-3.8-14.66-7.72-32.77-4.7-35.83.35-.35.95-.72 1.88-.5 2.86.71 18.7 13.24 17.69 20.67a6.75 6.75 0 01-2.6 4.73c-2 1.48-4.52 1.55-5.71 1.47-.72 3.62-2.38 10.6-4.62 10.93a.86.86 0 01-.21.02zm-.38-1.92c.25.45.4.5.4.51.86-.18 2.52-5.05 3.54-10.42l.12-.67.68.1c.03 0 3.18.47 5.34-1.15a5.42 5.42 0 002.04-3.78c.86-6.38-14.43-18.56-16.63-19.1-.31-.08-.44.01-.53.1-1.5 1.51-.95 11.35 5.04 34.4z" fill="#131741"/><path fill-rule="evenodd" clip-rule="evenodd" d="M328.81 143.46c4.37 1.2 11.07 3.32 14.94 1.34.05-.85.06-.65.06-1.9 0 1.22-.06.96-.06 1.9 3.88 1.98 10.69-.14 15-1.42 0 0-5.44 8.58-15 8.58-9.44 0-14.94-8.5-14.94-8.5z" fill="#fff"/><path fill-rule="evenodd" clip-rule="evenodd" d="M327.87 142.99s2.62 4.44 6.76 4.46c.74 0 1.82 1.34 1.82 1.34s1.69-.78 1.92-.72c1.29.38 3.92.5 5.37.5 1.3 0 3.5-.16 4.7-.4.63-.13 2.14.78 2.14.78s1.42-1.4 2.04-1.41c4.43-.09 7.06-4.64 7.06-4.64s-2.24 10-15.94 10c-12.93 0-15.87-9.91-15.87-9.91z" fill="#A03922"/><path d="M343.74 153.61c-6.93 0-11.05-2.81-13.3-5.18-2.44-2.57-3.22-5.14-3.25-5.25a.7.7 0 011.29-.56c.04.07 2.49 4.1 6.15 4.12.75 0 1.53.69 2.01 1.19 1.5-.67 1.73-.6 1.94-.54 1.07.32 3.43.47 5.17.47 1.3 0 3.45-.16 4.55-.38.63-.13 1.55.26 2.18.6.63-.58 1.5-1.24 2.14-1.26 3.96-.07 6.43-4.23 6.46-4.28.17-.3.54-.43.87-.3.32.13.5.47.43.81-.03.11-2.54 10.56-16.64 10.56zm-12.52-6.38c2.2 2.44 6.05 4.97 12.52 4.97 7 0 10.87-2.72 12.97-5.24a7.8 7.8 0 01-4.07 1.28 6.5 6.5 0 00-1.56 1.21.71.71 0 01-.86.1 5 5 0 00-1.65-.68c-1.22.25-3.46.4-4.83.4-.38 0-3.68-.01-5.43-.48-.28.08-1 .38-1.56.64a.7.7 0 01-.84-.19c-.44-.53-1.06-1.05-1.29-1.08a7.1 7.1 0 01-3.4-.93z" fill="#131741"/><path d="M343.3 153.61c-6.48 0-10.48-2.75-12.72-5.09-2.47-2.6-3.34-5.21-3.38-5.32a.7.7 0 01.86-.9c4.12 1.13 11.58 2.59 14.99 1.93l.02-.5c.01-.32.03-.67.03-1.3a.7.7 0 111.41 0c0 .91 0 1.31-.03 1.81 3.13.56 10.85-.78 15-2.02a.7.7 0 01.89.85c-.03.1-2.85 10.27-16.61 10.53l-.45.01zm-14.22-9.58c1.32 2.63 5.28 8.36 14.65 8.16 9.84-.19 13.58-5.7 14.78-8.23-4.38 1.13-11.71 2.37-14.77 1.57-3.2.82-10-.34-14.66-1.5z" fill="#131741"/><path fill-rule="evenodd" clip-rule="evenodd" d="M333.79 150.27c5.39.96 5.3 8.75 12.14 9.1 4.77.23 6.26-4.95 5.21-8-.52-1.53-1.3-2.87-3.36-3.22-1.57.4-7.13.57-9.4-.07-.67 0-1.47.5-4.6 2.2z" fill="#D43802"/><path d="M346.25 160.08h-.36c-4.05-.22-5.9-2.84-7.53-5.15-1.35-1.92-2.51-3.57-4.7-3.96a.7.7 0 01-.57-.58c-.05-.3.1-.6.36-.74l1.3-.71c2.2-1.21 2.88-1.57 3.62-1.57a.7.7 0 01.2.02c2.16.62 7.62.44 9.02.08.1-.03.2-.03.3-.02 2.5.43 3.4 2.2 3.9 3.69.75 2.16.31 4.93-1.06 6.74a5.35 5.35 0 01-4.48 2.2zm-10.7-9.97c1.75.86 2.88 2.45 3.97 4 1.59 2.25 3.08 4.38 6.45 4.55 1.52.08 2.8-.48 3.65-1.62a6.3 6.3 0 00.86-5.44c-.49-1.4-1.13-2.41-2.68-2.73-1.87.41-7.17.53-9.5-.09-.4.05-1.13.45-2.74 1.33z" fill="#131741"/><path d="M345.36 153.37a.7.7 0 01-.7-.65c-.18-2.14-2.12-3.55-2.14-3.56a.7.7 0 01.82-1.15c.1.07 2.5 1.81 2.72 4.6a.7.7 0 01-.65.76h-.06z" fill="#131741"/><path fill-rule="evenodd" clip-rule="evenodd" d="M314.39 112.92c-1.8 8.44 7.35 14.07 13.29 18.13 3-3.55 10.56-9.18 11.62-13.14 2.63-9.8-7.24-13.3-12.31-8.13-6.46-5.17-11.93-.01-12.6 3.14z" fill="#fff"/><path d="M327.8 132l-.52-.36-1.02-.7c-6.06-4.1-14.36-9.73-12.56-18.16.41-1.95 2.32-4.44 5.17-5.46 1.86-.66 4.73-.9 8.07 1.53a8.36 8.36 0 019.66-1.11c1.25.71 5.2 3.58 3.38 10.36-.76 2.84-4.46 6.3-7.72 9.37a55.21 55.21 0 00-4.05 4.03l-.4.5zm-12.72-18.93c-1.6 7.5 6.24 12.82 11.97 16.7l.5.34c1-1.1 2.34-2.36 3.74-3.67 3.13-2.94 6.67-6.26 7.32-8.7 1.06-3.93.04-7.2-2.71-8.77a6.98 6.98 0 00-8.41 1.3l-.45.46-.5-.4c-3.03-2.43-5.59-2.26-7.2-1.68-2.25.8-3.94 2.88-4.26 4.42z" fill="#131741"/><path fill-rule="evenodd" clip-rule="evenodd" d="M333.79 116.78c0 3.82-4.91 5.61-6.7 7.62-1.83-1.96-6.99-3.84-6.99-7.66 0-3.83 3.39-4.67 6.75-2.36 3.04-2.36 6.94-1.43 6.94 2.4z" fill="#F05B29"/><path fill-rule="evenodd" clip-rule="evenodd" d="M348.1 112.92c-1.8 8.44 7.35 14.07 13.3 18.13 3-3.55 10.56-9.18 11.62-13.14 2.62-9.8-7.25-13.3-12.32-8.13-6.46-5.17-11.92-.01-12.6 3.14z" fill="#fff"/><path d="M361.53 132l-.53-.36-1.02-.7c-6.06-4.1-14.36-9.73-12.56-18.16.41-1.95 2.32-4.44 5.18-5.46 1.85-.66 4.72-.9 8.06 1.53a8.36 8.36 0 019.66-1.11c1.25.71 5.2 3.58 3.38 10.36-.76 2.84-4.45 6.3-7.72 9.37a55.45 55.45 0 00-4.04 4.03l-.41.5zm-12.73-18.93c-1.6 7.5 6.25 12.82 11.97 16.7l.5.34c1-1.1 2.34-2.36 3.75-3.67 3.12-2.94 6.66-6.26 7.32-8.7 1.05-3.93.03-7.2-2.72-8.77a6.97 6.97 0 00-8.4 1.3l-.46.46-.5-.4c-3.03-2.43-5.58-2.26-7.19-1.68-2.26.8-3.94 2.88-4.27 4.42z" fill="#131741"/><path fill-rule="evenodd" clip-rule="evenodd" d="M367.5 116.78c0 3.82-4.9 5.61-6.7 7.62-1.81-1.96-6.98-3.84-6.98-7.66 0-3.83 3.4-4.67 6.75-2.36 3.04-2.36 6.94-1.43 6.94 2.4z" fill="#F05B29"/><path d="M319.47 133.66a1.4 1.4 0 01-1.03-.44l-5.34-5.65a1.4 1.4 0 01.05-2 1.4 1.4 0 012 .06l5.35 5.65a1.4 1.4 0 01-1.03 2.38zM368.09 133.66c-.35 0-.7-.12-.97-.38a1.42 1.42 0 01-.06-2l5.35-5.65a1.41 1.41 0 012.05 1.94l-5.34 5.65c-.28.3-.66.44-1.03.44z" fill="#EDA65B"/><g filter="url(#filter2_d)"><path d="M293 228a50 50 0 01100 0 50 50 0 01-100 0z" fill="#4D53BC"/></g><g filter="url(#filter3_d)"><path fill-rule="evenodd" clip-rule="evenodd" d="M299 228a44 44 0 1088 0 44 44 0 00-88 0zm44-50a50 50 0 100 100 50 50 0 000-100z" fill="#fff"/></g><path fill-rule="evenodd" clip-rule="evenodd" d="M329.4 202.39c2.8.72 2.38-4.62 3.91-4 2.75 1.1 4.25 4.03 8.07 1.53 2.74-1.8 3.68 2.03 7.56-.44 2.28-1.46 4.62 2.95 8.14 1.18 5.38-2.7 19.74-24.18 29.03-18.55 7.57 4.59-4.79 40.5-6.2 44.9-1.09 3.36-.54 11.39-3.23 18.55-2.13 5.67-7.45 10.8-11.82 12.65-10.47 4.44-13.64 8.55-20.75 8.55-6.01 0-11.6-4.86-21.82-8.57-3.62-1.32-8.84-6.63-11.65-12.63-3.9-8.37-4.9-18.08-6.06-20.2-3.77-6.9-11.1-42.2-4.07-43.84 10.05-2.37 23.14 19.37 28.9 20.87z" fill="#F05B29"/><path d="M344.1 267.46c-3.73 0-7.22-1.75-11.63-3.96a94.14 94.14 0 00-10.42-4.66c-4.04-1.47-9.33-7.18-12.05-13-2.5-5.37-3.8-11.16-4.75-15.39-.49-2.18-.91-4.07-1.29-4.76-3.35-6.14-9.65-34.46-6.02-42.6.57-1.27 1.38-2.04 2.4-2.28 6.7-1.57 14.41 6.65 20.6 13.25 3.45 3.66 6.7 7.12 8.64 7.63.82.21 1.17-.34 1.75-2 .33-.9.6-1.67 1.25-1.97.22-.1.56-.18 1 0 .82.33 1.51.8 2.18 1.24 1.66 1.11 2.85 1.91 5.23.36 1.57-1.03 2.73-.56 3.75-.14 1.08.44 2.02.82 3.81-.32 1.4-.9 2.8-.14 4.03.52 1.34.73 2.61 1.42 4.19.63 1.52-.76 3.94-3.27 6.75-6.19 6.75-6.98 16-16.55 22.95-12.33 5.07 3.07 3.2 18.11-5.56 44.72l-.33.99c-.39 1.21-.56 3.17-.77 5.44-.35 3.85-.77 8.63-2.47 13.15-2.3 6.14-7.9 11.22-12.21 13.05a88.71 88.71 0 00-9.15 4.59c-4.2 2.34-7.22 4.03-11.87 4.03zm-42.03-85.42c-.48 0-.94.05-1.41.16-.57.13-1.05.63-1.43 1.48-3.32 7.44 2.87 35.66 5.97 41.34.47.86.87 2.65 1.43 5.13.93 4.17 2.2 9.87 4.65 15.1 2.84 6.08 8.05 11.1 11.24 12.26 4.2 1.52 7.59 3.23 10.58 4.73 4.25 2.13 7.6 3.8 11 3.8 4.29 0 7.03-1.52 11.18-3.84 2.52-1.4 5.37-2.99 9.3-4.65 3.94-1.67 9.28-6.53 11.43-12.24 1.63-4.34 2.05-9.02 2.38-12.78.22-2.35.4-4.39.84-5.75l.33-1c3.87-11.73 12.2-39.42 6.18-43.07-6-3.64-14.79 5.46-21.2 12.1-3.02 3.13-5.41 5.6-7.14 6.47-2.23 1.13-4.04.15-5.5-.64-1.2-.65-1.91-1-2.59-.57-2.4 1.54-3.9.92-5.11.43-.93-.37-1.5-.6-2.44.02-3.16 2.06-5.09.77-6.8-.37-.58-.39-1.19-.8-1.83-1.07-.15.2-.33.74-.47 1.1-.45 1.3-1.22 3.47-3.44 2.9-2.35-.62-5.42-3.9-9.3-8.04-5.48-5.84-12.2-13-17.85-13z" fill="#131741"/><path fill-rule="evenodd" clip-rule="evenodd" d="M369.21 225c-.5-1.62-2.62-2.6-4.3-2.93-1.32-.33-2.7 0-3.86-.16.17-1.13 1.03-4.7-1.52-4.37-1.32 0-2.7 3.87-3.52 4.86-1.32 1.95-2.18 1.46-2.35-.8-.33-2.28.83-5.35-1.02-5.82-1.32-.16-2.34 2.42-2.83 4.04-.17.8-1.03 1.46-.7-4.2 0-1.46 0-4.69-1.15-5.5-1.92-1.34-4.02 9.24-4.72 11.82-.5-2.58-3.2-13.6-5.2-11.18-.5 1.45-.17 2.09-.34 3.54 0 .8-.16 6.32-.82 5.36-.33-1.62-2.18-4.87-3.2-4.37-1.63.97-.33 3.87-.83 6.16-.33 2.28-1.19 2.74-2.34.66-.7-1-1.85-4.87-3.2-5.04-2.34-.32-1.68 3.25-1.68 4.37-1.2 0-2.51-.33-3.86-.16-1.69.33-2.99 1.25-3.53 2.9-.75 2.26.02 12.95 11.1 13.15 1.85 0 3.52-.39 4.72-.8 1.02-.33 3.71-1 4.57-.37l9.53.17c1.3-1.22 6.2 1 8.05 1 8.62.7 14.57-6.24 13-12.33zM343.81 251.74s3.24-6.62 7.23-7.15c4-.54 8.46-1.76 11.21 1.73s-5.8 11.9-10.18 11.63c-4.38-.27-8.27-1.9-8.26-6.2zM343.8 251.74s-3.24-6.62-7.24-7.15c-4-.54-8.46-1.76-11.2 1.73-2.76 3.49 5.8 11.9 10.17 11.63 4.38-.28 8.27-1.85 8.27-6.2z" fill="#EDA65B"/><path fill-rule="evenodd" clip-rule="evenodd" d="M362.79 258.2c-5.2 5.58-12.68 8.55-19 8.55-5.64 0-15.15-4.28-18.97-8.57" fill="#F05B29"/><path d="M343.8 267.46c-5.89 0-15.55-4.37-19.51-8.81a.7.7 0 111.05-.94c3.68 4.13 13 8.33 18.46 8.33 6.61 0 13.69-3.19 18.47-8.32a.7.7 0 011.04.96c-5.04 5.41-12.52 8.78-19.51 8.78z" fill="#131741"/><path d="M351.8 258.82c-.82 0-1.69-.1-2.59-.32-2.5-.62-4.44-2.04-5.41-3.84-.93 1.67-2.72 2.98-5.06 3.6-3.82 1.02-9.5.09-12.9-5.88a.71.71 0 011.22-.7c3 5.27 7.98 6.1 11.31 5.21 2.87-.75 4.72-2.7 4.72-4.95h1.42c0 2.32 2.07 4.45 5.04 5.18 3.44.85 8.1-.16 10.92-5.5a.7.7 0 011.25.65c-1.7 3.24-5.19 6.55-9.91 6.55z" fill="#131741"/><path fill-rule="evenodd" clip-rule="evenodd" d="M336.9 244.74c0-2.19 1.27-14.34 6.88-14.34 5.26 0 6.92 11.7 6.92 14.31l-6.9 2.28-6.9-2.25z" fill="#FF7B4F"/><path fill-rule="evenodd" clip-rule="evenodd" d="M336.9 244.74c.62 2.43 2.21 1.37 2.98 2.44 1.55 2.13 1.74 4.85 4.02 4.85 2.38 0 2.22-2.7 3.48-4.84.64-1.08 3.11-.02 3.31-2.48 0 0-1.65-1.02-6-.08-.52.11-1.07.1-1.6 0-5.03-.98-6.19.11-6.19.11z" fill="#D43802"/><path d="M343.8 252.66c-1.92 0-2.34-1.34-2.71-2.52a7.15 7.15 0 00-.98-2.17c-.12-.16-.51-.22-.9-.29-.97-.16-2.61-.44-3-2.82a.7.7 0 111.4-.23c.22 1.39.9 1.5 1.84 1.66.63.1 1.35.23 1.8.85.66.91.95 1.84 1.18 2.58.38 1.21.52 1.53 1.37 1.53 1 0 1.2-.43 1.6-1.78.22-.7.46-1.47.93-2.26.4-.67 1.17-.81 1.85-.93 1.11-.2 1.7-.36 1.81-1.62a.7.7 0 011.4.13c-.2 2.4-1.94 2.7-2.97 2.88-.32.06-.8.14-.87.26-.39.65-.59 1.31-.79 1.95-.4 1.3-.85 2.78-2.95 2.78h-.01zM333.04 232.13a.7.7 0 01-.7-.71c0-2.71-1.94-4.1-3.86-4.25-2-.17-4.25.93-4.74 3.79a.7.7 0 01-.81.57.7.7 0 01-.58-.81 5.74 5.74 0 016.25-4.96 5.5 5.5 0 015.15 5.66.7.7 0 01-.7.7zM354.56 232.13a.7.7 0 01-.7-.71 5.5 5.5 0 015.14-5.66 5.74 5.74 0 016.25 4.96.7.7 0 01-1.39.24 4.31 4.31 0 00-4.74-3.8 4.08 4.08 0 00-3.85 4.26.7.7 0 01-.7.7z" fill="#131741"/><path fill-rule="evenodd" clip-rule="evenodd" d="M382.15 184.9c-2.31.58-19.86 14.87-19.35 20.73.51 5.93 8.25 4.85 8.25 4.85s3.59 14.78 6.08 9.96c2.63-7.53 11.78-37.2 5.02-35.53zM303.95 185.82c2.31.58 18.1 12.86 17.15 19.88-.91 6.69-8.18 5.54-8.18 5.54s-2.8 14.86-5.3 10.04c-1.96-7.53-9.38-36.86-3.67-35.46z" fill="#fff"/><path d="M367.42 210.83c-.04 0-.09 0-.13-.02a.7.7 0 01-.57-.62c-1.04-9.99 8.68-14.15 8.78-14.2a.7.7 0 11.54 1.3c-.33.15-7.34 3.18-7.95 10.41 2.37-3.18 5.76-4.96 9.25-4.77.4.02.69.35.67.74a.7.7 0 01-.75.67c-3.7-.21-7.14 2.07-9.21 6.1a.7.7 0 01-.63.39zM317.43 210.83a.71.71 0 01-.63-.38c-2.07-4.03-5.51-6.31-9.21-6.1a.7.7 0 01-.08-1.41c3.49-.2 6.88 1.59 9.24 4.76-.64-7.26-7.87-10.36-7.94-10.4a.7.7 0 01.54-1.3c.1.04 9.82 4.2 8.78 14.2a.7.7 0 01-.57.62h-.13z" fill="#F05B29"/><path d="M376.03 222.12l-.18-.01c-2.38-.3-4.44-7.28-5.34-10.87-1.31.09-4.33.07-6.4-1.57a5.46 5.46 0 01-2.02-3.97c-.54-6.27 17.23-20.82 19.9-21.48 1.15-.28 1.87.18 2.27.62.6.66 2.44 2.68-.98 17.06a217.35 217.35 0 01-5.49 18.78l-.04.09c-.56 1.08-1.21 1.35-1.72 1.35zm-4.45-12.43l.16.63c1.3 5.41 3.31 10.27 4.28 10.38.04.03.21-.08.46-.54 3.69-10.56 9.43-31.41 6.74-34.37-.15-.17-.38-.32-.9-.2-1.94.48-19.28 14.64-18.82 19.99.11 1.3.6 2.27 1.5 2.98 2.16 1.72 5.91 1.23 5.95 1.23l.63-.1zM308.66 222.95c-.64 0-1.2-.45-1.67-1.34l-.05-.15c-3.81-14.66-7.73-32.77-4.7-35.83.34-.35.95-.72 1.88-.5 2.85.71 18.69 13.23 17.68 20.67a6.75 6.75 0 01-2.6 4.73c-1.99 1.48-4.52 1.55-5.7 1.48-.73 3.61-2.39 10.6-4.62 10.93l-.22.01zm-.37-1.92c.24.45.4.51.4.52.86-.19 2.52-5.06 3.53-10.43l.13-.67.67.1c.03.01 3.18.47 5.35-1.15a5.43 5.43 0 002.03-3.78c.87-6.38-14.43-18.56-16.62-19.1-.32-.08-.44.02-.54.11-1.5 1.5-.95 11.34 5.05 34.4z" fill="#131741"/><path d="M318.55 241.56c-.17 0-.32-.03-.49-.08-4.64-1.68-6.15-6.36-6.21-6.56-.23-.74.18-1.54.92-1.77.75-.23 1.54.18 1.77.92.02.06 1.19 3.56 4.48 4.75a1.4 1.4 0 01.85 1.8c-.2.58-.75.94-1.32.94zM369.05 241.56a1.41 1.41 0 01-.49-2.74c3.35-1.2 4.47-4.7 4.48-4.74a1.42 1.42 0 012.7.84c-.06.2-1.57 4.89-6.22 6.56-.15.06-.31.08-.47.08z" fill="#EDA65B"/><g filter="url(#filter4_d)"><path d="M183 118a50 50 0 01100 0 50 50 0 01-100 0z" fill="#4D53BC"/></g><g filter="url(#filter5_d)"><path fill-rule="evenodd" clip-rule="evenodd" d="M189 118a44 44 0 1088 0 44 44 0 00-88 0zm44-50a50 50 0 100 100 50 50 0 000-100z" fill="#fff"/></g><path fill-rule="evenodd" clip-rule="evenodd" d="M219.4 93.6c2.8.73 3.9-4 3.9-4s3.18 2.38 5.04 2.51c.85.06 3.42-3.17 3.42-3.17s3.56 3 5.43 3.08c.73.04 4.86-2.92 4.86-2.92s.32 2.68 2.55 3.12c.76.15 1.58.1 2.48-.35 2.7-1.36 18.63-16.3 18.63-16.3s.34 3.15 1.2 2.5c5.6-4.14 10.14-7.58 10.14-7.58s-4.08 24.65-3.62 26.26c.5 1.77 3-.73 3-.73s-5.97 20.46-6.53 22.19c-.56 1.74-1.58 5.5 1.34 5.5-2.3 4.1-5.92 10.4-7.41 14.09-.55 1.35 1.96 2 1.96 2s-4.79 4.02-5.37 4.97c-.87 1.44 1.37 2.7 1.37 2.7s-6.84 3.65-8.36 4.3c-10.46 4.44-12.2 5.25-19.33 5.25-6 0-7.83-1.1-18.05-4.8-2.1-.77-12.28-8.27-12.28-8.27s2.22-1.19 1.38-2.9c-2.02-4.07-7.27-9.25-7.27-9.25s3.57.6.9-4.78c-1.59-3.23-5.67-7.08-5.67-7.08s2.33.16 1.15-4.5a706.81 706.81 0 00-4.31-13.76s1.77 2.11 1.59-.18c-.55-7.1-1.54-26.4-1.96-29.12 4.62 3.69 5.4.38 5.4.38s2.25 3.26 8.46 8.61c1.57 1.36 3.45-.31 3.45-.31S217.09 93 219.4 93.6z" fill="#F05B29"/><path d="M234.1 157.74c-5.18 0-7.4-.83-14-3.28-1.25-.46-2.67-1-4.3-1.58-2.12-.77-11.4-7.59-12.45-8.36l-.9-.67.98-.52c.07-.04 1.6-.9 1.08-1.96-1.94-3.92-7.08-9.01-7.13-9.06l-1.59-1.57 2.2.37s.66.08.91-.27c.14-.19.49-1-.76-3.51-1.52-3.08-5.5-6.85-5.53-6.88l-1.44-1.36 1.97.14s.24-.01.43-.25c.2-.25.58-1.07 0-3.38-.44-1.7-4.26-13.58-4.3-13.7l-1.11-3.44 2.32 2.77c.1.12.23.25.35.35v-.03c-.23-2.9-.52-7.7-.83-12.8-.43-7.22-.88-14.68-1.13-16.26l-.27-1.79 1.41 1.13c2.1 1.67 3.16 1.67 3.6 1.52.52-.18.68-.75.68-.76l.36-1.54.9 1.3c.03.03 2.3 3.27 8.34 8.48 1.1.94 2.46-.25 2.52-.3l.54-.48.46.54c3.89 4.55 10.63 11.93 12.16 12.32.41.1.76.06 1.12-.15 1.09-.65 1.75-2.62 1.92-3.32l.24-1.05.87.64c.82.62 3.25 2.23 4.61 2.37.44-.16 1.75-1.5 2.87-2.9l.45-.57.56.47c1.29 1.08 3.76 2.82 4.97 2.9.53-.13 2.7-1.53 4.45-2.78l.98-.7.14 1.19c0 .08.29 2.17 1.99 2.5.7.15 1.34.06 2.02-.28 2.14-1.08 14.05-12.05 18.46-16.18l1.03-.97.15 1.4c.08.68.24 1.4.4 1.8 5.38-4 9.77-7.33 9.81-7.36l1.42-1.08-.3 1.75c-1.54 9.33-3.89 24.63-3.63 25.97.03.1.06.13.06.13.23.04 1.13-.54 1.77-1.18l1.95-1.95-.77 2.65c-.25.83-5.99 20.48-6.55 22.2-.9 2.8-.59 3.83-.33 4.19.07.1.29.39 1 .39h1.2l-.58 1.05-1.02 1.81c-2.27 4.04-5.1 9.06-6.36 12.2-.04.1-.03.15 0 .2.18.36.99.72 1.48.85l1.32.34-1.04.88c-1.95 1.64-4.86 4.21-5.22 4.8-.1.17-.12.31-.07.47.14.52.86 1.07 1.19 1.25l1.12.63-1.14.61c-.28.15-6.89 3.67-8.42 4.32l-.73.31c-9.74 4.16-11.77 5.03-18.86 5.03zm-29.13-13.78c3.24 2.36 9.81 7.05 11.32 7.6 1.63.59 3.05 1.11 4.3 1.58 6.59 2.45 8.58 3.19 13.5 3.19h.01c6.8 0 8.56-.75 18.31-4.9l.74-.3a189.8 189.8 0 007.33-3.75 3.07 3.07 0 01-.9-1.4 1.99 1.99 0 01.23-1.56c.49-.8 3.12-3.11 4.62-4.4a2.8 2.8 0 01-1.22-1.1 1.63 1.63 0 01-.04-1.38c1.3-3.21 4.14-8.28 6.43-12.35.19-.33.37-.64.53-.95-.5-.2-.83-.5-1.04-.78-1-1.4-.41-3.78.13-5.46.45-1.38 4.43-14.98 5.95-20.17-.47.22-.96.34-1.4.22-.29-.07-.8-.31-1.03-1.1-.43-1.5 2.13-17.64 3.3-24.82-1.76 1.34-5.03 3.8-8.73 6.53-.32.24-.7.29-1.04.14-.53-.24-.86-.98-1.06-1.8-3.52 3.28-15.42 14.3-17.83 15.5-.95.48-1.9.62-2.92.42-1.7-.34-2.5-1.67-2.85-2.65-2.38 1.66-3.88 2.47-4.46 2.46-1.64-.07-4.15-1.9-5.3-2.79-1.62 1.96-2.83 2.93-3.57 2.88-1.46-.11-3.48-1.32-4.6-2.08-.36 1-1.08 2.52-2.26 3.23-.69.42-1.43.52-2.2.32-2.26-.59-10.04-9.47-12.46-12.28-.96.6-2.49 1.02-3.8-.1a63.91 63.91 0 01-7.9-7.88c-.25.27-.58.52-1 .66-.98.34-2.2.06-3.63-.82.26 2.97.62 8.97.98 14.8.3 5.09.6 9.9.81 12.78.03.35.11 1.43-.69 1.75-.12.05-.23.07-.35.08 1.1 3.43 3.4 10.64 3.74 11.98.56 2.19.46 3.75-.3 4.65-.08.1-.18.2-.28.28 1.3 1.31 3.84 4.06 5.06 6.52 1.16 2.35 1.37 3.98.62 4.98-.2.27-.45.46-.71.59 1.63 1.72 4.9 5.36 6.45 8.47.68 1.33 0 2.48-.8 3.2z" fill="#131741"/><path fill-rule="evenodd" clip-rule="evenodd" d="M259.13 110.5c-6.34 5.77-8.09 2.11-8.09 2.11l-1.52-4.22-5.87 3.94-1.02-5.63-2.84 3.9-1.85-9.37-4.71 11.42-5.21-10.82-1.16 8.61-3.2-4.22-.82 5.95-5.55-4.22-1.68 4.22s-1.6 3.3-7.96-2.13c0 2.59-2.28 17.79 11.68 17.48 1.84-.04 3.51-.36 4.71-.77 1.02-.32 3.72-.96 4.58-.35l9.52.17c1.3-1.19 6.2.95 8.05.95 16.28 2.39 12.94-14.05 12.94-17.01zM233.8 142.02s-.52-5.67 6.81-6.22c.96-.07 1.98.12 3 .5.75.27 5.67-.54 5.67-.54s-1.06 3.4-.09 4.5c.82.92 5.45 1.3 5.45 1.3s-6.87 8.76-10.22 8.54c-1.16-5.46-8.66-5.72-10.62-8.08z" fill="#EDA65B"/><path fill-rule="evenodd" clip-rule="evenodd" d="M233.79 142.02s1.16-5.2-6.81-6.22a8.26 8.26 0 00-4.24.78c-1.14.5-5.63-.35-5.63-.35s.95 3.8.41 4.6c-.5.74-3.5-.04-3.5-.04s6.3 9.5 9.15 9.31c1.47-4.95 10.68-6.9 10.62-8.08z" fill="#EDA65B"/><path fill-rule="evenodd" clip-rule="evenodd" d="M250.4 151c-3.72 5.2-11.55 9.17-16.3 9.17-5.22 0-13.39-4.03-16.91-9.2" fill="#F05B29"/><path d="M234.1 160.87c-5.2 0-13.67-3.9-17.5-9.5a.7.7 0 111.17-.8c3.47 5.09 11.48 8.9 16.33 8.9 4.43 0 12.1-3.8 15.73-8.88a.7.7 0 111.15.82c-3.99 5.58-12.1 9.46-16.88 9.46z" fill="#131741"/><path fill-rule="evenodd" clip-rule="evenodd" d="M244.63 150.04c-1.7-4.67-10.86-7.07-10.86-7.07v-3.23 3.23s-9.15 2.4-10.7 7.05c0 0 3.83 1.88 10.72 2.04 6.9.16 10.84-2.02 10.84-2.02z" fill="#fff"/><path d="M234.5 152.78l-.72-.01c-6.97-.16-10.87-2.04-11.03-2.12l-.56-.27.2-.59c1.46-4.34 8.64-6.75 10.67-7.36v-.66-1.16-.87h1.42v2.69c2.04.6 9.23 3.02 10.82 7.36l.2.58-.53.29c-.16.1-3.9 2.12-10.46 2.12zM224 149.64c1.32.5 4.72 1.6 9.82 1.7 5.14.13 8.59-1.08 9.9-1.64-1.92-3.58-8.75-5.66-9.94-6-1.2.34-7.96 2.41-9.78 5.94z" fill="#131741"/><path d="M228.99 152.25l-2.24-4.17-2.22.52a.7.7 0 11-.32-1.37l3.28-.77 1.7 3.18 2.34-3.1 2.17 1 1.68-1.3 2.53 1.45 1.75-.9 3.48.73a.7.7 0 01-.3 1.38l-2.98-.62-2 1.02-2.36-1.36-1.6 1.26-1.93-.89-2.98 3.94z" fill="#131741"/><path fill-rule="evenodd" clip-rule="evenodd" d="M226.9 135.96c1.09-11 3.44-13.35 3.44-13.35s.23.82 1.3.55c1.37-.36 1.98-3.22 1.98-3.22s.6 2.4 2.09 2.52c1.68-.01 2.34-1.6 2.34-1.6s.11 1.92.72 2.93c.54.91 1.09.07 1.09.07s.83 7.52.83 12.07l-6.9 2.28-6.9-2.25z" fill="#FF7B4F"/><path fill-rule="evenodd" clip-rule="evenodd" d="M226.9 135.38c.62 1.82 2.2 1.03 2.98 1.83 1.54 1.6 1.74 2.6 4.01 2.59 2.38 0 2.22-.98 3.49-2.58.64-.81 3.1-.02 3.3-1.85 0 0-1.65-.77-6-.07-.52.09-1.06.08-1.59 0-5.03-.73-6.2.08-6.2.08z" fill="#D43802"/><path d="M233.78 140.45c-1.71 0-2.12-.35-2.7-1.19-.2-.3-.44-.62-.9-1.04-.1-.1-.6-.16-.94-.2-1.03-.12-2.6-.3-3.03-2.06a.7.7 0 111.38-.33c.17.72.69.86 1.82.98.64.08 1.3.15 1.75.57.56.53.86.96 1.08 1.28.35.5.4.57 1.54.57 1.37 0 1.44-.1 1.83-.7.18-.3.41-.65.8-1.09.41-.47 1.09-.55 1.8-.64 1.25-.15 1.71-.3 1.8-.92a.7.7 0 111.4.19c-.25 1.8-1.98 2.01-3.03 2.14-.31.04-.8.1-.92.18-.3.34-.49.64-.66.9-.62.97-1.07 1.36-3 1.36h-.02z" fill="#131741"/><path fill-rule="evenodd" clip-rule="evenodd" d="M211.25 116.27c.03 11.9 11.46 8.94 12.82 8.61 0-8.5-8.14-7.82-12.82-8.61z" fill="#fff"/><path d="M219.8 126.15c-2.45 0-4.53-.61-6.06-1.8-2.11-1.66-3.19-4.38-3.2-8.08v-.83l.83.13c.7.12 1.5.2 2.33.3 4.67.5 11.08 1.19 11.08 9.01v.56l-.61.15c-1.55.38-3.02.56-4.37.56zm-7.82-9.06c.15 2.82 1.03 4.88 2.64 6.14 1.94 1.52 5.03 1.9 8.73 1.1-.29-6.04-5.33-6.58-9.8-7.06-.55-.05-1.07-.11-1.57-.18z" fill="#131741"/><path fill-rule="evenodd" clip-rule="evenodd" d="M221.18 120.85c-.49 2.1-2.45 3.43-4.4 2.97-1.93-.45-3.11-2.51-2.62-4.6.49-2.1 2.23-2.48 4.17-2.03 1.94.45 3.34 1.57 2.85 3.66z" fill="#F05B29"/><path fill-rule="evenodd" clip-rule="evenodd" d="M216.18 116.72l.98 5.78 3.58-4.35-4.56-1.43z" fill="#131741"/><path fill-rule="evenodd" clip-rule="evenodd" d="M256.34 116.27c-.03 11.9-11.46 8.94-12.82 8.61 0-8.5 8.14-7.82 12.82-8.61z" fill="#fff"/><path d="M247.8 126.15a18.8 18.8 0 01-4.37-.56l-.62-.15v-.55c0-7.83 6.41-8.52 11.08-9.02.84-.1 1.63-.18 2.34-.3l.82-.13v.84c0 3.7-1.08 6.41-3.2 8.07-1.53 1.19-3.6 1.8-6.06 1.8zm-3.56-1.82c3.7.8 6.8.42 8.74-1.1 1.6-1.26 2.49-3.31 2.63-6.14-.5.07-1.02.13-1.57.18-4.46.48-9.5 1.02-9.8 7.06z" fill="#131741"/><path fill-rule="evenodd" clip-rule="evenodd" d="M246.4 120.85c.5 2.1 2.46 3.43 4.4 2.97 1.94-.45 3.12-2.51 2.63-4.6-.49-2.1-2.23-2.48-4.17-2.03-1.94.45-3.34 1.57-2.85 3.66z" fill="#F05B29"/><path fill-rule="evenodd" clip-rule="evenodd" d="M251.41 116.72l-.97 5.78-3.59-4.35 4.56-1.43z" fill="#131741"/><path d="M247.8 126.15a18.8 18.8 0 01-4.37-.56l-.62-.15v-.55c0-7.83 6.41-8.52 11.08-9.02.84-.1 1.63-.18 2.34-.3l.82-.13v.84c0 3.7-1.08 6.41-3.2 8.07-1.53 1.19-3.6 1.8-6.06 1.8zm-3.56-1.82c3.7.8 6.8.42 8.74-1.1 1.6-1.26 2.49-3.31 2.63-6.14-.5.07-1.02.13-1.57.18-4.46.48-9.5 1.02-9.8 7.06zM219.8 126.15c-2.45 0-4.53-.61-6.06-1.8-2.11-1.66-3.19-4.38-3.2-8.08v-.83l.83.13c.7.12 1.5.2 2.33.3 4.67.5 11.08 1.19 11.08 9.01v.56l-.61.15c-1.55.38-3.02.56-4.37.56zm-7.82-9.06c.15 2.82 1.03 4.88 2.64 6.14 1.94 1.52 5.03 1.9 8.73 1.1-.29-6.04-5.33-6.58-9.8-7.06-.55-.05-1.07-.11-1.57-.18z" fill="#131741"/><path fill-rule="evenodd" clip-rule="evenodd" d="M272.15 79.42S252.28 91 252.79 96.85c.51 5.93 8.25 4.85 8.25 4.85s3.59 14.78 6.08 9.96c2.63-7.53 5.03-32.24 5.03-32.24zM193.94 78.93s18.1 10.97 17.15 18c-.9 6.68-8.18 5.53-8.18 5.53s-2.8 14.86-5.3 10.04c-1.96-7.53-3.67-33.57-3.67-33.57z" fill="#fff"/><path d="M265.76 87.87l-7.15 14.22-1.97-1.93 10.66-5.3-9.11 7.67a1.38 1.38 0 01-2-1.9l.02-.03 9.55-12.73zM199.07 87.87l9.55 12.73.03.03a1.39 1.39 0 01-2 1.9l-9.11-7.67 10.66 5.3-1.98 1.92-7.15-14.2z" fill="#F05B29"/><path d="M266.02 113.33h-.18c-2.38-.3-4.44-7.28-5.34-10.87-1.31.09-4.33.07-6.39-1.58a5.46 5.46 0 01-2.03-3.96c-.18-2.15 6.47-9.59 8.5-11.82l1.61-1.75-.38 2.35c-.02.12-.04.26-.04.4 5-3.77 9.92-7.22 9.97-7.25l1.26-.88-.15 1.52c-.1 1.01-2.43 24.88-5.06 32.4l-.04.1c-.56 1.08-1.22 1.34-1.73 1.34zm-4.44-12.42l.15.62c1.31 5.42 3.31 10.27 4.28 10.39.04.02.22-.08.46-.54 2.2-6.33 4.24-24.98 4.82-30.48-1.8 1.27-5.27 3.76-8.76 6.39-.73.55-1.25.45-1.56.26-.16-.1-.28-.21-.36-.36-3.63 4.07-7.17 8.61-7.1 9.6.1 1.3.6 2.27 1.49 2.98 2.17 1.73 5.91 1.23 5.95 1.23l.63-.09zM198.66 114.17c-.65 0-1.2-.45-1.67-1.34l-.06-.15c-.87-3.38-3.27-20.12-3.38-20.83l-.28-2 1.47 1.39.11.1c-.63-6.68-1.6-12.23-1.6-12.29l-.33-1.84 1.46 1.17 9.64 7.7v-1.84l1.24 1.4c.71.81 6.99 8.02 6.53 11.38a6.75 6.75 0 01-2.6 4.73c-1.99 1.48-4.52 1.55-5.71 1.48-.72 3.62-2.38 10.6-4.61 10.93l-.21.01zm-.38-1.92c.25.45.4.5.4.5.86-.17 2.52-5.05 3.53-10.42l.13-.67.68.1c.03.01 3.17.48 5.34-1.15a5.42 5.42 0 002.04-3.78c.25-1.84-2.9-6.33-5.39-9.31a.96.96 0 01-.27.2c-.21.1-.65.21-1.17-.2l-8.63-6.9c.36 2.34.97 6.67 1.4 11.45.06.7-.33.96-.5 1.05-.1.04-.3.14-.66.06.62 4.26 2.38 16.2 3.1 19.07z" fill="#131741"/><path d="M203.77 123.71l4.61 7.95-2.24-.55 2-1.75 1.94-1.68.33 2.3 1.12 7.67-3.8-6.76 2.28.6-2.01 1.75-1.78 1.56-.47-2.11-1.98-8.98zM263.82 123.71l-1.98 8.98-.47 2.1-1.78-1.55-2-1.75 2.27-.6-3.8 6.76 1.12-7.68.34-2.3 1.93 1.7 2 1.74-2.24.55 4.61-7.95z" fill="#EDA65B"/><path fill-rule="evenodd" clip-rule="evenodd" d="M228.79 132.27s2.6-1.24 5.1-1.98l5.08 1.98s-4.07-.7-5.17 1c-1.1-1.7-5.01-1-5.01-1zM229.46 128.45s2.21-.98 4.38-1.3c4.06.85 4.46 1.3 4.46 1.3s-3.3-.67-4.5.39c-1.1-1.06-4.34-.4-4.34-.4z" fill="#F05B29"/><g filter="url(#filter6_d)"><path d="M73 118a50 50 0 01100 0 50 50 0 01-100 0z" fill="#4D53BC"/></g><g filter="url(#filter7_d)"><path fill-rule="evenodd" clip-rule="evenodd" d="M79 118a44 44 0 1088 0 44 44 0 00-88 0zm44-50a50 50 0 100 100 50 50 0 000-100z" fill="#fff"/></g><path fill-rule="evenodd" clip-rule="evenodd" d="M109.42 92.39c2.79.72 2.36-4.62 3.9-4 2.74 1.1 4.25 4.03 8.07 1.53 2.74-1.8 3.67 2.02 7.55-.44 2.29-1.46 4.62 2.95 8.15 1.18 5.37-2.7 19.74-24.18 29.02-18.55 7.57 4.59-4.78 40.5-6.2 44.9-1.94 6.03-4.69 27-14.59 31.2-10.46 4.44-14.09 8.55-21.2 8.55-6.02 0-11.6-4.86-21.83-8.57-8.65-3.15-15.71-29.2-17.7-32.82-3.78-6.9-11.1-42.2-4.08-43.85 10.05-2.37 23.15 19.37 28.9 20.87z" fill="#F05B29"/><path d="M124.11 157.46c-3.73 0-7.22-1.75-11.63-3.96a94.24 94.24 0 00-10.43-4.66c-6.96-2.53-12.6-18.27-15.97-27.68-.94-2.61-1.67-4.68-2.1-5.47-3.37-6.14-9.67-34.45-6.03-42.6.57-1.27 1.38-2.04 2.4-2.28 6.7-1.56 14.4 6.66 20.6 13.26 3.44 3.67 6.69 7.13 8.64 7.63.82.22 1.17-.33 1.75-1.99.32-.9.6-1.68 1.25-1.97.22-.1.56-.18.99 0 .82.32 1.52.79 2.18 1.24 1.66 1.1 2.86 1.9 5.24.35 1.57-1.03 2.72-.56 3.74-.14 1.1.45 2.03.83 3.82-.31 1.4-.9 2.8-.15 4.02.52 1.35.73 2.62 1.41 4.2.62 1.51-.76 3.94-3.27 6.75-6.18 6.75-6.99 16-16.56 22.95-12.34 5.07 3.07 3.2 18.12-5.57 44.72l-.32 1c-.38 1.15-.79 2.92-1.28 4.98-2.03 8.65-5.42 23.14-13.7 26.65-3.74 1.59-6.56 3.11-9.06 4.46-4.47 2.4-7.7 4.15-12.44 4.15zM82.08 72.04c-.48 0-.95.05-1.41.16-.57.13-1.05.63-1.43 1.48-3.32 7.44 2.87 35.66 5.97 41.34.49.89 1.2 2.9 2.2 5.67 3.07 8.57 8.8 24.52 15.12 26.82 4.2 1.52 7.59 3.23 10.58 4.73 4.25 2.13 7.6 3.8 11 3.8 4.38 0 7.32-1.58 11.77-3.98 2.52-1.36 5.38-2.9 9.17-4.51 7.63-3.24 10.92-17.28 12.9-25.68.48-2.08.9-3.88 1.3-5.1l.32-.99c3.87-11.73 12.2-39.42 6.18-43.07-6-3.64-14.78 5.46-21.2 12.1-3.02 3.14-5.4 5.6-7.14 6.48-2.23 1.12-4.04.14-5.5-.65-1.2-.65-1.91-1-2.58-.57-2.4 1.54-3.9.92-5.12.43-.93-.37-1.49-.6-2.43.02-3.16 2.07-5.1.77-6.8-.37-.58-.39-1.19-.8-1.84-1.07-.15.2-.33.74-.46 1.1-.46 1.3-1.23 3.47-3.45 2.9-2.34-.62-5.41-3.9-9.3-8.04-5.49-5.84-12.2-13-17.85-13z" fill="#131741"/><path fill-rule="evenodd" clip-rule="evenodd" d="M149.22 115c-.5-1.62-2.62-2.6-4.3-2.93-1.32-.33-2.7 0-3.86-.16.16-1.13 1.02-4.7-1.52-4.37-1.32 0-2.7 3.87-3.53 4.86-1.32 1.95-2.18 1.46-2.34-.8-.33-2.28.82-5.35-1.02-5.81-1.32-.17-2.34 2.41-2.84 4.03-.16.8-1.02 1.46-.7-4.2 0-1.46 0-4.69-1.15-5.5-1.92-1.34-4.02 9.24-4.71 11.82-.5-2.58-3.2-13.6-5.21-11.18-.5 1.45-.17 2.08-.33 3.54 0 .8-.16 6.32-.82 5.36-.33-1.62-2.18-4.86-3.2-4.37-1.64.97-.34 3.87-.83 6.16-.33 2.28-1.19 2.74-2.34.66-.7-1-1.85-4.86-3.2-5.03-2.35-.33-1.69 3.24-1.69 4.36-1.19 0-2.5-.33-3.86-.16-1.68.33-2.98 1.25-3.53 2.9-.74 2.26.02 12.95 11.1 13.15 1.85 0 3.52-.39 4.72-.8 1.03-.33 3.72-1 4.58-.37l9.52.17c1.3-1.22 6.2 1 8.05 1 8.62.7 14.57-6.24 13-12.33zM123.81 141.74s3.05-6.62 6.82-7.15c3.76-.54 7.97-1.76 10.56 1.73 2.59 3.49-5.47 11.9-9.6 11.63-4.12-.27-7.79-1.9-7.78-6.2zM123.8 141.74s-3.05-6.62-6.81-7.15c-3.76-.54-7.97-1.76-10.56 1.73-2.6 3.49 5.46 11.9 9.59 11.63 4.13-.27 7.79-1.85 7.78-6.2z" fill="#EDA65B"/><path d="M124.11 157.46c-4.44 0-12.02-3.38-16.51-8.84a.7.7 0 111.09-.9c3.3 4.03 10.3 8.33 15.43 8.33 5.3 0 9.88-2.56 14.83-8.3a.7.7 0 011.07.92c-5.25 6.08-10.15 8.8-15.9 8.8z" fill="#131741"/><path d="M130.7 148.24c-2.69 0-5.54-1.07-6.85-3.36-.26.49-.58.93-.98 1.32-1.33 1.32-3.36 2.02-5.87 2.02h-.1a.7.7 0 01.01-1.41h.09c2.1 0 3.83-.57 4.88-1.61a4.4 4.4 0 001.22-3.26h1.42c0 3.86 3.89 4.89 6.19 4.89.39 0 .7.31.7.7 0 .4-.32.71-.7.71z" fill="#131741"/><path fill-rule="evenodd" clip-rule="evenodd" d="M116.9 134.74c0-2.19 1.28-14.34 6.88-14.34 5.26 0 6.92 11.7 6.92 14.31l-6.9 2.28-6.9-2.25z" fill="#FF7B4F"/><path fill-rule="evenodd" clip-rule="evenodd" d="M116.9 134.74c.63 2.43 2.22 1.37 2.99 2.44 1.55 2.13 1.74 4.85 4 4.85 2.39 0 2.23-2.7 3.5-4.84.64-1.08 3.1-.02 3.3-2.48 0 0-1.65-1.02-6-.08-.52.11-1.06.1-1.6 0-5.02-.98-6.18.11-6.18.11z" fill="#D43802"/><path d="M123.8 142.66c-1.92 0-2.34-1.34-2.71-2.52a7.2 7.2 0 00-.98-2.17c-.11-.16-.5-.22-.9-.29-.97-.16-2.61-.44-3-2.82a.7.7 0 111.4-.23c.22 1.39.9 1.5 1.84 1.66.64.1 1.36.23 1.8.85.67.91.96 1.84 1.2 2.58.37 1.21.51 1.53 1.35 1.53 1.02 0 1.2-.43 1.62-1.78.2-.7.45-1.47.92-2.26.4-.67 1.17-.81 1.84-.93 1.12-.2 1.71-.36 1.82-1.62.04-.4.38-.68.77-.64.4.03.67.37.64.76-.22 2.4-1.95 2.71-2.98 2.9-.32.05-.8.13-.87.25-.39.65-.6 1.31-.79 1.95-.4 1.3-.86 2.78-2.96 2.78h-.01z" fill="#131741"/><path fill-rule="evenodd" clip-rule="evenodd" d="M101.17 116.94s2.27 10.3 12.82 5.78c-1.06-5.66-3.98-7.67-12.82-5.78z" fill="#fff"/><path d="M109.06 124.58c-1.35 0-2.59-.3-3.72-.87-3.8-1.95-4.82-6.43-4.86-6.62l-.16-.7.7-.14c5.08-1.09 8.3-.93 10.47.51 1.64 1.1 2.65 2.95 3.19 5.84l.1.55-.52.22c-1.87.8-3.6 1.21-5.2 1.21zm-7-7.1c.42 1.22 1.54 3.76 3.93 4.98 1.95.99 4.36.94 7.18-.16-.48-2.2-1.25-3.55-2.48-4.36-1.68-1.13-4.44-1.28-8.63-.46z" fill="#131741"/><path fill-rule="evenodd" clip-rule="evenodd" d="M107.06 116.45s-.73 4.78.51 5c1.24.21 2.17-4.55 2.17-4.55l-2.68-.45z" fill="#131741"/><path fill-rule="evenodd" clip-rule="evenodd" d="M146.45 116.94s-2.28 10.3-12.82 5.78c1.06-5.66 3.98-7.67 12.82-5.78z" fill="#fff"/><path d="M138.55 124.58c-1.6 0-3.33-.4-5.2-1.2l-.52-.22.1-.56c.54-2.9 1.55-4.74 3.2-5.83 2.15-1.44 5.38-1.6 10.46-.52l.7.15-.16.7c-.04.18-1.07 4.67-4.86 6.61a8.06 8.06 0 01-3.72.87zm-4.11-2.28c2.82 1.1 5.24 1.15 7.18.16 2.39-1.22 3.51-3.76 3.93-4.98-4.2-.82-6.95-.67-8.64.45-1.22.81-1.99 2.17-2.47 4.36z" fill="#131741"/><path fill-rule="evenodd" clip-rule="evenodd" d="M140.55 116.45s.73 4.78-.5 5c-1.25.21-2.17-4.55-2.17-4.55l2.67-.45z" fill="#131741"/><path fill-rule="evenodd" clip-rule="evenodd" d="M162.16 74.9c-2.32.58-19.87 14.87-19.36 20.73.52 5.93 8.25 4.85 8.25 4.85s3.6 14.78 6.08 9.96c2.64-7.53 11.78-37.2 5.03-35.53zM83.95 75.82c2.32.58 18.1 12.86 17.15 19.88-.9 6.7-8.18 5.55-8.18 5.55s-2.8 14.86-5.29 10.03c-1.96-7.53-9.38-36.86-3.68-35.46z" fill="#fff"/><path d="M147.43 100.83c-.05 0-.09 0-.14-.02a.7.7 0 01-.57-.62c-1.03-9.99 8.69-14.15 8.79-14.2a.7.7 0 11.54 1.3c-.33.15-7.35 3.18-7.95 10.41 2.36-3.18 5.76-4.96 9.25-4.77a.7.7 0 11-.08 1.4c-3.7-.2-7.15 2.08-9.22 6.1a.7.7 0 01-.62.4zM97.44 100.83a.71.71 0 01-.63-.38c-2.07-4.03-5.52-6.31-9.22-6.1a.7.7 0 01-.08-1.41c3.5-.2 6.89 1.6 9.25 4.77-.6-7.23-7.62-10.26-7.95-10.4a.71.71 0 01-.38-.92.71.71 0 01.92-.39c.1.05 9.82 4.21 8.79 14.2a.7.7 0 01-.57.62h-.13z" fill="#F05B29"/><path d="M156.03 112.12l-.17-.01c-2.38-.3-4.45-7.28-5.35-10.87-1.31.09-4.32.07-6.39-1.57a5.46 5.46 0 01-2.02-3.97c-.55-6.27 17.22-20.82 19.89-21.48 1.16-.28 1.87.18 2.27.62.6.66 2.45 2.68-.98 17.06a217.4 217.4 0 01-5.48 18.78l-.04.09c-.56 1.08-1.22 1.35-1.72 1.35zm-4.44-12.43l.15.63c1.31 5.41 3.31 10.27 4.29 10.38.03.03.2-.08.45-.54 3.7-10.56 9.44-31.41 6.74-34.37-.15-.17-.37-.32-.9-.2-1.94.48-19.28 14.64-18.81 19.99.1 1.3.6 2.27 1.49 2.98 2.16 1.72 5.91 1.23 5.95 1.23l.64-.1zM88.67 112.95c-.65 0-1.2-.45-1.67-1.34l-.06-.15c-3.81-14.66-7.72-32.77-4.7-35.83.35-.35.95-.72 1.88-.5 2.86.71 18.7 13.23 17.69 20.67a6.75 6.75 0 01-2.6 4.73c-2 1.48-4.52 1.55-5.71 1.48-.72 3.61-2.38 10.6-4.62 10.92-.07.02-.14.02-.21.02zm-.38-1.92c.25.45.4.51.4.52.86-.19 2.52-5.06 3.53-10.43l.13-.67.68.1c.03.01 3.17.47 5.34-1.15a5.4 5.4 0 002.03-3.78c.87-6.38-14.43-18.56-16.62-19.1-.32-.08-.45.02-.54.11-1.49 1.5-.95 11.34 5.05 34.4z" fill="#131741"/><path d="M99.49 131.56c-.16 0-.32-.03-.48-.08-4.65-1.68-6.16-6.36-6.22-6.56a1.41 1.41 0 012.7-.85c.01.07 1.18 3.56 4.47 4.74a1.4 1.4 0 01.85 1.81c-.2.58-.74.94-1.32.94zM148.1 131.56a1.41 1.41 0 01-.47-2.74c3.34-1.2 4.46-4.7 4.47-4.74a1.42 1.42 0 012.7.84c-.06.2-1.57 4.89-6.22 6.56-.15.06-.31.08-.47.08z" fill="#EDA65B"/><path fill-rule="evenodd" clip-rule="evenodd" d="M413 48H53v360h360V48zm-19 19H72v322h322V67z" fill="#744CE5" fill-opacity=".2"/><path fill-rule="evenodd" clip-rule="evenodd" d="M52 47h362v362H52V47zm341 21H73v320h320V68zm20-20v360H53V48h360zm-19 19v322H72V67h322z" fill="#744CE5"/><path fill-rule="evenodd" clip-rule="evenodd" d="M78 37.39l-5-2.89 5-2.89V34h90v-2.39l5 2.89-5 2.89V35H78v2.39z" fill="#4CA9FF"/><path d="M107.81 20.84l-1.98.76v1.26l1.64-.62v5.52h-1.64V29h4.44v-1.24h-1.45v-6.92h-1zM111.12 24.92c0 2.39 1.13 4.24 3.66 4.24 2.53 0 3.66-1.85 3.66-4.24s-1.13-4.24-3.66-4.24c-2.53 0-3.66 1.85-3.66 4.24zm5.94 0c0 1.9-.72 2.99-2.28 2.99-1.57 0-2.28-1.1-2.28-2.99 0-1.9.7-2.99 2.28-2.99 1.56 0 2.28 1.1 2.28 2.99zM119.6 24.92c0 2.39 1.12 4.24 3.65 4.24s3.66-1.85 3.66-4.24-1.13-4.24-3.66-4.24c-2.53 0-3.66 1.85-3.66 4.24zm5.93 0c0 1.9-.72 2.99-2.28 2.99-1.57 0-2.28-1.1-2.28-2.99 0-1.9.7-2.99 2.28-2.99 1.56 0 2.28 1.1 2.28 2.99zM129.43 24.14v-.9h-1.14v8.4h1.28v-3.38c.4.45 1.07.9 2.08.9 1.73 0 2.86-1.38 2.86-3.04 0-1.66-1.13-3.04-2.86-3.04-1.08 0-1.76.5-2.22 1.06zm3.77 1.98c0 1.13-.74 1.9-1.79 1.9-.89 0-1.56-.57-1.84-1.2v-1.4c.28-.63.95-1.2 1.84-1.2 1.05 0 1.79.77 1.79 1.9zM139.11 23.24l-1.38 1.94-1.38-1.94h-1.46l2.1 2.82-2.22 2.94h1.46l1.5-2.04 1.5 2.04h1.47l-2.22-2.94 2.1-2.82h-1.47z" fill="#4CA9FF"/><path fill-rule="evenodd" clip-rule="evenodd" d="M173 34.51l4-2.5v2h2v-2l4 2.5-4 2.5v-2h-2v2l-4-2.5z" fill="#4CA9FF"/><path d="M173.84 26.4l.76 1.99h1.26l-.61-1.63h5.52v1.63H182v-4.44h-1.23v1.45h-6.93v1zM177.92 23.1c2.39 0 4.24-1.12 4.24-3.66 0-2.53-1.85-3.66-4.24-3.66s-4.23 1.13-4.23 3.66c0 2.54 1.84 3.66 4.23 3.66zm0-5.94c1.9 0 2.99.72 2.99 2.28 0 1.58-1.1 2.28-2.99 2.28-1.9 0-2.99-.7-2.99-2.28 0-1.56 1.1-2.28 3-2.28zM177.14 13.26h-.9v1.14h8.4v-1.28h-3.38c.45-.4.9-1.07.9-2.08 0-1.72-1.38-2.85-3.04-2.85-1.65 0-3.03 1.13-3.03 2.85 0 1.08.5 1.77 1.05 2.22zm1.98-3.76c1.13 0 1.91.74 1.91 1.78 0 .9-.58 1.56-1.21 1.84h-1.4a2.03 2.03 0 01-1.2-1.84c0-1.04.77-1.78 1.9-1.78zM176.24 3.58l1.95 1.38-1.95 1.38v1.47l2.82-2.1L182 7.93V6.46l-2.04-1.5 2.04-1.5V2l-2.94 2.22-2.82-2.1v1.46z" fill="#4CA9FF"/><path fill-rule="evenodd" clip-rule="evenodd" d="M42.51 168l-2.5 4h2v2h-2l2.5 4 2.5-4h-2v-2h2l-2.5-4z" fill="#4CA9FF"/><path d="M11.98 168.84l-1.98.76v1.26l1.63-.62v5.52H10V177h4.44v-1.24h-1.45v-6.92h-1.01zM15.28 172.92c0 2.39 1.13 4.24 3.66 4.24 2.54 0 3.66-1.85 3.66-4.24s-1.12-4.24-3.66-4.24c-2.53 0-3.66 1.85-3.66 4.24zm5.94 0c0 1.9-.72 2.99-2.28 2.99-1.57 0-2.28-1.1-2.28-2.99 0-1.9.71-2.99 2.28-2.99 1.56 0 2.28 1.1 2.28 2.99zM25.12 172.14v-.9h-1.14v8.4h1.29v-3.38c.4.45 1.07.9 2.07.9 1.73 0 2.86-1.38 2.86-3.04 0-1.66-1.13-3.04-2.86-3.04-1.08 0-1.76.5-2.22 1.06zm3.77 1.98c0 1.13-.74 1.9-1.79 1.9-.88 0-1.56-.57-1.83-1.2v-1.4c.27-.63.95-1.2 1.83-1.2 1.05 0 1.8.77 1.8 1.9zM34.8 171.24l-1.38 1.94-1.38-1.94h-1.46l2.1 2.82-2.22 2.94h1.46l1.5-2.04 1.5 2.04h1.47l-2.22-2.94 2.1-2.82H34.8z" fill="#4CA9FF"/><path fill-rule="evenodd" clip-rule="evenodd" d="M42.51 278l-2.5 4h2v2h-2l2.5 4 2.5-4h-2v-2h2l-2.5-4z" fill="#4CA9FF"/><path d="M11.98 278.84l-1.98.76v1.26l1.63-.62v5.52H10V287h4.44v-1.24h-1.45v-6.92h-1.01zM15.28 282.92c0 2.39 1.13 4.24 3.66 4.24 2.54 0 3.66-1.85 3.66-4.24s-1.12-4.24-3.66-4.24c-2.53 0-3.66 1.85-3.66 4.24zm5.94 0c0 1.9-.72 2.99-2.28 2.99-1.57 0-2.28-1.1-2.28-2.99 0-1.9.71-2.99 2.28-2.99 1.56 0 2.28 1.1 2.28 2.99zM25.12 282.14v-.9h-1.14v8.4h1.29v-3.38c.4.45 1.07.9 2.07.9 1.73 0 2.86-1.38 2.86-3.04 0-1.66-1.13-3.04-2.86-3.04-1.08 0-1.76.5-2.22 1.06zm3.77 1.98c0 1.13-.74 1.9-1.79 1.9-.88 0-1.56-.57-1.83-1.2v-1.4c.27-.63.95-1.2 1.83-1.2 1.05 0 1.8.77 1.8 1.9zM34.8 281.24l-1.38 1.94-1.38-1.94h-1.46l2.1 2.82-2.22 2.94h1.46l1.5-2.04 1.5 2.04h1.47l-2.22-2.94 2.1-2.82H34.8z" fill="#4CA9FF"/><path fill-rule="evenodd" clip-rule="evenodd" d="M283 34.51l4-2.5v2h2v-2l4 2.5-4 2.5v-2h-2v2l-4-2.5z" fill="#4CA9FF"/><path d="M283.84 26.4l.76 1.99h1.26l-.61-1.63h5.52v1.63H292v-4.44h-1.23v1.45h-6.93v1zM287.92 23.1c2.39 0 4.24-1.12 4.24-3.66 0-2.53-1.85-3.66-4.24-3.66s-4.23 1.13-4.23 3.66c0 2.54 1.84 3.66 4.23 3.66zm0-5.94c1.9 0 2.99.72 2.99 2.28 0 1.58-1.1 2.28-2.99 2.28-1.9 0-2.99-.7-2.99-2.28 0-1.56 1.1-2.28 3-2.28zM287.14 13.26h-.9v1.14h8.4v-1.28h-3.38c.45-.4.9-1.07.9-2.08 0-1.72-1.38-2.85-3.04-2.85-1.65 0-3.03 1.13-3.03 2.85 0 1.08.5 1.77 1.05 2.22zm1.98-3.76c1.13 0 1.91.74 1.91 1.78 0 .9-.58 1.56-1.21 1.84h-1.4a2.03 2.03 0 01-1.2-1.84c0-1.04.77-1.78 1.9-1.78zM286.24 3.58l1.95 1.38-1.95 1.38v1.47l2.82-2.1L292 7.93V6.46l-2.04-1.5 2.04-1.5V2l-2.94 2.22-2.82-2.1v1.46z" fill="#4CA9FF"/><path fill-rule="evenodd" clip-rule="evenodd" d="M188 37.39l-5-2.89 5-2.89V34h90v-2.39l5 2.89-5 2.89V35h-90v2.39z" fill="#4CA9FF"/><path d="M217.81 20.84l-1.98.76v1.26l1.64-.62v5.52h-1.64V29h4.44v-1.24h-1.45v-6.92h-1zM221.12 24.92c0 2.39 1.13 4.24 3.66 4.24 2.53 0 3.66-1.85 3.66-4.24s-1.13-4.24-3.66-4.24c-2.53 0-3.66 1.85-3.66 4.24zm5.94 0c0 1.9-.72 2.99-2.28 2.99-1.57 0-2.28-1.1-2.28-2.99 0-1.9.7-2.99 2.28-2.99 1.56 0 2.28 1.1 2.28 2.99zM229.6 24.92c0 2.39 1.12 4.24 3.65 4.24s3.66-1.85 3.66-4.24-1.13-4.24-3.66-4.24c-2.53 0-3.66 1.85-3.66 4.24zm5.93 0c0 1.9-.72 2.99-2.28 2.99-1.57 0-2.28-1.1-2.28-2.99 0-1.9.7-2.99 2.28-2.99 1.56 0 2.28 1.1 2.28 2.99zM239.43 24.14v-.9h-1.14v8.4h1.28v-3.38c.4.45 1.07.9 2.08.9 1.73 0 2.86-1.38 2.86-3.04 0-1.66-1.13-3.04-2.86-3.04-1.08 0-1.76.5-2.22 1.06zm3.77 1.98c0 1.13-.74 1.9-1.79 1.9-.89 0-1.56-.57-1.84-1.2v-1.4c.28-.63.95-1.2 1.84-1.2 1.05 0 1.79.77 1.79 1.9zM249.11 23.24l-1.38 1.94-1.38-1.94h-1.46l2.1 2.82-2.22 2.94h1.46l1.5-2.04 1.5 2.04h1.47l-2.22-2.94 2.1-2.82h-1.47z" fill="#4CA9FF"/><path fill-rule="evenodd" clip-rule="evenodd" d="M298 37.39l-5-2.89 5-2.89V34h90v-2.39l5 2.89-5 2.89V35h-90v2.39z" fill="#4CA9FF"/><path d="M327.81 20.84l-1.98.76v1.26l1.64-.62v5.52h-1.64V29h4.44v-1.24h-1.45v-6.92h-1zM331.12 24.92c0 2.39 1.13 4.24 3.66 4.24 2.53 0 3.66-1.85 3.66-4.24s-1.13-4.24-3.66-4.24c-2.53 0-3.66 1.85-3.66 4.24zm5.94 0c0 1.9-.72 2.99-2.28 2.99-1.57 0-2.28-1.1-2.28-2.99 0-1.9.7-2.99 2.28-2.99 1.56 0 2.28 1.1 2.28 2.99zM339.6 24.92c0 2.39 1.12 4.24 3.65 4.24s3.66-1.85 3.66-4.24-1.13-4.24-3.66-4.24c-2.53 0-3.66 1.85-3.66 4.24zm5.93 0c0 1.9-.72 2.99-2.28 2.99-1.57 0-2.28-1.1-2.28-2.99 0-1.9.7-2.99 2.28-2.99 1.56 0 2.28 1.1 2.28 2.99zM349.43 24.14v-.9h-1.14v8.4h1.28v-3.38c.4.45 1.07.9 2.08.9 1.73 0 2.86-1.38 2.86-3.04 0-1.66-1.13-3.04-2.86-3.04-1.08 0-1.76.5-2.22 1.06zm3.77 1.98c0 1.13-.75 1.9-1.79 1.9-.89 0-1.56-.57-1.84-1.2v-1.4c.28-.63.95-1.2 1.84-1.2 1.04 0 1.79.77 1.79 1.9zM359.11 23.24l-1.38 1.94-1.38-1.94h-1.46l2.1 2.82-2.22 2.94h1.46l1.5-2.04 1.5 2.04h1.46l-2.21-2.94 2.1-2.82h-1.47z" fill="#4CA9FF"/><path fill-rule="evenodd" clip-rule="evenodd" d="M229.61 403l2.89 5 2.89-5H233v-9h2.39l-2.89-5-2.89 5H232v9h-2.39z" fill="#744CE5"/><path d="M239.18 394.51v1.32a4.45 4.45 0 012.59-.91c1 0 1.62.37 1.62 1.08 0 .92-.83 1.34-1.78 1.9-1.23.73-2.7 1.48-2.7 3.48v.62h5.9v-1.24l-4.37.02c.01-.82 1-1.32 2.06-1.95 1.1-.66 2.26-1.47 2.26-2.85 0-1.53-1.21-2.3-2.87-2.3-.95 0-1.87.26-2.71.83zM245.98 397.92c0 2.39 1.13 4.24 3.66 4.24 2.53 0 3.66-1.85 3.66-4.24s-1.13-4.24-3.66-4.24c-2.53 0-3.66 1.85-3.66 4.24zm5.94 0c0 1.9-.72 2.99-2.28 2.99-1.57 0-2.28-1.1-2.28-2.99 0-1.9.71-2.99 2.28-2.99 1.56 0 2.28 1.1 2.28 2.99zM255.82 397.14v-.9h-1.14v8.4h1.29v-3.38c.4.45 1.07.9 2.07.9 1.73 0 2.86-1.38 2.86-3.04 0-1.66-1.13-3.04-2.86-3.04-1.08 0-1.76.5-2.22 1.06zm3.77 1.98c0 1.13-.74 1.9-1.79 1.9-.88 0-1.56-.57-1.83-1.2v-1.4c.27-.63.95-1.2 1.83-1.2 1.05 0 1.8.77 1.8 1.9zM265.5 396.24l-1.38 1.94-1.38-1.94h-1.46l2.1 2.82-2.22 2.94h1.46l1.5-2.04 1.5 2.04h1.47l-2.22-2.94 2.1-2.82h-1.47z" fill="#744CE5"/><path fill-rule="evenodd" clip-rule="evenodd" d="M408 231.39l5-2.89-5-2.89V228h-9v-2.39l-5 2.89 5 2.89V229h9v2.39z" fill="#744CE5"/><path d="M399.51 221.9h1.32a4.45 4.45 0 01-.91-2.58c0-1.01.37-1.62 1.08-1.62.92 0 1.34.82 1.9 1.77.73 1.24 1.48 2.71 3.48 2.71h.62v-5.91h-1.24l.02 4.38c-.82-.01-1.32-1.01-1.95-2.07-.66-1.1-1.47-2.25-2.85-2.25-1.53 0-2.3 1.21-2.3 2.87 0 .94.26 1.87.83 2.7zM402.92 215.1c2.39 0 4.24-1.12 4.24-3.66 0-2.53-1.85-3.66-4.24-3.66s-4.24 1.13-4.24 3.66c0 2.54 1.85 3.66 4.24 3.66zm0-5.94c1.9 0 2.99.72 2.99 2.28 0 1.58-1.1 2.28-2.99 2.28-1.9 0-2.99-.7-2.99-2.28 0-1.56 1.1-2.28 2.99-2.28zM402.14 205.26h-.9v1.14h8.4v-1.28h-3.38c.45-.4.9-1.07.9-2.08 0-1.72-1.38-2.85-3.04-2.85-1.66 0-3.04 1.13-3.04 2.85 0 1.08.5 1.77 1.06 2.22zm1.98-3.76c1.13 0 1.9.74 1.9 1.78 0 .9-.57 1.56-1.2 1.84h-1.4a2.03 2.03 0 01-1.2-1.84c0-1.04.77-1.78 1.9-1.78zM401.24 195.58l1.94 1.38-1.94 1.38v1.47l2.82-2.1 2.94 2.22v-1.47l-2.04-1.5 2.04-1.5V194l-2.94 2.22-2.82-2.1v1.46z" fill="#744CE5"/><g filter="url(#filter8_d)"><path d="M73 283c0-57.99 47.01-105 105-105s105 47.01 105 105-47.01 105-105 105S73 340.99 73 283z" fill="#4D53BC"/></g><g filter="url(#filter9_d)"><path fill-rule="evenodd" clip-rule="evenodd" d="M79 283c0 54.68 44.32 99 99 99s99-44.32 99-99-44.32-99-99-99-99 44.32-99 99zm99-105c-57.99 0-105 47.01-105 105s47.01 105 105 105 105-47.01 105-105-47.01-105-105-105z" fill="#fff"/></g><path fill-rule="evenodd" clip-rule="evenodd" d="M149.46 229.21c5.86 1.53 4.97-9.69 8.19-8.4 5.76 2.33 8.93 8.47 16.94 3.23 5.76-3.77 7.73 4.24 15.87-.94 4.8-3.07 9.7 6.2 17.11 2.48 11.28-5.66 41.45-50.76 60.95-38.95 15.9 9.63-10.05 85.05-13.02 94.27-2.28 7.09-5.08 23.93-10.73 38.98-4.47 11.9-11.7 22.66-20.87 26.56-21.97 9.32-28.63 17.96-43.58 17.96-12.62 0-24.36-12.2-45.82-19.99-7.6-2.76-14.6-11.94-20.5-24.54-8.21-17.57-14.25-37.96-16.68-42.4-7.93-14.5-23.31-88.63-8.56-92.08 21.1-4.96 48.6 40.68 60.7 43.82z" fill="#F05B29"/><path d="M180.32 365.87c-7.49 0-14.35-3.89-23.05-8.8-6.56-3.72-13.99-7.92-23.27-11.3-7.5-2.71-14.87-11.47-21.34-25.3-4.98-10.64-9.15-22.32-12.2-30.83-1.98-5.5-3.53-9.83-4.44-11.49-7.04-12.89-20.28-72.35-12.64-89.45 1.2-2.68 2.89-4.29 5.03-4.8 14.07-3.29 30.27 13.97 43.28 27.83 7.22 7.7 14.04 14.96 18.13 16.03 1.72.44 2.46-.7 3.68-4.18.68-1.9 1.25-3.54 2.63-4.15.45-.2 1.17-.38 2.07 0 1.73.68 3.19 1.66 4.6 2.6 3.47 2.33 5.99 4 10.98.74 3.3-2.15 5.73-1.16 7.87-.28 2.28.93 4.25 1.73 8.01-.67 2.95-1.88 5.87-.3 8.45 1.1 2.83 1.53 5.49 2.97 8.8 1.3 3.19-1.6 8.28-6.87 14.19-12.98 14.16-14.67 33.58-34.76 48.2-25.9 10.64 6.44 6.7 38.05-11.7 93.92l-.69 2.07c-.78 2.43-1.65 6.15-2.66 10.45-1.96 8.35-4.4 18.74-8.1 28.6-5.17 13.75-13.06 23.75-21.68 27.4-8.09 3.43-14 6.72-19.22 9.63-8.8 4.92-15.15 8.46-24.93 8.46zm-88.27-179.4c-1 0-1.99.12-2.97.34-1.2.28-2.2 1.33-3 3.11-6.98 15.63 6.02 74.9 12.54 86.82 1.02 1.87 2.53 6.08 4.62 11.9 3.04 8.48 7.2 20.07 12.1 30.57 6.12 13.11 12.92 21.34 19.66 23.79 9.51 3.46 17.06 7.72 23.72 11.48 8.32 4.7 14.89 8.42 21.6 8.42 9 0 14.75-3.21 23.48-8.07a187.62 187.62 0 0119.5-9.78c7.87-3.33 15.18-12.7 20.07-25.7 3.63-9.68 6.04-19.96 7.98-28.23 1.03-4.37 1.9-8.14 2.73-10.68l.68-2.09c8.13-24.64 25.63-82.8 12.98-90.47-12.6-7.62-31.05 11.48-44.52 25.44-6.34 6.57-11.36 11.75-15 13.58-4.67 2.35-8.48.3-11.53-1.36-2.54-1.36-4.03-2.1-5.45-1.2-5.05 3.23-8.2 1.95-10.73.92-1.96-.8-3.13-1.28-5.12.03-6.63 4.34-10.69 1.63-14.27-.76a24.25 24.25 0 00-3.87-2.26c-.3.44-.7 1.55-.97 2.31-.96 2.72-2.56 7.28-7.23 6.07-4.92-1.28-11.37-8.16-19.55-16.86-11.48-12.28-25.6-27.31-37.45-27.31z" fill="#131741"/><path fill-rule="evenodd" clip-rule="evenodd" d="M233.05 276.7c-1.05-3.4-5.5-5.46-9.03-6.16-2.77-.69-5.68 0-8.1-.33.34-2.37 2.14-9.88-3.2-9.18-2.77 0-5.68 8.13-7.4 10.22-2.78 4.1-4.58 3.05-4.92-1.68-.7-4.8 1.73-11.25-2.15-12.22-2.77-.35-4.92 5.07-5.96 8.48-.34 1.67-2.14 3.05-1.45-8.83 0-3.06-.01-9.84-2.43-11.53-4.03-2.83-8.44 19.39-9.9 24.8-1.04-5.4-6.72-28.55-10.94-23.48-1.04 3.06-.34 4.39-.7 7.44 0 1.67-.34 13.28-1.72 11.26-.7-3.4-4.57-10.22-6.73-9.18-3.42 2.05-.7 8.13-1.73 12.93-.7 4.8-2.5 5.77-4.92 1.38-1.46-2.08-3.88-10.2-6.72-10.56-4.92-.7-4.52 8.5-4.52 10.86-2.5 0-13.26-2.96-16.05 4.65-4.51 12.29 12.81 27.95 27.56 25.5 9.4-1.57 13.19-1.38 16.8-.92l20 .36c2.73-2.57 13.02 2.08 16.9 2.08 18.1 1.49 30.6-13.1 27.31-25.9z" fill="#EDA65B"/><path fill-rule="evenodd" clip-rule="evenodd" d="M215.3 346.42c-9.75 11.71-23.78 17.95-35.63 17.95-10.59 0-28.43-8.99-35.6-18" fill="#F05B29"/><path d="M179.67 365.86c-11.1 0-29.31-9.2-36.76-18.57-.51-.64-.4-1.57.24-2.09a1.5 1.5 0 012.08.24c6.88 8.64 24.26 17.44 34.44 17.44 12.34 0 25.55-6.68 34.48-17.41a1.47 1.47 0 012.1-.19c.63.53.7 1.47.18 2.09-9.48 11.4-23.56 18.49-36.76 18.49z" fill="#131741"/><path fill-rule="evenodd" clip-rule="evenodd" d="M179.7 332.86s6.4-13.91 14.3-15.03c7.9-1.12 16.74-1.7 22.18 5.62 5.44 7.32-11.47 23-20.14 22.44-8.66-.57-16.37-4-16.34-13.03zM179.67 332.86s-6.4-13.91-14.3-15.03c-7.9-1.12-15.75-3.68-21.2 3.64-5.43 7.32 10.5 23 19.16 22.44 8.66-.57 16.35-1.9 16.34-11.05z" fill="#EDA65B"/><path d="M195.33 347.69c-3.45 0-6.87-.9-9.86-2.69a15.36 15.36 0 01-5.86-6.06 11.29 11.29 0 01-3.87 3.73c-5.6 3.36-14.22 3.03-21.44-.83a23.59 23.59 0 01-9.22-8.58 1.49 1.49 0 012.51-1.58c2.11 3.34 4.6 5.68 8.1 7.54 6.35 3.38 13.79 3.75 18.52.9a7.71 7.71 0 003.98-6.84h2.97c0 3.62 2.12 6.97 5.82 9.17a16.77 16.77 0 0016.49.2 1.48 1.48 0 111.41 2.6 19.9 19.9 0 01-9.55 2.44z" fill="#131741"/><path fill-rule="evenodd" clip-rule="evenodd" d="M165.2 318.16c0-4.6 2.67-30.13 14.43-30.13 11.05 0 14.53 24.57 14.53 30.07l-14.47 4.78-14.5-4.72z" fill="#FF7B4F"/><path fill-rule="evenodd" clip-rule="evenodd" d="M165.2 318.16c1.3 5.1 4.64 2.88 6.26 5.11 3.24 4.48 3.65 10.2 8.42 10.19 5 0 4.66-5.66 7.32-10.16 1.34-2.26 6.53-.05 6.95-5.2 0 0-3.48-2.16-12.61-.18-1.1.24-2.24.22-3.35 0-10.56-2.06-13 .24-13 .24z" fill="#D43802"/><path d="M179.67 334.78c-4.03 0-4.9-2.81-5.69-5.29a15.1 15.1 0 00-2.05-4.56c-.24-.32-1.07-.46-1.89-.6-2.04-.35-5.48-.93-6.3-5.93a1.48 1.48 0 011.22-1.7c.81-.14 1.57.42 1.7 1.23.48 2.9 1.9 3.14 3.88 3.48 1.34.23 2.85.49 3.79 1.8 1.38 1.9 2 3.84 2.48 5.4.8 2.54 1.08 3.2 2.86 3.2h.01c2.12 0 2.5-.9 3.37-3.73.45-1.44.95-3.08 1.94-4.74.84-1.41 2.46-1.7 3.88-1.95 2.34-.41 3.58-.75 3.83-3.41a1.49 1.49 0 012.96.27c-.46 5.04-4.1 5.68-6.26 6.06-.68.12-1.7.3-1.84.54a18.55 18.55 0 00-1.66 4.1c-.84 2.73-1.8 5.83-6.21 5.83h-.02z" fill="#131741"/><path fill-rule="evenodd" clip-rule="evenodd" d="M260.22 192.5c-4.86 1.21-41.71 31.21-40.64 43.53 1.07 12.44 17.32 10.18 17.32 10.18s7.53 31.04 12.77 20.91c5.53-15.8 24.74-78.12 10.55-74.62zM95.98 194.43c4.87 1.2 38.03 27 36.02 41.75-1.91 14.04-17.18 11.63-17.18 11.63s-5.88 31.2-11.11 21.07c-4.12-15.8-19.7-77.4-7.73-74.45z" fill="#fff"/><path d="M229.28 246.94c-.1 0-.18 0-.28-.03a1.47 1.47 0 01-1.2-1.3c-2.17-20.99 18.24-29.73 18.45-29.82.76-.32 1.63.04 1.94.8.32.75-.04 1.62-.8 1.94-.7.29-15.43 6.65-16.7 21.84 4.97-6.67 12.1-10.41 19.42-10.02.82.05 1.44.74 1.4 1.56a1.5 1.5 0 01-1.57 1.4c-7.76-.44-15 4.35-19.35 12.81-.25.53-.77.82-1.31.82zM124.3 246.94c-.54 0-1.05-.3-1.31-.8-4.35-8.46-11.6-13.25-19.35-12.81a1.5 1.5 0 01-1.56-1.4 1.48 1.48 0 011.39-1.56c7.34-.4 14.44 3.34 19.4 10-1.34-15.25-16.51-21.75-16.68-21.83a1.49 1.49 0 011.14-2.74c.2.09 20.62 8.83 18.45 29.82a1.48 1.48 0 01-1.2 1.3c-.09.02-.19.02-.28.02z" fill="#F05B29"/><path d="M247.37 270.64a4.5 4.5 0 01-.38-.02c-5-.6-9.33-15.27-11.23-22.8-2.75.17-9.08.13-13.41-3.32-2.51-2-3.95-4.81-4.26-8.33-1.14-13.17 36.17-43.72 41.77-45.1 2.44-.6 3.95.37 4.79 1.28 1.26 1.4 5.12 5.63-2.07 35.84a456.72 456.72 0 01-11.51 39.44l-.08.18c-1.18 2.28-2.56 2.83-3.62 2.83zm-9.34-26.08l.31 1.3c2.76 11.38 6.97 21.57 9 21.82.06.05.45-.17.97-1.14 7.74-22.17 19.81-65.96 14.15-72.19-.31-.34-.79-.67-1.88-.4-4.1 1-40.5 30.72-39.53 41.96.24 2.72 1.27 4.77 3.15 6.26 4.56 3.63 12.41 2.59 12.5 2.58l1.33-.2zM105.9 272.4c-1.36 0-2.54-.94-3.51-2.82l-.12-.31c-8-30.79-16.22-68.82-9.88-75.24.73-.75 2-1.53 3.96-1.04 6 1.48 39.25 27.78 37.13 43.39-.6 4.34-2.42 7.68-5.45 9.93-4.18 3.12-9.5 3.25-12 3.1-1.5 7.6-5 22.26-9.68 22.96-.16.02-.3.03-.46.03zm-.8-4.04c.52.95.85 1.08.85 1.09 1.8-.39 5.28-10.62 7.41-21.9l.27-1.41 1.42.23c.07 0 6.66.98 11.22-2.43 2.36-1.76 3.79-4.43 4.26-7.94 1.82-13.4-30.3-38.97-34.9-40.11-.67-.17-.94.04-1.13.23-3.13 3.17-1.98 23.81 10.6 72.24z" fill="#131741"/><path fill-rule="evenodd" clip-rule="evenodd" d="M227.03 280.76s-4.78 21.64-26.93 12.16c2.23-11.89 8.36-16.11 26.93-12.16z" fill="#fff"/><path d="M210.44 296.82c-3.34 0-6.98-.84-10.92-2.52l-1.1-.47.22-1.17c1.14-6.07 3.27-9.96 6.71-12.25 4.53-3.02 11.3-3.36 21.98-1.08l1.46.3-.32 1.47c-.09.4-2.25 9.81-10.21 13.9a16.96 16.96 0 01-7.81 1.82zm-8.64-4.8c5.93 2.32 11 2.44 15.08.34 5.02-2.56 7.38-7.89 8.25-10.46-8.8-1.71-14.59-1.4-18.14.96-2.55 1.7-4.17 4.55-5.2 9.16z" fill="#131741"/><path fill-rule="evenodd" clip-rule="evenodd" d="M214.65 279.75s1.54 10.04-1.07 10.48c-2.6.46-4.55-9.54-4.55-9.54l5.62-.94z" fill="#131741"/><path fill-rule="evenodd" clip-rule="evenodd" d="M132.35 280.76s4.78 21.64 26.93 12.16c-2.24-11.89-8.36-16.11-26.93-12.16z" fill="#fff"/><path d="M148.93 296.82c-2.84 0-5.45-.61-7.83-1.83-7.96-4.09-10.12-13.5-10.2-13.9l-.33-1.46 1.46-.31c10.67-2.28 17.45-1.94 21.98 1.08 3.44 2.3 5.58 6.19 6.7 12.25l.23 1.17-1.1.47c-3.92 1.68-7.57 2.53-10.91 2.53zm-14.7-14.92c.88 2.57 3.24 7.9 8.25 10.46 4.08 2.08 9.15 1.98 15.08-.34-1.02-4.6-2.64-7.45-5.2-9.15-3.54-2.37-9.33-2.69-18.13-.97z" fill="#131741"/><path fill-rule="evenodd" clip-rule="evenodd" d="M144.72 279.75s-1.53 10.04 1.07 10.48c2.6.46 4.55-9.54 4.55-9.54l-5.62-.94z" fill="#131741"/><path d="M168.3 287.28c0 14.14-10.54 23.27-23.7 23.27-13.18 0-24-6.31-24-24.2 0-12.92 9.17-15.21 22.28-14.77 13.16.47 25.43 1.86 25.43 15.7zM191 287.55c0 14.4 10.74 23.7 24.15 23.7 13.42 0 24.44-6.43 24.44-24.66 0-13.15-9.35-15.5-22.7-15.04-13.4.48-25.9 1.9-25.9 16z" fill="#2E338C"/><path d="M246.9 271.88s-6.16-4.1-25.05-4.94c-18.9-.82-34.92 6.57-35.95 6.57-.61 0-3.9.21-5.95.62-2.06-.21-5.55-.62-5.97-.62-1.03.21-17.05-7.39-35.95-6.57-19.1.62-25.47 4.94-25.47 4.94s-13.54 8.69-13.57 9.44c-.06 1.56 1.46 3.38 1.92 5.2.2.8 12.46-5.9 12.89-5.6 1.84 1.23 2.26 10.26 2.26 10.26.61 7.6 2.05 11.91 3.7 14.79 1.85 2.88 3.7 3.9 5.55 5.13 3.7 2.67 14.18 6.78 27.94 2.87 13.76-3.9 19.92-19.5 21.16-27.11.82-4.52 3.07-5.75 4.92-5.96 1.85.21 4.1 1.64 4.93 5.96 1.23 7.6 6.98 23.2 21.16 27.11s24.24-.61 27.94-2.88c3.7-2.67 8-4.72 9.44-20.13 0 0 .61-8.83 2.27-10.27.61-.27 9.88 3.09 10.16 2.1.42-1.47 1.63-3.66 1.65-5.1 0-1.11-9.98-5.81-9.97-5.81zM167 292.62c-3.5 15.62-19.31 20.33-33.07 15.62-13.76-4.93-12.33-23.42-12.33-23.42s-1.03-13.15 18.08-12.52c0 0 10.88 0 15.61 1.22 4.1 1.45 15 3.5 11.7 19.1zm58.96 15.82c-13.77 4.93-29.8 0-33.08-15.6-3.28-15.62 7.6-17.68 11.91-19.11 4.53-1.23 15.62-1.23 15.62-1.23 18.7-.2 18.08 12.54 18.08 12.54s1.22 18.27-12.53 23.4z" fill="#151841"/><path d="M142.4 276.98s-19.46-3.68-14.22 18.35c.38-6.5 2.23-15.52 14.23-18.35zM212.69 277.39s-17.57-1.43-14.22 15.94c.84-5.3 4.78-13.58 14.22-15.94z" fill="#fff"/><path fill-rule="evenodd" clip-rule="evenodd" d="M108.46 272.23c6.16-.83 9-3.86 9.72-9.73.98 5.94 4.35 8.7 9.76 9.76-5.48.77-9.24 4.34-9.8 9.79-.95-5.45-3.63-8.62-9.68-9.82z" fill="#fff"/><path opacity=".3" d="M183 68v100m0 0h-10m10 0v10m0-10h100m-210 0h100m0-100v100m0 0v10m-100 0h100m0 0h10m-10 0v100m10-100h100m-100 0v100M283 68v100m0 0v10m0-10h10m-10 10h10m-10 0v100m10-210v100m0 0v10m0-10h100m-100 10h100m-100 0v100m0 0h-10m10 0h100m-100 0v10m-10-10H183m100 0v10m-100-10h-10m10 0v10m-10-10H73m100 0v10m120 100V288m-10 100V288M183 388V288m-10 100V288m120 0h100m-100 0h-10m0 0H183m0 0h-10m0 0H73" stroke="#000" stroke-dasharray="8 12"/><defs><filter id="filter0_d" x="289" y="66" width="108" height="108" filterUnits="userSpaceOnUse" color-interpolation-filters="sRGB"><feFlood flood-opacity="0" result="BackgroundImageFix"/><feColorMatrix in="SourceAlpha" values="0 0 0 0 0 0 0 0 0 0 0 0 0 0 0 0 0 0 127 0"/><feOffset dy="2"/><feGaussianBlur stdDeviation="2"/><feColorMatrix values="0 0 0 0 0 0 0 0 0 0 0 0 0 0 0 0 0 0 0.2 0"/><feBlend in2="BackgroundImageFix" result="effect1_dropShadow"/><feBlend in="SourceGraphic" in2="effect1_dropShadow" result="shape"/></filter><filter id="filter1_d" x="289" y="66" width="108" height="108" filterUnits="userSpaceOnUse" color-interpolation-filters="sRGB"><feFlood flood-opacity="0" result="BackgroundImageFix"/><feColorMatrix in="SourceAlpha" values="0 0 0 0 0 0 0 0 0 0 0 0 0 0 0 0 0 0 127 0"/><feOffset dy="2"/><feGaussianBlur stdDeviation="2"/><feColorMatrix values="0 0 0 0 0 0 0 0 0 0 0 0 0 0 0 0 0 0 0.2 0"/><feBlend in2="BackgroundImageFix" result="effect1_dropShadow"/><feBlend in="SourceGraphic" in2="effect1_dropShadow" result="shape"/></filter><filter id="filter2_d" x="289" y="176" width="108" height="108" filterUnits="userSpaceOnUse" color-interpolation-filters="sRGB"><feFlood flood-opacity="0" result="BackgroundImageFix"/><feColorMatrix in="SourceAlpha" values="0 0 0 0 0 0 0 0 0 0 0 0 0 0 0 0 0 0 127 0"/><feOffset dy="2"/><feGaussianBlur stdDeviation="2"/><feColorMatrix values="0 0 0 0 0 0 0 0 0 0 0 0 0 0 0 0 0 0 0.2 0"/><feBlend in2="BackgroundImageFix" result="effect1_dropShadow"/><feBlend in="SourceGraphic" in2="effect1_dropShadow" result="shape"/></filter><filter id="filter3_d" x="289" y="176" width="108" height="108" filterUnits="userSpaceOnUse" color-interpolation-filters="sRGB"><feFlood flood-opacity="0" result="BackgroundImageFix"/><feColorMatrix in="SourceAlpha" values="0 0 0 0 0 0 0 0 0 0 0 0 0 0 0 0 0 0 127 0"/><feOffset dy="2"/><feGaussianBlur stdDeviation="2"/><feColorMatrix values="0 0 0 0 0 0 0 0 0 0 0 0 0 0 0 0 0 0 0.2 0"/><feBlend in2="BackgroundImageFix" result="effect1_dropShadow"/><feBlend in="SourceGraphic" in2="effect1_dropShadow" result="shape"/></filter><filter id="filter4_d" x="179" y="66" width="108" height="108" filterUnits="userSpaceOnUse" color-interpolation-filters="sRGB"><feFlood flood-opacity="0" result="BackgroundImageFix"/><feColorMatrix in="SourceAlpha" values="0 0 0 0 0 0 0 0 0 0 0 0 0 0 0 0 0 0 127 0"/><feOffset dy="2"/><feGaussianBlur stdDeviation="2"/><feColorMatrix values="0 0 0 0 0 0 0 0 0 0 0 0 0 0 0 0 0 0 0.2 0"/><feBlend in2="BackgroundImageFix" result="effect1_dropShadow"/><feBlend in="SourceGraphic" in2="effect1_dropShadow" result="shape"/></filter><filter id="filter5_d" x="179" y="66" width="108" height="108" filterUnits="userSpaceOnUse" color-interpolation-filters="sRGB"><feFlood flood-opacity="0" result="BackgroundImageFix"/><feColorMatrix in="SourceAlpha" values="0 0 0 0 0 0 0 0 0 0 0 0 0 0 0 0 0 0 127 0"/><feOffset dy="2"/><feGaussianBlur stdDeviation="2"/><feColorMatrix values="0 0 0 0 0 0 0 0 0 0 0 0 0 0 0 0 0 0 0.2 0"/><feBlend in2="BackgroundImageFix" result="effect1_dropShadow"/><feBlend in="SourceGraphic" in2="effect1_dropShadow" result="shape"/></filter><filter id="filter6_d" x="69" y="66" width="108" height="108" filterUnits="userSpaceOnUse" color-interpolation-filters="sRGB"><feFlood flood-opacity="0" result="BackgroundImageFix"/><feColorMatrix in="SourceAlpha" values="0 0 0 0 0 0 0 0 0 0 0 0 0 0 0 0 0 0 127 0"/><feOffset dy="2"/><feGaussianBlur stdDeviation="2"/><feColorMatrix values="0 0 0 0 0 0 0 0 0 0 0 0 0 0 0 0 0 0 0.2 0"/><feBlend in2="BackgroundImageFix" result="effect1_dropShadow"/><feBlend in="SourceGraphic" in2="effect1_dropShadow" result="shape"/></filter><filter id="filter7_d" x="69" y="66" width="108" height="108" filterUnits="userSpaceOnUse" color-interpolation-filters="sRGB"><feFlood flood-opacity="0" result="BackgroundImageFix"/><feColorMatrix in="SourceAlpha" values="0 0 0 0 0 0 0 0 0 0 0 0 0 0 0 0 0 0 127 0"/><feOffset dy="2"/><feGaussianBlur stdDeviation="2"/><feColorMatrix values="0 0 0 0 0 0 0 0 0 0 0 0 0 0 0 0 0 0 0.2 0"/><feBlend in2="BackgroundImageFix" result="effect1_dropShadow"/><feBlend in="SourceGraphic" in2="effect1_dropShadow" result="shape"/></filter><filter id="filter8_d" x="69" y="176" width="218" height="218" filterUnits="userSpaceOnUse" color-interpolation-filters="sRGB"><feFlood flood-opacity="0" result="BackgroundImageFix"/><feColorMatrix in="SourceAlpha" values="0 0 0 0 0 0 0 0 0 0 0 0 0 0 0 0 0 0 127 0"/><feOffset dy="2"/><feGaussianBlur stdDeviation="2"/><feColorMatrix values="0 0 0 0 0 0 0 0 0 0 0 0 0 0 0 0 0 0 0.2 0"/><feBlend in2="BackgroundImageFix" result="effect1_dropShadow"/><feBlend in="SourceGraphic" in2="effect1_dropShadow" result="shape"/></filter><filter id="filter9_d" x="69" y="176" width="218" height="218" filterUnits="userSpaceOnUse" color-interpolation-filters="sRGB"><feFlood flood-opacity="0" result="BackgroundImageFix"/><feColorMatrix in="SourceAlpha" values="0 0 0 0 0 0 0 0 0 0 0 0 0 0 0 0 0 0 127 0"/><feOffset dy="2"/><feGaussianBlur stdDeviation="2"/><feColorMatrix values="0 0 0 0 0 0 0 0 0 0 0 0 0 0 0 0 0 0 0.2 0"/><feBlend in2="BackgroundImageFix" result="effect1_dropShadow"/><feBlend in="SourceGraphic" in2="effect1_dropShadow" result="shape"/></filter></defs></svg>