<svg width="705" height="148" viewBox="0 0 705 148" fill="none" xmlns="http://www.w3.org/2000/svg"><g clip-path="url(#clip0)"><path fill="#E0E7ED" d="M0 0h705v148H0z"/><g filter="url(#filter0_d)"><path d="M-23 28.9c0-4.91 3.58-8.9 8-8.9h612c4.42 0 8 3.99 8 8.9v90.2c0 4.91-3.58 8.9-8 8.9H-15c-4.42 0-8-3.99-8-8.9V28.9z" fill="#F5F9FC"/></g><path d="M-23 24.9c0-2.7 3.58-4.9 8-4.9h150v108H-15c-4.42 0-8-2.2-8-4.9V24.9zM175 74a24 24 0 0124-24h164a24 24 0 110 48H199a24 24 0 01-24-24z" fill="#fff"/><path fill-rule="evenodd" clip-rule="evenodd" d="M363 52H199a22 22 0 000 44h164a22 22 0 000-44zm-164-2a24 24 0 100 48h164a24 24 0 100-48H199z" fill="#A8C9E1"/><path d="M175 74a24 24 0 0124-24h20v48h-20a24 24 0 01-24-24z" fill="#A8C9E1"/><path fill-rule="evenodd" clip-rule="evenodd" d="M200.32 64.05a1 1 0 01.63 1.27L199.39 70h3.89l1.77-5.32a1 1 0 011.9.64L205.39 70H208a1 1 0 010 2h-3.28l-1.33 4H206a1 1 0 010 2h-3.28l-1.77 5.32a1 1 0 01-1.9-.64l1.56-4.68h-3.89l-1.77 5.32a1 1 0 01-1.9-.64l1.56-4.68H192a1 1 0 010-2h3.28l1.33-4H194a1 1 0 010-2h3.28l1.77-5.32a1 1 0 011.27-.63zm-1.6 7.95l-1.33 4h3.89l1.33-4h-3.89z" fill="#fff"/><path d="M243.31 71.3a8.02 8.02 0 012.47-2.49 5.9 5.9 0 013-.75c1.28 0 2.2.36 2.76 1.09.56.73.84 1.74.84 3.05 0 1.55-.2 2.95-.61 4.2-.4 1.25-.93 2.31-1.6 3.2a7.5 7.5 0 01-2.32 2.04 5.6 5.6 0 01-4.82.28 3.85 3.85 0 01-1.37-1.12 5 5 0 01-.76-1.63 8.26 8.26 0 01-.22-1.96c0-1.98.19-3.82.56-5.51.4-1.7.91-3.19 1.57-4.46a10.17 10.17 0 012.35-3.08 5.77 5.77 0 012.91-1.42 247.5 247.5 0 013.92-.45c.52-.06.96-.12 1.32-.2.37-.1.66-.22.87-.39l-.09 1.96c-.3.22-.8.42-1.51.59-.7.15-1.74.28-3.14.39-.63.06-1.25.17-1.84.34a4.5 4.5 0 00-1.68.95 7 7 0 00-1.52 1.99c-.46.85-.9 1.98-1.28 3.38h.2zm-.39 5.6c0 .49.03.95.08 1.38.06.43.18.8.37 1.12.18.31.45.57.78.75.34.17.79.25 1.35.25s1.1-.17 1.65-.53c.56-.37 1.05-.9 1.48-1.57a8.9 8.9 0 001.1-2.43c.27-.95.41-2.02.41-3.2 0-.35-.03-.68-.1-1a2.1 2.1 0 00-.34-.84c-.17-.26-.4-.47-.7-.62a2.39 2.39 0 00-1.12-.22 3.4 3.4 0 00-1.82.56c-.6.35-1.13.85-1.6 1.48a8.2 8.2 0 00-1.54 4.87zM258.94 68l-1.96 9.32c-.12.5-.17.97-.17 1.4 0 .53.1.97.3 1.32.21.34.58.5 1.13.5.44 0 .9-.1 1.34-.33a7.56 7.56 0 002.46-2.04c.36-.44.65-.86.87-1.27l1.88-8.9h2.1l-1.77 8.32a90.49 90.49 0 00-.45 2.6 45.82 45.82 0 00-.19 2.72V82h-1.65v-2.66h-.11a8.72 8.72 0 01-2.19 2.04 6.05 6.05 0 01-3 .96c-.4 0-.79-.05-1.14-.14-.34-.1-.64-.26-.9-.48a2.52 2.52 0 01-.61-.92c-.15-.4-.23-.9-.23-1.49 0-.65.1-1.39.28-2.21l1.9-9.1h2.1zM268.67 77.63c0-1.47.19-2.82.56-4.03.4-1.23.93-2.29 1.6-3.16a7.5 7.5 0 012.32-2.05 5.9 5.9 0 012.86-.73c.78 0 1.45.13 1.99.4a3.84 3.84 0 012.1 2.55c.15.55.22 1.14.22 1.76 0 1.4-.19 2.7-.56 3.92a10.17 10.17 0 01-1.51 3.16c-.64.9-1.38 1.6-2.24 2.13-.86.5-1.8.76-2.8.76-.84 0-1.55-.13-2.13-.4a4.3 4.3 0 01-1.4-1.09 4.48 4.48 0 01-.78-1.51 6.62 6.62 0 01-.23-1.7zm2.24-.5c0 1.1.2 1.95.62 2.55.41.57 1.06.86 1.96.86.62 0 1.2-.21 1.74-.64a5.9 5.9 0 001.45-1.8 11.6 11.6 0 001.4-5.57c0-.95-.18-1.7-.53-2.23-.34-.56-.99-.84-1.96-.84-.62 0-1.2.21-1.76.64-.56.41-1.07.97-1.52 1.68-.43.71-.77 1.53-1.03 2.46-.25.92-.37 1.88-.37 2.89zM281.97 78.64c0-.9.2-1.62.6-2.18.38-.56.88-1.03 1.48-1.4.6-.38 1.24-.69 1.93-.93.69-.24 1.33-.48 1.93-.73.6-.26 1.1-.55 1.48-.86.4-.34.6-.78.6-1.32 0-.6-.18-1.02-.51-1.26-.32-.24-.88-.36-1.68-.36-.71 0-1.33.08-1.85.25-.5.15-.96.32-1.37.53l-.42-1.65c.6-.32 1.25-.55 1.96-.7.7-.15 1.45-.23 2.24-.23.75 0 1.36.09 1.85.26.5.16.9.39 1.2.67.3.28.5.6.62.98.13.37.2.76.2 1.17 0 .9-.2 1.63-.6 2.19-.39.54-.88.99-1.48 1.34-.6.34-1.24.62-1.93.84-.7.23-1.34.47-1.93.73-.6.26-1.1.58-1.49.95-.39.36-.59.84-.59 1.46 0 .65.21 1.17.62 1.57.43.39.99.58 1.68.58a6.83 6.83 0 003.61-1.12l.56 1.38a7.2 7.2 0 01-4.31 1.54c-.91 0-1.66-.13-2.24-.37-.56-.26-1-.58-1.34-.95a3.04 3.04 0 01-.65-1.2 4.7 4.7 0 01-.17-1.18zM296.76 68h1.46l-.14 2.4h.11c.26-.33.55-.65.87-.97.33-.34.7-.64 1.09-.9a5.12 5.12 0 012.8-.87c.45 0 .87.08 1.26.23.4.13.74.36 1.04.7.3.32.53.74.7 1.29.18.54.28 1.2.28 1.98 0 1.65-.23 3.12-.68 4.43a10.73 10.73 0 01-1.76 3.27 8.02 8.02 0 01-2.46 2.08c-.9.46-1.8.7-2.7.7-.64 0-1.22-.07-1.73-.2a2.75 2.75 0 01-.98-.36l-1.23 5.82h-2.1l4.17-19.6zm5.4 1.46c-.5 0-.98.13-1.45.39a6.2 6.2 0 00-1.26.98 9.85 9.85 0 00-1.74 2.44l-1.37 6.63c.32.24.65.41.98.5a4.07 4.07 0 003.17-.44 6.07 6.07 0 001.79-1.74c.52-.75.93-1.64 1.23-2.69.32-1.04.48-2.21.48-3.5 0-.74-.16-1.36-.48-1.85-.3-.48-.75-.72-1.34-.72zM318.54 76.48c-.15.7-.25 1.4-.3 2.1-.06.71-.1 1.38-.1 2v.8c0 .25.03.47.06.68h-1.56l-.4-2.44h-.1a7.62 7.62 0 01-1.91 1.85 5.26 5.26 0 01-2.69.87c-2.22 0-3.33-1.45-3.33-4.34 0-1.2.15-2.41.45-3.64.31-1.24.79-2.35 1.42-3.34a8.16 8.16 0 012.5-2.43 6.9 6.9 0 013.7-.95c.52 0 1.15.06 1.9.2.76.1 1.47.26 2.13.47l-1.77 8.17zm-6.36 4.06c.45 0 .88-.1 1.3-.3.4-.23.79-.5 1.14-.82a7.12 7.12 0 001.65-2.04l1.57-7.56a5.04 5.04 0 00-2.13-.4 3.6 3.6 0 00-2.26.76c-.66.5-1.2 1.17-1.66 2-.44.8-.78 1.7-1 2.74a14.41 14.41 0 00-.34 3.08c0 .7.14 1.31.42 1.82.28.48.72.72 1.31.72zM327.82 82.11a3.93 3.93 0 01-1.4.22c-1.53 0-2.68-.4-3.45-1.23a4.64 4.64 0 01-1.15-3.24c0-1.6.21-3 .62-4.26.41-1.25.97-2.3 1.68-3.16a6.84 6.84 0 016.72-2.55L332 62.4H334l-1.17 5.52a10.16 10.16 0 011.62-.14c1.46 0 2.56.4 3.3 1.23a4.4 4.4 0 011.15 3.16c0 1.76-.23 3.28-.7 4.57a9.7 9.7 0 01-1.76 3.16 6.91 6.91 0 01-5.94 2.38 2.1 2.1 0 01-.7-.14l-1.14 5.46h-2.02l1.18-5.49zm5.82-12.54a6.81 6.81 0 00-1.23.17l-2.27 10.7a5.86 5.86 0 001.18.1c.6 0 1.21-.16 1.85-.5.63-.34 1.2-.84 1.7-1.51a8.4 8.4 0 001.3-2.52c.33-1.03.5-2.23.5-3.61 0-1.89-1.01-2.83-3.03-2.83zm-6.8 10.97c.2 0 .42-.01.64-.05l.73-.11 2.27-10.67a7.4 7.4 0 00-1.26-.14c-.56 0-1.15.18-1.77.53-.6.34-1.14.84-1.65 1.51-.5.67-.92 1.5-1.26 2.47-.32.97-.48 2.08-.48 3.33 0 .93.24 1.69.7 2.27.47.57 1.16.86 2.08.86zM345.62 68l-1.96 9.32c-.12.5-.17.97-.17 1.4 0 .53.1.97.3 1.32.21.34.58.5 1.13.5.44 0 .9-.1 1.34-.33a7.6 7.6 0 002.46-2.04c.36-.44.65-.86.87-1.27l1.88-8.9h2.1l-1.77 8.32a80.19 80.19 0 00-.45 2.6 43.16 43.16 0 00-.19 2.72V82h-1.65v-2.66h-.11a8.8 8.8 0 01-2.19 2.04 6.05 6.05 0 01-3 .96c-.4 0-.79-.05-1.14-.14a2.3 2.3 0 01-.9-.48 2.51 2.51 0 01-.61-.92c-.15-.4-.23-.9-.23-1.49 0-.65.1-1.39.28-2.21l1.9-9.1h2.1zM362.88 76.23l-2.15.34-4.5 5.43h-2.73l4.1-4.79 1.36-1.03a3.5 3.5 0 01-1.87-.93c-.5-.5-.76-1.2-.76-2.1a5.15 5.15 0 011.96-4.03 6.4 6.4 0 012.07-1.06 8.08 8.08 0 013.64-.31 9.06 9.06 0 011.96.39c.27.07.48.14.65.2L363.75 82h-2.1l1.24-5.77zm1.4-6.41c-.09-.1-.3-.18-.61-.25a5.87 5.87 0 00-1.29-.11c-1.12 0-2.03.31-2.74.95a3.13 3.13 0 00-1.07 2.49c0 1.36.97 2.04 2.92 2.04h.81l.87-.05 1.12-5.07z" fill="#67A0CF"/><path d="M86.74 74.24l-14.5-21.07-6.68 5.46 7.63 11.9 4.33 3.81-4.33 3.42L65 89.56l6.68 5.46 15.06-20.78zm18.26.2L89.94 52l-7.43 6.05 8.18 12.3 4.52 4-4.52 3.5-8.75 12.1L89.38 96 105 74.44z" fill="#EDF4FA"/><path fill-rule="evenodd" clip-rule="evenodd" d="M387 50H219v48h168V50zm-20 10H239v28h128V60z" fill="#744CE5" fill-opacity=".2"/><path fill-rule="evenodd" clip-rule="evenodd" d="M238 59h130v30H238V59zm148-8H220v46h166V51zm1-1v48H219V50h168zm-20 10v28H239V60h128z" fill="#744CE5"/><path fill-rule="evenodd" clip-rule="evenodd" d="M225 91.39l-5-2.89 5-2.89V88h8v-2.39l5 2.89-5 2.89V89h-8v2.39z" fill="#744CE5"/><path d="M224.84 80.75l.76 1.98h1.26l-.62-1.63h5.52v1.63H233v-4.44h-1.24v1.45h-6.92v1zM228.92 77.44c2.39 0 4.24-1.12 4.24-3.66 0-2.53-1.85-3.66-4.24-3.66s-4.24 1.13-4.24 3.66c0 2.54 1.85 3.66 4.24 3.66zm0-5.94c1.9 0 2.99.72 2.99 2.28 0 1.58-1.1 2.28-2.99 2.28-1.9 0-2.99-.7-2.99-2.28 0-1.56 1.1-2.28 2.99-2.28zM228.14 67.6h-.9v1.14h8.4v-1.28h-3.38c.45-.4.9-1.07.9-2.08 0-1.72-1.38-2.85-3.04-2.85-1.66 0-3.04 1.13-3.04 2.85 0 1.08.5 1.77 1.06 2.22zm1.98-3.76c1.13 0 1.9.74 1.9 1.78 0 .9-.57 1.56-1.2 1.84h-1.4a2.03 2.03 0 01-1.2-1.84c0-1.04.77-1.78 1.9-1.78zM227.24 57.92l1.94 1.38-1.94 1.38v1.47l2.82-2.1 2.94 2.22V60.8l-2.04-1.5 2.04-1.5v-1.46l-2.94 2.22-2.82-2.1v1.46z" fill="#744CE5"/><path fill-rule="evenodd" clip-rule="evenodd" d="M300.11 46l2.89 5 2.89-5h-2.39V35h-1v11h-2.39zM300.11 64l2.89-5 2.89 5h-2.39v3h-1v-3h-2.39z" fill="#744CE5"/><path fill-rule="evenodd" clip-rule="evenodd" d="M303.5 61V47h-1v14h1z" fill="#744CE5"/><path d="M309.6 36.84l-.26 4.54a6.63 6.63 0 012.08-.36c1.3 0 2.22.38 2.22 1.46 0 .96-.87 1.44-2.08 1.44-.85 0-1.78-.2-2.46-.6v1.28c.72.35 1.67.56 2.62.56 1.8 0 3.3-.9 3.3-2.67 0-1.92-1.47-2.6-3.04-2.6-.42 0-.84.05-1.24.14l.12-1.97h3.77v-1.22h-5.03zM317.45 40.14v-.9h-1.14v8.4h1.29v-3.38c.4.45 1.06.9 2.07.9 1.73 0 2.86-1.38 2.86-3.04 0-1.66-1.13-3.04-2.86-3.04-1.08 0-1.76.5-2.22 1.06zm3.77 1.98c0 1.13-.75 1.9-1.79 1.9-.89 0-1.56-.57-1.83-1.2v-1.4c.27-.63.94-1.2 1.83-1.2 1.05 0 1.79.77 1.79 1.9zM327.13 39.24l-1.38 1.94-1.38-1.94h-1.46l2.1 2.82-2.22 2.94h1.46l1.5-2.04 1.5 2.04h1.46l-2.21-2.94 2.1-2.82h-1.47z" fill="#744CE5"/></g><defs><clipPath id="clip0"><path fill="#fff" d="M0 0h705v148H0z"/></clipPath><filter id="filter0_d" x="-39" y="16" width="660" height="140" filterUnits="userSpaceOnUse" color-interpolation-filters="sRGB"><feFlood flood-opacity="0" result="BackgroundImageFix"/><feColorMatrix in="SourceAlpha" values="0 0 0 0 0 0 0 0 0 0 0 0 0 0 0 0 0 0 127 0"/><feOffset dy="12"/><feGaussianBlur stdDeviation="8"/><feColorMatrix values="0 0 0 0 0.214983 0 0 0 0 0.259764 0 0 0 0 0.293351 0 0 0 0.1 0"/><feBlend in2="BackgroundImageFix" result="effect1_dropShadow"/><feBlend in="SourceGraphic" in2="effect1_dropShadow" result="shape"/></filter></defs></svg>