<svg width="705" height="210" viewBox="0 0 705 210" fill="none" xmlns="http://www.w3.org/2000/svg"><g clip-path="url(#clip0)"><path fill="#E0E7ED" d="M0 0h705v210H0z"/><g filter="url(#filter0_d)"><path d="M10 14a4 4 0 014-4h677a4 4 0 014 4v56a4 4 0 01-4 4H14a4 4 0 01-4-4V14z" fill="#F5F9FC"/></g><path d="M10 14a4 4 0 014-4h446v64H14a4 4 0 01-4-4V14zM598 42a12 12 0 0112-12h40a12 12 0 010 24h-40a12 12 0 01-12-12z" fill="#fff"/><path fill-rule="evenodd" clip-rule="evenodd" d="M650 31h-40a11 11 0 000 22h40a11 11 0 000-22zm-40-1a12 12 0 000 24h40a12 12 0 000-24h-40z" fill="#A8C9E1"/><path d="M598 42a12 12 0 0112-12h10v24h-10a12 12 0 01-12-12z" fill="#A8C9E1"/><path fill-rule="evenodd" clip-rule="evenodd" d="M610.66 37.03c.26.08.4.37.31.63L610.2 40h1.95l.89-2.66a.5.5 0 11.94.32L613.2 40h1.31a.5.5 0 010 1h-1.64l-.67 2h1.31a.5.5 0 010 1h-1.64l-.89 2.66a.5.5 0 11-.94-.32l.78-2.34h-1.95l-.89 2.66a.5.5 0 11-.94-.32l.78-2.34h-1.31a.5.5 0 010-1h1.64l.67-2h-1.31a.5.5 0 010-1h1.64l.89-2.66a.5.5 0 01.63-.31zm-.8 3.97l-.67 2h1.95l.67-2h-1.95z" fill="#fff"/><path d="M631.1 44.96h1.86l1.45-6.77.3-.83-.68.66-1.68 1.1-.39-.7 3.46-2.39h.48l-1.9 8.93h1.81l-.2 1.04h-4.73l.21-1.04zM644.04 42.58c0 .53-.08 1-.24 1.45-.15.43-.38.8-.67 1.13-.3.32-.65.56-1.07.74-.4.18-.87.27-1.38.27a2.57 2.57 0 01-1.73-.67 2.82 2.82 0 01-.57-.94 3.91 3.91 0 01-.22-1.42c0-.93.17-1.81.53-2.64a7.73 7.73 0 013.32-3.74 5.8 5.8 0 012.17-.73l.05.9a6.41 6.41 0 00-4.05 2.74 5.6 5.6 0 00-.74 1.47 3 3 0 012.27-.97c.67 0 1.23.21 1.67.62.44.4.66 1 .66 1.8zm-1.12.14c0-.46-.12-.85-.35-1.14-.24-.3-.62-.45-1.15-.45a3 3 0 00-1.76.7c-.15.13-.28.27-.37.42a19.8 19.8 0 00-.08.78c0 .31.02.6.08.87.07.26.16.49.3.69.13.2.29.35.48.46.2.11.44.17.72.17.37 0 .7-.07.96-.21a2.15 2.15 0 001.04-1.37c.08-.3.13-.6.13-.92zM645.32 40.76h2.46v-2.53h1.01v2.53h2.46v1.01h-2.46v2.54h-1v-2.54h-2.47v-1z" fill="#67A0CF"/><path d="M480 42a12 12 0 0112-12h84a12 12 0 010 24h-84a12 12 0 01-12-12z" fill="#fff"/><path fill-rule="evenodd" clip-rule="evenodd" d="M576 31h-84a11 11 0 000 22h84a11 11 0 000-22zm-84-1a12 12 0 000 24h84a12 12 0 000-24h-84z" fill="#A8C9E1"/><path d="M480 42a12 12 0 0112-12h10v24h-10a12 12 0 01-12-12z" fill="#A8C9E1"/><path fill-rule="evenodd" clip-rule="evenodd" d="M492.66 37.03c.26.08.4.37.31.63L492.2 40h1.95l.89-2.66a.5.5 0 11.94.32L495.2 40h1.31a.5.5 0 010 1h-1.64l-.67 2h1.31a.5.5 0 010 1h-1.64l-.89 2.66a.5.5 0 11-.94-.32l.78-2.34h-1.95l-.89 2.66a.5.5 0 11-.94-.32l.78-2.34h-1.31a.5.5 0 010-1h1.64l.67-2h-1.31a.5.5 0 010-1h1.64l.89-2.66a.5.5 0 01.63-.31zm-.8 3.97l-.67 2h1.95l.67-2h-1.95z" fill="#fff"/><path d="M518.86 41.84l.35-1.33h-.06l-.71 1.08-2.18 2.74h-.37l-1.09-2.74-.21-1.08h-.06l-.18 1.32-.88 4.17h-.98l1.48-7h.97l1.19 3.14.21.8h.03l.57-.83 2.41-3.11h1.15L519 46h-1.03l.88-4.16zM526.14 45.31c-.32.28-.71.5-1.16.65-.44.14-.88.2-1.33.2-.75 0-1.31-.2-1.7-.64a2.64 2.64 0 01-.55-1.79c0-.76.1-1.45.32-2.06.21-.6.5-1.12.84-1.54.35-.42.75-.74 1.19-.96.45-.23.9-.34 1.37-.34.34 0 .63.05.87.14.25.1.46.22.61.38.16.15.28.33.35.53a1.77 1.77 0 01-.85 2.2 5.7 5.7 0 01-2.81.56h-.35c-.13 0-.25-.02-.38-.03a5.23 5.23 0 00-.11.93c0 .51.11.93.35 1.26.23.31.6.47 1.09.47a3.07 3.07 0 001.92-.63l.33.67zm-1.19-5.58c-.51 0-.96.18-1.34.53a3.3 3.3 0 00-.86 1.57l1.11-.03c.38-.02.73-.07 1.04-.14.31-.08.57-.21.78-.38a.91.91 0 00.25-1 .6.6 0 00-.15-.27.73.73 0 00-.32-.2 1.3 1.3 0 00-.5-.08zM532.39 39.9h-1.88c-.24 1-.47 1.88-.68 2.64-.22.77-.45 1.41-.7 1.93-.25.52-.52.91-.81 1.18-.3.27-.66.4-1.08.4-.16 0-.3 0-.42-.02a.94.94 0 01-.33-.1l.33-.9c.1.03.22.05.32.05.2 0 .4-.08.57-.23.19-.15.38-.44.58-.88.2-.44.4-1.05.63-1.85.23-.8.5-1.83.8-3.12h3.9l-1.48 7h-1.05l1.3-6.1zM534.52 43.82c0-.74.1-1.41.28-2.02.2-.62.46-1.14.8-1.58.33-.44.72-.78 1.16-1.02.45-.25.92-.37 1.43-.37.4 0 .72.07 1 .2a1.93 1.93 0 011.05 1.27c.07.28.1.58.1.88 0 .7-.09 1.36-.27 1.96a5.1 5.1 0 01-.76 1.59c-.32.44-.7.8-1.12 1.06-.43.25-.9.38-1.4.38-.42 0-.78-.07-1.06-.2a2.14 2.14 0 01-.7-.54c-.18-.23-.31-.48-.4-.76a3.29 3.29 0 01-.1-.85zm1.12-.26c0 .55.1.98.3 1.28.21.29.54.43.99.43.3 0 .6-.1.87-.32.28-.22.52-.52.73-.9a5.82 5.82 0 00.7-2.79c0-.47-.1-.84-.27-1.11-.17-.28-.5-.42-.98-.42-.3 0-.6.1-.88.32-.28.2-.53.49-.76.84a4.9 4.9 0 00-.7 2.67zM545.06 38.93a2.22 2.22 0 011.22.32h.07c-.05-.7-.3-1.27-.78-1.7a2.76 2.76 0 00-1.92-.62l.2-.9c.68 0 1.25.1 1.7.31a2.88 2.88 0 011.7 2.09c.12.47.18.98.18 1.52 0 .98-.1 1.86-.3 2.63a6.5 6.5 0 01-.78 1.95c-.34.53-.73.94-1.19 1.22a2.7 2.7 0 01-1.45.42c-.76 0-1.32-.24-1.67-.7a3.13 3.13 0 01-.53-1.93c0-.6.08-1.16.24-1.71a5 5 0 01.7-1.47c.32-.43.7-.78 1.13-1.04.44-.26.93-.39 1.48-.39zm-.08.9c-.3 0-.59.09-.87.28-.28.18-.53.44-.75.78-.22.34-.4.74-.54 1.22-.13.46-.2.98-.2 1.54 0 .46.1.84.29 1.16.18.3.49.46.9.46.47 0 .85-.16 1.17-.49.32-.32.57-.73.77-1.22a10.08 10.08 0 00.56-3.2 1.41 1.41 0 00-.55-.4c-.2-.1-.45-.13-.78-.13zM549.74 39h.73l-.07 1.2h.06a5.27 5.27 0 01.97-.93 2.57 2.57 0 011.4-.44c.23 0 .44.04.63.11.2.07.37.19.52.35.15.16.27.38.35.65.1.27.14.6.14 1a6.8 6.8 0 01-.33 2.2 5.37 5.37 0 01-.88 1.64c-.37.45-.78.8-1.24 1.04-.44.23-.9.35-1.34.35-.33 0-.62-.03-.87-.1-.24-.06-.4-.12-.49-.18l-.62 2.91h-1.05l2.1-9.8zm2.7.73c-.25 0-.5.06-.73.2-.22.12-.43.29-.63.48a4.93 4.93 0 00-.87 1.22l-.68 3.32c.16.12.32.2.5.25a2.03 2.03 0 001.57-.22c.34-.2.64-.5.9-.87s.47-.82.62-1.34a6 6 0 00.23-1.75c0-.38-.08-.69-.24-.93a.74.74 0 00-.67-.36zM560.63 43.24a8.02 8.02 0 00-.2 2.05v.4c0 .12.01.24.03.34h-.78l-.2-1.22h-.05a3.8 3.8 0 01-.96.92 2.63 2.63 0 01-1.34.44c-1.11 0-1.67-.73-1.67-2.17 0-.6.08-1.2.23-1.82.16-.62.4-1.17.71-1.67.33-.5.74-.9 1.25-1.22a3.45 3.45 0 011.85-.47c.26 0 .58.03.95.1.38.05.74.13 1.06.23l-.88 4.1zm-3.18 2.03c.23 0 .44-.05.65-.15a3.53 3.53 0 001.4-1.43l.78-3.78c-.28-.13-.63-.2-1.06-.2-.43 0-.81.13-1.14.38-.32.25-.6.59-.82 1-.23.4-.4.85-.5 1.37a7.2 7.2 0 00-.18 1.54c0 .35.07.66.21.9a.7.7 0 00.66.37zM568.52 41.84l.35-1.33h-.06l-.71 1.08-2.19 2.74h-.36l-1.1-2.74-.2-1.08h-.06l-.18 1.32-.88 4.17h-.98l1.48-7h.97l1.19 3.14.2.8h.03l.58-.83L569 39h1.15l-1.48 7h-1.04l.89-4.16zM576.15 43.24c-.08.35-.13.7-.16 1.05-.02.36-.04.69-.04 1v.4c0 .12.01.24.03.34h-.78l-.2-1.22h-.06a3.8 3.8 0 01-.95.92 2.63 2.63 0 01-1.34.44c-1.11 0-1.67-.73-1.67-2.17 0-.6.08-1.2.23-1.82.15-.62.4-1.17.71-1.67.33-.5.74-.9 1.25-1.22a3.44 3.44 0 011.84-.47c.26 0 .58.03.96.1.38.05.73.13 1.06.23l-.88 4.1zm-3.18 2.03c.22 0 .44-.05.64-.15a3.58 3.58 0 001.4-1.43l.79-3.78c-.28-.13-.64-.2-1.07-.2-.43 0-.8.13-1.13.38-.33.25-.6.59-.83 1-.22.4-.39.85-.5 1.37a7.2 7.2 0 00-.17 1.54c0 .35.07.66.21.9a.7.7 0 00.66.37z" fill="#67A0CF"/><path d="M435.87 42.12l-7.25-10.53-3.34 2.73 3.81 5.95 2.17 1.9-2.17 1.7-4.09 5.91 3.34 2.73 7.53-10.39zm9.13.1L437.47 31l-3.72 3.02 4.1 6.15 2.26 2-2.26 1.76-4.38 6.05L437.2 53 445 42.22z" fill="#EDF4FA"/><path d="M176.35 36.44h-4.9V48h-2.74V34h10.38v14h-2.74V36.44zM181.42 38h1.9l.3 1.2h.08c.35-.5.76-.88 1.22-1.12a3.86 3.86 0 011.74-.36c1.26 0 2.2.4 2.82 1.2.63.79.94 2.06.94 3.82 0 .85-.1 1.63-.3 2.32a4.8 4.8 0 01-.9 1.74c-.38.48-.86.85-1.44 1.1-.56.25-1.2.38-1.94.38a4.31 4.31 0 01-1.82-.38V52h-2.6V38zm4.46 1.92c-.5 0-.9.13-1.2.38-.28.25-.5.63-.66 1.14v4.16c.19.15.39.27.6.36.23.08.52.12.88.12.75 0 1.3-.26 1.68-.78.38-.53.56-1.4.56-2.62 0-.88-.14-1.56-.44-2.04s-.76-.72-1.42-.72zM191.74 43c0-1.7.42-3 1.24-3.9a4.44 4.44 0 013.48-1.38c.8 0 1.5.13 2.08.38.59.25 1.08.61 1.46 1.08.39.45.68 1 .86 1.66.2.65.3 1.37.3 2.16 0 1.7-.41 3-1.24 3.92a4.4 4.4 0 01-3.46 1.36c-.8 0-1.49-.13-2.08-.38a4.13 4.13 0 01-1.48-1.06 4.81 4.81 0 01-.88-1.68 7.87 7.87 0 01-.28-2.16zm2.68 0c0 .44.04.85.12 1.22.08.37.2.7.36.98.16.28.37.5.62.66.27.15.58.22.94.22.68 0 1.19-.25 1.52-.74.34-.5.5-1.27.5-2.34 0-.92-.15-1.66-.46-2.22-.3-.57-.82-.86-1.56-.86-.64 0-1.14.24-1.5.72-.36.48-.54 1.27-.54 2.36zM210.04 47.38c-.4.3-.88.51-1.45.66a6.3 6.3 0 01-1.75.24c-.8 0-1.47-.13-2.03-.38-.55-.25-1-.6-1.34-1.06a4.64 4.64 0 01-.76-1.68 9.91 9.91 0 01-.22-2.16c0-1.7.38-3 1.13-3.9.76-.92 1.87-1.38 3.32-1.38a5.94 5.94 0 012.98.64l-.62 2.12a5.1 5.1 0 00-.92-.34c-.29-.08-.63-.12-1.01-.12-.72 0-1.27.24-1.65.72-.37.47-.56 1.22-.56 2.26 0 .43.05.82.15 1.18.09.36.23.67.41.94.2.27.43.48.72.64.31.15.66.22 1.06.22.44 0 .82-.05 1.13-.16.3-.12.58-.26.81-.42l.6 1.98zM218.72 40.3h-2.78V48h-2.68v-7.7h-2.86V38h8.32v2.3zM219.24 43c0-1.7.42-3 1.24-3.9a4.44 4.44 0 013.48-1.38c.8 0 1.5.13 2.08.38.59.25 1.08.61 1.46 1.08.39.45.68 1 .86 1.66.2.65.3 1.37.3 2.16 0 1.7-.41 3-1.24 3.92a4.4 4.4 0 01-3.46 1.36c-.8 0-1.49-.13-2.08-.38a4.13 4.13 0 01-1.48-1.06 4.81 4.81 0 01-.88-1.68 7.87 7.87 0 01-.28-2.16zm2.68 0c0 .44.04.85.12 1.22.08.37.2.7.36.98.16.28.37.5.62.66.27.15.58.22.94.22.68 0 1.19-.25 1.52-.74.34-.5.5-1.27.5-2.34 0-.92-.15-1.66-.46-2.22-.3-.57-.82-.86-1.56-.86-.64 0-1.14.24-1.5.72-.36.48-.54 1.27-.54 2.36zM246.44 40.74l.3-2.78h-.12l-.86 2.24-2.98 5.22h-.88l-3.14-5.24-.88-2.22h-.1l.4 2.76V48h-2.6V34h2.5l3.74 6.4.66 1.6h.08l.6-1.64L246.7 34h2.48v14h-2.74v-7.26zM255.16 43.62l.36 1.56h.12l.26-1.58 1.52-5.6h2.68l-3.04 9.02c-.25.75-.5 1.43-.74 2.04a8.77 8.77 0 01-.76 1.62c-.28.45-.6.8-.94 1.04-.33.25-.73.38-1.2.38-.7 0-1.25-.11-1.66-.34l.48-2.08a1.27 1.27 0 001.48-.28c.3-.25.51-.72.66-1.4l-4.18-10h3.12l1.84 5.62zM261.07 38h1.9l.3 1.2h.08c.35-.5.75-.88 1.22-1.12a3.86 3.86 0 011.74-.36c1.25 0 2.2.4 2.82 1.2.63.79.94 2.06.94 3.82 0 .85-.1 1.63-.3 2.32a4.8 4.8 0 01-.9 1.74c-.39.48-.87.85-1.44 1.1-.56.25-1.2.38-1.94.38a4.31 4.31 0 01-1.82-.38V52h-2.6V38zm4.46 1.92c-.5 0-.9.13-1.2.38-.28.25-.5.63-.66 1.14v4.16c.19.15.39.27.6.36.23.08.52.12.88.12.75 0 1.3-.26 1.68-.78.37-.53.56-1.4.56-2.62 0-.88-.15-1.56-.44-2.04-.3-.48-.77-.72-1.42-.72zM271.87 38h1.9l.3 1.2h.08c.35-.5.75-.88 1.22-1.12a3.86 3.86 0 011.74-.36c1.25 0 2.2.4 2.82 1.2.63.79.94 2.06.94 3.82 0 .85-.1 1.63-.3 2.32a4.8 4.8 0 01-.9 1.74c-.38.48-.87.85-1.44 1.1-.56.25-1.2.38-1.94.38a4.3 4.3 0 01-1.82-.38V52h-2.6V38zm4.46 1.92c-.5 0-.9.13-1.2.38-.28.25-.5.63-.66 1.14v4.16c.19.15.39.27.6.36.23.08.52.12.88.12.75 0 1.3-.26 1.68-.78.38-.53.56-1.4.56-2.62 0-.88-.14-1.56-.44-2.04s-.76-.72-1.42-.72zM288.7 43.44l.1-1.42h-.07l-.86 1.46-3.56 4.52h-1.64V38h2.6v4.76l-.12 1.36h.08l.82-1.42 3.6-4.7h1.64v10h-2.6v-4.56zM298.85 44.22l-1.2.24-1.92 3.54h-3.1l1.94-3.14.98-.74a2.6 2.6 0 01-1.62-.92 2.96 2.96 0 01-.64-1.94c0-1.21.4-2.1 1.2-2.68.81-.57 2.05-.86 3.72-.86.64 0 1.23.03 1.78.1.56.07 1.05.14 1.46.22V48h-2.6v-3.78zm0-1.36V40.1c-.15-.07-.3-.11-.48-.14a3.28 3.28 0 00-.5-.04c-.6 0-1.07.13-1.4.38-.33.25-.5.63-.5 1.14 0 .5.18.88.54 1.12.37.24.91.35 1.62.34l.72-.04z" fill="#4A6F9D"/><path d="M34.13 42.12l7.25-10.53 3.34 2.73-3.81 5.95-2.17 1.9 2.17 1.7L45 49.79l-3.34 2.73-7.53-10.39zm-9.13.1L32.53 31l3.72 3.02-4.1 6.15-2.26 2 2.26 1.76 4.38 6.05L32.8 53 25 42.22z" fill="#EDF4FA"/><g filter="url(#filter1_d)"><path d="M10 88a4 4 0 014-4h677a4 4 0 014 4v90a4 4 0 01-4 4H14a4 4 0 01-4-4V88z" fill="#F5F9FC"/></g><path d="M10 88a4 4 0 014-4h446v98H14a4 4 0 01-4-4V88zM480 150a12 12 0 0112-12h40a12 12 0 010 24h-40a12 12 0 01-12-12z" fill="#fff"/><path fill-rule="evenodd" clip-rule="evenodd" d="M532 139h-40a11 11 0 000 22h40a11 11 0 000-22zm-40-1a12 12 0 000 24h40a12 12 0 000-24h-40z" fill="#A8C9E1"/><path d="M480 150a12 12 0 0112-12h10v24h-10a12 12 0 01-12-12z" fill="#A8C9E1"/><path fill-rule="evenodd" clip-rule="evenodd" d="M492.66 145.03c.26.08.4.37.31.63l-.78 2.34h1.95l.89-2.66a.5.5 0 11.94.32l-.78 2.34h1.31a.5.5 0 010 1h-1.64l-.67 2h1.31a.5.5 0 010 1h-1.64l-.89 2.66a.5.5 0 11-.94-.32l.78-2.34h-1.95l-.89 2.66a.5.5 0 11-.94-.32l.78-2.34h-1.31a.5.5 0 010-1h1.64l.67-2h-1.31a.5.5 0 010-1h1.64l.89-2.66a.5.5 0 01.63-.31zm-.8 3.97l-.67 2h1.95l.67-2h-1.95z" fill="#fff"/><path d="M513.1 152.96h1.86l1.45-6.77.3-.83-.68.66-1.68 1.1-.39-.7 3.46-2.39h.48l-1.9 8.93h1.81l-.2 1.04h-4.73l.21-1.04zM526.48 146a3.7 3.7 0 01-.4 1.59c-.27.57-.62 1.14-1.04 1.72-.4.57-.86 1.13-1.36 1.68-.49.54-.97 1.03-1.42 1.47l-.77.6v.06l.86-.16h2.87l-.2 1.04h-5.3l.09-.4c.23-.24.53-.53.9-.87a42.05 42.05 0 002.43-2.51c.42-.47.8-.93 1.13-1.4.35-.48.62-.93.81-1.37.21-.44.31-.85.31-1.22a2 2 0 00-.05-.49.95.95 0 00-.19-.38.75.75 0 00-.36-.25c-.16-.07-.36-.1-.62-.1-.33 0-.66.07-.98.21-.31.13-.65.31-1 .55l-.3-.84a4.14 4.14 0 012.63-.9c.66 0 1.15.19 1.47.56.33.37.5.84.5 1.42zM527.32 148.76h2.46v-2.53h1.01v2.53h2.46v1.01h-2.46v2.54h-1v-2.54h-2.47v-1z" fill="#67A0CF"/><path d="M480 116a12 12 0 0112-12h82a12 12 0 010 24h-82a12 12 0 01-12-12z" fill="#fff"/><path fill-rule="evenodd" clip-rule="evenodd" d="M574 105h-82a11 11 0 000 22h82a11 11 0 000-22zm-82-1a12 12 0 000 24h82a12 12 0 000-24h-82z" fill="#A8C9E1"/><path d="M480 116a12 12 0 0112-12h10v24h-10a12 12 0 01-12-12z" fill="#A8C9E1"/><path fill-rule="evenodd" clip-rule="evenodd" d="M492.66 111.03c.26.08.4.37.31.63l-.78 2.34h1.95l.89-2.66a.5.5 0 11.94.32l-.78 2.34h1.31a.5.5 0 010 1h-1.64l-.67 2h1.31a.5.5 0 010 1h-1.64l-.89 2.66a.5.5 0 11-.94-.32l.78-2.34h-1.95l-.89 2.66a.5.5 0 11-.94-.32l.78-2.34h-1.31a.5.5 0 010-1h1.64l.67-2h-1.31a.5.5 0 010-1h1.64l.89-2.66a.5.5 0 01.63-.31zm-.8 3.97l-.67 2h1.95l.67-2h-1.95z" fill="#fff"/><path d="M514.16 114.65c.39-.58.8-1 1.23-1.24.44-.26.94-.38 1.5-.38.64 0 1.1.18 1.38.54.28.37.42.88.42 1.53 0 .78-.1 1.48-.3 2.1-.2.63-.47 1.16-.8 1.6-.34.44-.73.78-1.17 1.02a2.8 2.8 0 01-2.4.14c-.28-.14-.51-.33-.69-.56a2.5 2.5 0 01-.38-.81c-.07-.31-.11-.64-.11-.98 0-1 .1-1.91.28-2.76.2-.85.46-1.6.78-2.23.34-.64.73-1.16 1.18-1.54.45-.39.93-.63 1.46-.71a157.97 157.97 0 011.96-.22l.65-.1c.2-.05.34-.12.44-.2l-.04.98c-.15.11-.4.21-.76.3-.34.07-.87.13-1.57.19-.32.03-.62.08-.92.17-.3.08-.57.24-.84.47a3.5 3.5 0 00-.76 1c-.23.43-.45 1-.64 1.7h.1zm-.2 2.8c0 .24.01.47.04.69.03.21.1.4.18.56.1.16.23.28.4.38.16.08.39.12.67.12s.55-.09.82-.26c.28-.2.53-.45.75-.79.22-.33.4-.74.54-1.22.14-.47.21-1 .21-1.6 0-.17-.02-.34-.05-.5-.03-.16-.09-.3-.17-.42a.87.87 0 00-.35-.3 1.19 1.19 0 00-.56-.12c-.31 0-.61.1-.91.28-.3.18-.57.43-.8.75a3.98 3.98 0 00-.77 2.43zM521.97 113l-.98 4.66c-.06.25-.09.49-.09.7 0 .26.06.48.16.66.1.17.29.25.56.25.22 0 .45-.05.67-.17a3.75 3.75 0 001.23-1.02 4 4 0 00.44-.63l.93-4.45h1.05l-.88 4.16a51.91 51.91 0 00-.22 1.3 22.82 22.82 0 00-.1 1.36v.18h-.83v-1.33h-.05a4.31 4.31 0 01-1.1 1.02 3.01 3.01 0 01-1.5.48c-.2 0-.39-.03-.57-.07a1.16 1.16 0 01-.44-.24 1.26 1.26 0 01-.31-.46c-.08-.2-.11-.45-.11-.74 0-.33.04-.7.14-1.11l.95-4.55h1.05zM526.84 117.82c0-.74.09-1.41.28-2.02.2-.62.46-1.14.8-1.58.33-.44.72-.78 1.16-1.02.44-.25.92-.37 1.42-.37.4 0 .73.07 1 .2a1.94 1.94 0 011.05 1.27c.07.28.11.58.11.88 0 .7-.1 1.36-.28 1.96a5.1 5.1 0 01-.75 1.59c-.32.44-.7.8-1.13 1.06-.42.25-.9.38-1.4.38-.42 0-.77-.07-1.06-.2a2.14 2.14 0 01-.7-.54c-.18-.23-.3-.48-.4-.76a3.29 3.29 0 01-.1-.85zm1.12-.26c0 .55.1.98.3 1.28.21.29.54.43.99.43.3 0 .6-.1.86-.32.28-.22.52-.52.73-.9a5.82 5.82 0 00.7-2.79c0-.47-.09-.84-.27-1.11-.16-.28-.49-.42-.98-.42-.3 0-.6.1-.88.32-.28.2-.53.48-.75.84a4.9 4.9 0 00-.7 2.67zM533.49 118.32c0-.45.1-.81.3-1.1.19-.27.44-.5.73-.7.3-.18.62-.33.97-.45l.97-.37c.3-.13.54-.27.74-.43.2-.17.3-.39.3-.66 0-.3-.1-.5-.26-.63-.16-.12-.44-.18-.84-.18-.36 0-.66.04-.92.12-.26.08-.49.17-.7.27l-.2-.83c.3-.16.63-.27.98-.35a5.4 5.4 0 011.12-.1c.37 0 .68.03.92.12.25.08.46.2.6.33.15.14.26.3.31.5.07.18.1.38.1.58 0 .45-.1.81-.3 1.1-.19.27-.44.49-.73.67-.3.16-.63.3-.97.42-.35.1-.67.23-.97.36-.3.13-.54.29-.74.48-.2.17-.3.42-.3.72 0 .33.11.6.31.79.22.2.5.3.85.3a3.38 3.38 0 001.8-.56l.28.68a3.58 3.58 0 01-2.16.77c-.45 0-.82-.06-1.11-.18-.29-.13-.5-.3-.68-.48a1.52 1.52 0 01-.32-.6 2.35 2.35 0 01-.08-.59zM540.88 113h.73l-.07 1.2h.06a5.3 5.3 0 01.98-.93 2.57 2.57 0 011.4-.44c.22 0 .43.04.63.11s.36.19.51.35c.15.16.27.38.35.65.1.27.14.6.14 1a6.8 6.8 0 01-.33 2.2 5.37 5.37 0 01-.88 1.64c-.37.45-.78.8-1.24 1.04-.44.23-.9.35-1.34.35-.33 0-.62-.03-.87-.1-.24-.06-.4-.12-.49-.18l-.62 2.91h-1.05l2.1-9.8zm2.7.73c-.25 0-.5.06-.73.2-.22.13-.43.29-.63.48a4.92 4.92 0 00-.87 1.22l-.68 3.32c.16.12.32.2.5.25a2.02 2.02 0 001.57-.22c.34-.2.64-.5.9-.87s.47-.82.62-1.34a6 6 0 00.23-1.75c0-.38-.08-.69-.24-.93a.74.74 0 00-.67-.36zM551.77 117.24a8 8 0 00-.2 2.05v.4c0 .12.01.23.03.34h-.78l-.2-1.22h-.05a3.78 3.78 0 01-.96.92 2.63 2.63 0 01-1.34.44c-1.11 0-1.67-.73-1.67-2.17 0-.6.08-1.2.23-1.82.16-.62.4-1.17.71-1.67.33-.5.74-.9 1.25-1.22a3.45 3.45 0 011.85-.47c.26 0 .58.03.95.1.38.05.74.13 1.06.23l-.88 4.1zm-3.18 2.03c.23 0 .44-.05.65-.15a3.57 3.57 0 001.4-1.43l.78-3.78c-.28-.13-.63-.2-1.06-.2-.43 0-.81.13-1.14.38-.32.25-.6.58-.82 1-.23.4-.4.85-.5 1.37a7.2 7.2 0 00-.18 1.54c0 .35.07.66.21.9a.7.7 0 00.66.37zM556.4 120.06a1.95 1.95 0 01-.7.11c-.76 0-1.33-.2-1.71-.62a2.32 2.32 0 01-.58-1.62c0-.8.1-1.5.31-2.13.2-.63.49-1.15.84-1.58a3.42 3.42 0 013.36-1.27l.58-2.75h1l-.59 2.76a4.9 4.9 0 01.82-.07c.73 0 1.27.2 1.65.61.38.4.57.93.57 1.59 0 .87-.11 1.63-.35 2.28a4.85 4.85 0 01-.88 1.58 3.46 3.46 0 01-2.97 1.19c-.15 0-.26-.03-.35-.07l-.57 2.73h-1l.58-2.74zm2.92-6.28a3.25 3.25 0 00-.62.08l-1.13 5.36a2.66 2.66 0 00.59.05c.3 0 .6-.08.92-.25.32-.17.6-.42.86-.76.26-.33.47-.75.64-1.26.17-.5.25-1.11.25-1.8 0-.95-.5-1.42-1.5-1.42zm-3.4 5.5c.1 0 .2-.02.32-.04l.37-.05 1.13-5.34a3.46 3.46 0 00-.63-.07c-.28 0-.58.1-.88.27-.3.17-.58.42-.83.76a4.49 4.49 0 00-.87 2.9c0 .46.12.84.35 1.13.24.29.58.43 1.04.43zM565.3 113l-.97 4.66c-.06.25-.09.49-.09.7 0 .26.05.48.16.66.1.17.29.25.56.25.22 0 .45-.05.67-.17a3.75 3.75 0 001.23-1.02c.18-.21.32-.42.44-.63l.93-4.45h1.05l-.88 4.16-.11.59-.11.71a22.82 22.82 0 00-.1 1.36v.18h-.83v-1.33h-.05a4.31 4.31 0 01-1.1 1.02 3.03 3.03 0 01-1.5.48c-.2 0-.39-.03-.57-.07a1.16 1.16 0 01-.44-.24 1.25 1.25 0 01-.31-.46 2.1 2.1 0 01-.11-.74c0-.33.04-.7.14-1.11l.95-4.55h1.05zM573.94 117.12l-1.08.16-2.25 2.72h-1.36l2.05-2.4.68-.51a1.75 1.75 0 01-.94-.46c-.25-.26-.37-.6-.37-1.05 0-.43.09-.82.26-1.15.18-.35.42-.64.72-.87.3-.23.64-.41 1.03-.53a4.04 4.04 0 011.82-.16 4.66 4.66 0 01.98.2l.32.1-1.42 6.83h-1.05l.61-2.88zm.7-3.21c-.04-.05-.15-.09-.3-.13a2.95 2.95 0 00-.65-.05c-.56 0-1.02.16-1.37.47-.36.31-.53.73-.53 1.25 0 .68.48 1.02 1.45 1.02H573.65l.43-.03.56-2.53z" fill="#67A0CF"/><path d="M596 116a12 12 0 0112-12h40a12 12 0 010 24h-40a12 12 0 01-12-12z" fill="#fff"/><path fill-rule="evenodd" clip-rule="evenodd" d="M648 105h-40a11 11 0 000 22h40a11 11 0 000-22zm-40-1a12 12 0 000 24h40a12 12 0 000-24h-40z" fill="#A8C9E1"/><path d="M596 116a12 12 0 0112-12h10v24h-10a12 12 0 01-12-12z" fill="#A8C9E1"/><path fill-rule="evenodd" clip-rule="evenodd" d="M608.66 111.03c.26.08.4.37.31.63l-.78 2.34h1.95l.89-2.66a.5.5 0 11.94.32l-.78 2.34h1.31a.5.5 0 010 1h-1.64l-.67 2h1.31a.5.5 0 010 1h-1.64l-.89 2.66a.5.5 0 11-.94-.32l.78-2.34h-1.95l-.89 2.66a.5.5 0 11-.94-.32l.78-2.34h-1.31a.5.5 0 010-1h1.64l.67-2h-1.31a.5.5 0 010-1h1.64l.89-2.66a.5.5 0 01.63-.31zm-.8 3.97l-.67 2h1.95l.67-2h-1.95z" fill="#fff"/><path d="M634.72 119.6c-.32.2-.65.36-1 .44-.36.09-.77.13-1.24.13a3.5 3.5 0 01-1.47-.3c-.43-.2-.8-.48-1.1-.84-.3-.36-.52-.78-.68-1.27a7.3 7.3 0 01.22-4.33 5.6 5.6 0 011.22-1.91c.5-.5 1.07-.88 1.7-1.12a6.23 6.23 0 013.22-.25c.33.07.6.16.82.26l-.5 1.02a4.33 4.33 0 00-1.78-.36 3.73 3.73 0 00-2.77 1.33 4.9 4.9 0 00-.87 1.57 6.26 6.26 0 00-.15 3.31 2.47 2.47 0 001.32 1.62c.32.16.69.23 1.1.23a3.59 3.59 0 001.88-.49l.08.95zM641.05 117.48c0-.34-.1-.62-.27-.85a2.76 2.76 0 00-.64-.63c-.26-.2-.55-.39-.86-.56-.3-.18-.57-.39-.84-.62a2.49 2.49 0 01-.91-2c0-.5.1-.92.27-1.28.19-.35.43-.64.74-.86.32-.23.69-.4 1.1-.5a7.62 7.62 0 012.81-.03c.44.1.78.2 1.02.33l-.56 1a5.18 5.18 0 00-2.11-.43c-.62-.01-1.13.13-1.52.41-.38.28-.57.69-.57 1.22 0 .34.08.64.25.88.18.23.4.45.66.64.26.2.54.37.84.55.3.18.6.38.85.62.27.22.48.5.65.8.17.33.26.71.26 1.17 0 .9-.32 1.6-.98 2.1-.65.49-1.59.73-2.81.73-.63 0-1.16-.06-1.6-.17a3.7 3.7 0 01-.98-.35l.58-1.02a4.6 4.6 0 002.18.53c.3 0 .58-.02.87-.07.29-.06.55-.15.78-.28.24-.13.42-.3.56-.52.15-.21.23-.48.23-.81zM648.12 117.48c0-.34-.1-.62-.27-.85a2.78 2.78 0 00-.64-.63c-.27-.2-.55-.39-.86-.56a5.3 5.3 0 01-.84-.62 2.49 2.49 0 01-.91-2c0-.5.09-.92.27-1.28.18-.35.43-.64.74-.86.32-.23.69-.4 1.1-.5a7.63 7.63 0 012.81-.03c.44.1.77.2 1.02.33l-.56 1a5.18 5.18 0 00-2.11-.43c-.62-.01-1.13.13-1.52.41-.38.28-.57.69-.57 1.22 0 .34.08.64.25.88.18.23.4.45.66.64.26.2.54.37.84.55.3.18.59.38.85.62.26.22.48.5.65.8.17.33.26.71.26 1.17 0 .9-.32 1.6-.98 2.1-.65.49-1.59.73-2.81.73-.63 0-1.16-.06-1.6-.17-.43-.1-.75-.22-.98-.35l.58-1.02a4.6 4.6 0 002.18.53c.29 0 .58-.02.87-.07.29-.06.55-.15.78-.28.24-.13.42-.3.56-.52.15-.21.23-.48.23-.81z" fill="#67A0CF"/><path d="M435.87 133.12l-7.25-10.54-3.34 2.74 3.81 5.95 2.17 1.9-2.17 1.7-4.09 5.91 3.34 2.73 7.53-10.39zm9.13.1L437.47 122l-3.72 3.02 4.1 6.15 2.26 2-2.26 1.76-4.38 6.05 3.72 3.02 7.81-10.78z" fill="#EDF4FA"/><path d="M150.7 133.02h-.72V139h-2.74v-14h2.74v6.2l.64-.28 3.86-5.92h3.12l-4.08 5.88-1.08.76 1.12.78 4.66 6.58h-3.38l-4.14-5.98zM158.44 134c0-1.7.42-3 1.24-3.9a4.44 4.44 0 013.48-1.38c.8 0 1.5.13 2.08.38.59.25 1.08.61 1.46 1.08.39.45.68 1 .86 1.66.2.65.3 1.37.3 2.16 0 1.7-.41 3-1.24 3.92a4.4 4.4 0 01-3.46 1.36c-.8 0-1.5-.13-2.08-.38a4.13 4.13 0 01-1.48-1.06 4.82 4.82 0 01-.88-1.68 7.87 7.87 0 01-.28-2.16zm2.68 0c0 .44.04.85.12 1.22.08.37.2.7.36.98.16.28.37.5.62.66.27.15.58.22.94.22.68 0 1.19-.25 1.52-.74.34-.5.5-1.27.5-2.34 0-.92-.15-1.66-.46-2.22-.3-.57-.82-.86-1.56-.86-.64 0-1.14.24-1.5.72-.36.48-.54 1.27-.54 2.36zM176.7 131.3h-2.77v7.7h-2.68v-7.7h-2.86V129h8.32v2.3zM180.47 136.82c.4.08.78.12 1.14.12.6 0 1.02-.1 1.26-.32.24-.23.36-.57.36-1.04 0-.43-.12-.75-.36-.96-.24-.23-.64-.34-1.2-.34-.44 0-.84.05-1.2.14v2.4zm0-4.26a11.22 11.22 0 011.86-.14c.68 0 1.24.08 1.7.24.45.15.82.36 1.1.64.28.28.48.61.6 1a4.74 4.74 0 01-.06 2.8c-.16.45-.42.83-.78 1.14-.36.3-.83.52-1.4.68-.58.15-1.28.22-2.12.22a41.9 41.9 0 01-3.5-.14v-10h2.6v3.56zm6.58-3.56h2.6v10h-2.6v-10zM203.86 131.3h-2.78v7.7h-2.68v-7.7h-2.86V129h8.32v2.3zM204.38 134c0-1.7.41-3 1.24-3.9a4.44 4.44 0 013.48-1.38c.8 0 1.5.13 2.08.38.59.25 1.07.61 1.46 1.08.39.45.67 1 .86 1.66.2.65.3 1.37.3 2.16 0 1.7-.41 3-1.24 3.92a4.4 4.4 0 01-3.46 1.36c-.8 0-1.5-.13-2.08-.38a4.12 4.12 0 01-1.48-1.06 4.8 4.8 0 01-.88-1.68 7.83 7.83 0 01-.28-2.16zm2.68 0c0 .44.04.85.12 1.22.08.37.2.7.36.98.16.28.37.5.62.66.27.15.58.22.94.22.68 0 1.19-.25 1.52-.74.33-.5.5-1.27.5-2.34 0-.92-.15-1.66-.46-2.22-.3-.57-.83-.86-1.56-.86-.64 0-1.14.24-1.5.72-.36.48-.54 1.27-.54 2.36zM219.19 134.94l-2.04 4.06h-2.93l2.63-4.58.68-.6-1.03-.76-2.06-4.06h2.78l1.87 4.06h.85V129h2.49v4.26l.75-.28 1.88-3.98h2.76l-2.17 4.06-.78.64 1.01.8 2.43 4.5h-2.99l-2.03-4.14h-.86V139h-2.49v-4.34l-.75.28zM237.1 138.14c-.4.32-.95.6-1.64.82-.68.21-1.4.32-2.18.32-1.62 0-2.8-.47-3.54-1.4a6.11 6.11 0 01-1.12-3.88c0-1.76.42-3.08 1.26-3.96a4.66 4.66 0 013.54-1.32c.5 0 1 .07 1.48.2s.9.35 1.28.66c.37.3.67.72.9 1.24.22.52.34 1.17.34 1.94 0 .28-.02.58-.06.9-.03.32-.08.65-.14 1h-6c.04.84.25 1.47.64 1.9.4.43 1.04.64 1.92.64a4.14 4.14 0 002.46-.76l.86 1.7zm-3.72-7.34c-.68 0-1.19.2-1.52.62-.32.4-.52.94-.58 1.62H235c.05-.72-.06-1.27-.34-1.66-.27-.39-.7-.58-1.28-.58zM244.31 129.02l1.68-.12c.67-.04 1.38-.06 2.14-.06 1.47 0 2.51.21 3.12.64.63.41.94 1.04.94 1.88 0 .47-.13.92-.4 1.36-.26.44-.68.76-1.26.96v.08a2.6 2.6 0 011.56.86c.32.4.48.92.48 1.56 0 1-.38 1.75-1.16 2.24-.76.5-1.98.74-3.68.74-.56 0-1.15-.02-1.78-.06-.62-.03-1.17-.07-1.64-.12v-9.96zm2.54 7.98a8.43 8.43 0 001.12.08c.72 0 1.24-.1 1.54-.3.31-.2.46-.5.46-.92 0-.35-.13-.63-.4-.84-.25-.23-.71-.34-1.38-.34h-1.34V137zm1.38-3.92c.43 0 .78-.1 1.04-.3a.97.97 0 00.42-.8c0-.35-.12-.6-.36-.78-.22-.19-.64-.28-1.26-.28a11.09 11.09 0 00-1.22.06v2.1h1.38zM262.41 138.14c-.4.32-.95.6-1.64.82-.68.21-1.4.32-2.18.32-1.61 0-2.8-.47-3.54-1.4a6.1 6.1 0 01-1.12-3.88c0-1.76.42-3.08 1.26-3.96a4.66 4.66 0 013.54-1.32c.5 0 1 .07 1.48.2s.9.35 1.28.66c.37.3.67.72.9 1.24.23.52.34 1.17.34 1.94a9.74 9.74 0 01-.2 1.9h-6c.04.84.25 1.47.64 1.9.4.43 1.04.64 1.92.64a4.14 4.14 0 002.46-.76l.86 1.7zm-3.72-7.34c-.68 0-1.19.2-1.52.62a3 3 0 00-.58 1.62h3.72c.05-.72-.06-1.27-.34-1.66-.27-.39-.7-.58-1.28-.58zM264.57 129h1.9l.3 1.2h.08c.34-.5.75-.88 1.22-1.12a3.86 3.86 0 011.74-.36c1.25 0 2.19.4 2.82 1.2.62.79.94 2.06.94 3.82 0 .85-.1 1.63-.3 2.32a4.8 4.8 0 01-.9 1.74c-.39.48-.87.85-1.44 1.1-.56.25-1.21.38-1.94.38a4.3 4.3 0 01-1.82-.38v4.1h-2.6v-14zm4.46 1.92c-.51 0-.91.13-1.2.38-.28.25-.5.63-.66 1.14v4.16c.18.15.38.27.6.36.22.08.52.12.88.12.74 0 1.3-.26 1.68-.78.37-.53.56-1.4.56-2.62 0-.88-.15-1.56-.44-2.04-.3-.48-.77-.72-1.42-.72zM282.45 138.38c-.4.3-.89.51-1.46.66a6.3 6.3 0 01-1.74.24c-.8 0-1.48-.13-2.04-.38-.55-.25-1-.6-1.34-1.06a4.63 4.63 0 01-.76-1.68 9.85 9.85 0 01-.22-2.16c0-1.7.38-3 1.14-3.9.76-.92 1.86-1.38 3.32-1.38a5.94 5.94 0 012.98.64l-.62 2.12c-.3-.15-.62-.26-.92-.34a3.9 3.9 0 00-1.02-.12c-.72 0-1.27.24-1.64.72-.38.47-.56 1.22-.56 2.26 0 .43.04.82.14 1.18s.23.67.42.94c.18.27.42.48.72.64.3.15.66.22 1.06.22.44 0 .81-.05 1.12-.16.3-.12.58-.26.82-.42l.6 1.98zM291.12 131.3h-2.78v7.7h-2.68v-7.7h-2.86V129h8.32v2.3zM292.22 129.58a11.68 11.68 0 014.2-.78c.7 0 1.27.09 1.74.26a2.5 2.5 0 011.68 1.8c.12.43.18.9.18 1.44 0 .59-.02 1.18-.06 1.78-.04.59-.06 1.17-.08 1.74 0 .57.02 1.13.06 1.68.04.53.14 1.04.3 1.52h-2.12l-.42-1.38h-.1c-.27.41-.64.77-1.12 1.08-.47.3-1.07.44-1.82.44-.47 0-.89-.07-1.26-.2-.37-.15-.7-.35-.96-.6a2.86 2.86 0 01-.84-2.12c0-.61.13-1.13.4-1.54.28-.43.68-.77 1.18-1.02a5.6 5.6 0 011.84-.54c.72-.1 1.52-.14 2.4-.1.1-.75.04-1.28-.16-1.6-.2-.33-.64-.5-1.34-.5-.52 0-1.07.05-1.66.16-.57.1-1.05.25-1.42.42l-.62-1.94zm3.3 7.44c.52 0 .94-.11 1.24-.34.3-.24.54-.5.68-.76v-1.3a7.23 7.23 0 00-1.2-.02c-.37.03-.7.09-1 .18-.3.1-.53.23-.7.4a.9.9 0 00-.26.66c0 .37.1.67.32.88.23.2.53.3.92.3zM310.66 139.28c-.74 0-1.38-.1-1.92-.3a3.41 3.41 0 01-2.08-2.22 7.8 7.8 0 01-.34-1.8h-1.52V139h-2.6v-10h2.6v3.76h1.54c.14-1.3.54-2.29 1.22-2.98.7-.7 1.74-1.06 3.14-1.06.76 0 1.42.13 1.96.38.55.25 1 .61 1.36 1.08.36.45.62 1 .78 1.66.18.65.26 1.37.26 2.16 0 1.7-.36 3-1.08 3.92-.72.9-1.82 1.36-3.32 1.36zM308.8 134c0 .97.14 1.73.4 2.28.28.53.77.8 1.46.8.62 0 1.06-.23 1.32-.68.27-.45.4-1.25.4-2.4 0-1.03-.12-1.8-.38-2.3-.25-.52-.72-.78-1.4-.78-.61 0-1.06.23-1.36.7-.29.47-.44 1.26-.44 2.38zM323.94 131.3h-2.79v7.7h-2.67v-7.7h-2.87V129h8.32v2.3z" fill="#4A6F9D"/><path d="M34.13 133.12l7.25-10.54 3.34 2.74-3.81 5.95-2.17 1.9 2.17 1.7 4.09 5.91-3.34 2.73-7.53-10.39zm-9.13.1L32.53 122l3.72 3.02-4.1 6.15-2.26 2 2.26 1.76 4.38 6.05L32.8 144 25 133.22z" fill="#EDF4FA"/><path fill-rule="evenodd" clip-rule="evenodd" d="M337.5 74l2.5 4h-2v2h2l-2.5 4-2.5-4h2v-2h-2l2.5-4z" fill="#744CE5"/><path d="M345.6 74.84l-1.98.76v1.26l1.63-.62v5.52h-1.63V83h4.44v-1.24h-1.45v-6.92h-1zM348.9 78.92c0 2.39 1.14 4.24 3.67 4.24 2.53 0 3.66-1.85 3.66-4.24s-1.13-4.24-3.66-4.24c-2.53 0-3.66 1.85-3.66 4.24zm5.95 0c0 1.9-.72 2.99-2.28 2.99-1.57 0-2.28-1.1-2.28-2.99 0-1.9.7-2.99 2.28-2.99 1.56 0 2.28 1.1 2.28 2.99zM358.75 78.14v-.9h-1.14v8.4h1.28v-3.38c.4.45 1.07.9 2.08.9 1.73 0 2.85-1.38 2.85-3.04 0-1.66-1.12-3.04-2.85-3.04-1.08 0-1.77.5-2.22 1.06zm3.77 1.98c0 1.13-.75 1.9-1.8 1.9-.88 0-1.55-.57-1.83-1.2v-1.4c.28-.63.95-1.2 1.84-1.2 1.04 0 1.79.77 1.79 1.9zM368.43 77.24l-1.38 1.94-1.38-1.94h-1.47l2.1 2.82-2.22 2.94h1.47l1.5-2.04 1.5 2.04H370l-2.22-2.94 2.1-2.82h-1.46z" fill="#744CE5"/><path fill-rule="evenodd" clip-rule="evenodd" d="M9-1h452v212H9V-1zm1 1v210h450V0H10z" fill="#744CE5"/><path fill-rule="evenodd" clip-rule="evenodd" d="M709 11H-4v62h713V11zM-5 10v64h715V10H-5zM709 85H-4v96h713V85zM-5 84v98h715V84H-5z" fill="#744CE5"/><path fill-rule="evenodd" clip-rule="evenodd" d="M696-1H460v212h236V-1zm-1 1v210H461V0h234zM15 206.39l-5-2.89 5-2.89V203h440v-2.39l5 2.89-5 2.89V204H15v2.39z" fill="#744CE5"/><path d="M230.33 189.84l-1.98.76v1.26l1.63-.62v5.52h-1.63V198h4.44v-1.24h-1.46v-6.92h-1zM235.65 198v-4.63h1.96v-1.13h-1.96v-.59c0-.9.55-1.08 1.17-1.08.41 0 .83.11 1.12.25v-1.12c-.4-.15-.9-.26-1.43-.26-1.06 0-2.15.5-2.15 2.16v.64h-1.04v1.13h1.04V198h1.29zM239.69 193.19v-.95h-1.15V198h1.29v-3.5c.35-.8 1.25-1.26 2.28-1.12v-1.26a2.57 2.57 0 00-2.43 1.07z" fill="#744CE5"/><path fill-rule="evenodd" clip-rule="evenodd" d="M466 206.39l-5-2.89 5-2.89V203h224v-2.39l5 2.89-5 2.89V204H466v2.39z" fill="#744CE5"/><path d="M561.58 190.51v1.32a4.45 4.45 0 012.59-.91c1 0 1.62.37 1.62 1.08 0 .92-.83 1.34-1.78 1.9-1.23.73-2.7 1.48-2.7 3.48v.62h5.9v-1.24l-4.37.02c0-.82 1-1.32 2.06-1.95 1.1-.66 2.26-1.47 2.26-2.85 0-1.53-1.21-2.3-2.87-2.3-.95 0-1.87.26-2.71.83zM574.02 191.92c0-1.4-1.18-2.24-2.86-2.24-1 0-1.88.22-2.61.6v1.31c.79-.45 1.63-.67 2.43-.67 1.12 0 1.73.43 1.73 1.16 0 .68-.54 1.1-1.55 1.1h-1.14v1.23h1.3c.97 0 1.73.3 1.73 1.23 0 .92-.84 1.27-1.92 1.28a5.2 5.2 0 01-2.73-.62v1.32c.87.37 1.73.54 2.84.54 1.66 0 3.12-.74 3.12-2.38 0-1.24-.78-1.85-1.55-2.09a1.8 1.8 0 001.21-1.77zM576.01 189.84l-.26 4.54a6.63 6.63 0 012.07-.36c1.3 0 2.22.38 2.22 1.46 0 .96-.86 1.44-2.07 1.44-.86 0-1.78-.2-2.46-.6v1.28c.72.35 1.66.56 2.61.56 1.8 0 3.3-.9 3.3-2.67 0-1.92-1.46-2.6-3.03-2.6-.42 0-.84.05-1.24.14l.12-1.97h3.77v-1.22H576zM583.86 193.14v-.9h-1.14v8.4H584v-3.38c.4.45 1.07.9 2.08.9 1.73 0 2.85-1.38 2.85-3.04 0-1.66-1.12-3.04-2.85-3.04-1.08 0-1.77.5-2.22 1.06zm3.77 1.98c0 1.13-.75 1.9-1.8 1.9-.88 0-1.55-.57-1.83-1.2v-1.4c.28-.63.95-1.2 1.84-1.2 1.04 0 1.79.77 1.79 1.9zM593.54 192.24l-1.38 1.94-1.38-1.94h-1.47l2.1 2.82-2.22 2.94h1.47l1.5-2.04 1.5 2.04h1.46l-2.22-2.94 2.1-2.82h-1.46z" fill="#744CE5"/></g><defs><filter id="filter0_d" x="2" y="8" width="701" height="80" filterUnits="userSpaceOnUse" color-interpolation-filters="sRGB"><feFlood flood-opacity="0" result="BackgroundImageFix"/><feColorMatrix in="SourceAlpha" values="0 0 0 0 0 0 0 0 0 0 0 0 0 0 0 0 0 0 127 0"/><feOffset dy="6"/><feGaussianBlur stdDeviation="4"/><feColorMatrix values="0 0 0 0 0.214983 0 0 0 0 0.259764 0 0 0 0 0.293351 0 0 0 0.1 0"/><feBlend in2="BackgroundImageFix" result="effect1_dropShadow"/><feBlend in="SourceGraphic" in2="effect1_dropShadow" result="shape"/></filter><filter id="filter1_d" x="2" y="82" width="701" height="114" filterUnits="userSpaceOnUse" color-interpolation-filters="sRGB"><feFlood flood-opacity="0" result="BackgroundImageFix"/><feColorMatrix in="SourceAlpha" values="0 0 0 0 0 0 0 0 0 0 0 0 0 0 0 0 0 0 127 0"/><feOffset dy="6"/><feGaussianBlur stdDeviation="4"/><feColorMatrix values="0 0 0 0 0.214983 0 0 0 0 0.259764 0 0 0 0 0.293351 0 0 0 0.1 0"/><feBlend in2="BackgroundImageFix" result="effect1_dropShadow"/><feBlend in="SourceGraphic" in2="effect1_dropShadow" result="shape"/></filter><clipPath id="clip0"><path fill="#fff" d="M0 0h705v210H0z"/></clipPath></defs></svg>