<svg width="1000" height="800" viewBox="0 0 1000 800" fill="none" xmlns="http://www.w3.org/2000/svg"><g clip-path="url(#a)"><path fill="#fff" d="M0 0h1000v800H0z"/><path fill="#fff" d="M0 0h1000v800H0z"/><path opacity=".3" fill-rule="evenodd" clip-rule="evenodd" d="M0 71.124V69.97L121.963 0h2.01L0 71.124zm0 47.043v-1.153L203.964 0h2.01L0 118.167zm0 47.044v-1.152L285.965 0h2.01L0 165.21zm0 47.045v-1.153L367.965 0h2.01L0 212.255zM0 259.3v-1.154L449.966 0h2.01L0 259.3zm0 47.043v-1.153L531.967 0h2.01L0 306.343zm0 47.043v-1.153L613.967 0h2.01L0 353.386zm0 47.044v-1.153L695.968 0h2.01L0 400.43zm0 47.044v-1.153L777.968 0h2.01L0 447.474zm0 47.044v-1.153L859.97 0h2.008L0 494.518zm0 47.044v-1.153L941.97 0h2.01L0 541.562zm0 47.043v-1.152L1023.97 0h2.01L0 588.605zm0 47.044v-1.154L1105.97 0h2.01L0 635.65zm0 47.043v-1.153L1187.97 0h2.01L0 682.693zm0 47.044v-1.153L1269.97 0h2.01L0 729.737zm0 47.044v-1.152L1351.97 0h2.01L0 776.78zm0 47.045v-1.153L1433.97 0h2.01L0 823.825zm0 47.043v-1.152L1515.97 0h2.01L0 870.868zm0 47.044v-1.153L1597.97 0h2.01L0 917.912zm0 47.044v-1.153L1679.98 0h2L0 964.956zM0 1012v-1.15L1761.98 0h2.01L0 1012zm41.91 23H39.9L1843.98 0h2.01L41.91 1035zm82 0h-2.01L1886 22.935v1.153L123.91 1035zm82 0h-2.008L1886 69.98v1.15l-1680.09 963.87zm82.002 0h-2.01L1886 117.023v1.152L287.912 1035zm82 0h-2.01L1886 164.066v1.153L369.913 1035zm82 0h-2.008L1886 211.11v1.153L451.913 1035zm82.002 0h-2.01L1886 258.154v1.153L533.914 1035zm82 0h-2.01L1886 305.198v1.153L615.914 1035zm82 0h-2.01L1886 352.242v1.153L697.915 1035zm82.002 0h-2.01L1886 399.285v1.153L779.916 1035zm82 0h-2.01L1886 446.33v1.152L861.916 1035zm82 0h-2.01L1886 493.373v1.153L943.917 1035zm82.004 0h-2.01L1886 540.417v1.153L1025.92 1035zm82 0h-2.01L1886 587.46v1.154L1107.92 1035zm82 0h-2.01L1886 634.504v1.153L1189.92 1035zm82 0h-2.01L1886 681.548v1.153L1271.92 1035zm82 0h-2.01L1886 728.592v1.153L1353.92 1035zm82 0h-2.01L1886 775.636v1.153L1435.92 1035zm82 0h-2.01L1886 822.68v1.153L1517.92 1035zm82 0h-2.01L1886 869.724v1.153L1599.92 1035zm82 0h-2.01L1886 916.767v1.153L1681.92 1035zm82 0h-2.01L1886 963.81v1.154L1763.92 1035zm82 0h-2.01l42.09-24.14v1.15l-40.08 22.99zM41.973 0L0 24.08v-1.153L39.963 0h2.01z" fill="#D2D5E3"/><path opacity=".3" fill-rule="evenodd" clip-rule="evenodd" d="M122.105 1035L0 964.948v-1.153L124.114 1035h-2.01zm82 0L0 917.904v-1.152L206.115 1035h-2.01zm82 0L0 870.86v-1.152L288.116 1035h-2.01zm82.002 0L0 823.817v-1.153L370.117 1035h-2.01zm82 0L0 776.773v-1.153L452.117 1035h-2.01zm82 0L0 729.73v-1.154L534.118 1035h-2.01zm82 0L0 682.685v-1.152L616.118 1035h-2.01zm82.002 0L0 635.64v-1.15L698.12 1035h-2.01zm82 0L0 588.598v-1.153L780.12 1035h-2.01zm82 0L0 541.554V540.4L862.12 1035h-2.01zm82 0L0 494.51v-1.153L944.12 1035h-2.01zm82 0L0 447.466v-1.153L1026.12 1035h-2.01zm82 0L0 400.422v-1.153L1108.12 1035h-2.01zm82 0L0 353.38v-1.154L1190.12 1035h-2.01zm82 0L0 306.335v-1.153L1272.12 1035h-2.01zm82 0L0 259.29v-1.152L1354.12 1035h-2.01zm82 0L0 212.247v-1.153L1436.12 1035h-2.01zm82.01 0L0 165.203v-1.153L1518.12 1035h-2zm82 0L0 118.16v-1.153L1600.13 1035h-2.01zm82 0L0 71.115v-1.152L1682.13 1035h-2.01zm82 0L0 24.072V22.92L1764.13 1035h-2.01zm82 0L40.042 0h2.01L1846.13 1035h-2.01zm41.88-24.17v1.15L122.043 0h2.01L1886 1010.83zm0-47.043v1.153L204.043 0h2.01L1886 963.787zm0-47.044v1.153L286.044 0h2.01L1886 916.743zm0-47.043v1.153L368.044 0h2.01L1886 869.7zm0-47.044v1.153L450.045 0h2.01L1886 822.656zm0-47.044v1.153L532.046 0h2.01L1886 775.612zm0-47.044v1.153L614.046 0h2.01L1886 728.568zm0-47.043v1.152L696.047 0h2.01L1886 681.525zm0-47.045v1.153L778.048 0h2.01L1886 634.48zm0-47.043v1.153L860.048 0h2.01L1886 587.437zm0-47.044v1.153L942.05 0h2.008L1886 540.393zm0-47.044v1.152L1024.05 0h2.01L1886 493.35zm0-47.045v1.153L1106.05 0h2.01L1886 446.305zm0-47.044v1.154L1188.05 0h2.01L1886 399.26zm0-47.042v1.152L1270.05 0h2.01L1886 352.218zm0-47.044v1.153L1352.05 0h2.01L1886 305.174zm0-47.044v1.153L1434.05 0h2.01L1886 258.13zm0-47.044v1.153L1516.05 0h2.01L1886 211.086zm0-47.044v1.153L1598.05 0h2.01L1886 164.042zm0-47.043v1.15L1680.05 0h2.01L1886 117zm0-47.045v1.153L1762.05 0h2.01L1886 69.955zm0-47.044v1.154L1844.06 0h2.01L1886 22.91zM0 1011.99v-1.15L42.114 1035h-2.01L0 1011.99z" fill="#D2D5E3"/><path fill-rule="evenodd" clip-rule="evenodd" d="M397.982 355.466l34.226 20.136v-26.9l-34.042-3.56-34.043 3.56v26.877l33.85-20.114v-.005l.004.004.005-.003v.006zm24.885 29.176l9.314-5.476-34.207-19.895v-.003l-33.776 20.262 33.728 20.01 5.766-3.456-5.66-3.327.034-3.543 8.627 5.072.066-.04 2.695-1.798-11.42-6.777.034-3.542 14.47 8.59 2.49-1.464.377-.222.156-.09-17.525-10.402.034-3.543 20.504 12.173 4.3-2.528zm-24.702 48.408l34.043-20.215v-29.86l-10.503 6.26V400.808l.03-.017v3.56l-23.57 14.073-23.345-14.003.034-3.542 23.338 13.856-.058-3.746-23.346-14.004.035-3.542 23.253 13.812-.057-3.65-33.897-20.134v29.365l34.042 20.215zm0-93.05l.412.043 38.754 4.055v71.644L398.166 439 359 415.742v-71.644L398.164 340zm65.066 16.626v-12.732h-5v32.648h5V361.71c1.263-1.82 3.413-3.73 6.264-3.73 2.99 0 5.233 1.724 5.233 5.363v13.2h5V362.69c0-5.317-3.597-9.14-9.252-9.14-3.038 0-5.608 1.397-7.244 3.076zm73.16 47.92c0-4.383 2.945-7.415 6.964-7.415 3.505 0 6.076 2.24 7.15 4.665v5.457c-1.074 2.472-3.645 4.71-7.15 4.71-4.02 0-6.963-3.03-6.963-7.415zm19.16 11.194v-32.648h-5v13.153c-1.542-1.773-4.158-3.498-8.084-3.498-6.776 0-11.122 5.364-11.122 11.8 0 6.436 4.346 11.8 11.122 11.8 4.206 0 6.87-1.96 8.6-4.15v3.543h4.485zm-89.585-3.264c-2.243 0-4.206-1.12-4.206-3.312 0-2.798 2.99-3.684 5.84-3.684 1.59 0 3.506.28 4.86.56v3.778c-1.775 1.77-4.112 2.658-6.495 2.658zm14.627-.56c-.467.14-.98.28-1.495.28-.888 0-1.636-.373-1.636-1.632v-8.023c0-6.762-4.018-9.793-10.373-9.793-3.6 0-6.823.886-8.6 1.492v4.57c2.01-.886 4.767-1.726 8.085-1.726 3.832 0 5.89 1.96 5.89 4.758v.792c-1.777-.373-3.927-.652-5.843-.652-4.674 0-10 1.772-10 7.51 0 4.616 3.784 6.854 7.85 6.854 3.505 0 6.262-1.118 8.458-2.89.795 1.818 2.43 2.61 4.487 2.61 1.12 0 2.243-.186 3.177-.56v-3.59zm21.357-17.444c-1.964-1.166-4.394-1.725-6.918-1.725-5.98 0-12.384 3.637-12.384 11.986 0 7.976 6.122 11.613 12.104 11.613 2.85 0 5.28-.512 7.43-1.54v-4.615c-1.775 1.026-4.16 1.726-6.542 1.726-4.02 0-7.898-2.286-7.898-7.37 0-5.27 4.02-7.368 7.992-7.368 2.29 0 4.58.7 6.215 1.865v-4.57zm8.505 14.692c0 2.193 1.962 3.312 4.206 3.312 2.384 0 4.72-.887 6.496-2.658v-3.78c-1.355-.28-3.27-.558-4.86-.558-2.85 0-5.84.886-5.84 3.684zm17.337 3.032c.515 0 1.028-.14 1.496-.28v3.59c-.935.374-2.056.56-3.178.56-2.056 0-3.692-.792-4.487-2.61-2.196 1.772-4.953 2.89-8.458 2.89-4.066 0-7.85-2.238-7.85-6.855 0-5.736 5.326-7.508 10-7.508 1.916 0 4.065.28 5.84.652v-.792c0-2.8-2.055-4.758-5.887-4.758-3.318 0-6.075.84-8.085 1.726v-4.57c1.776-.607 5-1.493 8.6-1.493 6.354 0 10.374 3.03 10.374 9.794v8.024c0 1.26.748 1.632 1.635 1.632zm44.21-15.3c-3.365 0-6.403 2.007-6.59 5.785h12.43c.282-1.958-.933-5.783-5.84-5.783zm-.234-4.15c8.926 0 12.01 7.183 10.562 13.666h-16.87c.56 4.012 4.486 5.69 8.598 5.69 2.71 0 5.187-.653 7.104-1.585v4.29c-2.057.98-4.908 1.54-8.04 1.54-6.87 0-12.71-3.918-12.71-11.8 0-8.116 6.17-11.8 11.356-11.8zm15.656.607v22.387h5v-15.11c1.17-1.494 3.225-3.452 5.935-3.452 2.71 0 4.44 1.818 4.44 4.71v13.852h5v-13.992c0-.508-.047-1.017-.093-1.526v-.013c1.167-1.4 3.083-3.032 5.56-3.032 2.71 0 4.44 1.818 4.44 4.71v13.852h5v-13.992c0-4.618-2.57-9-8.505-9-3.272 0-5.888 1.63-7.85 3.59-1.31-2.192-3.647-3.59-7.01-3.59-3.647 0-6.264 2.05-7.48 3.403v-2.797h-4.438zm57.342 0H650l-10.515 25.42c-2.43 5.83-5.608 7.788-9.02 7.788-.98 0-1.962-.14-2.944-.372v-4.245c.75.234 1.544.327 2.292.327 2.43 0 4.252-1.726 5.56-5.224l.468-1.12-10.655-22.573h5.327l7.57 16.884 6.684-16.884zM493.42 346.18v7.975h8.133v4.384h-8.132v10.26c0 2.938 1.356 3.918 4.254 3.918 1.635 0 3.13-.327 4.533-.886v4.29c-1.683.607-3.832.98-6.03.98-4.345 0-7.71-2.145-7.71-7.37V358.54h-4.02v-4.385h4.02v-6.763l4.954-1.213zm14.533 7.975v22.387h5V361.43c1.168-1.492 3.225-3.45 5.935-3.45 2.71 0 4.44 1.818 4.44 4.71v13.852h5V362.55c0-.513-.047-1.027-.094-1.54 1.17-1.4 3.085-3.03 5.562-3.03 2.71 0 4.44 1.818 4.44 4.71v13.852h5V362.55c0-4.618-2.57-9.002-8.505-9.002-3.27 0-5.888 1.632-7.85 3.59-1.31-2.19-3.646-3.59-7.01-3.59-3.646 0-6.263 2.052-7.478 3.405v-2.798h-4.44zm42.598 22.387h5.002v-32.648h-5v32.648z" fill="#2E297E"/><path fill="#4459FF" d="M290 127.174l47.98-27.588 23.88 13.732-47.978 27.588z"/><path fill="#F05A28" d="M345.744 78.5l-7.802 4.486 49.06 28.21 7.802-4.487z"/><path transform="matrix(.8669 -.49847 .8669 .49847 362 145.637)" fill="#fff" stroke="#D2D5E3" stroke-width="2" stroke-linecap="round" stroke-linejoin="round" d="M0 0h19.332v18.622H0z"/><path transform="matrix(.8669 -.49847 .8669 .49847 640 70.137)" fill="#fff" stroke="#D2D5E3" stroke-width="2" stroke-linecap="round" stroke-linejoin="round" stroke-dasharray="4 6" d="M0 0h18.505v18.622H0z"/><path transform="scale(1.226 .70494) rotate(-45 1524.822 7.543)" fill="#fff" stroke="#D2D5E3" stroke-width="2" stroke-linecap="round" stroke-linejoin="round" d="M0 0h19.332v25.363H0z"/><path transform="scale(1.226 .70494) rotate(-45 618.834 -427.705)" fill="#fff" stroke="#D2D5E3" stroke-width="2" stroke-linecap="round" stroke-linejoin="round" d="M0 0h34.426v17.312H0z"/><path transform="scale(1.226 .70494) rotate(-45 1230.01 -76.42)" fill="#fff" stroke="#D2D5E3" stroke-width="2" stroke-linecap="round" stroke-linejoin="round" d="M0 0h17.366v58.876H0z"/><path fill="#4459FF" d="M499.25 602.335l-32.35 18.6 13.12 7.544 32.348-18.602z"/><path transform="scale(1.226 .70494) rotate(135 37.88 501.336)" stroke="#D2D5E3" stroke-width="2" stroke-linecap="round" stroke-linejoin="round" stroke-dasharray="4 6" d="M0 0h33.132v17.09H0z"/><path fill="#E79B07" d="M490.248 630.495l-3.305 1.9 30.365 17.46 3.305-1.9zM461.432 624.057l-3.498 2.01 50.37 28.964 3.5-2.01zM448.688 631.432l3.502-2.014 50.33 28.94-3.5 2.014z"/><path transform="scale(1.226 .70494) rotate(135 38.668 540.574)" stroke="#2E297E" stroke-width="2" stroke-linecap="round" stroke-linejoin="round" d="M0 0h25.773v34.63H0z"/><path fill="#F05A28" d="M559.39 636.916l-70.027 40.265 6.823 3.925 70.027-40.266z"/><path transform="scale(1.226 .70494) rotate(-45 611.985 -493.773)" stroke="#2E297E" stroke-width="2" stroke-linecap="round" stroke-linejoin="round" stroke-dasharray="4 6" d="M0 0h18.268v11.315H0z"/><path fill="#E79B07" d="M606 240.19l40.642-23.368 3.478 2-40.642 23.37zM625 238.454l40.642-23.37 3.478 2-40.642 23.37z"/><path transform="scale(1.226 .70494) rotate(-45 311.325 -230.23)" stroke="#D2D5E3" stroke-width="2" stroke-linecap="round" stroke-linejoin="round" stroke-dasharray="4 6" d="M0 0h16.35v14H0z"/><path transform="matrix(.8669 -.49847 .8669 .49847 311 168.514)" stroke="#2E297E" stroke-width="2" stroke-linecap="round" stroke-linejoin="round" stroke-dasharray="4 6" d="M0 0h27.11v17.796H0z"/><path d="M394.5 155.5l41 23.5 41-23.5-25.5-14 69-40-41.5-23 13.5-8-82.5-47 48-27.5" stroke="#D2D5E3" stroke-width="2" stroke-linecap="round" stroke-linejoin="round" stroke-dasharray="4 6"/><path d="M600 246l-12 7 39 22 99.5-57-22.5-13 40.5-24" stroke="#E79B07" stroke-width="2" stroke-linecap="round" stroke-linejoin="round" stroke-dasharray="4 6"/><path d="M705.5-14L640 23.5 681 47l-20.5 11.75" stroke="#D2D5E3" stroke-width="2" stroke-linecap="round" stroke-linejoin="round" stroke-dasharray="4 6"/><path d="M314.942 37l71.5 39.5-14 8" stroke="#F05A28" stroke-width="2" stroke-linecap="round" stroke-linejoin="round" stroke-dasharray="4 6"/><path d="M476.5 608l-52-28.5L437 572l-41-23.32-21.5 12.5L393 572l-47 26.5" stroke="#4459FF" stroke-width="2" stroke-linecap="round" stroke-linejoin="round" stroke-dasharray="4 6"/><path d="M286 800.5l42-24.5-41-23.5 82-47 28 16-24.5 14L415 760" stroke="#D2D5E3" stroke-width="2" stroke-linecap="round" stroke-linejoin="round" stroke-dasharray="4 6"/><path d="M535 666l33 19.5 61.5-35 20.5 12-34.5 20 39.5 23" stroke="#F05A28" stroke-width="2" stroke-linecap="round" stroke-linejoin="round" stroke-dasharray="4 6"/><path d="M554 599.5l60.5-35 58 33 42-23.5-44-24.5L695 536l19.5 10.5" stroke="#D2D5E3" stroke-width="2" stroke-linecap="round" stroke-linejoin="round" stroke-dasharray="4 6"/><path d="M616.996 813.363c.476.28 1.09.118 1.367-.36.28-.475.118-1.088-.36-1.366l-1.007 1.726zM573 786.5l.504-.863c-.31-.182-.695-.183-1.006-.002l.502.865zm-15.5 9l-.49.87c.308.175.686.173.992-.005l-.502-.865zM530 780l-.47-.882c-.323.17-.526.505-.53.87-.004.365.19.704.51.883l.49-.87zm15.47-7.118c.488-.26.672-.865.412-1.353-.26-.488-.865-.672-1.353-.412l.94 1.764zm-2.44-.964c-.488.26-.672.865-.412 1.353.26.488.865.672 1.353.412l-.94-1.764zm-3.56 4.164c.488-.26.672-.865.412-1.353-.26-.488-.865-.672-1.353-.412l.94 1.764zm-3.94-.164c-.488.26-.672.865-.412 1.353.26.488.865.672 1.353.412l-.94-1.764zm-3.56 4.164c.488-.26.672-.865.412-1.353-.26-.488-.865-.672-1.353-.412l.94 1.764zm-.628 1.822c.48.272 1.09.1 1.362-.38s.1-1.09-.38-1.362l-.982 1.742zm6.482 1.358c-.48-.27-1.09-.1-1.362.38-.27.48-.1 1.09.38 1.362l.982-1.742zm2.685 3.81c.48.27 1.09.1 1.36-.38.272-.482.102-1.092-.38-1.363l-.98 1.74zm6.48 1.357c-.48-.272-1.09-.102-1.36.38-.272.48-.102 1.09.38 1.36l.98-1.74zm2.686 3.808c.48.27 1.09.1 1.362-.38.27-.48.1-1.09-.38-1.362l-.982 1.742zm6.482 1.358c-.48-.272-1.09-.1-1.362.38s-.1 1.09.38 1.362l.982-1.742zm3.394 1.87c.478-.28.64-.89.363-1.368-.278-.478-.89-.64-1.367-.363l1.004 1.73zm3.646-4.43c-.478.277-.64.89-.363 1.366.278.478.89.64 1.367.363l-1.004-1.73zm4.104-.07c.478-.28.64-.89.363-1.368-.278-.478-.89-.64-1.367-.363l1.004 1.73zm3.646-4.43c-.478.277-.64.89-.363 1.366.278.478.89.64 1.367.363l-1.004-1.73zm3.328 1.867c.476.28 1.09.118 1.367-.36.28-.475.118-1.088-.36-1.366l-1.007 1.726zm6.348 1.394c-.476-.28-1.09-.118-1.367.36-.28.475-.118 1.088.36 1.366l1.007-1.726zm2.552 3.806c.476.28 1.09.118 1.367-.36.28-.475.118-1.088-.36-1.366l-1.007 1.726zm6.348 1.394c-.476-.28-1.09-.118-1.367.36-.28.475-.118 1.088.36 1.366l1.007-1.726zm2.552 3.806c.476.28 1.09.118 1.367-.36.28-.475.118-1.088-.36-1.366l-1.007 1.726zm6.348 1.394c-.476-.28-1.09-.118-1.367.36-.28.475-.118 1.088.36 1.366l1.007-1.726zm2.552 3.806c.476.28 1.09.118 1.367-.36.28-.475.118-1.088-.36-1.366l-1.007 1.726zm6.348 1.394c-.476-.28-1.09-.118-1.367.36-.28.475-.118 1.088.36 1.366l1.007-1.726zm2.552 3.806c.476.28 1.09.118 1.367-.36.28-.475.118-1.088-.36-1.366l-1.007 1.726zm6.348 1.394c-.476-.28-1.09-.118-1.367.36-.28.475-.118 1.088.36 1.366l1.007-1.726zm-71.695-39.48l-1.5.8.94 1.765 1.5-.8-.94-1.764zm-6 3.2l-3 1.6.94 1.765 3-1.6-.94-1.764zm-7.5 4l-1.5.8.94 1.765 1.5-.8-.94-1.764zm-1.52 2.554l1.832 1.034.982-1.742-1.833-1.033-.98 1.74zm7.332 4.134l3.667 2.067.98-1.74-3.666-2.068-.982 1.742zm9.167 5.167l3.666 2.068.982-1.742-3.667-2.067-.98 1.74zm9.166 5.168l1.833 1.033.98-1.74-1.832-1.034-.982 1.742zm2.826 1.027l1.55-.9-1.004-1.73-1.55.9 1.004 1.73zm6.2-3.6l3.1-1.8-1.004-1.73-3.1 1.8 1.004 1.73zm7.75-4.5l1.55-.9-1.004-1.73-1.55.9 1.004 1.73zm.544-.902l1.78 1.04 1.008-1.726-1.78-1.04-1.008 1.726zm7.12 4.16l3.56 2.08 1.008-1.726-3.56-2.08-1.008 1.726zm8.9 5.2l3.56 2.08 1.008-1.726-3.56-2.08-1.008 1.726zm8.9 5.2l3.56 2.08 1.008-1.726-3.56-2.08-1.008 1.726zm8.9 5.2l3.56 2.08 1.008-1.726-3.56-2.08-1.008 1.726zm8.9 5.2l1.78 1.04 1.008-1.726-1.78-1.04-1.008 1.726z" fill="#D2D5E3"/></g><defs><clipPath id="a"><path fill="#fff" d="M0 0h1000v800H0z"/></clipPath></defs></svg>