<svg width="705" height="236" viewBox="0 0 705 236" fill="none" xmlns="http://www.w3.org/2000/svg"><g clip-path="url(#clip0)"><path fill="#E0E7ED" d="M0 0h705v236H0z"/><g filter="url(#filter0_d)"><path d="M-23 28.9c0-4.91 3.58-8.9 8-8.9h612c4.42 0 8 3.99 8 8.9v178.2c0 4.91-3.58 8.9-8 8.9H-15c-4.42 0-8-3.99-8-8.9V28.9z" fill="#F5F9FC"/></g><path d="M-23 28.9c0-4.91 3.58-8.9 8-8.9h150v196H-15c-4.42 0-8-3.99-8-8.9V28.9zM175 152a24 24 0 0124-24h80a24 24 0 110 48h-80a24 24 0 01-24-24z" fill="#fff"/><path fill-rule="evenodd" clip-rule="evenodd" d="M279 130h-80a22 22 0 000 44h80a22 22 0 000-44zm-80-2a24 24 0 100 48h80a24 24 0 100-48h-80z" fill="#A8C9E1"/><path d="M175 152a24 24 0 0124-24h20v48h-20a24 24 0 01-24-24z" fill="#A8C9E1"/><path fill-rule="evenodd" clip-rule="evenodd" d="M200.32 142.05a1 1 0 01.63 1.27l-1.56 4.68h3.89l1.77-5.32a1 1 0 011.9.64l-1.56 4.68H208a1 1 0 010 2h-3.28l-1.33 4H206a1 1 0 010 2h-3.28l-1.77 5.32a1 1 0 11-1.9-.64l1.56-4.68h-3.89l-1.77 5.32a1 1 0 11-1.9-.64l1.56-4.68H192a1 1 0 110-2h3.28l1.33-4H194a1 1 0 110-2h3.28l1.77-5.32a1 1 0 011.27-.63zm-1.6 7.95l-1.33 4h3.89l1.33-4h-3.89z" fill="#fff"/><path d="M241.19 157.93h3.72l2.91-13.55.62-1.66-1.37 1.32-3.36 2.21-.79-1.43 6.92-4.76h.95l-3.8 17.87h3.63l-.42 2.07h-9.43l.42-2.07zM267.97 144.01c0 .97-.27 2.03-.81 3.17a21.9 21.9 0 01-2.08 3.44 40.49 40.49 0 01-2.71 3.36 62.84 62.84 0 01-2.86 2.94l-1.54 1.2v.12l1.74-.31h5.74l-.4 2.07h-10.6l.16-.81a99.2 99.2 0 011.8-1.74 91.55 91.55 0 004.87-5.01 33 33 0 002.27-2.8 15.5 15.5 0 001.62-2.74 5.8 5.8 0 00.62-2.44c0-.35-.04-.68-.12-.98-.07-.3-.2-.55-.36-.76a1.5 1.5 0 00-.73-.5c-.32-.13-.73-.2-1.23-.2a4.8 4.8 0 00-1.96.42c-.64.27-1.3.63-2.02 1.1l-.58-1.68a8.28 8.28 0 015.26-1.8c1.3 0 2.28.38 2.94 1.12.65.73.98 1.67.98 2.83zM269.63 149.53h4.93v-5.07h2.02v5.07h4.93v2.01h-4.93v5.07h-2.02v-5.07h-4.93v-2.01z" fill="#67A0CF"/><path d="M175 84a24 24 0 0124-24h164a24 24 0 110 48H199a24 24 0 01-24-24z" fill="#fff"/><path fill-rule="evenodd" clip-rule="evenodd" d="M363 62H199a22 22 0 000 44h164a22 22 0 000-44zm-164-2a24 24 0 100 48h164a24 24 0 100-48H199z" fill="#A8C9E1"/><path d="M175 84a24 24 0 0124-24h20v48h-20a24 24 0 01-24-24z" fill="#A8C9E1"/><path fill-rule="evenodd" clip-rule="evenodd" d="M200.32 74.05a1 1 0 01.63 1.27L199.39 80h3.89l1.77-5.32a1 1 0 011.9.64L205.39 80H208a1 1 0 010 2h-3.28l-1.33 4H206a1 1 0 010 2h-3.28l-1.77 5.32a1 1 0 01-1.9-.64l1.56-4.68h-3.89l-1.77 5.32a1 1 0 01-1.9-.64l1.56-4.68H192a1 1 0 010-2h3.28l1.33-4H194a1 1 0 010-2h3.28l1.77-5.32a1 1 0 011.27-.63zm-1.6 7.95l-1.33 4h3.89l1.33-4h-3.89z" fill="#fff"/><path d="M243.31 81.3a8.02 8.02 0 012.47-2.49 5.9 5.9 0 013-.75c1.28 0 2.2.36 2.76 1.09.56.73.84 1.74.84 3.05 0 1.55-.2 2.95-.61 4.2-.4 1.25-.93 2.31-1.6 3.2a7.5 7.5 0 01-2.32 2.04 5.6 5.6 0 01-4.82.28 3.85 3.85 0 01-1.37-1.12 5 5 0 01-.76-1.63 8.26 8.26 0 01-.22-1.96c0-1.98.19-3.82.56-5.51.4-1.7.91-3.19 1.57-4.46a10.17 10.17 0 012.35-3.08 5.77 5.77 0 012.91-1.42 247.5 247.5 0 013.92-.45c.52-.06.96-.12 1.32-.2.37-.1.66-.22.87-.39l-.09 1.96c-.3.22-.8.42-1.51.59-.7.15-1.74.28-3.14.39-.63.06-1.25.17-1.84.34a4.5 4.5 0 00-1.68.95 7 7 0 00-1.52 1.99c-.46.85-.9 1.98-1.28 3.38h.2zm-.39 5.6c0 .49.03.95.08 1.38.06.43.18.8.37 1.12.18.31.45.57.78.75.34.17.79.25 1.35.25s1.1-.17 1.65-.53c.56-.37 1.05-.9 1.48-1.57a8.9 8.9 0 001.1-2.43c.27-.95.41-2.02.41-3.2 0-.35-.03-.68-.1-1a2.1 2.1 0 00-.34-.84c-.17-.26-.4-.47-.7-.62a2.39 2.39 0 00-1.12-.22 3.4 3.4 0 00-1.82.56c-.6.35-1.13.85-1.6 1.48a8.2 8.2 0 00-1.54 4.87zM258.94 78l-1.96 9.32c-.12.5-.17.97-.17 1.4 0 .53.1.97.3 1.32.21.34.58.5 1.13.5.44 0 .9-.1 1.34-.33a7.56 7.56 0 002.46-2.04c.36-.44.65-.86.87-1.27l1.88-8.9h2.1l-1.77 8.32a90.49 90.49 0 00-.45 2.6 45.82 45.82 0 00-.19 2.72V92h-1.65v-2.66h-.11a8.72 8.72 0 01-2.19 2.04 6.05 6.05 0 01-3 .96c-.4 0-.79-.05-1.14-.14-.34-.1-.64-.26-.9-.48a2.52 2.52 0 01-.61-.92c-.15-.4-.23-.9-.23-1.49 0-.65.1-1.39.28-2.21l1.9-9.1h2.1zM268.67 87.63c0-1.47.19-2.82.56-4.03.4-1.23.93-2.29 1.6-3.16a7.5 7.5 0 012.32-2.05 5.9 5.9 0 012.86-.73c.78 0 1.45.13 1.99.4a3.84 3.84 0 012.1 2.55c.15.55.22 1.14.22 1.76 0 1.4-.19 2.7-.56 3.92a10.17 10.17 0 01-1.51 3.16c-.64.9-1.38 1.6-2.24 2.13-.86.5-1.8.76-2.8.76-.84 0-1.55-.13-2.13-.4a4.3 4.3 0 01-1.4-1.09 4.48 4.48 0 01-.78-1.51 6.62 6.62 0 01-.23-1.7zm2.24-.5c0 1.1.2 1.95.62 2.55.41.57 1.06.86 1.96.86.62 0 1.2-.21 1.74-.64a5.9 5.9 0 001.45-1.8 11.6 11.6 0 001.4-5.57c0-.95-.18-1.7-.53-2.23-.34-.56-.99-.84-1.96-.84-.62 0-1.2.21-1.76.64-.56.41-1.07.97-1.52 1.68-.43.71-.77 1.53-1.03 2.46-.25.92-.37 1.88-.37 2.89zM281.97 88.64c0-.9.2-1.62.6-2.18.38-.56.88-1.03 1.48-1.4.6-.38 1.24-.69 1.93-.93.69-.24 1.33-.48 1.93-.73.6-.26 1.1-.55 1.48-.86.4-.34.6-.78.6-1.32 0-.6-.18-1.02-.51-1.26-.32-.24-.88-.36-1.68-.36-.71 0-1.33.08-1.85.25-.5.15-.96.32-1.37.53l-.42-1.65c.6-.32 1.25-.55 1.96-.7.7-.15 1.45-.23 2.24-.23.75 0 1.36.09 1.85.26.5.16.9.39 1.2.67.3.28.5.6.62.98.13.37.2.76.2 1.17 0 .9-.2 1.63-.6 2.19-.39.54-.88.99-1.48 1.34-.6.34-1.24.62-1.93.84-.7.23-1.34.47-1.93.73-.6.26-1.1.58-1.49.95-.39.36-.59.84-.59 1.46 0 .65.21 1.17.62 1.57.43.39.99.58 1.68.58a6.83 6.83 0 003.61-1.12l.56 1.38a7.2 7.2 0 01-4.31 1.54c-.91 0-1.66-.13-2.24-.37-.56-.26-1-.58-1.34-.95a3.04 3.04 0 01-.65-1.2 4.7 4.7 0 01-.17-1.18zM296.76 78h1.46l-.14 2.4h.11c.26-.33.55-.65.87-.97.33-.34.7-.64 1.09-.9a5.12 5.12 0 012.8-.87c.45 0 .87.08 1.26.23.4.13.74.36 1.04.7.3.32.53.74.7 1.29.18.54.28 1.2.28 1.98 0 1.65-.23 3.12-.68 4.43a10.73 10.73 0 01-1.76 3.27 8.02 8.02 0 01-2.46 2.08c-.9.46-1.8.7-2.7.7-.64 0-1.22-.07-1.73-.2a2.75 2.75 0 01-.98-.36l-1.23 5.82h-2.1l4.17-19.6zm5.4 1.46c-.5 0-.98.13-1.45.39a6.2 6.2 0 00-1.26.98 9.85 9.85 0 00-1.74 2.44l-1.37 6.63c.32.24.65.41.98.5a4.07 4.07 0 003.17-.44 6.07 6.07 0 001.79-1.74c.52-.75.93-1.64 1.23-2.69.32-1.04.48-2.21.48-3.5 0-.74-.16-1.36-.48-1.85-.3-.48-.75-.72-1.34-.72zM318.54 86.48c-.15.7-.25 1.4-.3 2.1-.06.71-.1 1.38-.1 2v.8c0 .25.03.47.06.68h-1.56l-.4-2.44h-.1a7.62 7.62 0 01-1.91 1.85 5.26 5.26 0 01-2.69.87c-2.22 0-3.33-1.45-3.33-4.34 0-1.2.15-2.41.45-3.64.31-1.24.79-2.35 1.42-3.34a8.16 8.16 0 012.5-2.43 6.9 6.9 0 013.7-.95c.52 0 1.15.06 1.9.2.76.1 1.47.26 2.13.47l-1.77 8.17zm-6.36 4.06c.45 0 .88-.1 1.3-.3.4-.23.79-.5 1.14-.82a7.12 7.12 0 001.65-2.04l1.57-7.56a5.04 5.04 0 00-2.13-.4 3.6 3.6 0 00-2.26.76c-.66.5-1.2 1.17-1.66 2-.44.8-.78 1.7-1 2.74a14.41 14.41 0 00-.34 3.08c0 .7.14 1.31.42 1.82.28.48.72.72 1.31.72zM327.82 92.11a3.93 3.93 0 01-1.4.22c-1.53 0-2.68-.4-3.45-1.23a4.64 4.64 0 01-1.15-3.24c0-1.6.21-3 .62-4.26.41-1.25.97-2.3 1.68-3.16a6.84 6.84 0 016.72-2.55L332 72.4H334l-1.17 5.52a10.16 10.16 0 011.62-.14c1.46 0 2.56.4 3.3 1.23a4.4 4.4 0 011.15 3.16c0 1.76-.23 3.28-.7 4.57a9.7 9.7 0 01-1.76 3.16 6.91 6.91 0 01-5.94 2.38 2.1 2.1 0 01-.7-.14l-1.14 5.46h-2.02l1.18-5.49zm5.82-12.54a6.81 6.81 0 00-1.23.17l-2.27 10.7a5.86 5.86 0 001.18.1c.6 0 1.21-.16 1.85-.5.63-.34 1.2-.84 1.7-1.51a8.4 8.4 0 001.3-2.52c.33-1.03.5-2.23.5-3.61 0-1.89-1.01-2.83-3.03-2.83zm-6.8 10.97c.2 0 .42-.01.64-.05l.73-.11 2.27-10.67a7.4 7.4 0 00-1.26-.14c-.56 0-1.15.18-1.77.53-.6.34-1.14.84-1.65 1.51-.5.67-.92 1.5-1.26 2.47-.32.97-.48 2.08-.48 3.33 0 .93.24 1.69.7 2.27.47.57 1.16.86 2.08.86zM345.62 78l-1.96 9.32c-.12.5-.17.97-.17 1.4 0 .53.1.97.3 1.32.21.34.58.5 1.13.5.44 0 .9-.1 1.34-.33a7.6 7.6 0 002.46-2.04c.36-.44.65-.86.87-1.27l1.88-8.9h2.1l-1.77 8.32a80.19 80.19 0 00-.45 2.6 43.16 43.16 0 00-.19 2.72V92h-1.65v-2.66h-.11a8.8 8.8 0 01-2.19 2.04 6.05 6.05 0 01-3 .96c-.4 0-.79-.05-1.14-.14a2.3 2.3 0 01-.9-.48 2.51 2.51 0 01-.61-.92c-.15-.4-.23-.9-.23-1.49 0-.65.1-1.39.28-2.21l1.9-9.1h2.1zM362.88 86.23l-2.15.34-4.5 5.43h-2.73l4.1-4.79 1.36-1.03a3.5 3.5 0 01-1.87-.93c-.5-.5-.76-1.2-.76-2.1a5.15 5.15 0 011.96-4.03 6.4 6.4 0 012.07-1.06 8.08 8.08 0 013.64-.31 9.06 9.06 0 011.96.39c.27.07.48.14.65.2L363.75 92h-2.1l1.24-5.77zm1.4-6.41c-.09-.1-.3-.18-.61-.25a5.87 5.87 0 00-1.29-.11c-1.12 0-2.03.31-2.74.95a3.13 3.13 0 00-1.07 2.49c0 1.36.97 2.04 2.92 2.04h.81l.87-.05 1.12-5.07z" fill="#67A0CF"/><path d="M407 84a24 24 0 0124-24h80a24 24 0 110 48h-80a24 24 0 01-24-24z" fill="#fff"/><path fill-rule="evenodd" clip-rule="evenodd" d="M511 62h-80a22 22 0 000 44h80a22 22 0 000-44zm-80-2a24 24 0 100 48h80a24 24 0 100-48h-80z" fill="#A8C9E1"/><path d="M407 84a24 24 0 0124-24h20v48h-20a24 24 0 01-24-24z" fill="#A8C9E1"/><path fill-rule="evenodd" clip-rule="evenodd" d="M432.32 74.05a1 1 0 01.63 1.27L431.39 80h3.89l1.77-5.32a1 1 0 011.9.64L437.39 80H440a1 1 0 010 2h-3.28l-1.33 4H438a1 1 0 010 2h-3.28l-1.77 5.32a1 1 0 01-1.9-.64l1.56-4.68h-3.89l-1.77 5.32a1 1 0 01-1.9-.64l1.56-4.68H424a1 1 0 010-2h3.28l1.33-4H426a1 1 0 010-2h3.28l1.77-5.32a1 1 0 011.27-.63zm-1.6 7.95l-1.33 4h3.89l1.33-4h-3.89z" fill="#fff"/><path d="M484.44 91.19c-.63.43-1.3.73-2.02.9-.7.16-1.53.25-2.46.25a7 7 0 01-2.94-.6 6.48 6.48 0 01-2.18-1.67 7.8 7.8 0 01-1.38-2.55c-.31-.97-.47-2.03-.47-3.2 0-2.1.3-3.92.92-5.45a11.18 11.18 0 012.44-3.84c1-1 2.14-1.75 3.39-2.24 1.27-.48 2.54-.73 3.83-.73 1.07 0 1.93.08 2.6.23a7.8 7.8 0 011.66.53l-1.01 2.04a8.59 8.59 0 00-3.56-.73 7.44 7.44 0 00-5.54 2.66c-.73.87-1.3 1.91-1.74 3.14a12.55 12.55 0 00-.64 4.15c0 .9.11 1.72.34 2.49a4.98 4.98 0 002.63 3.25c.65.3 1.39.44 2.21.44.88 0 1.6-.09 2.18-.28.58-.2 1.1-.43 1.57-.7l.17 1.9zM497.1 86.96c0-.67-.18-1.24-.54-1.7a5.53 5.53 0 00-1.29-1.27c-.52-.39-1.09-.76-1.7-1.12-.6-.35-1.16-.76-1.68-1.23a6.32 6.32 0 01-1.32-1.65 4.98 4.98 0 01-.5-2.35c0-1 .17-1.84.53-2.55.37-.71.87-1.29 1.48-1.74a6.44 6.44 0 012.22-.98c.85-.2 1.76-.3 2.71-.3 1.08 0 2.05.08 2.91.25.86.16 1.53.38 2.02.64l-1.12 1.99c-.38-.2-.94-.4-1.68-.59-.73-.19-1.58-.28-2.55-.28-1.23 0-2.24.28-3.02.84a2.83 2.83 0 00-1.15 2.44c0 .69.17 1.28.5 1.76.36.47.8.9 1.32 1.29.52.37 1.08.74 1.68 1.1.62.35 1.18.76 1.7 1.22.53.45.96 1 1.3 1.63.35.63.53 1.4.53 2.32 0 1.81-.66 3.21-1.96 4.2-1.31.97-3.19 1.46-5.63 1.46-1.25 0-2.32-.12-3.2-.34a7.47 7.47 0 01-1.95-.7l1.15-2.04c.42.24 1 .48 1.73.72a10.9 10.9 0 004.37.2c.58-.11 1.1-.3 1.57-.56.46-.26.84-.6 1.12-1.04.3-.42.45-.97.45-1.62zM511.23 86.96c0-.67-.18-1.24-.53-1.7a5.51 5.51 0 00-1.29-1.27c-.52-.39-1.1-.76-1.7-1.12-.6-.35-1.16-.76-1.69-1.23a6.36 6.36 0 01-1.31-1.65 4.98 4.98 0 01-.5-2.35c0-1 .17-1.84.53-2.55.37-.71.86-1.29 1.48-1.74a6.45 6.45 0 012.21-.98c.86-.2 1.76-.3 2.72-.3 1.08 0 2.05.08 2.9.25a7.3 7.3 0 012.03.64l-1.13 1.99c-.37-.2-.93-.4-1.68-.59-.72-.19-1.57-.28-2.54-.28-1.24 0-2.24.28-3.03.84a2.83 2.83 0 00-1.14 2.44c0 .69.16 1.28.5 1.76.35.47.8.9 1.31 1.29.53.37 1.09.74 1.69 1.1.61.35 1.18.76 1.7 1.22.53.45.96 1 1.3 1.63.35.63.52 1.4.52 2.32 0 1.81-.65 3.21-1.96 4.2-1.3.97-3.18 1.46-5.63 1.46-1.25 0-2.3-.12-3.19-.34a7.48 7.48 0 01-1.96-.7l1.15-2.04c.43.24 1 .48 1.74.72a10.88 10.88 0 004.37.2 5.2 5.2 0 001.56-.56c.47-.26.84-.6 1.12-1.04.3-.42.45-.97.45-1.62z" fill="#67A0CF"/><path fill-rule="evenodd" clip-rule="evenodd" d="M605 20H135v196h470V20zm-30 30H165v136h410V50z" fill="#744CE5" fill-opacity=".2"/><path fill-rule="evenodd" clip-rule="evenodd" d="M164 49h412v138H164V49zm440-28H136v194h468V21zm1-1v196H135V20h470zm-30 30v136H165V50h410z" fill="#744CE5"/><path fill-rule="evenodd" clip-rule="evenodd" d="M313 118H165v68h148v-68zm-10 10H175v48h128v-48z" fill="#FF6B00" fill-opacity=".2"/><path fill-rule="evenodd" clip-rule="evenodd" d="M174 127h130v50H174v-50zm138-8H166v66h146v-66zm1-1v68H165v-68h148zm-10 10v48H175v-48h128z" fill="#FF6B00"/><path fill-rule="evenodd" clip-rule="evenodd" d="M317 149.61l-5 2.89 5 2.89V153h21v-1h-21v-2.39zM299 149.61l5 2.89-5 2.89V153h-3v-1h3v-2.39z" fill="#FF6B00"/><path fill-rule="evenodd" clip-rule="evenodd" d="M301 153h14v-1h-14v1z" fill="#FF6B00"/><path d="M317.45 138.84l-.26 4.54a6.63 6.63 0 012.07-.36c1.3 0 2.22.38 2.22 1.46 0 .96-.86 1.44-2.08 1.44-.85 0-1.77-.2-2.45-.6v1.28c.72.35 1.66.56 2.61.56 1.8 0 3.3-.9 3.3-2.67 0-1.92-1.46-2.6-3.04-2.6-.42 0-.83.05-1.23.14l.12-1.97h3.77v-1.22h-5.03zM325.3 142.14v-.9h-1.14v8.4h1.28v-3.38c.4.45 1.07.9 2.08.9 1.73 0 2.85-1.38 2.85-3.04 0-1.66-1.13-3.04-2.85-3.04-1.08 0-1.77.5-2.22 1.06zm3.76 1.98c0 1.13-.74 1.9-1.78 1.9-.9 0-1.56-.57-1.84-1.2v-1.4c.28-.63.95-1.2 1.84-1.2 1.04 0 1.79.77 1.79 1.9zM334.98 141.24l-1.38 1.94-1.38-1.94h-1.47l2.1 2.82-2.22 2.94h1.47l1.5-2.04 1.5 2.04h1.46l-2.22-2.94 2.1-2.82h-1.46z" fill="#FF6B00"/><path fill-rule="evenodd" clip-rule="evenodd" d="M233.61 114l2.89 5 2.89-5H237v-9h-1v9h-2.39zM233.61 132l2.89-5 2.89 5H237v3h-1v-3h-2.39z" fill="#FF6B00"/><path fill-rule="evenodd" clip-rule="evenodd" d="M237 129v-14h-1v14h1z" fill="#FF6B00"/><path d="M243.1 108.84l-.26 4.54a6.63 6.63 0 012.08-.36c1.3 0 2.22.38 2.22 1.46 0 .96-.87 1.44-2.08 1.44-.85 0-1.78-.2-2.46-.6v1.28c.72.35 1.67.56 2.62.56 1.8 0 3.3-.9 3.3-2.67 0-1.92-1.47-2.6-3.04-2.6-.42 0-.84.05-1.24.14l.12-1.97h3.77v-1.22h-5.03zM250.95 112.14v-.9h-1.14v8.4h1.28v-3.38c.4.45 1.07.9 2.08.9 1.73 0 2.86-1.38 2.86-3.04 0-1.66-1.13-3.04-2.86-3.04-1.08 0-1.76.5-2.22 1.06zm3.77 1.98c0 1.13-.75 1.9-1.79 1.9-.89 0-1.56-.57-1.84-1.2v-1.4c.28-.63.95-1.2 1.84-1.2 1.04 0 1.79.77 1.79 1.9zM260.63 111.24l-1.38 1.94-1.38-1.94h-1.46l2.1 2.82-2.22 2.94h1.46l1.5-2.04 1.5 2.04h1.46l-2.21-2.94 2.1-2.82h-1.47z" fill="#FF6B00"/><path fill-rule="evenodd" clip-rule="evenodd" d="M362.61 44l2.89 5 2.89-5H366V26h2.39l-2.89-5-2.89 5H365v18h-2.39z" fill="#744CE5"/><path d="M373.6 30.84l-1.98.76v1.26l1.63-.62v5.52h-1.63V39h4.44v-1.24h-1.45v-6.92h-1zM377.44 30.84l-.27 4.54a6.63 6.63 0 012.08-.36c1.3 0 2.22.38 2.22 1.46 0 .96-.87 1.44-2.08 1.44-.85 0-1.77-.2-2.46-.6v1.28c.72.35 1.67.56 2.62.56 1.8 0 3.3-.9 3.3-2.67 0-1.92-1.47-2.6-3.04-2.6-.42 0-.84.05-1.24.14l.13-1.97h3.76v-1.22h-5.02zM385.28 34.14v-.9h-1.14v8.4h1.29v-3.38c.4.45 1.06.9 2.07.9 1.73 0 2.86-1.38 2.86-3.04 0-1.66-1.13-3.04-2.86-3.04-1.08 0-1.76.5-2.22 1.06zm3.77 1.98c0 1.13-.74 1.9-1.79 1.9-.88 0-1.56-.57-1.83-1.2v-1.4c.27-.63.94-1.2 1.83-1.2 1.05 0 1.8.77 1.8 1.9zM394.96 33.24l-1.38 1.94-1.38-1.94h-1.46l2.1 2.82-2.22 2.94h1.46l1.5-2.04 1.5 2.04h1.47l-2.22-2.94 2.1-2.82h-1.47z" fill="#744CE5"/><path fill-rule="evenodd" clip-rule="evenodd" d="M142 118.39l-5-2.89 5-2.89V115h18v-2.39l5 2.89-5 2.89V116h-18v2.39z" fill="#744CE5"/><path d="M140.78 101.84l-1.98.76v1.26l1.63-.62v5.52h-1.63V110h4.44v-1.24h-1.45v-6.92h-1zM144.62 101.84l-.27 4.54a6.63 6.63 0 012.08-.36c1.3 0 2.22.38 2.22 1.46 0 .96-.87 1.44-2.08 1.44-.85 0-1.78-.2-2.46-.6v1.28c.72.35 1.67.56 2.62.56 1.8 0 3.3-.9 3.3-2.67 0-1.92-1.47-2.6-3.04-2.6-.42 0-.84.05-1.24.14l.13-1.97h3.76v-1.22h-5.02zM152.46 105.14v-.9h-1.14v8.4h1.29v-3.38c.4.45 1.06.9 2.07.9 1.73 0 2.86-1.38 2.86-3.04 0-1.66-1.13-3.04-2.86-3.04-1.08 0-1.76.5-2.22 1.06zm3.77 1.98c0 1.13-.74 1.9-1.79 1.9-.88 0-1.56-.57-1.83-1.2v-1.4c.27-.63.94-1.2 1.83-1.2 1.05 0 1.8.77 1.8 1.9zM162.14 104.24l-1.38 1.94-1.38-1.94h-1.46l2.1 2.82-2.22 2.94h1.46l1.5-2.04 1.5 2.04h1.47l-2.22-2.94 2.1-2.82h-1.47z" fill="#744CE5"/><path d="M86.74 118.24l-14.5-21.07-6.68 5.46 7.63 11.9 4.33 3.81-4.33 3.42-8.19 11.8 6.68 5.46 15.06-20.78zm18.26.2L89.94 96l-7.43 6.05 8.18 12.3 4.52 4-4.52 3.5-8.75 12.1 7.44 6.05L105 118.44z" fill="#EDF4FA"/></g><defs><clipPath id="clip0"><path fill="#fff" d="M0 0h705v236H0z"/></clipPath><filter id="filter0_d" x="-39" y="16" width="660" height="228" filterUnits="userSpaceOnUse" color-interpolation-filters="sRGB"><feFlood flood-opacity="0" result="BackgroundImageFix"/><feColorMatrix in="SourceAlpha" values="0 0 0 0 0 0 0 0 0 0 0 0 0 0 0 0 0 0 127 0"/><feOffset dy="12"/><feGaussianBlur stdDeviation="8"/><feColorMatrix values="0 0 0 0 0.214983 0 0 0 0 0.259764 0 0 0 0 0.293351 0 0 0 0.1 0"/><feBlend in2="BackgroundImageFix" result="effect1_dropShadow"/><feBlend in="SourceGraphic" in2="effect1_dropShadow" result="shape"/></filter></defs></svg>